<svg width="205" height="30" viewBox="0 0 205 30" fill="none" xmlns="http://www.w3.org/2000/svg">
<g clip-path="url(#clip0_1889_0)">
<path fill-rule="evenodd" clip-rule="evenodd" d="M9.74272 5.60382C11.0669 4.3067 13.1852 4.3067 14.5094 5.60382L17.6442 8.67467C19.0075 10.0102 19.0075 12.2051 17.6442 13.5406L12.181 18.8924L16.0991 22.7305C16.8456 23.4618 16.8579 24.6597 16.1267 25.4062C15.3954 26.1527 14.1974 26.1651 13.4509 25.4338L3.95893 16.1355C2.59561 14.8 2.59561 12.6051 3.95893 11.2696L9.74272 5.60382ZM9.47708 16.2437L14.7201 11.1076L12.126 8.56653L6.88303 13.7025L9.47708 16.2437Z" fill="#3CEAAA"/>
<path fill-rule="evenodd" clip-rule="evenodd" d="M17.6896 8.1987C19.0138 6.90158 21.1321 6.90158 22.4562 8.1987L25.5911 11.2696C26.9544 12.6051 26.9544 14.8 25.5911 16.1355L16.0991 25.4338C15.3526 26.165 14.1546 26.1527 13.4234 25.4062C12.6921 24.6597 12.7044 23.4617 13.4509 22.7305L17.3691 18.8923L14.5548 16.1355C13.1915 14.8 13.1915 12.6051 14.5548 11.2696L17.6896 8.1987ZM20.0729 16.2436L22.667 13.7025L20.0729 11.1614L17.4789 13.7025L20.0729 16.2436Z" fill="#03BCE4"/>
<path opacity="0.95" d="M17.4774 13.7089L14.7218 11.0916L12.0787 13.6873L14.769 16.3637L17.4774 13.7089Z" fill="#00A4E1"/>
</g>
<path d="M35.66 23H38.34V17.82H41.76C44.6 17.82 46.5 16.1 46.5 13.52C46.5 10.98 44.6 9.28 41.76 9.28H35.66V23ZM38.34 15.42V11.68H41.76C43 11.68 43.82 12.42 43.82 13.52C43.82 14.66 43 15.42 41.76 15.42H38.34ZM51.6681 23.28C54.1081 23.28 56.1881 21.8 56.8481 19.6H54.4081C53.9481 20.6 52.8481 21.28 51.6681 21.28C50.1081 21.28 48.9081 20.22 48.6881 18.66H56.8881L57.0881 18.46V18C57.0881 14.84 54.9081 12.72 51.6681 12.72C48.4281 12.72 46.2481 14.84 46.2481 18C46.2481 21.16 48.4281 23.28 51.6681 23.28ZM48.8481 16.66C49.2881 15.5 50.4081 14.72 51.6681 14.72C52.9281 14.72 54.0481 15.5 54.4881 16.66H48.8481ZM58.4231 23H60.8231V17.08C60.8231 15.74 61.8831 14.84 63.4831 14.84H64.3031V13C64.0231 12.88 63.6031 12.8 63.2431 12.8C62.3231 12.8 61.3431 13.36 60.8231 14.18V13H58.4231V23ZM71.4064 12.72C70.1864 12.72 68.8464 13.28 68.0864 14.1V13H65.6864V26.72H68.0864V21.9C68.8464 22.72 70.1864 23.28 71.4064 23.28C74.5664 23.28 76.6864 21.16 76.6864 18C76.6864 14.84 74.5664 12.72 71.4064 12.72ZM71.1664 14.84C73.0264 14.84 74.2864 16.1 74.2864 18C74.2864 19.9 73.0264 21.16 71.1664 21.16C69.3264 21.16 68.0864 19.9 68.0864 18C68.0864 16.1 69.3264 14.84 71.1664 14.84ZM83.0478 23.28C85.4878 23.28 87.5678 21.8 88.2278 19.6H85.7878C85.3278 20.6 84.2278 21.28 83.0478 21.28C81.4878 21.28 80.2878 20.22 80.0678 18.66H88.2678L88.4678 18.46V18C88.4678 14.84 86.2878 12.72 83.0478 12.72C79.8078 12.72 77.6278 14.84 77.6278 18C77.6278 21.16 79.8078 23.28 83.0478 23.28ZM80.2278 16.66C80.6678 15.5 81.7878 14.72 83.0478 14.72C84.3078 14.72 85.4278 15.5 85.8678 16.66H80.2278ZM93.562 23.28C94.202 23.28 94.882 23.16 95.262 23V21.28H93.522C93.002 21.28 92.642 20.94 92.642 20.44V15H95.162V13H92.642V9.28H90.242V13H88.642V15H90.242V20.44C90.242 22.14 91.582 23.28 93.562 23.28ZM106.316 13H103.916V18.94C103.916 20.26 102.936 21.16 101.476 21.16C100.016 21.16 99.0364 20.26 99.0364 18.94V13H96.6364V19.22C96.6364 21.66 98.4764 23.28 101.196 23.28C102.176 23.28 103.276 22.88 103.916 22.26V23H106.316V13ZM112.86 23.28C114.04 23.28 115.34 22.74 116.1 21.92V23H118.5V13H116.1V14.08C115.34 13.26 114.04 12.72 112.86 12.72C109.74 12.72 107.66 14.84 107.66 18C107.66 21.16 109.74 23.28 112.86 23.28ZM113.1 21.16C111.28 21.16 110.06 19.9 110.06 18C110.06 16.1 111.28 14.84 113.1 14.84C114.9 14.84 116.1 16.1 116.1 18C116.1 19.9 114.9 21.16 113.1 21.16ZM120.245 23H122.645V9.28H120.245V23ZM129.523 23H132.203V17.82H135.623C138.463 17.82 140.363 16.1 140.363 13.52C140.363 10.98 138.463 9.28 135.623 9.28H129.523V23ZM132.203 15.42V11.68H135.623C136.863 11.68 137.683 12.42 137.683 13.52C137.683 14.66 136.863 15.42 135.623 15.42H132.203ZM141.312 23H143.712V17.08C143.712 15.74 144.772 14.84 146.372 14.84H147.192V13C146.912 12.88 146.492 12.8 146.132 12.8C145.212 12.8 144.232 13.36 143.712 14.18V13H141.312V23ZM152.599 23.28C155.839 23.28 158.019 21.16 158.019 18C158.019 14.84 155.839 12.72 152.599 12.72C149.359 12.72 147.179 14.84 147.179 18C147.179 21.16 149.359 23.28 152.599 23.28ZM152.599 21.16C150.799 21.16 149.579 19.9 149.579 18C149.579 16.1 150.799 14.84 152.599 14.84C154.399 14.84 155.619 16.1 155.619 18C155.619 19.9 154.399 21.16 152.599 21.16ZM163.309 23.28C163.949 23.28 164.629 23.16 165.009 23V21.28H163.269C162.749 21.28 162.389 20.94 162.389 20.44V15H164.909V13H162.389V9.28H159.989V13H158.389V15H159.989V20.44C159.989 22.14 161.329 23.28 163.309 23.28ZM171.013 23.28C174.253 23.28 176.433 21.16 176.433 18C176.433 14.84 174.253 12.72 171.013 12.72C167.773 12.72 165.593 14.84 165.593 18C165.593 21.16 167.773 23.28 171.013 23.28ZM171.013 21.16C169.213 21.16 167.993 19.9 167.993 18C167.993 16.1 169.213 14.84 171.013 14.84C172.813 14.84 174.033 16.1 174.033 18C174.033 19.9 172.813 21.16 171.013 21.16ZM182.788 23.28C185.508 23.28 187.608 21.54 188.028 18.94H185.728C185.428 20.26 184.248 21.16 182.788 21.16C180.988 21.16 179.768 19.9 179.768 18C179.768 16.1 180.988 14.84 182.788 14.84C184.228 14.84 185.388 15.7 185.708 16.96H188.008C187.568 14.42 185.468 12.72 182.788 12.72C179.548 12.72 177.368 14.84 177.368 18C177.368 21.16 179.548 23.28 182.788 23.28ZM194.387 23.28C197.627 23.28 199.807 21.16 199.807 18C199.807 14.84 197.627 12.72 194.387 12.72C191.147 12.72 188.967 14.84 188.967 18C188.967 21.16 191.147 23.28 194.387 23.28ZM194.387 21.16C192.587 21.16 191.367 19.9 191.367 18C191.367 16.1 192.587 14.84 194.387 14.84C196.187 14.84 197.407 16.1 197.407 18C197.407 19.9 196.187 21.16 194.387 21.16ZM200.947 23H203.347V9.28H200.947V23Z" fill="black"/>
<defs>
<clipPath id="clip0_1889_0">
<rect width="30" height="30" fill="white"/>
</clipPath>
</defs>
</svg>
