<?xml version="1.0" encoding="utf-8"?>
<!-- Generator: Adobe Illustrator 16.0.0, SVG Export Plug-In . SVG Version: 6.00 Build 0)  -->
<!DOCTYPE svg PUBLIC "-//W3C//DTD SVG 1.1//EN" "http://www.w3.org/Graphics/SVG/1.1/DTD/svg11.dtd">
<svg version="1.1" id="Layer_1" xmlns="http://www.w3.org/2000/svg" xmlns:xlink="http://www.w3.org/1999/xlink" x="0px" y="0px"
	 width="750px" height="750px" viewBox="0 0 750 750" enable-background="new 0 0 750 750" xml:space="preserve">
<g>
	<defs>
		<rect id="SVGID_1_" width="750" height="750"/>
	</defs>
	<clipPath id="SVGID_2_">
		<use xlink:href="#SVGID_1_"  overflow="visible"/>
	</clipPath>
	<path clip-path="url(#SVGID_2_)" fill="#F2B705" d="M369.925,13.068C220.459,13.107,99.302,134.265,99.262,283.731
		c0.018,17.097,1.621,34.157,4.789,50.959l35.021-23.943c61.466-42.168,161.168-42.168,222.634,0l36.665,25.158l19.94,13.651
		c55.391,37.951,145.159,37.951,200.478,0l16.296-11.15c30.039-146.514-64.384-289.638-210.897-319.677
		c-17.809-3.651-35.939-5.5-54.119-5.518L369.925,13.068z"/>
	<path clip-path="url(#SVGID_2_)" fill="#53CBC8" d="M522.089,446.329c-38.654,0.738-76.65-10.062-109.138-31.019l-56.534-38.738
		c-62.747-38.505-141.804-38.505-204.551,0l-36.522,25.016c-7.243,4.953-17.131,3.098-22.085-4.146s-3.098-17.131,4.145-22.085
		l36.522-25.015c73.617-45.742,166.814-45.742,240.431,0l56.534,38.738c55.936,34.3,126.389,34.3,182.324,0l21.441-14.652
		c7.244-4.953,17.131-3.098,22.085,4.146c4.954,7.243,3.098,17.131-4.146,22.084l-21.441,14.652
		C598.669,436.214,560.712,447.01,522.089,446.329"/>
	<path clip-path="url(#SVGID_2_)" fill="#53CBC8" d="M252.998,560.04V407.091c-0.131-3.221-0.011-6.447,0.357-9.648
		c1.015-8.709,8.386-15.281,17.153-15.295c8.487,0.259,15.431,6.836,16.153,15.295c0.651,5.31,0.842,10.666,0.572,16.01v304.969
		c0.357,9.861-7.348,18.146-17.21,18.503c-0.1,0.003-0.2,0.006-0.301,0.008c-9.695-0.54-17.117-8.838-16.576-18.533
		c0.015-0.278,0.038-0.558,0.066-0.836V615.859L252.998,560.04z"/>
	<path clip-path="url(#SVGID_2_)" fill="#53CBC8" d="M220.836,483.065v75.974c0,13.008-7.147,21.441-16.796,21.441
		s-17.296-9.076-17.368-21.441V406.948c0-13.294,7.791-22.3,17.869-21.442c10.077,0.858,16.081,8.506,16.152,21.871
		C220.836,432.392,220.836,457.692,220.836,483.065"/>
	<path clip-path="url(#SVGID_2_)" fill="#53CBC8" d="M319.538,482.922v-53.317c0-12.365,6.576-20.369,16.367-20.369
		c10.133,0.475,17.963,9.074,17.488,19.208c-0.011,0.244-0.028,0.488-0.049,0.732c0.334,36.309,0.334,72.639,0,108.994
		c0,12.364-7.147,19.869-17.368,19.726c-10.22-0.143-16.438-7.719-16.509-20.369v-54.533L319.538,482.922z"/>
	<path clip-path="url(#SVGID_2_)" fill="#53CBC8" d="M120.418,493.929v-53.39c0-12.436,6.575-20.44,16.367-20.44
		c10.133,0.476,17.963,9.075,17.488,19.208c-0.012,0.244-0.028,0.489-0.049,0.732c0.333,36.355,0.333,72.711,0,109.066
		c0,12.364-7.147,19.797-17.296,19.726c-10.149-0.071-16.51-7.719-16.582-20.44v-54.462H120.418z"/>
	<path clip-path="url(#SVGID_2_)" fill="#53CBC8" d="M402.517,448.616L402.517,448.616c9.276,0,16.796,7.521,16.796,16.796v29.018
		c0,9.275-7.52,16.795-16.796,16.795s-16.796-7.52-16.796-16.795v-29.018C385.721,456.137,393.24,448.616,402.517,448.616"/>
	<path clip-path="url(#SVGID_2_)" fill="#53CBC8" d="M468.985,474.06L468.985,474.06c9.276,0,16.796,7.521,16.796,16.796v162.884
		c0,9.276-7.52,16.796-16.796,16.796s-16.796-7.52-16.796-16.796V490.855C452.189,481.58,459.709,474.06,468.985,474.06"/>
	<path clip-path="url(#SVGID_2_)" fill="#53CBC8" d="M535.024,480.35L535.024,480.35c9.276,0,16.796,7.52,16.796,16.796v138.439
		c0,9.276-7.52,16.796-16.796,16.796c-9.275,0-16.796-7.52-16.796-16.796V497.146C518.229,487.869,525.749,480.35,535.024,480.35"/>
	<path clip-path="url(#SVGID_2_)" fill="#53CBC8" d="M601.993,464.554L601.993,464.554c9.276,0,16.796,7.521,16.796,16.796v59.679
		c0,9.276-7.52,16.797-16.796,16.797c-9.275,0-16.796-7.521-16.796-16.797V481.35C585.197,472.075,592.718,464.554,601.993,464.554"
		/>
</g>
</svg>
