<?xml version="1.0" encoding="utf-8"?>
<!-- Generator: Adobe Illustrator 23.0.3, SVG Export Plug-In . SVG Version: 6.00 Build 0)  -->
<svg version="1.1" id="Layer_1" xmlns="http://www.w3.org/2000/svg" xmlns:xlink="http://www.w3.org/1999/xlink" x="0px" y="0px"
	 viewBox="0 0 150 47" style="enable-background:new 0 0 150 47;" xml:space="preserve">
<style type="text/css">
	.st0{fill:#1F1A23;}
	.st1{fill:#FFB0C2;}
	.st2{fill:#FFF8F8;}
	.st3{fill:#CC91F0;}
	.st4{fill:#CB65B7;}
</style>
<g>
	<path class="st0" d="M143.35,1H6.65C3.53,1,1,3.53,1,6.66v33.68C1,43.47,3.53,46,6.65,46h136.69c3.12,0,5.65-2.53,5.65-5.66V6.66
		C149,3.53,146.47,1,143.35,1z"/>
	<g>
		<path class="st1" d="M46.85,34.11v-8.98c0-2.12-0.82-3.33-2.62-3.33c-1.85,0-2.74,1.09-2.74,3.12v9.18h-4.88V12.33h4.88v7
			c0.71-1.32,2.3-2.12,4.24-2.12c3.74,0,6,2.35,6,6.62v10.27H46.85z"/>
		<circle class="st1" cx="62.68" cy="20.16" r="2.94"/>
		<rect x="54.35" y="17.78" class="st1" width="4.59" height="16.33"/>
		<path class="st2" d="M105.51,34.11v-8.8c0-2.56-0.82-3.5-2.5-3.5c-1.85,0-2.71,1.12-2.71,3.27v9.03h-4.88v-9
			c0-2.12-0.77-3.3-2.44-3.3c-1.91,0-2.77,1.24-2.77,3.5v8.8h-4.89V17.78h4.56v1.74h0.06c0.85-1.53,2.41-2.3,4.5-2.3
			c2.12,0,3.68,1.06,4.71,2.91c1.18-1.85,2.94-2.91,5.18-2.91c3.65,0,6.06,2.24,6.06,6.8v10.09H105.51z"/>
		<path class="st2" d="M113.02,34.11V17.78h4.88v16.33H113.02z"/>
		<path class="st2" d="M132.88,34.11v-1.77h-0.06c-0.71,1.44-2.65,2.32-4.8,2.32c-4.83,0-8.18-3.8-8.18-8.74
			c0-4.83,3.5-8.71,8.18-8.71c2,0,3.85,0.79,4.8,2.3h0.06v-1.74h4.88v16.33H132.88z M132.88,25.93c0-2.3-1.85-4.15-4.15-4.15
			c-2.24,0-4,1.85-4,4.21c0,2.27,1.8,4.12,4.06,4.12C131.09,30.11,132.88,28.28,132.88,25.93z"/>
		<circle class="st2" cx="115.46" cy="13.72" r="2.94"/>
		<path class="st1" d="M74.7,17.26c-4.79,0-8.68,3.89-8.68,8.68c0,4.79,3.89,8.68,8.68,8.68c4.79,0,8.68-3.89,8.68-8.68
			C83.38,21.15,79.49,17.26,74.7,17.26z M74.7,30.06c-2.28,0-4.12-1.84-4.12-4.12c0-2.28,1.84-4.12,4.12-4.12
			c2.28,0,4.12,1.84,4.12,4.12C78.82,28.22,76.97,30.06,74.7,30.06z"/>
		<g>
			<g>
				<path class="st1" d="M28.53,25.87c-0.95,1.8-2.85,3.03-5.03,3.03c-3.14,0-5.69-2.55-5.69-5.69s2.55-5.69,5.69-5.69
					c2.18,0,4.07,1.23,5.03,3.03h5.92c-1.19-4.95-5.63-8.64-10.95-8.64c-6.22,0-11.27,5.05-11.27,11.27
					c0,6.22,5.05,11.27,11.27,11.27c5.3,0,9.73-3.66,10.94-8.59H28.53z"/>
			</g>
			<path class="st3" d="M32.41,16.31c1.27-1.04,2.08-2.62,2.08-4.38c0-3.12-2.53-5.65-5.65-5.65s-5.65,2.53-5.65,5.65c0,0,0,0,0,0
				c0.1,0,0.21,0,0.32,0C27.13,11.92,30.36,13.64,32.41,16.31z"/>
			<path class="st4" d="M28.84,17.58c1.35,0,2.6-0.48,3.57-1.27c-2.06-2.67-5.28-4.38-8.91-4.38c-0.11,0-0.21,0-0.32,0
				C23.19,15.05,25.72,17.58,28.84,17.58z"/>
		</g>
	</g>
</g>
</svg>
