<?xml version="1.0" encoding="utf-8"?>
<!-- Generator: Adobe Illustrator 16.0.0, SVG Export Plug-In . SVG Version: 6.00 Build 0)  -->
<!DOCTYPE svg PUBLIC "-//W3C//DTD SVG 1.1//EN" "http://www.w3.org/Graphics/SVG/1.1/DTD/svg11.dtd">
<svg version="1.1" id="Layer_1" xmlns="http://www.w3.org/2000/svg" xmlns:xlink="http://www.w3.org/1999/xlink" x="0px" y="0px"
	 width="500px" height="500px" viewBox="0 0 500 500" enable-background="new 0 0 500 500" xml:space="preserve">
<g id="Layer_x0020_1">
	<g id="_2167087048384">
		<rect x="0.95" y="-0.049" fill="none" width="500.1" height="500.1"/>
		<g>
			<path fill="#E0197C" d="M345.62,442.84c6.001,0,11.202,3.4,11.202,7.801s-5.201,7.801-11.202,7.801H181.587
				c-6.002,0-11.202-3.398-11.202-7.801c0-4.4,5.2-7.801,11.202-7.801H345.62z"/>
			<circle fill="#E0197C" cx="145.979" cy="447.04" r="11.202"/>
			<circle fill="#E0197C" cx="244.599" cy="405.632" r="11.202"/>
			<path fill="#E0197C" d="M437.038,394.43c6.001,0,11.202,5.201,11.202,11.203c0,6-5.201,11.201-11.202,11.201H276.406
				c-6.002,0-11.203-5.201-11.203-11.201c0-6.002,5.201-11.203,11.203-11.203H437.038z"/>
			<circle fill="#E0197C" cx="33.757" cy="364.223" r="11.203"/>
			<path fill="#E0197C" d="M193.589,353.02c6.002,0,11.203,5.203,11.203,11.203c0,6.002-5.201,11.203-11.203,11.203H61.362
				c-6,0-11.201-5.201-11.201-11.203c0-6,5.201-11.203,11.201-11.203H193.589z"/>
			<path fill="#E0197C" d="M489.849,353.02c6.003,0,11.201,5.203,11.201,11.203c0,6.002-5.198,11.203-11.201,11.203H227.196
				c-6.001,0-11.203-5.201-11.203-11.203c0-6,5.202-11.203,11.203-11.203H489.849z"/>
			<path fill="#E0197C" d="M440.639,311.412c6.001,0,11.202,5.201,11.202,11.203c0,6-5.201,11.201-11.202,11.201H118.374
				c-6.001,0-11.202-5.201-11.202-11.201c0-6.002,5.201-11.203,11.202-11.203H440.639z"/>
			<circle fill="#E0197C" cx="82.968" cy="322.615" r="11.203"/>
			<path fill="#E0197C" d="M373.224,270.805c6.003,0,11.204,5.201,11.204,11.203c0,6-5.201,11.201-11.204,11.201H50.961
				c-6.001,0-11.202-5.201-11.202-11.201c0-6.002,5.201-11.203,11.202-11.203H373.224z"/>
			<circle fill="#E0197C" cx="12.153" cy="282.206" r="11.202"/>
			<circle fill="#E0197C" cx="82.968" cy="240.598" r="11.202"/>
			<path fill="#E0197C" d="M471.644,229.396c6.002,0,11.203,5.201,11.203,11.202s-5.201,11.203-11.203,11.203H120.974
				c-6.001,0-11.202-5.202-11.202-11.203s5.201-11.202,11.202-11.202H471.644z"/>
			<path fill="#5DC5C6" d="M349.821,54.162c57.012,24.206,95.019,83.816,90.617,144.229c-102.021,0-203.842,0.8-305.861-0.8
				c0-40.608,13.803-82.016,43.209-110.622c43.209-44.009,114.822-57.813,171.834-32.807H349.821z"/>
		</g>
	</g>
</g>
</svg>
