<?xml version="1.0" encoding="utf-8"?>
<!-- Generator: Adobe Illustrator 23.0.3, SVG Export Plug-In . SVG Version: 6.00 Build 0)  -->
<svg version="1.1" id="Layer_1" xmlns="http://www.w3.org/2000/svg" xmlns:xlink="http://www.w3.org/1999/xlink" x="0px" y="0px"
	 viewBox="0 0 47.85 48.19" style="enable-background:new 0 0 47.85 48.19;" xml:space="preserve">
<style type="text/css">
	.st0{fill:#FFFFFF;}
</style>
<path d="M6.9,46.77h34.04c3.12,0,5.66-2.53,5.66-5.66V7.07c0-3.12-2.53-5.66-5.66-5.66H6.9c-3.12,0-5.66,2.53-5.66,5.66v34.04
	C1.25,44.24,3.78,46.77,6.9,46.77z"/>
<g>
	<path class="st0" d="M24.04,18.46c2.19,0,4.09,1.23,5.05,3.04h5.95c-0.38-1.58-1.09-3.03-2.05-4.27c-0.98,0.8-2.22,1.28-3.58,1.28
		c-3.13,0-5.67-2.53-5.68-5.66c-6.1,0.17-11,5.16-11,11.3c0,6.25,5.07,11.32,11.32,11.32c5.32,0,9.77-3.68,10.98-8.63h-5.93
		c-0.96,1.81-2.86,3.04-5.05,3.04c-3.15,0-5.71-2.56-5.71-5.71S20.88,18.46,24.04,18.46z"/>
	<g>
		<path class="st0" d="M29.4,7.3c3.05,0,5.53,2.48,5.53,5.53c0,1.62-0.7,3.13-1.92,4.19c-2.19-2.76-5.45-4.34-8.97-4.34
			c-0.06,0-0.11,0-0.17,0.01c0.02-0.67,0.15-1.32,0.4-1.93C25.12,8.66,27.14,7.3,29.4,7.3 M29.4,7.15c-2.38,0-4.42,1.47-5.27,3.55
			c-0.27,0.66-0.41,1.38-0.41,2.13c0,0.01,0,0.01,0,0.02c0.11,0,0.21-0.02,0.32-0.02c3.65,0,6.88,1.73,8.95,4.4
			c1.28-1.04,2.09-2.63,2.09-4.4C35.08,9.7,32.54,7.15,29.4,7.15L29.4,7.15z"/>
	</g>
</g>
</svg>
