<svg clip-rule="evenodd" fill-rule="evenodd" stroke-linejoin="round" stroke-miterlimit="2" viewBox="0 0 22 22" xmlns="http://www.w3.org/2000/svg" xmlns:xlink="http://www.w3.org/1999/xlink"><linearGradient id="a"><stop offset="0" stop-color="#5aceff"/><stop offset="1" stop-color="#00eeea"/></linearGradient><linearGradient id="b" gradientTransform="matrix(-9.91432 -10.1106 10.1106 -9.91432 12.2492 17.4034)" gradientUnits="userSpaceOnUse" x1="0" x2="1" xlink:href="#a" y1="0" y2="0"/><linearGradient id="c" gradientTransform="matrix(-9.07374 -9.25343 9.25343 -9.07374 18.8011 10.7533)" gradientUnits="userSpaceOnUse" x1="0" x2="1" xlink:href="#a" y1="0" y2="0"/><linearGradient id="d" gradientTransform="matrix(-9.07374 -9.25339 9.25339 -9.07374 14.5249 14.9464)" gradientUnits="userSpaceOnUse" x1="0" x2="1" xlink:href="#a" y1="0" y2="0"/><linearGradient id="e" gradientTransform="matrix(-9.07373 -9.25342 9.25342 -9.07373 17.767 11.7674)" gradientUnits="userSpaceOnUse" x1="0" x2="1" xlink:href="#a" y1="0" y2="0"/><g fill-rule="nonzero"><path d="m17.459 14.764c-.326-.289-.741-.452-1.175-.452-.489 0-.941.199-1.284.56-1.266 1.374-2.405 1.899-4.032 1.899-1.7 0-2.875-.543-4.159-1.917-.325-.343-.795-.56-1.265-.56-.434 0-.868.163-1.194.47-.687.669-.723 1.772-.072 2.459 1.953 2.079 4.014 3.019 6.69 3.019 2.622 0 4.647-.94 6.581-3.019.669-.705.615-1.808-.09-2.459z" fill="url(#b)"/><path d="m17.422 11.311c1.089 0 1.971-.883 1.971-1.971 0-1.089-.882-1.971-1.971-1.971-1.088 0-1.97.882-1.97 1.971 0 1.088.882 1.971 1.97 1.971z" fill="url(#c)"/><path d="m3.663 11.003c-.922-.56-1.229-1.772-.669-2.694l3.291-5.478c.56-.922 1.772-1.23 2.694-.669.922.56 1.229 1.772.669 2.694l-3.291 5.46c-.56.94-1.772 1.23-2.694.687z" fill="url(#d)"/><path d="m10.01 11.003c-.922-.56-1.23-1.772-.669-2.694l3.29-5.478c.561-.922 1.772-1.23 2.694-.669.922.56 1.23 1.772.669 2.694l-3.272 5.46c-.561.94-1.772 1.23-2.712.687z" fill="url(#e)"/></g></svg>