<?xml version="1.0" encoding="utf-8"?>
<!-- Generator: Adobe Illustrator 16.0.0, SVG Export Plug-In . SVG Version: 6.00 Build 0)  -->
<!DOCTYPE svg PUBLIC "-//W3C//DTD SVG 1.1//EN" "http://www.w3.org/Graphics/SVG/1.1/DTD/svg11.dtd">
<svg version="1.1" id="Layer_1" xmlns="http://www.w3.org/2000/svg" xmlns:xlink="http://www.w3.org/1999/xlink" x="0px" y="0px"
	 width="500px" height="500px" viewBox="0 0 500 500" enable-background="new 0 0 500 500" xml:space="preserve">
<path fill="#658CC8" d="M138.462,118.778h222.151c12.637,0,19.929,14.333,12.513,24.554L267.397,288.706
	c-7.438,10.221-0.139,24.546,12.502,24.546h93.169c4.944,0,9.59-2.365,12.503-6.374l104.554-143.764
	c3.945-5.422,3.945-12.766,0-18.188l-91.67-126.031c-2.9-4.012-7.556-6.375-12.491-6.375H113.131c-4.955,0-9.598,2.363-12.502,6.375
	L8.961,144.927c-3.949,5.421-3.949,12.766,0,18.188l228.074,313.613c6.173,8.484,18.84,8.484,25.005,0l46.578-64.055
	c3.951-5.421,3.951-12.767,0-18.185L125.971,143.332C118.543,133.11,125.834,118.778,138.462,118.778z"/>
</svg>
