<?xml version="1.0" encoding="utf-8"?>
<!-- Generator: Adobe Illustrator 16.0.0, SVG Export Plug-In . SVG Version: 6.00 Build 0)  -->
<!DOCTYPE svg PUBLIC "-//W3C//DTD SVG 1.1//EN" "http://www.w3.org/Graphics/SVG/1.1/DTD/svg11.dtd">
<svg version="1.1" id="Layer_1" xmlns="http://www.w3.org/2000/svg" xmlns:xlink="http://www.w3.org/1999/xlink" x="0px" y="0px"
	 width="500px" height="500px" viewBox="0 0 500 500" enable-background="new 0 0 500 500" xml:space="preserve">
<g>
	<defs>
		<rect id="SVGID_1_" width="500" height="500"/>
	</defs>
	<clipPath id="SVGID_2_">
		<use xlink:href="#SVGID_1_"  overflow="visible"/>
	</clipPath>
	<path clip-path="url(#SVGID_2_)" fill="#F2A52B" d="M485.473,446.961c0,22.348-18.285,40.633-40.633,40.633H55.161
		c-22.349,0-40.634-18.285-40.634-40.633V53.04c0-22.349,18.285-40.634,40.634-40.634h389.677c22.349,0,40.635,18.285,40.635,40.634
		V446.961z"/>
	<polygon clip-path="url(#SVGID_2_)" fill="#FFFFFF" points="395.145,199.301 395.145,187.311 383.8,187.311 383.8,175.935 
		383.8,175.514 383.8,169.34 383.8,141.392 395.145,141.392 395.145,118.055 383.813,118.055 383.813,118.047 395.145,118.047 
		395.145,106.2 383.787,106.2 383.787,83.536 371.951,83.536 337.422,83.536 337.422,90.843 337.422,94.845 314.062,94.845 
		302.673,94.845 290.737,94.845 278.884,94.845 250,94.845 221.117,94.845 209.263,94.845 197.328,94.845 185.938,94.845 
		162.578,94.845 162.578,90.843 162.578,83.536 128.048,83.536 116.213,83.536 116.213,106.2 104.855,106.2 104.855,118.047 
		116.188,118.047 116.188,118.055 104.855,118.055 104.855,141.392 116.201,141.392 116.201,169.34 116.201,175.514 
		116.201,175.935 116.201,187.311 104.855,187.311 104.855,199.301 93.498,199.301 93.498,269.034 104.855,269.034 104.855,291.73 
		116.181,291.73 116.181,303.102 124.421,303.102 128.041,303.102 128.041,315.061 128.054,315.061 139.393,315.061 
		139.393,326.908 151.372,326.908 151.372,338.266 151.375,338.266 162.733,338.266 162.733,346.3 162.733,350.119 174.081,350.119 
		174.081,360.962 185.935,360.962 185.935,372.946 197.286,372.946 197.286,384.788 197.286,407.999 209.263,407.999 
		209.263,419.475 221.123,419.475 221.123,431.322 232.455,431.322 250,431.322 267.546,431.322 278.877,431.322 278.877,419.475 
		290.737,419.475 290.737,407.999 302.715,407.999 302.715,384.788 302.715,372.946 314.066,372.946 314.066,360.962 
		325.92,360.962 325.92,350.119 337.267,350.119 337.267,346.3 337.267,338.266 348.623,338.266 348.629,338.266 348.629,326.908 
		360.607,326.908 360.607,315.061 371.946,315.061 371.959,315.061 371.959,303.102 375.579,303.102 383.819,303.102 
		383.819,291.73 395.145,291.73 395.145,269.034 406.503,269.034 406.503,199.301 	"/>
	<rect x="221.116" y="315.055" clip-path="url(#SVGID_2_)" fill="#EBEAE6" width="1.625" height="45.9"/>
	<rect x="215.187" y="100.278" clip-path="url(#SVGID_2_)" fill="#EBEAE6" width="1.625" height="11.854"/>
	<polygon clip-path="url(#SVGID_2_)" fill="#C1C1C3" points="128.041,233.839 139.412,233.839 139.412,187.292 128.041,187.292 
		128.041,175.936 116.2,175.936 116.2,187.311 128.041,187.311 	"/>
	<rect x="139.411" y="233.839" clip-path="url(#SVGID_2_)" fill="#C1C1C3" width="11.966" height="23.324"/>
	<polygon clip-path="url(#SVGID_2_)" fill="#C1C1C3" points="174.067,326.921 174.067,338.266 185.935,338.266 185.935,315.055 
		174.083,315.055 174.083,280.354 162.741,280.354 162.741,257.174 151.376,257.174 151.376,280.374 162.729,280.374 
		162.729,315.061 151.372,315.061 151.372,326.908 151.372,338.266 151.376,338.266 151.376,326.921 	"/>
	<polygon clip-path="url(#SVGID_2_)" fill="#C1C1C3" points="151.371,303.082 139.392,303.082 139.392,291.73 128.054,291.73 
		128.054,303.102 139.392,303.102 139.392,315.061 151.371,315.061 	"/>
	<path clip-path="url(#SVGID_2_)" fill="#1F1C22" d="M221.123,141.403v-23.434h-0.006v-11.761h-11.854v-0.007V94.844h-11.935
		h-11.389v11.364h-11.86v11.854H151.37V94.844h-23.329l0.008,11.356h-0.008v0.003h-11.829v11.844h-0.024v0.01h-11.334v23.335h11.345
		v27.948v6.174v0.421h11.84v11.358h11.37v46.547h11.966v23.323v0.013h11.366v23.179h11.341v34.701h11.849v23.212h-11.867v-11.345
		h-22.689v11.345h11.357v8.034v3.819h11.346v10.843h11.853v11.983h11.352h11.97v-11.99h10.84h1.019v-45.901h0.006h11.352v-57.888
		h-11.352v-0.019h-0.006v-93.056h0.006h11.345h0.007v-22.627v-0.062h-11.347V141.403z M197.328,280.386h-6.844h-4.552v-11.457h4.552
		h6.844V280.386z"/>
	<rect x="139.392" y="315.061" clip-path="url(#SVGID_2_)" fill="#1F1C22" width="11.978" height="11.849"/>
	<polygon clip-path="url(#SVGID_2_)" fill="#EBEAE6" points="116.213,106.201 116.213,106.2 104.855,106.2 104.855,118.047 
		116.188,118.047 116.188,106.201 	"/>
	<rect x="116.188" y="106.201" clip-path="url(#SVGID_2_)" fill="#EBEAE6" width="1.625" height="11.844"/>
	<polygon clip-path="url(#SVGID_2_)" fill="#EBEAE6" points="128.041,94.845 151.371,94.845 151.371,118.062 174.08,118.062 
		174.08,106.208 185.939,106.208 185.939,94.845 162.578,94.845 162.578,90.844 162.578,83.536 128.049,83.536 116.213,83.536 
		116.213,106.2 128.041,106.2 	"/>
	<polygon clip-path="url(#SVGID_2_)" fill="#EBEAE6" points="128.049,106.2 128.041,94.845 128.041,106.2 	"/>
	<rect x="128.041" y="303.102" clip-path="url(#SVGID_2_)" fill="#1F1C22" width="1.625" height="11.959"/>
	<rect x="128.054" y="303.102" clip-path="url(#SVGID_2_)" fill="#1F1C22" width="11.338" height="11.959"/>
	<polygon clip-path="url(#SVGID_2_)" fill="#EBEAE6" points="151.376,280.374 151.376,257.174 151.376,257.163 139.412,257.163 
		139.412,233.839 128.041,233.839 128.041,187.311 116.2,187.311 104.855,187.311 104.855,199.301 93.498,199.301 93.498,269.034 
		104.855,269.034 104.855,291.73 116.181,291.73 116.181,303.102 124.421,303.102 128.041,303.102 128.054,303.102 128.054,291.73 
		139.392,291.73 139.392,303.082 151.371,303.082 151.371,315.061 162.729,315.061 162.729,280.374 	"/>
	<polygon clip-path="url(#SVGID_2_)" fill="#C1C1C3" points="221.116,360.955 220.097,360.955 209.256,360.955 209.256,372.945 
		197.285,372.945 197.285,384.788 209.262,384.788 221.122,384.788 221.122,372.945 221.122,360.962 221.122,360.955 	"/>
	<polygon clip-path="url(#SVGID_2_)" fill="#C1C1C3" points="221.123,360.962 232.475,360.962 232.475,315.055 221.123,315.055 
		221.123,360.955 	"/>
	<rect x="221.122" y="164.094" clip-path="url(#SVGID_2_)" fill="#C1C1C3" width="11.345" height="93.056"/>
	<rect x="221.116" y="164.094" clip-path="url(#SVGID_2_)" fill="#C1C1C3" width="1.625" height="93.056"/>
	<rect x="232.474" y="141.464" clip-path="url(#SVGID_2_)" fill="#C1C1C3" width="11.351" height="22.628"/>
	<polygon clip-path="url(#SVGID_2_)" fill="#C1C1C3" points="232.467,106.201 221.116,106.201 221.116,106.207 221.122,106.207 
		221.122,117.969 232.467,117.969 	"/>
	<rect x="221.116" y="106.208" clip-path="url(#SVGID_2_)" fill="#C1C1C3" width="1.625" height="11.761"/>
	<rect x="209.262" y="94.845" clip-path="url(#SVGID_2_)" fill="#C1C1C3" width="11.854" height="11.358"/>
	<rect x="197.285" y="384.788" clip-path="url(#SVGID_2_)" fill="#C1C1C3" width="11.977" height="23.211"/>
	<rect x="209.263" y="407.999" clip-path="url(#SVGID_2_)" fill="#C1C1C3" width="11.86" height="11.476"/>
	<rect x="221.123" y="419.475" clip-path="url(#SVGID_2_)" fill="#C1C1C3" width="11.333" height="11.848"/>
	<polygon clip-path="url(#SVGID_2_)" fill="#FFFFFF" points="190.483,268.929 185.935,268.929 185.935,280.386 190.483,280.386 
		197.327,280.386 197.327,268.929 	"/>
	<rect x="284.809" y="100.278" clip-path="url(#SVGID_2_)" fill="#EBEAE6" width="1.625" height="11.854"/>
	<polygon clip-path="url(#SVGID_2_)" fill="#EBEAE6" points="278.884,106.201 278.884,94.845 250,94.845 221.116,94.845 
		221.116,106.201 232.467,106.201 232.467,117.969 221.123,117.969 221.123,141.403 232.474,141.403 232.474,141.464 
		243.825,141.464 243.825,164.094 232.474,164.094 232.467,164.094 232.467,257.149 221.123,257.149 221.123,257.168 
		232.474,257.168 232.474,315.056 232.474,360.962 221.123,360.962 221.123,372.945 250,372.945 278.877,372.945 278.877,360.962 
		267.526,360.962 267.526,315.056 267.526,257.168 278.877,257.168 278.877,257.149 267.532,257.149 267.532,164.094 
		267.526,164.094 256.175,164.094 256.175,141.464 267.526,141.464 267.526,141.403 278.877,141.403 278.877,117.969 
		267.532,117.969 267.532,106.201 	"/>
	<rect x="278.877" y="315.055" clip-path="url(#SVGID_2_)" fill="#EBEAE6" width="1.626" height="45.9"/>
	<polygon clip-path="url(#SVGID_2_)" fill="#C1C1C3" points="337.271,315.061 337.271,280.373 348.625,280.373 348.625,257.174 
		337.258,257.174 337.258,280.354 325.916,280.354 325.916,315.055 314.066,315.055 314.066,338.266 325.933,338.266 
		325.933,326.921 348.625,326.921 348.625,338.266 348.629,338.266 348.629,326.908 348.629,315.061 	"/>
	<polygon clip-path="url(#SVGID_2_)" fill="#C1C1C3" points="371.946,303.102 371.946,291.73 360.607,291.73 360.607,303.082 
		348.629,303.082 348.629,315.061 360.607,315.061 360.607,303.102 	"/>
	<polygon clip-path="url(#SVGID_2_)" fill="#C1C1C3" points="371.959,187.292 360.588,187.292 360.588,233.839 371.959,233.839 
		371.959,187.311 383.8,187.311 383.8,175.936 371.959,175.936 	"/>
	<rect x="348.624" y="233.839" clip-path="url(#SVGID_2_)" fill="#C1C1C3" width="11.966" height="23.324"/>
	<path clip-path="url(#SVGID_2_)" fill="#1F1C22" d="M383.813,118.055v-0.01h-0.024v-11.844h-11.829v-0.003h-0.008l0.008-11.354
		h-23.328v23.218H325.92v-11.854h-11.86V94.844h-11.39h-11.934v11.357v0.007h-11.854v11.761h-0.006v23.434h-11.352v0.062v22.628
		h0.007h11.345h0.006v93.056h-0.006v0.018h-11.352v57.887h11.352h0.006v45.901h1.02h10.84v11.99h11.97h11.352V360.96h11.854v-10.842
		h11.346v-3.82v-8.034h11.357v-11.345H325.93v11.345h-11.867v-23.211h11.849v-34.701h11.342v-23.179h11.366v-0.014v-23.323h11.966
		V187.29h11.371v-11.358h11.841v-0.421v-6.175v-27.948h11.345v-23.333H383.813z M314.066,280.386h-4.552h-6.845v-11.457h6.845h4.552
		V280.386z"/>
	<rect x="348.63" y="315.061" clip-path="url(#SVGID_2_)" fill="#1F1C22" width="11.978" height="11.849"/>
	<polygon clip-path="url(#SVGID_2_)" fill="#EBEAE6" points="383.813,106.201 383.813,118.047 395.145,118.047 395.145,106.2 
		383.787,106.2 383.787,106.201 	"/>
	<rect x="383.788" y="106.201" clip-path="url(#SVGID_2_)" fill="#EBEAE6" width="1.626" height="11.844"/>
	<polygon clip-path="url(#SVGID_2_)" fill="#EBEAE6" points="325.92,106.208 325.92,118.062 348.629,118.062 348.629,94.845 
		371.959,94.845 371.959,106.2 383.787,106.2 383.787,83.536 371.951,83.536 337.422,83.536 337.422,90.844 337.422,94.845 
		314.062,94.845 314.062,106.208 	"/>
	<polygon clip-path="url(#SVGID_2_)" fill="#EBEAE6" points="371.951,106.2 371.959,106.2 371.959,94.845 	"/>
	<rect x="371.946" y="303.102" clip-path="url(#SVGID_2_)" fill="#1F1C22" width="1.625" height="11.959"/>
	<rect x="360.607" y="303.102" clip-path="url(#SVGID_2_)" fill="#1F1C22" width="11.339" height="11.959"/>
	<polygon clip-path="url(#SVGID_2_)" fill="#EBEAE6" points="395.145,199.301 395.145,187.311 383.8,187.311 371.959,187.311 
		371.959,233.84 360.588,233.84 360.588,257.163 348.623,257.163 348.623,257.174 348.623,280.374 337.271,280.374 337.271,315.061 
		348.629,315.061 348.629,303.082 360.607,303.082 360.607,291.73 371.946,291.73 371.946,303.102 371.959,303.102 375.579,303.102 
		383.819,303.102 383.819,291.73 395.145,291.73 395.145,269.034 406.503,269.034 406.503,199.301 	"/>
	<polygon clip-path="url(#SVGID_2_)" fill="#C1C1C3" points="290.744,372.945 290.744,360.955 279.903,360.955 278.884,360.955 
		278.877,360.955 278.877,360.962 278.877,372.945 278.877,384.788 290.737,384.788 302.715,384.788 302.715,372.945 	"/>
	<polygon clip-path="url(#SVGID_2_)" fill="#C1C1C3" points="278.877,315.055 267.526,315.055 267.526,360.962 278.877,360.962 
		278.877,360.955 	"/>
	<rect x="267.532" y="164.094" clip-path="url(#SVGID_2_)" fill="#C1C1C3" width="11.345" height="93.056"/>
	<rect x="278.877" y="164.094" clip-path="url(#SVGID_2_)" fill="#C1C1C3" width="1.626" height="93.056"/>
	<rect x="256.174" y="141.464" clip-path="url(#SVGID_2_)" fill="#C1C1C3" width="11.353" height="22.628"/>
	<polygon clip-path="url(#SVGID_2_)" fill="#C1C1C3" points="278.884,106.208 278.884,106.202 267.532,106.202 267.532,117.969 
		278.877,117.969 278.877,106.208 	"/>
	<rect x="278.877" y="106.208" clip-path="url(#SVGID_2_)" fill="#C1C1C3" width="1.626" height="11.761"/>
	<rect x="278.883" y="94.845" clip-path="url(#SVGID_2_)" fill="#C1C1C3" width="11.854" height="11.358"/>
	<rect x="290.737" y="384.788" clip-path="url(#SVGID_2_)" fill="#C1C1C3" width="11.978" height="23.211"/>
	<rect x="278.877" y="407.999" clip-path="url(#SVGID_2_)" fill="#C1C1C3" width="11.86" height="11.476"/>
	<rect x="267.546" y="419.475" clip-path="url(#SVGID_2_)" fill="#C1C1C3" width="11.333" height="11.848"/>
	<polygon clip-path="url(#SVGID_2_)" fill="#1F1C22" points="278.877,384.788 278.877,372.945 250,372.945 221.123,372.945 
		221.123,384.788 209.262,384.788 209.262,407.999 221.123,407.999 221.123,419.476 232.455,419.476 232.455,431.321 250,431.321 
		267.546,431.321 267.546,419.476 278.877,419.476 278.877,407.999 290.737,407.999 290.737,384.788 	"/>
	<polygon clip-path="url(#SVGID_2_)" fill="#FFFFFF" points="309.517,268.929 302.673,268.929 302.673,280.386 309.517,280.386 
		314.066,280.386 314.066,268.929 	"/>
</g>
</svg>
