<svg width="184" height="28" viewBox="0 0 184 28" fill="none" xmlns="http://www.w3.org/2000/svg"><path d="M42.3105 17.1645V10.9671C42.3105 6.56726 44.986 4.07812 49.7691 4.07812C54.5521 4.07812 57.0279 6.09807 57.0279 10.3302V10.8559C57.0279 11.327 56.772 11.6021 56.3164 11.6021H54.3233C53.8677 11.6021 53.6118 11.3251 53.6118 10.8823V10.3283C53.6118 7.83726 52.5008 6.8141 49.7691 6.8141C47.206 6.8141 45.8682 8.11425 45.8682 10.6599V17.4659C45.8682 20.0116 47.206 21.3118 49.7691 21.3118C52.5028 21.3118 53.6118 20.2886 53.6118 17.7976V17.0514C53.6118 16.6086 53.8677 16.3316 54.3233 16.3316H56.3164C56.772 16.3316 57.0279 16.6086 57.0279 17.0778V17.7976C57.0279 22.0315 54.6936 24.0496 49.7691 24.0496C44.8445 24.0496 42.3105 21.5586 42.3105 17.1607V17.1645Z" fill="white"></path><path d="M72.1738 23.2511L67.193 16.8596C66.6521 16.1681 66.4233 15.7799 66.4233 15.2542V15.1713C66.4233 14.2857 66.9643 13.8165 67.9046 13.8165H68.8721C71.0648 13.8165 72.0032 13.0421 72.0032 11.1597V9.83124C72.0032 7.94885 71.0648 7.17441 68.8721 7.17441H64.63V22.7819C64.63 23.3623 64.2306 23.7504 63.6334 23.7504H62.125C61.5279 23.7504 61.1285 23.3623 61.1285 22.7819V6.18139C61.1285 5.07532 61.84 4.38379 62.9781 4.38379H68.8721C73.3138 4.38379 75.5338 6.2643 75.5338 10.0008V11.1352C75.5338 14.2065 74.0254 15.8666 70.9795 16.3094L75.0219 21.2349C75.7063 22.064 75.5066 23.089 74.6807 23.6411C73.8548 24.2215 72.7729 24.001 72.1758 23.253L72.1738 23.2511Z" fill="white"></path><path d="M94.408 10.9671V17.1645C94.408 21.536 91.589 24.0534 86.6354 24.0534C81.6817 24.0534 78.8647 21.536 78.8647 17.1645V10.9671C78.8647 6.59552 81.6837 4.07812 86.6354 4.07812C91.5871 4.07812 94.408 6.59552 94.408 10.9671ZM86.6354 21.3136C89.3691 21.3136 90.8484 19.9306 90.8484 17.4132V10.7183C90.8484 8.20093 89.4253 6.81787 86.6354 6.81787C83.8454 6.81787 82.4224 8.20093 82.4224 10.7183V17.4132C82.4224 19.9306 83.8745 21.3136 86.6354 21.3136Z" fill="white"></path><path d="M98.7374 22.7818V5.90433C98.7374 4.96408 99.3365 4.38184 100.36 4.38184H101.471C102.439 4.38184 102.894 4.74173 103.408 5.65373L110.525 18.3538V5.35036C110.525 4.77 110.925 4.38184 111.522 4.38184H112.774C113.371 4.38184 113.771 4.77 113.771 5.35036V22.2279C113.771 23.1681 113.174 23.7504 112.148 23.7504H111.152C110.184 23.7504 109.728 23.3905 109.215 22.4785L101.983 9.72377V22.7818C101.983 23.3622 101.584 23.7504 100.986 23.7504H99.7339C99.1368 23.7504 98.7374 23.3622 98.7374 22.7818Z" fill="white"></path><path d="M133.64 10.9671V17.1645C133.64 21.536 130.821 24.0534 125.869 24.0534C120.917 24.0534 118.096 21.536 118.096 17.1645V10.9671C118.096 6.59552 120.915 4.07812 125.869 4.07812C130.823 4.07812 133.64 6.59552 133.64 10.9671ZM125.869 21.3136C128.603 21.3136 130.082 19.9306 130.082 17.4132V10.7183C130.082 8.20093 128.659 6.81787 125.869 6.81787C123.079 6.81787 121.656 8.20093 121.656 10.7183V17.4132C121.656 19.9306 123.108 21.3136 125.869 21.3136Z" fill="white"></path><path d="M136.885 18.7962V18.1594C136.885 17.6883 137.141 17.4132 137.597 17.4132H139.561C140.016 17.4132 140.272 17.6902 140.272 18.133V18.7416C140.272 20.6504 141.24 21.3984 143.973 21.3984C146.707 21.3984 147.731 20.6786 147.731 18.604V18.0501C147.731 16.6934 146.992 16.3071 145.511 16.0019L141.668 15.2274C138.822 14.6471 137.029 13.7897 137.029 10.3019V9.74981C137.029 6.01517 139.419 4.07812 144.032 4.07812C148.9 4.07812 151.006 5.65527 151.006 9.307V9.8591C151.006 10.3302 150.75 10.6053 150.294 10.6053H148.357C147.902 10.6053 147.617 10.3283 147.617 9.88548V9.3315C147.617 7.47737 146.678 6.73119 144.059 6.73119C141.439 6.73119 140.501 7.42272 140.501 9.49732V10.023C140.501 11.3778 141.242 11.766 142.692 12.0694L146.535 12.8438C149.381 13.4242 151.203 14.3098 151.203 17.7674V18.3497C151.203 22.0843 148.727 24.0496 144.001 24.0496C139.02 24.0496 136.883 22.4725 136.883 18.7925L136.885 18.7962Z" fill="white"></path><path d="M160.515 22.7818V5.35036C160.515 4.77 160.915 4.38184 161.512 4.38184H163.02C163.617 4.38184 164.017 4.77 164.017 5.35036V22.7818C164.017 23.3622 163.617 23.7504 163.02 23.7504H161.512C160.915 23.7504 160.515 23.3622 160.515 22.7818Z" fill="white"></path><path d="M168.998 22.2279V5.90433C168.998 4.96408 169.597 4.38184 170.564 4.38184H175.233C181.012 4.38184 184 6.98214 184 12.0735V16.0568C184 21.1482 181.01 23.7485 175.233 23.7485H170.564C169.597 23.7485 168.998 23.1681 168.998 22.226V22.2279ZM175.318 20.956C178.678 20.956 180.442 19.3788 180.442 16.1982V11.9378C180.442 8.75525 178.678 7.17999 175.318 7.17999H172.499V20.956H175.318Z" fill="white"></path><path d="M15.2332 18.3437H18.0793C18.7347 18.3437 19.2659 17.8274 19.2659 17.1905C19.2659 16.5536 18.7347 16.0373 18.0793 16.0373H15.2332C14.5779 16.0373 14.0466 16.5536 14.0466 17.1905C14.0466 17.8274 14.5779 18.3437 15.2332 18.3437ZM26.0439 23.3559C24.0877 24.6033 21.5672 25.2609 18.756 25.2609H15.2332C14.5779 25.2609 14.0466 25.7772 14.0466 26.4141C14.0466 27.0509 14.5779 27.5672 15.2332 27.5672H18.756C22.0306 27.5672 25.0028 26.7777 27.3468 25.2835C27.8936 24.9349 28.0467 24.2189 27.688 23.6875C27.3274 23.1542 26.5926 23.0054 26.0459 23.3559H26.0439ZM22.5851 15.3722C22.0868 14.9897 21.3191 15.0726 20.9197 15.5531L20.9158 15.5568C20.7219 15.7961 20.6308 16.0957 20.6638 16.401C20.6967 16.71 20.8538 16.9813 21.1 17.1754C21.3133 17.3412 21.5692 17.4298 21.8445 17.4298C22.2051 17.4298 22.5425 17.2734 22.7693 16.9964C22.7693 16.9964 22.7693 16.9927 22.7751 16.9927C23.1784 16.4952 23.0931 15.7698 22.5851 15.3741V15.3722ZM15.2332 11.9635H18.0793C18.0852 11.9635 18.089 11.9635 18.0948 11.9635H18.7831C19.5897 11.9635 20.2159 12.0464 20.5474 12.1934C20.8557 12.346 20.9507 12.4101 21.1174 12.8491C21.2745 13.339 21.7301 13.6612 22.2516 13.6612H22.2575C22.3757 13.6612 22.4901 13.6424 22.6045 13.6104C22.9089 13.518 23.1551 13.3145 23.3025 13.0432C23.4498 12.7719 23.4789 12.4628 23.3878 12.167C23.1067 11.2305 22.3874 10.4278 21.4994 10.0773C20.6696 9.73629 19.7855 9.6628 18.723 9.65715H18.0968C18.091 9.65715 18.0871 9.65715 18.0813 9.65715H15.2351C14.5798 9.65715 14.0486 10.1734 14.0486 10.8103C14.0486 11.4472 14.5798 11.9635 15.2351 11.9635H15.2332ZM15.2332 7.35267H18.7211C19.9154 7.35267 20.9914 7.5053 21.9201 7.80867C22.0461 7.85012 22.1721 7.86896 22.2982 7.86896C22.7945 7.86896 23.2559 7.56371 23.4227 7.08134C23.6321 6.47837 23.2967 5.82452 22.6743 5.62102C21.5013 5.23851 20.1713 5.04443 18.7211 5.04443H15.2332C14.5779 5.04443 14.0466 5.56072 14.0466 6.19761C14.0466 6.8345 14.5779 7.35079 15.2332 7.35079V7.35267ZM30.5187 20.3071C29.9933 19.966 29.2274 20.113 28.8823 20.6218C28.8765 20.6218 28.8765 20.6255 28.8726 20.6312C28.512 21.1569 28.6633 21.8767 29.2042 22.2272C29.3981 22.3572 29.6268 22.4213 29.8595 22.4213C30.2589 22.4213 30.6273 22.2272 30.8502 21.905C31.2108 21.3755 31.0635 20.6595 30.5187 20.309V20.3071ZM31.6199 7.40543C30.6234 5.46839 29.1906 3.90067 27.3546 2.7343C27.3507 2.73242 27.3487 2.72865 27.3449 2.72676C24.9931 1.22499 22.0132 0.433594 18.723 0.433594H15.2351C14.5798 0.433594 14.0486 0.949887 14.0486 1.58677C14.0486 2.22366 14.5798 2.73995 15.2351 2.73995H18.723C21.5498 2.73995 24.0819 3.40134 26.0439 4.6525C26.0459 4.6525 26.0478 4.6525 26.0498 4.65627C26.0498 4.65627 26.0517 4.65815 26.0536 4.66004C29.1092 6.62911 30.7358 9.85688 30.7513 14.0023C30.7513 15.05 30.6428 16.058 30.4237 17.0096C30.3578 17.3092 30.414 17.6182 30.5846 17.8764C30.7552 18.1383 31.017 18.3192 31.3252 18.3833C31.4105 18.4021 31.4958 18.4115 31.5812 18.4115H31.585C32.1318 18.4115 32.6203 18.0328 32.7386 17.5127L32.7425 17.5089C32.9945 16.4029 33.1225 15.2214 33.1225 14.0042C33.1264 11.5735 32.6242 9.35566 31.618 7.40543H31.6199ZM26.9707 11.5226C26.6566 11.5603 26.3774 11.7167 26.1777 11.956C25.9838 12.2009 25.8985 12.5005 25.9354 12.8095C25.9819 13.1921 26.0071 13.5934 26.0071 14.0042C26.0071 15.6454 25.6368 17.0115 24.9156 18.0629C24.2273 19.0691 23.2501 19.7644 21.9317 20.1978C21.9259 20.1978 21.922 20.2016 21.9162 20.2035C20.9972 20.5012 19.9348 20.6519 18.756 20.6519H15.2332C14.5779 20.6519 14.0466 21.1682 14.0466 21.8051C14.0466 22.442 14.5779 22.9583 15.2332 22.9583H18.756C20.1946 22.9583 21.513 22.7661 22.6762 22.3873H22.684C22.6976 22.3779 22.717 22.3742 22.7325 22.3685C24.4968 21.7863 25.9354 20.7405 26.8931 19.3424C27.88 17.899 28.3783 16.1052 28.3783 14.0023C28.3783 13.5048 28.3492 13.0055 28.2891 12.5307C28.2135 11.9032 27.6202 11.4472 26.9707 11.5207V11.5226ZM25.6523 10.1207C25.9179 10.1207 26.1641 10.0378 26.3735 9.88138C26.6295 9.69295 26.7904 9.41973 26.8292 9.11636C26.8718 8.81111 26.7865 8.51151 26.5965 8.26843C26.5965 8.26843 26.5965 8.26278 26.5926 8.26278C26.2087 7.77475 25.4352 7.67677 24.9311 8.04986C24.679 8.23828 24.5181 8.5115 24.4754 8.81487C24.4367 9.12013 24.5181 9.4235 24.712 9.66845C24.9388 9.95486 25.28 10.1207 25.6504 10.1207H25.6523Z" fill="url(#paint0_linear_3996_4701)"></path><path d="M0.0058164 17.192C0.0058164 17.8288 0.540926 18.3451 1.19624 18.3451C1.85156 18.3451 2.38279 17.8288 2.38279 17.192V10.808C2.38279 10.1711 1.85156 9.65484 1.19624 9.65484H1.18655C0.531232 9.65672 0.0058164 10.173 0.0058164 10.808C0.0058164 10.8419 0.0058164 10.8759 0.00969401 10.9098V17.0864C0.0058164 17.1204 0.0058164 17.1543 0.0058164 17.1901V17.192ZM5.9463 12.4153C5.29099 12.4153 4.75976 12.9373 4.75976 13.5723C4.75976 14.2073 5.29099 14.7198 5.9463 14.7198C6.60162 14.7198 7.13285 14.2035 7.13285 13.5723C7.13285 12.941 6.60162 12.4153 5.9463 12.4153ZM7.13285 6.20284C7.13285 5.89758 7.00877 5.6074 6.7858 5.39071C6.56284 5.17025 6.26427 5.05342 5.9463 5.05342H1.18655C0.531232 5.05342 0 5.56972 0 6.20095C0 6.83218 0.531232 7.3579 1.18655 7.3579C1.19042 7.3579 1.19042 7.35225 1.19624 7.35225H4.75782V9.41365C4.75782 10.0505 5.28905 10.5668 5.94437 10.5668C6.59968 10.5668 7.13091 10.0505 7.13091 9.41365V6.20284H7.13285ZM10.6944 0.448242H1.18655C0.531232 0.448242 0 0.964535 0 1.60142C0 2.23831 0.531232 2.7546 1.18655 2.7546H9.50788V25.2454H1.18655C0.531232 25.2454 0 25.7617 0 26.3986C0 27.0354 0.531232 27.5517 1.18655 27.5517H10.6944C11.3497 27.5517 11.881 27.0354 11.881 26.3986V1.60142C11.881 0.964535 11.3497 0.448242 10.6944 0.448242ZM1.18655 22.9484H5.94437C6.26233 22.9484 6.5609 22.8278 6.78387 22.6111C7.00683 22.3945 7.13091 22.1043 7.13091 21.7953V17.7196C7.13091 17.0827 6.59968 16.5664 5.94437 16.5664C5.28905 16.5664 4.76364 17.0827 4.75782 17.7139V20.6421H1.18655C0.531232 20.6421 0 21.1584 0 21.7953C0 22.4321 0.531232 22.9484 1.18655 22.9484Z" fill="url(#paint1_linear_3996_4701)"></path><defs><linearGradient id="paint0_linear_3996_4701" x1="13.4475" y1="26.7438" x2="27.0355" y2="2.52861" gradientUnits="userSpaceOnUse"><stop stop-color="#E8632E"></stop><stop offset="0.05" stop-color="#DB7336"></stop><stop offset="0.26" stop-color="#A6BC5D"></stop><stop offset="0.36" stop-color="#91D96D"></stop><stop offset="0.41" stop-color="#85D677"></stop><stop offset="0.59" stop-color="#5ECE98"></stop><stop offset="0.75" stop-color="#42C8B0"></stop><stop offset="0.89" stop-color="#31C5BE"></stop><stop offset="1" stop-color="#2CC4C4"></stop></linearGradient><linearGradient id="paint1_linear_3996_4701" x1="-1.36492" y1="26.2987" x2="12.6297" y2="1.35556" gradientUnits="userSpaceOnUse"><stop stop-color="#E8632E"></stop><stop offset="0.05" stop-color="#DB7336"></stop><stop offset="0.26" stop-color="#A6BC5D"></stop><stop offset="0.36" stop-color="#91D96D"></stop><stop offset="0.41" stop-color="#85D677"></stop><stop offset="0.59" stop-color="#5ECE98"></stop><stop offset="0.75" stop-color="#42C8B0"></stop><stop offset="0.89" stop-color="#31C5BE"></stop><stop offset="1" stop-color="#2CC4C4"></stop></linearGradient></defs></svg>