<svg width="336" height="40" viewBox="0 0 336 40" fill="none" xmlns="http://www.w3.org/2000/svg">
<path d="M46.7772 8.41797C46.9551 8.41797 47.0984 8.56134 47.0984 8.73924V22.3495C47.0984 28.8028 43.0613 31.9783 37.7338 31.9783C32.4063 31.9783 28.3691 28.8014 28.3691 22.3495V8.73924C28.3691 8.56134 28.5125 8.41797 28.6904 8.41797H31.8527C32.0306 8.41797 32.1739 8.56134 32.1739 8.73924V22.1171C32.1739 26.6176 34.5237 28.4045 37.7338 28.4045C40.9438 28.4045 43.2936 26.6176 43.2936 22.1171V8.73924C43.2936 8.56134 43.437 8.41797 43.6149 8.41797H46.7772Z" fill="white"/>
<path d="M102.222 20.0001C102.189 26.8172 96.9939 31.9788 90.2101 31.9788C83.4262 31.9788 78.1982 26.8172 78.1982 20.0001C78.1982 13.1831 83.4262 8.02148 90.2101 8.02148C96.9939 8.02148 102.189 13.1831 102.222 20.0001ZM81.9698 20.0001C81.9698 24.8311 85.5105 28.4049 90.2101 28.4049C94.9096 28.4049 98.4171 24.8311 98.4171 20.0001C98.4171 15.1691 94.8765 11.5953 90.2101 11.5953C85.5437 11.5953 81.9698 15.1691 81.9698 20.0001Z" fill="white"/>
<path d="M135.947 31.5827H132.672C132.447 31.5827 132.291 31.3557 132.372 31.1459L141.04 8.75917C141.112 8.57331 141.291 8.45117 141.49 8.45117H145.588C145.787 8.45117 145.965 8.57331 146.038 8.75917L154.706 31.1459C154.787 31.357 154.632 31.5827 154.406 31.5827H151.131C150.997 31.5827 150.877 31.5004 150.831 31.3756L143.841 12.9437C143.736 12.6675 143.345 12.6675 143.24 12.9437L136.249 31.3756C136.201 31.5004 136.082 31.5827 135.949 31.5827H135.947Z" fill="white"/>
<path d="M3.59687 31.5827H0.321766C0.0960797 31.5827 -0.0592468 31.3557 0.0217347 31.1459L8.68941 8.75917C8.7611 8.57331 8.94033 8.45117 9.13946 8.45117H13.2377C13.4368 8.45117 13.6147 8.57331 13.6877 8.75917L22.3554 31.1459C22.4364 31.357 22.281 31.5827 22.0554 31.5827H18.7802C18.6462 31.5827 18.5267 31.5004 18.4802 31.3756L11.4906 12.9437C11.3857 12.6675 10.9941 12.6675 10.8892 12.9437L3.89823 31.3756C3.85044 31.5004 3.73096 31.5827 3.5982 31.5827H3.59687Z" fill="white"/>
<path d="M126.741 31.0636L120.24 22.7597C123.908 22.0654 126.056 19.5868 126.056 15.7873C126.056 11.4249 123.213 8.45117 118.191 8.45117H109.123C108.857 8.45117 108.641 8.66757 108.641 8.93308C108.641 10.6377 110.023 12.0197 111.727 12.0197H117.794C120.834 12.0197 122.288 13.5729 122.288 15.8205C122.288 18.0681 120.866 19.6545 117.794 19.6545H109.123C108.857 19.6545 108.641 19.8709 108.641 20.1364V31.2627C108.641 31.4406 108.784 31.584 108.962 31.584H112.054C112.232 31.584 112.375 31.4406 112.375 31.2627V22.9588H115.944L121.588 30.3255C122.196 31.1194 123.139 31.584 124.139 31.584H126.487C126.755 31.584 126.905 31.276 126.741 31.0649V31.0636Z" fill="white"/>
<path d="M72.9877 31.0636L66.4866 22.7597C70.1547 22.0654 72.3027 19.5868 72.3027 15.7873C72.3027 11.4249 69.4604 8.45117 64.4382 8.45117H55.3696C55.1041 8.45117 54.8877 8.66757 54.8877 8.93308C54.8877 10.6377 56.2697 12.0197 57.9743 12.0197H64.0413C67.0814 12.0197 68.5351 13.5729 68.5351 15.8205C68.5351 18.0681 67.1133 19.6545 64.0413 19.6545H55.3696C55.1041 19.6545 54.8877 19.8709 54.8877 20.1364V31.2627C54.8877 31.4406 55.0311 31.584 55.209 31.584H58.3009C58.4788 31.584 58.6221 31.4406 58.6221 31.2627V22.9588H62.1906L67.8355 30.3255C68.4435 31.1194 69.386 31.584 70.3857 31.584H72.7342C73.0023 31.584 73.1524 31.276 72.9877 31.0649V31.0636Z" fill="white"/>
<rect x="166.513" y="4" width="1" height="32" fill="#363D45"/>
<path d="M190.965 20.7487L190.965 28.332M199.298 12.4987L199.298 28.332M207.632 16.4987L207.632 28.332M182.632 16.6654L182.632 23.332C182.632 27.9991 182.632 30.3327 183.54 32.1153C184.339 33.6833 185.614 34.9581 187.182 35.7571C188.964 36.6654 191.298 36.6654 195.965 36.6654L202.632 36.6654C207.299 36.6654 209.632 36.6654 211.415 35.7571C212.983 34.9581 214.258 33.6833 215.057 32.1153C215.965 30.3327 215.965 27.9991 215.965 23.332L215.965 16.6654C215.965 11.9983 215.965 9.66471 215.057 7.88211C214.258 6.31409 212.983 5.03926 211.415 4.24031C209.632 3.33203 207.299 3.33203 202.631 3.33203L195.965 3.33203C191.298 3.33203 188.964 3.33203 187.182 4.24031C185.614 5.03926 184.339 6.3141 183.54 7.88211C182.632 9.66471 182.632 11.9983 182.632 16.6654Z" stroke="#5DEB5A" stroke-width="2.5" stroke-linecap="round" stroke-linejoin="round"/>
<path d="M236.459 9.1195H229.298V31.0985H236.986C241.016 31.0985 243.775 28.5875 243.775 25.1155C243.775 22.6665 242.318 20.4345 239.807 19.8145C241.729 19.1015 243.093 17.4275 243.093 15.0715C243.093 11.5995 240.644 9.1195 236.459 9.1195ZM236.118 18.7295H232.336V11.7855H235.994C238.505 11.7855 240.024 13.1495 240.024 15.2265C240.024 17.2725 238.567 18.7295 236.118 18.7295ZM236.552 28.4325H232.336V21.3335H236.676C239.342 21.3335 240.675 22.8215 240.675 24.9295C240.675 27.0685 239.001 28.4325 236.552 28.4325Z" fill="#5DEB5A"/>
<path d="M254.174 15.7225C249.71 15.7225 246.548 19.1015 246.548 23.6275C246.548 28.1845 249.71 31.5635 254.174 31.5635C258.638 31.5635 261.8 28.1845 261.8 23.6275C261.8 19.1015 258.638 15.7225 254.174 15.7225ZM254.174 28.9595C251.694 28.9595 249.524 27.0995 249.524 23.6275C249.524 20.1865 251.694 18.3265 254.174 18.3265C256.654 18.3265 258.824 20.1865 258.824 23.6275C258.824 27.0995 256.654 28.9595 254.174 28.9595Z" fill="#5DEB5A"/>
<path d="M273.805 19.1325V16.0325C273.65 16.0015 273.247 15.9395 272.844 15.9395C271.325 15.9395 269.465 16.4975 268.38 18.7915V16.1875H265.528V31.0985H268.442V23.6275C268.442 20.3415 270.085 19.0395 272.534 19.0395C272.937 19.0395 273.371 19.0705 273.805 19.1325Z" fill="#5DEB5A"/>
<path d="M289.748 26.8515L287.237 25.9835C286.679 27.6575 285.47 28.9905 283.052 28.9905C280.541 28.9905 278.619 27.1305 278.557 24.4645H289.779C289.81 24.2785 289.841 23.9065 289.841 23.5345C289.841 18.8845 287.268 15.7225 282.68 15.7225C278.929 15.7225 275.55 18.9155 275.55 23.5965C275.55 28.6495 279.053 31.5635 283.052 31.5635C286.524 31.5635 288.911 29.4865 289.748 26.8515ZM286.803 22.1085H278.65C278.774 20.1865 280.262 18.2955 282.711 18.2955C285.346 18.2955 286.741 19.9695 286.803 22.1085Z" fill="#5DEB5A"/>
<path d="M292.631 27.0995C292.631 29.4555 294.584 31.5635 297.622 31.5635C300.288 31.5635 301.776 30.1375 302.427 29.0835C302.427 30.1685 302.52 30.7265 302.582 31.0985H305.434C305.372 30.7265 305.248 29.9515 305.248 28.6495V21.1785C305.248 18.2645 303.512 15.7225 299.048 15.7225C295.824 15.7225 293.251 17.7065 292.941 20.5585L295.731 21.2095C295.917 19.4735 297.064 18.2025 299.11 18.2025C301.373 18.2025 302.334 19.4115 302.334 20.8685C302.334 21.3955 302.086 21.8605 301.187 21.9845L297.157 22.5735C294.584 22.9455 292.631 24.4335 292.631 27.0995ZM298.025 29.1145C296.537 29.1145 295.607 28.0605 295.607 26.9445C295.607 25.6115 296.537 24.8985 297.777 24.7125L302.334 24.0305V24.7125C302.334 27.9675 300.412 29.1145 298.025 29.1145Z" fill="#5DEB5A"/>
<path d="M309.788 31.0985H312.702V8.6545H309.788V31.0985Z" fill="#5DEB5A"/>
<path d="M317.008 10.5455C317.008 11.6925 317.938 12.6225 319.085 12.6225C320.263 12.6225 321.193 11.6925 321.193 10.5455C321.193 9.3675 320.263 8.4375 319.085 8.4375C317.938 8.4375 317.008 9.3675 317.008 10.5455ZM317.659 31.0985H320.542V16.1875H317.659V31.0985Z" fill="#5DEB5A"/>
<path d="M326.74 26.2935L324.105 27.2235C324.353 28.9285 326.089 31.5635 330.181 31.5635C333.87 31.5635 335.637 29.0525 335.637 26.9445C335.637 24.7435 334.211 23.1005 331.514 22.5115L329.096 21.9845C327.949 21.7365 327.391 21.0855 327.391 20.1865C327.391 19.1635 328.383 18.2025 329.871 18.2025C332.227 18.2025 332.847 19.9075 332.971 20.6825L335.544 19.7215C335.234 18.3885 333.963 15.7225 329.871 15.7225C326.957 15.7225 324.57 17.8925 324.57 20.4345C324.57 22.5425 325.965 24.1235 328.29 24.6195L330.832 25.1775C332.072 25.4565 332.754 26.1695 332.754 27.0995C332.754 28.1535 331.855 29.0835 330.212 29.0835C328.104 29.0835 326.926 27.8435 326.74 26.2935Z" fill="#5DEB5A"/>
</svg>
