<svg width="600" height="219" viewBox="0 0 600 219" fill="none" xmlns="http://www.w3.org/2000/svg">
<g clip-path="url(#clip0_2368_1448)">
<path d="M125.39 90.4688C125.677 90.4688 125.908 90.6981 125.908 90.9828V112.759C125.908 123.084 119.401 128.165 110.815 128.165C102.229 128.165 95.7227 123.082 95.7227 112.759V90.9828C95.7227 90.6981 95.9538 90.4688 96.2405 90.4688H101.337C101.624 90.4688 101.855 90.6981 101.855 90.9828V112.387C101.855 119.588 105.642 122.447 110.815 122.447C115.989 122.447 119.776 119.588 119.776 112.387V90.9828C119.776 90.6981 120.007 90.4688 120.294 90.4688H125.39Z" fill="white"/>
<path d="M214.745 109C214.692 119.908 206.32 128.166 195.386 128.166C184.453 128.166 176.027 119.908 176.027 109C176.027 98.0931 184.453 89.8345 195.386 89.8345C206.32 89.8345 214.692 98.0931 214.745 109ZM182.106 109C182.106 116.73 187.812 122.448 195.386 122.448C202.96 122.448 208.613 116.73 208.613 109C208.613 101.271 202.907 95.5526 195.386 95.5526C187.866 95.5526 182.106 101.271 182.106 109Z" fill="white"/>
<path d="M269.101 127.532H263.823C263.461 127.532 263.209 127.169 263.34 126.834L277.309 91.0148C277.426 90.7174 277.714 90.522 278.035 90.522H284.639C284.96 90.522 285.247 90.7174 285.365 91.0148L299.334 126.834C299.465 127.171 299.215 127.532 298.851 127.532H293.573C293.357 127.532 293.163 127.401 293.089 127.201L281.824 97.71C281.654 97.2681 281.024 97.2681 280.855 97.71L269.588 127.201C269.511 127.401 269.319 127.532 269.105 127.532H269.101Z" fill="white"/>
<path d="M55.7969 127.532H50.5186C50.1548 127.532 49.9045 127.169 50.035 126.834L64.0043 91.0148C64.1199 90.7174 64.4087 90.522 64.7297 90.522H71.3346C71.6555 90.522 71.9422 90.7174 72.0598 91.0148L86.0292 126.834C86.1597 127.171 85.9093 127.532 85.5457 127.532H80.2672C80.0512 127.532 79.8586 127.401 79.7837 127.201L68.5189 97.71C68.3498 97.2681 67.7187 97.2681 67.5496 97.71L56.2826 127.201C56.2056 127.401 56.013 127.532 55.7991 127.532H55.7969Z" fill="white"/>
<path d="M254.261 126.702L243.783 113.416C249.695 112.305 253.157 108.339 253.157 102.26C253.157 95.2799 248.575 90.522 240.481 90.522H225.867C225.438 90.522 225.09 90.8682 225.09 91.293C225.09 94.0204 227.317 96.2316 230.063 96.2316H239.841C244.741 96.2316 247.084 98.7167 247.084 102.313C247.084 105.909 244.792 108.447 239.841 108.447H225.867C225.438 108.447 225.09 108.794 225.09 109.218V127.02C225.09 127.305 225.32 127.535 225.607 127.535H230.59C230.877 127.535 231.108 127.305 231.108 127.02V113.734H236.86L245.956 125.521C246.936 126.791 248.456 127.535 250.067 127.535H253.851C254.283 127.535 254.525 127.042 254.261 126.704V126.702Z" fill="white"/>
<path d="M167.632 126.702L157.154 113.416C163.066 112.305 166.528 108.339 166.528 102.26C166.528 95.2799 161.947 90.522 153.853 90.522H139.238C138.81 90.522 138.461 90.8682 138.461 91.293C138.461 94.0204 140.688 96.2316 143.435 96.2316H153.213C158.113 96.2316 160.456 98.7167 160.456 102.313C160.456 105.909 158.164 108.447 153.213 108.447H139.238C138.81 108.447 138.461 108.794 138.461 109.218V127.02C138.461 127.305 138.692 127.535 138.979 127.535H143.962C144.249 127.535 144.48 127.305 144.48 127.02V113.734H150.231L159.328 125.521C160.308 126.791 161.827 127.535 163.438 127.535H167.223C167.655 127.535 167.897 127.042 167.632 126.704V126.702Z" fill="white"/>
<path d="M319.975 83.3999H318.363V134.6H319.975V83.3999Z" fill="#363D45"/>
<mask id="mask0_2368_1448" style="mask-type:luminance" maskUnits="userSpaceOnUse" x="338" y="77" width="66" height="64">
<path d="M403.431 77H338.965V141H403.431V77Z" fill="white"/>
</mask>
<g mask="url(#mask0_2368_1448)">
<path d="M371.199 85C359.777 85 350.516 94.4717 350.516 106.156C350.516 106.283 350.518 106.409 350.52 106.536C345.42 107.876 341.652 112.61 341.652 118.244C341.652 124.921 346.943 130.333 353.471 130.333H385.973C394.131 130.333 400.747 123.568 400.747 115.222C400.747 108.795 396.823 103.305 391.293 101.12C389.083 91.8675 380.925 85 371.199 85Z" stroke="#5DEB5A" stroke-width="4.28" stroke-linecap="round" stroke-linejoin="round"/>
</g>
<path d="M437.137 127.326C445.281 127.326 450.876 122.614 452.775 116.017L448.428 114.43C446.98 119.241 443.182 122.862 437.137 122.862C430.692 122.862 424.547 118.15 424.547 108.974C424.547 99.7982 430.692 95.1358 437.137 95.1358C442.933 95.1358 446.83 98.1118 448.179 103.419L452.725 101.832C450.926 95.0366 445.231 90.6719 437.137 90.6719C428.344 90.6719 419.551 97.219 419.551 108.974C419.551 120.729 427.994 127.326 437.137 127.326Z" fill="#5DEB5A"/>
<path d="M458.281 126.582H462.978V90.6719H458.281V126.582Z" fill="#5DEB5A"/>
<path d="M481.259 101.981C474.065 101.981 468.969 107.387 468.969 114.629C468.969 121.92 474.065 127.326 481.259 127.326C488.454 127.326 493.55 121.92 493.55 114.629C493.55 107.387 488.454 101.981 481.259 101.981ZM481.259 123.16C477.262 123.16 473.765 120.184 473.765 114.629C473.765 109.123 477.262 106.147 481.259 106.147C485.256 106.147 488.753 109.123 488.753 114.629C488.753 120.184 485.256 123.16 481.259 123.16Z" fill="#5DEB5A"/>
<path d="M515.15 123.705C515.15 124.697 515.25 126.037 515.35 126.582H519.846C519.746 125.739 519.597 124.053 519.597 122.168V102.725H514.9V117.109C514.9 120.729 513.002 123.209 509.205 123.209C505.258 123.209 503.759 120.333 503.759 117.059V102.725H499.062V117.753C499.062 123.16 502.46 127.326 508.056 127.326C510.853 127.326 513.851 126.185 515.15 123.705Z" fill="#5DEB5A"/>
<path d="M544.203 122.961V123.358C544.203 124.797 544.352 126.037 544.452 126.582H548.999C548.949 126.185 548.749 124.449 548.749 122.168V90.6719H544.103V106.097C543.303 104.163 541.005 102.08 536.758 102.08C529.964 102.08 525.367 107.833 525.367 114.579C525.367 121.672 529.714 127.227 536.758 127.227C540.505 127.227 543.054 125.243 544.203 122.961ZM530.163 114.579C530.163 109.669 532.961 106.197 537.258 106.197C541.555 106.197 544.153 109.569 544.153 114.48C544.153 119.39 541.505 123.11 537.208 123.11C532.711 123.11 530.163 119.489 530.163 114.579Z" fill="#5DEB5A"/>
</g>
<defs>
<clipPath id="clip0_2368_1448">
<rect width="499.613" height="64" fill="white" transform="translate(50 77)"/>
</clipPath>
</defs>
</svg>
