<svg width="287" height="40" viewBox="0 0 287 40" fill="none" xmlns="http://www.w3.org/2000/svg">
<path d="M46.7772 8.41797C46.9551 8.41797 47.0984 8.56134 47.0984 8.73924V22.3495C47.0984 28.8028 43.0613 31.9783 37.7338 31.9783C32.4063 31.9783 28.3691 28.8014 28.3691 22.3495V8.73924C28.3691 8.56134 28.5125 8.41797 28.6904 8.41797H31.8527C32.0306 8.41797 32.1739 8.56134 32.1739 8.73924V22.1171C32.1739 26.6176 34.5237 28.4045 37.7338 28.4045C40.9438 28.4045 43.2936 26.6176 43.2936 22.1171V8.73924C43.2936 8.56134 43.437 8.41797 43.6149 8.41797H46.7772Z" fill="white"/>
<path d="M102.222 20.0001C102.189 26.8172 96.9939 31.9788 90.2101 31.9788C83.4262 31.9788 78.1982 26.8172 78.1982 20.0001C78.1982 13.1831 83.4262 8.02148 90.2101 8.02148C96.9939 8.02148 102.189 13.1831 102.222 20.0001ZM81.9698 20.0001C81.9698 24.8311 85.5105 28.4049 90.2101 28.4049C94.9096 28.4049 98.4171 24.8311 98.4171 20.0001C98.4171 15.1691 94.8765 11.5953 90.2101 11.5953C85.5437 11.5953 81.9698 15.1691 81.9698 20.0001Z" fill="white"/>
<path d="M135.947 31.5827H132.672C132.447 31.5827 132.291 31.3557 132.372 31.1459L141.04 8.75917C141.112 8.57331 141.291 8.45117 141.49 8.45117H145.588C145.787 8.45117 145.965 8.57331 146.038 8.75917L154.706 31.1459C154.787 31.357 154.632 31.5827 154.406 31.5827H151.131C150.997 31.5827 150.877 31.5004 150.831 31.3756L143.841 12.9437C143.736 12.6675 143.345 12.6675 143.24 12.9437L136.249 31.3756C136.201 31.5004 136.082 31.5827 135.949 31.5827H135.947Z" fill="white"/>
<path d="M3.59687 31.5827H0.321766C0.0960797 31.5827 -0.0592468 31.3557 0.0217347 31.1459L8.68941 8.75917C8.7611 8.57331 8.94033 8.45117 9.13946 8.45117H13.2377C13.4368 8.45117 13.6147 8.57331 13.6877 8.75917L22.3554 31.1459C22.4364 31.357 22.281 31.5827 22.0554 31.5827H18.7802C18.6462 31.5827 18.5267 31.5004 18.4802 31.3756L11.4906 12.9437C11.3857 12.6675 10.9941 12.6675 10.8892 12.9437L3.89823 31.3756C3.85044 31.5004 3.73096 31.5827 3.5982 31.5827H3.59687Z" fill="white"/>
<path d="M126.741 31.0636L120.24 22.7597C123.908 22.0654 126.056 19.5868 126.056 15.7873C126.056 11.4249 123.213 8.45117 118.191 8.45117H109.123C108.857 8.45117 108.641 8.66757 108.641 8.93308C108.641 10.6377 110.023 12.0197 111.727 12.0197H117.794C120.834 12.0197 122.288 13.5729 122.288 15.8205C122.288 18.0681 120.866 19.6545 117.794 19.6545H109.123C108.857 19.6545 108.641 19.8709 108.641 20.1364V31.2627C108.641 31.4406 108.784 31.584 108.962 31.584H112.054C112.232 31.584 112.375 31.4406 112.375 31.2627V22.9588H115.944L121.588 30.3255C122.196 31.1194 123.139 31.584 124.139 31.584H126.487C126.755 31.584 126.905 31.276 126.741 31.0649V31.0636Z" fill="white"/>
<path d="M72.9877 31.0636L66.4866 22.7597C70.1547 22.0654 72.3027 19.5868 72.3027 15.7873C72.3027 11.4249 69.4604 8.45117 64.4382 8.45117H55.3696C55.1041 8.45117 54.8877 8.66757 54.8877 8.93308C54.8877 10.6377 56.2697 12.0197 57.9743 12.0197H64.0413C67.0814 12.0197 68.5351 13.5729 68.5351 15.8205C68.5351 18.0681 67.1133 19.6545 64.0413 19.6545H55.3696C55.1041 19.6545 54.8877 19.8709 54.8877 20.1364V31.2627C54.8877 31.4406 55.0311 31.584 55.209 31.584H58.3009C58.4788 31.584 58.6221 31.4406 58.6221 31.2627V22.9588H62.1906L67.8355 30.3255C68.4435 31.1194 69.386 31.584 70.3857 31.584H72.7342C73.0023 31.584 73.1524 31.276 72.9877 31.0649V31.0636Z" fill="white"/>
<rect x="166.513" y="4" width="1" height="32" fill="#363D45"/>
<path d="M212.632 16.6654C212.632 9.30157 206.662 3.33203 199.298 3.33203C197.53 3.33203 195.842 3.67621 194.298 4.30123M203.465 36.0014C208.788 34.2517 212.632 29.2407 212.632 23.332M195.132 36.0014C189.808 34.2517 185.965 29.2407 185.965 23.332V16.6654C185.965 13.5122 187.059 10.6147 188.889 8.33203M199.298 16.6654V23.332M192.632 23.332V16.6654C192.632 12.9835 195.616 9.9987 199.298 9.9987M205.073 13.332C205.64 14.3126 205.965 15.4511 205.965 16.6654V23.332C205.965 27.0139 202.98 29.9987 199.298 29.9987C198.084 29.9987 196.945 29.6741 195.965 29.1068" stroke="#5DEB5A" stroke-width="2.5" stroke-linecap="round" stroke-linejoin="round"/>
<path d="M232.336 21.7663H237.296C241.357 21.7663 244.085 19.0073 244.085 15.2873C244.085 11.5983 241.357 8.77734 237.296 8.77734H229.298V30.7563H232.336V21.7663ZM236.738 19.0383H232.336V11.5053H236.738C239.373 11.5053 240.985 12.9933 240.985 15.3183C240.985 17.5813 239.373 19.0383 236.738 19.0383Z" fill="#5DEB5A"/>
<path d="M245.616 26.7573C245.616 29.1133 247.569 31.2213 250.607 31.2213C253.273 31.2213 254.761 29.7953 255.412 28.7413C255.412 29.8263 255.505 30.3843 255.567 30.7563H258.419C258.357 30.3843 258.233 29.6093 258.233 28.3073V20.8363C258.233 17.9223 256.497 15.3803 252.033 15.3803C248.809 15.3803 246.236 17.3643 245.926 20.2163L248.716 20.8673C248.902 19.1313 250.049 17.8603 252.095 17.8603C254.358 17.8603 255.319 19.0693 255.319 20.5263C255.319 21.0533 255.071 21.5183 254.172 21.6423L250.142 22.2313C247.569 22.6033 245.616 24.0913 245.616 26.7573ZM251.01 28.7723C249.522 28.7723 248.592 27.7183 248.592 26.6023C248.592 25.2693 249.522 24.5563 250.762 24.3703L255.319 23.6883V24.3703C255.319 27.6253 253.397 28.7723 251.01 28.7723Z" fill="#5DEB5A"/>
<path d="M264.013 25.9513L261.378 26.8813C261.626 28.5863 263.362 31.2213 267.454 31.2213C271.143 31.2213 272.91 28.7103 272.91 26.6023C272.91 24.4013 271.484 22.7583 268.787 22.1693L266.369 21.6423C265.222 21.3943 264.664 20.7433 264.664 19.8443C264.664 18.8213 265.656 17.8603 267.144 17.8603C269.5 17.8603 270.12 19.5653 270.244 20.3403L272.817 19.3793C272.507 18.0463 271.236 15.3803 267.144 15.3803C264.23 15.3803 261.843 17.5503 261.843 20.0923C261.843 22.2003 263.238 23.7813 265.563 24.2773L268.105 24.8353C269.345 25.1143 270.027 25.8273 270.027 26.7573C270.027 27.8113 269.128 28.7413 267.485 28.7413C265.377 28.7413 264.199 27.5013 264.013 25.9513Z" fill="#5DEB5A"/>
<path d="M278.03 25.9513L275.395 26.8813C275.643 28.5863 277.379 31.2213 281.471 31.2213C285.16 31.2213 286.927 28.7103 286.927 26.6023C286.927 24.4013 285.501 22.7583 282.804 22.1693L280.386 21.6423C279.239 21.3943 278.681 20.7433 278.681 19.8443C278.681 18.8213 279.673 17.8603 281.161 17.8603C283.517 17.8603 284.137 19.5653 284.261 20.3403L286.834 19.3793C286.524 18.0463 285.253 15.3803 281.161 15.3803C278.247 15.3803 275.86 17.5503 275.86 20.0923C275.86 22.2003 277.255 23.7813 279.58 24.2773L282.122 24.8353C283.362 25.1143 284.044 25.8273 284.044 26.7573C284.044 27.8113 283.145 28.7413 281.502 28.7413C279.394 28.7413 278.216 27.5013 278.03 25.9513Z" fill="#5DEB5A"/>
</svg>
