<svg width="293" height="40" viewBox="0 0 293 40" fill="none" xmlns="http://www.w3.org/2000/svg">
<path d="M46.7772 8.41797C46.9551 8.41797 47.0984 8.56134 47.0984 8.73924V22.3495C47.0984 28.8028 43.0613 31.9783 37.7338 31.9783C32.4063 31.9783 28.3691 28.8014 28.3691 22.3495V8.73924C28.3691 8.56134 28.5125 8.41797 28.6904 8.41797H31.8527C32.0306 8.41797 32.1739 8.56134 32.1739 8.73924V22.1171C32.1739 26.6176 34.5237 28.4045 37.7338 28.4045C40.9438 28.4045 43.2936 26.6176 43.2936 22.1171V8.73924C43.2936 8.56134 43.437 8.41797 43.6149 8.41797H46.7772Z" fill="white"/>
<path d="M102.222 20.0001C102.189 26.8172 96.9939 31.9788 90.2101 31.9788C83.4262 31.9788 78.1982 26.8172 78.1982 20.0001C78.1982 13.1831 83.4262 8.02148 90.2101 8.02148C96.9939 8.02148 102.189 13.1831 102.222 20.0001ZM81.9698 20.0001C81.9698 24.8311 85.5105 28.4049 90.2101 28.4049C94.9096 28.4049 98.4171 24.8311 98.4171 20.0001C98.4171 15.1691 94.8765 11.5953 90.2101 11.5953C85.5437 11.5953 81.9698 15.1691 81.9698 20.0001Z" fill="white"/>
<path d="M135.947 31.5827H132.672C132.447 31.5827 132.291 31.3557 132.372 31.1459L141.04 8.75917C141.112 8.57331 141.291 8.45117 141.49 8.45117H145.588C145.787 8.45117 145.965 8.57331 146.038 8.75917L154.706 31.1459C154.787 31.357 154.632 31.5827 154.406 31.5827H151.131C150.997 31.5827 150.877 31.5004 150.831 31.3756L143.841 12.9437C143.736 12.6675 143.345 12.6675 143.24 12.9437L136.249 31.3756C136.201 31.5004 136.082 31.5827 135.949 31.5827H135.947Z" fill="white"/>
<path d="M3.59687 31.5827H0.321766C0.0960797 31.5827 -0.0592468 31.3557 0.0217347 31.1459L8.68941 8.75917C8.7611 8.57331 8.94033 8.45117 9.13946 8.45117H13.2377C13.4368 8.45117 13.6147 8.57331 13.6877 8.75917L22.3554 31.1459C22.4364 31.357 22.281 31.5827 22.0554 31.5827H18.7802C18.6462 31.5827 18.5267 31.5004 18.4802 31.3756L11.4906 12.9437C11.3857 12.6675 10.9941 12.6675 10.8892 12.9437L3.89823 31.3756C3.85044 31.5004 3.73096 31.5827 3.5982 31.5827H3.59687Z" fill="white"/>
<path d="M126.741 31.0636L120.24 22.7597C123.908 22.0654 126.056 19.5868 126.056 15.7873C126.056 11.4249 123.213 8.45117 118.191 8.45117H109.123C108.857 8.45117 108.641 8.66757 108.641 8.93308C108.641 10.6377 110.023 12.0197 111.727 12.0197H117.794C120.834 12.0197 122.288 13.5729 122.288 15.8205C122.288 18.0681 120.866 19.6545 117.794 19.6545H109.123C108.857 19.6545 108.641 19.8709 108.641 20.1364V31.2627C108.641 31.4406 108.784 31.584 108.962 31.584H112.054C112.232 31.584 112.375 31.4406 112.375 31.2627V22.9588H115.944L121.588 30.3255C122.196 31.1194 123.139 31.584 124.139 31.584H126.487C126.755 31.584 126.905 31.276 126.741 31.0649V31.0636Z" fill="white"/>
<path d="M72.9877 31.0636L66.4866 22.7597C70.1547 22.0654 72.3027 19.5868 72.3027 15.7873C72.3027 11.4249 69.4604 8.45117 64.4382 8.45117H55.3696C55.1041 8.45117 54.8877 8.66757 54.8877 8.93308C54.8877 10.6377 56.2697 12.0197 57.9743 12.0197H64.0413C67.0814 12.0197 68.5351 13.5729 68.5351 15.8205C68.5351 18.0681 67.1133 19.6545 64.0413 19.6545H55.3696C55.1041 19.6545 54.8877 19.8709 54.8877 20.1364V31.2627C54.8877 31.4406 55.0311 31.584 55.209 31.584H58.3009C58.4788 31.584 58.6221 31.4406 58.6221 31.2627V22.9588H62.1906L67.8355 30.3255C68.4435 31.1194 69.386 31.584 70.3857 31.584H72.7342C73.0023 31.584 73.1524 31.276 72.9877 31.0649V31.0636Z" fill="white"/>
<rect x="166.513" y="4" width="1" height="32" fill="#363D45"/>
<path d="M199.298 20.8328L214.298 11.6661M199.298 20.8328L184.298 11.6661M199.298 20.8328V37.4995M182.631 16.2096V23.7893C182.631 25.4461 182.631 26.2745 182.869 27.0189C183.079 27.6776 183.423 28.2857 183.88 28.805C184.396 29.3918 185.106 29.818 186.527 30.6705L195.169 35.8556C196.67 36.7563 197.421 37.2067 198.222 37.3826C198.93 37.5382 199.665 37.5382 200.373 37.3826C201.175 37.2067 201.925 36.7563 203.426 35.8556L212.068 30.6705C213.489 29.818 214.199 29.3918 214.715 28.805C215.172 28.2857 215.516 27.6776 215.726 27.0189C215.964 26.2745 215.964 25.4461 215.964 23.7893V16.2096C215.964 14.5528 215.964 13.7244 215.726 12.98C215.516 12.3213 215.172 11.7132 214.715 11.1939C214.199 10.6071 213.489 10.1809 212.068 9.32842L203.426 4.14327C201.925 3.24258 201.175 2.79223 200.373 2.61628C199.665 2.46064 198.93 2.46064 198.222 2.61628C197.421 2.79223 196.67 3.24258 195.169 4.14327L186.527 9.32842C185.106 10.1809 184.396 10.6071 183.88 11.1939C183.423 11.7132 183.079 12.3213 182.869 12.98C182.631 13.7244 182.631 14.5528 182.631 16.2096Z" stroke="#5DEB5A" stroke-width="2.50775" stroke-linecap="round" stroke-linejoin="round"/>
<path d="M242.194 15.0715L244.922 14.1105C244.426 11.7235 242.442 8.6545 237.482 8.6545C233.421 8.6545 230.228 11.7545 230.228 15.1955C230.228 18.4815 232.46 20.5275 235.591 21.2095L238.722 21.8915C240.923 22.3565 242.008 23.7205 242.008 25.3015C242.008 27.2235 240.52 28.8045 237.482 28.8045C234.165 28.8045 232.429 26.5415 232.212 24.0925L229.298 25.0225C229.701 28.1535 232.212 31.5635 237.513 31.5635C242.194 31.5635 245.108 28.4635 245.108 25.0535C245.108 21.9845 243.062 19.6905 239.404 18.8845L236.118 18.1715C234.258 17.7685 233.297 16.5595 233.297 14.9785C233.297 12.9325 235.064 11.3205 237.544 11.3205C240.613 11.3205 241.946 13.4905 242.194 15.0715Z" fill="#5DEB5A"/>
<path d="M248.173 10.5455C248.173 11.6925 249.103 12.6225 250.25 12.6225C251.428 12.6225 252.358 11.6925 252.358 10.5455C252.358 9.3675 251.428 8.4375 250.25 8.4375C249.103 8.4375 248.173 9.3675 248.173 10.5455ZM248.824 31.0985H251.707V16.1875H248.824V31.0985Z" fill="#5DEB5A"/>
<path d="M256.665 31.0985H259.579V8.6545H256.665V31.0985Z" fill="#5DEB5A"/>
<path d="M270.922 15.7225C266.458 15.7225 263.296 19.1015 263.296 23.6275C263.296 28.1845 266.458 31.5635 270.922 31.5635C275.386 31.5635 278.548 28.1845 278.548 23.6275C278.548 19.1015 275.386 15.7225 270.922 15.7225ZM270.922 28.9595C268.442 28.9595 266.272 27.0995 266.272 23.6275C266.272 20.1865 268.442 18.3265 270.922 18.3265C273.402 18.3265 275.572 20.1865 275.572 23.6275C275.572 27.0995 273.402 28.9595 270.922 28.9595Z" fill="#5DEB5A"/>
<path d="M283.517 26.2935L280.882 27.2235C281.13 28.9285 282.866 31.5635 286.958 31.5635C290.647 31.5635 292.414 29.0525 292.414 26.9445C292.414 24.7435 290.988 23.1005 288.291 22.5115L285.873 21.9845C284.726 21.7365 284.168 21.0855 284.168 20.1865C284.168 19.1635 285.16 18.2025 286.648 18.2025C289.004 18.2025 289.624 19.9075 289.748 20.6825L292.321 19.7215C292.011 18.3885 290.74 15.7225 286.648 15.7225C283.734 15.7225 281.347 17.8925 281.347 20.4345C281.347 22.5425 282.742 24.1235 285.067 24.6195L287.609 25.1775C288.849 25.4565 289.531 26.1695 289.531 27.0995C289.531 28.1535 288.632 29.0835 286.989 29.0835C284.881 29.0835 283.703 27.8435 283.517 26.2935Z" fill="#5DEB5A"/>
</svg>
