<?xml version="1.0" encoding="utf-8"?>
<!-- Generator: Adobe Illustrator 27.5.0, SVG Export Plug-In . SVG Version: 6.00 Build 0)  -->
<svg version="1.1" id="Layer_1" xmlns="http://www.w3.org/2000/svg" xmlns:xlink="http://www.w3.org/1999/xlink" x="0px" y="0px"
	 viewBox="0 0 500 500" style="enable-background:new 0 0 500 500;" xml:space="preserve">
<style type="text/css">
	.st0{fill:#FFFFFF;}
	.st1{fill:#141414;}
</style>
<circle class="st0" cx="250" cy="250" r="250"/>
<path class="st1" d="M88.9,236.1c0,12.9-10.4,23.3-23.3,23.3s-23.3-10.4-23.3-23.3c0-12.9,10.4-23.3,23.3-23.3c0,0,0,0,0,0
	C78.5,212.8,88.9,223.2,88.9,236.1 M458.9,236.1c0,12.9-10.4,23.3-23.3,23.3s-23.3-10.4-23.3-23.3c0-12.9,10.4-23.3,23.3-23.3
	c0,0,0,0,0,0C448.5,212.8,458.8,223.2,458.9,236.1 M273.9,327.9c0,12.9-10.4,23.3-23.3,23.3c-12.9,0-23.3-10.4-23.3-23.3
	c0-12.9,10.4-23.3,23.3-23.3c0,0,0,0,0,0C263.5,304.7,273.9,315.1,273.9,327.9 M180.8,282.6c0,12.9-10.4,23.3-23.3,23.3
	s-23.3-10.4-23.3-23.3c0-12.9,10.4-23.3,23.3-23.3S180.8,269.7,180.8,282.6L180.8,282.6 M365.8,282.6c0,12.9-10.4,23.3-23.2,23.3
	c-12.9,0-23.3-10.4-23.3-23.2c0-12.9,10.4-23.3,23.2-23.3c0,0,0.1,0,0.1,0C355.4,259.4,365.7,269.8,365.8,282.6 M81.4,306.5
	c0,8.7-7.1,15.7-15.7,15.7c-8.7,0-15.7-7.1-15.7-15.7c0-8.7,7.1-15.7,15.7-15.7C74.3,290.8,81.4,297.9,81.4,306.5L81.4,306.5
	 M451.3,306.5c0,8.7-7.1,15.7-15.7,15.7c-8.7,0-15.7-7.1-15.7-15.7s7.1-15.7,15.7-15.7C444.3,290.8,451.4,297.8,451.3,306.5
	 M266.4,399.7c0,8.7-7,15.7-15.7,15.7c-8.7,0-15.7-7-15.7-15.7c0-8.7,7-15.7,15.7-15.7c0,0,0,0,0,0C259.3,384,266.3,391,266.4,399.7
	 M173.2,353.1c0,8.7-7,15.7-15.7,15.7c-8.7,0-15.7-7-15.7-15.7c0-8.7,7-15.7,15.7-15.7c0,0,0,0,0,0
	C166.2,337.3,173.2,344.4,173.2,353.1C173.2,353.1,173.2,353.1,173.2,353.1 M358.2,353.1c0,8.7-7,15.7-15.7,15.8
	c-8.7,0-15.7-7-15.8-15.7c0-8.7,7-15.7,15.7-15.8c0,0,0,0,0.1,0C351.2,337.4,358.2,344.4,358.2,353.1 M73.8,361.9
	c0,4.5-3.7,8.2-8.2,8.2s-8.2-3.7-8.2-8.2c0-4.5,3.7-8.2,8.2-8.2S73.8,357.4,73.8,361.9 M443.8,361.9c0,4.5-3.7,8.2-8.2,8.2
	c-4.5,0-8.2-3.7-8.2-8.2c0-4.5,3.7-8.2,8.2-8.2C440.1,353.7,443.8,357.4,443.8,361.9 M258.8,455c0,4.5-3.7,8.2-8.2,8.2
	c-4.5,0-8.2-3.7-8.2-8.2c0-4.5,3.7-8.2,8.2-8.2C255.1,446.8,258.8,450.5,258.8,455L258.8,455 M165.7,408.5c0,4.5-3.7,8.2-8.2,8.2
	s-8.2-3.7-8.2-8.2c0-4.5,3.7-8.2,8.2-8.2S165.7,403.9,165.7,408.5 M350.7,408.5c0,4.5-3.7,8.2-8.2,8.2s-8.2-3.7-8.2-8.2
	c0-4.5,3.7-8.2,8.2-8.2S350.7,403.9,350.7,408.5 M281.4,56.7c0,17.4-14.1,31.5-31.5,31.5s-31.5-14.1-31.5-31.5
	c0-17.4,14.1-31.5,31.5-31.5c0,0,0,0,0,0C267.4,25.3,281.4,39.4,281.4,56.7 M281.4,149.8c0,17.4-14.1,31.5-31.5,31.5
	s-31.5-14.1-31.5-31.5s14.1-31.5,31.5-31.5c0,0,0,0,0,0C267.4,118.4,281.4,132.4,281.4,149.8 M281.4,241.7
	c0,17.4-14.1,31.5-31.5,31.5s-31.5-14.1-31.5-31.5s14.1-31.5,31.5-31.5c0,0,0,0,0,0C267.4,210.2,281.5,224.3,281.4,241.7
	C281.4,241.7,281.4,241.7,281.4,241.7 M466.5,149.8c0,17.4-14.1,31.5-31.5,31.5c-17.4,0-31.5-14.1-31.5-31.5s14.1-31.5,31.5-31.5
	l0,0C452.4,118.4,466.5,132.4,466.5,149.8 M96.5,149.8c0,17.4-14,31.5-31.4,31.5c-17.4,0-31.5-14-31.5-31.4
	c0-17.4,14-31.5,31.4-31.5c0,0,0,0,0,0C82.4,118.4,96.4,132.5,96.5,149.8 M189.6,103.3c0,17.4-14,31.5-31.4,31.5s-31.5-14-31.5-31.4
	c0-17.4,14-31.5,31.4-31.5C175.5,71.8,189.5,85.9,189.6,103.3 M189.5,195.2c0,17.4-14.1,31.5-31.5,31.5s-31.5-14.1-31.5-31.5
	c0-17.4,14.1-31.5,31.5-31.5S189.5,177.8,189.5,195.2L189.5,195.2 M374.6,103.3c0,17.4-14.1,31.5-31.5,31.5
	c-17.4,0-31.5-14.1-31.5-31.5s14.1-31.5,31.5-31.5l0,0C360.5,71.8,374.6,85.9,374.6,103.3 M374.6,195.2c0,17.4-14.1,31.5-31.5,31.5
	c-17.4,0-31.5-14.1-31.5-31.5s14.1-31.5,31.5-31.5l0,0C360.5,163.7,374.6,177.8,374.6,195.2"/>
</svg>
