<svg width="220" height="220" viewBox="0 0 220 220" fill="none" xmlns="http://www.w3.org/2000/svg">
<path d="M220 110C220 49.2487 170.751 0 110 0C49.2487 0 0 49.2487 0 110C0 170.751 49.2487 220 110 220C170.751 220 220 170.751 220 110Z" fill="#0D034A"/>
<path d="M76.9213 175.669C76.167 175.286 75.8454 175.001 75.4622 174.407C75.1159 173.85 75.0664 173.677 75.0664 172.91C75.0664 172.143 75.1159 171.982 75.4622 171.475C75.6722 171.165 76.1051 170.732 76.4143 170.522C76.9336 170.163 77.0821 170.126 77.9105 170.126C78.5905 170.126 78.9368 170.188 79.2089 170.349C80.3835 171.079 80.9029 172.229 80.6432 173.529C80.4578 174.419 80.1857 174.828 79.4192 175.348C78.9368 175.682 78.7019 175.756 78.0342 175.781C77.5642 175.805 77.1067 175.756 76.9213 175.669Z" fill="#E1147B"/>
<path d="M87.3671 175.57C86.3038 175.051 86.143 174.89 85.7348 174.011C85.4753 173.442 85.438 173.195 85.4875 172.7C85.537 172.353 85.6482 171.945 85.7597 171.784C85.8585 171.623 85.945 171.425 85.945 171.326C85.945 171.153 86.6499 170.534 87.1444 170.274C87.3424 170.163 93.8714 170.126 113.298 170.126C137.175 170.126 139.203 170.138 139.488 170.336C140.576 171.054 140.972 171.759 140.972 172.947C140.972 173.677 140.922 173.875 140.601 174.345C140.403 174.655 139.945 175.1 139.587 175.335C138.931 175.756 138.931 175.756 113.397 175.781C88.2575 175.818 87.8495 175.805 87.3671 175.57Z" fill="#E1147B"/>
<path d="M107.106 162.145C106.809 161.984 106.351 161.588 106.079 161.267C105.622 160.71 105.609 160.685 105.609 159.658C105.609 158.532 105.696 158.309 106.413 157.53C106.796 157.122 107.687 156.763 108.354 156.763C109.331 156.763 110.296 157.295 110.827 158.124C111.1 158.544 111.211 159.374 111.112 160.178C110.902 161.935 108.701 163.024 107.106 162.145Z" fill="#E1147B"/>
<path d="M117.639 162.146C116.6 161.651 115.97 160.698 115.957 159.609C115.945 158.372 116.749 157.258 117.911 156.899C118.294 156.788 124.193 156.763 143.94 156.788C169.475 156.825 169.475 156.825 170.032 157.097C171.243 157.691 171.837 159.386 171.293 160.636C171.144 160.958 170.984 161.218 170.922 161.218C170.86 161.218 170.773 161.329 170.736 161.453C170.699 161.589 170.353 161.861 169.92 162.071C169.178 162.455 169.178 162.455 143.73 162.442C118.282 162.442 118.282 162.442 117.639 162.146Z" fill="#E1147B"/>
<path d="M41.6144 149.128C40.6623 148.918 39.8585 148.349 39.4381 147.594C39.3268 147.408 39.2773 146.901 39.2773 146.233C39.2773 145.206 39.2898 145.144 39.6978 144.6C40.2172 143.931 41.2559 143.399 42.0595 143.399C42.7397 143.399 43.7537 143.882 44.1493 144.402C44.7058 145.132 44.7553 145.305 44.7676 146.307C44.7676 147.396 44.6317 147.73 43.9144 148.423C43.4199 148.906 42.2327 149.277 41.6144 149.128Z" fill="#E1147B"/>
<path d="M52.3749 149.153C52.313 149.141 52.004 149.042 51.6947 148.955C50.9282 148.732 50.3717 148.287 49.9512 147.557C49.3825 146.555 49.4566 145.849 50.2727 144.365C50.3346 144.241 50.7302 143.969 51.1384 143.771C51.8803 143.399 51.8803 143.399 71.7762 143.399C91.6724 143.399 91.6724 143.399 92.2411 143.672C92.9955 144.043 93.5273 144.637 93.7127 145.317C94.1826 147.062 93.4408 148.46 91.7714 148.967C91.0047 149.215 90.5471 149.215 71.7392 149.203C61.1543 149.203 52.449 149.178 52.3749 149.153Z" fill="#E1147B"/>
<path d="M102.046 149.029C101.7 148.93 101.267 148.757 101.107 148.646C100.723 148.398 100.204 147.73 99.9689 147.173C99.4619 145.936 100.142 144.327 101.465 143.709C102.108 143.399 102.108 143.399 143.149 143.399C184.067 143.399 184.19 143.399 184.747 143.659C185.464 143.981 185.996 144.55 186.268 145.317C186.54 146.097 186.527 146.344 186.243 147.173C185.983 147.928 185.377 148.596 184.66 148.93C184.215 149.141 182.373 149.153 143.446 149.178C108.588 149.203 102.603 149.178 102.046 149.029Z" fill="#E1147B"/>
<path d="M58.1996 135.754C57.6802 135.704 57.2597 135.481 56.7529 134.986C56.0852 134.331 55.813 133.304 56.0479 132.277C56.1222 131.893 56.2705 131.51 56.3447 131.435C56.4313 131.349 56.6044 131.151 56.7281 130.99C57.0868 130.532 57.8162 130.161 58.4716 130.074C59.1146 130 59.906 130.198 60.2028 130.495C60.2894 130.582 60.4377 130.656 60.5243 130.656C60.6108 130.656 60.8828 130.978 61.1425 131.361C61.5383 132.004 61.5878 132.165 61.5878 132.92C61.5878 134.096 61.1425 134.887 60.1038 135.518C59.7575 135.716 58.9291 135.828 58.1996 135.754Z" fill="#E1147B"/>
<path d="M68.633 135.741C67.9529 135.642 67.3841 135.259 66.9142 134.578C66.1972 133.526 66.1228 132.475 66.704 131.621C66.8525 131.398 67.0132 131.114 67.0627 130.99C67.0998 130.879 67.2729 130.718 67.4212 130.644C67.5819 130.569 67.9036 130.408 68.1384 130.272C68.5589 130.037 69.412 130.037 117.91 130.037C150.629 130.037 167.396 130.087 167.693 130.161C167.94 130.235 168.386 130.507 168.682 130.767C170.179 132.079 169.894 134.392 168.114 135.556C167.755 135.791 166.951 135.791 118.466 135.803C91.3609 135.816 68.9423 135.791 68.633 135.741Z" fill="#E1147B"/>
<path d="M35.261 122.352C34.7911 122.167 34.0492 121.523 33.7524 121.053C33.5298 120.682 33.4805 120.422 33.4805 119.581C33.4805 118.603 33.5051 118.529 33.8885 118.034C34.1234 117.737 34.5314 117.354 34.7911 117.156C35.2362 116.834 35.3847 116.797 36.2256 116.797C37.0663 116.797 37.2148 116.834 37.7218 117.18C38.0308 117.391 38.439 117.787 38.6492 118.071C38.9831 118.542 39.0078 118.665 39.0078 119.643C39.0078 120.682 38.9953 120.732 38.5873 121.251C38.3524 121.548 37.9196 121.944 37.6104 122.142C37.1528 122.427 36.9304 122.489 36.3122 122.476C35.8917 122.476 35.4218 122.414 35.261 122.352Z" fill="#E1147B"/>
<path d="M45.5725 122.278C45.3747 122.167 45.1769 122.043 45.1396 121.994C45.1025 121.944 44.9667 121.845 44.8182 121.771C44.6821 121.697 44.4102 121.313 44.1999 120.917C43.7178 119.94 43.7053 119.024 44.1875 118.294C44.3731 118.022 44.5214 117.75 44.5214 117.7C44.5214 117.638 44.8182 117.416 45.1769 117.205C45.8198 116.797 45.8198 116.797 87.1824 116.797C119.407 116.809 128.607 116.834 128.792 116.958C129.93 117.626 130.4 118.393 130.4 119.581C130.4 120.781 129.782 121.734 128.644 122.34C128.446 122.452 118.245 122.489 87.1576 122.489C49.5665 122.476 45.9064 122.464 45.5725 122.278Z" fill="#E1147B"/>
<path d="M58.2475 109.151C57.6539 108.99 56.9491 108.569 56.6028 108.174C56.096 107.592 55.8487 106.441 56.034 105.575C56.3062 104.362 57.5056 103.435 58.8162 103.435C59.3727 103.435 60.2507 103.769 60.6341 104.127C61.3265 104.758 61.5862 105.34 61.5862 106.206C61.5862 107.122 61.4625 107.518 61.0174 108.062C60.3373 108.891 59.113 109.374 58.2475 109.151Z" fill="#E1147B"/>
<path d="M68.3627 109.052C68.0289 108.953 67.7691 108.817 67.7691 108.755C67.7691 108.681 67.695 108.631 67.596 108.631C67.1755 108.631 66.2852 107.072 66.2852 106.342C66.2852 105.204 67.2745 103.867 68.3008 103.595C69.1417 103.373 179.714 103.36 180.678 103.583C183.065 104.14 183.337 107.728 181.074 108.891C180.481 109.188 180.481 109.188 124.712 109.213C76.0786 109.225 68.8695 109.213 68.3627 109.052Z" fill="#E1147B"/>
<path d="M77.8093 94.3649C77.5867 94.2164 77.2528 93.8699 77.0674 93.5978C76.7336 93.1028 76.7336 93.1028 76.7458 90.9374C76.7582 89.7001 76.8572 88.1163 76.9684 87.2255C77.0921 86.3718 77.2282 85.2581 77.2899 84.7385C77.463 83.2042 78.3656 79.3685 78.9222 77.76C79.0582 77.3518 79.256 76.7454 79.3426 76.4237C79.4292 76.0896 79.6518 75.5081 79.8248 75.1369C79.9979 74.7533 80.134 74.3944 80.134 74.3203C80.134 74.0108 82.3845 69.3214 82.8545 68.6657C82.9903 68.4677 83.1018 68.2697 83.1018 68.2079C83.1018 68.1584 83.2501 67.8861 83.4356 67.6139C83.621 67.3418 83.8561 66.9706 83.9673 66.7849C84.4372 65.956 84.9194 65.2013 85.414 64.5453C85.7108 64.1618 85.9459 63.7906 85.9459 63.7411C85.9459 63.6916 86.1188 63.4936 86.3168 63.2956C86.527 63.0978 86.6878 62.8625 86.6878 62.776C86.6878 62.6894 86.7248 62.6028 86.7866 62.578C86.8361 62.5658 87.1204 62.2317 87.4297 61.8603C88.3942 60.685 88.4683 60.5984 89.0744 59.9673C89.3958 59.6208 89.6555 59.3116 89.6555 59.2867C89.6555 59.1877 92.0543 56.8616 92.994 56.045C93.4269 55.6738 93.8598 55.2654 93.971 55.1542C94.07 55.0303 94.2183 54.9313 94.2924 54.9313C94.3544 54.9313 94.577 54.7706 94.7624 54.5602C94.9602 54.3622 95.1952 54.189 95.2818 54.189C95.3684 54.189 95.4672 54.1147 95.5043 54.0281C95.5413 53.9291 95.8752 53.657 96.2339 53.4095C96.6049 53.162 96.9758 52.8774 97.0624 52.7784C97.1614 52.6672 97.2973 52.5804 97.3714 52.5804C97.4458 52.5682 97.7053 52.4072 97.9404 52.2092C98.1752 51.999 98.4225 51.8381 98.4967 51.8381C98.5586 51.8381 98.8183 51.665 99.0532 51.467C99.2881 51.269 99.5478 51.0958 99.6219 51.0958C99.6963 51.0958 99.9807 50.9349 100.24 50.7493C100.5 50.5637 100.945 50.2914 101.217 50.1553C101.65 49.9327 102.058 49.7222 102.763 49.3511C103.987 48.6954 106.93 47.3837 107.956 47.025C108.327 46.9011 108.884 46.7031 109.193 46.5919C113.842 44.9833 119.469 44.043 124.526 44.043C128.978 44.043 133.875 44.7606 138.005 46.0228C140.465 46.7775 140.849 46.9136 140.91 47.025C140.96 47.0867 141.121 47.1362 141.281 47.1362C141.455 47.1362 142.023 47.3342 142.543 47.5817C143.074 47.8292 143.841 48.1757 144.249 48.3613C146.042 49.1779 148.256 50.3533 148.849 50.7988C149.059 50.9595 149.319 51.0958 149.418 51.0958C149.529 51.0958 149.628 51.1329 149.653 51.1946C149.702 51.3185 150.457 51.8381 150.58 51.8381C150.642 51.8381 150.877 51.999 151.112 52.2092C151.347 52.4072 151.607 52.5682 151.693 52.5804C151.767 52.5804 151.854 52.6177 151.879 52.6794C151.903 52.7289 152.2 52.9517 152.534 53.1868C152.88 53.4219 153.264 53.7189 153.4 53.855C153.536 53.9786 154.006 54.3622 154.451 54.7087C155.316 55.3893 155.526 55.5624 156.058 56.0821C156.244 56.2676 156.429 56.4161 156.466 56.4161C156.503 56.4161 157.319 57.2081 158.259 58.1855C159.211 59.1507 160.139 60.091 160.312 60.2643C160.485 60.4499 160.633 60.6479 160.633 60.722C160.633 60.7964 160.807 60.9695 161.004 61.118C161.202 61.2665 161.375 61.4645 161.375 61.5511C161.375 61.6501 161.449 61.7737 161.536 61.8232C161.685 61.9222 162.365 62.7513 162.735 63.2956C162.834 63.4441 163.168 63.9143 163.478 64.3351C164.219 65.362 164.318 65.5105 164.937 66.5376C165.221 67.0201 165.518 67.453 165.58 67.4903C165.654 67.5274 165.703 67.6759 165.703 67.7995C165.703 67.9234 165.74 68.047 165.79 68.0719C165.951 68.1336 166.445 68.8883 166.445 69.0617C166.445 69.1482 166.557 69.3957 166.692 69.5937C166.965 70.002 167.669 71.4373 168.288 72.8725C168.523 73.38 168.832 74.0976 168.992 74.4563C169.153 74.8153 169.289 75.174 169.289 75.2481C169.289 75.3225 169.45 75.8297 169.648 76.3866C170.229 78.0075 170.637 79.3067 170.823 80.1729C170.909 80.6182 171.107 81.4473 171.243 82.0288C171.503 83.1176 171.787 84.8004 172.084 86.9163C172.294 88.4628 172.319 93.0657 172.121 93.4493C171.936 93.808 171.28 94.402 170.922 94.5381C170.748 94.6 151.631 94.6495 124.427 94.6371C78.2174 94.6371 78.2173 94.6371 77.8093 94.3649Z" fill="#53CBC8"/>
</svg>
