<?xml version="1.0" encoding="utf-8"?>
<!-- Generator: Adobe Illustrator 22.0.1, SVG Export Plug-In . SVG Version: 6.00 Build 0)  -->
<svg version="1.1" id="Layer_1" xmlns="http://www.w3.org/2000/svg" xmlns:xlink="http://www.w3.org/1999/xlink" x="0px" y="0px"
	 viewBox="0 0 500 500" style="enable-background:new 0 0 500 500;" xml:space="preserve">
<style type="text/css">
	.st0{fill:#5DEB5A;}
</style>
<g id="b">
	<g id="c">
		<g>
			<path class="st0" d="M248.9,63.1c18.7,0,35.5,10.4,43.8,27.1l137.8,275.7c7.7,15.3,6.8,33.1-2.1,47.7
				c-9,14.6-24.6,23.3-41.7,23.3H111.1c-17.1,0-32.7-8.7-41.7-23.3c-9-14.6-9.8-32.4-2.1-47.7L205.1,90.2
				C213.4,73.5,230.2,63.1,248.9,63.1 M248.9,29.4c-31.3,0-60,17.7-74,45.7L37.1,350.9c-12.8,25.6-11.4,56.1,3.6,80.5
				c15.1,24.4,41.7,39.2,70.4,39.2h275.7c28.7,0,55.3-14.8,70.4-39.2c15.1-24.4,16.4-54.8,3.6-80.5L322.9,75.2
				C308.9,47.1,280.2,29.4,248.9,29.4L248.9,29.4L248.9,29.4z"/>
		</g>
	</g>
</g>
</svg>
