<?xml version="1.0" encoding="utf-8"?>
<!-- Generator: Adobe Illustrator 22.0.1, SVG Export Plug-In . SVG Version: 6.00 Build 0)  -->
<svg version="1.1" id="Layer_1" xmlns="http://www.w3.org/2000/svg" xmlns:xlink="http://www.w3.org/1999/xlink" x="0px" y="0px"
	 viewBox="0 0 145 145" style="enable-background:new 0 0 145 145;" xml:space="preserve">
<style type="text/css">
	.st0{clip-path:url(#SVGID_2_);}
	.st1{fill:#213147;}
	.st2{fill:#12AAFF;}
	.st3{fill:#9DCCED;}
	.st4{fill:#FFFFFF;}
</style>
<g>
	<defs>
		<rect id="SVGID_1_" x="10" y="2" width="125" height="141"/>
	</defs>
	<clipPath id="SVGID_2_">
		<use xlink:href="#SVGID_1_"  style="overflow:visible;"/>
	</clipPath>
	<g class="st0">
		<path class="st1" d="M14.7,44.9v55.3c0,3.5,1.9,6.8,4.9,8.6l47.9,27.6c3.1,1.8,6.8,1.8,9.9,0l47.9-27.6c3.1-1.8,4.9-5,4.9-8.6
			V44.9c0-3.5-1.9-6.8-4.9-8.6L77.4,8.7c-3.1-1.8-6.8-1.8-9.9,0L19.7,36.3C16.6,38.1,14.7,41.3,14.7,44.9z"/>
		<path class="st2" d="M83,83.2l-6.8,18.7c-0.2,0.5-0.2,1.1,0,1.6l11.7,32.2l13.6-7.8L85.2,83.2C84.8,82.2,83.3,82.2,83,83.2z"/>
		<path class="st2" d="M96.6,51.7c-0.4-1-1.8-1-2.2,0l-6.8,18.7c-0.2,0.5-0.2,1.1,0,1.6l19.2,52.7l13.6-7.8L96.6,51.7z"/>
		<path class="st3" d="M72.5,10.7c0.3,0,0.7,0.1,1,0.3l51.8,29.9c0.6,0.3,1,1,1,1.7v59.8c0,0.7-0.4,1.3-1,1.7L73.5,134
			c-0.3,0.2-0.6,0.3-1,0.3s-0.7-0.1-1-0.3l-51.8-29.9c-0.6-0.3-1-1-1-1.7V42.6c0-0.7,0.4-1.3,1-1.7L71.5,11
			C71.8,10.8,72.2,10.7,72.5,10.7z M72.5,2c-1.8,0-3.7,0.5-5.3,1.4L15.3,33.3C12,35.2,10,38.8,10,42.6v59.8c0,3.8,2,7.3,5.3,9.3
			l51.8,29.9c1.7,0.9,3.5,1.4,5.3,1.4c1.8,0,3.7-0.5,5.3-1.4l51.8-29.9c3.3-1.9,5.3-5.4,5.3-9.3V42.6c0-3.8-2-7.3-5.3-9.3L77.8,3.4
			C76.2,2.5,74.3,2,72.5,2z"/>
		<path class="st1" d="M38.2,124.9l4.8-13.1l9.6,8l-9,8.2L38.2,124.9z"/>
		<path class="st4" d="M68.1,38.3H55c-1,0-1.9,0.6-2.2,1.5L24.6,117l13.6,7.8l31-85C69.5,39.1,69,38.3,68.1,38.3z"/>
		<path class="st4" d="M91.1,38.3H78c-1,0-1.9,0.6-2.2,1.5L43.6,128l13.6,7.8l35-95.9C92.5,39.1,91.9,38.3,91.1,38.3z"/>
	</g>
</g>
</svg>
