<?xml version="1.0" encoding="utf-8"?>
<!-- Generator: Adobe Illustrator 22.0.1, SVG Export Plug-In . SVG Version: 6.00 Build 0)  -->
<svg version="1.1" id="Layer_1" xmlns="http://www.w3.org/2000/svg" xmlns:xlink="http://www.w3.org/1999/xlink" x="0px" y="0px"
	 viewBox="0 0 56 56" style="enable-background:new 0 0 56 56;" xml:space="preserve">
<style type="text/css">
	.st0{fill:#1F5EFF;}
</style>
<g id="Layer_10">
	<path class="st0" d="M48.5,46.4c-1.5,1.3-3.2,2.5-5,3.4c0.3-0.3-0.7-1.4-0.4-1.7c8.1-7,9.9-16.1,6.7-24c-0.4-1.1,0.5-1.5,0.5-2.5
		C57.8,28.7,57,39.1,48.5,46.4z"/>
	<path class="st0" d="M50.3,21.7c-3.3-2.9-7.2-5-11.5-6.1h-0.1h0.1c1.6,0.4,1.8,2.3,2.9,3.3c2.4,2,3.1,4.7,3.3,8.1
		c0.4,5.1,0.3,10.2-3.4,14.8c-2,2.5-4.5,4.5-7.4,5.8l-0.7,0.3h-0.1c-1.5,0.6-3.1,1.1-4.7,1.3c-6.1,1.2-14.1,0.7-23.9-2.4
		c3.6,2.8,7.8,4.9,12.3,6.2c4.4,1.2,9.1,1.5,13.7,1l0,0c0.7-0.1,1.3-0.2,1.9-0.3c2.5-0.4,4.9-1.1,7.3-2.1l0,0
		c1.2-0.5,2.4-1.1,3.6-1.7c0.3-0.3,0.7-0.5,1-0.8C53.8,41.1,55.8,30.3,50.3,21.7z"/>
	<path class="st0" d="M33.5,47.8c11.4-4.6,12-16.4-1.2-23c-9.6-4.8-5.4-12.5,6.5-9.2C52.1,19.1,48.2,42.2,33.5,47.8z"/>
	<path class="st0" d="M51.2,9.3C38.7,5.2,29,5.6,22.6,8.2h-0.1C13,12.1,11,20.9,18.2,27.5c-1.9-1.6-4.1-3.2-5-5.4
		c-1.2-2.8-1.6-5.9-1.1-8.9c0.7-4.1,3.3-7.5,7-9.4c1.9-0.9,4-1.5,6.1-1.8C34.5,0.9,43.9,3.5,51.2,9.3z"/>
	<path class="st0" d="M20.3,41.1c-0.8-0.3-1.8-0.4-2.5-0.7C8.2,36.5,3,29.3,3.2,22.1c0.1-5.1,3.1-10.2,8-14.4
		c1.5-1.2,3.1-2.3,4.9-3.2l0,0c2.3-1,4.8-1.7,7.3-2.1c0.7-0.1,1.3-0.2,2-0.3c-0.8,0.1-1.5,0.3-2.2,0.5C10.5,6,9.8,20.5,18.2,27.5
		l0,0c1.7,1.5,3.5,2.7,5.5,3.7C32.5,35.6,29.8,42.3,20.3,41.1z"/>
	<path class="st0" d="M20.3,41.1c-1-0.1-2.1-0.3-3.1-0.6C-1.3,35.4-4,19.6,7.5,9.6C10,7.5,12.9,5.7,16,4.5c-1.6,1-3.2,2.1-4.6,3.3
		C-0.8,18.4,1.6,35,20.3,41.1z"/>
</g>
</svg>
