<?xml version="1.0" encoding="utf-8"?>
<!-- Generator: Adobe Illustrator 16.0.0, SVG Export Plug-In . SVG Version: 6.00 Build 0)  -->
<!DOCTYPE svg PUBLIC "-//W3C//DTD SVG 1.1//EN" "http://www.w3.org/Graphics/SVG/1.1/DTD/svg11.dtd">
<svg version="1.1" id="Layer_1" xmlns="http://www.w3.org/2000/svg" xmlns:xlink="http://www.w3.org/1999/xlink" x="0px" y="0px"
	 width="500px" height="500px" viewBox="0 0 500 500" enable-background="new 0 0 500 500" xml:space="preserve">
<g>
	<path fill-rule="evenodd" clip-rule="evenodd" fill="#E3DEEF" d="M251.136,496.01c-79.627,0-159.252-0.075-238.876,0.156
		c-5.749,0.015-7.102-1.015-7.094-6.996c0.215-159.249,0.208-318.5,0.019-477.75c-0.006-5.747,1.01-7.102,6.992-7.094
		c159.249,0.215,318.5,0.209,477.75,0.019c5.747-0.008,7.103,1.01,7.095,6.991c-0.216,159.25-0.209,318.501-0.019,477.751
		c0.005,5.747-1.009,7.117-6.992,7.099C410.385,495.924,330.761,496.01,251.136,496.01z M190.582,300.601
		c-2.347,1.745-5.031,0.833-7.528,1.063c-18.025,1.654-35.802,4.383-51.996,13.131c-11.556,6.243-17.32,15.296-17.44,29.312
		c-0.123,14.392,5.13,23.858,17.757,29.761c3.553,1.661,7.136,3.309,10.829,4.615c32.575,11.514,65.534,11.491,98.49,2.221
		c25.997-7.311,30.829-14.002,31.74-40.455c0.021-0.657,0.126-1.32,0.057-1.964c-0.476-4.443,1.024-7.037,5.637-8.716
		c14.034-5.104,24.438-14.64,32.535-27.199c19.91-30.883,37.683-62.949,53.25-96.191c10.697-22.838,20.335-46.114,23.58-71.521
		c2.098-16.429-4.245-23.176-20.224-20.344c-5.469,0.969-10.986,1.91-16.297,3.489c-56.968,16.942-107.286,45.138-153.072,83.549
		c-34.781,29.177-28.878,67.613-10.487,93.449C188.665,296.555,190.974,297.849,190.582,300.601z"/>
	<path fill-rule="evenodd" clip-rule="evenodd" fill="#8A79B8" d="M190.582,300.601c0.392-2.752-1.917-4.046-3.167-5.801
		c-18.391-25.836-24.293-64.271,10.487-93.449c45.786-38.411,96.104-66.607,153.072-83.549c5.311-1.579,10.828-2.52,16.297-3.489
		c15.979-2.832,22.321,3.915,20.224,20.344c-3.245,25.407-12.883,48.684-23.58,71.521c-15.567,33.242-33.34,65.308-53.25,96.191
		c-8.097,12.56-18.501,22.096-32.535,27.199c-4.612,1.679-6.112,4.272-5.637,8.716c0.069,0.644-0.035,1.307-0.057,1.964
		c-0.911,26.453-5.743,33.145-31.74,40.455c-32.956,9.271-65.916,9.293-98.49-2.221c-3.693-1.307-7.276-2.954-10.829-4.615
		c-12.627-5.902-17.88-15.369-17.757-29.761c0.12-14.016,5.884-23.068,17.44-29.312c16.194-8.748,33.971-11.477,51.996-13.131
		C185.551,301.434,188.235,302.346,190.582,300.601z M226.909,204.824c-24.179-0.131-40.25,10.426-45.934,30.453
		c-6.408,22.588,1.32,41.675,14.85,59.379c3.137,4.103,6.269,6.474,11.852,7.179c21.452,2.707,42.963,5.816,59.994,21.219
		c3.08,2.787,6.012,1.291,9.081-0.013c17.891-7.594,26.93-21.381,27.34-40.508C304.944,242.78,267.258,205.043,226.909,204.824z
		 M193.343,307.52c-6.945,0.586-14.817,0.856-22.56,1.985c-14.292,2.083-28.374,5.151-40.635,13.42
		c-11.716,7.897-12.006,16.189-0.902,24.934c2.292,1.803,4.841,3.46,7.529,4.553c37.831,15.368,75.816,15.238,113.554,0.012
		c7.386-2.979,15.934-7.403,15.62-17.04c-0.287-8.903-8.433-12.751-15.452-16.235C232.802,310.362,213.545,308.77,193.343,307.52z"
		/>
	<path fill-rule="evenodd" clip-rule="evenodd" fill="#BEB6DA" d="M226.909,204.824c40.349,0.219,78.035,37.956,77.182,77.709
		c-0.41,19.127-9.449,32.914-27.34,40.508c-3.069,1.304-6.001,2.8-9.081,0.013c-17.03-15.402-38.542-18.512-59.994-21.219
		c-5.583-0.705-8.715-3.076-11.852-7.179c-13.53-17.704-21.258-36.791-14.85-59.379C186.659,215.25,202.73,204.693,226.909,204.824z
		"/>
	<path fill-rule="evenodd" clip-rule="evenodd" fill="#E3DEEF" d="M193.343,307.52c20.202,1.25,39.459,2.843,57.154,11.628
		c7.019,3.484,15.165,7.332,15.452,16.235c0.313,9.637-8.234,14.061-15.62,17.04c-37.737,15.227-75.723,15.356-113.554-0.012
		c-2.688-1.093-5.237-2.75-7.529-4.553c-11.104-8.744-10.814-17.036,0.902-24.934c12.262-8.269,26.343-11.337,40.635-13.42
		C178.526,308.376,186.398,308.105,193.343,307.52z"/>
</g>
</svg>
