<?xml version="1.0" encoding="utf-8"?>
<!-- Generator: Adobe Illustrator 16.0.0, SVG Export Plug-In . SVG Version: 6.00 Build 0)  -->
<!DOCTYPE svg PUBLIC "-//W3C//DTD SVG 1.1//EN" "http://www.w3.org/Graphics/SVG/1.1/DTD/svg11.dtd">
<svg version="1.1" id="Layer_1" xmlns="http://www.w3.org/2000/svg" xmlns:xlink="http://www.w3.org/1999/xlink" x="0px" y="0px"
	 width="500px" height="500px" viewBox="0 0 500 500" enable-background="new 0 0 500 500" xml:space="preserve">
<g>
	<path fill="#E3DEEF" d="M250.496,500.223c-81.201,0-162.399-0.076-243.596,0.16c-5.862,0.015-7.242-1.035-7.234-7.135
		C-0.115,330.853-0.122,168.456-0.315,6.06c-0.006-5.86,1.03-7.242,7.13-7.233C169.21-0.955,331.606-0.96,494.003-1.155
		c5.861-0.008,7.244,1.03,7.236,7.129c-0.222,162.396-0.214,324.792-0.02,487.189c0.005,5.861-1.029,7.258-7.131,7.239
		C412.89,500.135,331.692,500.223,250.496,500.223z M188.745,300.954c-2.394,1.778-5.13,0.849-7.676,1.084
		c-18.381,1.688-36.509,4.47-53.023,13.39c-11.785,6.366-17.663,15.599-17.784,29.893c-0.125,14.675,5.231,24.328,18.107,30.348
		c3.624,1.694,7.277,3.374,11.043,4.705c33.218,11.743,66.829,11.72,100.436,2.267c26.512-7.456,31.438-14.279,32.366-41.255
		c0.022-0.67,0.13-1.346,0.06-2.002c-0.485-4.531,1.045-7.177,5.748-8.89c14.311-5.204,24.921-14.927,33.178-27.735
		c20.304-31.494,38.428-64.192,54.302-98.091c10.908-23.29,20.737-47.025,24.046-72.934c2.14-16.754-4.329-23.634-20.624-20.746
		c-5.576,0.988-11.203,1.948-16.618,3.558c-58.094,17.277-109.406,46.029-156.096,85.199
		c-35.468,29.753-29.449,68.948-10.694,95.295C186.79,296.827,189.145,298.148,188.745,300.954z"/>
	<path fill="#8A79B8" d="M188.745,300.954c0.4-2.806-1.955-4.127-3.229-5.916c-18.755-26.347-24.773-65.541,10.694-95.295
		c46.69-39.17,98.002-67.922,156.096-85.2c5.415-1.61,11.042-2.569,16.619-3.558c16.294-2.888,22.762,3.992,20.623,20.746
		c-3.309,25.908-13.138,49.645-24.046,72.934c-15.874,33.898-33.998,66.598-54.302,98.091c-8.257,12.81-18.867,22.532-33.178,27.736
		c-4.703,1.712-6.232,4.356-5.748,8.889c0.07,0.655-0.036,1.332-0.06,2.002c-0.928,26.976-5.854,33.8-32.366,41.255
		c-33.606,9.454-67.218,9.477-100.436-2.266c-3.766-1.333-7.419-3.013-11.043-4.706c-12.876-6.019-18.233-15.673-18.107-30.349
		c0.122-14.293,6-23.524,17.784-29.892c16.514-8.92,34.643-11.703,53.023-13.39C183.614,301.803,186.351,302.732,188.745,300.954z
		 M225.79,203.285c-24.657-0.134-41.045,10.631-46.841,31.054c-6.535,23.035,1.346,42.499,15.143,60.552
		c3.199,4.184,6.393,6.602,12.086,7.321c21.875,2.76,43.813,5.93,61.179,21.639c3.141,2.84,6.132,1.314,9.261-0.015
		c18.244-7.744,27.461-21.803,27.88-41.308C305.366,241.991,266.936,203.508,225.79,203.285z M191.56,308.01
		c-7.082,0.597-15.109,0.872-23.005,2.023c-14.575,2.124-28.935,5.253-41.438,13.686c-11.947,8.054-12.243,16.508-0.919,25.428
		c2.337,1.838,4.936,3.526,7.678,4.643c38.578,15.671,77.313,15.538,115.797,0.012c7.532-3.037,16.25-7.549,15.929-17.377
		c-0.292-9.079-8.6-13.003-15.757-16.556C231.799,310.906,212.161,309.284,191.56,308.01z"/>
	<path fill="#BEB6DA" d="M225.79,203.285c41.146,0.223,79.577,38.706,78.707,79.244c-0.418,19.505-9.635,33.563-27.88,41.308
		c-3.13,1.33-6.12,2.854-9.261,0.015c-17.365-15.707-39.303-18.879-61.179-21.639c-5.693-0.72-8.887-3.138-12.086-7.321
		c-13.797-18.054-21.678-37.518-15.143-60.552C184.744,213.917,201.133,203.151,225.79,203.285z"/>
	<path fill="#E3DEEF" d="M191.56,308.01c20.601,1.274,40.239,2.899,58.284,11.858c7.157,3.552,15.465,7.477,15.757,16.555
		c0.319,9.827-8.396,14.339-15.929,17.377c-38.482,15.527-77.219,15.66-115.797-0.012c-2.742-1.115-5.34-2.806-7.678-4.644
		c-11.324-8.917-11.027-17.372,0.919-25.427c12.505-8.434,26.864-11.562,41.438-13.686
		C176.451,308.882,184.478,308.606,191.56,308.01z"/>
</g>
</svg>
