<?xml version="1.0" encoding="utf-8"?>
<!-- Generator: Adobe Illustrator 16.0.0, SVG Export Plug-In . SVG Version: 6.00 Build 0)  -->
<!DOCTYPE svg PUBLIC "-//W3C//DTD SVG 1.1//EN" "http://www.w3.org/Graphics/SVG/1.1/DTD/svg11.dtd">
<svg version="1.1" id="Layer_1" xmlns="http://www.w3.org/2000/svg" xmlns:xlink="http://www.w3.org/1999/xlink" x="0px" y="0px"
	 width="500px" height="500px" viewBox="0 0 500 500" enable-background="new 0 0 500 500" xml:space="preserve">
<g>
	<path fill="#F3F3F3" d="M3.03,289.342c0-25.561,0-51.123,0-76.684c4.736-0.456,3.954-4.18,4.56-7.324
		c8.197-42.531,25.814-80.877,54.158-113.512c38.067-43.827,85.586-72.319,143.196-82.809c3.021-0.55,5.886-0.572,6.229-4.498
		c25.562,0,51.125,0,76.686,0c0.453,4.736,4.173,3.965,7.322,4.558c42.642,8.016,80.8,26.094,113.549,54.215
		c44.097,37.864,72.275,85.56,82.773,143.14c0.549,3.021,0.568,5.887,4.496,6.229c0,25.562,0,51.124,0,76.683
		c-4.732,0.453-3.966,4.172-4.557,7.324c-8.017,42.631-25.971,80.896-54.227,113.506c-37.975,43.824-85.472,72.439-143.131,82.814
		c-3.023,0.545-5.888,0.574-6.229,4.5c-25.563,0-51.124,0-76.686,0c-0.455-4.736-4.178-3.955-7.323-4.561
		c-42.531-8.195-80.877-25.813-113.511-54.158C46.51,400.699,18.017,353.18,7.526,295.572C6.98,292.549,6.959,289.686,3.03,289.342z
		 M215.607,173.395c19.995-12.328,40.516-12.063,61.417-2.556c10.004,6.632,14.06,18.284,22.25,26.416
		c10.751,10.675,31.004,12.392,43.234,3.884c11.195-7.788,13.938-21.27,7.262-35.706c-3.063-14.907-12.929-25.105-24.494-33.573
		c-40.638-29.745-113.272-29.664-153.7,0.19c-10.828,7.995-20.781,17.164-24.219,31.142c-12.332,19.434-11.488,41.645,4.196,55.834
		c25.405,22.98,56.874,25.083,89.094,23.587c-9.733-7.157-17.905-15.313-25.114-24.508
		C201.926,200.749,201.916,190.516,215.607,173.395z M285.767,326.883c-23.772,14.551-47.906,15.355-72.417,1.91
		c-5.814-6.428-11.793-12.715-17.405-19.313c-11.455-13.473-26.073-17.719-40.756-11.547c-13.604,5.723-18.14,15.783-15.886,35.236
		c5.705,24.379,22.798,38.709,44.615,47.152c41.244,15.965,83.297,16.564,124.717,0.729c22.521-8.615,40.037-23.631,47.807-47.713
		c7.393-17.313,6.543-34.15-7.205-47.436c-26.021-25.15-59.117-27.014-95.748-27.178c12.701,9.908,22.743,17.809,30.795,27.764
		C296.18,301.193,296.469,312.047,285.767,326.883z"/>
	<path fill="#7269AF" d="M356.44,333.34c-7.77,24.082-25.286,39.096-47.807,47.711c-41.419,15.838-83.472,15.238-124.718-0.729
		c-21.816-8.441-38.908-22.773-44.615-47.152c18.47-0.004,36.943-0.197,55.406,0.09c6.734,0.107,12.93-0.877,18.642-4.467
		c24.51,13.445,48.646,12.641,72.418-1.91c2.847,5.391,7.973,3.83,12.499,4.088C317.646,332.076,337.216,328.48,356.44,333.34z"/>
	<path fill="#A372B1" d="M147.358,163.191c3.437-13.978,13.39-23.146,24.22-31.142c40.428-29.853,113.062-29.935,153.699-0.19
		c11.565,8.467,21.431,18.666,24.489,33.576c-2.453,4.506-6.79,3.342-10.594,3.37c-13.7,0.101-27.409-0.253-41.097,0.161
		c-7.014,0.215-14.354-2.129-21.052,1.872c-20.901-9.507-41.423-9.771-61.417,2.556c-0.998-6-5.753-4.471-9.459-4.497
		c-16.355-0.118-32.713-0.029-49.068-0.069C152.81,168.819,147.885,169.741,147.358,163.191z"/>
	<path fill="#946FB1" d="M147.358,163.191c0.526,6.55,5.451,5.628,9.722,5.638c16.355,0.04,32.713-0.049,49.069,0.069
		c3.706,0.027,8.462-1.502,9.459,4.497c-13.692,17.122-13.683,27.354-0.075,44.709c7.211,9.195,15.383,17.351,25.115,24.508
		c-32.22,1.495-63.688-0.607-89.094-23.587C135.869,204.836,135.026,182.625,147.358,163.191z"/>
	<path fill="#7B69AF" d="M356.44,333.34c-19.225-4.859-38.795-1.266-58.175-2.369c-4.526-0.258-9.651,1.303-12.499-4.088
		c10.702-14.836,10.412-25.689-1.486-40.395c-8.051-9.955-18.093-17.854-30.794-27.764c36.631,0.164,69.728,2.027,95.748,27.178
		C362.983,299.188,363.833,316.027,356.44,333.34z"/>
	<path fill="#946FB1" d="M277.025,170.838c6.697-4,14.038-1.657,21.053-1.872c13.687-0.414,27.396-0.06,41.096-0.161
		c3.804-0.028,8.142,1.135,10.594-3.37c6.681,14.432,3.938,27.916-7.257,35.703c-12.23,8.508-32.483,6.792-43.234-3.884
		C291.084,189.122,287.029,177.471,277.025,170.838z"/>
	<path fill="#7B69AF" d="M213.35,328.793c-5.712,3.588-11.906,4.572-18.641,4.467c-18.465-0.287-36.938-0.094-55.406-0.09
		c-2.254-19.453,2.281-29.514,15.886-35.234c14.683-6.172,29.301-1.926,40.756,11.545
		C201.557,316.08,207.535,322.367,213.35,328.793z"/>
</g>
</svg>
