<?xml version="1.0" encoding="utf-8"?>
<!-- Generator: Adobe Illustrator 16.0.0, SVG Export Plug-In . SVG Version: 6.00 Build 0)  -->
<!DOCTYPE svg PUBLIC "-//W3C//DTD SVG 1.1//EN" "http://www.w3.org/Graphics/SVG/1.1/DTD/svg11.dtd">
<svg version="1.1" id="Layer_1" xmlns="http://www.w3.org/2000/svg" xmlns:xlink="http://www.w3.org/1999/xlink" x="0px" y="0px"
	 width="500px" height="500px" viewBox="0 0 500 500" enable-background="new 0 0 500 500" xml:space="preserve">
<g>
	<g>
		<path fill-rule="evenodd" clip-rule="evenodd" fill="#F3F3F3" d="M9.421,286.336c0-24.91,0-49.825,0-74.737
			c4.616-0.444,3.853-4.073,4.444-7.138c7.988-41.451,25.159-78.824,52.783-110.63c37.1-42.714,83.413-70.483,139.56-80.707
			c2.944-0.536,5.737-0.557,6.071-4.384c24.913,0,49.826,0,74.738,0c0.443,4.616,4.068,3.865,7.137,4.442
			c41.559,7.813,78.748,25.432,110.666,52.839c42.977,36.903,70.441,83.387,80.672,139.506c0.535,2.944,0.555,5.737,4.383,6.071
			c0,24.913,0,49.827,0,74.737c-4.613,0.441-3.865,4.066-4.441,7.137c-7.813,41.549-25.311,78.842-52.85,110.625
			c-37.01,42.711-83.301,70.6-139.496,80.713c-2.947,0.529-5.738,0.559-6.07,4.385c-24.912,0-49.826,0-74.738,0
			c-0.444-4.617-4.073-3.855-7.138-4.445c-41.451-7.988-78.824-25.158-110.629-52.783c-42.715-37.1-70.484-83.414-80.708-139.559
			C13.27,289.463,13.249,286.67,9.421,286.336z M216.601,173.333c19.487-12.015,39.487-11.757,59.858-2.491
			c9.75,6.463,13.701,17.819,21.686,25.745c10.477,10.404,30.215,12.077,42.135,3.785c10.912-7.59,13.584-20.73,7.078-34.799
			c-2.986-14.528-12.6-24.468-23.873-32.72c-39.605-28.99-110.395-28.911-149.797,0.185c-10.554,7.792-20.253,16.728-23.604,30.351
			c-12.018,18.94-11.197,40.587,4.09,54.416c24.761,22.397,55.43,24.446,86.832,22.989c-9.486-6.975-17.451-14.924-24.478-23.886
			C203.266,199.992,203.256,190.019,216.601,173.333z M284.979,322.924c-23.17,14.182-46.691,14.967-70.579,1.861
			c-5.667-6.264-11.494-12.391-16.963-18.822c-11.164-13.129-25.411-17.268-39.721-11.252c-13.259,5.576-17.68,15.381-15.483,34.342
			c5.561,23.76,22.219,37.727,43.482,45.955c40.198,15.561,81.184,16.145,121.551,0.709c21.949-8.396,39.02-23.029,46.592-46.5
			c7.205-16.873,6.377-33.285-7.021-46.232c-25.361-24.512-57.617-26.328-93.318-26.488c12.379,9.658,22.166,17.357,30.012,27.059
			C295.127,297.887,295.408,308.465,284.979,322.924z"/>
		<path fill-rule="evenodd" clip-rule="evenodd" fill="#FFFFFF" d="M287.018,489.195c0.332-3.826,3.123-3.855,6.07-4.385
			c56.195-10.113,102.486-38.002,139.496-80.713c27.539-31.783,45.037-69.076,52.85-110.625c0.576-3.07-0.172-6.695,4.441-7.137
			c0,65.129-0.113,130.258,0.182,195.385c0.029,6.373-1.283,7.684-7.656,7.656C417.273,489.08,352.145,489.195,287.018,489.195z"/>
		<path fill-rule="evenodd" clip-rule="evenodd" fill="#FFFFFF" d="M212.279,8.74c-0.334,3.828-3.127,3.849-6.071,4.384
			c-56.147,10.223-102.46,37.992-139.56,80.707c-27.624,31.806-44.795,69.179-52.783,110.63c-0.591,3.065,0.172,6.694-4.444,7.138
			c0-65.312,0.099-130.625-0.168-195.936c-0.025-5.909,1.182-7.115,7.09-7.09C81.655,8.839,146.968,8.74,212.279,8.74z"/>
		<path fill-rule="evenodd" clip-rule="evenodd" fill="#FFFFFF" d="M9.421,286.336c3.828,0.334,3.849,3.127,4.384,6.072
			c10.223,56.145,37.992,102.459,80.708,139.559c31.805,27.625,69.178,44.795,110.629,52.783c3.065,0.59,6.694-0.172,7.138,4.445
			c-65.312,0-130.625-0.102-195.936,0.166c-5.909,0.025-7.115-1.18-7.09-7.092C9.52,416.959,9.421,351.648,9.421,286.336z"/>
		<path fill-rule="evenodd" clip-rule="evenodd" fill="#FFFFFF" d="M489.875,211.599c-3.828-0.334-3.848-3.127-4.383-6.071
			c-10.23-56.119-37.695-102.603-80.672-139.506c-31.918-27.407-69.107-45.026-110.666-52.839c-3.068-0.577-6.693,0.174-7.137-4.442
			c65.127,0,130.256,0.115,195.383-0.181c6.373-0.029,7.686,1.283,7.656,7.656C489.762,81.342,489.875,146.471,489.875,211.599z"/>
		<path fill-rule="evenodd" clip-rule="evenodd" fill="#7269AF" d="M353.857,329.217c-7.572,23.471-24.643,38.104-46.592,46.5
			c-40.367,15.436-81.353,14.852-121.551-0.709c-21.263-8.229-37.921-22.195-43.482-45.955c18-0.004,36.004-0.193,53.999,0.086
			c6.563,0.104,12.601-0.855,18.168-4.354c23.888,13.105,47.409,12.32,70.579-1.861c2.775,5.254,7.77,3.732,12.182,3.984
			C316.049,327.984,335.121,324.48,353.857,329.217z"/>
		<path fill-rule="evenodd" clip-rule="evenodd" fill="#A372B1" d="M150.084,163.388c3.35-13.623,13.05-22.558,23.604-30.351
			c39.402-29.095,110.191-29.175,149.797-0.185c11.273,8.252,20.887,18.192,23.869,32.723c-2.391,4.392-6.619,3.257-10.326,3.285
			c-13.352,0.098-26.713-0.247-40.051,0.156c-6.836,0.21-13.99-2.075-20.518,1.825c-20.371-9.266-40.371-9.523-59.858,2.491
			c-0.973-5.847-5.607-4.357-9.219-4.383c-15.941-0.115-31.883-0.028-47.823-0.067C155.397,168.873,150.598,169.771,150.084,163.388
			z"/>
		<path fill-rule="evenodd" clip-rule="evenodd" fill="#946FB1" d="M150.084,163.388c0.514,6.384,5.313,5.485,9.475,5.495
			c15.94,0.039,31.882-0.048,47.823,0.067c3.612,0.026,8.247-1.464,9.219,4.383c-13.345,16.687-13.335,26.659-0.073,43.574
			c7.027,8.962,14.992,16.911,24.478,23.886c-31.402,1.457-62.071-0.592-86.832-22.989
			C138.887,203.975,138.066,182.328,150.084,163.388z"/>
		<path fill-rule="evenodd" clip-rule="evenodd" fill="#7B69AF" d="M353.857,329.217c-18.736-4.736-37.809-1.232-56.697-2.309
			c-4.412-0.252-9.406,1.27-12.182-3.984c10.43-14.459,10.148-25.037-1.449-39.369c-7.846-9.701-17.633-17.4-30.012-27.059
			c35.701,0.16,67.957,1.977,93.318,26.488C360.234,295.932,361.063,312.344,353.857,329.217z"/>
		<path fill-rule="evenodd" clip-rule="evenodd" fill="#946FB1" d="M276.459,170.841c6.527-3.899,13.682-1.615,20.518-1.825
			c13.338-0.403,26.699-0.058,40.051-0.156c3.707-0.028,7.936,1.106,10.326-3.285c6.51,14.066,3.838,27.207-7.074,34.796
			c-11.92,8.292-31.658,6.619-42.135-3.785C290.16,188.66,286.209,177.305,276.459,170.841z"/>
		<path fill-rule="evenodd" clip-rule="evenodd" fill="#7B69AF" d="M214.4,324.785c-5.567,3.498-11.604,4.457-18.168,4.354
			c-17.995-0.279-35.999-0.09-53.999-0.086c-2.197-18.961,2.224-28.766,15.483-34.342c14.31-6.016,28.557-1.877,39.721,11.252
			C202.906,312.395,208.733,318.521,214.4,324.785z"/>
	</g>
</g>
</svg>
