<?xml version="1.0" encoding="utf-8"?>
<!-- Generator: Adobe Illustrator 16.0.0, SVG Export Plug-In . SVG Version: 6.00 Build 0)  -->
<!DOCTYPE svg PUBLIC "-//W3C//DTD SVG 1.1//EN" "http://www.w3.org/Graphics/SVG/1.1/DTD/svg11.dtd">
<svg version="1.1" id="Layer_1" xmlns="http://www.w3.org/2000/svg" xmlns:xlink="http://www.w3.org/1999/xlink" x="0px" y="0px"
	 width="500px" height="500px" viewBox="0 0 500 500" enable-background="new 0 0 500 500" xml:space="preserve">
<g>
	<g>
		<path fill="#F3F3F3" d="M9.425,293.572c0-25.56,0-51.123,0-76.684c4.736-0.456,3.954-4.18,4.56-7.324
			c8.196-42.531,25.814-80.877,54.158-113.512c38.067-43.827,85.586-72.319,143.196-82.809c3.021-0.55,5.886-0.572,6.229-4.498
			c25.562,0,51.125,0,76.686,0c0.453,4.736,4.173,3.965,7.322,4.558c42.642,8.016,80.8,26.094,113.549,54.215
			c44.097,37.864,72.275,85.56,82.773,143.14c0.549,3.021,0.569,5.887,4.497,6.229c0,25.562,0,51.124,0,76.684
			c-4.733,0.452-3.966,4.171-4.557,7.323c-8.017,42.632-25.971,80.896-54.227,113.506c-37.974,43.824-85.471,72.44-143.13,82.815
			c-3.024,0.544-5.888,0.574-6.229,4.5c-25.562,0-51.124,0-76.685,0c-0.456-4.737-4.179-3.955-7.324-4.561
			c-42.531-8.196-80.877-25.813-113.511-54.158c-43.828-38.066-72.321-85.587-82.811-143.194
			C13.375,296.78,13.353,293.915,9.425,293.572z M222.002,177.625c19.995-12.328,40.516-12.063,61.417-2.556
			c10.004,6.632,14.059,18.284,22.25,26.416c10.751,10.675,31.004,12.392,43.234,3.884c11.196-7.788,13.938-21.27,7.262-35.706
			c-3.063-14.907-12.929-25.105-24.494-33.573c-40.638-29.745-113.272-29.664-153.7,0.19c-10.829,7.995-20.781,17.164-24.219,31.142
			c-12.332,19.434-11.489,41.645,4.196,55.834c25.406,22.98,56.874,25.083,89.094,23.587c-9.733-7.157-17.905-15.313-25.115-24.508
			C208.32,204.979,208.31,194.746,222.002,177.625z M292.161,331.113c-23.773,14.551-47.906,15.356-72.417,1.91
			c-5.814-6.427-11.793-12.714-17.405-19.313c-11.455-13.472-26.073-17.718-40.756-11.546c-13.604,5.722-18.14,15.782-15.886,35.236
			c5.706,24.379,22.798,38.71,44.615,47.152c41.245,15.966,83.298,16.565,124.717,0.728c22.521-8.615,40.037-23.629,47.807-47.711
			c7.392-17.313,6.543-34.152-7.205-47.437c-26.021-25.15-59.117-27.014-95.748-27.178c12.701,9.909,22.743,17.809,30.794,27.765
			C302.574,305.424,302.863,316.277,292.161,331.113z"/>
		<path fill="#FFFFFF" d="M294.254,501.716c0.341-3.926,3.204-3.955,6.229-4.5c57.659-10.375,105.156-38.991,143.13-82.815
			c28.256-32.609,46.21-70.874,54.227-113.506c0.591-3.15-0.177-6.869,4.557-7.323c0,66.825-0.116,133.651,0.187,200.475
			c0.03,6.539-1.315,7.885-7.854,7.855C427.902,501.598,361.077,501.716,294.254,501.716z"/>
		<path fill="#FFFFFF" d="M217.568,8.745c-0.343,3.927-3.208,3.949-6.229,4.498C153.729,23.732,106.21,52.225,68.143,96.052
			c-28.344,32.635-45.962,70.981-54.158,113.512c-0.606,3.145,0.176,6.868-4.56,7.324c0-67.014,0.102-134.028-0.172-201.041
			c-0.025-6.063,1.213-7.301,7.274-7.274C83.541,8.846,150.555,8.745,217.568,8.745z"/>
		<path fill="#FFFFFF" d="M9.425,293.572c3.928,0.343,3.949,3.208,4.499,6.23c10.489,57.607,38.981,105.128,82.811,143.194
			c32.633,28.345,70.98,45.962,113.511,54.158c3.145,0.605,6.868-0.177,7.324,4.561c-67.014,0-134.028-0.104-201.041,0.171
			c-6.063,0.025-7.3-1.212-7.274-7.277C9.527,427.598,9.425,360.586,9.425,293.572z"/>
		<path fill="#FFFFFF" d="M502.396,216.889c-3.928-0.343-3.948-3.208-4.497-6.229c-10.497-57.581-38.677-105.276-82.773-143.14
			c-32.749-28.121-70.907-46.199-113.549-54.215c-3.148-0.592-6.867,0.178-7.322-4.558c66.822,0,133.648,0.118,200.473-0.186
			c6.539-0.03,7.886,1.316,7.854,7.855C502.279,83.238,502.396,150.064,502.396,216.889z"/>
		<path fill="#7269AF" d="M362.835,337.57c-7.77,24.082-25.286,39.096-47.807,47.711c-41.418,15.838-83.472,15.238-124.717-0.728
			c-21.817-8.442-38.909-22.773-44.615-47.152c18.469-0.004,36.942-0.198,55.406,0.089c6.734,0.107,12.929-0.877,18.641-4.467
			c24.51,13.446,48.645,12.641,72.418-1.91c2.847,5.391,7.973,3.83,12.499,4.088C324.041,336.306,343.61,332.711,362.835,337.57z"/>
		<path fill="#A372B1" d="M153.753,167.421c3.437-13.978,13.39-23.146,24.219-31.142c40.428-29.853,113.062-29.935,153.7-0.19
			c11.565,8.467,21.431,18.666,24.489,33.576c-2.453,4.506-6.79,3.342-10.594,3.37c-13.7,0.101-27.409-0.253-41.096,0.161
			c-7.014,0.215-14.354-2.129-21.052,1.872c-20.901-9.507-41.423-9.771-61.417,2.556c-0.998-6-5.753-4.471-9.459-4.497
			c-16.356-0.118-32.713-0.029-49.069-0.069C159.204,173.049,154.28,173.971,153.753,167.421z"/>
		<path fill="#946FB1" d="M153.753,167.421c0.527,6.55,5.451,5.628,9.722,5.638c16.355,0.04,32.712-0.049,49.069,0.069
			c3.706,0.027,8.462-1.502,9.459,4.497c-13.693,17.122-13.682,27.354-0.075,44.709c7.21,9.195,15.382,17.351,25.115,24.508
			c-32.22,1.495-63.688-0.607-89.094-23.587C142.264,209.066,141.421,186.855,153.753,167.421z"/>
		<path fill="#7B69AF" d="M362.835,337.57c-19.225-4.859-38.795-1.265-58.175-2.369c-4.526-0.258-9.651,1.303-12.499-4.088
			c10.702-14.836,10.412-25.689-1.486-40.395c-8.051-9.954-18.093-17.853-30.794-27.764c36.63,0.164,69.727,2.028,95.748,27.179
			C369.378,303.418,370.228,320.258,362.835,337.57z"/>
		<path fill="#946FB1" d="M283.42,175.068c6.697-4,14.038-1.657,21.052-1.872c13.687-0.414,27.396-0.06,41.096-0.161
			c3.804-0.028,8.142,1.135,10.594-3.37c6.681,14.432,3.939,27.916-7.257,35.703c-12.23,8.508-32.483,6.792-43.234-3.884
			C297.479,193.352,293.424,181.701,283.42,175.068z"/>
		<path fill="#7B69AF" d="M219.744,333.023c-5.712,3.589-11.906,4.573-18.641,4.467c-18.464-0.287-36.937-0.093-55.406-0.089
			c-2.254-19.454,2.282-29.515,15.886-35.236c14.683-6.172,29.301-1.926,40.756,11.546
			C207.951,320.31,213.93,326.597,219.744,333.023z"/>
	</g>
</g>
</svg>
