<?xml version="1.0" encoding="utf-8"?>
<!-- Generator: Adobe Illustrator 16.0.0, SVG Export Plug-In . SVG Version: 6.00 Build 0)  -->
<!DOCTYPE svg PUBLIC "-//W3C//DTD SVG 1.1//EN" "http://www.w3.org/Graphics/SVG/1.1/DTD/svg11.dtd">
<svg version="1.1" id="Layer_1" xmlns="http://www.w3.org/2000/svg" xmlns:xlink="http://www.w3.org/1999/xlink" x="0px" y="0px"
	 width="500px" height="500px" viewBox="0 0 500 500" enable-background="new 0 0 500 500" xml:space="preserve">
<g>
	<path fill-rule="evenodd" clip-rule="evenodd" fill="#58BD83" d="M216.894,4.132c21.67,0,43.34,0,65.009,0
		c2.64,3.885,7.05,2.917,10.672,3.53c101.777,17.224,183.304,98.752,200.527,200.528c0.615,3.624-0.354,8.031,3.531,10.671
		c0,21.67,0,43.34,0,65.011c-4.039,2.048-3.108,6.19-3.67,9.478c-17.341,101.294-98.912,182.574-200.418,199.756
		c-3.612,0.611-8.011-0.354-10.643,3.525c-21.669,0-43.338,0-65.009,0c-2.052-4.042-6.195-3.107-9.485-3.672
		C106.448,475.673,25.092,394.316,7.806,293.356c-0.563-3.29,0.371-7.435-3.672-9.484c0-22.326,0-44.654,0-66.981
		c3.818-1.725,2.998-5.535,3.527-8.513C26.021,105.081,105.083,26.021,208.381,7.66C211.357,7.129,215.168,7.951,216.894,4.132z
		 M124.268,266.89c-0.045,71.487,63.79,127.007,133.43,115.178c42.604-7.236,72.744-31.393,89.784-71.307
		c4.091-9.587,3.063-10.903-6.971-11.126c-6.555-0.146-13.13,0.184-19.678-0.085c-6.26-0.254-10.266,2.159-13.452,7.73
		c-26.566,46.424-92.256,48.92-123.97,13.766c-31.677-35.11-27.24-92.326,12.849-117.472c10.25-6.433,14.23-13.449,12.802-24.716
		c-0.368-2.907-0.028-5.898-0.065-8.849c-0.15-12.278-2.516-13.783-14.077-8.99C152.913,178.429,124.298,221.308,124.268,266.89z
		 M234.605,231.903c0.002,19.1,1.199,20.762,19.452,25.791c6.008,1.655,12.08,3.125,18.187,4.368
		c4.399,0.896,7.782,3.005,7.393,7.659c-0.969,11.548,5.774,12.999,14.776,12.259c3.261-0.268,6.572-0.222,9.84-0.016
		c8.62,0.541,13.402-2.474,11.683-11.97c-0.856-4.732,1.439-7.437,5.774-8.854c3.431-1.122,6.972-2.051,10.208-3.6
		c16.356-7.829,26.558-20.051,26.814-38.963c0.247-17.89-8.234-29.948-26.133-37.721c-8.503-3.694-17.517-5.455-26.492-7.412
		c-9.286-2.025-18.618-3.895-27.837-6.21c-3.427-0.86-7.341-2.372-7.094-6.943c0.214-4.044,3.367-6.303,6.845-7.628
		c4.616-1.762,9.456-2.585,14.44-2.714c15.073-0.389,29.217,3.414,43.001,9.092c3.191,1.314,7.92,3.866,8.746-1.637
		c1.455-9.669,2.823-20.008-0.771-29.151c-2.657-6.755-11.343-5.578-17.563-6.604c-8.288-1.367-13.227-4.323-12.663-13.792
		c0.419-7.022-5.344-7.984-10.324-7.044c-8.27,1.559-18.602-5.483-24.63,5.578c-0.431,0.791-0.372,1.957-0.261,2.915
		c0.954,8.201-3.178,11.945-10.853,13.391c-3.458,0.652-6.669,2.657-9.975,4.093c-15.843,6.887-24.132,19.153-23.77,36.248
		c0.392,18.449,10.584,30.768,28.622,37.091c13.727,4.813,28.202,6.064,42.237,9.351c6.507,1.521,16.853,0.562,16.216,10.538
		c-0.654,10.305-10.933,9.666-18.464,10.489c-17.904,1.959-34.317-4.151-50.576-10.462
		C234.563,213.495,234.605,213.391,234.605,231.903z"/>
	<path fill-rule="evenodd" clip-rule="evenodd" fill="#FDFEFF" d="M496.633,218.861c-3.885-2.641-2.916-7.048-3.531-10.671
		C475.878,106.414,394.352,24.886,292.574,7.662c-3.622-0.613-8.032,0.354-10.672-3.53c69.278,0,138.559,0.093,207.836-0.166
		c5.878-0.023,7.082,1.184,7.061,7.061C496.542,80.303,496.633,149.583,496.633,218.861z"/>
	<path fill-rule="evenodd" clip-rule="evenodd" fill="#FDFEFF" d="M281.902,496.631c2.632-3.88,7.03-2.914,10.643-3.525
		c101.506-17.182,183.077-98.462,200.418-199.756c0.562-3.287-0.369-7.43,3.67-9.478c0,68.62-0.091,137.243,0.166,205.865
		c0.021,5.877-1.183,7.084-7.061,7.061C420.461,496.538,351.181,496.631,281.902,496.631z"/>
	<path fill-rule="evenodd" clip-rule="evenodd" fill="#FDFEFF" d="M216.894,4.132c-1.725,3.819-5.536,2.998-8.513,3.528
		C105.083,26.021,26.021,105.081,7.661,208.378c-0.529,2.978,0.292,6.788-3.527,8.513c0-68.62,0.093-137.243-0.167-205.864
		C3.945,5.15,5.151,3.943,11.029,3.966C79.649,4.225,148.271,4.132,216.894,4.132z"/>
	<path fill-rule="evenodd" clip-rule="evenodd" fill="#FDFEFF" d="M4.134,283.872c4.043,2.05,3.108,6.194,3.672,9.484
		c17.286,100.96,98.642,182.316,199.603,199.603c3.29,0.564,7.433-0.37,9.485,3.672c-68.464,0-136.927-0.094-205.389,0.16
		c-6.144,0.023-7.554-1.387-7.53-7.53C4.227,420.798,4.134,352.335,4.134,283.872z"/>
	<path fill-rule="evenodd" clip-rule="evenodd" fill="#50BB7A" d="M124.268,266.89c0.03-45.582,28.646-88.461,70.652-105.872
		c11.562-4.792,13.927-3.288,14.077,8.99c0.037,2.951-0.303,5.942,0.065,8.849c1.428,11.268-2.551,18.284-12.802,24.716
		c-40.089,25.146-44.526,82.362-12.849,117.472c31.714,35.154,97.404,32.658,123.97-13.766c3.187-5.571,7.192-7.984,13.452-7.73
		c6.548,0.269,13.123-0.061,19.678,0.085c10.033,0.223,11.062,1.539,6.971,11.126c-17.04,39.914-47.181,64.07-89.784,71.307
		C188.058,393.896,124.223,338.377,124.268,266.89z M129.33,260.059c-0.425,78.071,66.138,131.709,135.008,115.638
		c35.421-8.268,60.894-29.512,76.445-62.429c1.16-2.458,4.956-7.043-0.042-7.941c-7.629-1.373-15.688-0.738-23.536-0.387
		c-5.26,0.235-5.736,5.762-8.103,9.037c-20.298,28.097-47.714,41.135-81.906,35.561c-35.798-5.835-59.364-27.571-67.807-62.863
		c-8.144-34.029,2.033-63.716,30.341-84.455c10.88-7.973,14.551-15.497,13.514-27.944c-0.963-11.57-0.342-11.85-10.351-6.778
		C152.011,188.209,131.246,221.823,129.33,260.059z"/>
	<path fill-rule="evenodd" clip-rule="evenodd" fill="#50BB7A" d="M234.605,231.903c0-18.512-0.042-18.409,16.831-11.857
		c16.259,6.312,32.672,12.421,50.576,10.462c7.531-0.823,17.81-0.185,18.464-10.489c0.637-9.976-9.709-9.017-16.216-10.538
		c-14.035-3.286-28.511-4.538-42.237-9.351c-18.038-6.323-28.23-18.643-28.622-37.091c-0.362-17.095,7.926-29.361,23.77-36.248
		c3.306-1.436,6.517-3.44,9.975-4.093c7.675-1.446,11.807-5.19,10.853-13.391c-0.111-0.958-0.17-2.124,0.261-2.915
		c6.028-11.062,16.36-4.019,24.63-5.578c4.98-0.939,10.743,0.022,10.324,7.044c-0.563,9.469,4.375,12.424,12.663,13.792
		c6.22,1.026,14.905-0.152,17.563,6.604c3.594,9.144,2.226,19.482,0.771,29.151c-0.826,5.503-5.555,2.952-8.746,1.637
		c-13.784-5.678-27.928-9.48-43.001-9.092c-4.984,0.128-9.824,0.952-14.44,2.714c-3.478,1.325-6.631,3.584-6.845,7.628
		c-0.247,4.571,3.667,6.083,7.094,6.943c9.219,2.315,18.551,4.185,27.837,6.21c8.976,1.958,17.989,3.718,26.492,7.412
		c17.898,7.773,26.38,19.831,26.133,37.721c-0.257,18.912-10.458,31.134-26.814,38.963c-3.236,1.549-6.777,2.478-10.208,3.6
		c-4.335,1.417-6.631,4.121-5.774,8.854c1.72,9.496-3.063,12.511-11.683,11.97c-3.268-0.206-6.579-0.252-9.84,0.016
		c-9.002,0.74-15.745-0.711-14.776-12.259c0.39-4.654-2.993-6.764-7.393-7.659c-6.106-1.243-12.179-2.713-18.187-4.368
		C235.805,252.665,234.608,251.003,234.605,231.903z M298.46,277.092c3.731-2.13,14.51,4.55,11.968-7.041
		c-2.343-10.678,2.164-12.257,10.652-14.257c20.272-4.777,32.048-18.765,32.548-36.792c0.511-18.35-8.91-29.845-31.069-36.091
		c-12.592-3.55-25.694-5.249-38.375-8.535c-8.236-2.133-18.626-2.97-18.584-15.177c0.027-7.492,8.12-12.392,21.247-13.7
		c16.026-1.597,31.4,1.427,46.262,7.131c5.142,1.972,6.816,1.21,7.135-4.569c1.044-19.007,1.009-19.285-17.906-22.132
		c-2.268-0.34-4.555-1.077-6.805-0.979c-6.854,0.298-9.658-2.354-7.773-9.319c2.137-7.891-1.177-10.954-9.048-9.948
		c-2.262,0.289-4.618,0.273-6.882,0c-7.542-0.91-10.593,2.01-8.272,9.496c2.246,7.254-0.854,9.956-7.872,10.687
		c-7.229,0.754-13.994,3.476-20.226,7.277c-11.247,6.863-17.372,16.618-16.813,30.127c0.554,13.41,7.037,22.89,18.884,28.884
		c7.086,3.583,14.697,5.492,22.408,7.186c12.158,2.667,24.752,3.375,36.486,7.885c5.783,2.223,10.714,5.63,10.639,12.646
		c-0.073,6.854-4.765,10.51-10.498,12.906c-8.387,3.5-17.195,3.922-26.119,3.021c-12.497-1.265-24.456-4.666-36.102-9.253
		c-14.252-5.611-13.721-5.597-14.424,9.595c-0.405,8.718,2.413,13.081,10.878,15.35c9.849,2.64,19.644,5.416,29.798,6.177
		c5.324,0.4,6.348,2.271,5.743,7.368C284.923,277.044,285.228,277.08,298.46,277.092z"/>
	<path fill-rule="evenodd" clip-rule="evenodd" fill="#FDFEFF" d="M129.33,260.059c1.916-38.235,22.681-71.85,63.564-92.562
		c10.009-5.071,9.388-4.792,10.351,6.778c1.037,12.447-2.634,19.971-13.514,27.944c-28.309,20.738-38.485,50.425-30.341,84.455
		c8.443,35.292,32.009,57.028,67.807,62.863c34.192,5.574,61.608-7.464,81.906-35.561c2.366-3.275,2.843-8.802,8.103-9.037
		c7.849-0.352,15.907-0.986,23.536,0.387c4.998,0.898,1.202,5.483,0.042,7.941c-15.552,32.917-41.024,54.161-76.445,62.429
		C195.468,391.768,128.905,338.13,129.33,260.059z"/>
	<path fill-rule="evenodd" clip-rule="evenodd" fill="#FDFEFF" d="M298.46,277.092c-13.232-0.012-13.537-0.048-12.121-12.056
		c0.604-5.098-0.419-6.968-5.743-7.368c-10.154-0.761-19.949-3.537-29.798-6.177c-8.466-2.27-11.284-6.632-10.878-15.35
		c0.704-15.192,0.172-15.206,14.424-9.595c11.646,4.587,23.604,7.988,36.102,9.253c8.924,0.902,17.732,0.479,26.119-3.021
		c5.733-2.396,10.425-6.053,10.498-12.906c0.075-7.016-4.855-10.423-10.639-12.646c-11.734-4.511-24.328-5.219-36.486-7.885
		c-7.711-1.693-15.322-3.602-22.408-7.186c-11.847-5.995-18.33-15.475-18.884-28.884c-0.558-13.509,5.566-23.264,16.813-30.127
		c6.231-3.801,12.997-6.523,20.226-7.277c7.019-0.731,10.118-3.433,7.872-10.687c-2.32-7.486,0.73-10.406,8.272-9.496
		c2.264,0.273,4.62,0.289,6.882,0c7.871-1.006,11.185,2.057,9.048,9.948c-1.885,6.964,0.919,9.617,7.773,9.319
		c2.25-0.098,4.537,0.639,6.805,0.979c18.915,2.847,18.95,3.125,17.906,22.132c-0.318,5.779-1.993,6.541-7.135,4.569
		c-14.861-5.704-30.235-8.729-46.262-7.131c-13.127,1.308-21.22,6.208-21.247,13.7c-0.042,12.207,10.348,13.044,18.584,15.177
		c12.681,3.286,25.783,4.984,38.375,8.535c22.159,6.246,31.58,17.741,31.069,36.091c-0.5,18.026-12.275,32.014-32.548,36.792
		c-8.488,2-12.995,3.579-10.652,14.257C312.97,281.642,302.191,274.962,298.46,277.092z"/>
</g>
</svg>
