<?xml version="1.0" encoding="utf-8"?>
<!-- Generator: Adobe Illustrator 16.0.0, SVG Export Plug-In . SVG Version: 6.00 Build 0)  -->
<!DOCTYPE svg PUBLIC "-//W3C//DTD SVG 1.1//EN" "http://www.w3.org/Graphics/SVG/1.1/DTD/svg11.dtd">
<svg version="1.1" id="Layer_1" xmlns="http://www.w3.org/2000/svg" xmlns:xlink="http://www.w3.org/1999/xlink" x="0px" y="0px"
	 width="500px" height="500px" viewBox="0 0 500 500" enable-background="new 0 0 500 500" xml:space="preserve">
<g>
	<path fill="#58BD83" d="M216.894,4.132c21.67,0,43.34,0,65.008,0c2.641,3.885,7.051,2.917,10.673,3.53
		c101.776,17.224,183.304,98.752,200.526,200.528c0.615,3.624-0.354,8.031,3.531,10.671c0,21.67,0,43.34,0,65.011
		c-4.039,2.048-3.107,6.19-3.67,9.478c-17.341,101.295-98.912,182.574-200.418,199.757c-3.611,0.61-8.011-0.354-10.643,3.524
		c-21.67,0-43.338,0-65.009,0c-2.052-4.042-6.195-3.106-9.485-3.672C106.448,475.673,25.092,394.316,7.806,293.355
		c-0.563-3.289,0.371-7.435-3.672-9.483c0-22.326,0-44.654,0-66.981c3.818-1.725,2.998-5.535,3.527-8.513
		C26.021,105.081,105.083,26.021,208.381,7.66C211.357,7.129,215.168,7.951,216.894,4.132z M124.268,266.891
		c-0.045,71.486,63.79,127.006,133.43,115.178c42.604-7.236,72.744-31.394,89.784-71.307c4.091-9.588,3.063-10.904-6.972-11.127
		c-6.555-0.146-13.13,0.184-19.678-0.085c-6.26-0.254-10.266,2.159-13.452,7.73c-26.566,46.424-92.256,48.92-123.97,13.766
		c-31.677-35.11-27.24-92.326,12.849-117.472c10.25-6.433,14.23-13.449,12.802-24.716c-0.368-2.907-0.028-5.898-0.065-8.849
		c-0.15-12.278-2.516-13.783-14.077-8.99C152.913,178.429,124.298,221.308,124.268,266.891z M234.605,231.903
		c0.002,19.1,1.199,20.762,19.452,25.791c6.008,1.656,12.08,3.125,18.188,4.369c4.398,0.896,7.781,3.004,7.393,7.658
		c-0.969,11.549,5.774,13,14.776,12.26c3.261-0.269,6.571-0.223,9.84-0.017c8.62,0.541,13.402-2.474,11.683-11.97
		c-0.855-4.732,1.439-7.438,5.774-8.854c3.431-1.123,6.972-2.052,10.208-3.601c16.356-7.829,26.558-20.051,26.814-38.963
		c0.246-17.89-8.234-29.948-26.134-37.721c-8.503-3.694-17.517-5.455-26.491-7.412c-9.287-2.025-18.619-3.895-27.838-6.21
		c-3.427-0.86-7.34-2.372-7.094-6.943c0.215-4.044,3.367-6.303,6.846-7.628c4.615-1.762,9.455-2.585,14.439-2.714
		c15.073-0.389,29.217,3.414,43.001,9.092c3.191,1.314,7.92,3.866,8.746-1.637c1.455-9.669,2.823-20.008-0.771-29.151
		c-2.657-6.755-11.344-5.578-17.563-6.604c-8.288-1.367-13.227-4.323-12.663-13.792c0.419-7.022-5.344-7.984-10.324-7.044
		c-8.27,1.559-18.602-5.483-24.63,5.578c-0.431,0.791-0.372,1.957-0.261,2.915c0.954,8.201-3.178,11.945-10.854,13.391
		c-3.457,0.652-6.668,2.657-9.975,4.093c-15.843,6.887-24.132,19.153-23.77,36.248c0.392,18.449,10.584,30.768,28.622,37.091
		c13.728,4.813,28.203,6.064,42.237,9.351c6.507,1.521,16.854,0.562,16.216,10.538c-0.653,10.305-10.933,9.666-18.464,10.489
		c-17.903,1.959-34.317-4.151-50.575-10.462C234.563,213.495,234.605,213.391,234.605,231.903z"/>
	<path fill="#FDFEFF" d="M496.633,218.861c-3.885-2.641-2.916-7.048-3.531-10.671C475.878,106.414,394.352,24.886,292.574,7.662
		c-3.622-0.613-8.032,0.354-10.672-3.53c69.277,0,138.559,0.093,207.836-0.166c5.878-0.023,7.082,1.184,7.061,7.061
		C496.542,80.303,496.633,149.583,496.633,218.861z"/>
	<path fill="#FDFEFF" d="M281.902,496.631c2.632-3.88,7.029-2.914,10.643-3.524c101.506-17.183,183.077-98.462,200.418-199.757
		c0.563-3.287-0.369-7.43,3.67-9.478c0,68.62-0.091,137.243,0.166,205.865c0.021,5.877-1.183,7.084-7.061,7.061
		C420.461,496.538,351.181,496.631,281.902,496.631z"/>
	<path fill="#FDFEFF" d="M216.894,4.132c-1.725,3.819-5.536,2.998-8.513,3.528C105.083,26.021,26.021,105.081,7.661,208.378
		c-0.529,2.978,0.292,6.788-3.527,8.513c0-68.62,0.093-137.243-0.167-205.864C3.945,5.15,5.151,3.943,11.029,3.966
		C79.649,4.225,148.271,4.132,216.894,4.132z"/>
	<path fill="#FDFEFF" d="M4.134,283.872c4.043,2.05,3.108,6.194,3.672,9.483c17.286,100.961,98.642,182.316,199.603,199.604
		c3.29,0.564,7.433-0.37,9.485,3.672c-68.464,0-136.927-0.094-205.389,0.16c-6.144,0.023-7.554-1.387-7.53-7.53
		C4.227,420.798,4.134,352.335,4.134,283.872z"/>
	<path fill="#50BB7A" d="M124.268,266.891c0.03-45.583,28.646-88.461,70.652-105.873c11.562-4.792,13.927-3.288,14.077,8.99
		c0.037,2.951-0.303,5.942,0.065,8.849c1.428,11.268-2.551,18.284-12.802,24.716c-40.089,25.146-44.526,82.362-12.849,117.472
		c31.714,35.154,97.403,32.658,123.97-13.766c3.188-5.571,7.192-7.984,13.452-7.73c6.548,0.27,13.123-0.061,19.678,0.085
		c10.033,0.224,11.063,1.539,6.972,11.126c-17.04,39.914-47.182,64.07-89.784,71.307
		C188.058,393.896,124.223,338.377,124.268,266.891z M129.33,260.059c-0.425,78.071,66.138,131.709,135.008,115.639
		c35.421-8.268,60.895-29.512,76.445-62.43c1.16-2.457,4.956-7.043-0.042-7.94c-7.629-1.373-15.688-0.738-23.536-0.388
		c-5.26,0.235-5.736,5.763-8.104,9.037c-20.297,28.098-47.713,41.135-81.906,35.562c-35.798-5.835-59.364-27.571-67.807-62.863
		c-8.144-34.028,2.033-63.716,30.341-84.455c10.88-7.973,14.551-15.497,13.514-27.944c-0.963-11.57-0.342-11.85-10.351-6.778
		C152.011,188.209,131.246,221.823,129.33,260.059z"/>
	<path fill="#50BB7A" d="M234.605,231.903c0-18.512-0.042-18.409,16.831-11.857c16.26,6.312,32.672,12.421,50.576,10.462
		c7.531-0.823,17.811-0.185,18.464-10.489c0.638-9.976-9.709-9.017-16.216-10.538c-14.035-3.286-28.511-4.538-42.236-9.351
		c-18.039-6.323-28.23-18.643-28.623-37.091c-0.362-17.095,7.926-29.361,23.77-36.248c3.306-1.436,6.517-3.44,9.976-4.093
		c7.674-1.446,11.807-5.19,10.853-13.391c-0.11-0.958-0.17-2.124,0.261-2.915c6.028-11.062,16.36-4.019,24.631-5.578
		c4.979-0.939,10.742,0.022,10.323,7.044c-0.563,9.469,4.375,12.424,12.663,13.792c6.22,1.026,14.905-0.152,17.563,6.604
		c3.594,9.144,2.226,19.482,0.771,29.151c-0.826,5.503-5.555,2.952-8.746,1.637c-13.784-5.678-27.928-9.48-43.001-9.092
		c-4.983,0.128-9.823,0.952-14.44,2.714c-3.478,1.325-6.631,3.584-6.845,7.628c-0.247,4.571,3.667,6.083,7.095,6.943
		c9.219,2.315,18.551,4.185,27.837,6.21c8.976,1.958,17.988,3.718,26.491,7.412c17.898,7.773,26.381,19.831,26.134,37.721
		c-0.258,18.912-10.458,31.134-26.814,38.963c-3.236,1.549-6.777,2.479-10.208,3.6c-4.335,1.418-6.631,4.121-5.773,8.854
		c1.72,9.496-3.063,12.511-11.684,11.97c-3.268-0.205-6.579-0.252-9.84,0.016c-9.002,0.74-15.745-0.711-14.775-12.258
		c0.389-4.654-2.994-6.765-7.394-7.66c-6.106-1.242-12.179-2.713-18.187-4.367C235.805,252.665,234.608,251.003,234.605,231.903z
		 M298.46,277.092c3.731-2.13,14.51,4.551,11.968-7.041c-2.343-10.678,2.164-12.257,10.652-14.257
		c20.271-4.776,32.048-18.765,32.548-36.792c0.511-18.35-8.91-29.845-31.069-36.091c-12.592-3.55-25.693-5.249-38.375-8.535
		c-8.235-2.133-18.625-2.97-18.584-15.177c0.027-7.492,8.12-12.392,21.248-13.7c16.025-1.597,31.399,1.427,46.262,7.131
		c5.142,1.972,6.815,1.21,7.135-4.569c1.044-19.007,1.009-19.285-17.906-22.132c-2.268-0.34-4.555-1.077-6.805-0.979
		c-6.854,0.298-9.658-2.354-7.773-9.319c2.137-7.891-1.177-10.954-9.048-9.948c-2.262,0.289-4.618,0.273-6.882,0
		c-7.542-0.91-10.594,2.01-8.271,9.496c2.246,7.254-0.854,9.956-7.873,10.687c-7.229,0.754-13.994,3.476-20.226,7.277
		c-11.247,6.863-17.372,16.618-16.813,30.127c0.554,13.41,7.037,22.89,18.884,28.884c7.086,3.583,14.697,5.492,22.408,7.186
		c12.158,2.667,24.752,3.375,36.485,7.885c5.783,2.223,10.714,5.63,10.64,12.646c-0.073,6.854-4.766,10.51-10.498,12.906
		c-8.388,3.5-17.195,3.922-26.119,3.021c-12.497-1.265-24.456-4.666-36.102-9.253c-14.253-5.611-13.722-5.597-14.425,9.595
		c-0.405,8.718,2.413,13.081,10.878,15.35c9.85,2.64,19.645,5.416,29.799,6.177c5.323,0.399,6.348,2.271,5.742,7.368
		C284.923,277.044,285.229,277.08,298.46,277.092z"/>
	<path fill="#FDFEFF" d="M129.33,260.059c1.916-38.234,22.681-71.85,63.564-92.562c10.009-5.071,9.388-4.792,10.351,6.778
		c1.037,12.447-2.634,19.971-13.514,27.944c-28.309,20.738-38.485,50.426-30.341,84.455c8.443,35.292,32.009,57.028,67.807,62.863
		c34.192,5.574,61.608-7.464,81.906-35.561c2.366-3.275,2.844-8.803,8.104-9.037c7.849-0.353,15.907-0.986,23.536,0.387
		c4.998,0.898,1.202,5.482,0.042,7.941c-15.552,32.916-41.024,54.16-76.445,62.429C195.468,391.768,128.905,338.13,129.33,260.059z"
		/>
	<path fill="#FDFEFF" d="M298.46,277.092c-13.231-0.012-13.537-0.048-12.121-12.056c0.604-5.099-0.419-6.968-5.743-7.368
		c-10.154-0.761-19.949-3.537-29.798-6.177c-8.466-2.27-11.284-6.632-10.878-15.35c0.704-15.192,0.172-15.206,14.424-9.595
		c11.646,4.587,23.604,7.988,36.102,9.253c8.925,0.902,17.732,0.479,26.119-3.021c5.733-2.396,10.426-6.053,10.498-12.906
		c0.075-7.016-4.854-10.423-10.639-12.646c-11.734-4.511-24.328-5.219-36.486-7.885c-7.711-1.693-15.322-3.602-22.408-7.186
		c-11.846-5.995-18.33-15.475-18.883-28.884c-0.558-13.509,5.566-23.264,16.813-30.127c6.23-3.801,12.997-6.523,20.227-7.277
		c7.019-0.731,10.117-3.433,7.871-10.687c-2.32-7.486,0.73-10.406,8.272-9.496c2.264,0.273,4.62,0.289,6.882,0
		c7.871-1.006,11.185,2.057,9.048,9.948c-1.885,6.964,0.919,9.617,7.773,9.319c2.25-0.098,4.537,0.639,6.805,0.979
		c18.915,2.847,18.95,3.125,17.906,22.132c-0.318,5.779-1.993,6.541-7.135,4.569c-14.861-5.704-30.235-8.729-46.263-7.131
		c-13.127,1.308-21.22,6.208-21.246,13.7c-0.043,12.207,10.348,13.044,18.584,15.177c12.68,3.286,25.782,4.984,38.374,8.535
		c22.159,6.246,31.58,17.741,31.069,36.091c-0.5,18.026-12.275,32.015-32.548,36.792c-8.488,2-12.995,3.579-10.652,14.257
		C312.97,281.643,302.191,274.962,298.46,277.092z"/>
</g>
</svg>
