<?xml version="1.0" encoding="UTF-8"?><svg xmlns="http://www.w3.org/2000/svg" viewBox="0 0 1965 717"><defs><style>.d{fill:none;}.e{fill:#fff;}.f{fill:#5deb5a;}</style></defs><g id="a"/><g id="b"><g id="c"><g><g><path class="f" d="M357.37,205.51c15.12,0,28.71,8.4,35.47,21.92l111.52,223.04c6.19,12.38,5.54,26.8-1.73,38.58-7.28,11.78-19.89,18.81-33.73,18.81H245.85c-13.84,0-26.45-7.03-33.73-18.81-7.28-11.78-7.93-26.2-1.74-38.58l111.52-223.04c6.76-13.52,20.35-21.92,35.47-21.92m0-27.26c-25.35,0-48.51,14.32-59.85,36.99l-111.52,223.04c-10.37,20.74-9.26,45.38,2.93,65.1,12.19,19.73,33.73,31.74,56.92,31.74h223.04c23.19,0,44.73-12.01,56.92-31.74,12.19-19.73,13.3-44.36,2.93-65.1l-111.52-223.04c-11.33-22.67-34.5-36.99-59.85-36.99h0Z"/><g><path class="e" d="M977.37,269.45c1.34,0,2.42,1.08,2.42,2.42v102.52c0,48.61-30.41,72.53-70.54,72.53s-70.54-23.93-70.54-72.53v-102.52c0-1.34,1.08-2.42,2.42-2.42h23.82c1.34,0,2.42,1.08,2.42,2.42v100.77c0,33.9,17.7,47.36,41.88,47.36s41.88-13.46,41.88-47.36v-100.77c0-1.34,1.08-2.42,2.42-2.42h23.82Z"/><path class="e" d="M1395.01,356.69c-.25,51.35-39.38,90.23-90.48,90.23s-90.48-38.88-90.48-90.23,39.38-90.23,90.48-90.23,90.23,38.88,90.48,90.23Zm-152.55,0c0,36.39,26.67,63.31,62.07,63.31s61.82-26.92,61.82-63.31-26.67-63.31-61.82-63.31-62.07,26.92-62.07,63.31Z"/><path class="e" d="M1649.05,443.93h-24.67c-1.7,0-2.87-1.71-2.26-3.29l65.29-168.63c.54-1.4,1.89-2.32,3.39-2.32h30.87c1.5,0,2.84,.92,3.39,2.32l65.29,168.63c.61,1.59-.56,3.29-2.26,3.29h-24.67c-1.01,0-1.91-.62-2.26-1.56l-52.65-138.84c-.79-2.08-3.74-2.08-4.53,0l-52.66,138.84c-.36,.94-1.26,1.56-2.26,1.56Z"/><path class="e" d="M652.11,443.93h-24.67c-1.7,0-2.87-1.71-2.26-3.29l65.29-168.63c.54-1.4,1.89-2.32,3.39-2.32h30.87c1.5,0,2.84,.92,3.39,2.32l65.29,168.63c.61,1.59-.56,3.29-2.26,3.29h-24.67c-1.01,0-1.91-.62-2.26-1.56l-52.65-138.84c-.79-2.08-3.74-2.08-4.53,0l-52.66,138.84c-.36,.94-1.26,1.56-2.26,1.56Z"/><path class="e" d="M1579.7,440.02l-48.97-62.55c27.63-5.23,43.81-23.9,43.81-52.52,0-32.86-21.41-55.26-59.24-55.26h-68.31c-2,0-3.63,1.63-3.63,3.63h0c0,12.84,10.41,23.25,23.25,23.25h45.7c22.9,0,33.85,11.7,33.85,28.63s-10.71,28.88-33.85,28.88h-65.32c-2,0-3.63,1.63-3.63,3.63v83.81c0,1.34,1.08,2.42,2.42,2.42h23.29c1.34,0,2.42-1.08,2.42-2.42v-62.55h26.88l42.52,55.49c4.58,5.98,11.68,9.48,19.21,9.48h17.69c2.02,0,3.15-2.32,1.91-3.91Z"/><path class="e" d="M1174.8,440.02l-48.97-62.55c27.63-5.23,43.81-23.9,43.81-52.52,0-32.86-21.41-55.26-59.24-55.26h-68.31c-2,0-3.63,1.63-3.63,3.63h0c0,12.84,10.41,23.25,23.25,23.25h45.7c22.9,0,33.85,11.7,33.85,28.63s-10.71,28.88-33.85,28.88h-65.32c-2,0-3.63,1.63-3.63,3.63v83.81c0,1.34,1.08,2.42,2.42,2.42h23.29c1.34,0,2.42-1.08,2.42-2.42v-62.55h26.88l42.52,55.49c4.58,5.98,11.68,9.48,19.21,9.48h17.69c2.02,0,3.15-2.32,1.91-3.91Z"/></g></g><rect class="d" width="1965" height="717"/></g></g></g></svg>