<?xml version="1.0" encoding="utf-8"?>
<!-- Generator: Adobe Illustrator 23.0.3, SVG Export Plug-In . SVG Version: 6.00 Build 0)  -->
<svg version="1.1" id="Layer_1" xmlns="http://www.w3.org/2000/svg" xmlns:xlink="http://www.w3.org/1999/xlink" x="0px" y="0px"
	 viewBox="0 0 150 47" style="enable-background:new 0 0 150 47;" xml:space="preserve">
<style type="text/css">
	.st0{fill:#4D617D;}
	.st1{opacity:0.5;fill:#FFFFFF;}
	.st2{fill:#FFFFFF;}
	.st3{opacity:0.7;}
</style>
<g>
	<path class="st0" d="M143.35,1H6.65C3.53,1,1,3.53,1,6.66v33.68C1,43.47,3.53,46,6.65,46h136.69c3.12,0,5.65-2.53,5.65-5.66V6.66
		C149,3.53,146.47,1,143.35,1z"/>
	<g>
		<g>
			<circle class="st1" cx="61.65" cy="19.15" r="2.94"/>
			<path class="st2" d="M104.58,33.13v-8.82c0-2.57-0.83-3.51-2.51-3.51c-1.86,0-2.71,1.12-2.71,3.27v9.06h-4.9v-9.03
				c0-2.12-0.77-3.3-2.45-3.3c-1.92,0-2.77,1.24-2.77,3.51v8.82h-4.9V16.76h4.57v1.74h0.06c0.86-1.53,2.42-2.3,4.51-2.3
				c2.12,0,3.69,1.06,4.72,2.92c1.18-1.86,2.95-2.92,5.19-2.92c3.66,0,6.08,2.24,6.08,6.81v10.12H104.58z"/>
			<path class="st1" d="M73.69,16.25c-4.81,0-8.7,3.9-8.7,8.7c0,4.81,3.9,8.7,8.7,8.7c4.81,0,8.7-3.9,8.7-8.7
				C82.4,20.14,78.5,16.25,73.69,16.25z M73.69,29.08c-2.28,0-4.13-1.85-4.13-4.13c0-2.28,1.85-4.13,4.13-4.13
				c2.28,0,4.13,1.85,4.13,4.13C77.82,27.23,75.98,29.08,73.69,29.08z"/>
		</g>
		<path class="st1" d="M27.46,24.92c-0.96,1.81-2.86,3.04-5.05,3.04c-3.15,0-5.71-2.56-5.71-5.71s2.56-5.71,5.71-5.71
			c2.19,0,4.09,1.23,5.05,3.04h5.95c-1.19-4.97-5.66-8.67-11-8.67c-6.25,0-11.32,5.07-11.32,11.32c0,6.25,5.07,11.32,11.32,11.32
			c5.32,0,9.77-3.68,10.98-8.63H27.46z"/>
		<circle class="st3" cx="27.77" cy="10.91" r="5.68"/>
		<path class="st1" d="M45.78,33.13v-9c0-2.12-0.83-3.33-2.63-3.33c-1.86,0-2.74,1.09-2.74,3.13v9.2h-4.9V11.31h4.9v7.02
			c0.71-1.33,2.3-2.12,4.25-2.12c3.75,0,6.02,2.36,6.02,6.64v10.29H45.78z"/>
		<rect x="53.31" y="16.76" class="st1" width="4.6" height="16.37"/>
		<circle class="st2" cx="114.55" cy="12.7" r="2.94"/>
		<path class="st2" d="M112.1,33.13V16.76h4.9v16.37H112.1z"/>
		<path class="st2" d="M132.02,33.13v-1.77h-0.06c-0.71,1.45-2.65,2.33-4.81,2.33c-4.84,0-8.2-3.81-8.2-8.76
			c0-4.84,3.51-8.73,8.2-8.73c2.01,0,3.86,0.8,4.81,2.3h0.06v-1.74h4.9v16.37H132.02z M132.02,24.93c0-2.3-1.86-4.16-4.16-4.16
			c-2.24,0-4.01,1.86-4.01,4.22c0,2.27,1.8,4.13,4.07,4.13C130.22,29.12,132.02,27.29,132.02,24.93z"/>
	</g>
</g>
</svg>
