<?xml version="1.0" encoding="utf-8"?>
<!-- Generator: Adobe Illustrator 23.0.3, SVG Export Plug-In . SVG Version: 6.00 Build 0)  -->
<svg version="1.1" id="Layer_1" xmlns="http://www.w3.org/2000/svg" xmlns:xlink="http://www.w3.org/1999/xlink" x="0px" y="0px"
	 viewBox="0 0 47.85 48.19" style="enable-background:new 0 0 47.85 48.19;" xml:space="preserve">
<style type="text/css">
	.st0{fill:#FF405E;}
	.st1{opacity:0.5;fill:#FFFFFF;}
	.st2{opacity:0.7;}
</style>
<path class="st0" d="M6.9,46.77h34.04c3.12,0,5.66-2.53,5.66-5.66V7.07c0-3.12-2.53-5.66-5.66-5.66H6.9c-3.12,0-5.66,2.53-5.66,5.66
	v34.04C1.25,44.24,3.78,46.77,6.9,46.77z"/>
<path class="st1" d="M29.11,26.84c-0.96,1.81-2.86,3.04-5.05,3.04c-3.15,0-5.71-2.56-5.71-5.71s2.56-5.71,5.71-5.71
	c2.19,0,4.09,1.23,5.05,3.04h5.95c-1.19-4.97-5.66-8.67-11-8.67c-6.25,0-11.32,5.07-11.32,11.32c0,6.25,5.07,11.32,11.32,11.32
	c5.32,0,9.77-3.68,10.98-8.63H29.11z"/>
<circle class="st2" cx="29.42" cy="12.83" r="5.68"/>
</svg>
