<svg width="2500" height="1250" viewBox="0 0 2500 1250" fill="none" xmlns="http://www.w3.org/2000/svg">
<g clip-path="url(#clip0_1639_252300)">
<path d="M650.822 518.661C651.625 518.659 652.395 518.977 652.963 519.543C653.531 520.11 653.851 520.879 653.851 521.682V647.195C653.851 706.681 616.57 736 567.41 736C518.258 736 480.97 706.681 480.97 647.195V521.63C480.968 520.825 481.287 520.053 481.857 519.484C482.427 518.916 483.201 518.598 484.006 518.602H513.203C514.871 518.602 516.224 519.955 516.224 521.623V644.985C516.224 686.496 537.919 702.96 567.565 702.96C597.219 702.96 618.663 686.496 618.663 644.985V521.63C618.661 520.828 618.978 520.058 619.545 519.49C620.112 518.922 620.882 518.602 621.684 518.602L650.822 518.661ZM1162.58 625.471C1162.28 688.308 1114.31 735.941 1051.7 735.941C989.097 735.941 940.821 688.316 940.821 625.471C940.821 562.625 989.097 515 1051.69 515C1114.3 515 1162.27 562.625 1162.57 625.471H1162.58ZM975.648 625.471C975.648 670.009 1008.33 702.96 1051.7 702.96C1095.07 702.96 1127.42 670.009 1127.42 625.463C1127.42 580.932 1094.74 547.981 1051.7 547.981C1008.66 547.981 975.648 580.932 975.648 625.471ZM1465.99 732.28H1435.71C1434.74 732.25 1433.84 731.758 1433.29 730.956C1432.75 730.154 1432.62 729.14 1432.95 728.228L1512.93 521.807C1513.6 520.088 1515.25 518.956 1517.09 518.956H1554.92C1556.76 518.948 1558.41 520.081 1559.07 521.799L1639.11 728.339C1639.44 729.251 1639.31 730.267 1638.77 731.07C1638.22 731.872 1637.32 732.364 1636.35 732.39H1606.01C1604.77 732.374 1603.67 731.607 1603.22 730.453L1538.71 560.504C1538.23 559.407 1537.14 558.699 1535.94 558.699C1534.74 558.699 1533.65 559.407 1533.17 560.504L1468.66 730.453C1468.2 731.522 1467.16 732.23 1465.99 732.272V732.28ZM255.215 732.28H224.928C223.96 732.248 223.066 731.754 222.522 730.953C221.978 730.152 221.851 729.139 222.179 728.228L302.164 521.807C302.818 520.085 304.471 518.95 306.313 518.956H344.139C345.981 518.956 347.625 520.09 348.288 521.799L428.214 728.339C428.546 729.251 428.419 730.267 427.873 731.07C427.327 731.872 426.428 732.364 425.458 732.39H395.17C393.933 732.374 392.83 731.607 392.385 730.453L327.905 560.379C327.42 559.281 326.334 558.574 325.134 558.574C323.934 558.574 322.847 559.281 322.363 560.379L257.853 730.328C257.431 731.437 256.4 732.197 255.215 732.272V732.28ZM1377.1 727.469L1317.11 650.915C1350.97 644.506 1370.77 621.655 1370.77 586.619C1370.77 546.375 1344.54 518.963 1298.09 518.963H1214.49C1212.03 518.963 1210.04 520.955 1210.04 523.413C1210.04 530.967 1213.05 538.211 1218.39 543.551C1223.74 548.891 1230.99 551.889 1238.54 551.885H1294.54C1322.59 551.885 1336 566.198 1336 586.921C1336 607.651 1322.88 622.266 1294.54 622.266H1214.49C1212.03 622.266 1210.04 624.254 1210.04 626.708V729.311C1210.04 730.983 1211.4 732.339 1213.07 732.339H1241.6C1243.27 732.339 1244.62 730.987 1244.62 729.318V652.705H1277.58L1329.68 720.626C1335.28 727.952 1343.98 732.25 1353.21 732.25H1374.89C1375.98 732.162 1376.93 731.493 1377.39 730.501C1377.85 729.51 1377.74 728.348 1377.1 727.462V727.469ZM892.722 727.469L832.73 650.915C866.591 644.506 886.429 621.655 886.429 586.619C886.429 546.375 860.195 518.963 813.74 518.963H730.114C727.656 518.963 725.663 520.955 725.663 523.413C725.684 539.135 738.432 551.873 754.16 551.885H810.166C838.242 551.885 851.654 566.198 851.654 586.921C851.654 607.651 838.537 622.266 810.166 622.266H730.114C727.659 622.266 725.667 624.254 725.663 626.708V729.311C725.663 730.983 727.019 732.339 728.692 732.339H757.255C758.924 732.339 760.276 730.987 760.276 729.318V652.705H793.202L845.302 720.626C850.916 727.94 859.609 732.235 868.832 732.25H890.512C891.601 732.162 892.558 731.493 893.016 730.501C893.474 729.51 893.362 728.348 892.722 727.462V727.469Z" fill="white"/>
<path d="M1731.1 775.468C1732.76 775.468 1734.24 774.453 1734.83 772.914L1831.26 524.086C1832.28 521.464 1830.34 518.64 1827.53 518.64H1815.52C1813.87 518.64 1812.39 519.655 1811.79 521.195L1715.36 770.023C1714.35 772.644 1716.28 775.468 1719.09 775.468H1731.1Z" fill="#5DEB5A"/>
<path d="M1928.17 735.36C1955.5 735.36 1973.27 722.537 1982.21 704.753C1983.07 703.039 1982.46 700.977 1980.88 699.894L1971.55 693.507C1969.51 692.111 1966.71 692.891 1965.49 695.038C1957.98 708.203 1945.98 716.04 1928.45 716.04C1901.29 716.04 1886.73 697.56 1886.73 672.08V647.44C1886.73 621.96 1901.57 603.48 1927.89 603.48C1944.02 603.48 1955.61 610.514 1961.65 622.744C1962.73 624.93 1965.38 625.975 1967.53 624.831L1978.16 619.185C1979.98 618.218 1980.78 616.018 1979.88 614.164C1971.22 596.35 1954.28 584.16 1927.89 584.16C1887.01 584.16 1862.65 613.84 1862.65 659.76C1862.65 705.4 1886.73 735.36 1928.17 735.36Z" fill="#5DEB5A"/>
<path d="M2007.02 728C2007.02 730.209 2008.81 732 2011.02 732H2126.22C2128.43 732 2130.22 730.209 2130.22 728V716.96C2130.22 714.751 2128.43 712.96 2126.22 712.96H2083.82C2081.61 712.96 2079.82 711.169 2079.82 708.96V528.8C2079.82 526.591 2078.03 524.8 2075.82 524.8H2011.02C2008.81 524.8 2007.02 526.591 2007.02 528.8V539.84C2007.02 542.049 2008.81 543.84 2011.02 543.84H2053.42C2055.63 543.84 2057.42 545.631 2057.42 547.84V708.96C2057.42 711.169 2055.63 712.96 2053.42 712.96H2011.02C2008.81 712.96 2007.02 714.751 2007.02 716.96V728Z" fill="#5DEB5A"/>
<path d="M2223.07 555.6C2235.95 555.6 2240.71 549.44 2240.71 541.32V536.84C2240.71 528.72 2235.95 522.56 2223.07 522.56C2210.19 522.56 2205.43 528.72 2205.43 536.84V541.32C2205.43 549.44 2210.19 555.6 2223.07 555.6ZM2159.79 728C2159.79 730.209 2161.58 732 2163.79 732H2278.99C2281.2 732 2282.99 730.209 2282.99 728V716.96C2282.99 714.751 2281.2 712.96 2278.99 712.96H2238.27C2236.06 712.96 2234.27 711.169 2234.27 708.96V591.52C2234.27 589.311 2232.48 587.52 2230.27 587.52H2163.79C2161.58 587.52 2159.79 589.311 2159.79 591.52V602.56C2159.79 604.769 2161.58 606.56 2163.79 606.56H2207.87C2210.08 606.56 2211.87 608.351 2211.87 610.56V708.96C2211.87 711.169 2210.08 712.96 2207.87 712.96H2163.79C2161.58 712.96 2159.79 714.751 2159.79 716.96V728Z" fill="#5DEB5A"/>
</g>
<defs>
<clipPath id="clip0_1639_252300">
<rect width="2056" height="221" fill="white" transform="translate(222 515)"/>
</clipPath>
</defs>
</svg>
