<?xml version="1.0" encoding="UTF-8"?>
<svg xmlns:xodm="http://www.corel.com/coreldraw/odm/2003" xmlns="http://www.w3.org/2000/svg" xmlns:xlink="http://www.w3.org/1999/xlink" version="1.1" id="Layer_1" x="0px" y="0px" viewBox="0 0 2500 2500" style="enable-background:new 0 0 2500 2500;" xml:space="preserve">
<style type="text/css">
	.st0{fill-rule:evenodd;clip-rule:evenodd;fill:url(#SVGID_1_);}
	.st1{fill-rule:evenodd;clip-rule:evenodd;fill:url(#SVGID_00000109003631624318883880000015996597890294944907_);}
	.st2{fill-rule:evenodd;clip-rule:evenodd;fill:url(#SVGID_00000006676544260587494560000013222387627438970288_);}
	.st3{fill:url(#SVGID_00000136410581365744292340000007641754353963396508_);}
	.st4{fill-rule:evenodd;clip-rule:evenodd;fill:url(#SVGID_00000137121766658761118600000008499756228048161720_);}
</style>
<g id="Layer_x0020_1">
	<g id="_2251022988112">
		
			<linearGradient id="SVGID_1_" gradientUnits="userSpaceOnUse" x1="1120.0172" y1="1874.7991" x2="1120.0172" y2="573.2756" gradientTransform="matrix(1 0 0 -1 0 2499.2756)">
			<stop offset="0" style="stop-color:#4DFC8D"></stop>
			<stop offset="1" style="stop-color:#1FC3F1"></stop>
		</linearGradient>
		<path class="st0" d="M540,1323l12,21c39,68,126,91,194,52l600-347l36,58l24,41l4,18v618c0,78,64,142,142,142h24    c78,0,142-64,142-142V810c0-73-45-136-109-163c-59-31-129-30-187,3l-829,479c-68,39-91,126-52,194H540z"></path>
		
			<linearGradient id="SVGID_00000116223872046037693190000018325049573487471767_" gradientUnits="userSpaceOnUse" x1="1089.4136" y1="1648.0315" x2="993.4136" y2="1301.0315" gradientTransform="matrix(1 0 0 -1 0 2499.2756)">
			<stop offset="0" style="stop-color:#216882"></stop>
			<stop offset="0.298" style="stop-color:#3AA698"></stop>
			<stop offset="0.5412" style="stop-color:#53E4AF"></stop>
			<stop offset="1" style="stop-color:#53E4AF"></stop>
		</linearGradient>
		<path style="fill-rule:evenodd;clip-rule:evenodd;fill:url(#SVGID_00000116223872046037693190000018325049573487471767_);" d="    M990,1034c62-9,199,3,256,16s108,54,108,54s-2-1-5-2c43,19,61,63,61,63c-19-210-167-367-410-272l-392,226c-2,1,48-37,383-86    L990,1034z M1264,1100c-10,3-21,8-33,14C1242,1108,1253,1103,1264,1100z"></path>
		
			<linearGradient id="SVGID_00000117671054156191520110000008422659903614148026_" gradientUnits="userSpaceOnUse" x1="848.0267" y1="912.4504" x2="1123.0267" y2="727.4504" gradientTransform="matrix(1 0 0 -1 0 2499.2756)">
			<stop offset="0" style="stop-color:#4DFC8D"></stop>
			<stop offset="0.502" style="stop-color:#1FC3F1"></stop>
			<stop offset="1" style="stop-color:#1FC3F1"></stop>
		</linearGradient>
		<path style="fill-rule:evenodd;clip-rule:evenodd;fill:url(#SVGID_00000117671054156191520110000008422659903614148026_);" d="    M819,1682l220-125l14-8c0,0,24-13,44,0s19,30,19,30l3,279c0,0-8,23-22,31s-23,10-45,3c-75-25-208-79-249-152c-7-12-5-26-2-33    C805,1692,814,1685,819,1682z"></path>
		
			<linearGradient id="SVGID_00000090981007588200622250000008382047427330264744_" gradientUnits="userSpaceOnUse" x1="1250" y1="2499.2756" x2="1250" y2="-0.7244" gradientTransform="matrix(1 0 0 -1 0 2499.2756)">
			<stop offset="0" style="stop-color:#4DFC8D"></stop>
			<stop offset="1" style="stop-color:#1FC3F1"></stop>
		</linearGradient>
		<path style="fill:url(#SVGID_00000090981007588200622250000008382047427330264744_);" d="M1250,2500c-345,0-658-140-884-366    S0,1595,0,1250s140-658,366-884S905,0,1250,0s658,140,884,366s366,539,366,884s-140,658-366,884S1595,2500,1250,2500z M450,2050    c205,205,488,331,800,331c313,0,595-127,800-331c205-205,331-488,331-800c0-313-127-595-331-800c-205-205-488-331-800-331    c-313,0-595,127-800,331c-205,205-331,488-331,800C119,1563,246,1845,450,2050z"></path>
		
			<linearGradient id="SVGID_00000137811261011102957360000014671427033795392175_" gradientUnits="userSpaceOnUse" x1="991.6225" y1="1496.1628" x2="846.6225" y2="1068.1628" gradientTransform="matrix(1 0 0 -1 0 2499.2756)">
			<stop offset="0" style="stop-color:#216882"></stop>
			<stop offset="1" style="stop-color:#53E4AF"></stop>
		</linearGradient>
		<path style="fill-rule:evenodd;clip-rule:evenodd;fill:url(#SVGID_00000137811261011102957360000014671427033795392175_);" d="    M521,1256c0,0-12-64,53-116c8-6,17-12,27-17c94-55,327-80,389-89s199,3,256,16s108,54,108,54s-59-26-122,10s-486,281-486,281    s-48,25-81,19c-34-7-71-11-103-55c-6-10-10-15-18-29l-13-27l-7-25l-2-22H521z"></path>
	</g>
</g>
</svg>
