<?xml version="1.0" encoding="utf-8"?>
<!-- Generator: Adobe Illustrator 16.0.0, SVG Export Plug-In . SVG Version: 6.00 Build 0)  -->
<!DOCTYPE svg PUBLIC "-//W3C//DTD SVG 1.1//EN" "http://www.w3.org/Graphics/SVG/1.1/DTD/svg11.dtd">
<svg version="1.1" id="Layer_1" xmlns="http://www.w3.org/2000/svg" xmlns:xlink="http://www.w3.org/1999/xlink" x="0px" y="0px"
	 width="500px" height="500px" viewBox="0 0 500 500" enable-background="new 0 0 500 500" xml:space="preserve">
<path fill="#AF1F5D" d="M216.194,318.442c-2.876,0-5.176,0-8.052-2.876l-42.562-42.565c-1.151-1.146-1.724-1.724-1.724-2.875
	c-0.576-0.574-1.152-2.875-0.576-5.174c0-1.15,0.576-1.724,1.149-2.303c0.575-0.572,1.151-1.151,1.727-1.724
	c1.149-1.151,1.724-2.303,2.299-2.875c10.353-9.78,20.132-19.556,30.483-28.76c23.006-22.431,46.014-44.862,69.021-67.297
	c0-1.148,1.724-8.051,6.903-9.776c1.725-0.575,4.027-0.575,5.179-0.575c2.876,0,5.173,0,8.05,2.875l44.861,42.564
	c1.73,2.3,3.456,5.175,2.876,8.051c-0.573,2.875-3.448,4.603-4.6,5.179c-5.174,2.876-21.283,18.979-51.766,51.188
	c-18.407,17.833-36.235,35.661-54.641,52.917c-0.573,0.579-1.149,2.304-2.876,3.455
	C220.222,318.442,218.497,318.442,216.194,318.442z"/>
<linearGradient id="SVGID_1_" gradientUnits="userSpaceOnUse" x1="104" y1="-1821.4487" x2="315.6631" y2="-1821.4487" gradientTransform="matrix(1 0 0 1 38 1959)">
	<stop  offset="0" style="stop-color:#CB1C68"/>
	<stop  offset="1" style="stop-color:#E04592"/>
</linearGradient>
<path fill="url(#SVGID_1_)" d="M332.38,111.956l-87.424-84.549C231.728,17.051,215.622,9,197.217,9
	c-18.406,0-36.809,8.051-50.041,21.282C142,33.159,142,35.459,142,38.334c0,2.875,0,5.175,2.875,8.051l119.062,113.883
	c2.876,2.875,5.174,2.875,5.174,5.178c26.461,29.332,29.337,71.322,5.179,100.656l58.09-55.792
	c13.233-10.352,21.283-29.334,21.283-47.738C353.663,144.167,345.614,125.187,332.38,111.956z"/>
<linearGradient id="SVGID_2_" gradientUnits="userSpaceOnUse" x1="107.1118" y1="-1612.6611" x2="294.0937" y2="-1612.6611" gradientTransform="matrix(1 0 0 1 38 1959)">
	<stop  offset="0" style="stop-color:#CB1C68"/>
	<stop  offset="1" style="stop-color:#E04592"/>
</linearGradient>
<path fill="url(#SVGID_2_)" d="M229.427,302.911c-26.456-29.336-29.332-71.321-2.875-100.655l-58.091,55.793
	c-13.231,13.228-21.282,31.634-21.282,50.036c0,18.412,8.051,36.813,21.282,50.047l127.111,129.414
	c2.876,2.876,5.179,2.876,8.055,2.876c2.875,0,5.174,0,8.05-2.876c13.232-13.233,21.282-31.635,21.282-50.047
	c0-18.401-8.05-36.808-21.282-50.035l-79.374-79.379C231.73,305.208,229.427,305.208,229.427,302.911z"/>
</svg>
