<?xml version="1.0" encoding="utf-8"?>
<!-- Generator: Adobe Illustrator 16.0.0, SVG Export Plug-In . SVG Version: 6.00 Build 0)  -->
<!DOCTYPE svg PUBLIC "-//W3C//DTD SVG 1.1//EN" "http://www.w3.org/Graphics/SVG/1.1/DTD/svg11.dtd">
<svg version="1.1" id="Layer_1" xmlns="http://www.w3.org/2000/svg" xmlns:xlink="http://www.w3.org/1999/xlink" x="0px" y="0px"
	 width="800px" height="2000px" viewBox="0 0 800 2000" enable-background="new 0 0 800 2000" xml:space="preserve">
<g>
	<path fill="#FFFFFF" d="M400,600L400,600c220.833,0,400,179.167,400,400l0,0c0,220.833-179.167,400-400,400l0,0
		c-220.833,0-400-179.167-400-400l0,0C0,779.167,179.167,600,400,600z"/>
	<g id="Group_768" transform="translate(54.025 53.748)">
		<g>
			<defs>
				<rect id="SVGID_1_" x="137.109" y="731.629" width="423.968" height="425.752"/>
			</defs>
			<clipPath id="SVGID_2_">
				<use xlink:href="#SVGID_1_"  overflow="visible"/>
			</clipPath>
			<g id="Group_768-2" transform="translate(0 0)" clip-path="url(#SVGID_2_)">
				<path id="Path_849" d="M501.692,824.119l5.027,5.413l-4.388,5.935c-142.486,192.652-224.569,279.877-259.396,268.186
					c-21.206-7.129-42.479-28.561-63.756-59.678c-7.478-10.942-14.501-22.461-20.885-33.917c-4.252-7.637-7.851-14.597-9.721-18.513
					c-1.95-3.831-3.356-7.913-4.176-12.131l-0.096-0.489c-0.321-1.719-0.45-2.246-0.701-3.213
					c-27.516-103.691,34.236-210.057,137.928-237.572c48.666-12.914,100.444-6.426,144.417,18.092l0.741,0.461
					c23.489,16.362,48.491,38.836,75.006,67.428 M416.865,771.566c-85.275-47.197-192.668-16.329-239.868,68.949
					c-22.044,39.828-27.844,86.636-16.19,130.64c0.386,1.454,0.563,2.27,0.964,4.374l0.081,0.434
					c0.544,2.756,1.487,5.416,2.799,7.897c1.705,3.58,5.14,10.201,9.201,17.51c6.141,11.013,12.886,22.08,20.027,32.538
					c19.227,28.111,38.285,47.314,54.726,52.837c21.936,7.368,104.501-80.028,234.982-255.915
					C463.373,808.905,441.019,789.053,416.865,771.566"/>
				<path id="Path_850" fill="#EC1C79" d="M416.865,771.563c-85.274-47.2-192.668-16.335-239.869,68.94
					c-22.048,39.833-27.849,86.643-16.193,130.652c0.386,1.454,0.563,2.27,0.965,4.374l0.08,0.434
					c0.542,2.758,1.481,5.423,2.791,7.909c1.708,3.581,5.142,10.202,9.203,17.51c6.141,11.015,12.884,22.081,20.027,32.54
					c19.227,28.11,38.285,47.313,54.726,52.837c21.95,7.38,104.502-80.019,234.992-255.916
					C463.373,808.913,441.022,789.055,416.865,771.563"/>
				<path id="Path_851" d="M366.907,1155.598c-107.237,0-194.171-86.932-194.171-194.169c0-107.239,86.934-194.173,194.171-194.173
					c107.238,0,194.171,86.935,194.171,194.173l0,0c0.003,107.233-86.93,194.167-194.163,194.169
					C366.911,1155.598,366.911,1155.598,366.907,1155.598 M366.907,1137.785c97.398-0.004,176.353-78.959,176.353-176.356
					c-0.006-97.4-78.961-176.355-176.359-176.354c-97.397,0.003-176.35,78.959-176.35,176.354
					c0.001,97.397,78.957,176.353,176.354,176.356"/>
				<path id="Path_852" fill="#FFFFFF" d="M366.907,1137.789c97.4,0,176.353-78.957,176.353-176.354
					c0-97.4-78.953-176.356-176.353-176.356c-97.396,0-176.351,78.956-176.353,176.351c0.002,97.397,78.957,176.353,176.353,176.356
					"/>
				<path id="Path_853" d="M234.983,997.554l-23.341-70.327h20.454l12.172,40.402l13.46-40.601h16.653l13.466,40.601l12.171-40.402
					h20.055l-23.342,70.327h-16.856l-14.063-40.198l-13.971,40.198H234.983z M327.755,997.061v-69.834h56.166v16.464h-37.004v10.575
					h33.514v15.271h-33.514v11.07h37.499v16.462L327.755,997.061z M411.361,997.061v-52.877h-20.947v-16.957h61.24v16.957h-20.946
					v52.871L411.361,997.061z M460.14,997.061v-69.834h19.354v26.132h24.839v-26.132h19.36v69.828h-19.36v-26.533h-24.839v26.533
					L460.14,997.061z"/>
				<path id="Path_854" d="M148.683,906.218c-4.929-2.463-6.926-8.457-4.463-13.385c2.464-4.928,8.458-6.927,13.385-4.462
					l28.498,14.256c4.928,2.463,6.925,8.453,4.463,13.379c-2.463,4.928-8.453,6.925-13.379,4.463L148.683,906.218z"/>
				<path id="Path_855" d="M145.403,953.484c-5.001-2.307-7.186-8.231-4.879-13.232c2.308-5.002,8.231-7.187,13.233-4.88
					l28.504,13.148c4.974,2.369,7.088,8.321,4.719,13.298c-2.327,4.889-8.129,7.029-13.074,4.819L145.403,953.484z"/>
			</g>
		</g>
	</g>
</g>
</svg>
