<?xml version="1.0" encoding="utf-8"?>
<!-- Generator: Adobe Illustrator 16.0.0, SVG Export Plug-In . SVG Version: 6.00 Build 0)  -->
<!DOCTYPE svg PUBLIC "-//W3C//DTD SVG 1.1//EN" "http://www.w3.org/Graphics/SVG/1.1/DTD/svg11.dtd">
<svg version="1.1" id="Layer_1" xmlns="http://www.w3.org/2000/svg" xmlns:xlink="http://www.w3.org/1999/xlink" x="0px" y="0px"
	 width="800px" height="2000px" viewBox="0 0 800 2000" enable-background="new 0 0 800 2000" xml:space="preserve">
<title>harmony-one-logo</title>
<path fill="#FFFFFF" d="M433.037,826c87.385,0,158.484,74.243,158.484,165.5c0,91.258-71.1,165.5-158.484,165.5l0,0h-87.32V958.016
	h40.244v157.213h47.076c65.185,0,118.226-55.495,118.226-123.729c0-68.219-53.041-123.728-118.226-123.728l0,0h-95.93V826H433.037z"
	/>
<path fill="#FFFFFF" d="M421.422,891.016c51.969,0,94.255,44.123,94.255,98.361c0,54.239-42.286,98.361-94.255,98.361l0,0h-16.5
	v-41.771h16.5c29.783,0,53.996-25.375,53.996-56.59c0-31.2-24.213-56.589-53.996-56.589l0,0h-97.171v170.657H284v-212.43H421.422z"
	/>
</svg>
