<?xml version="1.0" encoding="utf-8"?>
<!-- Generator: Adobe Illustrator 16.0.0, SVG Export Plug-In . SVG Version: 6.00 Build 0)  -->
<!DOCTYPE svg PUBLIC "-//W3C//DTD SVG 1.1//EN" "http://www.w3.org/Graphics/SVG/1.1/DTD/svg11.dtd">
<svg version="1.1" id="Layer_1" xmlns="http://www.w3.org/2000/svg" xmlns:xlink="http://www.w3.org/1999/xlink" x="0px" y="0px"
	 width="800px" height="2000px" viewBox="0 0 800 2000" enable-background="new 0 0 800 2000" xml:space="preserve">
<title>harmony-one-logo</title>
<path fill="#FFFFFF" d="M388.122,578c222.289,0,403.153,188.86,403.153,421c0,232.143-180.864,421-403.153,421l0,0H165.996V913.822
	h102.373v399.919h119.753c165.816,0,300.742-141.169,300.742-314.741c0-173.535-134.926-314.739-300.742-314.739l0,0H144.095V578
	H388.122z"/>
<path fill="#FFFFFF" d="M358.574,743.387c132.199,0,239.767,112.24,239.767,250.213c0,137.974-107.567,250.212-239.767,250.212l0,0
	h-41.973v-106.259h41.973c75.764,0,137.356-64.549,137.356-143.953c0-79.367-61.593-143.951-137.356-143.951l0,0H111.391v434.119H9
	V743.387H358.574z"/>
</svg>
