<?xml version="1.0" encoding="utf-8"?>
<!-- Generator: Adobe Illustrator 16.0.0, SVG Export Plug-In . SVG Version: 6.00 Build 0)  -->
<!DOCTYPE svg PUBLIC "-//W3C//DTD SVG 1.1//EN" "http://www.w3.org/Graphics/SVG/1.1/DTD/svg11.dtd">
<svg version="1.1" id="Layer_1" xmlns="http://www.w3.org/2000/svg" xmlns:xlink="http://www.w3.org/1999/xlink" x="0px" y="0px"
	 width="500px" height="500px" viewBox="0 0 500 500" enable-background="new 0 0 500 500" xml:space="preserve">
<path fill="#FFFFFF" d="M254.873,25.23c115.635,0,209.721,98.246,209.721,219.006c0,120.761-94.086,219.005-209.721,219.005l0,0
	H139.321V199.926h53.255v208.039h62.297c86.258,0,156.445-73.436,156.445-163.728c0-90.274-70.188-163.729-156.445-163.729l0,0
	H127.929V25.23H254.873z"/>
<path fill="#FFFFFF" d="M239.5,111.265c68.771,0,124.728,58.388,124.728,130.161c0,71.775-55.957,130.162-124.728,130.162l0,0
	h-21.834v-55.275H239.5c39.414,0,71.453-33.58,71.453-74.886c0-41.286-32.041-74.883-71.453-74.883l0,0H110.916v225.83H57.651
	V111.265H239.5z"/>
</svg>
