<?xml version="1.0" encoding="utf-8"?>
<!-- Generator: Adobe Illustrator 16.0.0, SVG Export Plug-In . SVG Version: 6.00 Build 0)  -->
<!DOCTYPE svg PUBLIC "-//W3C//DTD SVG 1.1//EN" "http://www.w3.org/Graphics/SVG/1.1/DTD/svg11.dtd">
<svg version="1.1" id="Layer_1" xmlns="http://www.w3.org/2000/svg" xmlns:xlink="http://www.w3.org/1999/xlink" x="0px" y="0px"
	 width="800px" height="2000px" viewBox="0 0 800 2000" enable-background="new 0 0 800 2000" xml:space="preserve">
<path fill="#2DB8E3" d="M509.224,738.593c-9.71-9.728-22.902-15.174-36.651-15.138h-0.148c-13.785,0-26.979,5.522-36.65,15.351
	L30.519,1145.998c-9.746,9.709-15.193,22.938-15.138,36.724c0.038,13.86,5.485,26.905,15.314,36.688
	c9.701,9.728,22.884,15.176,36.614,15.157c13.916,0,27.024-5.448,36.854-15.306L509.39,812.063
	C529.568,791.716,529.513,758.865,509.224,738.593z"/>
<path fill="#3840C7" d="M744.508,728.402c-19.418-8.116-41.839-3.612-56.625,11.369l-405.291,407.226
	c-20.216,20.346-20.132,53.217,0.185,73.45c20.364,20.234,53.244,20.122,73.487-0.185l316.461-317.98v281.329
	c0,28.684,23.255,51.919,51.938,51.957c28.683-0.038,51.937-23.273,51.955-51.957V776.431
	C776.675,755.381,763.982,736.397,744.508,728.402z"/>
</svg>
