<?xml version="1.0" encoding="utf-8"?>
<!-- Generator: Adobe Illustrator 16.0.0, SVG Export Plug-In . SVG Version: 6.00 Build 0)  -->
<!DOCTYPE svg PUBLIC "-//W3C//DTD SVG 1.1//EN" "http://www.w3.org/Graphics/SVG/1.1/DTD/svg11.dtd">
<svg version="1.1" id="Layer_1" xmlns="http://www.w3.org/2000/svg" xmlns:xlink="http://www.w3.org/1999/xlink" x="0px" y="0px"
	 width="500px" height="500px" viewBox="0 0 500 500" enable-background="new 0 0 500 500" xml:space="preserve">
<path fill="#2FB9E3" d="M321.143,119.037c-6.101-6.112-14.39-9.534-23.028-9.512h-0.094c-8.662,0-16.95,3.47-23.027,9.646
	L20.356,375.023c-6.124,6.102-9.546,14.412-9.512,23.074c0.024,8.709,3.446,16.906,9.622,23.053
	c6.096,6.113,14.379,9.537,23.006,9.525c8.744,0,16.98-3.424,23.157-9.617l254.618-255.858
	C333.927,152.416,333.891,131.775,321.143,119.037z"/>
<path fill="#4651A3" d="M468.979,112.634c-12.201-5.1-26.288-2.27-35.579,7.144L178.742,375.65
	c-12.702,12.785-12.649,33.438,0.116,46.15c12.796,12.715,33.455,12.646,46.174-0.115l198.843-199.796v176.767
	c0,18.023,14.612,32.625,32.635,32.646c18.022-0.021,32.634-14.623,32.646-32.646V142.812
	C489.19,129.585,481.217,117.657,468.979,112.634z"/>
</svg>
