<?xml version="1.0" encoding="utf-8"?>
<!-- Generator: Adobe Illustrator 16.0.0, SVG Export Plug-In . SVG Version: 6.00 Build 0)  -->
<!DOCTYPE svg PUBLIC "-//W3C//DTD SVG 1.1//EN" "http://www.w3.org/Graphics/SVG/1.1/DTD/svg11.dtd">
<svg version="1.1" id="katman_1" xmlns="http://www.w3.org/2000/svg" xmlns:xlink="http://www.w3.org/1999/xlink" x="0px" y="0px"
	 width="500px" height="500px" viewBox="0 0 500 500" enable-background="new 0 0 500 500" xml:space="preserve">
<rect x="82.623" y="166.084" fill="#FED955" width="41.561" height="41.562"/>
<rect x="82.623" y="249.378" fill="#FED955" width="41.561" height="41.561"/>
<rect x="82.623" y="207.646" fill="#FED955" width="41.561" height="41.561"/>
<rect x="82.623" y="290.938" fill="#FED955" width="41.561" height="41.561"/>
<rect x="249.039" y="82.961" fill="#FED955" width="41.561" height="41.561"/>
<rect x="249.039" y="374.232" fill="#FED955" width="41.561" height="41.563"/>
<rect x="290.773" y="82.961" fill="#FED955" width="41.56" height="41.561"/>
<rect x="332.333" y="82.961" fill="#9090C7" width="41.563" height="41.561"/>
<rect x="124.184" y="82.961" fill="#9090C7" width="41.562" height="41.561"/>
<rect x="373.896" y="332.499" fill="#9090C7" width="41.561" height="41.563"/>
<rect x="82.623" y="332.499" fill="#9090C7" width="41.561" height="41.563"/>
<rect x="290.773" y="41.229" fill="#9090C7" width="41.56" height="41.561"/>
<rect x="290.773" y="-0.333" fill="#4956A2" width="41.56" height="41.562"/>
<rect x="290.773" y="457.356" fill="#4956A2" width="41.56" height="41.56"/>
<rect x="290.773" y="415.796" fill="#9090C7" width="41.56" height="41.561"/>
<rect x="207.477" y="41.229" fill="#9090C7" width="41.562" height="41.561"/>
<rect x="207.477" y="-0.333" fill="#4956A2" width="41.562" height="41.562"/>
<rect x="207.477" y="457.356" fill="#4956A2" width="41.562" height="41.56"/>
<rect x="207.477" y="415.796" fill="#9090C7" width="41.562" height="41.561"/>
<rect x="249.039" y="41.229" fill="#9090C7" width="41.561" height="41.561"/>
<rect x="249.039" y="-0.333" fill="#4956A2" width="41.561" height="41.562"/>
<rect x="249.039" y="457.356" fill="#4956A2" width="41.561" height="41.56"/>
<rect x="249.039" y="415.796" fill="#9090C7" width="41.561" height="41.561"/>
<rect x="165.917" y="41.229" fill="#9090C7" width="41.561" height="41.561"/>
<rect x="165.917" y="-0.333" fill="#4956A2" width="41.561" height="41.562"/>
<rect x="165.917" y="457.356" fill="#4956A2" width="41.561" height="41.56"/>
<rect x="165.917" y="415.796" fill="#9090C7" width="41.561" height="41.561"/>
<rect x="373.896" y="124.522" fill="#9090C7" width="41.561" height="41.562"/>
<rect x="82.623" y="124.522" fill="#9090C7" width="41.561" height="41.562"/>
<rect x="332.333" y="374.232" fill="#9090C7" width="41.563" height="41.563"/>
<rect x="124.184" y="374.232" fill="#9090C7" width="41.562" height="41.563"/>
<rect x="415.456" y="166.084" fill="#9090C7" width="41.562" height="41.562"/>
<rect x="41.061" y="166.084" fill="#9090C7" width="41.562" height="41.562"/>
<rect x="-0.5" y="166.084" fill="#4956A2" width="41.561" height="41.562"/>
<rect x="41.061" y="124.522" fill="#4956A2" width="41.562" height="41.562"/>
<rect x="415.456" y="124.522" fill="#4956A2" width="41.562" height="41.562"/>
<rect x="332.333" y="415.796" fill="#4956A2" width="41.563" height="41.561"/>
<rect x="41.061" y="332.499" fill="#4956A2" width="41.562" height="41.563"/>
<rect x="82.623" y="82.961" fill="#4956A2" width="41.561" height="41.561"/>
<rect x="373.896" y="82.961" fill="#4956A2" width="41.561" height="41.561"/>
<rect x="373.896" y="374.232" fill="#4956A2" width="41.561" height="41.563"/>
<rect x="82.623" y="374.232" fill="#4956A2" width="41.561" height="41.563"/>
<rect x="124.184" y="41.229" fill="#4956A2" width="41.562" height="41.561"/>
<rect x="332.333" y="41.229" fill="#4956A2" width="41.563" height="41.561"/>
<rect x="415.456" y="332.499" fill="#4956A2" width="41.562" height="41.563"/>
<rect x="124.184" y="415.796" fill="#4956A2" width="41.562" height="41.561"/>
<rect x="457.188" y="166.084" fill="#4956A2" width="41.563" height="41.562"/>
<rect x="415.456" y="207.646" fill="#9090C7" width="41.562" height="41.561"/>
<rect x="41.061" y="207.646" fill="#9090C7" width="41.562" height="41.561"/>
<rect x="-0.5" y="207.646" fill="#4956A2" width="41.561" height="41.561"/>
<rect x="457.188" y="207.646" fill="#4956A2" width="41.563" height="41.561"/>
<rect x="415.456" y="249.378" fill="#9090C7" width="41.562" height="41.561"/>
<rect x="41.061" y="249.378" fill="#9090C7" width="41.562" height="41.561"/>
<rect x="-0.5" y="249.378" fill="#4956A2" width="41.561" height="41.561"/>
<rect x="457.188" y="249.378" fill="#4956A2" width="41.563" height="41.561"/>
<rect x="415.456" y="290.938" fill="#9090C7" width="41.562" height="41.561"/>
<rect x="41.061" y="290.938" fill="#9090C7" width="41.562" height="41.561"/>
<rect x="-0.5" y="290.938" fill="#4956A2" width="41.561" height="41.561"/>
<rect x="457.188" y="290.938" fill="#4956A2" width="41.563" height="41.561"/>
<rect x="290.773" y="374.232" fill="#FED955" width="41.56" height="41.563"/>
<rect x="249.039" y="166.084" fill="#FED955" width="41.561" height="41.562"/>
<rect x="249.039" y="249.378" fill="#FED955" width="41.561" height="41.561"/>
<rect x="249.039" y="290.938" fill="#FED955" width="41.561" height="41.561"/>
<rect x="249.039" y="124.522" fill="#FED955" width="41.561" height="41.562"/>
<rect x="249.039" y="332.499" fill="#FED955" width="41.561" height="41.563"/>
<rect x="165.917" y="249.378" fill="#FED955" width="41.561" height="41.561"/>
<rect x="165.917" y="207.646" fill="#FED955" width="41.561" height="41.561"/>
<rect x="165.917" y="290.938" fill="#FED955" width="41.561" height="41.561"/>
<rect x="165.917" y="124.522" fill="#FED955" width="41.561" height="41.562"/>
<rect x="165.917" y="332.499" fill="#FED955" width="41.561" height="41.563"/>
<rect x="290.773" y="249.378" fill="#FED955" width="41.56" height="41.561"/>
<rect x="290.773" y="207.646" fill="#FED955" width="41.56" height="41.561"/>
<rect x="290.773" y="290.938" fill="#FED955" width="41.56" height="41.561"/>
<rect x="290.773" y="124.522" fill="#FED955" width="41.56" height="41.562"/>
<rect x="290.773" y="332.499" fill="#FED955" width="41.56" height="41.563"/>
<rect x="207.477" y="82.961" fill="#FED955" width="41.562" height="41.561"/>
<rect x="207.477" y="374.232" fill="#FED955" width="41.562" height="41.563"/>
<rect x="165.917" y="82.961" fill="#FED955" width="41.561" height="41.561"/>
<rect x="165.917" y="374.232" fill="#FED955" width="41.561" height="41.563"/>
<rect x="207.477" y="166.084" fill="#FED955" width="41.562" height="41.562"/>
<rect x="207.477" y="249.378" fill="#FED955" width="41.562" height="41.561"/>
<rect x="165.917" y="166.084" fill="#4956A2" width="41.561" height="41.562"/>
<rect x="249.039" y="207.646" fill="#4956A2" width="41.561" height="41.561"/>
<rect x="332.333" y="166.084" fill="#4956A2" width="41.563" height="41.562"/>
<rect x="332.333" y="249.378" fill="#4956A2" width="41.563" height="41.561"/>
<rect x="332.333" y="207.646" fill="#4956A2" width="41.563" height="41.561"/>
<rect x="332.333" y="290.938" fill="#4956A2" width="41.563" height="41.561"/>
<rect x="332.333" y="124.522" fill="#4956A2" width="41.563" height="41.562"/>
<rect x="332.333" y="332.499" fill="#4956A2" width="41.563" height="41.563"/>
<rect x="124.184" y="166.084" fill="#4956A2" width="41.562" height="41.562"/>
<rect x="124.184" y="249.378" fill="#4956A2" width="41.562" height="41.561"/>
<rect x="124.184" y="207.646" fill="#4956A2" width="41.562" height="41.561"/>
<rect x="124.184" y="290.938" fill="#4956A2" width="41.562" height="41.561"/>
<rect x="124.184" y="124.522" fill="#4956A2" width="41.562" height="41.562"/>
<rect x="124.184" y="332.499" fill="#4956A2" width="41.562" height="41.563"/>
<rect x="290.773" y="166.084" fill="#4956A2" width="41.56" height="41.562"/>
<rect x="207.477" y="207.646" fill="#4956A2" width="41.562" height="41.561"/>
<rect x="207.477" y="290.938" fill="#FED955" width="41.562" height="41.561"/>
<rect x="207.477" y="124.522" fill="#FED955" width="41.562" height="41.562"/>
<rect x="207.477" y="332.499" fill="#FED955" width="41.562" height="41.563"/>
<rect x="373.896" y="166.084" fill="#FED955" width="41.561" height="41.562"/>
<rect x="373.896" y="249.378" fill="#FED955" width="41.561" height="41.561"/>
<rect x="373.896" y="207.646" fill="#FED955" width="41.561" height="41.561"/>
<rect x="373.896" y="290.938" fill="#FED955" width="41.561" height="41.561"/>
</svg>
