<?xml version="1.0" encoding="UTF-8"?>
<svg xmlns:xodm="http://www.corel.com/coreldraw/odm/2003" xmlns="http://www.w3.org/2000/svg" xmlns:xlink="http://www.w3.org/1999/xlink" version="1.1" id="Layer_1" x="0px" y="0px" viewBox="0 0 2500 2500" style="enable-background:new 0 0 2500 2500;" xml:space="preserve">
<style type="text/css">
	.st0{fill:none;}
	.st1{fill:#F7931A;}
	.st2{fill:#FFFFFF;}
	.st3{fill:url(#SVGID_1_);}
	.st4{fill:url(#SVGID_00000040549482133746710570000017457465015525302661_);}
</style>
<g id="Layer_x0020_1">
	<g id="_2251032809440">
		<rect y="0" class="st0" width="2500" height="2500"></rect>
		<g>
			<path class="st1" d="M2339,1937c-99,398-503,641-901,541c-398-99-641-503-541-901c99-398,503-641,901-541     C2196,1135,2439,1539,2339,1937z"></path>
			<g>
				<path class="st2" d="M1945,1651c15-99-61-152-164-188l33-134l-82-20l-33,130c-21-5-43-10-65-15l33-131l-82-20l-33,134l-165-41      l-22,87c0,0,61,14,59,15c33,8,42,29,38,47l-92,367c-4,15-14,25-37,19c1,1-59-15-59-15l-41,93l164,41l-34,136l81,20l33-134      c22,6,44,12,65,17l-33,133l82,20l34-135c139,26,244,16,288-110c35-101-2-160-75-198c53-12,94-47,104-120l0,0L1945,1651z       M1759,1912c-25,101-196,47-251,33l45-180C1608,1779,1786,1806,1759,1912L1759,1912z M1784,1649c-23,92-165,45-211,34l41-163      C1660,1532,1808,1553,1784,1649L1784,1649z M1784,1649L1784,1649L1784,1649z"></path>
			</g>
			
				<linearGradient id="SVGID_1_" gradientUnits="userSpaceOnUse" x1="564.9854" y1="159.8673" x2="675.9855" y2="2335.8674" gradientTransform="matrix(1 0 0 -1 0 2499.2756)">
				<stop offset="0" style="stop-color:#102FE4"></stop>
				<stop offset="1" style="stop-color:#679EF4"></stop>
			</linearGradient>
			<path class="st3" d="M963,0c-77,287-222,593-651,1110c-409,582-64,1448,708,1378c0,0-325-287-345-651c-19-383,153-498,249-976     c96-479,38-861,38-861l0,0H963z"></path>
			
				<linearGradient id="SVGID_00000036227856382273650420000000913179069364830394_" gradientUnits="userSpaceOnUse" x1="130072.2578" y1="363855.7188" x2="340796.2188" y2="956177.6875" gradientTransform="matrix(1 0 0 -1 0 2499.2756)">
				<stop offset="0" style="stop-color:#102FE4"></stop>
				<stop offset="1" style="stop-color:#679EF4"></stop>
			</linearGradient>
			<path style="fill:url(#SVGID_00000036227856382273650420000000913179069364830394_);" d="M1461,823c-186,25-364,134-440,197     c42-153,96-503,115-618C1136,402,1308,651,1461,823z"></path>
		</g>
	</g>
</g>
</svg>
