<svg xmlns="http://www.w3.org/2000/svg" width="30" height="30" viewBox="0 0 30 30" fill="none">
  <path d="M13.6878 19.9999H0V0H13.6878C18.3865 0 22.1938 3.80832 22.1938 8.50552V11.4916C22.1938 16.1916 18.3865 19.9999 13.6878 19.9999Z" fill="#AEDB01" />
  <path d="M17.2146 29.9999H0V20C0 14.4778 4.47652 10 9.99997 10H17.2146C22.7381 10 27.2146 14.4778 27.2146 20C27.2146 25.5222 22.7381 29.9999 17.2146 29.9999Z" fill="#B0B1AC" />
  <path d="M22.1938 11.3278V11.4944C22.1938 16.1944 18.3865 20 13.685 20H0C0 17.2389 1.12191 14.7389 2.92696 12.9278C4.73756 11.1167 7.23686 10 10.0027 10H17.2146C19.028 10.0028 20.7275 10.4861 22.1938 11.3278Z" fill="#5D6D3C" />
</svg>