<svg width="500" height="500" viewBox="0 0 500 500" fill="none" xmlns="http://www.w3.org/2000/svg">
<circle cx="250" cy="250" r="230" fill="#fff" />
<path fill-rule="evenodd" clip-rule="evenodd" d="M230 6.1625C230 9.695 227.938 13.4275 225.165 14.9125C222.505 16.335 217.978 17.5 215.103 17.5C211.828 17.5 208.99 15.165 207.5 11.25C206.192 7.8125 203.875 5 202.348 5C200.82 5 192.355 6.9225 183.535 9.2725C168.063 13.395 167.5 13.825 167.5 21.5275C167.5 28.285 166.252 29.9475 159.375 32.355C152.178 34.875 150.755 34.59 146.91 29.865L142.57 24.53L126.202 33.6825C110.322 42.565 109.883 43.0775 111.368 51C112.675 57.97 111.913 59.81 106.143 63.59C100.513 67.28 98.43 67.505 93.645 64.945C88.7475 62.3225 86.7875 62.6675 80.3025 67.285C76.12 70.2625 70.2625 76.12 67.285 80.3025C62.6675 86.7875 62.3225 88.7475 64.945 93.645C67.505 98.43 67.28 100.513 63.59 106.143C59.81 111.913 57.97 112.675 51 111.368C43.0775 109.883 42.565 110.322 33.6825 126.202L24.53 142.57L29.865 146.91C34.59 150.755 34.875 152.178 32.355 159.375C29.8975 166.392 28.35 167.5 21.005 167.5C14.0775 167.5 12.5 168.458 12.5 172.665C12.5 175.505 11.5225 179.723 10.33 182.04C9.135 184.355 7.395 190.478 6.4625 195.643C4.93 204.128 5.3825 205.27 11.1325 207.455C15.1525 208.985 17.5 211.803 17.5 215.103C17.5 217.978 16.335 222.505 14.9125 225.165C13.4275 227.938 9.695 230 6.1625 230C0.125 230 0 230.41 0 250C0 269.59 0.125 270 6.1625 270C9.695 270 13.4275 272.062 14.9125 274.835C16.335 277.495 17.5 282.022 17.5 284.897C17.5 288.172 15.165 291.01 11.25 292.5C7.8125 293.808 5 296.125 5 297.652C5 299.18 6.9225 307.645 9.2725 316.465C13.395 331.937 13.825 332.5 21.5275 332.5C28.285 332.5 29.9475 333.748 32.355 340.625C34.8675 347.8 34.585 349.25 29.955 353.018C25.4825 356.658 25.145 358.133 27.655 363.018C29.275 366.17 33.5575 373.527 37.175 379.367C43.0275 388.817 44.575 389.845 51.25 388.705C57.285 387.677 59.6625 388.703 63.42 393.95C67.345 399.433 67.6 401.392 65.02 406.215C62.39 411.127 62.745 413.035 67.495 419.458C70.545 423.583 76.4175 429.455 80.5425 432.505C86.965 437.255 88.8725 437.61 93.785 434.98C98.6075 432.4 100.567 432.655 106.05 436.58C111.387 440.403 112.33 442.668 111.235 449.053C109.972 456.4 110.78 457.38 125.127 465.928C133.505 470.918 140.94 475 141.652 475C142.365 475 144.818 472.705 147.1 469.9C150.725 465.448 152.263 465.155 159.23 467.595C165.61 469.827 167.368 471.965 167.98 478.245C168.68 485.385 170.002 486.492 182.5 490.397C190.063 492.76 198.248 494.762 200.688 494.847C203.205 494.935 206.153 492.298 207.5 488.75C208.99 484.835 211.828 482.5 215.103 482.5C217.978 482.5 222.505 483.665 225.165 485.088C227.938 486.573 230 490.305 230 493.838C230 499.875 230.41 500 250 500C269.59 500 270 499.875 270 493.838C270 490.305 272.062 486.573 274.835 485.088C277.495 483.665 282.022 482.5 284.897 482.5C288.197 482.5 291.015 484.847 292.545 488.867C294.735 494.63 295.855 495.067 304.357 493.495C309.522 492.537 317.688 490.41 322.5 488.768C329.523 486.37 331.398 484.322 331.995 478.392C332.57 472.7 334.578 470.305 340.745 467.95C347.92 465.212 349.2 465.445 353.09 470.182L357.43 475.47L373.797 466.317C389.482 457.545 390.108 456.832 388.795 449.207C387.668 442.642 388.57 440.433 393.95 436.58C399.463 432.633 401.375 432.39 406.285 435.018C411.27 437.688 413.175 437.36 419.697 432.715C423.88 429.737 429.737 423.88 432.715 419.697C437.332 413.212 437.678 411.253 435.055 406.355C432.495 401.57 432.72 399.487 436.41 393.857C440.11 388.21 442.103 387.338 448.543 388.543C455.52 389.848 456.873 388.977 462.825 379.367C466.443 373.527 470.725 366.17 472.345 363.018C474.855 358.133 474.518 356.658 470.045 353.018C465.443 349.273 465.142 347.775 467.595 340.77C469.827 334.39 471.965 332.632 478.245 332.02C485.385 331.32 486.492 329.998 490.397 317.5C492.76 309.937 494.762 301.752 494.847 299.312C494.935 296.795 492.298 293.847 488.75 292.5C484.835 291.01 482.5 288.172 482.5 284.897C482.5 282.022 483.665 277.495 485.088 274.835C486.573 272.062 490.305 270 493.838 270C499.875 270 500 269.59 500 250C500 230.41 499.875 230 493.838 230C490.305 230 486.573 227.938 485.088 225.165C483.665 222.505 482.5 217.978 482.5 215.103C482.5 211.803 484.847 208.985 488.867 207.455C494.63 205.265 495.067 204.145 493.495 195.643C492.537 190.478 490.41 182.312 488.768 177.5C486.37 170.477 484.322 168.603 478.392 168.005C472.7 167.43 470.305 165.422 467.95 159.255C465.235 152.137 465.455 150.79 469.948 147.1C472.728 144.818 475 142.28 475 141.46C475 140.642 470.785 133.23 465.633 124.99C456.845 110.93 455.79 110.095 448.553 111.453C442.098 112.663 440.112 111.795 436.41 106.143C432.72 100.513 432.495 98.43 435.055 93.645C437.678 88.7475 437.332 86.7875 432.715 80.3025C429.737 76.12 423.88 70.2625 419.697 67.285C413.175 62.64 411.27 62.3125 406.285 64.9825C401.375 67.61 399.463 67.3675 393.95 63.42C388.57 59.5675 387.668 57.3575 388.795 50.7925C390.108 43.1675 389.482 42.455 373.797 33.6825L357.43 24.53L353.09 29.8175C349.2 34.555 347.92 34.7875 340.745 32.05C334.578 29.695 332.57 27.3 331.995 21.6075C331.398 15.6775 329.523 13.63 322.5 11.2325C317.688 9.59 309.522 7.4625 304.357 6.505C295.855 4.9325 294.735 5.37 292.545 11.1325C291.015 15.1525 288.197 17.5 284.897 17.5C282.022 17.5 277.495 16.335 274.835 14.9125C272.062 13.4275 270 9.695 270 6.1625C270 0.125 269.59 0 250 0C230.41 0 230 0.125 230 6.1625ZM285.885 41.1025C296.24 43.0825 309.782 46.425 315.977 48.5275C322.172 50.6325 332.642 54.84 339.245 57.8825C345.847 60.9225 357.437 67.305 365 72.065C372.563 76.825 387.005 88.715 397.093 98.485C407.18 108.255 420.215 123.562 426.058 132.5C431.9 141.438 439.148 154.153 442.163 160.755C445.18 167.358 449.368 177.828 451.473 184.023C453.575 190.218 456.918 203.76 458.898 214.115C460.88 224.468 462.5 240.617 462.5 250C462.5 259.383 460.88 275.532 458.898 285.885C456.918 296.24 453.575 309.782 451.473 315.977C449.368 322.172 445.18 332.642 442.163 339.245C439.148 345.847 431.9 358.562 426.058 367.5C420.215 376.438 407.18 391.745 397.093 401.515C387.005 411.285 372.563 423.17 365 427.925C357.437 432.68 344.503 439.71 336.258 443.545C328.01 447.382 312.822 452.712 302.507 455.392C292.19 458.072 273.96 460.93 261.995 461.745C249.037 462.625 232.41 461.963 220.877 460.103C210.23 458.383 195.262 454.98 187.615 452.537C179.967 450.095 168.095 445.507 161.23 442.342C154.367 439.18 142.563 432.693 135 427.928C127.437 423.163 113.55 411.835 104.14 402.757C94.7275 393.677 83.35 381.187 78.855 375C74.36 368.813 67.305 357.563 63.175 350C59.045 342.437 53.235 329.335 50.2625 320.882C47.29 312.432 43.2025 296.865 41.18 286.29C39.155 275.712 37.515 259.003 37.5325 249.155C37.55 239.308 39.655 221.123 42.21 208.745C44.765 196.368 50.39 177.935 54.71 167.782C59.03 157.632 67.5925 141.885 73.74 132.788C79.8875 123.693 89.155 111.7 94.3325 106.138C99.5125 100.575 110.142 90.8275 117.955 84.4775C125.77 78.1275 139.27 69.02 147.955 64.235C156.642 59.4525 170.767 53.0975 179.345 50.1175C187.922 47.135 202.547 43.1825 211.845 41.3325C221.142 39.4825 237.37 37.865 247.905 37.735C258.44 37.605 275.532 39.12 285.885 41.1025ZM211.25 61.31C203 63.0775 192.82 65.6125 188.63 66.9425C184.438 68.2725 173.348 73.0575 163.983 77.5725C154.618 82.09 141.172 90.32 134.102 95.865C127.035 101.41 117.87 109.39 113.74 113.597C109.607 117.807 102.135 126.352 97.135 132.59C92.135 138.827 83.9025 152.055 78.84 161.985C73.78 171.915 68.5 183.688 67.1075 188.145C65.715 192.603 62.985 204.125 61.0425 213.75C59.0975 223.375 57.505 239.763 57.5025 250.165C57.5025 260.57 58.705 275.758 60.18 283.915C61.655 292.075 64.5025 303.677 66.51 309.7C68.5175 315.722 73.705 327.995 78.035 336.975C82.365 345.955 91.295 360.013 97.8775 368.213C104.458 376.415 116.895 389.232 125.515 396.695C134.133 404.16 147.27 413.562 154.705 417.59C162.142 421.617 174.532 427.323 182.237 430.265C189.945 433.21 204.125 437.165 213.75 439.055C223.375 440.947 239.763 442.495 250.165 442.497C260.57 442.497 275.758 441.295 283.915 439.82C292.075 438.345 303.677 435.497 309.7 433.49C315.722 431.482 327.937 426.323 336.847 422.028C345.755 417.73 358.827 409.715 365.897 404.212C372.965 398.71 383.66 389.042 389.663 382.73C395.665 376.415 403.733 366.675 407.593 361.082C411.453 355.49 418.16 343.93 422.5 335.392C426.838 326.857 431.52 316.245 432.905 311.812C434.29 307.377 437.015 295.875 438.957 286.25C440.902 276.625 442.495 260.312 442.495 250C442.495 239.688 440.902 223.375 438.957 213.75C437.015 204.125 434.348 192.82 433.03 188.63C431.715 184.438 426.942 173.348 422.427 163.983C417.91 154.618 409.735 141.172 404.258 134.102C398.783 127.035 390.803 117.795 386.525 113.573C382.25 109.35 372.965 101.37 365.897 95.84C358.827 90.31 345.382 82.09 336.017 77.5725C326.652 73.0575 315.562 68.285 311.37 66.97C307.18 65.6525 295.875 62.985 286.25 61.0425C276.625 59.0975 259.188 57.6375 247.5 57.8C235.812 57.9625 219.5 59.5425 211.25 61.31ZM261.135 86.3625C268.165 89.3 271.59 92.96 275.427 101.632C279.975 111.912 280.132 113.937 277.022 122.105C275.12 127.102 269.8 133.713 265.168 136.835C260.543 139.95 253.832 142.495 250.255 142.49C246.677 142.485 240.148 140.285 235.748 137.6C231.345 134.918 226 129.353 223.873 125.235C221.743 121.118 220.005 115.16 220.01 112C220.015 108.837 222.288 102.53 225.058 97.9825C227.83 93.4375 233.732 88.1375 238.175 86.2075C242.615 84.275 247.52 82.6525 249.07 82.5975C250.62 82.545 256.05 84.2375 261.135 86.3625ZM280.565 204.375C281.192 242.733 281.62 246.188 285.645 245.51C288.063 245.105 309.72 235.26 333.77 223.635C357.82 212.01 378.697 202.5 380.165 202.5C381.632 202.5 382.475 205.463 382.04 209.083C381.36 214.74 375.645 218.8 341.25 238.048C319.25 250.358 296.75 262.957 291.25 266.045L281.25 271.66L279.825 315.205C279.04 339.155 277.213 362.19 275.763 366.395C274.31 370.602 271.383 377.41 269.255 381.525C267.125 385.643 260.337 393.662 254.167 399.347C247.62 405.382 238.438 410.927 232.103 412.67C226.133 414.312 216.698 415.613 211.135 415.563C205.57 415.51 196.57 414.265 191.135 412.795C185.698 411.325 176.998 406.612 171.803 402.32C166.608 398.027 160.233 390.355 157.635 385.267C155.04 380.18 152.152 371.945 151.22 366.97C150.15 361.262 151.002 352.835 153.527 344.145C156.387 334.303 161.175 326.382 170.275 316.425C177.818 308.17 192.347 296.837 205.885 288.647C218.46 281.037 230.438 273.89 232.5 272.763C235.45 271.153 236.4 264.245 236.952 240.357C237.44 219.215 236.805 210 234.858 210C233.318 210 224.768 213.375 215.855 217.5C206.943 221.625 198.732 225 197.612 225C196.49 225 192.35 226.68 188.41 228.735C184.472 230.788 179.282 232.475 176.875 232.485C174.168 232.495 172.5 230.603 172.5 227.523C172.5 224.635 175.913 220.372 180.625 217.372C185.092 214.525 207.875 201.13 231.25 187.603C254.625 174.078 275.13 162.895 276.815 162.755C279.097 162.565 280.055 173.182 280.565 204.375ZM213.75 313.125C201.808 322.082 194.462 329.793 190.625 337.405C187.533 343.54 185 351.642 185 355.412C185 359.18 186.27 365.055 187.825 368.462C189.377 371.872 193.957 376.032 198.002 377.707C204.125 380.245 206.823 380.058 214.083 376.595C220.683 373.448 224.41 368.942 229.395 358.092C234.44 347.107 236.233 338.63 237.048 321.875C237.893 304.485 237.408 300 234.68 300C232.795 300 223.375 305.907 213.75 313.125Z" fill="#f6931e"/>
</svg>
