<?xml version="1.0" encoding="utf-8"?>
<!-- Generator: Adobe Illustrator 23.0.3, SVG Export Plug-In . SVG Version: 6.00 Build 0)  -->
<svg version="1.1" id="Layer_1" xmlns="http://www.w3.org/2000/svg" xmlns:xlink="http://www.w3.org/1999/xlink" x="0px" y="0px"
	 viewBox="0 0 47.85 48.19" style="enable-background:new 0 0 47.85 48.19;" xml:space="preserve">
<style type="text/css">
	.st0{fill:#1F1A23;}
	.st1{fill:#FFB0C2;}
	.st2{fill:#CB8EE9;}
	.st3{fill:#CB65B7;}
</style>
<path class="st0" d="M6.9,46.77h34.04c3.12,0,5.66-2.53,5.66-5.66V7.07c0-3.12-2.53-5.66-5.66-5.66H6.9c-3.12,0-5.66,2.53-5.66,5.66
	v34.04C1.25,44.24,3.78,46.77,6.9,46.77z"/>
<g>
	<g>
		<path class="st1" d="M29.08,26.8c-0.96,1.81-2.85,3.04-5.04,3.04c-3.15,0-5.7-2.55-5.7-5.7s2.55-5.7,5.7-5.7
			c2.19,0,4.08,1.23,5.04,3.04h5.93c-1.19-4.96-5.64-8.66-10.97-8.66c-6.24,0-11.3,5.06-11.3,11.3c0,6.24,5.06,11.3,11.3,11.3
			c5.31,0,9.76-3.67,10.96-8.61H29.08z"/>
	</g>
	<path class="st2" d="M32.97,17.22c1.27-1.04,2.09-2.62,2.09-4.39c0-3.13-2.54-5.67-5.67-5.67c-3.13,0-5.67,2.54-5.67,5.67
		c0,0,0,0,0,0c0.11,0,0.21,0,0.32,0C27.68,12.82,30.91,14.54,32.97,17.22z"/>
	<path class="st3" d="M29.39,18.49c1.36,0,2.6-0.48,3.58-1.27c-2.06-2.67-5.29-4.39-8.93-4.39c-0.11,0-0.21,0-0.32,0
		C23.72,15.95,26.26,18.49,29.39,18.49z"/>
</g>
</svg>
