<?xml version="1.0" encoding="UTF-8"?>
<svg xmlns:xodm="http://www.corel.com/coreldraw/odm/2003" xmlns="http://www.w3.org/2000/svg" xmlns:xlink="http://www.w3.org/1999/xlink" version="1.1" id="Layer_1" x="0px" y="0px" viewBox="0 0 2500 2500" style="enable-background:new 0 0 2500 2500;" xml:space="preserve">
<style type="text/css">
	.st0{fill:none;}
	.st1{fill:#111115;}
	.st2{fill-rule:evenodd;clip-rule:evenodd;fill:#111115;}
	.st3{fill:#F2D080;}
</style>
<g id="Layer_x0020_1">
	<rect y="0" class="st0" width="2500" height="2500"></rect>
	<rect y="0" class="st0" width="2500" height="2500"></rect>
	<rect y="0" class="st0" width="2500" height="2500"></rect>
	<polygon class="st1" points="0,1150.7 82,1150.7 149.2,1342.5 221.4,1150.7 271.6,1150.7 342.6,1340.3 409.8,1150.7 492.4,1150.7    370.7,1487.5 317.6,1487.5 246.2,1295.9 173,1487.5 120.6,1487.5  "></polygon>
	<path class="st1" d="M540.1,1012.5h83.2v180.8c16.4-14.2,32.8-24.8,49.4-31.9c16.6-7.1,33.3-10.6,50.3-10.6   c33.2,0,60.6,11.1,83.8,34.6c19.4,20,29.2,49.3,29.2,87.9v214.3h-82.6v-139.7c0-38.9-1.8-65.2-5.5-79c-3.7-13.8-10-24.1-18.9-30.8   c-8.9-6.8-19.9-10.2-33-10.2c-17,0-31.6,5.7-43.8,17c-12.2,11.3-20.6,26.8-25.3,46.3c-2.5,10.1-3.7,33.1-3.7,69.1v127.3h-83.2   L540.1,1012.5L540.1,1012.5z"></path>
	<path class="st1" d="M949.7,1150.7c-23.6,0-41.9,19.5-41.9,42.3v294.5h83.8v-294.6C991.6,1170.2,973.3,1150.7,949.7,1150.7   L949.7,1150.7z"></path>
	<polygon class="st1" points="1161.7,1150.7 1161.7,1012.5 1077.9,1012.5 1077.9,1487.5 1161.7,1487.5 1161.7,1224 1211.4,1224    1211.4,1150.7  "></polygon>
	<path class="st2" d="M1581.8,1342.3h-256.5c3.7,22.8,13.6,40.9,29.7,54.3c16.1,13.4,36.6,20.2,61.6,20.2   c29.8,0,55.5-10.5,76.9-31.5l67.3,31.8c-16.8,23.9-36.9,41.7-60.3,53.2c-23.4,11.5-51.2,17.2-83.4,17.2c-49.9,0-90.6-15.8-122-47.6   c-31.4-31.7-47.1-71.4-47.1-119.1c0-48.9,15.7-89.5,47-121.8c31.3-32.3,70.5-48.4,117.7-48.4c50.1,0,90.9,16.2,122.3,48.4   c31.4,32.3,47.1,74.9,47.1,127.9L1581.8,1342.3L1581.8,1342.3z M1502,1279c-5.3-17.9-15.7-32.4-31.2-43.6   c-15.5-11.2-33.6-16.8-54.1-16.8c-22.3,0-41.8,6.3-58.6,18.8c-10.5,7.9-20.3,21.7-29.3,41.5H1502z"></path>
	<path class="st3" d="M948.9,1012.5c15.2,0,28.2,5.4,39,16.3c10.9,10.9,16.3,24,16.3,39.5c0,15.2-5.4,28.2-16.1,39   c-10.7,10.8-23.6,16.1-38.6,16.1c-15.4,0-28.5-5.5-39.4-16.4c-10.9-11-16.3-24.3-16.3-40c0-15,5.4-27.9,16.1-38.5   C920.7,1017.8,933.7,1012.5,948.9,1012.5L948.9,1012.5z"></path>
	<path class="st3" d="M2101.8,1012.5h87.8v475h-87.8V1012.5z M2243.2,1012.5H2500v89.1h-84.6v385.9h-89.7v-385.9h-82.4   L2243.2,1012.5L2243.2,1012.5z"></path>
	<path class="st3" d="M1824,1187.9l-9.1,17c-1.1,2.1-1.9,3.7-2.2,4.8c-0.3,1.1-0.5,2.2-0.5,3.3c0,2.9,1.1,5.5,3.3,7.7   c2.2,2.2,5.1,3.4,8.4,3.4c3.2,0,6-1.1,8.2-3.2c2.3-2.1,3.4-4.8,3.4-7.9c0-3.2-1.1-5.9-3.3-8.1c-1.7-1.7-3.7-2.7-5.9-3.1l5.4-10.2   L1824,1187.9L1824,1187.9z M1826.7,1212.8c0,0.9-0.3,1.6-0.8,2.2c-1.2,1.1-2.8,1.2-4,0c-0.6-0.6-0.9-1.3-0.9-2.2s0.3-1.6,0.8-2.2   c0.5-0.5,1.1-0.8,1.9-0.8c0.9,0,1.5,0.3,2.1,0.8C1826.4,1211.2,1826.7,1211.9,1826.7,1212.8L1826.7,1212.8z M1867,1056.8   l-14.6,20.8l-0.2,0.3v7.2h14.4v6.5h8.8v-6.5h2.9v-8.1h-2.9v-20.3L1867,1056.8L1867,1056.8z M1862.9,1077.1l3.6-5.1v5.1H1862.9z    M1675.4,1352.4l12-23.5h-13v-8.2h24.3l-0.1,5l-15.4,30.3L1675.4,1352.4L1675.4,1352.4z M1826.2,1434c0.7-0.7,1.1-1.6,1.1-2.8   c0-1.1-0.3-2-1-2.7c-1-1-2.2-1.3-3.7-0.6c-0.5,0.3-1.1,0.7-1.6,1.2l-0.5,0.5l-7.1-1.5l4.5-19.8h17.8v8.1h-11l-0.7,2.8   c0.1,0,0.2,0,0.4,0c3.3,0,6.2,1.1,8.4,3.3c2.2,2.2,3.3,5,3.3,8.4c0,3.4-1.2,6.3-3.7,8.7c-2.4,2.3-5.4,3.5-8.9,3.5   c-3.1,0-5.8-0.9-8.1-2.6c-2.3-1.7-3.8-4.1-4.4-7l-0.4-1.6h9.1l0.4,0.7c0.4,0.8,0.9,1.3,1.5,1.7   C1823.1,1435.4,1825,1435.2,1826.2,1434L1826.2,1434z M1822.1,1264.6c2.3-2.1,3.4-4.8,3.4-7.9c0-3.2-1.1-5.9-3.3-8.1   c-1.7-1.7-3.7-2.7-5.9-3.1l5.4-10.2l-7.7-3.7l-9.1,17c-1.1,2.1-1.9,3.7-2.2,4.8c-0.3,1.1-0.5,2.2-0.5,3.3c0,2.9,1.1,5.5,3.3,7.7   c2.2,2.2,5.1,3.4,8.4,3.4C1817.1,1267.8,1819.8,1266.7,1822.1,1264.6L1822.1,1264.6z M1811,1256.6c0-0.9,0.3-1.6,0.8-2.2   c0.5-0.6,1.1-0.8,1.9-0.8c0.9,0,1.5,0.3,2.1,0.8c0.6,0.6,0.8,1.2,0.8,2.1s-0.3,1.6-0.8,2.2c-1.1,1.1-2.8,1.2-4,0   C1811.3,1258.2,1811,1257.5,1811,1256.6L1811,1256.6z M2003.4,1354.7v-6.5h2.9v-8.1h-2.9v-20.3h-8.3l-14.6,20.8l-0.2,0.3v7.2h14.4   v6.5L2003.4,1354.7L2003.4,1354.7L2003.4,1354.7L2003.4,1354.7z M1991,1340.1l3.6-5.1v5.1H1991z M1795.2,1266.5   c1.8-0.9,3.3-2.2,4.4-4c1.1-1.8,1.6-3.7,1.6-5.7c0-1.9-0.5-3.7-1.4-5.3c-0.7-1.2-1.6-2.2-2.7-3.1c0.8-0.9,1.3-1.7,1.7-2.5   c0.5-1.1,0.8-2.3,0.8-3.7c0-1.8-0.5-3.6-1.4-5.1c-1-1.6-2.3-2.9-4-3.7c-3.3-1.7-8.2-1.7-11.5,0c-1.7,0.9-3.1,2.1-4,3.6   c-1,1.6-1.4,3.3-1.4,5.1c0,1.4,0.3,2.7,0.8,3.9c0.4,0.8,0.9,1.6,1.5,2.4c-1.1,1-2,2-2.7,3.2c-0.8,1.6-1.3,3.3-1.3,5.1   c0,2.1,0.5,4.1,1.6,5.8c1.1,1.7,2.5,3.1,4.3,3.9c1.7,0.8,4.1,1.2,6.9,1.2C1791.2,1267.8,1793.4,1267.4,1795.2,1266.5L1795.2,1266.5   z M1790,1244.4c-0.8,0.8-2.4,0.9-3.3,0c-0.5-0.4-0.7-1-0.7-1.7c0-0.7,0.2-1.2,0.6-1.6c0.4-0.4,0.9-0.6,1.6-0.6   c0.8,0,1.3,0.2,1.8,0.6c0.4,0.4,0.6,0.9,0.6,1.5C1790.6,1243.4,1790.4,1243.9,1790,1244.4z M1785.6,1254.2c0.8-0.7,1.7-1,2.9-1   c1.1,0,2,0.3,2.8,1c0.7,0.7,1.1,1.4,1.1,2.3c0,0.9-0.3,1.7-1,2.2c-1.3,1.2-4.4,1.2-5.8-0.1c-0.7-0.6-1-1.4-1-2.3   C1784.5,1255.5,1784.8,1254.8,1785.6,1254.2L1785.6,1254.2z M1871.9,1442.4v-25.9h-7.8l5.3-8.2h11.4v34.1L1871.9,1442.4   L1871.9,1442.4z M1762.5,1418.7c-1.9,1.8-2.8,4-2.8,6.7c0,1.9,0.4,3.5,1.2,5c0.8,1.4,2,2.5,3.5,3.3c2.8,1.5,6.7,1.6,9.6,0.4   c1.3-0.6,2.9-1.7,4.6-3.3l1-0.9l6.1,6.1l-0.9,0.9c-2.6,2.4-5,4.1-7.3,5c-2.3,0.9-5,1.4-7.9,1.4c-5.5,0-10-1.7-13.5-5   c-3.5-3.3-5.3-7.7-5.3-12.9c0-3.4,0.8-6.4,2.4-9c1.6-2.6,3.9-4.8,6.9-6.4c5.4-2.9,12.1-3.2,18-0.6c2.7,1.2,5,2.8,7,5l0.8,0.9   l-6.3,5.7l-0.9-0.9c-2.7-2.8-5.7-4.1-9.1-4.1C1766.7,1415.9,1764.4,1416.8,1762.5,1418.7L1762.5,1418.7z M1798.3,1443.2   c3.2,0,6-1.1,8.2-3.2c2.3-2.1,3.4-4.8,3.4-7.9c0-3.2-1.1-5.9-3.3-8.1c-1.7-1.7-3.7-2.7-5.9-3.1l5.4-10.2l-7.7-3.7l-9.1,17   c-1.1,2.1-1.9,3.7-2.2,4.8c-0.3,1.1-0.5,2.2-0.5,3.3c0,2.9,1.1,5.5,3.3,7.7C1792.1,1442.1,1795,1443.2,1798.3,1443.2L1798.3,1443.2   z M1795.4,1432c0-0.9,0.3-1.6,0.8-2.2c0.5-0.6,1.1-0.8,1.9-0.8c0.8,0,1.5,0.3,2.1,0.8c0.6,0.6,0.8,1.2,0.8,2.1s-0.3,1.6-0.8,2.2   c-1.2,1.1-2.8,1.2-4,0C1795.7,1433.6,1795.4,1432.9,1795.4,1432L1795.4,1432z M1890.6,1440.1l12-23.5h-13v-8.2h24.3l-0.1,5   l-15.4,30.3L1890.6,1440.1L1890.6,1440.1z M1848.9,1251.3c1.1-2.1,1.9-3.7,2.2-4.7c0.3-1.1,0.5-2.2,0.5-3.3c0-2.9-1.1-5.5-3.3-7.7   c-2.2-2.2-5.1-3.4-8.4-3.4c-3.2,0-5.9,1.1-8.2,3.2c-2.3,2.1-3.4,4.8-3.4,7.9c0,3.2,1.1,5.9,3.3,8c1.7,1.7,3.7,2.7,6,3.1l-5.5,10.2   l7.7,3.7L1848.9,1251.3z M1842.8,1243.4c0,0.9-0.3,1.6-0.8,2.1c-1.1,1.1-2.9,1-4,0c-0.6-0.6-0.9-1.3-0.9-2.1c0-0.9,0.3-1.6,0.9-2.2   c0.6-0.6,1.2-0.8,2-0.8c0.7,0,1.3,0.3,1.9,0.8C1842.5,1241.8,1842.8,1242.5,1842.8,1243.4L1842.8,1243.4z M1800.6,1214.8   c0.7-0.7,1.1-1.6,1.1-2.8c0-1.1-0.3-2-1-2.7c-1-1-2.2-1.3-3.7-0.6c-0.5,0.3-1.1,0.7-1.6,1.2l-0.5,0.5l-7.1-1.5l4.5-19.8h17.8v8.1   h-11l-0.7,2.8c0.1,0,0.3,0,0.4,0c3.4,0,6.2,1.1,8.4,3.3c2.2,2.2,3.3,5,3.3,8.4c0,3.4-1.2,6.3-3.7,8.7c-2.4,2.4-5.4,3.5-8.9,3.5   c-3.1,0-5.8-0.8-8.1-2.6c-2.3-1.7-3.8-4.1-4.4-7l-0.4-1.6h9.1l0.4,0.7c0.4,0.8,0.9,1.3,1.5,1.7   C1797.4,1216.2,1799.4,1216,1800.6,1214.8L1800.6,1214.8z M1993.4,1294.2c0,4.4,0.5,7.6,1.5,10.1c1,2.5,2.5,4.4,4.4,5.6   c1.9,1.2,4.3,1.9,7,1.9c2.8,0,5.1-0.6,6.9-1.9c1.8-1.2,3.3-3.2,4.3-5.7c1.1-2.5,1.5-5.9,1.5-10.2c0-4.3-0.5-7.7-1.5-10.2   c-1-2.6-2.6-4.5-4.5-5.8c-2-1.3-4.3-1.9-7-1.9c-4.1,0-7.4,1.6-9.8,4.8C1994.4,1283.7,1993.4,1288.1,1993.4,1294.2z M2002.4,1294.3   c0-2.9,0.2-5.2,0.6-6.6c0.3-1.3,0.8-2.2,1.4-2.7c0.6-0.4,1.2-0.7,1.9-0.7c0.7,0,1.7,0.2,2.6,1.7c0.6,0.9,1.3,3.1,1.3,7.9   c0,3.8-0.5,6.6-1.4,8.1c-0.8,1.4-1.8,1.5-2.5,1.5c-0.7,0-1.7-0.2-2.7-1.7C2003.1,1301,2002.4,1298.9,2002.4,1294.3L2002.4,1294.3z    M1685.7,1100.2l-9.1,17c-1.1,2.1-1.9,3.7-2.2,4.8c-0.3,1.1-0.5,2.2-0.5,3.3c0,2.9,1.1,5.5,3.3,7.7c2.2,2.2,5.1,3.4,8.4,3.4   c3.2,0,6-1.1,8.2-3.2c2.3-2.1,3.4-4.8,3.4-7.9c0-3.2-1.1-5.9-3.3-8.1c-1.7-1.7-3.7-2.7-5.9-3.1l5.4-10.2L1685.7,1100.2   L1685.7,1100.2z M1688.4,1125.1c0,0.9-0.3,1.6-0.8,2.2c-1.2,1.1-2.8,1.2-4,0c-0.6-0.6-0.9-1.3-0.9-2.2s0.3-1.6,0.8-2.2   c0.5-0.5,1.1-0.8,1.9-0.8c0.9,0,1.5,0.3,2.1,0.8C1688.2,1123.5,1688.4,1124.2,1688.4,1125.1L1688.4,1125.1z M1688.5,1214.9   c0.7-0.7,1-1.4,1-2.4c0-1-0.5-1.9-1.4-2.6c-1.1-0.8-2.7-1.2-4.8-1.2l-1.3,0v-7.6l1.2-0.1c1.7-0.1,2.5-0.4,2.9-0.6   c0.5-0.2,0.9-0.5,1.2-0.9c0.3-0.4,0.4-0.8,0.4-1.2c0-0.5-0.2-0.9-0.5-1.2c-0.2-0.2-0.6-0.5-1.5-0.5c-0.6,0-1.1,0.2-1.6,0.5   c-0.5,0.3-0.8,0.8-1,1.4l-0.3,0.9h-8.5l0.2-1.4c0.3-2.6,1.4-4.7,3-6.3c2.3-2.2,5.1-3.3,8.5-3.3c3,0,5.6,0.9,7.7,2.8   c2.1,1.9,3.2,4.2,3.2,6.8c0,1.7-0.5,3.2-1.4,4.5c-0.5,0.7-1.1,1.3-1.8,1.8c1.2,0.6,2.1,1.4,2.9,2.4c1.3,1.7,2,3.6,2,5.8   c0,3.2-1.2,5.9-3.7,8.1c-2.4,2.2-5.5,3.3-9.2,3.3c-3.6,0-6.5-1-8.8-3.1s-3.5-4.9-3.7-8.4l-0.1-1.4h8.8l0.2,1.1   c0.2,1.3,0.7,2.3,1.4,2.9C1684.6,1216.2,1687.1,1216.2,1688.5,1214.9L1688.5,1214.9z M1764.8,1071.2c0.7-1.3,1.1-2.4,1.1-3.3   c0-0.9-0.3-1.6-0.9-2.1c-1.2-1.1-3.3-1.2-4.7,0.2c-0.7,0.7-1,1.8-1.1,3.1l0,1.2h-8.8l0.1-1.3c0.2-3.7,1.4-6.7,3.7-8.9   c2.3-2.2,5.3-3.3,8.9-3.3c2.2,0,4.2,0.4,5.9,1.4c1.7,0.9,3.1,2.2,4.2,4c1,1.7,1.6,3.5,1.6,5.3c0,2-0.6,4.3-1.8,6.6   c-1.2,2.3-3.2,4.9-6.3,8l-1.5,1.6h9.9v8.1h-25.5v-4.7l10.6-10.3C1762.5,1074.4,1764.1,1072.5,1764.8,1071.2L1764.8,1071.2z    M1772.7,1187.9l-9.1,17c-1.1,2.1-1.9,3.7-2.2,4.8c-0.3,1.1-0.5,2.2-0.5,3.3c0,2.9,1.1,5.5,3.3,7.7c2.2,2.2,5.1,3.4,8.4,3.4   c3.2,0,6-1.1,8.2-3.2c2.3-2.1,3.4-4.8,3.4-7.9c0-3.2-1.1-5.9-3.3-8.1c-1.7-1.7-3.7-2.7-5.9-3.1l5.4-10.2L1772.7,1187.9   L1772.7,1187.9z M1775.4,1212.8c0,0.9-0.3,1.6-0.8,2.2c-1.1,1.1-2.8,1.2-4,0c-0.6-0.6-0.9-1.3-0.9-2.2s0.3-1.6,0.8-2.2   c0.5-0.5,1.1-0.8,1.9-0.8c0.9,0,1.5,0.3,2.1,0.8C1775.2,1211.2,1775.4,1211.9,1775.4,1212.8L1775.4,1212.8z M1762.6,1363.3l-9.1,17   c-1.1,2.1-1.9,3.7-2.2,4.8c-0.3,1.1-0.5,2.2-0.5,3.3c0,2.9,1.1,5.5,3.3,7.7c2.2,2.2,5.1,3.4,8.4,3.4c3.2,0,6-1.1,8.2-3.2   c2.3-2.1,3.4-4.8,3.4-7.9c0-3.2-1.1-5.9-3.3-8.1c-1.7-1.7-3.7-2.7-5.9-3.1l5.4-10.2L1762.6,1363.3L1762.6,1363.3z M1765.4,1388.2   c0,0.9-0.3,1.6-0.8,2.2c-1.1,1.1-2.8,1.2-4,0c-0.6-0.6-0.9-1.3-0.9-2.2s0.3-1.6,0.8-2.2c0.5-0.5,1.1-0.8,1.9-0.8   c0.9,0,1.5,0.3,2.1,0.8C1765.1,1386.6,1765.4,1387.3,1765.4,1388.2L1765.4,1388.2z M1674.5,1304.2c1.1,2.5,2.5,4.4,4.4,5.6   c1.9,1.2,4.3,1.9,7,1.9c2.8,0,5.1-0.6,6.9-1.9c1.8-1.2,3.3-3.2,4.3-5.7c0.5-1.1,0.8-2.4,1.1-3.8v4.1h14.4v6.5h8.8v-6.5h2.9v-8.1   h-2.9V1276h-8.3l-14.4,20.6c0.1-0.9,0.1-1.8,0.1-2.7c0-4.3-0.5-7.7-1.5-10.2c-1-2.6-2.6-4.5-4.5-5.8c-2-1.3-4.3-1.9-7-1.9   c-4.1,0-7.4,1.6-9.8,4.8c-2,2.9-3,7.2-3,13.3C1672.9,1298.5,1673.4,1301.8,1674.5,1304.2L1674.5,1304.2z M1709,1296.3l3.6-5.1v5.1   H1709z M1681.9,1294.3c0-2.9,0.2-5.2,0.6-6.6c0.3-1.3,0.8-2.2,1.4-2.7c0.6-0.4,1.2-0.7,1.9-0.7c0.7,0,1.7,0.2,2.6,1.7   c0.6,0.9,1.3,3.1,1.3,7.9c0,3.8-0.5,6.6-1.4,8.1c-0.8,1.4-1.8,1.5-2.5,1.5s-1.7-0.2-2.7-1.7   C1682.6,1301,1681.9,1298.9,1681.9,1294.3L1681.9,1294.3z M1762.6,1231.7l-9.1,17c-1.1,2.1-1.9,3.7-2.2,4.8   c-0.3,1.1-0.5,2.2-0.5,3.3c0,2.9,1.1,5.5,3.3,7.7c2.2,2.2,5.1,3.4,8.4,3.4c3.2,0,6-1.1,8.2-3.2c2.3-2.1,3.4-4.8,3.4-7.9   c0-3.2-1.1-5.9-3.3-8.1c-1.7-1.7-3.7-2.7-5.9-3.1l5.4-10.2L1762.6,1231.7L1762.6,1231.7z M1765.4,1256.6c0,0.9-0.3,1.6-0.8,2.2   c-1.1,1.1-2.8,1.2-4,0c-0.6-0.6-0.9-1.3-0.9-2.2s0.3-1.6,0.8-2.2c0.5-0.6,1.1-0.8,1.9-0.8c0.9,0,1.5,0.3,2.1,0.8   C1765.1,1255.1,1765.4,1255.7,1765.4,1256.6L1765.4,1256.6z M1737.3,1180.6l9.1-17c1.2-2.1,1.9-3.7,2.2-4.7   c0.3-1.1,0.5-2.2,0.5-3.3c0-2.9-1.1-5.5-3.3-7.7c-2.2-2.2-5.1-3.4-8.4-3.4c-3.2,0-5.9,1.1-8.2,3.2c-2.3,2.1-3.4,4.8-3.4,7.9   c0,3.2,1.1,5.9,3.3,8c1.7,1.7,3.7,2.7,6,3.1l-5.5,10.2L1737.3,1180.6z M1734.5,1155.7c0-0.9,0.3-1.6,0.9-2.2c0.6-0.6,1.2-0.8,2-0.8   c0.7,0,1.3,0.3,1.9,0.8c0.6,0.6,0.9,1.3,0.9,2.2c0,0.9-0.3,1.6-0.8,2.1c-1.1,1.1-2.9,1-4,0   C1734.8,1157.2,1734.5,1156.6,1734.5,1155.7L1734.5,1155.7z M1893.6,1171.1c0.7-0.7,1-1.4,1-2.4c0-1-0.5-1.9-1.4-2.6   c-1.1-0.8-2.7-1.2-4.8-1.2l-1.3,0v-7.6l1.2-0.1c1.7-0.1,2.5-0.4,2.9-0.6c0.5-0.2,0.9-0.5,1.2-0.9c0.3-0.4,0.4-0.8,0.4-1.1   c0-0.5-0.2-0.9-0.5-1.2c-0.2-0.2-0.6-0.5-1.5-0.5c-0.6,0-1.1,0.2-1.6,0.5c-0.5,0.3-0.8,0.8-1,1.4l-0.3,0.9h-8.5l0.2-1.4   c0.4-2.6,1.4-4.7,3-6.3c2.3-2.2,5.1-3.3,8.5-3.3c3,0,5.6,0.9,7.7,2.8c2.1,1.9,3.2,4.2,3.2,6.8c0,1.7-0.5,3.2-1.4,4.6   c-0.5,0.7-1.1,1.3-1.8,1.8c1.2,0.6,2.1,1.4,2.9,2.4c1.3,1.7,2,3.6,2,5.8c0,3.2-1.2,5.9-3.7,8.1c-2.4,2.2-5.5,3.3-9.2,3.3   c-3.5,0-6.5-1.1-8.7-3.1s-3.5-4.9-3.7-8.4l-0.1-1.4h8.8l0.2,1.1c0.2,1.3,0.7,2.3,1.3,2.9   C1889.7,1172.4,1892.2,1172.4,1893.6,1171.1L1893.6,1171.1z M1698.7,1125.3c0,2.1,0.5,4.1,1.6,5.8c1.1,1.7,2.5,3.1,4.3,3.9   c1.8,0.8,4.1,1.2,6.9,1.2c2.7,0,4.9-0.4,6.7-1.3c1.8-0.9,3.3-2.2,4.3-4c1.1-1.8,1.6-3.7,1.6-5.7c0-1.9-0.5-3.7-1.4-5.3   c-0.7-1.2-1.6-2.2-2.7-3.1c0.8-0.9,1.3-1.7,1.7-2.5c0.5-1.1,0.8-2.3,0.8-3.7c0-1.8-0.5-3.6-1.4-5.1c-1-1.6-2.3-2.9-4-3.7   c-3.3-1.7-8.2-1.7-11.5,0c-1.7,0.9-3.1,2.1-4,3.6c-1,1.6-1.4,3.3-1.4,5.1c0,1.4,0.3,2.7,0.8,3.9c0.4,0.8,0.9,1.6,1.5,2.4   c-1.1,1-2,2-2.7,3.2C1699.1,1121.7,1698.7,1123.5,1698.7,1125.3L1698.7,1125.3z M1713,1112.8c-0.9,0.8-2.4,0.9-3.3,0   c-0.5-0.5-0.7-1-0.7-1.7c0-0.7,0.2-1.2,0.6-1.6c0.4-0.4,0.9-0.6,1.6-0.6c0.8,0,1.3,0.2,1.8,0.6c0.4,0.4,0.6,0.9,0.6,1.5   C1713.7,1111.9,1713.5,1112.4,1713,1112.8L1713,1112.8z M1711.5,1121.6c1.1,0,2,0.3,2.8,1c0.7,0.7,1.1,1.4,1.1,2.3   c0,0.9-0.3,1.7-1,2.2c-1.4,1.2-4.4,1.2-5.8-0.1c-0.7-0.7-1-1.4-1-2.3c0-0.8,0.4-1.5,1.1-2.2   C1709.4,1121.9,1710.4,1121.6,1711.5,1121.6L1711.5,1121.6z M1711.3,1144l-9.1,17c-1.1,2.1-1.9,3.7-2.2,4.8   c-0.3,1.1-0.5,2.2-0.5,3.3c0,2.9,1.1,5.5,3.3,7.7c2.2,2.2,5.1,3.4,8.4,3.4c3.2,0,5.9-1.1,8.2-3.2c2.3-2.1,3.4-4.8,3.4-7.9   c0-3.2-1.1-5.9-3.3-8.1c-1.7-1.7-3.7-2.7-5.9-3.1l5.4-10.2L1711.3,1144L1711.3,1144z M1714.1,1168.9c0,0.9-0.3,1.6-0.8,2.2   c-1.2,1.1-2.8,1.2-4,0c-0.6-0.6-0.9-1.3-0.9-2.2s0.3-1.6,0.8-2.2c0.5-0.5,1.2-0.8,1.9-0.8c0.8,0,1.5,0.3,2.1,0.8   C1713.8,1167.4,1714.1,1168,1714.1,1168.9L1714.1,1168.9z M1739.2,1290.4c0.7-1.3,1.1-2.4,1.1-3.3c0-0.9-0.3-1.6-0.9-2.1   c-1.2-1.1-3.3-1.2-4.7,0.2c-0.7,0.7-1.1,1.8-1.1,3.1l0,1.2h-8.8l0.1-1.3c0.2-3.7,1.4-6.7,3.7-8.9c2.3-2.2,5.3-3.3,8.9-3.3   c2.2,0,4.2,0.5,5.9,1.4c1.7,0.9,3.1,2.3,4.2,4c1,1.7,1.6,3.5,1.6,5.3c0,2-0.6,4.3-1.8,6.6c-1.2,2.3-3.2,4.9-6.3,8l-1.5,1.6h9.9v8.1   h-25.5v-4.7l10.6-10.3C1736.9,1293.6,1738.4,1291.8,1739.2,1290.4L1739.2,1290.4z M1737,1100.2l-9.1,17c-1.1,2.1-1.9,3.7-2.2,4.8   c-0.3,1.1-0.5,2.2-0.5,3.3c0,2.9,1.1,5.5,3.3,7.7c2.2,2.2,5.1,3.4,8.4,3.4c3.2,0,5.9-1.1,8.2-3.2c2.3-2.1,3.4-4.8,3.4-7.9   c0-3.2-1.1-5.9-3.3-8.1c-1.7-1.7-3.7-2.7-5.9-3.1l5.4-10.2L1737,1100.2L1737,1100.2z M1739.7,1125.1c0,0.9-0.3,1.6-0.9,2.2   c-1.1,1.1-2.8,1.2-4,0c-0.6-0.6-0.9-1.3-0.9-2.2s0.3-1.6,0.8-2.2c0.5-0.5,1.2-0.8,1.9-0.8c0.9,0,1.5,0.3,2.1,0.8   C1739.5,1123.5,1739.7,1124.2,1739.7,1125.1L1739.7,1125.1z M1701.1,1264.7l12-23.5h-13v-8.2h24.3l-0.1,5l-15.4,30.3L1701.1,1264.7   L1701.1,1264.7z M1725.1,1206.1c0-3.4,0.8-6.4,2.4-9c1.6-2.6,3.9-4.8,6.9-6.4c5.4-2.9,12.1-3.2,18-0.6c2.7,1.2,5,2.9,7,5l0.8,0.9   l-6.3,5.7l-0.9-0.9c-2.7-2.8-5.7-4.1-9.1-4.1c-2.8,0-5.1,0.9-7,2.7c-1.9,1.8-2.8,4-2.8,6.7c0,1.9,0.4,3.5,1.2,5   c0.8,1.4,2,2.5,3.5,3.4c2.8,1.5,6.7,1.6,9.6,0.4c1.3-0.6,2.9-1.7,4.6-3.3l1-0.9l6.1,6.1l-0.9,0.9c-2.6,2.4-5,4.1-7.3,5   c-2.3,0.9-5,1.4-7.9,1.4c-5.5,0-10-1.7-13.5-5C1726.9,1215.6,1725.1,1211.3,1725.1,1206.1L1725.1,1206.1z M1763.9,1310.9h8.8v-6.5   h2.9v-8.1h-2.9V1276h-8.3l-14.6,20.8l-0.2,0.3v7.2h14.4V1310.9L1763.9,1310.9z M1760.3,1296.3l3.6-5.1v5.1H1760.3z M1702.9,1220.6   c2.2,2.2,5.1,3.4,8.4,3.4c3.2,0,5.9-1.1,8.2-3.2c2.3-2.1,3.4-4.8,3.4-7.9c0-3.2-1.1-5.9-3.3-8.1c-1.7-1.7-3.7-2.7-5.9-3.1l5.4-10.2   l-7.7-3.7l-9.1,17c-1.1,2.1-1.9,3.7-2.2,4.8c-0.3,1.1-0.5,2.2-0.5,3.3C1699.6,1215.8,1700.7,1218.4,1702.9,1220.6L1702.9,1220.6z    M1708.4,1212.8c0-0.9,0.3-1.6,0.8-2.2c0.5-0.5,1.2-0.8,1.9-0.8c0.8,0,1.5,0.3,2.1,0.8c0.6,0.6,0.8,1.2,0.8,2.1   c0,0.9-0.3,1.6-0.8,2.2c-1.2,1.1-2.8,1.2-4,0C1708.7,1214.4,1708.4,1213.7,1708.4,1212.8L1708.4,1212.8z M1755.9,1354.3   c1.8,0.8,4.1,1.2,6.9,1.2c2.7,0,4.9-0.4,6.7-1.3c1.8-0.9,3.3-2.2,4.3-4c1.1-1.8,1.6-3.7,1.6-5.7c0-1.9-0.5-3.7-1.4-5.3   c-0.7-1.2-1.6-2.2-2.7-3.1c0.8-0.9,1.3-1.7,1.7-2.5c0.5-1.1,0.8-2.3,0.8-3.7c0-1.8-0.5-3.6-1.4-5.1c-1-1.6-2.3-2.9-4-3.7   c-3.3-1.7-8.2-1.7-11.5,0c-1.7,0.9-3.1,2.1-4,3.6c-1,1.6-1.4,3.3-1.4,5.1c0,1.4,0.3,2.7,0.9,3.9c0.4,0.8,0.9,1.6,1.5,2.4   c-1.1,1-2,2-2.6,3.2c-0.9,1.6-1.3,3.3-1.3,5.1c0,2.1,0.5,4.1,1.6,5.8C1752.7,1352.1,1754.1,1353.4,1755.9,1354.3L1755.9,1354.3z    M1764.3,1332c-0.9,0.8-2.4,0.9-3.3,0c-0.5-0.4-0.7-1-0.7-1.7c0-0.7,0.2-1.2,0.6-1.6c0.4-0.4,0.9-0.6,1.6-0.6   c0.8,0,1.3,0.2,1.8,0.6c0.4,0.4,0.6,0.9,0.6,1.5C1765,1331.1,1764.8,1331.6,1764.3,1332z M1762.8,1340.8c1.1,0,2,0.3,2.8,1   c0.7,0.7,1.1,1.4,1.1,2.3c0,0.9-0.3,1.7-1,2.2c-1.3,1.2-4.4,1.2-5.8-0.1c-0.7-0.6-1-1.4-1-2.3c0-0.8,0.4-1.5,1.1-2.2   C1760.7,1341.2,1761.7,1340.8,1762.8,1340.8L1762.8,1340.8z M1730.2,1397.5c1.9,1.2,4.2,1.9,7,1.9c2.8,0,5.1-0.6,6.9-1.9   c1.8-1.2,3.3-3.2,4.3-5.7c1-2.5,1.5-5.9,1.5-10.2c0-4.3-0.5-7.7-1.5-10.2c-1-2.6-2.6-4.5-4.5-5.8c-2-1.3-4.3-1.9-7-1.9   c-4.1,0-7.4,1.6-9.8,4.8c-2,2.9-3,7.2-3,13.3c0,4.4,0.5,7.6,1.5,10.1C1726.8,1394.4,1728.3,1396.3,1730.2,1397.5z M1733.2,1382   c0-2.9,0.2-5.2,0.6-6.6c0.4-1.3,0.8-2.2,1.4-2.7c0.6-0.4,1.2-0.7,1.9-0.7c0.7,0,1.7,0.2,2.6,1.7c0.6,0.9,1.3,3.1,1.3,7.9   c0,3.8-0.5,6.6-1.4,8.1c-0.8,1.4-1.8,1.5-2.5,1.5c-0.7,0-1.7-0.2-2.7-1.7C1733.9,1388.7,1733.2,1386.6,1733.2,1382L1733.2,1382z    M1674.5,1172.7c1.1,2.5,2.5,4.3,4.4,5.6c1.9,1.2,4.3,1.9,7,1.9c2.8,0,5.1-0.6,6.9-1.9c1.8-1.2,3.3-3.2,4.3-5.7   c1-2.5,1.5-5.9,1.5-10.2c0-4.3-0.5-7.7-1.5-10.2c-1-2.6-2.6-4.5-4.5-5.8c-2-1.3-4.3-1.9-7-1.9c-4.1,0-7.4,1.6-9.8,4.8   c-2,2.9-3,7.2-3,13.3C1672.9,1167,1673.4,1170.3,1674.5,1172.7z M1681.9,1162.7c0-2.9,0.2-5.2,0.6-6.6c0.3-1.3,0.8-2.2,1.4-2.7   c0.6-0.4,1.2-0.7,1.9-0.7c0.7,0,1.7,0.2,2.6,1.7c0.6,0.9,1.3,3.1,1.3,7.9c0,3.8-0.5,6.6-1.4,8.1c-0.8,1.4-1.8,1.5-2.5,1.5   s-1.7-0.2-2.7-1.7C1682.6,1169.4,1681.9,1167.4,1681.9,1162.7L1681.9,1162.7z M1674.5,1260.4c1.1,2.5,2.5,4.3,4.4,5.6   c1.9,1.2,4.3,1.9,7,1.9c2.8,0,5.1-0.6,6.9-1.9c1.8-1.2,3.3-3.2,4.3-5.7c1-2.5,1.5-5.9,1.5-10.3c0-4.3-0.5-7.7-1.5-10.2   c-1-2.6-2.6-4.5-4.5-5.8c-2-1.3-4.3-1.9-7-1.9c-4.1,0-7.4,1.6-9.8,4.8c-2,2.9-3,7.2-3,13.3   C1672.9,1254.7,1673.4,1258,1674.5,1260.4z M1681.9,1250.4c0-2.9,0.2-5.2,0.6-6.6c0.3-1.3,0.8-2.2,1.4-2.7c0.6-0.4,1.2-0.7,1.9-0.7   c0.7,0,1.7,0.2,2.6,1.7c0.6,0.9,1.3,3.1,1.3,7.9c0,3.8-0.5,6.6-1.4,8.1c-0.8,1.4-1.8,1.5-2.5,1.5s-1.7-0.2-2.7-1.7   C1682.6,1257.1,1681.9,1255.1,1681.9,1250.4L1681.9,1250.4z M1762.9,1136.7l9.1-17c1.1-2.1,1.9-3.7,2.2-4.7   c0.3-1.1,0.5-2.2,0.5-3.3c0-2.9-1.1-5.5-3.3-7.7c-2.2-2.2-5.1-3.4-8.4-3.4c-3.2,0-5.9,1.1-8.2,3.2c-2.3,2.2-3.4,4.8-3.4,7.9   c0,3.2,1.1,5.9,3.3,8c1.7,1.7,3.7,2.7,6,3.1l-5.5,10.2L1762.9,1136.7z M1760.2,1111.8c0-0.9,0.3-1.6,0.9-2.2c0.6-0.6,1.2-0.8,2-0.8   c0.7,0,1.3,0.3,1.9,0.8c0.6,0.6,0.9,1.3,0.9,2.2c0,0.9-0.3,1.6-0.8,2.1c-1.1,1.1-2.9,1-4,0   C1760.5,1113.4,1760.2,1112.7,1760.2,1111.8L1760.2,1111.8z M1726.7,1264.7l12-23.5h-13v-8.2h24.3l-0.1,5l-15.4,30.3L1726.7,1264.7   L1726.7,1264.7z M1751.4,1145.3h24.3l-0.1,5l-15.4,30.3l-7.7-3.6l12-23.5h-13L1751.4,1145.3L1751.4,1145.3L1751.4,1145.3z    M1723.8,1398.6h-25.5v-4.7l10.6-10.3c2.4-2.3,3.9-4.1,4.7-5.4c0.7-1.3,1.1-2.4,1.1-3.3c0-0.9-0.3-1.6-0.9-2.1   c-1.2-1.1-3.3-1.2-4.7,0.2c-0.7,0.7-1,1.8-1.1,3.1l0,1.2h-8.8l0.1-1.3c0.2-3.7,1.4-6.7,3.7-8.9c2.3-2.2,5.3-3.3,8.9-3.3   c2.2,0,4.2,0.5,5.9,1.4c1.7,0.9,3.1,2.3,4.2,4c1,1.7,1.5,3.5,1.5,5.3c0,2-0.6,4.3-1.8,6.6c-1.2,2.3-3.2,4.9-6.3,8l-1.5,1.6h9.9   L1723.8,1398.6L1723.8,1398.6L1723.8,1398.6z M1724.2,1325.7l-15.4,30.3l-7.7-3.6l12-23.5h-13v-8.2h24.3L1724.2,1325.7   L1724.2,1325.7z M1737,1319.4l-9.1,17c-1.1,2.1-1.9,3.7-2.2,4.8c-0.3,1.1-0.5,2.2-0.5,3.3c0,2.9,1.1,5.5,3.3,7.7   c2.2,2.2,5.1,3.4,8.4,3.4c3.2,0,5.9-1.1,8.2-3.2c2.3-2.1,3.4-4.8,3.4-7.9c0-3.2-1.1-5.9-3.3-8.1c-1.7-1.7-3.7-2.7-5.9-3.1l5.4-10.2   L1737,1319.4L1737,1319.4z M1739.7,1344.3c0,0.9-0.3,1.6-0.9,2.2c-1.1,1.1-2.8,1.2-4,0c-0.6-0.6-0.9-1.3-0.9-2.2s0.3-1.6,0.8-2.2   c0.5-0.6,1.2-0.8,1.9-0.8c0.9,0,1.5,0.3,2.1,0.8C1739.5,1342.8,1739.7,1343.4,1739.7,1344.3L1739.7,1344.3z M1698.1,1091.7h-25.5   v-4.7l10.6-10.3c2.4-2.3,3.9-4.1,4.7-5.4c0.7-1.3,1.1-2.4,1.1-3.3c0-0.9-0.3-1.6-0.9-2.1c-1.2-1.1-3.4-1.2-4.7,0.2   c-0.7,0.7-1,1.8-1.1,3.1l0,1.2h-8.8l0.1-1.3c0.2-3.7,1.4-6.7,3.7-8.9c2.3-2.2,5.3-3.3,8.9-3.3c2.2,0,4.2,0.4,5.9,1.4   c1.7,0.9,3.2,2.2,4.2,4c1,1.7,1.6,3.5,1.6,5.3c0,2-0.6,4.3-1.8,6.6c-1.2,2.3-3.2,4.9-6.3,8l-1.5,1.6h9.9L1698.1,1091.7   L1698.1,1091.7L1698.1,1091.7z M1713.1,1021.9h-13v-8.2h24.3l-0.1,5l-15.4,30.3l-7.7-3.6L1713.1,1021.9L1713.1,1021.9z    M1687.4,1021.9h-13v-8.2h24.3l-0.1,5l-15.4,30.3l-7.7-3.6L1687.4,1021.9L1687.4,1021.9z M1702.4,1440.1c-2.3-2.1-3.5-4.9-3.7-8.4   l-0.1-1.4h8.8l0.2,1.1c0.2,1.3,0.7,2.3,1.4,2.9c1.3,1.2,3.8,1.2,5.3-0.1c0.7-0.7,1-1.4,1-2.4c0-1-0.5-1.9-1.4-2.6   c-1.1-0.8-2.7-1.2-4.8-1.2l-1.3,0v-7.6l1.2-0.1c1.7-0.1,2.5-0.4,2.9-0.6c0.5-0.2,0.9-0.6,1.2-0.9c0.3-0.4,0.4-0.8,0.4-1.1   c0-0.5-0.2-0.9-0.5-1.2c-0.2-0.2-0.7-0.5-1.5-0.5c-0.6,0-1.1,0.2-1.6,0.5c-0.5,0.3-0.8,0.8-1,1.4l-0.3,0.9h-8.5l0.2-1.4   c0.4-2.6,1.4-4.7,3-6.3c2.3-2.2,5.1-3.3,8.5-3.3c3,0,5.6,0.9,7.7,2.8c2.1,1.9,3.2,4.2,3.2,6.8c0,1.7-0.5,3.2-1.4,4.6   c-0.5,0.7-1.1,1.3-1.8,1.8c1.2,0.6,2.1,1.4,2.9,2.4c1.3,1.7,2,3.6,2,5.8c0,3.2-1.2,5.9-3.7,8.1c-2.4,2.2-5.5,3.3-9.2,3.3   C1707.6,1443.2,1704.7,1442.2,1702.4,1440.1L1702.4,1440.1z M1685.6,1443.2c3.2,0,6-1.1,8.2-3.2c2.3-2.1,3.4-4.8,3.4-7.9   c0-3.2-1.1-5.9-3.3-8.1c-1.7-1.7-3.7-2.7-5.9-3.1l5.4-10.2l-7.7-3.7l-9.1,17c-1.1,2.1-1.9,3.7-2.2,4.8c-0.3,1.1-0.5,2.2-0.5,3.3   c0,2.9,1.1,5.5,3.3,7.7C1679.5,1442.1,1682.3,1443.2,1685.6,1443.2L1685.6,1443.2z M1682.8,1432c0-0.9,0.3-1.6,0.8-2.2   c0.5-0.6,1.1-0.8,1.9-0.8c0.9,0,1.5,0.3,2.1,0.8c0.6,0.6,0.8,1.2,0.8,2.1s-0.3,1.6-0.8,2.2c-1.2,1.1-2.8,1.2-4,0   C1683,1433.6,1682.8,1432.9,1682.8,1432L1682.8,1432z M1674.4,1452.2h24.3l-0.1,5l-15.4,30.3l-7.7-3.6l12-23.5h-13L1674.4,1452.2   L1674.4,1452.2L1674.4,1452.2z M1736.9,1048.6c3.2,0,5.9-1.1,8.2-3.2c2.3-2.1,3.4-4.8,3.4-7.9c0-3.2-1.1-5.9-3.3-8   c-1.7-1.7-3.7-2.7-5.9-3.1l5.4-10.2l-7.7-3.7l-9.1,17c-1.1,2.1-1.9,3.7-2.2,4.8c-0.3,1.1-0.5,2.2-0.5,3.3c0,2.9,1.1,5.5,3.3,7.7   C1730.8,1047.5,1733.6,1048.6,1736.9,1048.6L1736.9,1048.6z M1734,1037.4c0-0.9,0.3-1.6,0.8-2.2c0.5-0.5,1.2-0.8,1.9-0.8   c0.9,0,1.5,0.3,2.1,0.8c0.6,0.6,0.9,1.2,0.9,2.1c0,0.9-0.3,1.6-0.9,2.2c-1.1,1.1-2.8,1.2-4,0C1734.3,1039,1734,1038.3,1734,1037.4   L1734,1037.4z M1677.2,1396.8c-2.3-1.7-3.8-4.1-4.4-7l-0.4-1.6h9.1l0.4,0.7c0.4,0.8,0.9,1.3,1.5,1.7c1.4,0.9,3.3,0.7,4.5-0.5   c0.7-0.7,1.1-1.6,1.1-2.8c0-1.1-0.3-2-1-2.7c-1-1-2.2-1.3-3.7-0.7c-0.5,0.3-1.1,0.7-1.6,1.2l-0.5,0.5l-7.1-1.5l4.5-19.8h17.8v8.1   h-11l-0.7,2.8c0.1,0,0.2,0,0.4,0c3.4,0,6.2,1.1,8.4,3.3c2.2,2.2,3.3,5,3.3,8.4c0,3.4-1.2,6.3-3.7,8.7c-2.4,2.3-5.4,3.5-8.9,3.5   C1682.2,1399.4,1679.5,1398.5,1677.2,1396.8L1677.2,1396.8z M1722.9,1064.5c-1-2.6-2.6-4.5-4.5-5.8c-2-1.3-4.3-1.9-7-1.9   c-4.1,0-7.4,1.6-9.8,4.8c-2,2.9-3,7.2-3,13.3c0,4.3,0.5,7.6,1.5,10.1c1,2.5,2.5,4.3,4.4,5.6c1.9,1.2,4.3,1.9,7,1.9   c2.8,0,5.1-0.6,6.9-1.9c1.8-1.2,3.3-3.2,4.4-5.7c0.4-1.1,0.8-2.4,1.1-3.8v4.1h14.4v6.5h8.8v-6.5h2.9v-8.1h-2.9v-20.3h-8.3   l-14.4,20.6c0.1-0.9,0.1-1.8,0.1-2.8C1724.4,1070.3,1723.9,1066.9,1722.9,1064.5L1722.9,1064.5z M1715.4,1074.7   c0,3.8-0.5,6.6-1.4,8.1c-0.8,1.4-1.8,1.5-2.5,1.5c-0.7,0-1.7-0.2-2.7-1.7c-0.6-0.9-1.3-2.9-1.3-7.6c0-2.9,0.2-5.2,0.6-6.6   c0.4-1.3,0.8-2.2,1.4-2.7c0.6-0.4,1.2-0.7,1.9-0.7c0.7,0,1.7,0.2,2.6,1.7C1714.7,1067.7,1715.4,1069.9,1715.4,1074.7L1715.4,1074.7   z M1734.6,1077.1l3.6-5.1v5.1H1734.6z M1826.7,1082.9l-0.4-1.6h9.1l0.4,0.7c0.4,0.8,0.9,1.3,1.5,1.7c1.4,0.9,3.4,0.7,4.6-0.5   c0.7-0.7,1.1-1.6,1.1-2.8c0-1.1-0.3-2-1-2.7c-1-1-2.2-1.3-3.7-0.6c-0.5,0.3-1.1,0.7-1.6,1.2l-0.5,0.5l-7.1-1.5l4.5-19.8h17.8v8.1   h-11l-0.7,2.8c0.1,0,0.2,0,0.4,0c3.3,0,6.2,1.1,8.4,3.3c2.2,2.2,3.3,5,3.3,8.4c0,3.4-1.2,6.3-3.7,8.7c-2.4,2.4-5.4,3.5-8.9,3.5   c-3.1,0-5.8-0.8-8.1-2.6C1828.8,1088.2,1827.3,1085.8,1826.7,1082.9L1826.7,1082.9z M1841.3,1021.9h-13v-8.2h24.3l-0.1,5L1837,1049   l-7.7-3.6L1841.3,1021.9L1841.3,1021.9z M1811.9,1035.2l-5.5,10.2l7.7,3.7l9.1-17c1.2-2.1,1.9-3.7,2.2-4.7c0.3-1.1,0.5-2.2,0.5-3.3   c0-2.9-1.1-5.5-3.3-7.7c-2.2-2.2-5.1-3.4-8.4-3.4c-3.2,0-5.9,1.1-8.2,3.2c-2.3,2.1-3.4,4.8-3.4,7.9c0,3.2,1.1,5.9,3.3,8   C1807.7,1033.8,1809.7,1034.8,1811.9,1035.2L1811.9,1035.2z M1811.5,1024.1c0-0.9,0.3-1.6,0.9-2.2c0.6-0.6,1.2-0.8,2-0.8   c0.7,0,1.3,0.3,1.9,0.8c0.6,0.6,0.9,1.3,0.9,2.2c0,0.9-0.3,1.6-0.8,2.1c-1.1,1.1-2.9,1-4,0   C1811.7,1025.7,1811.5,1025,1811.5,1024.1L1811.5,1024.1z M1852.1,1034.1v7.2h14.4v6.5h8.8v-6.5h2.9v-8.1h-2.9v-20.3h-8.3   l-14.6,20.8L1852.1,1034.1L1852.1,1034.1z M1862.9,1033.2l3.6-5.1v5.1H1862.9z M1788.2,1048.6c3.2,0,6-1.1,8.2-3.2   c2.3-2.1,3.4-4.8,3.4-7.9c0-3.2-1.1-5.9-3.3-8c-1.7-1.7-3.7-2.7-5.9-3.1l5.4-10.2l-7.7-3.7l-9.1,17c-1.1,2.1-1.9,3.7-2.2,4.8   c-0.3,1.1-0.5,2.2-0.5,3.3c0,2.9,1.1,5.5,3.3,7.7C1782.1,1047.5,1784.9,1048.6,1788.2,1048.6L1788.2,1048.6z M1785.3,1037.4   c0-0.9,0.3-1.6,0.8-2.2c0.5-0.5,1.2-0.8,1.9-0.8c0.8,0,1.5,0.3,2.1,0.8c0.6,0.6,0.9,1.2,0.9,2.1c0,0.9-0.3,1.6-0.9,2.2   c-1.1,1.1-2.8,1.2-4,0C1785.6,1039,1785.3,1038.3,1785.3,1037.4L1785.3,1037.4z M1755.9,1047.4c1.8,0.8,4.1,1.2,6.9,1.2   c2.7,0,4.9-0.4,6.7-1.3c1.8-0.9,3.3-2.2,4.3-4c1.1-1.8,1.6-3.7,1.6-5.7c0-1.9-0.5-3.7-1.4-5.3c-0.7-1.2-1.6-2.2-2.7-3.1   c0.8-0.9,1.3-1.7,1.7-2.5c0.5-1.1,0.8-2.3,0.8-3.7c0-1.8-0.5-3.5-1.4-5.1c-1-1.6-2.3-2.9-4-3.7c-3.3-1.7-8.2-1.7-11.5,0   c-1.7,0.9-3.1,2.1-4,3.6c-1,1.5-1.4,3.3-1.4,5.1c0,1.4,0.3,2.7,0.9,3.9c0.4,0.8,0.9,1.6,1.5,2.4c-1.1,1-2,2-2.6,3.2   c-0.9,1.6-1.3,3.3-1.3,5.1c0,2.1,0.5,4.1,1.6,5.8C1752.7,1045.2,1754.1,1046.5,1755.9,1047.4L1755.9,1047.4z M1764.3,1025.1   c-0.9,0.8-2.4,0.9-3.3,0c-0.5-0.5-0.7-1-0.7-1.7c0-0.7,0.2-1.2,0.6-1.6c0.4-0.4,0.9-0.6,1.6-0.6c0.8,0,1.3,0.2,1.8,0.6   c0.4,0.4,0.6,0.9,0.6,1.5C1765,1024.2,1764.8,1024.7,1764.3,1025.1L1764.3,1025.1z M1762.8,1033.9c1.1,0,2,0.3,2.8,1   c0.7,0.7,1.1,1.4,1.1,2.3c0,0.9-0.3,1.7-1,2.2c-1.3,1.2-4.4,1.2-5.8-0.1c-0.7-0.7-1-1.4-1-2.3c0-0.8,0.4-1.5,1.1-2.2   C1760.7,1034.3,1761.7,1033.9,1762.8,1033.9L1762.8,1033.9z M1798.4,1056.8h-8.3l-14.6,20.8l-0.2,0.3v7.2h14.4v6.5h8.8v-6.5h2.9   v-8.1h-2.9V1056.8L1798.4,1056.8L1798.4,1056.8z M1785.9,1077.1l3.6-5.1v5.1H1785.9z M1811.9,1079l-5.5,10.2l7.7,3.7l9.1-17   c1.2-2.1,1.9-3.7,2.2-4.7c0.3-1.1,0.5-2.2,0.5-3.3c0-2.9-1.1-5.5-3.3-7.7c-2.2-2.2-5.1-3.4-8.4-3.4c-3.2,0-5.9,1.1-8.2,3.2   c-2.3,2.1-3.4,4.8-3.4,7.9c0,3.2,1.1,5.9,3.3,8C1807.7,1077.6,1809.7,1078.6,1811.9,1079z M1811.5,1068c0-0.9,0.3-1.6,0.9-2.2   c0.6-0.6,1.2-0.8,2-0.8c0.7,0,1.3,0.3,1.9,0.8c0.6,0.6,0.9,1.3,0.9,2.2c0,0.9-0.3,1.6-0.8,2.1c-1.1,1.1-2.9,1.1-4,0   C1811.7,1069.6,1811.5,1068.9,1811.5,1068L1811.5,1068z M1984.9,1409.5c-2-1.3-4.3-1.9-7-1.9c-4.1,0-7.4,1.6-9.8,4.8   c-2,2.9-3,7.2-3,13.3c0,4.4,0.5,7.6,1.5,10.1c1,2.5,2.5,4.4,4.4,5.6c1.9,1.2,4.3,1.9,7,1.9c2.8,0,5.1-0.6,6.9-1.9   c1.8-1.2,3.3-3.2,4.3-5.7c1-2.5,1.5-5.9,1.5-10.2c0-4.3-0.5-7.7-1.5-10.2C1988.3,1412.7,1986.8,1410.7,1984.9,1409.5z M1982,1425.5   c0,3.8-0.5,6.6-1.4,8.1c-0.8,1.4-1.8,1.5-2.5,1.5s-1.7-0.2-2.7-1.7c-0.6-0.9-1.3-2.9-1.3-7.6c0-2.9,0.2-5.2,0.6-6.6   c0.4-1.3,0.8-2.2,1.4-2.7c0.6-0.4,1.2-0.7,1.9-0.7c0.7,0,1.7,0.2,2.6,1.7C1981.3,1418.5,1982,1420.6,1982,1425.5L1982,1425.5z    M1944.7,1478.2h9.9v8.1h-25.5v-4.7l10.6-10.3c2.4-2.3,3.9-4.1,4.7-5.4c0.7-1.2,1.1-2.4,1.1-3.3c0-0.9-0.3-1.6-0.9-2.1   c-1.2-1.1-3.3-1.2-4.7,0.2c-0.7,0.7-1,1.8-1.1,3.1l0,1.2h-8.8l0.1-1.3c0.2-3.7,1.4-6.7,3.7-8.9c2.3-2.2,5.3-3.3,8.9-3.3   c2.2,0,4.2,0.5,5.9,1.4c1.7,0.9,3.1,2.3,4.2,4c1,1.7,1.6,3.5,1.6,5.3c0,2-0.6,4.3-1.8,6.6c-1.2,2.3-3.2,4.9-6.3,8L1944.7,1478.2z    M1954.7,1434.3h9.9v8.1h-25.5v-4.7l10.5-10.3c2.4-2.3,3.9-4.1,4.7-5.4c0.7-1.3,1.1-2.4,1.1-3.3c0-0.9-0.3-1.6-0.9-2.1   c-1.2-1.1-3.3-1.2-4.7,0.2c-0.7,0.7-1,1.8-1.1,3.1l0,1.2h-8.8l0.1-1.3c0.2-3.7,1.4-6.7,3.7-8.9s5.3-3.3,8.9-3.3   c2.2,0,4.2,0.5,5.9,1.4c1.7,0.9,3.1,2.3,4.2,4c1,1.7,1.6,3.5,1.6,5.3c0,2-0.6,4.3-1.8,6.6c-1.2,2.3-3.2,4.9-6.3,8L1954.7,1434.3   L1954.7,1434.3z M1893.2,1464.8l5.4-10.2l-7.7-3.7l-9.1,17c-1.1,2.1-1.9,3.7-2.2,4.8c-0.3,1.1-0.5,2.2-0.5,3.3   c0,2.9,1.1,5.5,3.3,7.7c2.2,2.2,5.1,3.4,8.4,3.4c3.2,0,6-1.1,8.2-3.2c2.3-2.1,3.4-4.8,3.4-7.9c0-3.2-1.1-5.9-3.3-8.1   C1897.4,1466.3,1895.4,1465.2,1893.2,1464.8L1893.2,1464.8z M1893.6,1475.9c0,0.9-0.3,1.6-0.8,2.2c-1.2,1.1-2.8,1.2-4,0   c-0.6-0.6-0.9-1.3-0.9-2.2s0.3-1.6,0.8-2.2c0.5-0.5,1.1-0.8,1.9-0.8c0.8,0,1.5,0.3,2.1,0.8   C1893.3,1474.3,1893.6,1475,1893.6,1475.9L1893.6,1475.9z M1700.1,1452.2h24.3l-0.1,5l-15.4,30.3l-7.7-3.6l12-23.5h-13   L1700.1,1452.2L1700.1,1452.2z M1887.5,1070.3h-8.8l0.1-1.3c0.2-3.7,1.4-6.7,3.7-8.9c2.3-2.2,5.3-3.3,8.9-3.3   c2.2,0,4.2,0.4,5.9,1.4c1.7,0.9,3.2,2.2,4.2,4c1,1.7,1.6,3.5,1.6,5.3c0,2-0.6,4.3-1.8,6.6c-1.2,2.3-3.2,4.9-6.3,8l-1.5,1.6h9.9v8.1   h-25.5v-4.7l10.6-10.3c2.4-2.3,3.9-4.1,4.7-5.4c0.7-1.3,1.1-2.4,1.1-3.3c0-0.9-0.3-1.6-0.9-2.1c-1.2-1.1-3.4-1.2-4.7,0.2   c-0.7,0.7-1,1.8-1.1,3.1L1887.5,1070.3L1887.5,1070.3z M2027.2,1336.4c-1.7-1.7-3.7-2.7-5.9-3.1l5.4-10.2l-7.7-3.7l-9.1,17   c-1.1,2.1-1.9,3.7-2.2,4.8c-0.3,1.1-0.5,2.2-0.5,3.3c0,2.9,1.1,5.5,3.3,7.7c2.2,2.2,5.1,3.4,8.4,3.4c3.2,0,5.9-1.1,8.2-3.2   c2.3-2.1,3.4-4.8,3.4-7.9C2030.5,1341.2,2029.4,1338.5,2027.2,1336.4L2027.2,1336.4z M2021.7,1344.3c0,0.9-0.3,1.6-0.9,2.2   c-1.1,1.1-2.8,1.2-4,0c-0.6-0.6-0.9-1.3-0.9-2.2s0.3-1.6,0.8-2.2c0.5-0.6,1.2-0.8,1.9-0.8c0.9,0,1.6,0.3,2.1,0.8   C2021.4,1342.8,2021.7,1343.4,2021.7,1344.3L2021.7,1344.3z M1983,1390.5h9.9v8.1h-25.5v-4.7l10.6-10.3c2.4-2.3,3.9-4.1,4.7-5.4   c0.7-1.3,1.1-2.4,1.1-3.3c0-0.9-0.3-1.6-0.9-2.1c-1.2-1.1-3.4-1.2-4.7,0.2c-0.7,0.7-1,1.8-1.1,3.1l0,1.2h-8.8l0.1-1.3   c0.2-3.7,1.4-6.7,3.7-8.9c2.3-2.2,5.3-3.3,8.9-3.3c2.2,0,4.2,0.5,5.9,1.4c1.7,0.9,3.1,2.3,4.2,4c1,1.7,1.6,3.5,1.6,5.3   c0,2-0.6,4.3-1.8,6.6c-1.2,2.3-3.2,4.9-6.3,8L1983,1390.5L1983,1390.5z M2013.2,1365.6c-2-1.3-4.3-1.9-7-1.9   c-4.1,0-7.4,1.6-9.8,4.8c-2,2.9-3,7.2-3,13.3c0,4.4,0.5,7.6,1.5,10.1c1,2.5,2.5,4.4,4.4,5.6c1.9,1.2,4.3,1.9,7,1.9   c2.8,0,5.1-0.6,6.9-1.9c1.8-1.2,3.3-3.2,4.3-5.7c1.1-2.5,1.5-5.9,1.5-10.2c0-4.3-0.5-7.7-1.5-10.2   C2016.6,1368.8,2015.1,1366.9,2013.2,1365.6z M2010.3,1381.6c0,3.8-0.5,6.6-1.4,8.1c-0.8,1.4-1.8,1.5-2.5,1.5   c-0.7,0-1.7-0.2-2.7-1.7c-0.6-0.9-1.3-2.9-1.3-7.6c0-2.9,0.2-5.2,0.6-6.6c0.3-1.3,0.8-2.2,1.4-2.7c0.6-0.4,1.2-0.7,1.9-0.7   c0.7,0,1.7,0.2,2.6,1.7C2009.6,1374.7,2010.3,1376.8,2010.3,1381.6L2010.3,1381.6z M1925.3,1466.5c2.2,2.2,3.3,5,3.3,8.4   c0,3.4-1.2,6.3-3.7,8.7c-2.4,2.3-5.4,3.5-8.9,3.5c-3.1,0-5.8-0.9-8.1-2.6c-2.3-1.7-3.8-4.1-4.4-7l-0.4-1.6h9.1l0.4,0.7   c0.4,0.8,0.9,1.3,1.5,1.7c1.4,0.9,3.4,0.7,4.6-0.5c0.7-0.7,1.1-1.6,1.1-2.8c0-1.1-0.3-2-1-2.7c-1-1-2.2-1.3-3.7-0.7   c-0.5,0.3-1.1,0.7-1.6,1.2l-0.5,0.5l-7.1-1.5l4.5-19.8h17.8v8.1h-11l-0.7,2.8c0.1,0,0.3,0,0.4,0   C1920.3,1463.2,1923.1,1464.3,1925.3,1466.5L1925.3,1466.5z M1739.3,1421l5.4-10.2l-7.7-3.7l-9.1,17c-1.1,2.1-1.9,3.7-2.2,4.8   c-0.3,1.1-0.5,2.2-0.5,3.3c0,2.9,1.1,5.5,3.3,7.7c2.2,2.2,5.1,3.4,8.4,3.4c3.2,0,5.9-1.1,8.2-3.2c2.3-2.1,3.4-4.8,3.4-7.9   c0-3.2-1.1-5.9-3.3-8.1C1743.5,1422.4,1741.5,1421.4,1739.3,1421L1739.3,1421z M1739.7,1432c0,0.9-0.3,1.6-0.9,2.2   c-1.1,1.1-2.8,1.2-4,0c-0.6-0.6-0.9-1.3-0.9-2.2s0.3-1.6,0.8-2.2c0.5-0.6,1.2-0.8,1.9-0.8c0.9,0,1.5,0.3,2.1,0.8   C1739.5,1430.4,1739.7,1431.1,1739.7,1432L1739.7,1432z M1771.5,1467.7c0.8-0.9,1.3-1.7,1.7-2.5c0.5-1.1,0.8-2.3,0.8-3.7   c0-1.8-0.5-3.6-1.4-5.1c-1-1.6-2.3-2.8-4-3.7c-3.3-1.7-8.2-1.7-11.5,0c-1.7,0.8-3.1,2.1-4,3.6c-1,1.6-1.4,3.3-1.4,5.1   c0,1.4,0.3,2.7,0.9,3.9c0.4,0.8,0.9,1.6,1.5,2.4c-1.1,1-2,2-2.6,3.2c-0.9,1.6-1.3,3.3-1.3,5.1c0,2.1,0.5,4.1,1.6,5.8   c1.1,1.7,2.5,3.1,4.3,3.9c1.8,0.8,4.1,1.2,6.9,1.2c2.7,0,4.9-0.4,6.7-1.3c1.8-0.9,3.3-2.2,4.3-4c1.1-1.8,1.6-3.7,1.6-5.7   c0-1.9-0.4-3.7-1.4-5.3C1773.5,1469.6,1772.6,1468.6,1771.5,1467.7L1771.5,1467.7z M1764.3,1463.6c-0.9,0.9-2.4,0.9-3.3,0   c-0.5-0.4-0.7-1-0.7-1.7c0-0.7,0.2-1.2,0.6-1.6c0.4-0.4,0.9-0.6,1.6-0.6c0.8,0,1.3,0.2,1.8,0.6c0.4,0.4,0.6,0.9,0.6,1.5   C1765,1462.6,1764.8,1463.2,1764.3,1463.6L1764.3,1463.6z M1759.9,1473.4c0.8-0.7,1.7-1,2.9-1c1.1,0,2,0.3,2.8,1   c0.7,0.7,1.1,1.4,1.1,2.3c0,0.9-0.3,1.6-1,2.2c-1.3,1.2-4.4,1.2-5.8-0.1c-0.7-0.6-1-1.4-1-2.3   C1758.8,1474.7,1759.2,1474,1759.9,1473.4L1759.9,1473.4z M1739.3,1464.8l5.4-10.2l-7.7-3.7l-9.1,17c-1.1,2.1-1.9,3.7-2.2,4.8   c-0.3,1.1-0.5,2.2-0.5,3.3c0,2.9,1.1,5.5,3.3,7.7c2.2,2.2,5.1,3.4,8.4,3.4c3.2,0,5.9-1.1,8.2-3.2c2.3-2.1,3.4-4.8,3.4-7.9   c0-3.2-1.1-5.9-3.3-8.1C1743.5,1466.3,1741.5,1465.2,1739.3,1464.8L1739.3,1464.8z M1739.7,1475.9c0,0.9-0.3,1.6-0.9,2.2   c-1.1,1.1-2.8,1.2-4,0c-0.6-0.6-0.9-1.3-0.9-2.2s0.3-1.6,0.8-2.2c0.5-0.5,1.2-0.8,1.9-0.8c0.9,0,1.5,0.3,2.1,0.8   C1739.5,1474.3,1739.7,1475,1739.7,1475.9L1739.7,1475.9z M1790.6,1464.8l5.4-10.2l-7.7-3.7l-9.1,17c-1.1,2.1-1.9,3.7-2.2,4.8   c-0.3,1.1-0.5,2.2-0.5,3.3c0,2.9,1.1,5.5,3.3,7.7c2.2,2.2,5.1,3.4,8.4,3.4c3.2,0,6-1.1,8.2-3.2c2.3-2.1,3.4-4.8,3.4-7.9   c0-3.2-1.1-5.9-3.3-8.1C1794.8,1466.3,1792.8,1465.2,1790.6,1464.8L1790.6,1464.8z M1791,1475.9c0,0.9-0.3,1.6-0.9,2.2   c-1.1,1.1-2.8,1.2-4,0c-0.6-0.6-0.9-1.3-0.9-2.2s0.3-1.6,0.8-2.2c0.5-0.5,1.2-0.8,1.9-0.8c0.8,0,1.5,0.3,2.1,0.8   C1790.7,1474.3,1791,1475,1791,1475.9L1791,1475.9z M1852.4,1457.2l-15.4,30.3l-7.7-3.6l12-23.5h-13v-8.2h24.3L1852.4,1457.2   L1852.4,1457.2z M1875.3,1451.4h-8.3l-14.6,20.8l-0.2,0.3v7.2h14.4v6.5h8.8v-6.5h2.9v-8.1h-2.9V1451.4L1875.3,1451.4z    M1862.9,1471.7l3.6-5.1v5.1H1862.9z M1814.2,1451.4c-3.2,0-5.9,1.1-8.2,3.2c-2.3,2.1-3.4,4.8-3.4,7.9c0,3.2,1.1,5.9,3.3,8   c1.7,1.7,3.7,2.7,6,3.1l-5.5,10.2l7.7,3.7l9.1-17c1.2-2.1,1.9-3.7,2.2-4.7c0.3-1.1,0.5-2.2,0.5-3.3c0-2.9-1.1-5.5-3.3-7.7   C1820.4,1452.5,1817.6,1451.4,1814.2,1451.4z M1817.1,1462.6c0,0.9-0.3,1.6-0.8,2.1c-1.1,1.1-2.9,1-4,0c-0.6-0.6-0.8-1.3-0.8-2.1   c0-0.9,0.3-1.6,0.9-2.2c0.6-0.6,1.2-0.8,2-0.8c0.7,0,1.3,0.3,1.9,0.8C1816.9,1461,1817.1,1461.7,1817.1,1462.6L1817.1,1462.6z    M1971.8,1257.4l-1.5,1.6h9.9v8.1h-25.5v-4.7l10.6-10.3c2.4-2.3,3.9-4.1,4.7-5.4c0.7-1.3,1.1-2.4,1.1-3.3c0-0.9-0.3-1.6-0.9-2.1   c-1.2-1.1-3.4-1.2-4.7,0.2c-0.7,0.7-1,1.8-1.1,3.1l0,1.2h-8.8l0.1-1.3c0.2-3.7,1.4-6.7,3.7-8.9c2.3-2.2,5.3-3.3,8.9-3.3   c2.2,0,4.2,0.4,5.9,1.4c1.7,0.9,3.2,2.3,4.2,4c1,1.7,1.6,3.5,1.6,5.3c0,2-0.6,4.3-1.8,6.6C1977,1251.7,1974.9,1254.3,1971.8,1257.4   L1971.8,1257.4z M1942.5,1193.2c-2,2.9-3,7.2-3,13.3c0,4.3,0.5,7.6,1.5,10.1c1,2.5,2.5,4.3,4.4,5.6c1.9,1.2,4.3,1.9,7,1.9   c2.8,0,5.1-0.6,6.9-1.9c1.8-1.2,3.3-3.2,4.4-5.7c1-2.5,1.5-5.9,1.5-10.2c0-4.3-0.5-7.7-1.5-10.2c-1-2.6-2.6-4.5-4.5-5.8   c-2-1.3-4.3-1.9-7-1.9C1948.1,1188.3,1944.8,1189.9,1942.5,1193.2z M1955,1198.3c0.6,0.9,1.3,3.1,1.3,7.9c0,3.8-0.5,6.6-1.4,8.1   c-0.8,1.4-1.8,1.5-2.4,1.5c-0.7,0-1.7-0.2-2.7-1.7c-0.6-0.9-1.3-2.9-1.3-7.6c0-2.9,0.2-5.2,0.6-6.6c0.4-1.3,0.8-2.2,1.4-2.7   c0.6-0.4,1.2-0.7,1.9-0.7C1953.1,1196.6,1954.1,1196.8,1955,1198.3z M1890.8,1048.6c3.2,0,6-1.1,8.2-3.2c2.3-2.1,3.4-4.8,3.4-7.9   c0-3.2-1.1-5.9-3.3-8c-1.7-1.7-3.7-2.7-5.9-3.1l5.4-10.2l-7.7-3.7l-9.1,17c-1.1,2.1-1.9,3.7-2.2,4.8c-0.3,1.1-0.5,2.2-0.5,3.3   c0,2.9,1.1,5.5,3.3,7.7C1884.7,1047.5,1887.5,1048.6,1890.8,1048.6L1890.8,1048.6z M1887.9,1037.4c0-0.9,0.3-1.6,0.8-2.2   c0.5-0.5,1.1-0.8,1.9-0.8c0.8,0,1.5,0.3,2.1,0.8c0.6,0.6,0.8,1.2,0.8,2.1c0,0.9-0.3,1.6-0.8,2.2c-1.2,1.1-2.8,1.2-4,0   C1888.2,1039,1887.9,1038.3,1887.9,1037.4L1887.9,1037.4z M1916.5,1231.7l-9.1,17c-1.1,2.1-1.9,3.7-2.2,4.8   c-0.3,1.1-0.5,2.2-0.5,3.3c0,2.9,1.1,5.5,3.3,7.7c2.2,2.2,5.1,3.4,8.4,3.4c3.2,0,6-1.1,8.2-3.2c2.3-2.1,3.4-4.8,3.4-7.9   c0-3.2-1.1-5.9-3.3-8.1c-1.7-1.7-3.7-2.7-5.9-3.1l5.4-10.2L1916.5,1231.7L1916.5,1231.7z M1919.2,1256.6c0,0.9-0.3,1.6-0.9,2.2   c-1.1,1.1-2.8,1.2-4,0c-0.6-0.6-0.9-1.3-0.9-2.2s0.3-1.6,0.8-2.2c0.5-0.6,1.1-0.8,1.9-0.8c0.8,0,1.5,0.3,2.1,0.8   C1919,1255.1,1919.2,1255.7,1919.2,1256.6L1919.2,1256.6z M1967.7,1144l-9.1,17c-1.1,2.1-1.9,3.7-2.2,4.8c-0.3,1.1-0.5,2.2-0.5,3.3   c0,2.9,1.1,5.5,3.3,7.7c2.2,2.2,5.1,3.4,8.4,3.4c3.2,0,6-1.1,8.2-3.2c2.3-2.1,3.4-4.8,3.4-7.9c0-3.2-1.1-5.9-3.3-8.1   c-1.7-1.7-3.7-2.7-5.9-3.1l5.4-10.2L1967.7,1144L1967.7,1144z M1970.4,1168.9c0,0.9-0.3,1.6-0.8,2.2c-1.1,1.1-2.8,1.2-4,0   c-0.6-0.6-0.9-1.3-0.9-2.2s0.3-1.6,0.8-2.2c0.5-0.5,1.2-0.8,1.9-0.8c0.8,0,1.5,0.3,2.1,0.8   C1970.2,1167.4,1970.4,1168,1970.4,1168.9L1970.4,1168.9z M1930.6,1213.5l-1.5,1.6h9.9v8.1h-25.5v-4.7l10.6-10.3   c2.4-2.3,3.9-4.1,4.7-5.4c0.7-1.3,1.1-2.4,1.1-3.3c0-0.9-0.3-1.6-0.9-2.1c-1.2-1.1-3.4-1.2-4.7,0.2c-0.7,0.7-1,1.8-1.1,3.1l0,1.2   h-8.8l0.1-1.3c0.2-3.7,1.4-6.7,3.7-8.9c2.3-2.2,5.3-3.3,8.9-3.3c2.2,0,4.2,0.4,5.9,1.4c1.7,0.9,3.2,2.2,4.2,4   c1,1.7,1.6,3.5,1.6,5.3c0,2-0.6,4.3-1.8,6.6C1935.8,1207.8,1933.7,1210.4,1930.6,1213.5L1930.6,1213.5z M1892.3,1287.2   c0,3.2,1.1,5.9,3.3,8c1.7,1.7,3.7,2.7,6,3.1l-5.5,10.2l7.7,3.7l9.1-17c1.2-2.1,1.9-3.7,2.2-4.7c0.3-1.1,0.5-2.2,0.5-3.3   c0-2.9-1.1-5.5-3.3-7.7c-2.2-2.2-5.1-3.4-8.4-3.4c-3.2,0-5.9,1.1-8.2,3.2C1893.4,1281.4,1892.3,1284.1,1892.3,1287.2L1892.3,1287.2   z M1901.1,1287.2c0-0.9,0.3-1.6,0.9-2.2c0.6-0.6,1.2-0.8,2-0.8c0.7,0,1.3,0.3,1.9,0.8c0.6,0.6,0.9,1.3,0.9,2.2   c0,0.9-0.3,1.6-0.8,2.1c-1.1,1.1-2.9,1.1-4,0C1901.4,1288.8,1901.1,1288.1,1901.1,1287.2L1901.1,1287.2z M1928.8,1311.7   c-3.1,0-5.8-0.9-8.1-2.6c-2.3-1.7-3.8-4.1-4.4-7l-0.4-1.6h9.1l0.4,0.7c0.4,0.8,0.9,1.3,1.5,1.7c1.4,0.8,3.3,0.7,4.6-0.5   c0.7-0.7,1.1-1.6,1.1-2.8c0-1.1-0.3-2-1-2.7c-1-1-2.2-1.3-3.7-0.6c-0.5,0.3-1.1,0.7-1.6,1.2l-0.5,0.5l-7.1-1.5l4.5-19.8h17.8v8.1   h-11l-0.7,2.8c0.1,0,0.2,0,0.4,0c3.3,0,6.2,1.1,8.4,3.3c2.2,2.2,3.3,5,3.3,8.4c0,3.4-1.2,6.3-3.7,8.7   C1935.3,1310.5,1932.3,1311.7,1928.8,1311.7L1928.8,1311.7z M1949.1,1146.4c-2-1.3-4.3-1.9-7-1.9c-4.1,0-7.4,1.6-9.8,4.8   c-2,2.9-3,7.2-3,13.3c0,4.3,0.5,7.6,1.5,10.1c1,2.5,2.5,4.3,4.4,5.6c1.9,1.2,4.3,1.9,7,1.9c2.8,0,5.1-0.6,6.9-1.9   c1.8-1.2,3.3-3.2,4.3-5.7c1-2.5,1.5-5.9,1.5-10.2c0-4.3-0.5-7.7-1.5-10.2C1952.5,1149.6,1951,1147.7,1949.1,1146.4z M1946.1,1162.4   c0,3.8-0.5,6.6-1.4,8.1c-0.8,1.4-1.8,1.5-2.5,1.5s-1.7-0.2-2.7-1.7c-0.6-0.9-1.3-2.9-1.3-7.6c0-2.9,0.2-5.2,0.6-6.6   c0.4-1.3,0.8-2.2,1.4-2.7c0.6-0.4,1.2-0.7,1.9-0.7c0.7,0,1.7,0.2,2.6,1.7C1945.4,1155.4,1946.1,1157.5,1946.1,1162.4L1946.1,1162.4   z M1924.5,1352.3c2.3-2.1,3.4-4.8,3.4-7.9c0-3.2-1.1-5.9-3.3-8.1c-1.7-1.7-3.7-2.7-5.9-3.1l5.4-10.2l-7.7-3.7l-9.1,17   c-1.1,2.1-1.9,3.7-2.2,4.8c-0.3,1.1-0.5,2.2-0.5,3.3c0,2.9,1.1,5.5,3.3,7.7c2.2,2.2,5.1,3.4,8.4,3.4   C1919.5,1355.5,1922.3,1354.4,1924.5,1352.3L1924.5,1352.3z M1913.4,1344.3c0-0.9,0.3-1.6,0.8-2.2c0.5-0.6,1.1-0.8,1.9-0.8   c0.8,0,1.5,0.3,2.1,0.8c0.6,0.6,0.8,1.2,0.8,2.1s-0.3,1.6-0.8,2.2c-1.2,1.1-2.8,1.2-4,0C1913.7,1345.9,1913.4,1345.2,1913.4,1344.3   L1913.4,1344.3z M1984.5,1301.2l-1.5,1.6h9.9v8.1h-25.5v-4.7l10.6-10.3c2.4-2.3,3.9-4.1,4.7-5.4c0.7-1.3,1.1-2.4,1.1-3.3   c0-0.9-0.3-1.6-0.9-2.1c-1.2-1.1-3.4-1.2-4.7,0.2c-0.7,0.7-1,1.8-1.1,3.1l0,1.2h-8.8l0.1-1.3c0.2-3.7,1.4-6.7,3.7-8.9   c2.3-2.2,5.3-3.3,8.9-3.3c2.2,0,4.2,0.5,5.9,1.4c1.7,0.9,3.1,2.3,4.2,4c1,1.7,1.6,3.5,1.6,5.3c0,2-0.6,4.3-1.8,6.6   C1989.7,1295.5,1987.6,1298.1,1984.5,1301.2L1984.5,1301.2z M1918.2,1100.6l-14.6,20.8l-0.2,0.3v7.2h14.4v6.5h8.8v-6.5h2.9v-8.1   h-2.9v-20.3L1918.2,1100.6L1918.2,1100.6z M1914.1,1120.9l3.6-5.1v5.1H1914.1z M1970,1127.1c0.7-0.7,1.1-1.6,1.1-2.8   c0-1.1-0.3-2-1-2.7c-1-1-2.2-1.3-3.7-0.6c-0.5,0.3-1.1,0.7-1.6,1.2l-0.5,0.5l-7.1-1.5l4.5-19.8h17.8v8.1h-11l-0.7,2.8   c0.1,0,0.2,0,0.4,0c3.4,0,6.2,1.1,8.4,3.3c2.2,2.2,3.3,5,3.3,8.4c0,3.4-1.2,6.3-3.7,8.7c-2.4,2.4-5.4,3.5-8.9,3.5   c-3.1,0-5.8-0.8-8.1-2.6c-2.3-1.7-3.8-4.1-4.4-7l-0.4-1.6h9.1l0.4,0.7c0.4,0.8,0.9,1.3,1.5,1.7   C1966.8,1128.5,1968.7,1128.3,1970,1127.1L1970,1127.1z M1965,1310.9v-6.5h2.9v-8.1h-2.9V1276h-8.3l-14.6,20.8l-0.2,0.3v7.2h14.4   v6.5L1965,1310.9L1965,1310.9z M1952.5,1296.3l3.6-5.1v5.1H1952.5z M1942.3,1356l9.1-17c1.1-2.1,1.9-3.7,2.2-4.7   c0.3-1.1,0.5-2.2,0.5-3.3c0-2.9-1.1-5.5-3.3-7.7c-2.2-2.2-5.1-3.4-8.4-3.4c-3.2,0-5.9,1.1-8.2,3.2c-2.3,2.1-3.4,4.8-3.4,7.9   c0,3.2,1.1,5.9,3.3,8c1.7,1.7,3.7,2.7,6,3.1l-5.5,10.2L1942.3,1356L1942.3,1356z M1939.6,1331.1c0-0.9,0.3-1.6,0.9-2.2   c0.6-0.6,1.2-0.8,2-0.8c0.7,0,1.3,0.3,1.9,0.8c0.6,0.6,0.9,1.3,0.9,2.2c0,0.9-0.3,1.6-0.8,2.1c-1.1,1.1-3,1.1-4,0   C1939.8,1332.6,1939.6,1331.9,1939.6,1331.1L1939.6,1331.1z M1903.1,1202.7c0.7-1.3,1.1-2.4,1.1-3.3c0-0.9-0.3-1.6-0.9-2.1   c-1.2-1.1-3.3-1.2-4.7,0.2c-0.7,0.7-1,1.8-1.1,3.1l0,1.2h-8.8l0.1-1.3c0.2-3.7,1.4-6.7,3.7-8.9c2.3-2.2,5.3-3.3,8.9-3.3   c2.2,0,4.2,0.4,5.9,1.4c1.7,0.9,3.1,2.2,4.2,4c1,1.7,1.6,3.5,1.6,5.3c0,2-0.6,4.3-1.8,6.6c-1.2,2.3-3.2,4.9-6.3,8l-1.6,1.6h9.9v8.1   h-25.5v-4.7l10.6-10.3C1900.8,1205.9,1902.4,1204.1,1903.1,1202.7L1903.1,1202.7z M1918.6,1158.9c0.7-1.3,1.1-2.4,1.1-3.3   c0-0.9-0.3-1.6-0.9-2.1c-1.2-1.1-3.3-1.2-4.7,0.2c-0.7,0.7-1,1.8-1.1,3.1l-0.1,1.2h-8.8l0.1-1.3c0.2-3.7,1.4-6.7,3.7-8.9   s5.3-3.3,8.9-3.3c2.2,0,4.2,0.4,5.9,1.4c1.7,0.9,3.1,2.3,4.2,4c1,1.7,1.6,3.5,1.6,5.3c0,2-0.6,4.3-1.8,6.6c-1.2,2.3-3.2,4.9-6.3,8   l-1.5,1.6h9.9v8.1h-25.5v-4.7l10.6-10.3C1916.3,1162.1,1917.9,1160.2,1918.6,1158.9L1918.6,1158.9z M1903.8,1399.8l9.1-17   c1.2-2.1,1.9-3.7,2.2-4.7c0.3-1.1,0.5-2.2,0.5-3.3c0-2.9-1.1-5.5-3.3-7.7c-2.2-2.2-5.1-3.4-8.4-3.4c-3.2,0-5.9,1.1-8.2,3.2   c-2.3,2.1-3.4,4.8-3.4,7.9c0,3.2,1.1,5.9,3.3,8c1.7,1.7,3.7,2.7,6,3.1l-5.5,10.2L1903.8,1399.8L1903.8,1399.8z M1901.1,1374.9   c0-0.9,0.3-1.6,0.9-2.2c0.6-0.6,1.2-0.8,2-0.8c0.7,0,1.3,0.3,1.9,0.8c0.6,0.6,0.9,1.3,0.9,2.2c0,0.9-0.3,1.6-0.8,2.1   c-1.1,1.1-2.9,1.1-4,0C1901.4,1376.5,1901.1,1375.8,1901.1,1374.9L1901.1,1374.9z M1936,1233h17.8v8.1h-11l-0.7,2.8   c0.1,0,0.2,0,0.4,0c3.3,0,6.2,1.1,8.4,3.3c2.2,2.2,3.3,5,3.3,8.4c0,3.4-1.2,6.3-3.7,8.7c-2.4,2.3-5.4,3.5-8.9,3.5   c-3.1,0-5.8-0.8-8.1-2.6c-2.3-1.7-3.7-4.1-4.4-7l-0.4-1.6h9.1l0.4,0.7c0.4,0.8,0.9,1.3,1.5,1.7c1.4,0.9,3.3,0.7,4.6-0.5   c0.7-0.7,1.1-1.6,1.1-2.8c0-1.1-0.3-2-1-2.7c-1-1-2.2-1.3-3.7-0.6c-0.5,0.3-1.1,0.7-1.6,1.2l-0.5,0.5l-7.2-1.5L1936,1233L1936,1233   z M1969.5,1065.8h-13v-8.2h24.3l-0.1,5l-15.4,30.3l-7.7-3.6L1969.5,1065.8L1969.5,1065.8z M1942.2,1387.8l-0.1-1.4h8.8l0.2,1.1   c0.2,1.3,0.7,2.3,1.3,2.9c1.3,1.2,3.8,1.2,5.3-0.1c0.7-0.7,1-1.4,1-2.4c0-1-0.5-1.9-1.4-2.6c-1.1-0.8-2.7-1.2-4.8-1.2l-1.3,0v-7.6   l1.2-0.1c1.7-0.1,2.5-0.4,2.9-0.6c0.5-0.2,0.9-0.5,1.2-0.9c0.3-0.4,0.4-0.8,0.4-1.1c0-0.5-0.2-0.9-0.5-1.2   c-0.2-0.2-0.6-0.5-1.5-0.5c-0.6,0-1.1,0.2-1.6,0.5c-0.5,0.3-0.8,0.8-1,1.4l-0.3,0.9h-8.5l0.2-1.4c0.4-2.6,1.4-4.7,3-6.3   c2.3-2.2,5.1-3.3,8.5-3.3c3,0,5.6,0.9,7.7,2.8c2.1,1.9,3.2,4.2,3.2,6.8c0,1.7-0.5,3.2-1.4,4.6c-0.5,0.7-1.1,1.3-1.8,1.8   c1.2,0.6,2.1,1.4,2.9,2.4c1.3,1.7,2,3.6,2,5.8c0,3.2-1.2,5.9-3.7,8.1c-2.4,2.2-5.5,3.3-9.2,3.3c-3.6,0-6.5-1.1-8.8-3.1   C1943.7,1394.2,1942.4,1391.3,1942.2,1387.8L1942.2,1387.8z M1980.5,1325.7l-15.4,30.3l-7.7-3.6l12-23.5h-13v-8.2h24.3   L1980.5,1325.7L1980.5,1325.7z M1943.9,1065.8h-13v-8.2h24.3l-0.1,5l-15.4,30.3l-7.7-3.6L1943.9,1065.8L1943.9,1065.8z    M1990,1114.1h-8.8l0.1-1.3c0.2-3.7,1.4-6.7,3.7-8.9c2.3-2.2,5.3-3.3,8.9-3.3c2.2,0,4.2,0.4,5.9,1.4c1.7,0.9,3.1,2.2,4.2,4   c1,1.7,1.6,3.5,1.6,5.3c0,2-0.6,4.3-1.8,6.6c-1.2,2.3-3.2,4.9-6.3,8l-1.5,1.6h9.9v8.1h-25.5v-4.7l10.5-10.3   c2.4-2.3,3.9-4.1,4.7-5.4c0.7-1.3,1.1-2.4,1.1-3.3c0-0.8-0.3-1.5-0.9-2.1c-1.2-1.1-3.3-1.2-4.7,0.2c-0.7,0.7-1,1.8-1.1,3.1   L1990,1114.1L1990,1114.1z M1918.8,1039.4c0.7-0.7,1.1-1.6,1.1-2.8c0-1.1-0.3-2-1-2.7c-1-1-2.2-1.3-3.7-0.6   c-0.5,0.3-1.1,0.7-1.6,1.2l-0.5,0.5l-7.1-1.5l4.5-19.8h17.8v8.1h-11l-0.7,2.8c0.1,0,0.3,0,0.4,0c3.4,0,6.2,1.1,8.4,3.3   c2.2,2.2,3.3,5,3.3,8.4c0,3.4-1.2,6.3-3.7,8.7c-2.4,2.4-5.4,3.5-8.9,3.5c-3.1,0-5.8-0.8-8.1-2.6c-2.3-1.7-3.8-4.1-4.4-7l-0.4-1.6   h9.1l0.4,0.7c0.4,0.8,0.9,1.3,1.5,1.7C1915.6,1040.8,1917.6,1040.6,1918.8,1039.4L1918.8,1039.4z M1923.5,1058.7   c-2-1.3-4.3-1.9-7-1.9c-4.1,0-7.4,1.6-9.8,4.8c-2,2.9-3,7.2-3,13.3c0,4.3,0.5,7.6,1.5,10.1c1,2.5,2.5,4.3,4.4,5.6   c1.9,1.2,4.3,1.9,7,1.9c2.8,0,5.1-0.6,6.9-1.9c1.8-1.2,3.3-3.2,4.4-5.7c1-2.5,1.5-5.9,1.5-10.2c0-4.3-0.5-7.7-1.5-10.2   C1927,1061.9,1925.5,1060,1923.5,1058.7z M1920.6,1074.7c0,3.8-0.5,6.6-1.4,8.1c-0.8,1.4-1.8,1.5-2.5,1.5c-0.7,0-1.7-0.2-2.7-1.7   c-0.6-0.9-1.3-2.9-1.3-7.6c0-2.9,0.2-5.2,0.6-6.6c0.3-1.3,0.8-2.2,1.4-2.7c0.6-0.4,1.2-0.7,1.9-0.7c0.7,0,1.7,0.2,2.6,1.7   C1919.9,1067.7,1920.6,1069.9,1920.6,1074.7L1920.6,1074.7z M1942,1136.3c3.2,0,6-1.1,8.2-3.2c2.3-2.1,3.4-4.8,3.4-7.9   c0-3.2-1.1-5.9-3.3-8.1c-1.7-1.7-3.7-2.7-5.9-3.1l5.4-10.2l-7.7-3.7l-9.1,17c-1.1,2.1-1.9,3.7-2.2,4.8c-0.3,1.1-0.5,2.2-0.5,3.3   c0,2.9,1.1,5.5,3.3,7.7C1935.9,1135.2,1938.7,1136.3,1942,1136.3L1942,1136.3z M1939.1,1125.1c0-0.9,0.3-1.6,0.8-2.2   c0.5-0.5,1.1-0.8,1.9-0.8c0.9,0,1.5,0.3,2.1,0.8c0.6,0.6,0.8,1.2,0.8,2.1c0,0.9-0.3,1.6-0.8,2.2c-1.1,1.1-2.8,1.2-4,0   C1939.4,1126.7,1939.1,1126,1939.1,1125.1L1939.1,1125.1z M1849.6,1443.2c3.2,0,6-1.1,8.2-3.2c2.3-2.1,3.4-4.8,3.4-7.9   c0-3.2-1.1-5.9-3.3-8.1c-1.7-1.7-3.7-2.7-5.9-3.1l5.4-10.2l-7.7-3.7l-9.1,17c-1.1,2.1-1.9,3.7-2.2,4.8c-0.3,1.1-0.5,2.2-0.5,3.3   c0,2.9,1.1,5.5,3.3,7.7C1843.4,1442.1,1846.2,1443.2,1849.6,1443.2L1849.6,1443.2z M1846.7,1432c0-0.9,0.3-1.6,0.8-2.2   c0.5-0.6,1.1-0.8,1.9-0.8c0.8,0,1.5,0.3,2.1,0.8c0.6,0.6,0.8,1.2,0.8,2.1s-0.3,1.6-0.8,2.2c-1.1,1.1-2.8,1.2-4,0   C1847,1433.6,1846.7,1432.9,1846.7,1432L1846.7,1432z M1843.7,1189.1h11.4v34.1h-8.9v-25.9h-7.8L1843.7,1189.1z M1879.5,1101.4   h24.3l-0.1,5l-15.4,30.3l-7.7-3.6l12-23.5h-13L1879.5,1101.4L1879.5,1101.4z M1942.1,1369.5l-15.4,30.3l-7.7-3.6l12-23.5h-13v-8.2   h24.3L1942.1,1369.5L1942.1,1369.5z M1864,1189.1h24.3l-0.1,5l-15.4,30.3l-7.7-3.6l12-23.5h-13L1864,1189.1L1864,1189.1   L1864,1189.1z M1939,1442.4h-25.5v-4.7l10.6-10.3c2.4-2.3,3.9-4.1,4.7-5.4c0.7-1.3,1.1-2.4,1.1-3.3c0-0.9-0.3-1.6-0.9-2.1   c-1.2-1.1-3.4-1.2-4.7,0.2c-0.7,0.7-1,1.8-1.1,3.1l0,1.2h-8.8l0.1-1.3c0.2-3.7,1.4-6.7,3.7-8.9c2.3-2.2,5.3-3.3,8.9-3.3   c2.2,0,4.2,0.5,5.9,1.4c1.7,0.9,3.2,2.3,4.2,4c1,1.7,1.6,3.5,1.6,5.3c0,2-0.6,4.3-1.8,6.6c-1.2,2.3-3.2,4.9-6.3,8l-1.5,1.6h9.9   L1939,1442.4L1939,1442.4L1939,1442.4z M1862.6,1268.3l-7.7-3.6l12-23.5h-13v-8.2h24.3l-0.1,5L1862.6,1268.3L1862.6,1268.3z    M1892.1,1267h8.8v-6.5h2.9v-8.1h-2.9v-20.3h-8.3L1878,1253l-0.2,0.3v7.2h14.4V1267L1892.1,1267L1892.1,1267z M1888.5,1252.5   l3.6-5.1v5.1H1888.5z"></path>
</g>
</svg>
