<?xml version="1.0" encoding="UTF-8"?>
<svg xmlns:xodm="http://www.corel.com/coreldraw/odm/2003" xmlns="http://www.w3.org/2000/svg" xmlns:xlink="http://www.w3.org/1999/xlink" version="1.1" id="Layer_1" x="0px" y="0px" viewBox="0 0 2500 2500" style="enable-background:new 0 0 2500 2500;" xml:space="preserve">
<style type="text/css">
	.st0{fill:none;}
	.st1{fill:#1BA5F8;fill-opacity:0.6196;}
	.st2{fill:#1BA5F8;}
</style>
<g id="Layer_x0020_1">
	<rect class="st0" width="2500" height="2500"></rect>
	<g id="_1881891773120">
		<path class="st1" d="M871,1977l316-388c28-36,80-41,116-12c5,4,8,7,12,12l316,388c25,30,25,74,0,104l-316,388c-28,36-80,41-116,12    c-5-4-8-7-12-12l-316-388C845,2051,845,2007,871,1977z"></path>
		<path class="st2" d="M1361,1027l316-388c28-36,80-41,116-12c5,4,8,7,12,12l316,388c25,30,25,74,0,104l-316,388    c-28,36-80,41-116,12c-5-4-8-7-12-12l-316-388C1336,1100,1336,1057,1361,1027z M381,1027l316-388c28-36,80-41,116-12    c5,4,8,7,12,12l316,388c25,30,25,74,0,104l-316,388c-28,36-80,41-116,12c-5-4-8-7-12-12l-316-389C356,1100,356,1057,381,1027z     M872,420l315-389c29-35,80-40,116-12c5,4,8,7,12,12l316,389c25,30,25,74,0,104l-316,388c-28,36-80,41-116,12c-5-4-8-7-12-12    L871,523C846,493,846,450,872,420z"></path>
	</g>
</g>
</svg>
