<?xml version="1.0" encoding="utf-8"?>
<!-- Generator: Adobe Illustrator 22.0.1, SVG Export Plug-In . SVG Version: 6.00 Build 0)  -->
<svg version="1.1" id="Layer_1" xmlns="http://www.w3.org/2000/svg" xmlns:xlink="http://www.w3.org/1999/xlink" x="0px" y="0px"
	 viewBox="0 0 620 620" style="enable-background:new 0 0 620 620;" xml:space="preserve">
<style type="text/css">
	.st0{fill:#009393;}
	.st1{fill:#FFFFFF;}
</style>
<title>tether-gold</title>
<g id="Layer_2_1_">
	<g id="Layer_1-2">
		<g id="Layer_1-3">
			<path class="st0" d="M116.2,46.5L4.5,280.9c-0.9,1.7-0.5,3.9,0.9,5.2L306.8,575c1.8,1.6,4.5,1.6,6.3,0l301.5-288.9
				c1.4-1.3,1.8-3.5,0.9-5.2L503.8,46.5c-0.6-1.7-2.2-2.8-4-2.7H120.1C118.4,43.8,116.8,44.9,116.2,46.5L116.2,46.5z"/>
			<path class="st1" d="M348.8,304.9L348.8,304.9c-2.2,0.2-13.3,0.9-38.2,0.9c-19.8,0-33.9-0.5-39-0.9l0,0
				c-76.6-3.4-133.8-16.8-133.8-32.6s57.2-29.4,133.8-32.8v52.1c5,0.4,19.3,1.3,39.1,1.3c23.8,0,35.7-1.1,37.9-1.3v-52.1
				c76.5,3.4,133.6,16.8,133.6,32.6C482.2,287.9,425.2,301.5,348.8,304.9L348.8,304.9z M348.8,234.2v-46.7h106.8v-71.2H164.9v71.2
				h106.7v46.7c-86.7,4-152,21.1-152,41.8s65.3,37.7,152,41.8v149.5h77.2V317.9c86.6-4,151.6-21.1,151.6-41.6
				S435.3,238.2,348.8,234.2L348.8,234.2L348.8,234.2z"/>
		</g>
	</g>
</g>
</svg>
