<?xml version="1.0" encoding="UTF-8"?>
<svg width="279px" height="30px" viewBox="0 0 279 30" version="1.1" xmlns="http://www.w3.org/2000/svg" xmlns:xlink="http://www.w3.org/1999/xlink">
    <title>Group</title>
    <g id="Page-1" stroke="none" stroke-width="1" fill="none" fill-rule="evenodd">
        <g id="Group" transform="translate(-0.000000, 0.000000)" fill-rule="nonzero">
            <path d="M58.1913027,0.497 C58.3002146,0.49673436 58.4047568,0.539813367 58.4818632,0.616732093 C58.5589695,0.693650819 58.6023027,0.798087756 58.6023027,0.907 L58.6023027,17.945 C58.6023027,26.02 53.5433027,30 46.8723027,30 C40.2023027,30 35.1423015,26.02 35.1423015,17.945 L35.1423015,0.9 C35.1420349,0.790740628 35.1853881,0.685893629 35.2627402,0.608729285 C35.3400923,0.531564941 35.4450443,0.488466698 35.5543027,0.488995109 L39.5163027,0.488995109 C39.7427395,0.488995109 39.9263027,0.672563253 39.9263027,0.899 L39.9263027,17.645 C39.9263027,23.28 42.8703027,25.515 46.8933027,25.515 C50.9173027,25.515 53.8273027,23.28 53.8273027,17.645 L53.8273027,0.9 C53.8270371,0.79108808 53.8701161,0.68654589 53.9470348,0.609439557 C54.0239535,0.532333225 54.1283905,0.488995109 54.2373027,0.488995109 L58.1913027,0.497 L58.1913027,0.497 Z M127.637303,14.996 C127.596303,23.526 121.086303,29.992 112.590303,29.992 C104.095303,29.992 97.5443027,23.527 97.5443027,14.996 C97.5443027,6.465 104.095303,0 112.589303,0 C121.085303,0 127.595303,6.465 127.636303,14.996 L127.637303,14.996 Z M102.270303,14.996 C102.270303,21.042 106.705303,25.515 112.590303,25.515 C118.476303,25.515 122.865303,21.042 122.865303,14.995 C122.865303,8.95 118.431303,4.477 112.590303,4.477 C106.750303,4.477 102.270303,8.95 102.270303,14.996 L102.270303,14.996 Z M168.810303,29.495 L164.700303,29.495 C164.568772,29.4909302 164.447143,29.4241243 164.373147,29.315306 C164.29915,29.2064878 164.281735,29.0688168 164.326303,28.945 L175.180303,0.924 C175.270109,0.690721046 175.494334,0.536994922 175.744303,0.536994922 L180.877303,0.536994922 C181.127008,0.535976595 181.351243,0.689714671 181.440303,0.923 L192.302303,28.96 C192.347344,29.0838225 192.330132,29.2217469 192.256042,29.3307029 C192.181952,29.4396588 192.060013,29.5063684 191.928303,29.51 L187.810303,29.51 C187.642409,29.5077768 187.492751,29.4036495 187.432303,29.247 L178.678303,6.177 C178.612561,6.0280621 178.465105,5.93196686 178.302303,5.93196686 C178.139501,5.93196686 177.992044,6.0280621 177.926303,6.177 L169.172303,29.247 C169.109257,29.3921637 168.968461,29.4882314 168.810303,29.494 L168.810303,29.495 Z M4.50730272,29.495 L0.397302723,29.495 C0.265950517,29.4906193 0.144614495,29.4236856 0.0708480585,29.3149147 C-0.00291837764,29.2061438 -0.0202182554,29.0686547 0.0243027235,28.945 L10.8783027,0.924 C10.9670367,0.690321035 11.1913451,0.536133953 11.4413027,0.53699637 L16.5743027,0.53699637 C16.8243027,0.53699637 17.0473027,0.691 17.1373027,0.923 L27.9833027,28.96 C28.028344,29.0838225 28.0111323,29.2217469 27.9370422,29.3307029 C27.8629522,29.4396588 27.7410128,29.5063684 27.6093027,29.51 L23.4993027,29.51 C23.3314094,29.5077768 23.1817512,29.4036495 23.1213027,29.247 L14.3713027,6.16 C14.3055614,6.0110621 14.1581045,5.91496686 13.9953027,5.91496686 C13.8325009,5.91496686 13.6850441,6.0110621 13.6193027,6.16 L4.86530272,29.23 C4.80801501,29.3805517 4.66805974,29.4837589 4.50730272,29.494 L4.50730272,29.495 Z M156.747303,28.842 L148.606303,18.45 C153.201303,17.58 155.888303,14.478 155.888303,9.722 C155.888303,4.259 152.329303,0.538 146.025303,0.538 L134.681303,0.538 C134.347723,0.538 134.077303,0.808420011 134.077303,1.142 C134.077568,2.16750029 134.485269,3.15087879 135.210689,3.87573565 C135.936108,4.60059251 136.919803,5.00753056 137.945303,5.007 L145.544303,5.007 C149.350303,5.007 151.170303,6.95 151.170303,9.763 C151.170303,12.577 149.390303,14.561 145.544303,14.561 L134.681303,14.561 C134.348113,14.5609995 134.077854,14.8308106 134.077303,15.164 L134.077303,29.092 C134.077303,29.319 134.261303,29.503 134.488303,29.503 L138.360303,29.503 C138.586739,29.503 138.770303,29.3194367 138.770303,29.093 L138.770303,18.693 L143.242303,18.693 L150.312303,27.913 C151.07284,28.907516 152.253313,29.4909129 153.505303,29.491 L156.447303,29.491 C156.595098,29.4789533 156.724944,29.3882283 156.787084,29.2535915 C156.849224,29.1189546 156.834022,28.961284 156.747303,28.841 L156.747303,28.842 Z M91.0173027,28.842 L82.8763027,18.45 C87.4713027,17.58 90.1633027,14.478 90.1633027,9.722 C90.1633027,4.259 86.6033027,0.538 80.2993027,0.538 L68.9513027,0.538 C68.6177227,0.538 68.3473027,0.808420011 68.3473027,1.142 C68.3500595,3.27621839 70.0800832,5.00534735 72.2143027,5.007 L79.8143027,5.007 C83.6243027,5.007 85.4443027,6.95 85.4443027,9.763 C85.4443027,12.577 83.6643027,14.561 79.8143027,14.561 L68.9513027,14.561 C68.6181129,14.5609995 68.3478544,14.8308106 68.3473027,15.164 L68.3473027,29.092 C68.3473027,29.319 68.5313027,29.503 68.7583027,29.503 L72.6343027,29.503 C72.8607395,29.503 73.0443027,29.3194367 73.0443027,29.093 L73.0443027,18.693 L77.5123027,18.693 L84.5823027,27.913 C85.3441395,28.9059352 86.5237791,29.4889203 87.7753027,29.491 L90.7173027,29.491 C90.8650976,29.4789533 90.9949441,29.3882283 91.0570842,29.2535915 C91.1192243,29.1189546 91.1040219,28.961284 91.0173027,28.841 L91.0173027,28.842 Z" id="Shape" fill="#FFFFFF"></path>
            <path d="M208.387303,21.942 C208.387303,23.47 208.667303,24.622 209.229303,25.398 C209.789303,26.174 210.619303,26.563 211.716303,26.563 L215.692303,26.563 L215.692303,29.427 L211.383303,29.427 C209.349303,29.427 207.773303,28.777 206.658303,27.477 C205.542303,26.177 204.984303,24.332 204.984303,21.942 L204.984303,3.219 L199.528303,3.219 L199.528303,0.557 L208.388303,0.557 L208.388303,21.942 L208.387303,21.942 Z M229.693303,19.022 L228.565303,19.022 C226.579303,19.022 225.085303,19.37 224.080303,20.066 C223.075303,20.762 222.572303,21.8 222.572303,23.18 C222.572303,24.425 222.948303,25.392 223.701303,26.082 C224.453303,26.772 225.494303,27.117 226.826303,27.117 C228.700303,27.117 230.174303,26.467 231.246303,25.167 C232.319303,23.867 232.861303,22.071 232.874303,19.779 L232.874303,19.021 L229.693303,19.021 L229.693303,19.022 Z M236.295303,17.617 L236.295303,29.427 L232.874303,29.427 L232.874303,26.36 C232.146303,27.592 231.231303,28.501 230.127303,29.087 C229.024303,29.672 227.683303,29.964 226.105303,29.964 C223.996303,29.964 222.313303,29.37 221.055303,28.181 C219.798303,26.991 219.169303,25.399 219.169303,23.403 C219.169303,21.099 219.943303,19.349 221.490303,18.153 C223.038303,16.959 225.310303,16.361 228.306303,16.361 L232.874303,16.361 L232.874303,15.825 C232.861303,14.174 232.442303,12.975 231.616303,12.23 C230.790303,11.485 229.471303,11.112 227.658303,11.112 C226.499303,11.112 225.328303,11.278 224.144303,11.611 C222.961303,11.943 221.808303,12.431 220.686303,13.071 L220.686303,9.671 C221.860991,9.21488328 223.070149,8.85307214 224.302303,8.589 C225.454303,8.349 226.573303,8.229 227.658303,8.229 C229.372303,8.229 230.836303,8.481 232.051303,8.986 C233.265303,9.491 234.249303,10.249 235.001303,11.26 C235.469303,11.876 235.802303,12.637 235.999303,13.542 C236.197303,14.448 236.295303,15.806 236.295303,17.618 L236.295303,17.617 Z M255.308303,19.095 C255.308303,16.459 254.888303,14.469 254.050303,13.125 C253.212303,11.782 251.972303,11.111 250.333303,11.111 C248.680303,11.111 247.429303,11.785 246.578303,13.135 C245.728303,14.484 245.302303,16.471 245.302303,19.095 C245.302303,21.708 245.727303,23.692 246.578303,25.047 C247.428303,26.402 248.680303,27.08 250.333303,27.08 C251.973303,27.08 253.212303,26.409 254.050303,25.065 C254.888303,23.722 255.308303,21.732 255.308303,19.095 L255.308303,19.095 Z M245.302303,11.37 C245.845303,10.36 246.594303,9.583 247.549303,9.04 C248.505303,8.498 249.611303,8.227 250.869303,8.227 C253.359303,8.227 255.319303,9.185 256.750303,11.102 C258.180303,13.018 258.896303,15.658 258.896303,19.022 C258.896303,22.435 258.177303,25.112 256.741303,27.052 C255.304303,28.993 253.335303,29.963 250.831303,29.963 C249.599303,29.963 248.511303,29.695 247.568303,29.159 C246.624303,28.623 245.869303,27.844 245.302303,26.821 L245.302303,29.427 L241.899303,29.427 L241.899303,0.667 L245.302303,0.667 L245.302303,11.37 L245.302303,11.37 Z M277.945303,9.447 L277.945303,12.774 C277.021776,12.2291018 276.03424,11.8008337 275.005303,11.499 C274.025236,11.2165039 273.01027,11.0734325 271.990303,11.074 C270.448303,11.074 269.299303,11.324 268.540303,11.822 C267.782303,12.322 267.403303,13.082 267.403303,14.105 C267.403303,15.029 267.687303,15.719 268.253303,16.175 C268.821303,16.631 270.233303,17.075 272.489303,17.505 L273.858303,17.765 C275.547303,18.085 276.826303,18.725 277.695303,19.687 C278.565303,20.648 278.999303,21.899 278.999303,23.439 C278.999303,25.484 278.272303,27.083 276.817303,28.235 C275.362303,29.387 273.340303,29.963 270.750303,29.963 C269.669828,29.9574817 268.592321,29.8493292 267.532303,29.64 C266.298493,29.394829 265.081666,29.0708316 263.889303,28.67 L263.889303,25.158 C265.159303,25.811 266.373303,26.301 267.532303,26.628 C268.692303,26.954 269.789303,27.118 270.824303,27.118 C272.329303,27.118 273.494303,26.812 274.320303,26.202 C275.146303,25.592 275.559303,24.739 275.559303,23.642 C275.559303,22.065 274.049303,20.975 271.028303,20.371 L270.880303,20.334 L269.604303,20.075 C267.644303,19.693 266.214303,19.049 265.314303,18.144 C264.413303,17.238 263.963303,16.003 263.963303,14.438 C263.963303,12.454 264.635303,10.923 265.979303,9.845 C267.323303,8.766 269.240303,8.227 271.731303,8.227 C272.841303,8.227 273.907303,8.329 274.931303,8.532 C275.954303,8.736 276.958303,9.041 277.945303,9.447 L277.945303,9.447 Z" id="Shape" fill="#3FD729"></path>
        </g>
    </g>
</svg>