<svg width="279" height="30" viewBox="0 0 279 30" fill="none" xmlns="http://www.w3.org/2000/svg">
<path d="M58.1913 0.497C58.3002 0.496734 58.4048 0.539813 58.4819 0.616732C58.559 0.693651 58.6023 0.798088 58.6023 0.907V17.945C58.6023 26.02 53.5433 30 46.8723 30C40.2023 30 35.1423 26.02 35.1423 17.945V0.9C35.142 0.790741 35.1854 0.685894 35.2627 0.608729C35.3401 0.531565 35.445 0.488467 35.5543 0.488995H39.5163C39.7427 0.488995 39.9263 0.672563 39.9263 0.899V17.645C39.9263 23.28 42.8703 25.515 46.8933 25.515C50.9173 25.515 53.8273 23.28 53.8273 17.645V0.9C53.827 0.791088 53.8701 0.686546 53.947 0.60944C54.024 0.532333 54.1284 0.488995 54.2373 0.488995L58.1913 0.497ZM127.637 14.996C127.596 23.526 121.086 29.992 112.59 29.992C104.095 29.992 97.5443 23.527 97.5443 14.996C97.5443 6.465 104.095 0 112.589 0C121.085 0 127.595 6.465 127.636 14.996H127.637ZM102.27 14.996C102.27 21.042 106.705 25.515 112.59 25.515C118.476 25.515 122.865 21.042 122.865 14.995C122.865 8.95 118.431 4.477 112.59 4.477C106.75 4.477 102.27 8.95 102.27 14.996ZM168.81 29.495H164.7C164.569 29.4909 164.447 29.4241 164.373 29.3153C164.299 29.2065 164.282 29.0688 164.326 28.945L175.18 0.924C175.27 0.690721 175.494 0.536995 175.744 0.536995H180.877C181.127 0.535977 181.351 0.689715 181.44 0.923L192.302 28.96C192.347 29.0838 192.33 29.2217 192.256 29.3307C192.182 29.4397 192.06 29.5064 191.928 29.51H187.81C187.642 29.5078 187.493 29.4036 187.432 29.247L178.678 6.177C178.613 6.02806 178.465 5.93197 178.302 5.93197C178.14 5.93197 177.992 6.02806 177.926 6.177L169.172 29.247C169.109 29.3922 168.968 29.4882 168.81 29.494V29.495ZM4.5073 29.495H0.397303C0.265951 29.4906 0.144614 29.4237 0.0708481 29.3149C-0.00291838 29.2061 -0.0202183 29.0687 0.0243027 28.945L10.8783 0.924C10.967 0.690321 11.1913 0.536134 11.4413 0.536996H16.5743C16.8243 0.536996 17.0473 0.691 17.1373 0.923L27.9833 28.96C28.0283 29.0838 28.0111 29.2217 27.937 29.3307C27.863 29.4397 27.741 29.5064 27.6093 29.51H23.4993C23.3314 29.5078 23.1818 29.4036 23.1213 29.247L14.3713 6.16C14.3056 6.01106 14.1581 5.91497 13.9953 5.91497C13.8325 5.91497 13.685 6.01106 13.6193 6.16L4.8653 29.23C4.80801 29.3806 4.66806 29.4838 4.5073 29.494V29.495ZM156.747 28.842L148.606 18.45C153.201 17.58 155.888 14.478 155.888 9.722C155.888 4.259 152.329 0.538 146.025 0.538H134.681C134.348 0.538 134.077 0.80842 134.077 1.142C134.078 2.1675 134.485 3.15088 135.211 3.87574C135.936 4.60059 136.92 5.00753 137.945 5.007H145.544C149.35 5.007 151.17 6.95 151.17 9.763C151.17 12.577 149.39 14.561 145.544 14.561H134.681C134.348 14.561 134.078 14.8308 134.077 15.164V29.092C134.077 29.319 134.261 29.503 134.488 29.503H138.36C138.587 29.503 138.77 29.3194 138.77 29.093V18.693H143.242L150.312 27.913C151.073 28.9075 152.253 29.4909 153.505 29.491H156.447C156.595 29.479 156.725 29.3882 156.787 29.2536C156.849 29.119 156.834 28.9613 156.747 28.841V28.842ZM91.0173 28.842L82.8763 18.45C87.4713 17.58 90.1633 14.478 90.1633 9.722C90.1633 4.259 86.6033 0.538 80.2993 0.538H68.9513C68.6177 0.538 68.3473 0.80842 68.3473 1.142C68.3501 3.27622 70.0801 5.00535 72.2143 5.007H79.8143C83.6243 5.007 85.4443 6.95 85.4443 9.763C85.4443 12.577 83.6643 14.561 79.8143 14.561H68.9513C68.6181 14.561 68.3479 14.8308 68.3473 15.164V29.092C68.3473 29.319 68.5313 29.503 68.7583 29.503H72.6343C72.8607 29.503 73.0443 29.3194 73.0443 29.093V18.693H77.5123L84.5823 27.913C85.3441 28.9059 86.5238 29.4889 87.7753 29.491H90.7173C90.8651 29.479 90.9949 29.3882 91.0571 29.2536C91.1192 29.119 91.104 28.9613 91.0173 28.841V28.842Z" fill="#101820"/>
<path d="M208.387 21.9416C208.387 23.4696 208.667 24.6216 209.229 25.3976C209.789 26.1736 210.619 26.5626 211.716 26.5626H215.692V29.4266H211.383C209.349 29.4266 207.773 28.7766 206.658 27.4766C205.542 26.1766 204.984 24.3316 204.984 21.9416V3.21864H199.528V0.556641H208.388V21.9416H208.387ZM229.693 19.0216H228.565C226.579 19.0216 225.085 19.3696 224.08 20.0656C223.075 20.7616 222.572 21.7996 222.572 23.1796C222.572 24.4246 222.948 25.3916 223.701 26.0816C224.453 26.7716 225.494 27.1166 226.826 27.1166C228.7 27.1166 230.174 26.4666 231.246 25.1666C232.319 23.8666 232.861 22.0706 232.874 19.7786V19.0206H229.693V19.0216ZM236.295 17.6166V29.4266H232.874V26.3596C232.146 27.5916 231.231 28.5006 230.127 29.0866C229.024 29.6716 227.683 29.9636 226.105 29.9636C223.996 29.9636 222.313 29.3696 221.055 28.1806C219.798 26.9906 219.169 25.3986 219.169 23.4026C219.169 21.0986 219.943 19.3486 221.49 18.1526C223.038 16.9586 225.31 16.3606 228.306 16.3606H232.874V15.8246C232.861 14.1736 232.442 12.9746 231.616 12.2296C230.79 11.4846 229.471 11.1116 227.658 11.1116C226.499 11.1116 225.328 11.2776 224.144 11.6106C222.961 11.9426 221.808 12.4306 220.686 13.0706V9.67064C221.861 9.21452 223.07 8.85271 224.302 8.58864C225.454 8.34864 226.573 8.22864 227.658 8.22864C229.372 8.22864 230.836 8.48064 232.051 8.98564C233.265 9.49064 234.249 10.2486 235.001 11.2596C235.469 11.8756 235.802 12.6366 235.999 13.5416C236.197 14.4476 236.295 15.8056 236.295 17.6176V17.6166ZM255.308 19.0946C255.308 16.4586 254.888 14.4686 254.05 13.1246C253.212 11.7816 251.972 11.1106 250.333 11.1106C248.68 11.1106 247.429 11.7846 246.578 13.1346C245.728 14.4836 245.302 16.4706 245.302 19.0946C245.302 21.7076 245.727 23.6916 246.578 25.0466C247.428 26.4016 248.68 27.0796 250.333 27.0796C251.973 27.0796 253.212 26.4086 254.05 25.0646C254.888 23.7216 255.308 21.7316 255.308 19.0946ZM245.302 11.3696C245.845 10.3596 246.594 9.58264 247.549 9.03964C248.505 8.49764 249.611 8.22664 250.869 8.22664C253.359 8.22664 255.319 9.18464 256.75 11.1016C258.18 13.0176 258.896 15.6576 258.896 19.0216C258.896 22.4346 258.177 25.1116 256.741 27.0516C255.304 28.9926 253.335 29.9626 250.831 29.9626C249.599 29.9626 248.511 29.6946 247.568 29.1586C246.624 28.6226 245.869 27.8436 245.302 26.8206V29.4266H241.899V0.666641H245.302V11.3696ZM277.945 9.44664V12.7736C277.022 12.2287 276.034 11.8005 275.005 11.4986C274.025 11.2161 273.01 11.0731 271.99 11.0736C270.448 11.0736 269.299 11.3236 268.54 11.8216C267.782 12.3216 267.403 13.0816 267.403 14.1046C267.403 15.0286 267.687 15.7186 268.253 16.1746C268.821 16.6306 270.233 17.0746 272.489 17.5046L273.858 17.7646C275.547 18.0846 276.826 18.7246 277.695 19.6866C278.565 20.6476 278.999 21.8986 278.999 23.4386C278.999 25.4836 278.272 27.0826 276.817 28.2346C275.362 29.3866 273.34 29.9626 270.75 29.9626C269.67 29.9571 268.592 29.849 267.532 29.6396C266.299 29.3945 265.082 29.0705 263.889 28.6696V25.1576C265.159 25.8106 266.373 26.3006 267.532 26.6276C268.692 26.9536 269.789 27.1176 270.824 27.1176C272.329 27.1176 273.494 26.8116 274.32 26.2016C275.146 25.5916 275.559 24.7386 275.559 23.6416C275.559 22.0646 274.049 20.9746 271.028 20.3706L270.88 20.3336L269.604 20.0746C267.644 19.6926 266.214 19.0486 265.314 18.1436C264.413 17.2376 263.963 16.0026 263.963 14.4376C263.963 12.4536 264.635 10.9226 265.979 9.84464C267.323 8.76564 269.24 8.22664 271.731 8.22664C272.841 8.22664 273.907 8.32864 274.931 8.53164C275.954 8.73564 276.958 9.04064 277.945 9.44664Z" fill="#3FD729"/>
</svg>
