<svg width="509" height="576" viewBox="0 0 509 576" fill="none" xmlns="http://www.w3.org/2000/svg">
<path d="M242 57C296.104 57 347.992 78.4928 386.25 116.75C424.507 155.008 446 206.896 446 261H344C344 233.948 333.254 208.004 314.125 188.875C294.996 169.746 269.052 159 242 159V57Z" fill="black"/>
<path d="M242 108H190V159H242V108Z" fill="#0071CE"/>
<path d="M190 159H139V211H190V159Z" fill="#00C08B"/>
<path d="M139 211H88V261H139V211Z" fill="#FFB259"/>
<path d="M216 235H165V287H216V235Z" fill="#FF595A"/>
<path d="M113 134H62V185H113V134Z" fill="#F0EC73"/>
<path d="M242 57H190V108H242V57Z" fill="#8FCDFF"/>
<path d="M190 108H139V159H190V108Z" fill="#37DBF4"/>
<path d="M89.988 381.399L101.85 406.128H118.102L104.652 379.245C112.778 376.341 117.728 369.503 117.728 360.511C117.728 348.709 109.322 339.716 96.2459 339.716H70V406.128H84.7575V381.399H89.988ZM93.4438 368.66H84.7575V352.549H93.4438C99.5149 352.549 102.784 355.64 102.784 360.605C102.784 365.288 99.5149 368.66 93.4438 368.66Z" fill="black"/>
<path d="M124.001 393.295C124.001 400.695 129.886 407.44 140.067 407.44C146.231 407.44 150.714 404.817 153.143 400.883C153.143 404.067 153.516 405.753 153.61 406.128H166.406C166.312 405.66 165.845 402.569 165.845 398.916V376.154C165.845 366.6 160.335 358.169 145.297 358.169C131.66 358.169 125.496 366.974 124.936 373.625L137.265 376.154C137.545 372.688 140.253 369.316 145.204 369.316C149.687 369.316 152.022 371.658 152.022 374.374C152.022 375.967 151.181 377.184 148.66 377.559L137.732 379.245C130.073 380.369 124.001 385.052 124.001 393.295ZM143.522 397.136C139.6 397.136 138.012 394.794 138.012 392.359C138.012 389.08 140.253 387.675 143.242 387.207L152.022 385.802V387.863C152.022 395.075 147.726 397.136 143.522 397.136Z" fill="black"/>
<path d="M176.577 345.337C176.577 349.926 180.313 353.673 184.796 353.673C189.467 353.673 193.203 349.926 193.203 345.337C193.203 340.747 189.467 337 184.796 337C180.313 337 176.577 340.747 176.577 345.337ZM177.791 406.128H191.988V359.574H177.791V406.128Z" fill="black"/>
<path d="M218.622 406.128V379.432C218.622 374.749 221.611 371.283 226.281 371.283C231.419 371.283 233.847 374.749 233.847 379.339V406.128H248.044V376.903C248.044 366.693 242.814 358.357 231.138 358.357C226.375 358.357 220.677 360.511 218.155 364.914V359.574H204.425V406.128H218.622Z" fill="black"/>
<path d="M259.974 406.128H273.704V400.883C275.852 404.442 280.616 407.159 286.78 407.159C299.763 407.159 308.916 396.949 308.916 382.711C308.916 368.754 300.79 358.45 287.341 358.45C280.989 358.45 275.852 361.073 273.891 363.977V338.311H259.974V406.128ZM294.719 382.804C294.719 390.579 289.769 394.419 284.258 394.419C278.748 394.419 273.704 390.485 273.704 382.804C273.704 374.936 278.748 371.283 284.258 371.283C289.769 371.283 294.719 374.936 294.719 382.804Z" fill="black"/>
<path d="M339.372 358.169C325.548 358.169 314.714 368.379 314.714 382.804C314.714 397.23 325.548 407.533 339.372 407.533C353.289 407.533 364.03 397.23 364.03 382.804C364.03 368.379 353.289 358.169 339.372 358.169ZM339.372 394.419C334.048 394.419 328.911 390.579 328.911 382.804C328.911 374.936 334.048 371.283 339.372 371.283C344.789 371.283 349.833 374.936 349.833 382.804C349.833 390.673 344.789 394.419 339.372 394.419Z" fill="black"/>
<path d="M413.271 359.574H398.233L389.08 387.113L381.327 359.574H366.57L381.141 406.128H395.525L405.425 376.06L415.512 406.128H429.616L444 359.574H430.083L422.331 387.207L413.271 359.574Z" fill="black"/>
<path d="M140.996 433.386H116.245V499.798H142.958C155.473 499.798 163.693 491.836 163.693 480.97C163.693 472.353 157.902 466.826 151.924 465.421C157.342 463.641 161.638 458.021 161.638 451.183C161.638 440.973 154.072 433.386 140.996 433.386ZM138.661 459.988H130.629V445.657H138.474C144.265 445.657 147.161 448.467 147.161 452.776C147.161 457.272 143.798 459.988 138.661 459.988ZM139.875 487.714H130.629V472.165H139.875C145.666 472.165 149.029 475.35 149.029 479.94C149.029 484.717 145.573 487.714 139.875 487.714Z" fill="black"/>
<path d="M202.381 467.294V453.244C201.447 452.963 200.046 452.776 198.645 452.776C194.909 452.776 189.024 454.274 186.596 459.52V453.244H172.866V499.798H187.063V479.471C187.063 470.198 192.2 466.826 197.898 466.826C199.299 466.826 200.793 466.92 202.381 467.294Z" fill="black"/>
<path d="M209.779 439.006C209.779 443.596 213.515 447.343 217.998 447.343C222.668 447.343 226.404 443.596 226.404 439.006C226.404 434.416 222.668 430.67 217.998 430.67C213.515 430.67 209.779 434.416 209.779 439.006ZM210.993 499.798H225.19V453.244H210.993V499.798Z" fill="black"/>
<path d="M283.3 491.461V431.981H269.29V456.897C268.169 455.117 264.713 452.12 256.774 452.12C243.605 452.12 234.264 462.517 234.264 476.38C234.264 490.712 244.165 500.828 257.241 500.828C262.845 500.828 267.515 498.486 269.664 495.302C269.664 497.175 269.944 499.236 270.037 499.798H283.674C283.58 498.767 283.3 495.676 283.3 491.461ZM248.555 476.474C248.555 468.699 253.505 464.953 259.016 464.953C264.526 464.953 269.477 468.699 269.477 476.474C269.477 484.155 264.526 488.089 259.016 488.089C253.505 488.089 248.555 484.155 248.555 476.474Z" fill="black"/>
<path d="M305.341 498.861L292.825 502.421C294.133 510.757 302.632 519 315.989 519C333.361 519 340.833 507.385 340.833 493.99V453.244H327.29V458.208C325.983 455.773 321.966 452.401 314.401 452.401C301.698 452.401 292.825 462.892 292.825 475.163C292.825 488.089 302.072 497.831 314.401 497.831C321.126 497.831 325.142 495.114 326.823 492.585V494.74C326.823 503.17 322.433 506.636 315.335 506.636C310.011 506.636 306.275 503.357 305.341 498.861ZM317.016 485.466C311.319 485.466 307.022 481.532 307.022 475.163C307.022 468.793 311.692 464.859 317.016 464.859C322.34 464.859 326.917 468.793 326.917 475.163C326.917 481.532 322.807 485.466 317.016 485.466Z" fill="black"/>
<path d="M395.046 486.403L383.184 483.031C381.876 486.684 378.981 489.119 373.844 489.119C368.333 489.119 363.569 485.373 363.289 480.127H395.606C395.7 479.846 395.886 477.692 395.886 475.725C395.886 460.738 387.013 451.839 372.629 451.839C360.581 451.839 349.466 461.393 349.466 476.38C349.466 492.023 360.861 501.203 373.657 501.203C385.425 501.203 392.804 494.459 395.046 486.403ZM382.156 470.948H363.569C363.85 467.482 366.839 463.079 372.816 463.079C379.541 463.079 381.97 467.388 382.156 470.948Z" fill="black"/>
</svg>
