<svg width="509" height="576" viewBox="0 0 509 576" fill="none" xmlns="http://www.w3.org/2000/svg">
<path d="M241.182 57C295.493 57 347.58 78.5749 385.983 116.979C424.387 155.382 445.962 207.469 445.962 261.78H343.572C343.572 234.624 332.784 208.581 313.583 189.379C294.381 170.177 268.338 159.39 241.182 159.39V57Z" fill="white"/>
<path d="M241.182 108.194H189.988V159.389H241.182V108.194Z" fill="#0071CE"/>
<path d="M189.987 159.39H138.792V210.585H189.987V159.39Z" fill="#00C08B"/>
<path d="M138.793 210.584H87.5977V261.779H138.793V210.584Z" fill="#FFB259"/>
<path d="M215.585 236.182H164.39V287.377H215.585V236.182Z" fill="#FF595A"/>
<path d="M113.195 133.792H62V184.987H113.195V133.792Z" fill="#F0EC73"/>
<path d="M241.182 57H189.988V108.195H241.182V57Z" fill="#8FCDFF"/>
<path d="M189.987 108.194H138.792V159.389H189.987V108.194Z" fill="#37DBF4"/>
<path d="M89.4624 381.647L101.337 406.331H117.606L104.142 379.496C112.277 376.598 117.232 369.772 117.232 360.796C117.232 349.015 108.817 340.039 95.727 340.039H69.4531V406.331H84.2263V381.647H89.4624ZM92.922 368.931H84.2263V352.848H92.922C98.9995 352.848 102.272 355.934 102.272 360.889C102.272 365.565 98.9995 368.931 92.922 368.931Z" fill="white"/>
<path d="M123.512 393.521C123.512 400.908 129.403 407.64 139.594 407.64C145.766 407.64 150.254 405.022 152.685 401.095C152.685 404.274 153.059 405.957 153.152 406.331H165.962C165.868 405.864 165.401 402.778 165.401 399.132V376.411C165.401 366.874 159.884 358.458 144.831 358.458C131.179 358.458 125.008 367.248 124.447 373.886L136.789 376.411C137.07 372.951 139.781 369.585 144.737 369.585C149.225 369.585 151.563 371.923 151.563 374.634C151.563 376.224 150.721 377.439 148.197 377.813L137.257 379.496C129.59 380.618 123.512 385.293 123.512 393.521ZM143.054 397.355C139.127 397.355 137.537 395.017 137.537 392.586C137.537 389.314 139.781 387.911 142.773 387.444L151.563 386.041V388.098C151.563 395.298 147.262 397.355 143.054 397.355Z" fill="white"/>
<path d="M176.144 345.649C176.144 350.23 179.884 353.97 184.372 353.97C189.047 353.97 192.787 350.23 192.787 345.649C192.787 341.067 189.047 337.327 184.372 337.327C179.884 337.327 176.144 341.067 176.144 345.649ZM177.359 406.331H191.572V359.861H177.359V406.331Z" fill="white"/>
<path d="M218.234 406.331V379.683C218.234 375.008 221.226 371.549 225.901 371.549C231.044 371.549 233.475 375.008 233.475 379.59V406.331H247.687V377.159C247.687 366.967 242.451 358.645 230.763 358.645C225.995 358.645 220.291 360.796 217.767 365.191V359.861H204.022V406.331H218.234Z" fill="white"/>
<path d="M259.63 406.331H273.374V401.095C275.525 404.648 280.293 407.36 286.465 407.36C299.461 407.36 308.624 397.168 308.624 382.956C308.624 369.024 300.49 358.739 287.026 358.739C280.667 358.739 275.525 361.357 273.561 364.256V338.636H259.63V406.331ZM294.412 383.049C294.412 390.81 289.457 394.643 283.94 394.643C278.423 394.643 273.374 390.716 273.374 383.049C273.374 375.195 278.423 371.549 283.94 371.549C289.457 371.549 294.412 375.195 294.412 383.049Z" fill="white"/>
<path d="M339.112 358.458C325.274 358.458 314.428 368.65 314.428 383.049C314.428 397.448 325.274 407.734 339.112 407.734C353.044 407.734 363.797 397.448 363.797 383.049C363.797 368.65 353.044 358.458 339.112 358.458ZM339.112 394.643C333.783 394.643 328.64 390.81 328.64 383.049C328.64 375.195 333.783 371.549 339.112 371.549C344.535 371.549 349.584 375.195 349.584 383.049C349.584 390.903 344.535 394.643 339.112 394.643Z" fill="white"/>
<path d="M413.09 359.861H398.036L388.873 387.35L381.113 359.861H366.339L380.926 406.331H395.325L405.236 376.317L415.334 406.331H429.453L443.852 359.861H429.92L422.16 387.444L413.09 359.861Z" fill="white"/>
<path d="M140.525 433.54H115.747V499.832H142.489C155.018 499.832 163.246 491.885 163.246 481.039C163.246 472.437 157.449 466.92 151.465 465.517C156.888 463.741 161.189 458.131 161.189 451.305C161.189 441.114 153.615 433.54 140.525 433.54ZM138.188 460.094H130.146V445.789H138.001C143.798 445.789 146.696 448.594 146.696 452.895C146.696 457.383 143.33 460.094 138.188 460.094ZM139.403 487.771H130.146V472.25H139.403C145.2 472.25 148.566 475.429 148.566 480.01C148.566 484.779 145.107 487.771 139.403 487.771Z" fill="white"/>
<path d="M201.975 467.387V453.362C201.04 453.082 199.638 452.895 198.235 452.895C194.495 452.895 188.604 454.391 186.173 459.627V453.362H172.429V499.832H186.641V479.543C186.641 470.286 191.784 466.92 197.487 466.92C198.89 466.92 200.386 467.013 201.975 467.387Z" fill="white"/>
<path d="M209.381 439.15C209.381 443.732 213.121 447.472 217.609 447.472C222.284 447.472 226.024 443.732 226.024 439.15C226.024 434.568 222.284 430.828 217.609 430.828C213.121 430.828 209.381 434.568 209.381 439.15ZM210.596 499.832H224.808V453.362H210.596V499.832Z" fill="white"/>
<path d="M282.981 491.511V432.137H268.956V457.009C267.834 455.232 264.374 452.24 256.426 452.24C243.243 452.24 233.893 462.619 233.893 476.457C233.893 490.763 243.804 500.861 256.894 500.861C262.504 500.861 267.179 498.523 269.33 495.344C269.33 497.214 269.61 499.271 269.704 499.832H283.355C283.261 498.804 282.981 495.718 282.981 491.511ZM248.198 476.551C248.198 468.79 253.154 465.05 258.671 465.05C264.187 465.05 269.143 468.79 269.143 476.551C269.143 484.218 264.187 488.145 258.671 488.145C253.154 488.145 248.198 484.218 248.198 476.551Z" fill="white"/>
<path d="M305.045 498.897L292.516 502.45C293.825 510.772 302.333 519 315.704 519C333.095 519 340.575 507.406 340.575 494.035V453.362H327.018V458.318C325.709 455.887 321.688 452.521 314.115 452.521C301.398 452.521 292.516 462.993 292.516 475.242C292.516 488.145 301.772 497.869 314.115 497.869C320.847 497.869 324.867 495.157 326.55 492.633V494.783C326.55 503.198 322.156 506.658 315.05 506.658C309.72 506.658 305.98 503.385 305.045 498.897ZM316.733 485.527C311.029 485.527 306.728 481.6 306.728 475.242C306.728 468.883 311.403 464.956 316.733 464.956C322.062 464.956 326.644 468.883 326.644 475.242C326.644 481.6 322.53 485.527 316.733 485.527Z" fill="white"/>
<path d="M394.846 486.462L382.971 483.096C381.662 486.742 378.763 489.173 373.621 489.173C368.104 489.173 363.336 485.433 363.055 480.197H395.407C395.5 479.917 395.687 477.766 395.687 475.803C395.687 460.842 386.805 451.96 372.405 451.96C360.344 451.96 349.217 461.497 349.217 476.457C349.217 492.072 360.624 501.235 373.434 501.235C385.215 501.235 392.602 494.503 394.846 486.462ZM381.943 471.034H363.336C363.616 467.574 366.608 463.18 372.592 463.18C379.324 463.18 381.755 467.481 381.943 471.034Z" fill="white"/>
</svg>
