<svg width="500" height="500" viewBox="0 0 500 500" fill="none" xmlns="http://www.w3.org/2000/svg">
<path d="M238.823 147.8C286.962 147.8 333.13 166.923 367.17 200.963C401.21 235.003 420.334 281.171 420.334 329.311H329.578C329.578 305.241 320.016 282.157 302.996 265.137C285.976 248.117 262.892 238.556 238.823 238.556V147.8Z" fill="white"/>
<path d="M238.822 193.177H193.445V238.555H238.822V193.177Z" fill="#0071CE"/>
<path d="M193.445 238.555H148.067V283.933H193.445V238.555Z" fill="#00C08B"/>
<path d="M148.067 283.933H102.689V329.311H148.067V283.933Z" fill="#FFB259"/>
<path d="M216.134 306.622H170.756V351.999H216.134V306.622Z" fill="#FF595A"/>
<path d="M125.378 215.867H80V261.245H125.378V215.867Z" fill="#F0EC73"/>
<path d="M238.822 147.8H193.445V193.178H238.822V147.8Z" fill="#8FCDFF"/>
<path d="M193.445 193.177H148.067V238.555H193.445V193.177Z" fill="#37DBF4"/>
</svg>
