<svg id="图层_1" data-name="图层 1" xmlns="http://www.w3.org/2000/svg" viewBox="0 0 169 36"><defs><style>.cls-1{fill:#b9a6ff;}.cls-2{fill:#957bd9;}.cls-3{fill:#6481f8;}.cls-4{fill:#7da2f5;}.cls-5{fill:#cab7ff;}</style></defs><path d="M39.43,10.36H30.15c-.07,0-.1,0-.1.1v6.92c0,.07,0,.1.1.1h6.63a.22.22,0,0,1,.25.24v.38a.22.22,0,0,1-.25.24H30.15a.09.09,0,0,0-.1.1v7c0,.07,0,.1.1.1h9.28a.21.21,0,0,1,.24.24v.36a.21.21,0,0,1-.24.24H29.36a.21.21,0,0,1-.24-.24V9.76a.21.21,0,0,1,.24-.24H39.43a.21.21,0,0,1,.24.24v.36A.21.21,0,0,1,39.43,10.36Z"/><path d="M48,15.1H45.1c-.06,0-.09,0-.09.1v8a2.29,2.29,0,0,0,.6,1.81,2.78,2.78,0,0,0,1.87.52H48a.21.21,0,0,1,.24.24v.36a.21.21,0,0,1-.24.24h-.6A4,4,0,0,1,45,25.7a2.79,2.79,0,0,1-.86-2.35V15.2c0-.07,0-.1-.09-.1H42.53a.21.21,0,0,1-.24-.24v-.34a.21.21,0,0,1,.24-.24H44a.08.08,0,0,0,.09-.09V11.47a.21.21,0,0,1,.24-.24h.44a.21.21,0,0,1,.24.24v2.72a.08.08,0,0,0,.09.09H48a.21.21,0,0,1,.24.24v.34A.21.21,0,0,1,48,15.1Z"/><path d="M59.55,15.23a4,4,0,0,1,1.13,2.95v7.93a.21.21,0,0,1-.24.24H60c-.17,0-.24-.08-.24-.24V18.34a3.39,3.39,0,0,0-.92-2.44,3.16,3.16,0,0,0-2.38-1,3.43,3.43,0,0,0-2.51.93A3.24,3.24,0,0,0,53,18.3v7.81a.21.21,0,0,1-.24.24h-.46a.21.21,0,0,1-.24-.24V9.76a.21.21,0,0,1,.24-.24h.46a.21.21,0,0,1,.24.24v6.06s0,.08,0,.08,0,0,.06,0a3.46,3.46,0,0,1,1.43-1.3,4.64,4.64,0,0,1,2.1-.46A4,4,0,0,1,59.55,15.23Z"/><path d="M71.07,25.14a3.34,3.34,0,0,0,1.3-1.55.22.22,0,0,1,.31-.12l.39.14c.14.05.18.14.12.29a4,4,0,0,1-1.62,1.92,4.84,4.84,0,0,1-2.66.72,4.56,4.56,0,0,1-2.78-.84,4.12,4.12,0,0,1-1.55-2.26,5.68,5.68,0,0,1-.22-1.26c0-.47,0-1.1,0-1.89s0-1.32,0-1.77a6.85,6.85,0,0,1,.16-1.19A4.08,4.08,0,0,1,66,15a4.59,4.59,0,0,1,2.85-.89,4.53,4.53,0,0,1,3,1,4.15,4.15,0,0,1,1.46,2.57,6.93,6.93,0,0,1,.12,1.06c0,.42,0,1,0,1.64,0,.17-.08.26-.24.26H65.35c-.07,0-.1,0-.1.1,0,.49,0,.95,0,1.37a4.41,4.41,0,0,0,.09.91,3.26,3.26,0,0,0,1.19,2A3.79,3.79,0,0,0,69,25.7,3.92,3.92,0,0,0,71.07,25.14Zm-4.52-9.46a3.16,3.16,0,0,0-1.18,1.94,13.35,13.35,0,0,0-.12,2.05c0,.06,0,.09.1.09h7.09c.06,0,.1,0,.1-.09a12,12,0,0,0-.12-2,3.36,3.36,0,0,0-1.21-2,3.55,3.55,0,0,0-2.33-.76A3.6,3.6,0,0,0,66.55,15.68Z"/><path d="M83.16,14.45c.13.05.17.15.12.31l-.17.48c0,.16-.14.2-.28.12a3.32,3.32,0,0,0-1.21-.16,2.91,2.91,0,0,0-1.68.5,3.46,3.46,0,0,0-1.16,1.35,3.94,3.94,0,0,0-.43,1.85v7.21a.21.21,0,0,1-.24.24h-.45a.21.21,0,0,1-.24-.24V14.52a.21.21,0,0,1,.24-.24h.45a.21.21,0,0,1,.24.24v1.81a.09.09,0,0,0,0,.08s0,0,.06-.06a4.22,4.22,0,0,1,1.35-1.59,3.38,3.38,0,0,1,1.94-.57A3.31,3.31,0,0,1,83.16,14.45Z"/><path d="M92.28,25.14a3.32,3.32,0,0,0,1.29-1.55.23.23,0,0,1,.32-.12l.38.14c.14.05.18.14.12.29a4,4,0,0,1-1.61,1.92,4.85,4.85,0,0,1-2.67.72,4.58,4.58,0,0,1-2.78-.84,4.18,4.18,0,0,1-1.55-2.26,5.71,5.71,0,0,1-.21-1.26c0-.47,0-1.1,0-1.89s0-1.32,0-1.77a8,8,0,0,1,.16-1.19A4.1,4.1,0,0,1,87.24,15a5.07,5.07,0,0,1,5.84.07,4.14,4.14,0,0,1,1.45,2.57,5.78,5.78,0,0,1,.13,1.06c0,.42,0,1,0,1.64,0,.17-.08.26-.24.26H86.55c-.06,0-.09,0-.09.1,0,.49,0,.95,0,1.37a5,5,0,0,0,.1.91,3.21,3.21,0,0,0,1.19,2,3.79,3.79,0,0,0,2.39.74A3.94,3.94,0,0,0,92.28,25.14Zm-4.52-9.46a3.16,3.16,0,0,0-1.18,1.94,13.35,13.35,0,0,0-.12,2.05.08.08,0,0,0,.09.09h7.1a.08.08,0,0,0,.09-.09,12,12,0,0,0-.12-2,3.4,3.4,0,0,0-1.2-2,4,4,0,0,0-4.66,0Z"/><path d="M106.34,14.28h.46a.21.21,0,0,1,.24.24V26.11a.21.21,0,0,1-.24.24h-.46a.21.21,0,0,1-.24-.24V24.84c0-.05,0-.08,0-.08a.15.15,0,0,0-.08,0,3.44,3.44,0,0,1-1.42,1.28,4.64,4.64,0,0,1-2.07.43,4.12,4.12,0,0,1-2.92-1.07,3.78,3.78,0,0,1-1.14-2.9v-8a.21.21,0,0,1,.24-.24h.46a.21.21,0,0,1,.24.24v7.82a3.31,3.31,0,0,0,.9,2.44,3.24,3.24,0,0,0,2.39.9,3.39,3.39,0,0,0,2.5-.93,3.21,3.21,0,0,0,.94-2.41V14.52A.21.21,0,0,1,106.34,14.28Z"/><path d="M126.08,15.16A3.87,3.87,0,0,1,127.14,18v8.08a.21.21,0,0,1-.24.24h-.46a.21.21,0,0,1-.24-.24V18.2a3.23,3.23,0,0,0-.87-2.37,3.06,3.06,0,0,0-2.28-.88,3.31,3.31,0,0,0-2.4.86,3.07,3.07,0,0,0-.89,2.34v8a.21.21,0,0,1-.24.24h-.46a.21.21,0,0,1-.24-.24V18.2a3.23,3.23,0,0,0-.87-2.37,3,3,0,0,0-2.26-.88,3.31,3.31,0,0,0-2.4.86,3.1,3.1,0,0,0-.89,2.34v8a.21.21,0,0,1-.24.24h-.46a.21.21,0,0,1-.24-.24V14.52a.21.21,0,0,1,.24-.24h.46a.21.21,0,0,1,.24.24v1.2s0,.08,0,.08a.14.14,0,0,0,.09-.05,3.33,3.33,0,0,1,1.38-1.22,4.63,4.63,0,0,1,2-.42,4,4,0,0,1,2.17.57,3.33,3.33,0,0,1,1.36,1.6s0,0,0,0,0,0,.05,0A3.26,3.26,0,0,1,121,14.67a4.56,4.56,0,0,1,2.3-.56A3.82,3.82,0,0,1,126.08,15.16Z"/><path d="M142.07,10.36h-9.26a.09.09,0,0,0-.1.1v6.92a.09.09,0,0,0,.1.1h6.61a.21.21,0,0,1,.24.24v.38a.21.21,0,0,1-.24.24h-6.61a.09.09,0,0,0-.1.1v7.67a.21.21,0,0,1-.24.24H132a.21.21,0,0,1-.24-.24V9.76a.21.21,0,0,1,.24-.24h10a.21.21,0,0,1,.24.24v.36A.21.21,0,0,1,142.07,10.36Z"/><path d="M151.53,15.16a4,4,0,0,1,1,2.94v8a.21.21,0,0,1-.24.24h-.45a.21.21,0,0,1-.24-.24v-1.2a.07.07,0,0,0,0-.06s0,0-.08,0a3.66,3.66,0,0,1-1.65,1.24,6.07,6.07,0,0,1-2.27.42,4.7,4.7,0,0,1-2.8-.8,2.88,2.88,0,0,1-1.15-2.54A3.32,3.32,0,0,1,145,20.42a5.9,5.9,0,0,1,3.62-1h3a.09.09,0,0,0,.1-.1V18.08a3.25,3.25,0,0,0-.8-2.3,3.25,3.25,0,0,0-2.47-.85,3.88,3.88,0,0,0-2.14.54,2.25,2.25,0,0,0-1,1.46c-.05.16-.14.23-.29.21l-.5-.07a.53.53,0,0,1-.17-.08.13.13,0,0,1,0-.14,3,3,0,0,1,1.39-2,5,5,0,0,1,2.84-.76A4.2,4.2,0,0,1,151.53,15.16Zm-1.07,9.77a2.45,2.45,0,0,0,1.18-2.16V20.32a.09.09,0,0,0-.1-.1h-2.91a5,5,0,0,0-2.92.78,2.48,2.48,0,0,0-1.12,2.15,2.21,2.21,0,0,0,.87,1.9,3.56,3.56,0,0,0,2.23.65A4.91,4.91,0,0,0,150.46,24.93Z"/><path d="M156.69,11.37a1,1,0,0,1-.32-.77,1.07,1.07,0,0,1,.32-.79,1,1,0,0,1,.79-.31,1.06,1.06,0,0,1,1.1,1.1,1,1,0,0,1-.31.77,1.06,1.06,0,0,1-.79.31A1,1,0,0,1,156.69,11.37ZM157,26.09V14.5a.21.21,0,0,1,.24-.24h.46a.21.21,0,0,1,.24.24V26.09a.21.21,0,0,1-.24.24h-.46A.21.21,0,0,1,157,26.09Z"/><path d="M168.51,14.45c.13.05.17.15.12.31l-.16.48c-.05.16-.15.2-.29.12a3.29,3.29,0,0,0-1.2-.16,2.92,2.92,0,0,0-1.69.5,3.55,3.55,0,0,0-1.16,1.35,4.06,4.06,0,0,0-.42,1.85v7.21a.21.21,0,0,1-.24.24H163a.21.21,0,0,1-.24-.24V14.52a.21.21,0,0,1,.24-.24h.46a.21.21,0,0,1,.24.24v1.81s0,.07,0,.08,0,0,.06-.06a4.22,4.22,0,0,1,1.35-1.59,3.39,3.39,0,0,1,1.95-.57A3.29,3.29,0,0,1,168.51,14.45Z"/><polygon class="cls-1" points="11.09 27.81 7.3 25.7 11.09 31.16 11.09 27.81"/><path class="cls-2" d="M17.63,19.78s-6.11,3.58-6.13,3.58-6.13-3.58-6.13-3.58L1.49,21.53l10,5.58,10-5.58Z"/><polygon class="cls-3" points="11.9 31.16 15.69 25.7 11.9 27.81 11.9 31.16"/><polygon class="cls-4" points="11.9 35.94 21.08 22.7 17.31 24.8 11.9 32.6 11.9 35.94"/><polygon class="cls-3" points="11.9 5.03 11.9 22.23 20.24 17.28 11.9 5.03"/><polygon class="cls-5" points="1.92 22.7 11.09 35.94 11.09 32.6 5.69 24.8 1.92 22.7"/><polygon class="cls-1" points="11.09 5.03 2.75 17.28 11.09 22.23 11.09 5.03"/><polygon class="cls-4" points="11.9 3.58 20.94 16.86 22.65 15.85 11.9 0.06 11.9 3.58"/><polygon class="cls-5" points="11.09 0.06 0.35 15.85 2.05 16.86 11.09 3.58 11.09 0.06"/></svg>