<?xml version="1.0" encoding="utf-8"?>
<!-- Generator: Adobe Illustrator 27.5.0, SVG Export Plug-In . SVG Version: 6.00 Build 0)  -->
<svg version="1.1" id="Calque_1" xmlns="http://www.w3.org/2000/svg" xmlns:xlink="http://www.w3.org/1999/xlink" x="0px" y="0px"
	 viewBox="0 0 500 500" style="enable-background:new 0 0 500 500;" xml:space="preserve">
<style type="text/css">
	.st0{fill:#FFFFFF;}
	.st1{fill:#1F2944;}
</style>
<circle class="st0" cx="250" cy="247.67" r="250"/>
<path class="st1" d="M78.39,73.27v348.81h343.23V73.27H78.39z M198.38,113.73h32.09v33.49h-32.09V113.73z M117.45,113.73h33.49
	v33.49h-33.49L117.45,113.73z M149.54,194.65v33.49h-33.49v-33.49H149.54z M141.17,378.82h-13.95v-12.56h12.56v12.56H141.17z
	 M150.94,311.85h-33.49v-32.09h33.49V311.85z M222.1,378.82h-12.56v-12.56h12.56V378.82z M222.1,300.69h-12.56v-12.56h12.56V300.69z
	 M231.86,229.53h-33.49v-33.49h33.49V229.53z M303.02,378.82h-12.56v-12.56h12.56V378.82z M303.02,300.69h-12.56v-12.56h12.56
	V300.69z M303.02,218.37h-12.56v-12.56h12.56V218.37z M314.18,147.21H280.7v-33.49h33.49L314.18,147.21z M385.34,378.82h-12.56
	v-12.56h12.56V378.82z M385.34,300.69h-12.56v-12.56h12.56V300.69z M385.34,218.37h-12.56v-12.56h12.56V218.37z M385.34,137.45
	h-12.56v-12.56h12.56V137.45z"/>
</svg>
