<?xml version="1.0" encoding="utf-8"?>
<!-- Generator: Adobe Illustrator 27.5.0, SVG Export Plug-In . SVG Version: 6.00 Build 0)  -->
<svg version="1.1" id="Layer_1" xmlns="http://www.w3.org/2000/svg" xmlns:xlink="http://www.w3.org/1999/xlink" x="0px" y="0px"
	 viewBox="0 0 500 500" style="enable-background:new 0 0 500 500;" xml:space="preserve">
<style type="text/css">
	.st0{fill:#FFFFFF;}
	.st1{fill:#333333;}
	.st2{fill:#014C6B;}
</style>
<circle class="st0" cx="250.03" cy="250" r="243.27"/>
<path class="st1" d="M250.03,0c138.14,0,250,111.86,250,250s-111.86,250-250,250s-250-111.86-250-250v-2.56
	C1.31,111.22,112.85-0.32,250.03,0z M255.48,18.27c-132.69,0-236.54,103.53-236.86,230.45C17.98,376.6,122.15,482.05,250.35,481.73
	c63.46-0.32,118.27-22.76,163.14-67.63c50.96-50.96,73.4-113.46,67.63-184.94c-4.17-54.17-27.88-104.81-66.67-142.63
	C368.94,41.67,313.81,19.23,255.48,18.27L255.48,18.27z"/>
<path class="st2" d="M474.71,225.64c-4.81-50.96-27.56-98.72-64.1-134.62c-44.23-44.55-98.08-66.99-161.22-66.99
	C124.71,26.6,25.35,129.81,27.92,254.49C30.48,375,127.28,472.76,247.79,475.96c62.5,0.32,116.99-21.47,161.22-65.71
	C459.97,359.3,481.76,297.12,474.71,225.64z M347.47,74.36c3.85,0,6.73,3.21,6.73,7.05c0,3.85-3.21,6.73-7.05,6.73
	s-6.73-3.21-6.73-7.05C340.74,77.24,343.94,74.04,347.47,74.36z M316.7,59.94c3.85,0,7.05,3.21,7.05,7.05s-3.21,6.73-7.05,6.73l0,0
	c-3.53,0-6.73-2.88-6.73-6.41l0,0v-0.32C309.97,62.82,312.85,59.94,316.7,59.94z M284.01,50.96c3.53,0.32,6.41,3.21,7.05,6.73
	c-0.32,3.85-3.53,7.05-7.69,7.05c-3.85,0-6.73-3.21-6.73-7.05C276.95,53.85,280.16,50.96,284.01,50.96z M250.03,48.08
	c3.85,0,6.73,2.88,6.73,6.73s-2.88,6.73-6.73,6.73c-3.85,0-6.73-2.88-6.73-6.73C243.3,51.28,246.19,48.08,250.03,48.08z
	 M216.38,50.96c3.53,0.32,6.73,3.21,6.73,6.73c0,3.85-3.21,6.73-6.73,6.73l0,0h-0.32c-3.85,0-6.73-3.21-6.73-6.73l0,0
	C209.33,54.17,212.53,50.96,216.38,50.96L216.38,50.96z M183.37,59.94c3.85,0,6.73,3.21,6.73,7.05c0,3.53-2.88,6.73-6.41,6.73h-0.32
	c-3.85,0-7.05-2.88-7.05-6.73l0,0v-0.32C176.63,62.82,179.52,59.94,183.37,59.94z M152.6,74.36c3.85-0.32,7.05,2.56,7.37,6.41
	c0.32,3.85-2.56,7.05-6.41,7.37h-0.96c-3.85-0.32-6.73-3.53-6.41-7.37C146.19,77.24,149.07,74.36,152.6,74.36z M124.71,93.59
	c3.85,0,6.73,3.21,6.73,7.05s-3.21,6.73-6.73,6.73s-6.73-2.56-6.73-6.41l0,0v-0.32c0-3.85,2.88-7.05,6.41-7.05H124.71z
	 M100.99,117.63c3.85,0,6.73,3.21,6.73,7.05s-3.21,6.73-7.05,6.73s-6.73-3.21-7.05-7.05C93.94,120.83,97.15,117.63,100.99,117.63
	L100.99,117.63z M81.12,145.51c3.53,0,6.73,2.88,6.73,6.41v0.32c0,3.85-2.88,7.05-6.73,7.05s-7.05-3.21-7.05-7.05
	C74.39,148.4,77.28,145.51,81.12,145.51L81.12,145.51z M66.7,176.28c3.85,0,7.05,3.21,7.05,7.05l0,0c-0.32,3.85-3.85,6.73-7.69,6.41
	c-3.53-0.32-6.09-3.21-6.41-6.73C59.97,179.49,63.17,176.28,66.7,176.28z M58.04,209.3c3.85,0,7.05,3.21,7.05,7.05
	c0,3.85-3.21,6.73-7.05,6.73c-3.53,0-6.73-2.88-6.73-6.73l0,0C51.31,212.5,54.2,209.62,58.04,209.3L58.04,209.3z M48.11,250
	c0-3.85,3.21-6.73,6.73-7.05c3.85,0,6.73,2.88,7.05,6.73l0,0c0.32,3.85-2.56,7.05-6.41,7.05h-0.64
	C50.99,256.73,48.11,253.85,48.11,250z M51.31,283.97c0-3.85,2.88-6.73,6.73-7.05c3.85,0,7.05,3.21,7.05,7.05s-3.21,6.73-7.05,6.73
	l0,0c-3.53,0-6.73-2.88-6.73-6.41V283.97L51.31,283.97z M67.02,323.72c-3.85,0-7.05-2.88-7.05-6.73c0-3.85,3.21-7.05,7.05-7.05
	c3.85,0.32,6.73,3.21,6.73,7.05C73.75,320.51,70.54,323.4,67.02,323.72L67.02,323.72z M81.44,354.49c-3.85,0-6.73-2.88-7.05-6.73
	c0-3.85,3.21-7.05,6.73-7.05h0.32c3.53,0,6.73,2.88,6.73,6.41v0.32C88.17,351.28,85.29,354.17,81.44,354.49
	C81.44,354.17,81.44,354.17,81.44,354.49L81.44,354.49L81.44,354.49z M81.44,300.64l0.32-1.28h73.08c18.91,0,18.91,0,18.91-19.23
	c0-16.03,0-32.05,0-48.08c0-5.13,0.64-7.69,7.05-7.37c13.78,0.64,27.56,0.32,41.35,0c4.81,0,6.41,1.6,6.41,6.09
	c0,26.92,0,53.85,0,80.77c0,5.13-1.6,7.69-7.05,7.05c-1.6-0.32-3.21-0.32-4.81,0c-6.09,0.64-8.33-1.6-8.33-7.69
	c0.32-19.55,0-38.78,0-58.33c0-5.45-1.6-7.69-7.37-7.69c-5.77,0-7.69,1.92-7.37,7.37c0.32,19.55,0,38.78,0.32,58.33
	c0,6.41-1.92,8.33-8.01,8.01c-19.55-0.32-39.42,0.96-58.97-0.64c-9.29-0.64-18.27-5.77-27.24-9.29
	C93.3,306.41,87.21,303.53,81.44,300.64L81.44,300.64z M101.63,382.37c-3.85,0.32-7.37-2.24-7.69-6.09l0,0c0-0.32,0-0.64,0-0.96
	c0.32-3.85,3.53-7.05,7.37-7.05c3.85,0.64,6.73,3.85,7.05,7.69C107.4,379.17,104.84,381.73,101.63,382.37L101.63,382.37z
	 M124.71,406.09c-3.53,0-6.73-2.88-6.73-6.73v-0.32c0-3.85,3.21-6.73,7.05-6.73l0,0c3.85,0,6.73,3.21,6.73,7.05
	s-3.21,6.73-6.73,6.73l0,0L124.71,406.09L124.71,406.09z M152.92,425.64c-3.53,0-6.73-2.56-7.05-6.41l0,0v-0.32
	c0-3.85,2.88-7.05,6.73-7.05h0.32c3.85,0,6.73,3.21,6.73,7.05C159.65,422.76,156.76,425.64,152.92,425.64L152.92,425.64
	L152.92,425.64z M183.69,440.06c-3.85,0.32-7.05-2.56-7.37-6.41v-0.32c0.32-3.85,3.21-6.73,7.05-6.73s6.73,3.21,7.05,6.73
	C190.42,436.86,187.53,440.06,183.69,440.06L183.69,440.06z M157.4,335.9c-6.09-2.56-11.86-5.45-17.95-8.33l0.64-1.92h93.91
	c14.42,0,12.5,1.28,12.82-12.82c0-41.67,0-83.65,0-125.64c0-6.73,1.92-8.97,8.65-8.65c13.46,0.64,26.6,0.32,40.06,0
	c4.81,0,7.05,1.28,7.05,6.41c0,51.92,0,103.53,0,155.45c0,5.45-2.24,7.37-7.37,6.41c-1.6-0.32-3.53-0.64-5.45-0.64
	c-8.33,0.32-8.65,0.32-8.65-8.65V209.3c0-3.53,1.28-8.01-4.49-8.97c-6.73-0.96-8.97,0.64-8.97,7.69v130.13c0,8.97,0,8.97-8.97,8.97
	c-22.76,0-45.19-0.32-67.95,0C177.92,347.44,168.3,340.06,157.4,335.9L157.4,335.9z M216.38,448.72c-3.85,0-7.05-2.88-7.05-6.73
	v-0.32c0-3.85,2.88-7.05,6.73-7.05c3.85,0,7.05,2.88,7.05,6.73C223.11,445.51,220.22,448.72,216.38,448.72z M250.03,451.92
	c-3.85,0-7.05-3.21-7.05-7.05s3.21-6.73,7.05-6.73c3.85,0,6.73,3.21,6.73,7.05C256.76,449.04,253.88,451.92,250.03,451.92z
	 M283.37,448.72c-3.53-0.32-6.41-3.21-6.41-7.05c0-3.85,3.53-6.73,7.05-6.73c3.85,0,6.73,3.53,6.73,7.05
	c-0.32,3.85-3.53,6.73-7.05,6.41L283.37,448.72z M316.7,440.06c-3.53,0-6.73-2.88-6.73-6.41v-0.32c0-3.85,2.88-6.73,6.73-7.05
	c3.85,0,7.05,3.21,7.05,7.05C323.43,437.18,320.54,440.06,316.7,440.06z M347.47,425.64c-3.85,0-6.73-2.88-7.05-6.73l0,0
	c0-3.85,3.21-7.05,7.05-7.05c3.85,0,6.73,3.21,6.73,7.05c0,3.53-2.88,6.73-6.41,6.73H347.47L347.47,425.64z M353.24,359.62
	c0.96-10.26-0.32-153.53-0.32-196.79c0-4.17,0.32-8.01-6.09-8.01c-5.13,0-6.41,1.92-6.41,6.73c0.32,22.44-0.32,191.35-0.32,191.35
	v21.15c-2.56,0.32-4.49,0.64-6.41,0.64c-29.49,0-58.65,0.64-88.14-0.32c-7.37-0.32-14.74-4.81-21.79-8.01
	c-8.33-3.21-16.35-7.37-23.72-12.5c1.92,0,3.85-0.32,5.77-0.32l98.4,0.32c15.06,0,14.74,0,14.74-14.42V141.35
	c0-5.45,1.28-8.01,7.69-8.01c14.1,0.32,28.53,0.32,42.63,0c4.81,0,6.41,1.6,6.41,6.41v225.64c0,9.29,0,9.29-9.29,9.29
	C351.63,374.68,351.95,374.36,353.24,359.62L353.24,359.62z M375.35,406.09c-3.85,0-6.73-2.88-7.05-6.73c0-3.85,3.21-7.05,7.05-7.05
	c3.85,0,6.73,3.21,6.73,7.05l0,0c0.32,3.53-2.56,6.73-6.09,6.73h-0.32H375.35L375.35,406.09z M375.67,107.37
	c-3.85,0-6.73-2.88-7.05-6.73c0,0,0,0,0-0.32c0-3.85,3.21-6.73,6.73-7.05c3.85,0,6.73,2.88,6.73,6.73l0,0
	c0.32,3.53-2.56,6.73-6.09,7.05L375.67,107.37L375.67,107.37z M399.39,382.05c-3.85-0.32-6.73-3.53-6.41-7.37
	c0.32-3.53,2.88-6.09,6.41-6.41c3.85-0.32,7.05,2.56,7.37,6.41c0.32,3.85-2.56,7.05-6.41,7.37
	C400.03,382.05,399.71,382.05,399.39,382.05z M399.39,131.73c-3.85,0-7.05-3.21-7.05-7.05s3.21-7.05,7.05-7.05
	c3.85,0,7.05,3.21,7.05,7.05l0,0C406.12,128.53,403.24,131.41,399.39,131.73L399.39,131.73z M448.75,216.35
	c0,3.53-2.88,6.73-6.41,6.73h-0.32c-3.85,0-6.73-2.88-7.05-6.73c0-3.85,3.53-7.05,7.37-7.05l0,0
	C445.86,209.3,448.75,212.5,448.75,216.35z M418.94,145.83c3.85,0,6.73,3.21,7.05,6.73c0,3.85-3.21,7.05-7.05,7.05
	s-6.73-3.21-6.73-7.05c0-3.53,2.88-6.73,6.41-6.73H418.94L418.94,145.83z M418.94,354.49c-3.85,0-6.73-3.21-6.73-6.73l0,0
	c0-3.53,2.88-6.73,6.41-7.05h0.32c3.85,0,7.05,2.88,7.05,6.73l0,0l0,0C425.67,351.28,422.79,354.49,418.94,354.49L418.94,354.49z
	 M433.04,176.28c3.85,0,6.73,3.21,6.73,6.73c0,3.85-3.21,6.73-6.73,6.73c-3.85,0-6.73-3.21-6.73-6.73l0,0
	C426.31,179.49,429.52,176.6,433.04,176.28z M433.36,323.4c-3.85,0-7.05-2.88-7.05-6.73c-0.32-3.85,2.56-7.05,6.41-7.37
	c3.85-0.32,7.05,2.56,7.69,6.41c0,0.32,0,0.64,0,0.96C440.1,320.51,437.21,323.4,433.36,323.4z M442.02,290.71
	c-3.85,0-6.73-3.21-6.73-7.05c0-3.85,3.53-7.05,7.37-6.73c3.85,0.32,6.41,3.53,6.41,7.05C448.75,287.82,445.86,290.71,442.02,290.71
	L442.02,290.71L442.02,290.71z M445.22,256.73c-3.53,0-6.73-2.56-6.73-6.41l0,0V250c-0.32-3.53,2.24-6.73,5.77-7.05l0,0h0.32
	c4.17-0.32,7.69,2.88,7.69,6.73l0,0V250c0,3.53-2.88,6.73-6.73,6.73l0,0H445.22L445.22,256.73z"/>
</svg>
