<?xml version="1.0" encoding="utf-8"?>
<!-- Generator: Adobe Illustrator 25.0.1, SVG Export Plug-In . SVG Version: 6.00 Build 0)  -->
<svg version="1.0" id="katman_1" xmlns="http://www.w3.org/2000/svg" xmlns:xlink="http://www.w3.org/1999/xlink" x="0px" y="0px"
	 viewBox="0 0 290 196.3" style="enable-background:new 0 0 290 196.3;" xml:space="preserve">
<style type="text/css">
	.st0{fill:#FFFFFF;}
	.st1{fill:#333333;}
	.st2{fill:#004B6A;}
</style>
<circle class="st0" cx="145" cy="98.1" r="75.9"/>
<path class="st1" d="M145,20.1c43.1,0,78,34.9,78,78s-34.9,78-78,78s-78-34.9-78-78v-0.8C67.4,54.8,102.2,20,145,20.1z M146.7,25.8
	c-41.4,0-73.8,32.3-73.9,71.9c-0.2,39.9,32.3,72.8,72.3,72.7c19.8-0.1,36.9-7.1,50.9-21.1c15.9-15.9,22.9-35.4,21.1-57.7
	c-1.3-16.9-8.7-32.7-20.8-44.5C182.1,33.1,164.9,26.1,146.7,25.8L146.7,25.8z"/>
<path class="st2" d="M215.1,90.5c-1.5-15.9-8.6-30.8-20-42c-13.8-13.9-30.6-20.9-50.3-20.9c-38.9,0.8-69.9,33-69.1,71.9
	c0.8,37.6,31,68.1,68.6,69.1c19.5,0.1,36.5-6.7,50.3-20.5C210.5,132.2,217.3,112.8,215.1,90.5z M175.4,43.3c1.2,0,2.1,1,2.1,2.2
	s-1,2.1-2.2,2.1c-1.2,0-2.1-1-2.1-2.2C173.3,44.2,174.3,43.2,175.4,43.3z M165.8,38.8c1.2,0,2.2,1,2.2,2.2c0,1.2-1,2.1-2.2,2.1
	c0,0,0,0,0,0c-1.1,0-2.1-0.9-2.1-2c0,0,0,0,0,0v-0.1C163.7,39.7,164.6,38.8,165.8,38.8z M155.6,36c1.1,0.1,2,1,2.2,2.1
	c-0.1,1.2-1.1,2.2-2.4,2.2c-1.2,0-2.1-1-2.1-2.2C153.4,36.9,154.4,36,155.6,36z M145,35.1c1.2,0,2.1,0.9,2.1,2.1s-0.9,2.1-2.1,2.1
	c-1.2,0-2.1-0.9-2.1-2.1C142.9,36.1,143.8,35.1,145,35.1z M134.5,36c1.1,0.1,2.1,1,2.1,2.1c0,1.2-1,2.1-2.1,2.1c0,0,0,0,0,0h-0.1
	c-1.2,0-2.1-1-2.1-2.1c0,0,0,0,0,0C132.3,37,133.3,36,134.5,36L134.5,36z M124.2,38.8c1.2,0,2.1,1,2.1,2.2c0,1.1-0.9,2.1-2,2.1h-0.1
	c-1.2,0-2.2-0.9-2.2-2.1c0,0,0,0,0,0c0,0,0-0.1,0-0.1C122.1,39.7,123,38.8,124.2,38.8z M114.6,43.3c1.2-0.1,2.2,0.8,2.3,2
	c0.1,1.2-0.8,2.2-2,2.3h-0.3c-1.2-0.1-2.1-1.1-2-2.3C112.6,44.2,113.5,43.3,114.6,43.3z M105.9,49.3c1.2,0,2.1,1,2.1,2.2
	c0,1.2-1,2.1-2.1,2.1c-1.1,0-2.1-0.8-2.1-2c0,0,0,0,0,0c0,0,0-0.1,0-0.1c0-1.2,0.9-2.2,2-2.2L105.9,49.3z M98.5,56.8
	c1.2,0,2.1,1,2.1,2.2c0,1.2-1,2.1-2.2,2.1c-1.2,0-2.1-1-2.2-2.2C96.3,57.8,97.3,56.8,98.5,56.8L98.5,56.8z M92.3,65.5
	c1.1,0,2.1,0.9,2.1,2c0,0,0,0.1,0,0.1c0,1.2-0.9,2.2-2.1,2.2c-1.2,0-2.2-1-2.2-2.2C90.2,66.4,91.1,65.5,92.3,65.5L92.3,65.5z
	 M87.8,75.1c1.2,0,2.2,1,2.2,2.2v0c-0.1,1.2-1.2,2.1-2.4,2c-1.1-0.1-1.9-1-2-2.1C85.7,76.1,86.7,75.1,87.8,75.1z M85.1,85.4
	c1.2,0,2.2,1,2.2,2.2c0,1.2-1,2.1-2.2,2.1c-1.1,0-2.1-0.9-2.1-2.1c0,0,0,0,0,0C83,86.4,83.9,85.5,85.1,85.4L85.1,85.4z M82,98.1
	c0-1.2,1-2.1,2.1-2.2c1.2,0,2.1,0.9,2.2,2.1c0,0,0,0,0,0c0.1,1.2-0.8,2.2-2,2.2h-0.2C82.9,100.2,82,99.3,82,98.1z M83,108.7
	c0-1.2,0.9-2.1,2.1-2.2c1.2,0,2.2,1,2.2,2.2c0,1.2-1,2.1-2.2,2.1c0,0,0,0,0,0c-1.1,0-2.1-0.9-2.1-2V108.7L83,108.7z M87.9,121.1
	c-1.2,0-2.2-0.9-2.2-2.1c0-1.2,1-2.2,2.2-2.2c1.2,0.1,2.1,1,2.1,2.2C90,120.1,89,121,87.9,121.1L87.9,121.1z M92.4,130.7
	c-1.2,0-2.1-0.9-2.2-2.1c0-1.2,1-2.2,2.1-2.2h0.1c1.1,0,2.1,0.9,2.1,2c0,0,0,0.1,0,0.1C94.5,129.7,93.6,130.6,92.4,130.7
	C92.4,130.6,92.4,130.6,92.4,130.7L92.4,130.7L92.4,130.7z M92.4,113.9l0.1-0.4h22.8c5.9,0,5.9,0,5.9-6c0-5,0-10,0-15
	c0-1.6,0.2-2.4,2.2-2.3c4.3,0.2,8.6,0.1,12.9,0c1.5,0,2,0.5,2,1.9c0,8.4,0,16.8,0,25.2c0,1.6-0.5,2.4-2.2,2.2c-0.5-0.1-1-0.1-1.5,0
	c-1.9,0.2-2.6-0.5-2.6-2.4c0.1-6.1,0-12.1,0-18.2c0-1.7-0.5-2.4-2.3-2.4c-1.8,0-2.4,0.6-2.3,2.3c0.1,6.1,0,12.1,0.1,18.2
	c0,2-0.6,2.6-2.5,2.5c-6.1-0.1-12.3,0.3-18.4-0.2c-2.9-0.2-5.7-1.8-8.5-2.9C96.1,115.7,94.2,114.8,92.4,113.9L92.4,113.9z
	 M98.7,139.4c-1.2,0.1-2.3-0.7-2.4-1.9c0,0,0,0,0,0c0-0.1,0-0.2,0-0.3c0.1-1.2,1.1-2.2,2.3-2.2c1.2,0.2,2.1,1.2,2.2,2.4
	C100.5,138.4,99.7,139.2,98.7,139.4L98.7,139.4z M105.9,146.8c-1.1,0-2.1-0.9-2.1-2.1v-0.1c0-1.2,1-2.1,2.2-2.1c0,0,0,0,0,0
	c1.2,0,2.1,1,2.1,2.2c0,1.2-1,2.1-2.1,2.1c0,0,0,0,0,0L105.9,146.8L105.9,146.8z M114.7,152.9c-1.1,0-2.1-0.8-2.2-2c0,0,0,0,0,0
	c0,0,0-0.1,0-0.1c0-1.2,0.9-2.2,2.1-2.2h0.1c1.2,0,2.1,1,2.1,2.2C116.8,152,115.9,152.9,114.7,152.9
	C114.7,152.9,114.7,152.9,114.7,152.9L114.7,152.9z M124.3,157.4c-1.2,0.1-2.2-0.8-2.3-2c0,0,0-0.1,0-0.1c0.1-1.2,1-2.1,2.2-2.1
	c1.2,0,2.1,1,2.2,2.1C126.4,156.4,125.5,157.4,124.3,157.4L124.3,157.4z M116.1,124.9c-1.9-0.8-3.7-1.7-5.6-2.6l0.2-0.6H140
	c4.5,0,3.9,0.4,4-4c0-13,0-26.1,0-39.2c0-2.1,0.6-2.8,2.7-2.7c4.2,0.2,8.3,0.1,12.5,0c1.5,0,2.2,0.4,2.2,2c0,16.2,0,32.3,0,48.5
	c0,1.7-0.7,2.3-2.3,2c-0.5-0.1-1.1-0.2-1.7-0.2c-2.6,0.1-2.7,0.1-2.7-2.7v-40c0-1.1,0.4-2.5-1.4-2.8c-2.1-0.3-2.8,0.2-2.8,2.4v40.6
	c0,2.8,0,2.8-2.8,2.8c-7.1,0-14.1-0.1-21.2,0C122.5,128.5,119.5,126.2,116.1,124.9L116.1,124.9z M134.5,160.1
	c-1.2,0-2.2-0.9-2.2-2.1c0,0,0-0.1,0-0.1c0-1.2,0.9-2.2,2.1-2.2c1.2,0,2.2,0.9,2.2,2.1C136.6,159.1,135.7,160.1,134.5,160.1z
	 M145,161.1c-1.2,0-2.2-1-2.2-2.2c0-1.2,1-2.1,2.2-2.1c1.2,0,2.1,1,2.1,2.2C147.1,160.2,146.2,161.1,145,161.1z M155.4,160.1
	c-1.1-0.1-2-1-2-2.2c0-1.2,1.1-2.1,2.2-2.1c1.2,0,2.1,1.1,2.1,2.2c-0.1,1.2-1.1,2.1-2.2,2L155.4,160.1z M165.8,157.4
	c-1.1,0-2.1-0.9-2.1-2v-0.1c0-1.2,0.9-2.1,2.1-2.2c1.2,0,2.2,1,2.2,2.2C167.9,156.5,167,157.4,165.8,157.4z M175.4,152.9
	c-1.2,0-2.1-0.9-2.2-2.1c0,0,0,0,0,0c0-1.2,1-2.2,2.2-2.2c1.2,0,2.1,1,2.1,2.2c0,1.1-0.9,2.1-2,2.1L175.4,152.9L175.4,152.9z
	 M177.2,132.3c0.3-3.2-0.1-47.9-0.1-61.4c0-1.3,0.1-2.5-1.9-2.5c-1.6,0-2,0.6-2,2.1c0.1,7-0.1,59.7-0.1,59.7v6.6
	c-0.8,0.1-1.4,0.2-2,0.2c-9.2,0-18.3,0.2-27.5-0.1c-2.3-0.1-4.6-1.5-6.8-2.5c-2.6-1-5.1-2.3-7.4-3.9c0.6,0,1.2-0.1,1.8-0.1l30.7,0.1
	c4.7,0,4.6,0,4.6-4.5V64.2c0-1.7,0.4-2.5,2.4-2.5c4.4,0.1,8.9,0.1,13.3,0c1.5,0,2,0.5,2,2v70.4c0,2.9,0,2.9-2.9,2.9
	C176.7,137,176.8,136.9,177.2,132.3L177.2,132.3z M184.1,146.8c-1.2,0-2.1-0.9-2.2-2.1c0-1.2,1-2.2,2.2-2.2c1.2,0,2.1,1,2.1,2.2
	c0,0,0,0,0,0c0.1,1.1-0.8,2.1-1.9,2.1c0,0-0.1,0-0.1,0L184.1,146.8L184.1,146.8z M184.2,53.6c-1.2,0-2.1-0.9-2.2-2.1c0,0,0,0,0-0.1
	c0-1.2,1-2.1,2.1-2.2c1.2,0,2.1,0.9,2.1,2.1c0,0,0,0,0,0c0.1,1.1-0.8,2.1-1.9,2.2L184.2,53.6L184.2,53.6z M191.6,139.3
	c-1.2-0.1-2.1-1.1-2-2.3c0.1-1.1,0.9-1.9,2-2c1.2-0.1,2.2,0.8,2.3,2c0.1,1.2-0.8,2.2-2,2.3C191.8,139.3,191.7,139.3,191.6,139.3z
	 M191.6,61.2c-1.2,0-2.2-1-2.2-2.2s1-2.2,2.2-2.2c1.2,0,2.2,1,2.2,2.2v0C193.7,60.2,192.8,61.1,191.6,61.2L191.6,61.2z M207,87.6
	c0,1.1-0.9,2.1-2,2.1h-0.1c-1.2,0-2.1-0.9-2.2-2.1c0-1.2,1.1-2.2,2.3-2.2c0,0,0,0,0,0C206.1,85.4,207,86.4,207,87.6z M197.7,65.6
	c1.2,0,2.1,1,2.2,2.1c0,1.2-1,2.2-2.2,2.2c-1.2,0-2.1-1-2.1-2.2c0-1.1,0.9-2.1,2-2.1L197.7,65.6L197.7,65.6z M197.7,130.7
	c-1.2,0-2.1-1-2.1-2.1l0,0c0-1.1,0.9-2.1,2-2.2h0.1c1.2,0,2.2,0.9,2.2,2.1c0,0,0,0,0,0v0C199.8,129.7,198.9,130.7,197.7,130.7
	L197.7,130.7z M202.1,75.1c1.2,0,2.1,1,2.1,2.1c0,1.2-1,2.1-2.1,2.1c-1.2,0-2.1-1-2.1-2.1c0,0,0,0,0,0C200,76.1,201,75.2,202.1,75.1
	z M202.2,121c-1.2,0-2.2-0.9-2.2-2.1c-0.1-1.2,0.8-2.2,2-2.3c1.2-0.1,2.2,0.8,2.4,2c0,0.1,0,0.2,0,0.3
	C204.3,120.1,203.4,121,202.2,121z M204.9,110.8c-1.2,0-2.1-1-2.1-2.2c0-1.2,1.1-2.2,2.3-2.1c1.2,0.1,2,1.1,2,2.2
	C207,109.9,206.1,110.8,204.9,110.8C204.9,110.8,204.9,110.8,204.9,110.8L204.9,110.8z M205.9,100.2c-1.1,0-2.1-0.8-2.1-2
	c0,0,0,0,0,0c0,0,0-0.1,0-0.1c-0.1-1.1,0.7-2.1,1.8-2.2c0,0,0,0,0,0h0.1c1.3-0.1,2.4,0.9,2.4,2.1c0,0,0,0,0,0v0.1
	c0,1.1-0.9,2.1-2.1,2.1c0,0,0,0,0,0L205.9,100.2L205.9,100.2z"/>
</svg>
