<svg width="48" height="48" viewBox="0 0 48 48" fill="none" xmlns="http://www.w3.org/2000/svg">
<rect width="48" height="48" rx="24" fill="#664059"/>
<path d="M31.2839 23.74C31.8702 23.1334 31.8702 22.0935 31.2839 21.4869L25.7563 15.7674C25.17 15.1608 24.2487 15.1608 23.5787 15.7674L18.1348 21.5735C17.5486 22.1802 17.5486 23.2201 18.1348 23.8267L19.0561 24.7799V33.6192L18.1348 34.5724C17.5486 35.179 17.5486 36.2189 18.1348 36.8255L23.6625 42.545C24.2487 43.1517 25.2538 43.1517 25.84 42.545L31.3677 36.8255C31.9539 36.2189 31.9539 35.179 31.3677 34.5724L30.4464 33.6192V24.7799L31.2839 23.74ZM29.3576 34.0525L29.5251 34.1391L30.6139 35.2657C30.8652 35.5257 30.8652 35.8723 30.6139 36.1323L25.0863 41.7651C24.835 42.0251 24.5 42.0251 24.2487 41.7651L18.7211 36.0456C18.4699 35.7856 18.4699 35.439 18.7211 35.179L19.8099 34.0525L19.9774 33.9658V24.3466L19.8099 24.26L18.7211 23.1334C18.4699 22.8734 18.4699 22.5268 18.7211 22.2668L24.165 16.634C24.4162 16.374 24.7513 16.374 25.0025 16.634L30.5302 22.3535C30.7814 22.6135 30.7814 22.9601 30.5302 23.2201L29.4414 24.3466H29.3576V34.0525ZM24.6675 21.6602L22.5737 23.8267C22.3224 24.0867 22.1549 24.52 22.1549 24.9533V33.3592C22.1549 33.7925 22.3224 34.1391 22.5737 34.4857L24.6675 36.6522L26.7613 34.4857C27.0126 34.2258 27.1801 33.7925 27.1801 33.3592V24.9533C27.1801 24.52 27.0126 24.1733 26.7613 23.8267L24.6675 21.6602ZM26.2588 33.3592C26.2588 33.5325 26.175 33.7058 26.0913 33.7925L24.6675 35.2657L23.2437 33.7925C23.16 33.7058 23.0762 33.5325 23.0762 33.3592V24.9533C23.0762 24.7799 23.16 24.6066 23.2437 24.52L24.6675 23.0468L26.0913 24.52C26.175 24.6066 26.2588 24.7799 26.2588 24.9533V33.3592ZM36.5603 13.3409L28.9389 5.45496C28.3526 4.84835 27.4313 4.84835 26.8451 5.45496L25.3375 7.01482L26.0075 7.7081L27.5151 6.14823C27.7663 5.97491 28.1013 5.97491 28.2688 6.14823L35.8903 14.0342C36.0578 14.2942 36.0578 14.6408 35.8903 14.8141L33.964 16.8073C33.7127 16.9806 33.3777 16.9806 33.2102 16.8073L22.1549 5.45496C21.5687 4.84835 20.6474 4.84835 20.0611 5.45496L12.4397 13.3409C11.8534 13.9475 11.8534 14.9008 12.4397 15.5074L14.366 17.5006C14.9523 18.1072 15.8735 18.1072 16.4598 17.5006L23.6625 10.0479L22.9925 9.35462L15.7898 16.8073C15.5385 16.9806 15.2035 16.9806 15.036 16.8073L13.026 14.8141C12.7747 14.5542 12.7747 14.2075 13.026 14.0342L20.7312 6.14823C20.9824 5.97491 21.3174 5.97491 21.4849 6.14823L32.5402 17.5872C33.1265 18.1938 34.0477 18.1938 34.634 17.5872L36.5603 15.5941C37.1466 14.9008 37.1466 13.9475 36.5603 13.3409Z" fill="white"/>
</svg>
