<?xml version="1.0" encoding="utf-8"?>
<!-- Generator: Adobe Illustrator 27.5.0, SVG Export Plug-In . SVG Version: 6.00 Build 0)  -->
<svg version="1.1" id="Layer_1" xmlns="http://www.w3.org/2000/svg" xmlns:xlink="http://www.w3.org/1999/xlink" x="0px" y="0px"
	 viewBox="0 0 500 500" style="enable-background:new 0 0 500 500;" xml:space="preserve">
<style type="text/css">
	.st0{fill:#FFFFFF;}
</style>
<g>
	<circle cx="250" cy="250" r="250"/>
	<g>
		<path class="st0" d="M489.01,200.96c-3.22-15.7-8.01-31.03-14.26-45.79c-6.16-14.54-13.71-28.45-22.52-41.54
			c-8.75-12.94-18.71-25-29.78-36.03c-11.03-11.05-23.09-21.03-36.06-29.78c-13.12-8.77-27.02-16.32-41.54-22.52
			c-60.62-25.7-129.07-25.7-189.69,0c-29.02,12.24-55.36,30-77.57,52.33c-11.05,11.01-21.03,23.07-29.78,36.01
			c-8.77,13.12-16.32,27.04-22.52,41.54c-25.7,60.62-25.7,129.07,0,189.69c6.01,14.52,13.77,28.27,22.52,41.54
			c8.75,12.94,18.71,25.02,29.78,36.06c11.03,11.05,23.09,21.03,36.06,29.78c13.01,8.75,27.02,16.27,41.54,22.52
			c60.62,25.7,129.07,25.7,189.69,0c14.52-6.01,28.27-13.77,41.54-22.52c12.94-8.75,25.02-18.71,36.06-29.78
			c11.05-11.03,21.03-23.09,29.78-36.06c8.75-13.01,16.27-27.02,22.52-41.54C493.99,299.46,498.97,249.25,489.01,200.96z
			 M250.24,463.48c-117.86,0-213.2-95.6-213.2-213.22s95.6-213.22,213.2-213.22c117.62,0,213.22,95.6,213.22,213.22
			S367.88,463.48,250.24,463.48z"/>
		<path class="st0" d="M254.01,444.95h5.77c1.01,0,1.97,0,2.98-0.26h0.26c1.01,0,1.73,0,2.74-0.24h0.77c0.75,0,1.51,0,2.26-0.24
			h0.75c0.75,0,1.51-0.24,2.52-0.24h0.48c1.01,0,2-0.26,3-0.26s1.75-0.24,2.76-0.48h0.48c0.75,0,1.51-0.24,2.26-0.24h0.5
			c1.01-0.26,1.75-0.26,2.76-0.5c1.97-0.24,3.99-0.75,5.75-1.25h0.5c0.75-0.24,1.73-0.24,2.5-0.5h0.24c2-0.48,3.75-1.01,5.77-1.49
			c-18.75,0.59-37.48-1.16-55.79-5.24c-27.55-6.01-53.82-16.76-76.08-35.29c-35.6-29.65-55.99-73.65-55.58-119.92
			c0.18-34.08,12.3-67.02,34.28-93.1c28.53-33.77,69.09-51.56,110.6-52.57h5.77V99.83h-6.49c-12.63,0.24-25.22,1.73-37.55,4.5
			c-12.41,2.81-24.48,6.91-36.03,12.26c-11.78,5.53-22.79,12.26-33.05,20.02c-10.59,8.05-20.26,17.3-28.77,27.52
			c-8.03,9.47-14.98,19.78-20.77,30.77c-5.72,10.59-10.33,21.73-13.77,33.27c-3.38,11.36-5.64,23.01-6.75,34.81l-0.75,10.99v6.49
			c0.24,12.76,1.75,25.29,4.5,37.55c2.76,12.52,7.02,24.52,12.26,36.06c6.27,13.75,17.55,34.04,34.3,49.3
			c34.21,26.98,76.54,41.6,120.12,41.54C249.5,444.95,254.01,444.95,254.01,444.95z"/>
		<path class="st0" d="M308.56,412.91c-12.35-0.44-24.63-1.78-36.78-4.01c-51.54-9.26-95.84-40.79-112.09-88.32
			c-19.78-57.81,10.51-120.38,68.05-139.38c10.97-3.68,22.46-5.55,34.04-5.53c14.78,0,29.54,3,43.05,8.51l13.99-29.78
			c-4.21-1.69-8.47-3.27-12.74-4.74c-14.34-4.5-29.28-6.78-44.3-6.75c-15.05,0.02-30,2.48-44.28,7.26
			c-18.23,6.01-35,15.73-49.3,28.53c-6.89,6.14-13.18,12.92-18.75,20.26c-5.53,7.26-10.31,15.07-14.26,23.27
			c-8.07,16.51-12.83,34.45-14.01,52.81c-1.25,19.01,1.25,38.01,7.5,56.04c6.38,18.53,16.6,35.53,30.05,49.81
			c12.26,13.27,26.54,23.27,43.78,32.55c18.03,9.5,40.31,14.52,63.56,17.79c15.02,1.97,35.05,2.5,46.8,2.5
			c10.26-3.75,14.52-5.53,20.02-7.76c4.76-2.26,9.5-4.5,14.26-7.26s5.53-3.27,13.51-8.51c0.7-0.44,1.38-0.94,2-1.51
			C335.1,413.41,328.08,413.15,308.56,412.91z"/>
		<path class="st0" d="M370.14,375.63c-7.76,0.48-18.77,1.23-31.3,1.23c-22.28,0-49.57-1.97-72.81-9.74
			c-36.06-12-70.07-42.77-70.07-80.82c-0.04-37.85,30.62-68.54,68.45-68.58c0.04,0,0.09,0,0.13,0c25.77,0,48.05,14.26,59.83,35.02
			l29.78-14.76c-4.67-8.79-10.66-16.8-17.79-23.77c-39.61-39.67-103.87-39.72-143.52-0.13c-0.04,0.04-0.09,0.09-0.13,0.13
			c-19.06,19.04-29.78,44.87-29.78,71.83c0.07,13.97,3.07,27.79,8.79,40.55c5.24,11.51,12.5,22.28,21.76,32.28
			c16.27,17.5,38.53,31.52,62.31,39.52c22.77,7.5,56.3,10.26,88.85,8.01c8.99-0.75,15.75-1.51,27.26-4.01
			c11.1-8.77,21.19-18.75,30.05-29.78C394.16,373.39,379.9,374.88,370.14,375.63z"/>
	</g>
</g>
</svg>
