<?xml version="1.0" encoding="utf-8"?>
<!-- Generator: Adobe Illustrator 27.5.0, SVG Export Plug-In . SVG Version: 6.00 Build 0)  -->
<svg version="1.1" id="Layer_1" xmlns="http://www.w3.org/2000/svg" xmlns:xlink="http://www.w3.org/1999/xlink" x="0px" y="0px"
	 viewBox="0 0 32 32" style="enable-background:new 0 0 32 32;" xml:space="preserve">
<style type="text/css">
	.st0{fill:#FFFFFF;}
</style>
<g>
	<circle cx="-2.84" cy="-8.66" r="113.99"/>
	<g>
		<path class="st0" d="M106.14-31.02c-1.47-7.16-3.65-14.15-6.5-20.88c-2.81-6.63-6.25-12.97-10.27-18.94
			c-3.99-5.9-8.53-11.4-13.58-16.43c-5.03-5.04-10.53-9.59-16.44-13.58c-5.98-4-12.32-7.44-18.94-10.27
			c-27.64-11.72-58.85-11.72-86.49,0c-13.23,5.58-25.24,13.68-35.37,23.86c-5.04,5.02-9.59,10.52-13.58,16.42
			c-4,5.98-7.44,12.33-10.27,18.94c-11.72,27.64-11.72,58.85,0,86.49c2.74,6.62,6.28,12.89,10.27,18.94
			c3.99,5.9,8.53,11.41,13.58,16.44c5.03,5.04,10.53,9.59,16.44,13.58c5.93,3.99,12.32,7.42,18.94,10.27
			c27.64,11.72,58.85,11.72,86.49,0c6.62-2.74,12.89-6.28,18.94-10.27c5.9-3.99,11.41-8.53,16.44-13.58
			c5.04-5.03,9.59-10.53,13.58-16.44c3.99-5.93,7.42-12.32,10.27-18.94C108.41,13.89,110.68-9,106.14-31.02z M-2.73,88.68
			c-53.74,0-97.21-43.59-97.21-97.22s43.59-97.22,97.21-97.22c53.63,0,97.22,43.59,97.22,97.22S50.91,88.68-2.73,88.68z"/>
		<path class="st0" d="M-1.01,80.23h2.63c0.46,0,0.9,0,1.36-0.12H3.1c0.46,0,0.79,0,1.25-0.11H4.7c0.34,0,0.69,0,1.03-0.11h0.34
			c0.34,0,0.69-0.11,1.15-0.11h0.22c0.46,0,0.91-0.12,1.37-0.12c0.46,0,0.8-0.11,1.26-0.22h0.22c0.34,0,0.69-0.11,1.03-0.11h0.23
			c0.46-0.12,0.8-0.12,1.26-0.23c0.9-0.11,1.82-0.34,2.62-0.57h0.23c0.34-0.11,0.79-0.11,1.14-0.23h0.11
			c0.91-0.22,1.71-0.46,2.63-0.68c-8.55,0.27-17.09-0.53-25.44-2.39c-12.56-2.74-24.54-7.64-34.69-16.09
			C-56.82,45.62-66.12,25.56-65.93,4.46c0.08-15.54,5.61-30.56,15.63-42.45c13.01-15.4,31.5-23.51,50.43-23.97h2.63v-15.17h-2.96
			c-5.76,0.11-11.5,0.79-17.12,2.05c-5.66,1.28-11.16,3.15-16.43,5.59c-5.37,2.52-10.39,5.59-15.07,9.13
			c-4.83,3.67-9.24,7.89-13.12,12.55c-3.66,4.32-6.83,9.02-9.47,14.03c-2.61,4.83-4.71,9.91-6.28,15.17
			c-1.54,5.18-2.57,10.49-3.08,15.87l-0.34,5.01v2.96c0.11,5.82,0.8,11.53,2.05,17.12c1.26,5.71,3.2,11.18,5.59,16.44
			c2.86,6.27,8,15.52,15.64,22.48c15.6,12.3,34.9,18.97,54.77,18.94C-3.07,80.23-1.01,80.23-1.01,80.23z"/>
		<path class="st0" d="M23.86,65.62c-5.63-0.2-11.23-0.81-16.77-1.83c-23.5-4.22-43.7-18.6-51.11-40.27
			c-9.02-26.36,4.79-54.89,31.03-63.55c5-1.68,10.24-2.53,15.52-2.52c6.74,0,13.47,1.37,19.63,3.88l6.38-13.58
			c-1.92-0.77-3.86-1.49-5.81-2.16c-6.54-2.05-13.35-3.09-20.2-3.08c-6.86,0.01-13.68,1.13-20.19,3.31
			c-8.31,2.74-15.96,7.17-22.48,13.01c-3.14,2.8-6.01,5.89-8.55,9.24c-2.52,3.31-4.7,6.87-6.5,10.61
			c-3.68,7.53-5.85,15.71-6.39,24.08c-0.57,8.67,0.57,17.33,3.42,25.55c2.91,8.45,7.57,16.2,13.7,22.71
			c5.59,6.05,12.1,10.61,19.96,14.84c8.22,4.33,18.38,6.62,28.98,8.11c6.85,0.9,15.98,1.14,21.34,1.14
			c4.68-1.71,6.62-2.52,9.13-3.54c2.17-1.03,4.33-2.05,6.5-3.31c2.17-1.26,2.52-1.49,6.16-3.88c0.32-0.2,0.63-0.43,0.91-0.69
			C35.96,65.85,32.76,65.73,23.86,65.62z"/>
		<path class="st0" d="M51.94,48.62c-3.54,0.22-8.56,0.56-14.27,0.56c-10.16,0-22.6-0.9-33.2-4.44
			c-16.44-5.47-31.95-19.5-31.95-36.85C-27.5-9.37-13.52-23.36,3.73-23.38c0.02,0,0.04,0,0.06,0c11.75,0,21.91,6.5,27.28,15.97
			l13.58-6.73c-2.13-4.01-4.86-7.66-8.11-10.84c-18.06-18.09-47.36-18.11-65.44-0.06c-0.02,0.02-0.04,0.04-0.06,0.06
			c-8.69,8.68-13.58,20.46-13.58,32.75c0.03,6.37,1.4,12.67,4.01,18.49c2.39,5.25,5.7,10.16,9.92,14.72
			c7.42,7.98,17.57,14.37,28.41,18.02c10.38,3.42,25.67,4.68,40.51,3.65c4.1-0.34,7.18-0.69,12.43-1.83c5.06-4,9.66-8.55,13.7-13.58
			C62.89,47.6,56.39,48.28,51.94,48.62z"/>
	</g>
</g>
</svg>
