<?xml version="1.0" encoding="utf-8"?>
<!-- Generator: Adobe Illustrator 22.0.1, SVG Export Plug-In . SVG Version: 6.00 Build 0)  -->
<svg version="1.1" id="Layer_1" xmlns="http://www.w3.org/2000/svg" xmlns:xlink="http://www.w3.org/1999/xlink" x="0px" y="0px"
	 viewBox="0 0 300 300" style="enable-background:new 0 0 300 300;" xml:space="preserve">
<style type="text/css">
	.st0{fill:#FCFCFC;}
</style>
<path d="M150,7.6C71.3,7.7,7.6,71.6,7.7,150.3c0,37.7,15,73.8,41.7,100.5l0,0c55.7,55.6,145.8,55.5,201.3-0.2s55.5-145.8-0.2-201.3
	C223.8,22.6,187.7,7.6,150,7.6z"/>
<path class="st0" d="M150,6.3C70.2,6.3,5.6,71.1,5.7,150.9c0,38.2,15.2,74.9,42.3,101.9l0,0c56.4,56.3,147.8,56.2,204.2-0.2
	s56.2-147.8-0.2-204.2C224.9,21.4,188.2,6.3,150,6.3z M150,280.6c-71.8,0.1-130.1-58.1-130.1-129.9S77.9,20.7,149.7,20.7
	s130.1,58.1,130.1,129.9c0,0,0,0.1,0,0.1C279.9,222.4,221.8,280.6,150,280.6C150,280.6,150,280.6,150,280.6z"/>
<path class="st0" d="M72.4,216.5c-11.2-23.7-12.2-52.7-2.2-77c5.8-14,14.9-26.4,26.6-36.1C113,90,134.1,82,155.2,82.1l0.1-13v-2.5
	c0,0-1.9,0-2.7,0c-27.2,1-53.1,12.1-72.6,31c-17.4,17.1-28.3,40.5-31.1,64.7c-3,26.1,4.3,53.4,20.7,74l0.3,0.3
	c6.7,8.4,14.6,15.9,24,21c15.7,8.6,33.2,13.5,51.2,14.1C114.1,266,85.8,244.9,72.4,216.5z"/>
<path class="st0" d="M228.8,233.6c-3,0.3-6.1,0.5-9.1,0.7c-25.6,1.4-53.8,0.8-76.3-12.9c-6.2-3.8-11.8-8.5-16.5-14.1
	c-16.2-19.3-15.7-48.5,5.1-64.5c18.1-13.9,45.3-11.3,59.9,6.5c1.3,1.6,4.1,5.2,4.1,5.2s4.8-2.5,6.3-3.3l0.5-0.2l0.3-0.2l0.8-0.4
	l0.4-0.2l3.6-1.8l2-1l-0.1-0.1c-4.2-7-9.8-13.1-16.5-17.9c-12.7-9-28.4-12.9-43.9-10.6c-24.8,3.8-45.4,22.9-49.4,47.7
	c-4.2,25.7,8.7,50.4,29.8,64.7c22,14.9,49.6,16.9,75.7,15.9c6.1-0.3,18.6-1.3,18.5-1.5c5.1-4.1,9.8-8.6,14.2-13.4
	C238.3,232.2,230.1,233.5,228.8,233.6z"/>
<path class="st0" d="M185.6,256.8c-3.1-0.1-6.2-0.3-9.4-0.6c-25.7-2.5-51.9-12.2-68.9-32.4c-15.7-18.7-22.3-45.3-14.6-68.8
	c11.7-35.5,49.9-54.9,85.5-43.2c1.2,0.4,2.3,0.8,3.4,1.2c0,0,3-6.6,3.3-7.3v-0.1l0.1-0.2l0.2-0.5c1-2.1,1.9-4.2,2.9-6.2
	c-21.6-7.7-44.8-8.1-65.9,1.5c-42.1,19.2-60.7,68.9-41.5,111c2.5,5.5,5.6,10.6,9.2,15.5c9.2,12.4,22,21.9,35.6,29
	c21.6,11.2,52.8,12.6,55,12.1c10.8-2.6,26.2-9.9,29.3-12.4c-4.6,0.9-12.6,1.2-17.4,1.4C190.3,256.8,188,256.8,185.6,256.8z"/>
</svg>
