<?xml version="1.0" encoding="utf-8"?>
<!-- Generator: Adobe Illustrator 27.5.0, SVG Export Plug-In . SVG Version: 6.00 Build 0)  -->
<svg version="1.1" id="Layer_1" xmlns="http://www.w3.org/2000/svg" xmlns:xlink="http://www.w3.org/1999/xlink" x="0px" y="0px"
	 viewBox="0 0 500 500" style="enable-background:new 0 0 500 500;" xml:space="preserve">
<style type="text/css">
	.st0{fill:#FFFFFF;}
</style>
<g>
	<circle cx="250" cy="250" r="250"/>
	<g>
		<path class="st0" d="M469,205c-3-14.4-7.3-28.4-13.1-42c-5.6-13.3-12.6-26.1-20.6-38.1c-8-11.9-17.1-22.9-27.3-33
			c-10.1-10.1-21.2-19.3-33.1-27.3c-12-8-24.8-15-38.1-20.6c-55.6-23.6-118.3-23.6-173.9,0C136.5,55.2,112.3,71.5,92,92
			c-10.1,10.1-19.3,21.1-27.3,33c-8,12-15,24.8-20.6,38.1c-23.6,55.6-23.6,118.3,0,173.9c5.5,13.3,12.6,25.9,20.6,38.1
			c8,11.9,17.1,22.9,27.3,33.1c10.1,10.1,21.2,19.3,33.1,27.3c11.9,8,24.8,14.9,38.1,20.6c55.6,23.6,118.3,23.6,173.9,0
			c13.3-5.5,25.9-12.6,38.1-20.6c11.9-8,22.9-17.1,33.1-27.3c10.1-10.1,19.3-21.2,27.3-33.1c8-11.9,14.9-24.8,20.6-38.1
			C473.6,295.3,478.2,249.3,469,205z M250.2,445.6c-108,0-195.4-87.6-195.4-195.4S142.4,54.8,250.2,54.8
			c107.8,0,195.4,87.6,195.4,195.4S358,445.6,250.2,445.6z"/>
		<path class="st0" d="M253.7,428.6h5.3c0.9,0,1.8,0,2.7-0.2h0.2c0.9,0,1.6,0,2.5-0.2h0.7c0.7,0,1.4,0,2.1-0.2h0.7
			c0.7,0,1.4-0.2,2.3-0.2h0.4c0.9,0,1.8-0.2,2.7-0.2c0.9,0,1.6-0.2,2.5-0.4h0.4c0.7,0,1.4-0.2,2.1-0.2h0.5c0.9-0.2,1.6-0.2,2.5-0.5
			c1.8-0.2,3.7-0.7,5.3-1.1h0.5c0.7-0.2,1.6-0.2,2.3-0.5h0.2c1.8-0.4,3.4-0.9,5.3-1.4c-17.2,0.5-34.4-1.1-51.1-4.8
			c-25.3-5.5-49.3-15.4-69.7-32.3c-32.6-27.2-51.3-67.5-50.9-109.9c0.2-31.2,11.3-61.4,31.4-85.3c26.1-31,63.3-47.3,101.4-48.2h5.3
			v-30.5h-5.9c-11.6,0.2-23.1,1.6-34.4,4.1c-11.4,2.6-22.4,6.3-33,11.2c-10.8,5.1-20.9,11.2-30.3,18.3c-9.7,7.4-18.6,15.9-26.4,25.2
			c-7.4,8.7-13.7,18.1-19,28.2c-5.2,9.7-9.5,19.9-12.6,30.5c-3.1,10.4-5.2,21.1-6.2,31.9l-0.7,10.1v5.9c0.2,11.7,1.6,23.2,4.1,34.4
			c2.5,11.5,6.4,22.5,11.2,33.1c5.7,12.6,16.1,31.2,31.4,45.2c31.4,24.7,70.2,38.1,110.1,38.1C249.5,428.6,253.7,428.6,253.7,428.6z
			"/>
		<path class="st0" d="M303.7,399.3c-11.3-0.4-22.6-1.6-33.7-3.7c-47.2-8.5-87.8-37.4-102.7-80.9c-18.1-53,9.6-110.3,62.4-127.7
			c10.1-3.4,20.6-5.1,31.2-5.1c13.5,0,27.1,2.7,39.5,7.8l12.8-27.3c-3.9-1.5-7.8-3-11.7-4.3c-13.1-4.1-26.8-6.2-40.6-6.2
			c-13.8,0-27.5,2.3-40.6,6.7c-16.7,5.5-32.1,14.4-45.2,26.1c-6.3,5.6-12.1,11.8-17.2,18.6c-5.1,6.7-9.4,13.8-13.1,21.3
			c-7.4,15.1-11.8,31.6-12.8,48.4c-1.1,17.4,1.1,34.8,6.9,51.4c5.8,17,15.2,32.6,27.5,45.7c11.2,12.2,24.3,21.3,40.1,29.8
			c16.5,8.7,36.9,13.3,58.3,16.3c13.8,1.8,32.1,2.3,42.9,2.3c9.4-3.4,13.3-5.1,18.3-7.1c4.4-2.1,8.7-4.1,13.1-6.7s5.1-3,12.4-7.8
			c0.6-0.4,1.3-0.9,1.8-1.4C328,399.7,321.5,399.5,303.7,399.3z"/>
		<path class="st0" d="M360.1,365.1c-7.1,0.4-17.2,1.1-28.7,1.1c-20.4,0-45.4-1.8-66.7-8.9c-33.1-11-64.2-39.2-64.2-74.1
			c0-34.7,28.1-62.8,62.7-62.9c0,0,0.1,0,0.1,0c23.6,0,44,13.1,54.8,32.1l27.3-13.5c-4.3-8.1-9.8-15.4-16.3-21.8
			c-36.3-36.4-95.2-36.4-131.5-0.1c0,0-0.1,0.1-0.1,0.1c-17.5,17.5-27.3,41.1-27.3,65.8c0.1,12.8,2.8,25.5,8.1,37.2
			c4.8,10.5,11.5,20.4,19.9,29.6c14.9,16,35.3,28.9,57.1,36.2c20.9,6.9,51.6,9.4,81.4,7.3c8.2-0.7,14.4-1.4,25-3.7
			c10.2-8,19.4-17.2,27.5-27.3C382.1,363.1,369,364.4,360.1,365.1z"/>
	</g>
</g>
</svg>
