<?xml version="1.0" encoding="utf-8"?>
<!-- Generator: Adobe Illustrator 27.5.0, SVG Export Plug-In . SVG Version: 6.00 Build 0)  -->
<svg version="1.1" id="Layer_1" xmlns="http://www.w3.org/2000/svg" xmlns:xlink="http://www.w3.org/1999/xlink" x="0px" y="0px"
	 viewBox="0 0 500 500" style="enable-background:new 0 0 500 500;" xml:space="preserve">
<style type="text/css">
	.st0{fill:#352B68;}
	.st1{fill:#FFFFFF;}
</style>
<path class="st0" d="M500.27,250.58c0.12,9.91-0.49,20.11-1.91,30.24c-1.18,8.39-2.62,16.73-4.46,25.03
	c-2.71,12.18-6.39,24-10.88,35.59c-4.7,12.13-10.38,23.8-17.02,34.99c-5.75,9.69-11.97,19.07-19.02,27.87
	c-3.45,4.3-6.9,8.62-10.67,12.63c-4.62,4.91-9.73,9.35-14.35,14.25c-5.96,6.33-12.54,11.91-19.47,17.08
	c-5.58,4.17-11.3,8.17-17.15,11.96c-10.75,6.97-22.09,12.92-33.72,18.29c-10.44,4.82-21.22,8.81-32.36,11.71
	c-9.08,2.37-18.18,4.83-27.41,6.46c-8.38,1.48-16.92,2.16-25.42,2.73c-17.76,1.2-31.36,0.21-35.97-0.13
	c-9.94-0.72-16.58-1.79-29.14-3.79c-4.85-0.77-10.38-1.95-17.7-3.96c-6.7-1.84-11.73-3.62-14.77-4.7
	c-1.89-0.67-8.53-3.13-17.17-6.88c-6.46-2.8-12.57-6.22-18.88-9.26c-6.1-2.94-11.71-6.76-17.55-10.15
	c-6.5-3.77-12.27-8.52-18.2-13.06c-5.13-3.94-10.21-7.97-15.06-12.24c-3.64-3.21-6.88-6.88-10.33-10.32
	c-1.88-1.87-3.91-3.59-5.72-5.52c-2.16-2.29-4.21-4.68-6.21-7.11c-3.22-3.91-6.51-7.79-9.51-11.88c-3.35-4.57-6.57-9.25-9.58-14.05
	c-3.67-5.87-7.08-11.9-10.56-17.88c-1.85-3.18-3.73-6.35-5.38-9.64c-1.89-3.78-3.65-7.63-5.25-11.54
	c-1.44-3.52-2.53-7.17-3.86-10.74c-0.69-1.84-1.58-3.6-2.34-5.4c-0.37-0.88-0.7-1.79-0.98-2.71c-1.26-4.2-2.53-8.4-3.71-12.62
	c-0.35-1.24-0.27-2.6-0.59-3.85c-0.7-2.8-1.57-5.55-2.28-8.35c-0.31-1.24-0.34-2.54-0.6-3.79c-0.85-4.15-1.74-8.3-2.61-12.44
	c0,0-0.1-0.49-0.25-1.3c-3.5-18.54-1.88-45.59-1.88-45.59c0.78-13.04,1.56-26.06,5.28-43.56c3.41-16.05,8.06-30.06,12.85-41.81
	c8.39-20.6,17.45-34.84,19.47-37.98c3.64-5.66,8.45-12.83,19.26-26.24c2.83-3.52,5.62-7.08,8.67-10.42
	c2.76-3.02,5.86-5.71,8.75-8.61c7.16-7.2,14.69-13.98,22.89-20c3.16-2.32,6.12-4.92,9.36-7.12c4.44-3.01,9.09-5.71,13.58-8.65
	c8.48-5.56,17.72-9.65,26.82-14.02c6.82-3.28,13.83-6.1,21.01-8.55c12.79-4.36,25.81-7.74,39.13-10.05
	c16.36-2.84,32.85-3.83,49.43-3.45c10.21,0.23,20.35,1.14,30.46,2.65c9.09,1.35,18.09,3.07,26.93,5.54
	c7.53,2.11,13.23,3.82,15.31,4.5c9.46,3.13,16.49,6.11,19.21,7.29c3.48,1.51,5.95,2.83,9.52,4.39c5.05,2.2,10.18,4.43,14.79,7.4
	c7.5,4.85,13.22,8.07,20.92,13.55c8.03,5.72,15.66,11.2,24.55,19.64c1.35,1.28,3.92,3.91,9.08,9.18
	c8.86,9.05,13.17,13.84,17.24,18.4c3.68,4.12,7.09,8.53,9.91,13.36c2.83,4.83,5.86,9.57,9.14,14.1c2.41,3.33,4.08,7.06,6.41,10.44
	c2.26,3.28,3.38,7.34,5.21,10.94c4.75,9.35,8.41,19.14,11.81,29.03c3.74,10.87,7.37,26.15,8.97,35.51
	C498.83,220.66,500.39,235.37,500.27,250.58z"/>
<path class="st1" d="M136.17,472.32c0.2,0.24,0.4,0.48,0.6,0.73c1.35-0.89,2.72-1.74,4.03-2.66c19.06-13.4,38.09-26.85,57.18-40.21
	c5.57-3.9,11.37-7.48,16.99-11.31c3.47-2.36,3.88-4.66,1.41-8.07c-1.87-2.57-3.87-5.08-6.08-7.36c-7.14-7.38-10.52-16.17-10.63-26.4
	c-0.21-18.75-0.71-37.5-0.85-56.25c-0.34-45.43-0.56-90.85-0.78-136.28c-0.24-49.32-0.41-98.64-0.62-147.96
	c-0.02-4.58-0.04-9.17-0.1-13.75c-0.01-1.12-0.02-2.37-2.05-1.81c-0.1,1.83-0.06,3.77-0.32,5.66c-1.76,12.77-3.51,25.54-5.44,38.29
	c-0.62,4.06-3.06,18.07-3.7,20.97c-5.8,26.28-12.46,52.17-25.85,75.98c-5.88,10.44-12.15,20.44-19.65,29.72
	c-2.74,3.39-2.75,4.04,0.45,7.28c5.82,5.87,9.99,12.75,12.87,20.47c4.27,11.46,6.17,23.41,6.32,35.51c0.3,23.33,0.05,46.67,0,70
	c-0.03,14.17-0.36,28.34-0.09,42.51c0.29,15.28-0.84,30.41-3.51,45.43c-0.68,3.82-1.71,7.58-2.71,11.34
	c-1.36,5.13-2.56,10.32-4.31,15.31c-2.73,7.75-5.82,15.37-8.85,23C139.16,465.8,137.61,469.04,136.17,472.32z"/>
<path class="st1" d="M305.21,20.29c-0.5,0.05-1,0.1-1.51,0.14c-0.06,1.45-0.15,2.89-0.16,4.34c-0.17,26.67-0.31,53.33-0.48,80
	c-0.14,23.06-0.32,46.11-0.46,69.17c-0.22,36.25-0.46,72.5-0.62,108.75c-0.12,27.08-0.15,54.17-0.17,81.25
	c0,6.95-0.08,13.88-1.54,20.72c-2.12,9.88-7.31,17.95-14.79,24.52c-2.13,1.88-3.35,4-2.52,6.42c0.6,1.75,2.34,3.38,3.97,4.47
	c4.29,2.88,8.9,5.29,13.21,8.15c20.25,13.43,40.04,27.51,59.32,42.3c1.43,1.1,2.81,2.15,5.06,1.66c-0.29-0.8-0.46-1.44-0.73-2.02
	c-6.02-12.75-10.89-25.92-14.78-39.46c-3.48-12.13-7-24.21-7.18-37.01c-0.29-20.41-0.94-40.81-1.16-61.22
	c-0.22-20.69-0.11-41.39-0.12-62.09c0-4.44-0.13-8.91,0.26-13.32c0.39-4.43,0.54-8.89,0.89-13.31c0.45-5.54,1.62-10.81,2.99-16.11
	c2.53-9.79,6.55-18.8,13.31-26.51c4.79-5.46,4.7-6.54,0.41-12.18c-0.34-0.44-0.71-0.86-1.02-1.31c-4.33-6.27-9.04-12.31-12.88-18.87
	c-6.91-11.81-12.62-24.22-17.13-37.2c-7.39-21.29-12.19-43.22-15.97-65.36c-2.31-13.52-3.56-27.22-5.31-40.84
	C305.88,23.66,305.51,21.98,305.21,20.29z"/>
<path class="st1" d="M157.51,478c0.12,0.19,0.24,0.39,0.36,0.58c0.5-0.16,1.02-0.28,1.51-0.49c5.78-2.43,11.49-5.02,17.34-7.27
	c8.58-3.3,17.22-6.48,25.91-9.49c13.64-4.71,27.72-7.45,42.12-8.32c7.62-0.46,15.17,0.29,22.76,1.27
	c10.62,1.38,20.91,3.87,31.01,7.27c3.91,1.32,7.67,3.04,11.56,4.42c4.78,1.69,9.74,2.92,14.42,4.85c6.17,2.55,12.13,5.58,18.19,8.38
	c0.17,0.08,0.48-0.18,1.14-0.44c-0.88-0.83-1.54-1.66-2.38-2.23c-9.81-6.78-19.64-13.52-29.46-20.26
	c-5.08-3.48-10.16-6.96-15.24-10.44c-3.15-2.16-6.29-4.35-9.45-6.5c-10.54-7.17-21.06-14.37-31.65-21.45
	c-3.59-2.4-7.35-2.63-10.96,0.18c-0.66,0.51-1.37,0.94-2.06,1.42c-16.37,11.27-32.73,22.54-49.11,33.79
	c-9.61,6.6-19.24,13.17-28.85,19.76C162.26,474.68,159.89,476.35,157.51,478z"/>
<path class="st1" d="M250.51,309.42c2.51-31.44,2.5-212.82-0.17-225.01C247.68,159.42,247.66,234.42,250.51,309.42z"/>
</svg>
