<?xml version="1.0" encoding="utf-8"?>
<!-- Generator: Adobe Illustrator 22.0.1, SVG Export Plug-In . SVG Version: 6.00 Build 0)  -->
<svg version="1.1" id="Layer_1" xmlns="http://www.w3.org/2000/svg" xmlns:xlink="http://www.w3.org/1999/xlink" x="0px" y="0px"
	 viewBox="0 0 400 400" style="enable-background:new 0 0 400 400;" xml:space="preserve">
<style type="text/css">
	.st0{fill:#F7183A;}
	.st1{fill:#FEFAFC;}
</style>
<g>
	<path class="st0" d="M339.6,339.6c-76.6,76.6-202.6,76.6-279.2,0s-76.6-202.6,0-279.2s202.6-76.6,279.2,0S416.1,263,339.6,339.6z
		 M284.4,152.9c0.3-0.8-0.3-1.9-1.6-2.7c-0.5-0.3-1-0.5-1.4-0.8c-3.8-2.2-7.6-4.5-11.4-6.7c-2.6-1.5-5.2-3-7.8-4.5
		c-4.4-2.5-8.7-5.1-13.1-7.6c-2.7-1.6-5.4-3.1-8.2-4.7c-7.1-4.1-14.2-8.2-21.3-12.3c-5.7-3.2-11.4-6.3-17-9.7
		c-1.9-1.2-3.5-1.1-5.3-0.2c-1.9,1-3.9,2-5.8,3.1c-3.3,1.9-6.4,3.9-9.7,5.8c-1.9,1.1-3.9,2-5.8,3.1c-2.4,1.4-4.8,3-7.2,4.4
		c-4.6,2.6-9.3,5.2-13.9,7.8c-2.5,1.5-5,3.1-7.5,4.5c-2,1.2-4.1,2.1-6.1,3.3c-3.6,2.1-7,4.4-10.6,6.5c-4.2,2.5-8.5,4.7-12.8,7.1
		c-1.4,0.8-2.8,1.8-2.8,3.6c0,2.4,0.3,4.8,0.3,7.2c0,23.8,0,47.6,0,71.4c0,5,0,9.9,0,14.9c0,1.4,0.3,2.4,1.7,3.1
		c1.5,0.8,3,1.8,4.5,2.7c2.8,1.7,5.6,3.6,8.5,5.2c2.7,1.6,5.6,2.9,8.3,4.5c3.5,2,7,4,10.5,6.1c3.4,2,6.8,4.2,10.3,6.2
		c3,1.8,6.2,3.2,9.2,5c3.4,2,6.6,4.2,10,6.1c2.4,1.4,5,2.7,7.5,4c2.2,1.2,4.4,2.3,6.5,3.5c2.1,1.2,4.1,2.4,6.1,3.7
		c1.1,0.7,2,0.5,3,0c3.7-2.1,7.3-4.2,11-6.3c10.5-6.1,21.1-12.2,31.6-18.3c3.5-2,7-3.9,10.5-5.9c6.5-3.7,13-7.5,19.5-11.3
		c2.3-1.4,4.5-2.9,7-4.1c2.6-1.3,3.6-3,3.5-6C284.4,214.5,284.4,184.1,284.4,152.9z"/>
	<path class="st1" d="M284.6,152.7c0,31.1,0,61.6,0.1,92c0,3-0.9,4.7-3.5,6c-2.4,1.2-4.6,2.7-7,4.1c-6.5,3.8-13,7.5-19.5,11.3
		c-3.5,2-7,3.9-10.5,5.9c-10.6,6.1-21.1,12.2-31.6,18.3c-3.6,2.1-7.3,4.2-11,6.3c-1,0.6-1.9,0.7-3,0c-2-1.3-4-2.5-6.1-3.7
		c-2.1-1.2-4.3-2.3-6.5-3.5c-2.5-1.3-5.1-2.6-7.5-4c-3.4-2-6.6-4.2-10-6.1c-3-1.8-6.2-3.3-9.2-5c-3.5-2-6.8-4.2-10.3-6.2
		c-3.5-2.1-7-4.1-10.5-6.1c-2.7-1.5-5.6-2.9-8.3-4.5c-2.9-1.7-5.7-3.5-8.5-5.2c-1.5-0.9-2.9-1.9-4.5-2.7c-1.3-0.7-1.7-1.7-1.7-3.1
		c0-5,0-9.9,0-14.9c0-23.8,0-47.6,0-71.4c0-2.4-0.4-4.8-0.3-7.2c0-1.8,1.4-2.8,2.8-3.6c4.2-2.4,8.6-4.7,12.8-7.1
		c3.6-2.1,7-4.4,10.6-6.5c2-1.2,4.1-2.2,6.1-3.3c2.5-1.5,5-3.1,7.5-4.5c4.6-2.6,9.3-5.2,13.9-7.8c2.5-1.4,4.8-3,7.2-4.4
		c1.9-1.1,3.9-2,5.8-3.1c3.3-1.9,6.4-3.9,9.7-5.8c1.9-1.1,3.8-2.1,5.8-3.1c1.8-0.9,3.4-0.9,5.3,0.2c5.6,3.4,11.3,6.5,17,9.7
		c7.1,4.1,14.2,8.2,21.3,12.3c2.7,1.6,5.4,3.1,8.2,4.7c4.4,2.5,8.7,5,13.1,7.6c2.6,1.5,5.2,3,7.8,4.5c3.8,2.2,7.6,4.5,11.4,6.7
		c0.5,0.3,1,0.5,1.4,0.8C284.2,150.8,284.8,151.9,284.6,152.7z M238.8,174.8c-0.3-0.6-0.4-1-0.7-1.4c-3.5-5.8-6.9-11.6-10.4-17.5
		c-2.3-3.9-4.7-7.9-7-11.8c-2.5-4.2-4.9-8.4-7.4-12.5c-3.5-5.9-7.1-11.7-10.6-17.6c-0.9-1.5-1.9-3-2.6-4.6c-0.5-1.2-1.1-1.4-2.1-0.8
		c-2.4,1.3-4.7,2.7-7.1,4.1c-6.4,3.7-12.9,7.5-19.3,11.2c-5.9,3.4-11.7,6.8-17.6,10.2c-5,2.9-10,5.8-15,8.6c-4.4,2.5-8.8,5-13.2,7.6
		c-0.8,0.5-1.7,1-2.5,1.6c-0.2,0.2-0.4,1-0.2,1.1c1,0.7,2,1.4,3.1,2c1.7,0.9,3.5,1.6,5.1,2.6c4.3,2.4,8.5,4.9,12.8,7.4
		c4.6,2.7,9.2,5.3,13.8,8c2,1.2,4,2.5,6.1,3.7c2.6,1.5,5.2,2.9,7.8,4.5c1.5,0.9,3,2,4.5,2.8c1.8,1,3.6,1.8,5.4,2.8
		c2,1.2,3.9,2.6,5.9,3.8c1.5,0.9,3.2,1.4,4.7,2.3c2.3,1.3,4.6,2.8,6.9,4.2c0.4,0.2,1,0.2,1.4,0c1-0.5,1.8-1.3,2.8-1.8
		c2.6-1.5,5.2-2.9,7.7-4.4c8.9-5.1,17.7-10.1,26.6-15.2C238.2,175.3,238.5,175.1,238.8,174.8z M280.2,245c0-29.6,0-59,0-88.9
		c-1.5,0.9-2.6,1.6-3.8,2.3c-6.3,3.7-12.7,7.3-19,11c-9.8,5.7-19.6,11.3-29.4,16.9c-8.1,4.7-16.1,9.4-24.3,14.1
		c-1.1,0.6-1.4,1.2-1.4,2.3c0,13.2,0,26.4,0,39.6c0,0.8-0.1,1.7-0.2,2.6C228.2,245,254.1,245,280.2,245z M197.8,200.7
		c-1.3-0.5-2.2-0.8-3-1.3c-3.3-1.9-6.6-3.9-9.9-5.8c-4.7-2.8-9.5-5.5-14.3-8.2c-0.8-0.5-1.7-0.9-2.5-1.4c-2.3-1.4-4.5-2.7-6.8-4.1
		c-0.7-0.4-1.4-0.6-1.8,0.4c-0.1,0.4-0.5,0.7-0.7,1c-6.1,10.4-12.1,20.8-18.2,31.2c-6.4,10.9-12.8,21.8-19.2,32.6
		c-0.5,0.9-0.4,1.4,0.5,1.9c4.8,2.7,9.5,5.4,14.2,8.1c3,1.7,6,3.4,8.9,5.1c7.4,4.3,14.8,8.5,22.2,12.8c8.8,5.1,17.6,10.3,26.5,15.5
		c1.3,0.8,2.6,1.6,4,2.4C197.8,260.8,197.8,230.6,197.8,200.7z M120,237.9c0.2,0,0.4,0,0.5,0c2-3.5,4-7.1,6-10.6
		c2.3-4.1,4.8-8.1,7.1-12.1c1.7-2.8,3.3-5.6,4.9-8.4c1.9-3.1,3.8-6.1,5.6-9.3c2.2-3.7,4.3-7.5,6.4-11.2c1.5-2.7,3.1-5.3,4.7-7.9
		c0.6-1,0.4-1.8-0.6-2.2c-2.2-0.9-3.8-2.8-6.2-3.6c-1.5-0.5-2.7-1.7-4.1-2.5c-4.2-2.4-8.5-4.7-12.7-7.2c-3-1.7-5.8-3.6-8.8-5.3
		c-0.9-0.5-1.8-0.9-3-1.4C120,183.5,120,210.7,120,237.9z M202.2,291c6-3.5,11.9-6.9,17.8-10.3c5.9-3.4,11.7-6.8,17.6-10.2
		c5.9-3.4,11.8-6.8,17.8-10.2c5.9-3.4,11.7-6.7,17.5-10.1c-0.1-0.2-0.1-0.4-0.2-0.6c-23.5,0-47,0-70.5,0
		C202.2,263.3,202.2,277,202.2,291z M242.8,172.4c0.2-0.1,0.7-0.3,1.2-0.6c10.9-6.2,21.8-12.4,32.8-18.6c0.8-0.4,1.1-0.9,0-1.4
		c-0.7-0.3-1.4-0.8-2.1-1.2c-8.1-4.7-16.2-9.4-24.2-14c-13.8-8-27.6-16-41.4-24.1c-0.6-0.3-1.2-0.5-2.2-0.8
		C219,132.1,230.9,152.2,242.8,172.4z"/>
	<path class="st0" d="M238.8,174.8c-0.3,0.2-0.5,0.5-0.8,0.6c-8.9,5.1-17.7,10.1-26.6,15.2c-0.7,0.4-4,2.3-7.7,4.4
		c-1.6,0.9-2.9,1.7-3.7,2.1c-2.4-1.5-4.9-3-7.4-4.5c-3.6-2.1-7.2-4.2-10.7-6.1c-4.1-2.4-7.5-4.3-9.9-5.7c-2.9-1.6-4.8-2.7-7.8-4.5
		c-2-1.2-4-2.5-6.1-3.7c-4.6-2.7-9.2-5.4-13.8-8c-4.3-2.5-8.5-4.9-12.8-7.4c-1.7-0.9-3.5-1.7-5.1-2.6c-1.1-0.6-2.1-1.3-3.1-2
		c-0.1-0.1,0-0.9,0.2-1.1c0.8-0.6,1.6-1.1,2.5-1.6c4.4-2.5,8.8-5,13.2-7.6c5-2.9,10-5.7,15-8.6c5.9-3.4,11.7-6.8,17.6-10.2
		c6.4-3.7,12.9-7.5,19.3-11.2c2.4-1.4,4.7-2.7,7.1-4.1c1-0.6,1.6-0.3,2.1,0.8c0.7,1.6,1.7,3.1,2.6,4.6c3.5,5.9,7.1,11.7,10.6,17.6
		c2.5,4.2,4.9,8.4,7.4,12.5c2.3,3.9,4.6,7.9,7,11.8c3.5,5.8,6.9,11.6,10.4,17.5C238.3,173.8,238.5,174.3,238.8,174.8z"/>
	<path class="st0" d="M280.2,245c-26.1,0-52,0-78.1,0c0.1-0.9,0.2-1.8,0.2-2.6c0-13.2,0-26.4,0-39.6c0-1.1,0.3-1.7,1.4-2.3
		c8.1-4.6,16.2-9.4,24.3-14.1c9.8-5.7,19.6-11.3,29.4-16.9c6.3-3.7,12.7-7.3,19-11c1.2-0.7,2.4-1.4,3.8-2.3
		C280.2,186,280.2,215.4,280.2,245z"/>
	<path class="st0" d="M197.8,200.7c0,29.9,0,60,0,90.4c-1.3-0.8-2.6-1.6-4-2.4c-8.8-5.2-17.6-10.4-26.5-15.5
		c-7.4-4.3-14.8-8.6-22.2-12.8c-3-1.7-5.9-3.4-8.9-5.1c-4.7-2.7-9.5-5.4-14.2-8.1c-0.4-0.3-0.7-0.5-0.8-0.8c-0.1-0.5,0.2-1,0.3-1.1
		c0.6-0.9,8.4-14.2,19.2-32.6c6.5-11,13-22,19.5-32.9c2.6,1.5,5.3,2.9,7.9,4.4c5.6,3.2,11.2,6.4,16.7,9.6
		C189.1,196,193.4,198.4,197.8,200.7z"/>
	<path class="st0" d="M120,237.9c0-27.2,0-54.4,0-81.8c1.1,0.5,2.1,0.9,3,1.4c2.9,1.8,5.8,3.6,8.8,5.3c4.8,2.8,4.9,2.5,12.7,7.2
		c1.8,1.1,3.2,1.9,4.1,2.5c3.1,1.9,5.2,3.1,6.2,3.6c0.2,0.1,0.7,0.3,0.9,0.8c0.1,0.4,0,0.9-0.3,1.4c-1.6,2.6-3.2,5.3-4.7,7.9
		c-2.2,3.7-4.2,7.5-6.4,11.2c-1.8,3.1-3.8,6.2-5.6,9.3c-1.7,2.8-3.3,5.6-4.9,8.4c-2.4,4-4.8,8.1-7.1,12.1c-2,3.5-4,7-6,10.6
		C120.4,237.9,120.2,237.9,120,237.9z"/>
	<path class="st0" d="M202.2,291c0-14,0-27.7,0-41.4c23.4,0,47,0,70.5,0c0.1,0.2,0.1,0.4,0.2,0.6c-5.9,3.4-11.7,6.7-17.5,10.1
		c-5.9,3.4-11.8,6.8-17.8,10.2c-5.9,3.4-11.7,6.8-17.6,10.2C214.1,284.1,208.3,287.5,202.2,291z"/>
	<path class="st0" d="M242.8,172.4c-12-20.2-23.8-40.3-35.9-60.7c1,0.4,1.6,0.5,2.2,0.8c13.8,8,27.6,16,41.4,24.1
		c8.1,4.7,16.1,9.4,24.2,14c0.7,0.4,1.4,0.8,2.1,1.2c1.1,0.5,0.7,1,0,1.4c-10.9,6.2-21.8,12.4-32.8,18.6
		C243.5,172.1,243,172.3,242.8,172.4z"/>
</g>
</svg>
