<?xml version="1.0" encoding="utf-8"?>
<!-- Generator: Adobe Illustrator 27.5.0, SVG Export Plug-In . SVG Version: 6.00 Build 0)  -->
<svg version="1.1" id="Layer_1" xmlns="http://www.w3.org/2000/svg" xmlns:xlink="http://www.w3.org/1999/xlink" x="0px" y="0px"
	 viewBox="0 0 1920 1080" style="enable-background:new 0 0 1920 1080;" xml:space="preserve">
<style type="text/css">
	.st0{fill:#F7183A;}
	.st1{fill:#FEFAFC;}
</style>
<g>
	<path class="st0" d="M1103.88,685.2c-68.57,68.57-181.43,68.57-250,0s-68.57-181.43,0-250s181.43-68.57,250,0
		S1172.45,616.62,1103.88,685.2z M1054.5,518.04c0.24-0.71-0.29-1.69-1.44-2.38c-0.42-0.25-0.87-0.44-1.28-0.68
		c-3.4-2.01-6.79-4.03-10.19-6.03c-2.31-1.36-4.64-2.68-6.96-4.02c-3.91-2.26-7.83-4.53-11.74-6.78c-2.43-1.4-4.87-2.8-7.3-4.2
		c-6.36-3.67-12.7-7.35-19.07-11c-5.07-2.9-10.21-5.68-15.21-8.7c-1.69-1.03-3.12-1-4.72-0.19c-1.74,0.89-3.49,1.75-5.18,2.74
		c-2.92,1.7-5.77,3.52-8.69,5.22c-1.71,1-3.52,1.82-5.22,2.81c-2.19,1.27-4.29,2.7-6.49,3.95c-4.14,2.37-8.34,4.64-12.49,7.01
		c-2.28,1.3-4.47,2.74-6.74,4.06c-1.78,1.03-3.65,1.91-5.42,2.97c-3.18,1.91-6.26,3.97-9.46,5.84c-3.77,2.2-7.63,4.23-11.43,6.38
		c-1.26,0.71-2.5,1.63-2.53,3.21c-0.04,2.14,0.28,4.28,0.28,6.42c0.03,21.33,0.02,42.66,0.02,63.98c0,4.46,0.01,8.91-0.03,13.37
		c-0.01,1.23,0.31,2.15,1.48,2.77c1.38,0.74,2.68,1.62,4.02,2.44c2.53,1.56,5.03,3.18,7.6,4.67c2.44,1.41,4.98,2.63,7.44,4.01
		c3.15,1.77,6.28,3.57,9.39,5.42c3.08,1.83,6.08,3.78,9.18,5.58c2.71,1.57,5.55,2.91,8.26,4.49c3.01,1.76,5.91,3.72,8.92,5.48
		c2.19,1.28,4.47,2.4,6.71,3.59c1.94,1.03,3.9,2.02,5.81,3.11c1.85,1.05,3.68,2.15,5.46,3.33c0.98,0.65,1.83,0.49,2.72-0.02
		c3.28-1.87,6.55-3.75,9.81-5.64c9.44-5.47,18.88-10.95,28.32-16.42c3.11-1.8,6.26-3.53,9.37-5.32c5.82-3.35,11.63-6.72,17.44-10.09
		c2.08-1.21,4.07-2.61,6.24-3.63c2.37-1.12,3.18-2.68,3.17-5.36C1054.46,573.17,1054.5,545.93,1054.5,518.04z"/>
	<path class="st1" d="M1054.62,517.85c0,27.89-0.04,55.13,0.06,82.37c0.01,2.68-0.8,4.23-3.17,5.36c-2.17,1.03-4.16,2.42-6.24,3.63
		c-5.81,3.37-11.62,6.74-17.44,10.09c-3.11,1.79-6.26,3.53-9.37,5.32c-9.45,5.46-18.88,10.95-28.32,16.42
		c-3.26,1.89-6.54,3.77-9.81,5.64c-0.89,0.51-1.74,0.67-2.72,0.02c-1.77-1.18-3.6-2.27-5.46-3.33c-1.91-1.08-3.87-2.08-5.81-3.11
		c-2.24-1.19-4.53-2.31-6.71-3.59c-3.01-1.77-5.9-3.73-8.92-5.48c-2.71-1.58-5.55-2.92-8.26-4.49c-3.1-1.79-6.1-3.75-9.18-5.58
		c-3.11-1.85-6.23-3.65-9.39-5.42c-2.46-1.38-5-2.6-7.44-4.01c-2.58-1.48-5.07-3.11-7.6-4.67c-1.33-0.82-2.64-1.7-4.02-2.44
		c-1.16-0.62-1.49-1.54-1.48-2.77c0.04-4.46,0.03-8.91,0.03-13.37c0-21.33,0-42.66-0.02-63.98c0-2.14-0.33-4.28-0.28-6.42
		c0.03-1.58,1.26-2.5,2.53-3.21c3.8-2.14,7.66-4.18,11.43-6.38c3.2-1.87,6.28-3.93,9.46-5.84c1.76-1.06,3.64-1.94,5.42-2.97
		c2.27-1.32,4.46-2.76,6.74-4.06c4.15-2.37,8.35-4.64,12.49-7.01c2.2-1.26,4.3-2.68,6.49-3.95c1.71-0.99,3.52-1.82,5.22-2.81
		c2.92-1.7,5.77-3.52,8.69-5.22c1.69-0.98,3.44-1.85,5.18-2.74c1.6-0.81,3.02-0.84,4.72,0.19c4.99,3.03,10.14,5.8,15.21,8.7
		c6.37,3.65,12.71,7.33,19.07,11c2.43,1.4,4.87,2.79,7.3,4.2c3.92,2.26,7.83,4.52,11.74,6.78c2.32,1.34,4.65,2.66,6.96,4.02
		c3.4,2,6.79,4.02,10.19,6.03c0.42,0.25,0.87,0.43,1.28,0.68C1054.33,516.16,1054.86,517.14,1054.62,517.85z M1013.62,537.66
		c-0.24-0.51-0.39-0.9-0.6-1.25c-3.1-5.22-6.21-10.43-9.3-15.65c-2.09-3.52-4.17-7.04-6.25-10.56c-2.21-3.74-4.41-7.49-6.64-11.22
		c-3.15-5.27-6.32-10.52-9.47-15.8c-0.81-1.36-1.67-2.71-2.3-4.16c-0.45-1.04-0.99-1.26-1.89-0.76c-2.13,1.2-4.25,2.42-6.36,3.64
		c-5.76,3.34-11.51,6.69-17.26,10.02c-5.24,3.04-10.49,6.08-15.74,9.11c-4.47,2.58-8.95,5.15-13.43,7.72
		c-3.93,2.26-7.86,4.51-11.78,6.78c-0.75,0.44-1.53,0.86-2.21,1.39c-0.21,0.16-0.32,0.88-0.2,0.97c0.88,0.65,1.81,1.25,2.78,1.77
		c1.52,0.81,3.11,1.47,4.61,2.32c3.83,2.16,7.63,4.38,11.44,6.59c4.12,2.39,8.24,4.77,12.34,7.18c1.83,1.08,3.6,2.26,5.43,3.34
		c2.31,1.36,4.66,2.63,6.97,3.99c1.37,0.81,2.67,1.75,4.05,2.54c1.57,0.9,3.25,1.62,4.8,2.55c1.81,1.08,3.49,2.36,5.31,3.43
		c1.35,0.79,2.88,1.29,4.24,2.07c2.1,1.19,4.11,2.53,6.19,3.75c0.33,0.19,0.94,0.18,1.27,0c0.87-0.47,1.63-1.13,2.49-1.63
		c2.3-1.34,4.62-2.64,6.94-3.96c7.95-4.53,15.89-9.06,23.84-13.6C1013.13,538.08,1013.35,537.87,1013.62,537.66z M1050.68,600.48
		c0-26.47,0-52.82,0-79.62c-1.31,0.78-2.36,1.42-3.43,2.03c-5.66,3.29-11.33,6.58-17,9.85c-8.76,5.06-17.53,10.1-26.29,15.17
		c-7.25,4.2-14.46,8.46-21.75,12.59c-0.98,0.56-1.24,1.1-1.23,2.1c0.02,11.83,0.02,23.67,0.01,35.5c0,0.76-0.13,1.52-0.21,2.37
		C1004.11,600.48,1027.34,600.48,1050.68,600.48z M976.88,560.86c-1.16-0.48-1.98-0.72-2.71-1.14c-2.98-1.71-5.92-3.49-8.89-5.21
		c-4.25-2.47-8.51-4.92-12.77-7.37c-0.74-0.42-1.5-0.81-2.23-1.24c-2.02-1.21-4.03-2.44-6.05-3.64c-0.63-0.37-1.22-0.54-1.57,0.39
		c-0.13,0.34-0.42,0.61-0.61,0.93c-5.44,9.3-10.86,18.61-16.31,27.91c-5.72,9.75-11.45,19.49-17.19,29.23
		c-0.45,0.77-0.35,1.25,0.46,1.71c4.26,2.4,8.51,4.84,12.75,7.27c2.67,1.53,5.33,3.07,7.99,4.61c6.63,3.83,13.26,7.65,19.87,11.5
		c7.91,4.61,15.79,9.25,23.69,13.87c1.19,0.69,2.36,1.4,3.56,2.11C976.88,614.61,976.88,587.61,976.88,560.86z M907.26,594.16
		c0.16-0.01,0.32-0.02,0.49-0.04c1.78-3.16,3.54-6.33,5.35-9.47c2.1-3.63,4.26-7.24,6.39-10.85c1.48-2.51,2.93-5.05,4.43-7.55
		c1.66-2.77,3.39-5.5,5.03-8.29c1.95-3.33,3.81-6.71,5.74-10.04c1.38-2.39,2.81-4.75,4.25-7.11c0.56-0.91,0.38-1.6-0.56-1.98
		c-2-0.82-3.44-2.54-5.56-3.22c-1.32-0.43-2.41-1.54-3.66-2.26c-3.78-2.17-7.61-4.25-11.38-6.44c-2.66-1.54-5.23-3.22-7.87-4.79
		c-0.78-0.46-1.65-0.78-2.66-1.25C907.25,545.46,907.23,569.81,907.26,594.16z M980.88,641.67c5.39-3.13,10.66-6.18,15.93-9.24
		c5.25-3.05,10.5-6.1,15.76-9.13c5.3-3.05,10.61-6.09,15.91-9.13c5.24-3.01,10.47-6.02,15.71-9.03c-0.06-0.17-0.13-0.35-0.19-0.52
		c-21.06,0-42.12,0-63.12,0C980.88,616.88,980.88,629.12,980.88,641.67z M1017.23,535.46c0.2-0.1,0.65-0.28,1.06-0.52
		c9.78-5.56,19.56-11.12,29.34-16.69c0.68-0.38,0.98-0.81,0.02-1.27c-0.63-0.31-1.23-0.69-1.84-1.04
		c-7.23-4.19-14.47-8.38-21.69-12.57c-12.37-7.18-24.73-14.37-37.11-21.55c-0.5-0.29-1.09-0.42-1.95-0.75
		C995.89,499.38,1006.52,517.35,1017.23,535.46z"/>
	<path class="st0" d="M1013.62,537.66c-0.27,0.21-0.49,0.42-0.75,0.57c-7.94,4.54-15.89,9.07-23.84,13.6
		c-0.65,0.37-3.56,2.03-6.94,3.96c-1.42,0.81-2.58,1.48-3.34,1.92c-2.15-1.35-4.36-2.69-6.61-4.03c-3.23-1.92-6.42-3.75-9.55-5.5
		c-3.69-2.16-6.72-3.88-8.85-5.08c-2.59-1.46-4.28-2.4-6.97-3.99c-1.83-1.08-3.6-2.26-5.43-3.34c-4.1-2.41-8.22-4.8-12.34-7.18
		c-3.81-2.21-7.6-4.43-11.44-6.59c-1.49-0.84-3.09-1.51-4.61-2.32c-0.97-0.52-1.89-1.12-2.78-1.77c-0.12-0.09-0.01-0.81,0.2-0.97
		c0.69-0.53,1.46-0.95,2.21-1.39c3.92-2.26,7.85-4.52,11.78-6.78c4.48-2.57,8.96-5.14,13.43-7.72c5.25-3.03,10.49-6.07,15.74-9.11
		c5.76-3.34,11.51-6.69,17.26-10.02c2.11-1.23,4.23-2.45,6.36-3.64c0.91-0.51,1.44-0.28,1.89,0.76c0.63,1.45,1.49,2.8,2.3,4.16
		c3.15,5.27,6.32,10.52,9.47,15.8c2.23,3.73,4.43,7.48,6.64,11.22c2.08,3.52,4.16,7.05,6.25,10.56c3.1,5.22,6.21,10.43,9.3,15.65
		C1013.22,536.76,1013.37,537.15,1013.62,537.66z"/>
	<path class="st0" d="M1050.68,600.48c-23.34,0-46.57,0-69.9,0c0.08-0.85,0.21-1.61,0.21-2.37c0.01-11.83,0.01-23.67-0.01-35.5
		c0-1.01,0.25-1.55,1.23-2.1c7.29-4.13,14.5-8.39,21.75-12.59c8.76-5.07,17.53-10.11,26.29-15.17c5.67-3.28,11.33-6.57,17-9.85
		c1.06-0.62,2.11-1.25,3.43-2.03C1050.68,547.65,1050.68,574,1050.68,600.48z"/>
	<path class="st0" d="M976.88,560.86c0,26.75,0,53.75,0,80.93c-1.19-0.71-2.37-1.42-3.56-2.11c-7.89-4.63-15.78-9.27-23.69-13.87
		c-6.61-3.85-13.25-7.67-19.87-11.5c-2.66-1.54-5.32-3.08-7.99-4.61c-4.24-2.43-8.49-4.87-12.75-7.27c-0.4-0.23-0.63-0.46-0.7-0.73
		c-0.12-0.44,0.17-0.86,0.24-0.98c0.53-0.83,7.53-12.75,17.19-29.23c5.82-9.83,11.64-19.66,17.45-29.49c2.37,1.3,4.73,2.6,7.1,3.9
		c5,2.87,9.99,5.74,14.99,8.61C969.15,556.63,973.01,558.74,976.88,560.86z"/>
	<path class="st0" d="M907.26,594.16c-0.03-24.35,0-48.7-0.01-73.29c1.01,0.47,1.88,0.78,2.66,1.25c2.64,1.57,5.22,3.25,7.87,4.79
		c4.3,2.5,4.39,2.23,11.38,6.44c1.57,0.95,2.84,1.74,3.66,2.26c2.75,1.72,4.63,2.81,5.56,3.22c0.17,0.07,0.65,0.27,0.82,0.72
		c0.13,0.35,0.04,0.77-0.26,1.26c-1.44,2.36-2.87,4.72-4.25,7.11c-1.93,3.34-3.79,6.71-5.74,10.04c-1.63,2.79-3.37,5.52-5.03,8.29
		c-1.5,2.5-2.95,5.04-4.43,7.55c-2.13,3.62-4.29,7.22-6.39,10.85c-1.82,3.14-3.57,6.31-5.35,9.47
		C907.58,594.14,907.42,594.15,907.26,594.16z"/>
	<path class="st0" d="M980.88,641.67c0-12.54,0-24.79,0-37.06c21,0,42.06,0,63.12,0c0.06,0.17,0.13,0.35,0.19,0.52
		c-5.24,3.01-10.47,6.02-15.71,9.03c-5.3,3.05-10.61,6.08-15.91,9.13c-5.26,3.03-10.51,6.09-15.76,9.13
		C991.54,635.49,986.27,638.54,980.88,641.67z"/>
	<path class="st0" d="M1017.23,535.46c-10.71-18.11-21.34-36.08-32.17-54.39c0.86,0.32,1.45,0.46,1.95,0.75
		c12.38,7.17,24.74,14.36,37.11,21.55c7.23,4.2,14.46,8.38,21.69,12.57c0.61,0.35,1.21,0.74,1.84,1.04
		c0.96,0.46,0.66,0.89-0.02,1.27c-9.78,5.57-19.56,11.13-29.34,16.69C1017.88,535.18,1017.43,535.36,1017.23,535.46z"/>
</g>
</svg>
