<?xml version="1.0" encoding="utf-8"?>
<!-- Generator: Adobe Illustrator 27.5.0, SVG Export Plug-In . SVG Version: 6.00 Build 0)  -->
<svg version="1.1" id="Layer_1" xmlns="http://www.w3.org/2000/svg" xmlns:xlink="http://www.w3.org/1999/xlink" x="0px" y="0px"
	 viewBox="0 0 500 500" style="enable-background:new 0 0 500 500;" xml:space="preserve">
<style type="text/css">
	.st0{fill:#FFFFFF;}
</style>
<g>
	<g>
		<path class="st0" d="M248.95,500c-33.74,0-66.48-6.61-97.32-19.65c-29.77-12.59-56.5-30.62-79.46-53.57
			c-22.95-22.95-40.98-49.69-53.57-79.46C5.57,316.48-1.05,283.74-1.05,250s6.61-66.48,19.65-97.32
			c12.59-29.77,30.62-56.5,53.57-79.46c22.97-22.95,49.69-40.98,79.46-53.57C182.47,6.61,215.21,0,248.95,0s66.48,6.61,97.32,19.65
			c29.77,12.59,56.5,30.62,79.46,53.57c22.95,22.95,40.98,49.69,53.57,79.46c13.04,30.83,19.65,63.57,19.65,97.32
			s-6.61,66.48-19.65,97.32c-12.59,29.77-30.62,56.5-53.57,79.46c-22.95,22.95-49.69,40.98-79.46,53.57
			C315.43,493.4,282.69,500,248.95,500z"/>
	</g>
	<g>
		<circle cx="248.95" cy="250" r="236.75"/>
	</g>
	<g>
		<g>
			<path class="st0" d="M254.77,155.82c31.63,2.82,56.52,29.02,57.29,61.19l48.53,20.16l-25.29-41.24l53.78-53.78l-32.14-32.14
				l-46.07,46.09l-56.07-91.44v91.16H254.77z"/>
			<path class="st0" d="M311.23,228.99c-4.66,28.01-27.8,49.76-56.46,52.34v33.3l106.79-64.72L311.23,228.99z"/>
			<path class="st0" d="M186.95,228.99l-50.32,20.9l106.79,64.72v-33.3C214.75,278.75,191.61,257,186.95,228.99z"/>
			<polygon class="st0" points="360.36,283.85 254.77,347.84 254.77,432.6 298.22,371.38 343.57,416.73 375.71,384.59 
				324.91,333.79 			"/>
			<polygon class="st0" points="243.41,347.84 137.82,283.85 173.28,333.79 122.48,384.59 154.62,416.73 199.97,371.39 
				243.41,432.58 			"/>
			<path class="st0" d="M137.59,237.19l48.53-20.16c0.78-32.17,25.67-58.37,57.29-61.19V64.67l-56.07,91.44l-46.09-46.09
				l-32.14,32.16l53.78,53.78L137.59,237.19z"/>
		</g>
		<path class="st0" d="M251.31,211.33L251.31,211.33c-15.58-4.78-15.58-7.43-15.58-9.56c0-2.96,4.48-7.06,12.89-7.06
			c4.97,0,13.34,1.23,13.34,9.56h15.15c0-14.78-11.45-24.71-28.49-24.71c-18.22,0-28.05,11.45-28.05,22.21
			c0,14.71,12.91,19.93,26.18,24.02l0,0c15.58,4.78,15.66,7.46,15.66,9.6c0,2.96-4.48,7.06-12.89,7.06
			c-4.99,0-13.34-1.23-13.34-9.56h-15.15c0,14.78,11.45,24.71,28.49,24.71c18.22,0,28.05-11.45,28.05-22.21
			C277.6,220.67,264.6,215.41,251.31,211.33z"/>
	</g>
</g>
</svg>
