<svg width="37" height="37" viewBox="0 0 37 37" fill="none" xmlns="http://www.w3.org/2000/svg">
<circle cx="18.5" cy="18.5" r="18.5" fill="url(#paint0_radial)"/>
<g clip-path="url(#clip0)">
<path d="M18.6566 15.1488C18.264 14.7852 17.4855 14.2838 16.135 14.2903C14.7844 14.2969 15.005 15.0056 15.005 15.0056C15.005 15.0056 14.9775 15.5838 15.8596 15.6018C16.7417 15.6198 17.6874 15.6554 18.4547 15.9478C19.2219 16.2402 19.0496 15.5118 18.6566 15.1488Z" fill="#1F1C1C"/>
<path d="M15.4646 16.4696C15.3834 16.5194 15.3627 16.6596 15.4568 16.6772C15.9902 16.7762 16.8339 16.9561 17.7752 16.8015C17.8642 16.7869 17.851 16.663 17.7864 16.599C17.4526 16.2665 16.5558 15.8004 15.4646 16.4696Z" fill="#1F1C1C"/>
<path d="M26.5612 25.7689C26.5489 25.7512 26.532 25.7372 26.5124 25.7286C26.4928 25.7201 26.4713 25.7172 26.4502 25.7203C26.429 25.7234 26.4092 25.7324 26.3928 25.7463C26.3764 25.7602 26.3641 25.7785 26.3573 25.799C25.8083 27.4599 25.3589 27.053 25.1512 26.6959C25.079 26.5698 25.0252 26.4336 24.9914 26.2918C24.4676 24.17 24.9472 22.2156 24.9472 22.2156C25.2324 23.1188 25.9803 23.3866 26.3634 23.4648C26.3852 23.4693 26.4078 23.4675 26.4285 23.4594C26.4493 23.4513 26.4674 23.4374 26.4807 23.4192C26.4939 23.4011 26.5019 23.3794 26.5035 23.3569C26.5051 23.3343 26.5004 23.3117 26.4898 23.2918C25.022 20.3637 25.8898 19.1229 25.8898 19.1229C26.1424 19.4087 26.5588 19.4343 26.8213 19.4195C26.8433 19.4182 26.8646 19.4105 26.8827 19.3975C26.9007 19.3844 26.9147 19.3665 26.9232 19.3457C26.9316 19.3248 26.9341 19.302 26.9304 19.2798C26.9267 19.2576 26.9169 19.2369 26.9022 19.2201C25.8385 18.025 25.7576 17.6195 25.7161 15.5952C25.6934 14.4734 25.3062 13.8835 24.9462 13.5762C24.5342 13.225 24.2055 12.7776 24.0256 12.2613C22.5904 8.15544 19.9053 7.61288 17.4136 7.76651C14.3202 7.95752 12.6732 10.3672 11.8913 11.5679C11.0643 12.8374 10.4198 14.7146 10.4633 15.289C10.5068 15.8634 11.0276 15.7734 11.0276 16.4374C11.0276 17.1015 10.0193 17.6537 10.4157 19.5205C10.5907 20.343 11.2995 20.9596 10.9807 22.8385C10.4106 26.2153 12.9536 30.3184 13.5873 30.9305C13.6641 31.0042 13.7991 30.9447 13.7851 30.8381C13.6862 30.0845 13.831 29.0388 13.831 29.0388C15.1051 31.8184 18.6696 31.3028 19.786 31.0644C19.8096 31.0595 19.8312 31.0472 19.8477 31.0292C19.8643 31.0113 19.8749 30.9886 19.8783 30.9643C19.8817 30.9399 19.8776 30.9151 19.8666 30.8932C19.8556 30.8713 19.8383 30.8534 19.8169 30.8419C18.6897 30.2326 18.432 28.9945 18.432 28.9945C19.5538 29.535 20.2724 29.4444 20.6188 29.3285C20.6399 29.3213 20.6585 29.3082 20.6726 29.2907C20.6866 29.2732 20.6955 29.252 20.6981 29.2296C20.7008 29.2071 20.6972 29.1844 20.6876 29.164C20.6781 29.1436 20.6631 29.1263 20.6443 29.1143C20.3064 28.8983 19.7914 28.007 19.4019 27.1347C19.2419 26.7747 19.1852 26.3761 19.2382 25.9848C19.2913 25.5934 19.4519 25.2253 19.7017 24.9229C20.1575 24.3693 20.7555 23.5966 21.4353 22.7755C21.5774 22.6025 21.7753 22.7714 21.8501 22.9589C22.8433 25.49 24.1354 27.398 25.0261 27.924C25.6719 28.3298 26.3793 28.4028 26.6972 28.1475C27.5735 27.444 26.8787 26.2305 26.5612 25.7689ZM15.8084 23.4132C14.743 23.4786 14.9858 22.0693 14.2032 22.1039C13.365 22.1419 13.6162 23.2167 13.0539 23.2821C12.4917 23.3475 12.5573 21.7039 12.9519 21.5132C13.5737 21.2136 14.3018 21.1416 14.8848 21.1624C15.5755 21.1866 16.2354 21.1592 16.545 21.8354C16.9118 22.6329 16.8734 23.3496 15.8084 23.4132ZM22.5456 13.3419C21.1291 14.1987 21.0458 14.6222 20.8428 16.1288C20.798 16.4599 20.7524 16.8475 20.9013 17.0665C21.2375 17.561 21.8769 17.9271 21.7015 18.762C21.2834 20.7492 20.181 23.079 18.7023 23.807C18.5241 23.8945 18.3202 23.7174 18.2787 23.5208C18.1138 22.7333 17.7216 21.3015 17.6155 20.834C17.0889 18.1561 14.5795 18.1191 14.5092 18.6312C14.4884 18.7835 15.0174 18.9842 15.3532 19.0956C15.6616 19.1994 15.6721 19.6471 15.3651 19.753C15.2846 19.779 15.2008 19.7928 15.1163 19.7938C14.4959 19.7506 13.709 19.7997 13.3541 19.826C13.2353 19.8351 13.1175 19.7988 13.0236 19.7242C12.9296 19.6496 12.8664 19.5421 12.8462 19.4226C12.7075 18.6028 12.9526 18.3091 13.249 17.5305C13.3966 17.143 13.5859 16.3617 13.6515 15.961C13.6855 15.7461 13.6709 15.488 13.6488 15.2945C13.622 15.0659 13.6114 14.8355 13.6172 14.6053C13.6383 13.8624 13.7107 13.2558 14.2665 13.2558C15.2676 13.2558 17.386 13.2589 17.7216 12.7579C18.0734 12.2333 16.1099 12.7419 14 12.6727C13.9587 12.6713 13.9193 12.6547 13.8892 12.6259C13.8592 12.5971 13.8404 12.5582 13.8364 12.5163C13.8364 12.5032 13.8341 12.4904 13.8327 12.4772C13.8295 12.4397 13.834 12.402 13.8458 12.3663C13.8576 12.3307 13.8765 12.2978 13.9013 12.27C13.9261 12.2421 13.9563 12.2197 13.99 12.2042C14.0237 12.1887 14.0602 12.1805 14.0972 12.18C15.2241 12.1658 16.0814 12.0862 16.3067 11.752C16.5359 11.4101 15.3971 11.5634 14.1064 11.5755C13.9411 11.5755 13.8045 11.5731 13.813 11.4053V11.3997C13.8165 11.3331 13.8439 11.2702 13.89 11.2228C13.9361 11.1755 13.9978 11.1471 14.0632 11.143C14.8226 11.0921 15.1462 11.0333 15.1782 10.7862C15.2101 10.5392 15.1 10.5641 14.2603 10.6132C14.0778 10.6236 14.1301 10.4828 14.2338 10.3288C14.4959 9.93606 15.6677 8.80319 18.2604 8.88589C22.7019 9.02983 22.5615 12.2319 22.6975 13.0098C22.7085 13.0743 22.6998 13.1407 22.6727 13.2001C22.6455 13.2595 22.6012 13.309 22.5456 13.3419Z" fill="#1F1C1C"/>
</g>
<defs>
<radialGradient id="paint0_radial" cx="0" cy="0" r="1" gradientUnits="userSpaceOnUse" gradientTransform="translate(18.5 18.5) rotate(90) scale(21.9419)">
<stop stop-color="#F0C0BF"/>
<stop offset="1" stop-color="#EC6F6F"/>
</radialGradient>
<clipPath id="clip0">
<rect width="16.7996" height="23.5194" fill="white" transform="translate(10.3256 7.74414)"/>
</clipPath>
</defs>
</svg>
