<?xml version="1.0" encoding="utf-8"?>
<!-- Generator: Adobe Illustrator 22.0.1, SVG Export Plug-In . SVG Version: 6.00 Build 0)  -->
<svg version="1.1" id="Layer_1" xmlns="http://www.w3.org/2000/svg" xmlns:xlink="http://www.w3.org/1999/xlink" x="0px" y="0px"
	 viewBox="0 0 64 64" style="enable-background:new 0 0 64 64;" xml:space="preserve">
<style type="text/css">
	.st0{fill:url(#SVGID_1_);}
	.st1{fill:url(#SVGID_2_);}
	.st2{fill:url(#SVGID_3_);}
	.st3{fill:url(#SVGID_4_);}
	.st4{fill:url(#SVGID_5_);}
	.st5{fill:url(#SVGID_6_);}
	.st6{fill:url(#SVGID_7_);}
	.st7{fill:url(#SVGID_8_);}
	.st8{fill:url(#SVGID_9_);}
</style>
<linearGradient id="SVGID_1_" gradientUnits="userSpaceOnUse" x1="54.403" y1="56.318" x2="9.5821" y2="11.682" gradientTransform="matrix(1 0 0 -1 0 66)">
	<stop  offset="0" style="stop-color:#414FA2"/>
	<stop  offset="1" style="stop-color:#EE4492"/>
</linearGradient>
<path class="st0" d="M9.7,9.6c4.4-4.4,10-7.4,16.2-8.7C32-0.3,38.3,0.3,44.1,2.7c5.8,2.4,10.7,6.5,14.2,11.7
	c3.5,5.2,5.3,11.3,5.3,17.6s-1.9,12.4-5.3,17.6c-3.5,5.2-8.4,9.3-14.2,11.7c-5.8,2.4-12.1,3-18.2,1.8c-6.1-1.2-11.7-4.2-16.2-8.7
	c-5.9-5.9-9.2-14-9.2-22.4S3.8,15.5,9.7,9.6z M53.8,53.9C58.1,49.5,61,44,62.2,38c1.2-6,0.6-12.2-1.8-17.9
	c-2.3-5.7-6.3-10.5-11.3-13.9C44.1,2.9,38.1,1,32,1S20,2.9,14.9,6.3c-5.1,3.4-9,8.2-11.3,13.9S0.6,32,1.8,38
	c1.2,6,4.1,11.5,8.4,15.8c5.8,5.8,13.6,9,21.8,9S48,59.7,53.8,53.9z"/>
<linearGradient id="SVGID_2_" gradientUnits="userSpaceOnUse" x1="53.4638" y1="55.3858" x2="10.5275" y2="12.6266" gradientTransform="matrix(1 0 0 -1 0 66)">
	<stop  offset="0" style="stop-color:#574EA0"/>
	<stop  offset="1" style="stop-color:#D84594"/>
</linearGradient>
<path class="st1" d="M12.3,12.2c6.1-6.1,12.9-9.7,19.7-10.3c7.6-0.7,15,2.2,21.3,8.6c6.4,6.4,9.3,13.8,8.6,21.4
	c-0.7,6.9-4.2,13.7-10.3,19.8c-6.1,6.1-12.9,9.7-19.7,10.3c-7.6,0.7-15-2.2-21.3-8.6C4.3,47.1,1.3,39.7,2,32.1
	C2.7,25.2,6.3,18.3,12.3,12.2z M51.1,51.2c10.1-10.1,15.8-26,1.7-40.1c-14.1-14.2-29.9-8.4-40,1.7C2.8,22.9-3,38.8,11.2,52.9
	S41,61.3,51.1,51.2z"/>
<linearGradient id="SVGID_3_" gradientUnits="userSpaceOnUse" x1="52.5095" y1="54.4517" x2="11.4612" y2="13.5727" gradientTransform="matrix(1 0 0 -1 0 66)">
	<stop  offset="0" style="stop-color:#6C4C9E"/>
	<stop  offset="1" style="stop-color:#C34796"/>
</linearGradient>
<path class="st2" d="M15,14.9C19.8,10.1,25.5,5,32.1,3.5c6.8-1.5,13.5,1.1,20.3,8c6.9,6.9,9.5,13.6,7.9,20.4
	c-1.5,6.6-6.6,12.4-11.4,17.2c-4.8,4.8-10.5,9.9-17.1,11.4c-6.8,1.6-13.5-1-20.3-7.9C4.7,45.6,2.1,39,3.6,32.1
	C5.1,25.5,10.2,19.7,15,14.9z M48.5,48.5c11.9-12,17.1-22.8,3.4-36.5C38.3-1.7,27.5,3.4,15.5,15.4c-12,12-17.1,22.8-3.4,36.6
	C25.8,65.7,36.5,60.5,48.5,48.5z"/>
<linearGradient id="SVGID_4_" gradientUnits="userSpaceOnUse" x1="51.5656" y1="53.5153" x2="12.4038" y2="14.515" gradientTransform="matrix(1 0 0 -1 0 66)">
	<stop  offset="0" style="stop-color:#824B9C"/>
	<stop  offset="1" style="stop-color:#AD4898"/>
</linearGradient>
<path class="st3" d="M12,23.1c0.9-0.9,1.8-1.8,2.7-2.7c1.9-1.9,3.9-3.9,5.8-5.8c5.1-5.3,9.9-10.3,16.1-10.4c4.5,0,9.4,2.6,15,8.2
	c5.5,5.6,8.2,10.5,8.1,15c-0.1,6.2-5,11-10.3,16c-2,1.9-4,4-5.9,5.9c-5.1,5.3-9.9,10.3-16,10.4c-4.5,0-9.4-2.6-14.9-8.2
	c-5.5-5.5-8.2-10.5-8.2-15C4.4,31.5,7.8,27.3,12,23.1z M18.2,18.1c-1,1-2,1.9-2.9,2.9c-5.2,5-10.1,9.7-10.1,15.6
	c0,4.3,2.6,9.1,7.9,14.5c5.4,5.4,10.1,8,14.4,8c5.8-0.1,10.5-5,15.4-10.1c1.9-2,4-4.1,5.9-6c5.2-5,10-9.7,10.1-15.5
	c0-4.3-2.5-9-7.9-14.4c-5.4-5.4-10.1-8-14.4-8C30.7,5,26,10,21,15.2C20.1,16.1,19.1,17.1,18.2,18.1z"/>
<linearGradient id="SVGID_5_" gradientUnits="userSpaceOnUse" x1="50.6163" y1="52.5716" x2="13.3605" y2="15.4695" gradientTransform="matrix(1 0 0 -1 0 66)">
	<stop  offset="0" style="stop-color:#984A9A"/>
	<stop  offset="1" style="stop-color:#984A9A"/>
</linearGradient>
<path class="st4" d="M29.8,8.8c1.9-1.9,4-3.3,6.6-3.5c3.9-0.3,8.4,2.3,14.2,8.1c5.8,5.8,8.3,10.3,8,14.2c-0.3,4.5-4.4,7.6-8.7,10.9
	c-2.1,1.6-4.3,3.3-6.2,5.2c-1.9,1.9-3.6,4.1-5.2,6.3c-3.3,4.3-6.4,8.4-10.8,8.7c-3.9,0.3-8.4-2.3-14.2-8.1
	c-5.7-5.8-8.3-10.3-8.1-14.2c0.3-4.5,4.4-7.7,8.7-11c2.1-1.6,4.3-3.3,6.2-5.2c1.9-1.9,3.6-4.1,5.2-6.2C26.9,12.1,28.3,10.3,29.8,8.8
	z M54.7,33.6c1.8-1.8,3-3.7,3.2-6c0.2-3.6-2.3-8.1-7.8-13.6c-5.5-5.5-10-8.1-13.6-7.9c-4.2,0.3-7.1,4.1-10.4,8.4
	c-1.6,2.1-3.3,4.3-5.2,6.3c-1.9,2-4.1,3.6-6.2,5.2c-4.4,3.3-8.1,6.2-8.4,10.4c-0.2,3.7,2.3,8.1,7.8,13.7c5.5,5.5,9.9,8.1,13.6,7.9
	c4.1-0.3,7-4.1,10.3-8.4c1.6-2.1,3.3-4.4,5.3-6.4c2-2,4.2-3.7,6.3-5.3C51.4,36.4,53.2,35,54.7,33.6z"/>
<linearGradient id="SVGID_6_" gradientUnits="userSpaceOnUse" x1="49.6779" y1="51.633" x2="14.2905" y2="16.3916" gradientTransform="matrix(1 0 0 -1 0 66)">
	<stop  offset="0" style="stop-color:#AD4898"/>
	<stop  offset="1" style="stop-color:#824B9C"/>
</linearGradient>
<path class="st5" d="M8.3,32.4c1.6-1.6,4-2.9,6.5-4.2c2.9-1.5,5.9-3.1,8.1-5.4c2.3-2.3,3.8-5.3,5.3-8.2c2.1-4.1,4.1-7.9,7.7-8.4
	c3.4-0.5,7.7,2,13.7,8c6,6,8.5,10.4,8,13.7c-0.5,3.5-4.4,5.5-8.4,7.6c-2.9,1.5-5.9,3.1-8.2,5.4c-2.3,2.3-3.8,5.3-5.3,8.2
	c-2.1,4.1-4.1,7.9-7.6,8.4c-3.4,0.5-7.7-2-13.7-8c-6-6-8.5-10.4-8-13.8C6.6,34.6,7.3,33.4,8.3,32.4z M23.4,23.4
	c-2.3,2.3-5.4,4-8.3,5.5c-4,2.1-7.5,4-8,7.1c-0.5,3.1,2.1,7.4,7.8,13.1c5.7,5.7,10,8.3,13,7.8c3.1-0.5,4.9-4,7-8
	c1.5-3,3.1-6.1,5.5-8.4c2.4-2.4,5.4-4,8.4-5.5c4-2.1,7.5-3.9,8-7.1c0.5-3.1-2.1-7.4-7.8-13.1C43.4,9.1,39.1,6.5,36,7
	c-3.2,0.5-5,4-7.1,8C27.4,18,25.8,21.1,23.4,23.4z"/>
<linearGradient id="SVGID_7_" gradientUnits="userSpaceOnUse" x1="48.7395" y1="50.687" x2="15.243" y2="17.3287" gradientTransform="matrix(1 0 0 -1 0 66)">
	<stop  offset="0" style="stop-color:#C34796"/>
	<stop  offset="1" style="stop-color:#6C4C9E"/>
</linearGradient>
<path class="st6" d="M8.4,33.5c1.6-1.6,4.5-2.5,7.5-3.4c3.6-1.1,7.3-2.2,9.6-4.6c2.3-2.3,3.5-6.1,4.5-9.6c1.2-4.1,2.4-7.9,5.3-8.7
	c2.9-0.7,7.1,1.8,13.3,8c6.2,6.2,8.7,10.4,8,13.3c-0.7,2.9-4.6,4-8.6,5.3c-3.6,1.1-7.3,2.2-9.7,4.5c-2.3,2.3-3.4,6.1-4.5,9.7
	c-1.2,4.1-2.4,7.9-5.2,8.7s-7.1-1.8-13.3-8c-6.2-6.2-8.7-10.5-8-13.4C7.5,34.7,7.9,34,8.4,33.5z M55,29.9c0.4-0.4,0.7-1,0.9-1.5
	c0.6-2.6-1.9-6.7-7.8-12.6c-5.9-5.9-10-8.5-12.6-7.8c-2.5,0.6-3.6,4.3-4.8,8.1c-1.1,3.5-2.3,7.5-4.7,10c-2.5,2.5-6.4,3.7-9.9,4.7
	c-3.9,1.2-7.5,2.3-8.1,4.8c-0.6,2.6,1.9,6.7,7.8,12.6c5.9,5.9,10,8.5,12.5,7.8c2.5-0.6,3.5-4.3,4.7-8.2c1-3.5,2.2-7.6,4.7-10
	c2.5-2.5,6.5-3.7,10-4.7C50.8,32.2,53.6,31.4,55,29.9z"/>
<linearGradient id="SVGID_8_" gradientUnits="userSpaceOnUse" x1="47.7947" y1="49.7507" x2="16.1818" y2="18.2681" gradientTransform="matrix(1 0 0 -1 0 66)">
	<stop  offset="0" style="stop-color:#D84594"/>
	<stop  offset="1" style="stop-color:#574EA0"/>
</linearGradient>
<path class="st7" d="M33.7,8.8c0.3-0.3,0.7-0.6,1.1-0.7c2.5-0.9,6.5,1.6,12.9,8.1c6.4,6.5,8.9,10.4,8,12.9c-0.9,2.5-4.7,2.9-9.2,3.4
	c-4.1,0.4-8.7,0.9-10.9,3.2c-2.3,2.3-2.7,6.9-3.2,10.9c-0.5,4.5-0.9,8.4-3.4,9.2c-2.4,0.9-6.5-1.6-12.9-8.1
	c-6.4-6.5-8.9-10.5-8.1-13c0.9-2.5,4.7-2.9,9.2-3.4c4-0.5,8.6-1,10.8-3.2s2.8-6.8,3.2-10.9C31.8,13.6,32.2,10.3,33.7,8.8z
	 M54.6,29.7c0.2-0.2,0.4-0.5,0.5-0.8c0.7-2.1-1.8-6.1-7.8-12.1c-6-6.1-10-8.7-12.2-7.9c-2,0.7-2.5,4.5-2.9,8.6
	c-0.5,4.2-1,8.9-3.4,11.3c-2.4,2.4-7.1,3-11.3,3.4c-4,0.5-7.8,0.9-8.5,2.9c-0.7,2.1,1.8,6.1,7.9,12.2c6,6.1,10,8.6,12.1,7.9
	c2-0.7,2.4-4.5,2.9-8.6c0.4-4.2,1-9,3.4-11.4c2.4-2.5,7.2-3,11.4-3.4C50,31.4,53.2,31,54.6,29.7L54.6,29.7z"/>
<linearGradient id="SVGID_9_" gradientUnits="userSpaceOnUse" x1="46.8477" y1="48.8081" x2="17.1317" y2="19.2146" gradientTransform="matrix(1 0 0 -1 0 66)">
	<stop  offset="0" style="stop-color:#EE4492"/>
	<stop  offset="1" style="stop-color:#414FA2"/>
</linearGradient>
<path class="st8" d="M33.5,9.4c0.2-0.2,0.4-0.3,0.7-0.5c2.1-1,6,1.6,12.6,8.2c6.6,6.6,9.1,10.5,8.1,12.6c-0.9,2.1-5.1,2-10,1.7
	c-4.6-0.2-9.9-0.5-11.9,1.6c-2.1,2.1-1.8,7.3-1.5,12c0.3,4.8,0.5,9-1.7,10c-2.1,1-6-1.6-12.6-8.2c-6.6-6.6-9.1-10.5-8.2-12.7
	c0.9-2.2,5.1-2,9.9-1.8c4.6,0.2,9.8,0.5,11.8-1.6c2.1-2.1,1.8-7.3,1.6-11.9C32.2,14.7,32.1,10.9,33.5,9.4z M54,29.9
	c0.1-0.1,0.2-0.3,0.3-0.4c0.8-1.7-1.9-5.7-8-11.8c-6.1-6.1-10.1-8.8-11.8-8c-1.7,0.8-1.5,5.1-1.3,9.3c0.2,5,0.5,10.2-1.8,12.5
	s-7.4,2.1-12.4,1.8c-4.2-0.2-8.5-0.4-9.2,1.3c-0.8,1.7,1.9,5.7,8,11.8s10,8.8,11.7,8c1.7-0.8,1.5-5.1,1.2-9.3
	c-0.3-5-0.5-10.2,1.8-12.6c2.3-2.3,7.5-2,12.5-1.8C48.8,30.9,52.7,31.1,54,29.9z"/>
</svg>
