<?xml version="1.0" encoding="utf-8"?>
<!-- Generator: Adobe Illustrator 26.0.3, SVG Export Plug-In . SVG Version: 6.00 Build 0)  -->
<svg version="1.0" id="katman_1" xmlns="http://www.w3.org/2000/svg" xmlns:xlink="http://www.w3.org/1999/xlink" x="0px" y="0px"
	 viewBox="0 0 330 230" style="enable-background:new 0 0 330 230;" xml:space="preserve">
<style type="text/css">
	.st0{fill:url(#SVGID_1_);}
	.st1{fill:url(#SVGID_00000165915435329168813630000004709951150210599816_);}
	.st2{fill:url(#SVGID_00000089542786900454201360000003054230838497328008_);}
	.st3{fill:url(#SVGID_00000181078709221039412370000009102806988207095989_);}
	.st4{fill:url(#SVGID_00000045586159477496579730000017031739437145175703_);}
	.st5{fill:url(#SVGID_00000085232154385120741100000005545728427447632793_);}
	.st6{fill:url(#SVGID_00000163752982133038399660000009385095129193425063_);}
	.st7{fill:url(#SVGID_00000176033342332558234700000011000853026460256151_);}
	.st8{fill:url(#SVGID_00000046321888530626379140000004242858403029473943_);}
	.st9{fill:#1A1A19;}
</style>
<linearGradient id="SVGID_1_" gradientUnits="userSpaceOnUse" x1="82.4801" y1="139.5339" x2="37.2257" y2="94.4661" gradientTransform="matrix(1 0 0 -1 0 232)">
	<stop  offset="0" style="stop-color:#414FA2"/>
	<stop  offset="1" style="stop-color:#EE4492"/>
</linearGradient>
<path class="st0" d="M37.3,92.4c4.5-4.5,10.1-7.5,16.3-8.8c6.2-1.2,12.6-0.6,18.4,1.8c5.8,2.4,10.8,6.5,14.3,11.8
	c3.5,5.3,5.4,11.4,5.4,17.8c0,6.3-1.9,12.5-5.4,17.8c-3.5,5.3-8.5,9.4-14.3,11.8c-5.8,2.4-12.2,3.1-18.4,1.8
	c-6.2-1.2-11.9-4.3-16.3-8.8c-6-6-9.3-14.1-9.3-22.6S31.4,98.4,37.3,92.4z M81.9,137.1c4.4-4.4,7.3-9.9,8.5-16
	c1.2-6.1,0.6-12.3-1.8-18c-2.4-5.7-6.3-10.6-11.5-14C72,85.6,66,83.8,59.9,83.8S47.7,85.6,42.6,89c-5.1,3.4-9.1,8.3-11.5,14
	c-2.4,5.7-3,12-1.8,18c1.2,6.1,4.2,11.6,8.5,16c5.8,5.8,13.7,9.1,22,9.1S76,142.9,81.9,137.1z"/>
<linearGradient id="SVGID_00000167365437325791689200000010491122039954854828_" gradientUnits="userSpaceOnUse" x1="81.5314" y1="138.5901" x2="38.1797" y2="95.4173" gradientTransform="matrix(1 0 0 -1 0 232)">
	<stop  offset="0" style="stop-color:#574EA0"/>
	<stop  offset="1" style="stop-color:#D84594"/>
</linearGradient>
<path style="fill:url(#SVGID_00000167365437325791689200000010491122039954854828_);" d="M40,95.1c6.1-6.2,13-9.8,19.9-10.4
	c7.7-0.7,15.1,2.3,21.5,8.7c6.4,6.4,9.4,13.9,8.7,21.6c-0.7,6.9-4.3,13.8-10.4,20c-6.1,6.2-13,9.8-19.9,10.4
	c-7.7,0.8-15.1-2.3-21.5-8.7c-6.4-6.4-9.4-13.9-8.7-21.6C30.3,108.1,33.9,101.2,40,95.1z M79.2,134.4c10.2-10.2,16-26.2,1.7-40.5
	c-14.2-14.3-30.2-8.5-40.4,1.7c-10.2,10.2-16,26.2-1.7,40.5S69,144.6,79.2,134.4z"/>
<linearGradient id="SVGID_00000051364359051555262610000012805814560089377710_" gradientUnits="userSpaceOnUse" x1="80.5699" y1="137.6432" x2="39.1245" y2="96.3689" gradientTransform="matrix(1 0 0 -1 0 232)">
	<stop  offset="0" style="stop-color:#6C4C9E"/>
	<stop  offset="1" style="stop-color:#C34796"/>
</linearGradient>
<path style="fill:url(#SVGID_00000051364359051555262610000012805814560089377710_);" d="M42.7,97.7c4.8-4.8,10.6-10,17.3-11.5
	c6.9-1.6,13.6,1.1,20.5,8c6.9,7,9.5,13.7,8,20.6c-1.5,6.6-6.6,12.5-11.5,17.3c-4.8,4.9-10.6,10-17.3,11.5c-6.9,1.6-13.6-1.1-20.5-8
	c-6.9-7-9.6-13.7-8-20.6C32.7,108.4,37.8,102.6,42.7,97.7z M76.5,131.7c12.1-12.1,17.3-23,3.5-36.9C66.2,81,55.3,86.2,43.2,98.3
	c-12.1,12.1-17.3,23-3.4,36.9C53.6,149.1,64.4,143.8,76.5,131.7z"/>
<linearGradient id="SVGID_00000121278674539595336000000013838199018630729902_" gradientUnits="userSpaceOnUse" x1="79.6113" y1="136.6964" x2="40.0707" y2="97.3188" gradientTransform="matrix(1 0 0 -1 0 232)">
	<stop  offset="0" style="stop-color:#824B9C"/>
	<stop  offset="1" style="stop-color:#AD4898"/>
</linearGradient>
<path style="fill:url(#SVGID_00000121278674539595336000000013838199018630729902_);" d="M39.6,106c0.9-0.9,1.8-1.8,2.8-2.7
	c1.9-1.9,4-3.9,5.8-5.8c5.2-5.4,10-10.4,16.2-10.5c4.6,0,9.5,2.7,15.1,8.3c5.6,5.6,8.3,10.6,8.2,15.1c-0.1,6.2-5.1,11.1-10.4,16.2
	c-2,1.9-4.1,4-6,6c-5.1,5.3-10,10.4-16.1,10.5c-4.6,0-9.5-2.7-15.1-8.2c-5.6-5.6-8.3-10.6-8.2-15.2C32,114.5,35.4,110.2,39.6,106z
	 M45.9,101c-1,1-2,2-3,2.9c-5.2,5.1-10.2,9.8-10.2,15.8c0,4.4,2.6,9.2,8,14.6c5.4,5.5,10.2,8.1,14.5,8c5.9-0.1,10.6-5,15.6-10.2
	c1.9-2,4-4.1,6-6c5.2-5,10.1-9.8,10.2-15.7c0-4.4-2.6-9.1-8-14.6c-5.4-5.4-10.2-8.1-14.6-8c-5.9,0.1-10.6,5-15.7,10.3
	C47.8,99,46.9,100,45.9,101z"/>
<linearGradient id="SVGID_00000119104864851268947110000009999221936405909137_" gradientUnits="userSpaceOnUse" x1="78.6683" y1="135.7495" x2="41.0521" y2="98.2884" gradientTransform="matrix(1 0 0 -1 0 232)">
	<stop  offset="0" style="stop-color:#984A9A"/>
	<stop  offset="1" style="stop-color:#984A9A"/>
</linearGradient>
<path style="fill:url(#SVGID_00000119104864851268947110000009999221936405909137_);" d="M57.6,91.6c2-2,4.1-3.4,6.7-3.5
	c4-0.3,8.5,2.3,14.3,8.2c5.8,5.8,8.4,10.4,8.1,14.4c-0.3,4.6-4.4,7.7-8.8,11c-2.1,1.6-4.3,3.3-6.3,5.3c-2,2-3.6,4.2-5.2,6.3
	c-3.3,4.4-6.4,8.5-11,8.8c-4,0.3-8.5-2.3-14.3-8.2c-5.8-5.8-8.4-10.4-8.2-14.4c0.3-4.6,4.4-7.7,8.8-11.1c2.1-1.6,4.3-3.3,6.2-5.2
	c1.9-1.9,3.6-4.1,5.2-6.3C54.7,95,56.1,93.1,57.6,91.6z M82.8,116.6c1.8-1.8,3-3.7,3.2-6.1c0.2-3.7-2.3-8.2-7.9-13.8
	c-5.6-5.6-10.1-8.2-13.7-7.9c-4.2,0.3-7.1,4.1-10.5,8.5c-1.6,2.1-3.3,4.4-5.3,6.3c-2,2-4.2,3.7-6.3,5.3c-4.4,3.4-8.2,6.3-8.5,10.5
	c-0.2,3.7,2.3,8.2,7.9,13.8c5.6,5.6,10,8.2,13.7,7.9c4.2-0.3,7.1-4.1,10.4-8.5c1.6-2.2,3.3-4.4,5.3-6.4c2-2,4.2-3.7,6.4-5.3
	C79.5,119.5,81.3,118.1,82.8,116.6z"/>
<linearGradient id="SVGID_00000027587405423145425200000018189117742681314219_" gradientUnits="userSpaceOnUse" x1="77.7244" y1="134.7786" x2="41.9947" y2="99.1963" gradientTransform="matrix(1 0 0 -1 0 232)">
	<stop  offset="0" style="stop-color:#AD4898"/>
	<stop  offset="1" style="stop-color:#824B9C"/>
</linearGradient>
<path style="fill:url(#SVGID_00000027587405423145425200000018189117742681314219_);" d="M35.9,115.5c1.6-1.6,4-2.9,6.6-4.2
	c2.9-1.5,5.9-3.1,8.2-5.4c2.3-2.3,3.9-5.3,5.4-8.2c2.1-4.1,4.2-8,7.7-8.5c3.4-0.5,7.8,2.1,13.9,8.1c6,6.1,8.6,10.5,8.1,13.9
	c-0.5,3.6-4.4,5.6-8.5,7.7c-2.9,1.5-6,3.1-8.3,5.4s-3.9,5.4-5.4,8.3c-2.1,4.1-4.1,8-7.7,8.5c-3.4,0.5-7.8-2-13.8-8.1
	c-6-6-8.6-10.5-8.1-13.9C34.2,117.6,34.9,116.4,35.9,115.5z M51.2,106.4c-2.4,2.4-5.4,4-8.4,5.6c-4.1,2.1-7.6,4-8.1,7.2
	c-0.5,3.1,2.1,7.5,7.9,13.3c5.8,5.8,10.1,8.4,13.2,7.9c3.2-0.5,5-4,7.1-8.1c1.6-3,3.2-6.1,5.5-8.5c2.4-2.4,5.5-4,8.5-5.6
	c4.1-2.1,7.6-4,8.1-7.1c0.5-3.1-2.1-7.4-7.8-13.2c-5.8-5.8-10.1-8.4-13.2-7.9c-3.2,0.5-5,4-7.2,8.1C55.2,100.9,53.6,104,51.2,106.4z
	"/>
<linearGradient id="SVGID_00000047045990937683566700000011959855891840609966_" gradientUnits="userSpaceOnUse" x1="76.7835" y1="133.8235" x2="42.9629" y2="100.1425" gradientTransform="matrix(1 0 0 -1 0 232)">
	<stop  offset="0" style="stop-color:#C34796"/>
	<stop  offset="1" style="stop-color:#6C4C9E"/>
</linearGradient>
<path style="fill:url(#SVGID_00000047045990937683566700000011959855891840609966_);" d="M36.1,116.5c1.6-1.6,4.5-2.5,7.6-3.4
	c3.6-1.1,7.4-2.2,9.7-4.6c2.4-2.4,3.5-6.1,4.6-9.7c1.2-4.1,2.4-8,5.3-8.7c2.9-0.7,7.2,1.8,13.4,8.1c6.2,6.3,8.8,10.5,8.1,13.4
	c-0.7,2.9-4.6,4.1-8.7,5.3c-3.7,1.1-7.4,2.2-9.8,4.6c-2.4,2.4-3.5,6.1-4.6,9.8c-1.2,4.1-2.4,8-5.3,8.8s-7.2-1.8-13.4-8.1
	c-6.2-6.3-8.8-10.6-8.1-13.5C35.2,117.7,35.6,117.1,36.1,116.5z M83.1,112.9c0.4-0.4,0.8-1,0.9-1.6c0.7-2.6-1.9-6.7-7.9-12.7
	c-5.9-6-10.1-8.6-12.7-7.9c-2.5,0.6-3.6,4.3-4.8,8.2c-1.1,3.5-2.3,7.6-4.8,10.1c-2.5,2.5-6.5,3.7-10,4.8c-3.9,1.2-7.6,2.3-8.2,4.8
	c-0.7,2.6,1.9,6.8,7.9,12.8c6,6,10.1,8.6,12.7,7.9c2.5-0.6,3.6-4.3,4.7-8.2c1.1-3.6,2.3-7.6,4.8-10.1c2.5-2.5,6.5-3.7,10.1-4.8
	C78.8,115.3,81.7,114.4,83.1,112.9z"/>
<linearGradient id="SVGID_00000147203177688714469280000000076536013249892537_" gradientUnits="userSpaceOnUse" x1="75.828" y1="132.8706" x2="43.9093" y2="101.0835" gradientTransform="matrix(1 0 0 -1 0 232)">
	<stop  offset="0" style="stop-color:#D84594"/>
	<stop  offset="1" style="stop-color:#574EA0"/>
</linearGradient>
<path style="fill:url(#SVGID_00000147203177688714469280000000076536013249892537_);" d="M61.6,91.6c0.3-0.3,0.7-0.6,1.1-0.7
	c2.5-0.9,6.6,1.6,13.1,8.2c6.5,6.5,9,10.5,8.1,13.1c-0.9,2.5-4.8,2.9-9.3,3.4c-4.1,0.4-8.7,0.9-11,3.2c-2.3,2.3-2.8,6.9-3.2,11.1
	c-0.5,4.5-0.9,8.4-3.4,9.3c-2.5,0.9-6.5-1.6-13-8.1c-6.5-6.5-9-10.6-8.1-13.1c0.9-2.5,4.8-2.9,9.3-3.5c4.1-0.5,8.7-1,10.9-3.3
	c2.3-2.3,2.8-6.9,3.2-11C59.7,96.5,60.1,93.2,61.6,91.6z M82.7,112.7c0.2-0.2,0.4-0.5,0.5-0.8c0.8-2.1-1.8-6.2-7.9-12.3
	c-6.1-6.1-10.1-8.7-12.3-8c-2,0.7-2.5,4.6-2.9,8.7c-0.5,4.2-1,9-3.5,11.4s-7.2,3-11.4,3.5c-4.1,0.5-7.9,0.9-8.6,2.9
	c-0.8,2.2,1.8,6.2,8,12.3c6.1,6.1,10.1,8.7,12.2,7.9c2-0.7,2.4-4.6,2.9-8.7c0.5-4.2,1-9,3.4-11.5c2.5-2.5,7.2-3,11.5-3.4
	C78,114.4,81.3,114.1,82.7,112.7L82.7,112.7z"/>
<linearGradient id="SVGID_00000089575940481633383570000005458624016053251487_" gradientUnits="userSpaceOnUse" x1="74.894" y1="131.9113" x2="44.8906" y2="102.0316" gradientTransform="matrix(1 0 0 -1 0 232)">
	<stop  offset="0" style="stop-color:#EE4492"/>
	<stop  offset="1" style="stop-color:#414FA2"/>
</linearGradient>
<path style="fill:url(#SVGID_00000089575940481633383570000005458624016053251487_);" d="M61.4,92.2c0.2-0.2,0.4-0.3,0.7-0.5
	c2.2-1,6.1,1.6,12.7,8.3c6.7,6.7,9.2,10.6,8.2,12.7c-0.9,2.2-5.2,2-10.1,1.7c-4.7-0.2-10-0.5-12.1,1.6c-2.1,2.1-1.8,7.4-1.6,12.1
	c0.3,4.9,0.5,9.1-1.7,10.1c-2.1,1-6.1-1.6-12.7-8.2c-6.6-6.7-9.2-10.6-8.2-12.8c1-2.2,5.2-2,10-1.8c4.6,0.2,9.9,0.5,12-1.6
	c2.1-2.1,1.8-7.4,1.6-12C60.1,97.5,60,93.7,61.4,92.2z M82.1,112.9c0.1-0.1,0.2-0.3,0.3-0.4c0.8-1.7-1.9-5.7-8-11.9
	c-6.1-6.1-10.2-8.9-11.9-8.1c-1.8,0.8-1.5,5.1-1.3,9.3c0.2,5,0.5,10.3-1.8,12.6s-7.5,2.1-12.5,1.8c-4.2-0.2-8.5-0.4-9.3,1.3
	c-0.8,1.7,1.9,5.8,8.1,11.9c6.1,6.2,10.1,8.9,11.8,8.1c1.7-0.8,1.5-5.1,1.3-9.4c-0.3-5.1-0.5-10.3,1.8-12.7
	c2.3-2.3,7.6-2.1,12.6-1.8C76.9,113.9,80.8,114.2,82.1,112.9z"/>
<path class="st9" d="M112.1,116.1h8.6v-1.2h-9.9v7.3h9.9V121h-8.6V116.1z M110.8,108.5v1.2h9.9v-1.2H110.8z"/>
<path class="st9" d="M161.4,116.1h8.6v-1.2h-9.9v7.3h9.9V121h-8.6V116.1z M160.1,108.5v1.2h9.9v-1.2H160.1z"/>
<path class="st9" d="M293.4,116.1h8.6v-1.2h-9.9v7.3h9.9V121h-8.6V116.1z M292.1,108.5v1.2h9.9v-1.2H292.1z"/>
<path class="st9" d="M145.2,108.5l-3.1,6.5l-2.1,4.7h-0.2l-2.1-4.7l-3.2-6.5h-1.4l6.6,13.7h0.3l6.6-13.7H145.2z"/>
<path class="st9" d="M242.1,108.2c-4.3,0-7,3.1-7,7.2c0,4.1,2.7,7.1,7,7.1c4.3,0,7-3.1,7-7.1C249.1,111.4,246.4,108.2,242.1,108.2z
	 M242.1,121.3c-3.6,0-5.7-2.7-5.7-5.9c0-3.2,2.1-5.9,5.7-5.9s5.7,2.7,5.7,5.9C247.9,118.6,245.7,121.3,242.1,121.3z"/>
<path class="st9" d="M276.4,108.5l-6.2,6.8l-6.2-6.8h-0.4v13.7h1.3v-10.7l5.1,5.6h0.4l5.1-5.7v10.8h1.3v-13.7H276.4z"/>
<path class="st9" d="M214.4,108.5h-4.6v1.2h4.5c3.4,0,6,2.1,6,5.6c0,3.5-2.6,5.6-6,5.6h-4.5v1.2h4.6c4.3,0,7.3-2.6,7.3-6.9
	S218.7,108.5,214.4,108.5z"/>
<path class="st9" d="M191.8,117.4L191.8,117.4c2-0.6,3.4-2,3.4-4.4c0-3-2-4.5-5.4-4.5h-5.4v1.2h5.4c2.5,0,4.1,1,4.1,3.4
	c0,2.3-1.7,3.3-3.9,3.3h-5.7v5.9h1.3v-4.7h4.6l3.8,4.7h1.4v-0.3L191.8,117.4z"/>
</svg>
