<?xml version="1.0" encoding="utf-8"?>
<!-- Generator: Adobe Illustrator 27.5.0, SVG Export Plug-In . SVG Version: 6.00 Build 0)  -->
<svg version="1.1" id="Layer_1" xmlns="http://www.w3.org/2000/svg" xmlns:xlink="http://www.w3.org/1999/xlink" x="0px" y="0px"
	 viewBox="0 0 500 500" style="enable-background:new 0 0 500 500;" xml:space="preserve">
<style type="text/css">
	.st0{fill:#5E336A;}
	.st1{fill:#FFFFFF;}
</style>
<path class="st0" d="M500.3,250.6c0.1,9.9-0.5,20.1-1.9,30.2c-1.2,8.4-2.6,16.7-4.5,25c-2.7,12.2-6.4,24-10.9,35.6
	c-4.7,12.1-10.4,23.8-17,35c-5.8,9.7-12,19.1-19,27.9c-3.5,4.3-6.9,8.6-10.7,12.6c-4.6,4.9-9.7,9.4-14.4,14.2
	c-6,6.3-12.5,11.9-19.5,17.1c-5.6,4.2-11.3,8.2-17.1,12c-10.8,7-22.1,12.9-33.7,18.3c-10.4,4.8-21.2,8.8-32.4,11.7
	c-9.1,2.4-18.2,4.8-27.4,6.5c-8.4,1.5-16.9,2.2-25.4,2.7c-17.8,1.2-31.4,0.2-36-0.1c-9.9-0.7-16.6-1.8-29.1-3.8
	c-4.9-0.8-10.4-2-17.7-4c-6.7-1.8-11.7-3.6-14.8-4.7c-1.9-0.7-8.5-3.1-17.2-6.9c-6.5-2.8-12.6-6.2-18.9-9.3
	c-6.1-2.9-11.7-6.8-17.6-10.1c-6.5-3.8-12.3-8.5-18.2-13.1c-5.1-3.9-10.2-8-15.1-12.2c-3.6-3.2-6.9-6.9-10.3-10.3
	c-1.9-1.9-3.9-3.6-5.7-5.5c-2.2-2.3-4.2-4.7-6.2-7.1c-3.2-3.9-6.5-7.8-9.5-11.9c-3.3-4.6-6.6-9.2-9.6-14
	c-3.7-5.9-7.1-11.9-10.6-17.9c-1.9-3.2-3.7-6.4-5.4-9.6c-1.9-3.8-3.6-7.6-5.2-11.5c-1.4-3.5-2.5-7.2-3.9-10.7
	c-0.7-1.8-1.6-3.6-2.3-5.4c-0.4-0.9-0.7-1.8-1-2.7c-1.3-4.2-2.5-8.4-3.7-12.6c-0.4-1.2-0.3-2.6-0.6-3.9c-0.7-2.8-1.6-5.5-2.3-8.4
	c-0.3-1.2-0.3-2.5-0.6-3.8c-0.8-4.1-1.7-8.3-2.6-12.4c0,0-0.1-0.5-0.2-1.3c-3.5-18.5-1.9-45.6-1.9-45.6c0.8-13,1.6-26.1,5.3-43.6
	c3.4-16.1,8.1-30.1,12.9-41.8c8.4-20.6,17.5-34.8,19.5-38c3.6-5.7,8.5-12.8,19.3-26.2c2.8-3.5,5.6-7.1,8.7-10.4
	c2.8-3,5.9-5.7,8.8-8.6c7.2-7.2,14.7-14,22.9-20c3.2-2.3,6.1-4.9,9.4-7.1c4.4-3,9.1-5.7,13.6-8.6c8.5-5.6,17.7-9.6,26.8-14
	c6.8-3.3,13.8-6.1,21-8.6c12.8-4.4,25.8-7.7,39.1-10.1c16.4-2.8,32.9-3.8,49.4-3.5c10.2,0.2,20.4,1.1,30.5,2.7
	c9.1,1.4,18.1,3.1,26.9,5.5c7.5,2.1,13.2,3.8,15.3,4.5c9.5,3.1,16.5,6.1,19.2,7.3c3.5,1.5,6,2.8,9.5,4.4c5,2.2,10.2,4.4,14.8,7.4
	c7.5,4.9,13.2,8.1,20.9,13.6c8,5.7,15.7,11.2,24.5,19.6c1.4,1.3,3.9,3.9,9.1,9.2c8.9,9.1,13.2,13.8,17.2,18.4
	c3.7,4.1,7.1,8.5,9.9,13.4c2.8,4.8,5.9,9.6,9.1,14.1c2.4,3.3,4.1,7.1,6.4,10.4c2.3,3.3,3.4,7.3,5.2,10.9c4.8,9.4,8.4,19.1,11.8,29
	c3.7,10.9,7.4,26.1,9,35.5C498.8,220.7,500.4,235.4,500.3,250.6z"/>
<path class="st1" d="M136.2,472.3c0.2,0.2,0.4,0.5,0.6,0.7c1.4-0.9,2.7-1.7,4-2.7c19.1-13.4,38.1-26.9,57.2-40.2
	c5.6-3.9,11.4-7.5,17-11.3c3.5-2.4,3.9-4.7,1.4-8.1c-1.9-2.6-3.9-5.1-6.1-7.4c-7.1-7.4-10.5-16.2-10.6-26.4
	c-0.2-18.8-0.7-37.5-0.9-56.2c-0.3-45.4-0.6-90.9-0.8-136.3c-0.2-49.3-0.4-98.6-0.6-148c0-4.6,0-9.2-0.1-13.8c0-1.1,0-2.4-2.1-1.8
	c-0.1,1.8-0.1,3.8-0.3,5.7c-1.8,12.8-3.5,25.5-5.4,38.3c-0.6,4.1-3.1,18.1-3.7,21c-5.8,26.3-12.5,52.2-25.9,76
	c-5.9,10.4-12.1,20.4-19.6,29.7c-2.7,3.4-2.8,4,0.4,7.3c5.8,5.9,10,12.8,12.9,20.5c4.3,11.5,6.2,23.4,6.3,35.5
	c0.3,23.3,0.1,46.7,0,70c0,14.2-0.4,28.3-0.1,42.5c0.3,15.3-0.8,30.4-3.5,45.4c-0.7,3.8-1.7,7.6-2.7,11.3
	c-1.4,5.1-2.6,10.3-4.3,15.3c-2.7,7.8-5.8,15.4-8.9,23C139.2,465.8,137.6,469,136.2,472.3z"/>
<path class="st1" d="M305.2,20.3c-0.5,0-1,0.1-1.5,0.1c-0.1,1.5-0.1,2.9-0.2,4.3c-0.2,26.7-0.3,53.3-0.5,80
	c-0.1,23.1-0.3,46.1-0.5,69.2c-0.2,36.2-0.5,72.5-0.6,108.8c-0.1,27.1-0.1,54.2-0.2,81.2c0,7-0.1,13.9-1.5,20.7
	c-2.1,9.9-7.3,18-14.8,24.5c-2.1,1.9-3.4,4-2.5,6.4c0.6,1.8,2.3,3.4,4,4.5c4.3,2.9,8.9,5.3,13.2,8.1c20.2,13.4,40,27.5,59.3,42.3
	c1.4,1.1,2.8,2.1,5.1,1.7c-0.3-0.8-0.5-1.4-0.7-2c-6-12.8-10.9-25.9-14.8-39.5c-3.5-12.1-7-24.2-7.2-37c-0.3-20.4-0.9-40.8-1.2-61.2
	c-0.2-20.7-0.1-41.4-0.1-62.1c0-4.4-0.1-8.9,0.3-13.3c0.4-4.4,0.5-8.9,0.9-13.3c0.5-5.5,1.6-10.8,3-16.1c2.5-9.8,6.5-18.8,13.3-26.5
	c4.8-5.5,4.7-6.5,0.4-12.2c-0.3-0.4-0.7-0.9-1-1.3c-4.3-6.3-9-12.3-12.9-18.9c-6.9-11.8-12.6-24.2-17.1-37.2
	c-7.4-21.3-12.2-43.2-16-65.4c-2.3-13.5-3.6-27.2-5.3-40.8C305.9,23.7,305.5,22,305.2,20.3z"/>
<path class="st1" d="M157.5,478c0.1,0.2,0.2,0.4,0.4,0.6c0.5-0.2,1-0.3,1.5-0.5c5.8-2.4,11.5-5,17.3-7.3c8.6-3.3,17.2-6.5,25.9-9.5
	c13.6-4.7,27.7-7.5,42.1-8.3c7.6-0.5,15.2,0.3,22.8,1.3c10.6,1.4,20.9,3.9,31,7.3c3.9,1.3,7.7,3,11.6,4.4c4.8,1.7,9.7,2.9,14.4,4.9
	c6.2,2.5,12.1,5.6,18.2,8.4c0.2,0.1,0.5-0.2,1.1-0.4c-0.9-0.8-1.5-1.7-2.4-2.2c-9.8-6.8-19.6-13.5-29.5-20.3
	c-5.1-3.5-10.2-7-15.2-10.4c-3.1-2.2-6.3-4.4-9.5-6.5c-10.5-7.2-21.1-14.4-31.6-21.5c-3.6-2.4-7.4-2.6-11,0.2
	c-0.7,0.5-1.4,0.9-2.1,1.4c-16.4,11.3-32.7,22.5-49.1,33.8c-9.6,6.6-19.2,13.2-28.9,19.8C162.3,474.7,159.9,476.4,157.5,478z"/>
<path class="st1" d="M250.5,309.4c2.5-31.4,2.5-212.8-0.2-225C247.7,159.4,247.7,234.4,250.5,309.4z"/>
</svg>
