<?xml version="1.0" encoding="utf-8"?>
<!-- Generator: Adobe Illustrator 27.5.0, SVG Export Plug-In . SVG Version: 6.00 Build 0)  -->
<svg version="1.1" id="Layer_1" xmlns="http://www.w3.org/2000/svg" xmlns:xlink="http://www.w3.org/1999/xlink" x="0px" y="0px"
	 viewBox="0 0 500 500" style="enable-background:new 0 0 500 500;" xml:space="preserve">
<style type="text/css">
	.st0{fill:#FFFFFF;}
</style>
<circle class="st0" cx="249" cy="249.5" r="250"/>
<path d="M418.18,223.26v-91.63c0-0.18-0.05-0.35-0.07-0.51c-0.03-1.54-0.2-3.07-0.6-4.55c-0.02-0.06-0.03-0.09-0.06-0.12
	c-0.4-1.42-0.98-2.76-1.69-4.06c-0.2-0.38-0.43-0.73-0.67-1.09c-0.61-0.96-1.31-1.87-2.09-2.72c-0.29-0.31-0.56-0.64-0.87-0.93
	c-1.1-1.07-2.31-2.05-3.71-2.85L247.73,22.01c-6.03-3.48-13.45-3.48-19.48,0l-160.7,92.73c-6.03,3.48-9.74,9.91-9.74,16.88v230.8
	c0,6.95,3.72,13.39,9.74,16.86l79.36,45.81c0.23,0.12,0.49,0.18,0.7,0.29c1.04,0.55,2.12,1,3.27,1.34c0.41,0.12,0.81,0.29,1.24,0.38
	c1.4,0.33,2.83,0.55,4.32,0.56c0.06,0,0.11,0.02,0.18,0.02c0.02,0,0.03,0,0.03,0c1.56,0,3.07-0.23,4.52-0.58
	c0.41-0.09,0.8-0.26,1.19-0.36c1.09-0.35,2.12-0.76,3.12-1.27c0.41-0.2,0.81-0.4,1.22-0.64c1.14-0.7,2.23-1.48,3.19-2.41
	c0.15-0.12,0.31-0.22,0.44-0.36c1.11-1.09,2.03-2.34,2.85-3.68c0.09-0.15,0.22-0.26,0.31-0.4c0.18-0.33,0.29-0.67,0.46-1
	c0.31-0.64,0.61-1.25,0.87-1.92c0.22-0.6,0.4-1.19,0.56-1.8c0.17-0.6,0.31-1.19,0.41-1.83c0.11-0.7,0.18-1.4,0.22-2.11
	c0.02-0.36,0.11-0.7,0.11-1.09V188.68l141.23-81.54l42.39,24.46l-131.5,75.93c-6.03,3.48-9.74,9.91-9.74,16.86v91.65
	c0,0.18,0.06,0.35,0.07,0.51c0.03,1.54,0.2,3.07,0.6,4.55c0.02,0.05,0.03,0.09,0.06,0.12c0.4,1.42,0.98,2.76,1.69,4.06
	c0.2,0.38,0.43,0.73,0.67,1.09c0.62,0.96,1.31,1.87,2.09,2.72c0.29,0.31,0.55,0.64,0.87,0.93c1.1,1.07,2.31,2.05,3.7,2.85
	l160.7,92.78c3.01,1.74,6.37,2.61,9.74,2.61c3.36,0,6.73-0.87,9.74-2.61c6.03-3.48,9.74-9.91,9.74-16.86v-89.67
	c0-8.14-4.37-15.72-11.44-19.8l-50.42-29.12l52.11-30.1C414.46,236.65,418.18,230.21,418.18,223.26z M137.16,374.52l-40.4-23.33
	V234.5l40.4-23.33V374.52z M96.76,189.51v-46.65l141.23-81.54l40.4,23.33L96.76,189.51z M379.21,328.43v46.65l-102.27-59.05
	l40.4-23.33L379.21,328.43z M379.21,212.02l-121.74,70.28v-46.65l121.74-70.28L379.21,212.02L379.21,212.02z"/>
</svg>
