<?xml version="1.0" encoding="UTF-8"?> <svg xmlns="http://www.w3.org/2000/svg" width="166" height="35" viewBox="0 0 166 35" fill="none"><path d="M30.1417 17.0514V9.38731C30.1417 9.37213 30.1372 9.35847 30.1357 9.3448C30.1326 9.21575 30.119 9.08822 30.0856 8.96372C30.084 8.95917 30.0825 8.95613 30.081 8.95309C30.0476 8.83467 29.999 8.72232 29.9398 8.61301C29.9231 8.58112 29.9034 8.55228 29.8836 8.52191C29.832 8.44145 29.7743 8.36553 29.709 8.29418C29.6847 8.26837 29.662 8.24104 29.6362 8.21675C29.5436 8.12717 29.4433 8.04518 29.3264 7.97838L15.8854 0.218627C15.3814 -0.0728758 14.7604 -0.0728758 14.2563 0.218627L0.815298 7.97534C0.31124 8.26685 0 8.80431 0 9.38731V28.6918C0 29.2733 0.31124 29.8123 0.815298 30.1023L7.45307 33.9343C7.47281 33.9449 7.49406 33.9495 7.51228 33.9586C7.59882 34.0041 7.68992 34.0421 7.78557 34.0709C7.82048 34.0816 7.85389 34.0952 7.88881 34.1028C8.00571 34.1302 8.12565 34.1484 8.25015 34.1499C8.2547 34.1499 8.25926 34.1514 8.26533 34.1514C8.26685 34.1514 8.26837 34.1514 8.26837 34.1514C8.39894 34.1514 8.52495 34.1317 8.64641 34.1028C8.68133 34.0952 8.71321 34.0816 8.74662 34.0725C8.83771 34.0436 8.92425 34.0087 9.00775 33.9662C9.04267 33.9495 9.07607 33.9328 9.10948 33.9131C9.20513 33.8538 9.29622 33.7886 9.37669 33.7111C9.38883 33.7005 9.4025 33.6929 9.41312 33.6808C9.50574 33.5897 9.58317 33.4849 9.65149 33.3726C9.65908 33.3604 9.66971 33.3513 9.6773 33.3392C9.69248 33.3118 9.70159 33.283 9.71526 33.2557C9.74107 33.2025 9.76688 33.1509 9.78813 33.0947C9.80635 33.0446 9.82153 32.9945 9.8352 32.9444C9.84886 32.8943 9.86101 32.8442 9.87012 32.7911C9.87923 32.7319 9.8853 32.6742 9.88834 32.6149C9.88985 32.5846 9.89745 32.5557 9.89745 32.5239V14.1592L21.7094 7.3392L25.2545 9.38579L14.2563 15.7366C13.7523 16.0281 13.441 16.5656 13.441 17.1471V24.8127C13.441 24.8279 13.4456 24.8415 13.4471 24.8552C13.4501 24.9842 13.4638 25.1118 13.4972 25.2363C13.4987 25.2408 13.5002 25.2439 13.5018 25.2469C13.5352 25.3653 13.5837 25.4777 13.643 25.587C13.6597 25.6189 13.6794 25.6477 13.6991 25.6781C13.7508 25.7586 13.8084 25.8345 13.8737 25.9058C13.898 25.9316 13.9193 25.959 13.9466 25.9833C14.0392 26.0728 14.1394 26.1548 14.2563 26.2216L27.6974 33.9814C27.9494 34.1271 28.2303 34.2 28.5127 34.2C28.7935 34.2 29.0759 34.1271 29.328 33.9814C29.832 33.6899 30.1433 33.1524 30.1433 32.5709V25.0693C30.1433 24.3891 29.7774 23.7545 29.1868 23.4129L24.9691 20.9776L29.328 18.4603C29.8305 18.1719 30.1417 17.6329 30.1417 17.0514ZM6.63777 29.703L3.25816 27.752V17.9927L6.63777 16.0418V29.703ZM3.25816 14.229V10.3271L15.0701 3.50715L18.4497 5.45809L3.25816 14.229ZM26.8821 25.8481V29.75L18.3283 24.8112L21.7079 22.8602L26.8821 25.8481ZM26.8821 16.1116L16.6992 21.9903V18.0884L26.8821 12.2097V16.1116Z" fill="white"></path><path d="M58.1413 29.7281H54.4049L50.2176 22.269H47.4407V29.7281H44.14V9.38818H50.7702C54.7541 9.38818 57.7784 11.9039 57.7784 15.8726C57.7784 18.8393 56.0916 20.9466 53.5759 21.8196L58.1413 29.7281ZM47.4407 12.5143V19.1444H50.7854C52.8927 19.1444 54.4929 18.0103 54.4929 15.8878C54.4929 13.7941 52.9079 12.5143 50.7854 12.5143H47.4407V12.5143Z" fill="white"></path><path d="M73.7014 24.4196H63.2042C63.728 26.281 65.5454 27.2542 67.4781 27.2542C68.6122 27.2542 69.8329 26.8761 70.6907 26.3964L72.1148 28.8241C70.7621 29.653 69.1785 30.0447 67.3612 30.0447C63.101 30.0447 59.6849 27.3544 59.6849 23.0365C59.6849 19.1103 62.6804 16.0435 66.7949 16.0435C70.8076 16.0435 73.8319 19.1103 73.8319 23.0365C73.8319 23.5178 73.7894 23.9824 73.7014 24.4196ZM63.1465 21.8158H70.4447C70.0819 20.085 68.7443 18.7475 66.7964 18.7475C64.7452 18.749 63.4942 20.0865 63.1465 21.8158Z" fill="white"></path><path d="M87.6771 10.8112C87.6771 9.58443 88.6442 8.73877 89.7905 8.73877C90.9216 8.73877 91.8903 9.58443 91.8903 10.8112C91.8903 12.0106 90.9231 12.8957 89.7905 12.8957C88.6442 12.8957 87.6771 12.0091 87.6771 10.8112ZM91.4181 16.3649V29.727H88.1189V16.3649H91.4181Z" fill="white"></path><path d="M108.174 23.2855V29.7259H104.815V23.2855C104.815 20.1017 103.332 19.083 101.442 19.083C99.7839 19.083 98.5632 20.0425 97.9377 21.0749V29.7259H94.5793V16.3638H97.8223V17.4979C98.9853 16.5961 100.425 16.0435 101.95 16.0435C105.193 16.045 108.174 18.1963 108.174 23.2855Z" fill="white"></path><path d="M121.417 16.365H124.702V29.7271H121.417V28.7387C120.298 29.5676 118.887 30.0474 117.36 30.0474C113.566 30.0474 110.513 26.979 110.513 23.0544C110.513 19.1434 113.522 16.0461 117.36 16.0461C118.872 16.0461 120.296 16.5259 121.417 17.3549V16.365ZM121.285 25.1177V20.988C120.586 19.8539 119.337 19.069 117.853 19.069C115.702 19.069 113.854 20.8863 113.854 23.0528C113.854 25.1905 115.687 27.0215 117.853 27.0215C119.337 27.0231 120.588 26.2381 121.285 25.1177Z" fill="white"></path><path d="M142.267 23.0524C142.267 26.9786 139.214 30.0455 135.42 30.0455C133.894 30.0455 132.469 29.5505 131.35 28.7231V29.7267H128.078V9.38672H131.35V17.3545C132.469 16.5255 133.894 16.0457 135.406 16.0457C139.258 16.0457 142.267 19.1414 142.267 23.0524ZM138.923 23.0524C138.923 20.8859 137.077 19.0686 134.924 19.0686C133.44 19.0686 132.176 19.8535 131.479 21.0028V25.0884C132.162 26.2377 133.427 27.0227 134.924 27.0227C137.092 27.0227 138.923 25.1901 138.923 23.0524Z" fill="white"></path><path d="M148.231 9.09546V29.7269H144.916V9.09546H148.231Z" fill="white"></path><path d="M165.368 24.4196H154.87C155.394 26.281 157.211 27.2542 159.144 27.2542C160.278 27.2542 161.499 26.8761 162.357 26.3964L163.781 28.8241C162.428 29.653 160.845 30.0447 159.027 30.0447C154.767 30.0447 151.351 27.3544 151.351 23.0365C151.351 19.1103 154.347 16.0435 158.461 16.0435C162.474 16.0435 165.498 19.1103 165.498 23.0365C165.498 23.5178 165.454 23.9824 165.368 24.4196ZM154.813 21.8158H162.111C161.748 20.085 160.41 18.7475 158.463 18.7475C156.411 18.749 155.16 20.0865 154.813 21.8158Z" fill="white"></path><path d="M83.4975 12.3518C82.131 12.3518 81.4903 13.3265 81.4903 14.8964V16.3645H85.0445V19.272H81.4903V29.7251H78.1608V19.272H75.428V16.3645H78.1608V14.9252C78.1608 11.538 80.0647 9.11035 83.3805 9.11035L85.0445 9.12402V12.3518H83.4975Z" fill="white"></path></svg> 