<?xml version="1.0" encoding="utf-8"?>
<!-- Generator: Adobe Illustrator 27.5.0, SVG Export Plug-In . SVG Version: 6.00 Build 0)  -->
<svg version="1.1" id="Layer_1" xmlns="http://www.w3.org/2000/svg" xmlns:xlink="http://www.w3.org/1999/xlink" x="0px" y="0px"
	 viewBox="0 0 500 500" style="enable-background:new 0 0 500 500;" xml:space="preserve">
<path d="M467.26,249.3V138.81c0-0.22-0.06-0.42-0.09-0.61c-0.04-1.86-0.24-3.7-0.72-5.49c-0.02-0.07-0.04-0.11-0.07-0.15
	c-0.48-1.71-1.18-3.33-2.04-4.9c-0.24-0.46-0.52-0.88-0.81-1.31c-0.74-1.16-1.58-2.25-2.52-3.28c-0.35-0.37-0.68-0.77-1.05-1.12
	c-1.33-1.29-2.78-2.47-4.47-3.44L261.73,6.63c-7.27-4.2-16.22-4.2-23.49,0L44.47,118.45c-7.27,4.2-11.75,11.95-11.75,20.36v278.3
	c0,8.38,4.49,16.15,11.75,20.33l95.69,55.24c0.28,0.15,0.59,0.22,0.85,0.35c1.25,0.66,2.56,1.2,3.94,1.62
	c0.5,0.15,0.98,0.35,1.49,0.46c1.69,0.4,3.41,0.66,5.21,0.68c0.07,0,0.13,0.02,0.22,0.02c0.02,0,0.04,0,0.04,0
	c1.88,0,3.7-0.28,5.45-0.7c0.5-0.11,0.96-0.31,1.44-0.44c1.31-0.42,2.56-0.92,3.76-1.53c0.5-0.24,0.98-0.48,1.47-0.77
	c1.38-0.85,2.69-1.79,3.85-2.91c0.18-0.15,0.37-0.26,0.53-0.44c1.34-1.31,2.45-2.82,3.44-4.44c0.11-0.18,0.26-0.31,0.37-0.48
	c0.22-0.4,0.35-0.81,0.55-1.2c0.37-0.77,0.74-1.51,1.05-2.32c0.26-0.72,0.48-1.44,0.68-2.17c0.2-0.72,0.37-1.44,0.5-2.21
	c0.13-0.85,0.22-1.69,0.26-2.54c0.02-0.44,0.13-0.85,0.13-1.31V207.6l170.29-98.32l51.11,29.5l-158.56,91.56
	c-7.27,4.2-11.75,11.95-11.75,20.33v110.51c0,0.22,0.07,0.42,0.09,0.61c0.04,1.86,0.24,3.7,0.72,5.49c0.02,0.06,0.04,0.11,0.07,0.15
	c0.48,1.71,1.18,3.33,2.04,4.9c0.24,0.46,0.52,0.88,0.81,1.31c0.75,1.16,1.58,2.25,2.52,3.28c0.35,0.37,0.66,0.77,1.05,1.12
	c1.33,1.29,2.78,2.47,4.46,3.44l193.77,111.87c3.63,2.1,7.68,3.15,11.75,3.15c4.05,0,8.12-1.05,11.75-3.15
	c7.27-4.2,11.75-11.95,11.75-20.33V364.89c0-9.81-5.27-18.95-13.79-23.88l-60.8-35.11l62.84-36.29
	C462.77,265.45,467.26,257.68,467.26,249.3z M128.41,431.69l-48.72-28.13v-140.7l48.72-28.13V431.69z M79.69,208.61v-56.25
	l170.29-98.32l48.72,28.13L79.69,208.61z M420.27,376.12v56.25l-123.32-71.2l48.72-28.13L420.27,376.12z M420.27,235.75
	l-146.8,84.75v-56.25l146.8-84.75V235.75z"/>
</svg>
