<?xml version="1.0" encoding="utf-8"?>
<!-- Generator: Adobe Illustrator 27.5.0, SVG Export Plug-In . SVG Version: 6.00 Build 0)  -->
<svg version="1.1" id="Layer_1" xmlns="http://www.w3.org/2000/svg" xmlns:xlink="http://www.w3.org/1999/xlink" x="0px" y="0px"
	 viewBox="0 0 500 500" style="enable-background:new 0 0 500 500;" xml:space="preserve">
<style type="text/css">
	.st0{fill:#FFFFFF;}
</style>
<circle class="st0" cx="250" cy="250" r="250"/>
<path d="M389.8,230.2v-71.1c0-0.1,0-0.3-0.1-0.4c0-1.2-0.2-2.4-0.5-3.5c0,0,0-0.1,0-0.1c-0.3-1.1-0.8-2.1-1.3-3.2
	c-0.2-0.3-0.3-0.6-0.5-0.8c-0.5-0.7-1-1.5-1.6-2.1c-0.2-0.2-0.4-0.5-0.7-0.7c-0.9-0.8-1.8-1.6-2.9-2.2L257.6,74
	c-4.7-2.7-10.4-2.7-15.1,0l-124.7,72c-4.7,2.7-7.6,7.7-7.6,13.1v179.1c0,5.4,2.9,10.4,7.6,13.1l61.6,35.5c0.2,0.1,0.4,0.1,0.5,0.2
	c0.8,0.4,1.6,0.8,2.5,1c0.3,0.1,0.6,0.2,1,0.3c1.1,0.3,2.2,0.4,3.4,0.4c0,0,0.1,0,0.1,0c0,0,0,0,0,0c1.2,0,2.4-0.2,3.5-0.5
	c0.3-0.1,0.6-0.2,0.9-0.3c0.8-0.3,1.6-0.6,2.4-1c0.3-0.2,0.6-0.3,0.9-0.5c0.9-0.5,1.7-1.1,2.5-1.9c0.1-0.1,0.2-0.2,0.3-0.3
	c0.9-0.8,1.6-1.8,2.2-2.9c0.1-0.1,0.2-0.2,0.2-0.3c0.1-0.3,0.2-0.5,0.4-0.8c0.2-0.5,0.5-1,0.7-1.5c0.2-0.5,0.3-0.9,0.4-1.4
	c0.1-0.5,0.2-0.9,0.3-1.4c0.1-0.5,0.1-1.1,0.2-1.6c0-0.3,0.1-0.5,0.1-0.8V203.4l109.6-63.3l32.9,19l-102,58.9
	c-4.7,2.7-7.6,7.7-7.6,13.1v71.1c0,0.1,0,0.3,0.1,0.4c0,1.2,0.2,2.4,0.5,3.5c0,0,0,0.1,0,0.1c0.3,1.1,0.8,2.1,1.3,3.2
	c0.2,0.3,0.3,0.6,0.5,0.8c0.5,0.7,1,1.5,1.6,2.1c0.2,0.2,0.4,0.5,0.7,0.7c0.9,0.8,1.8,1.6,2.9,2.2l124.7,72c2.3,1.4,4.9,2,7.6,2
	c2.6,0,5.2-0.7,7.6-2c4.7-2.7,7.6-7.7,7.6-13.1v-69.6c0-6.3-3.4-12.2-8.9-15.4l-39.1-22.6l40.4-23.4
	C386.9,240.6,389.8,235.6,389.8,230.2z M171.8,347.6l-31.3-18.1v-90.5l31.3-18.1V347.6z M140.4,204v-36.2L250,104.5l31.3,18.1
	L140.4,204z M359.6,311.8V348l-79.4-45.8l31.3-18.1L359.6,311.8z M359.6,221.5L265.1,276v-36.2l94.5-54.5V221.5L359.6,221.5z"/>
</svg>
