<?xml version="1.0" encoding="utf-8"?>
<!-- Generator: Adobe Illustrator 16.0.0, SVG Export Plug-In . SVG Version: 6.00 Build 0)  -->
<!DOCTYPE svg PUBLIC "-//W3C//DTD SVG 1.1//EN" "http://www.w3.org/Graphics/SVG/1.1/DTD/svg11.dtd">
<svg version="1.1" id="Layer_1" xmlns="http://www.w3.org/2000/svg" xmlns:xlink="http://www.w3.org/1999/xlink" x="0px" y="0px"
	 width="800px" height="2000px" viewBox="0 0 800 2000" enable-background="new 0 0 800 2000" xml:space="preserve">
<g>
	<g>
		<defs>
			<rect id="SVGID_1_" x="14" y="477" width="750" height="750"/>
		</defs>
		<clipPath id="SVGID_2_">
			<use xlink:href="#SVGID_1_"  overflow="visible"/>
		</clipPath>
		<g clip-path="url(#SVGID_2_)">
			<defs>
				<rect id="SVGID_3_" x="14" y="477" width="750" height="750"/>
			</defs>
			<clipPath id="SVGID_4_">
				<use xlink:href="#SVGID_3_"  overflow="visible"/>
			</clipPath>
			<path clip-path="url(#SVGID_4_)" fill="#010202" d="M728.659,852c0,191.739-152.07,347.174-339.659,347.174
				S49.341,1043.739,49.341,852S201.411,504.826,389,504.826S728.659,660.261,728.659,852"/>
			<path clip-path="url(#SVGID_4_)" fill="#DF3440" d="M387.756,1040.864c-3.797-1.643-9.886-5.885-12.794-8.826
				c-49.192-49.329-98.727-98.316-147.714-147.851c-17.96-18.131-17.241-45.978-0.376-63.594
				c47.858-50.15,98.59-99.24,148.09-147.988c16.249-16.044,42.522-17.275,58.873-2.702C477.622,709.004,522.71,756.76,564,798.392
				c-16.283,0.376-35.543,2.018-50.801-3.113c-6.465-2.189-14.436-11.665-17.925-17.378c-5.439-8.826-9.613-18.336-11.939-28.462
				c-0.273-1.129-2.292,0.343-3.421,0.513c-14.538,18.097-12.862,40.572-1.642,59.763l-26.375,26.649
				c-10.673,0.616-21.415,0.273-30.856-4.823c-12.828-6.911-23.844-27.777-31.027-40.367c-4.242,4.823-9.134,14.848-9.989,21.347
				c-1.54,11.187,0.992,21.859,5.097,32.19c-2.258,0.274-5.371,0.479-7.629-0.684c-9.51-4.892-18.986-9.613-28.154-15.257
				c-4.618-2.84-17.583-14.744-21.209-18.815c-8.997-10.193-14.231-24.87-13.342-38.417c0.172-2.634-0.444-5.781-1.265-3.284
				c-2.361,6.979-4.276,13.65-4.447,21.21c-0.24,10.331-0.377,20.56,1.471,30.72c1.778,9.716,7.731,26.889,12.554,35.851
				c5.371,10.023,11.563,19.636,17.72,29.283c-0.786,13.718-0.17,26.478,1.848,39.819c0.102,0.889,0.41,1.744,0.752,2.565
				c1.882,4.345,13.958,10.365,18.507,12.691c-2.463,5.815-5.849,12.041-10.639,16.284c37.014,3.728,73.686,7.799,110.7,11.356
				c5.404,0.513,39.75-19.704,46.08-23.296c2.018-1.163,6.259-0.719,8.415-0.274c0.41,2.088,0.82,4.174,1.23,6.295
				c-0.547,0.959-0.82,2.155-1.573,2.941c-25.588,25.862-50.355,52.613-77.209,77.176
				C424.94,1043.636,405.305,1047.979,387.756,1040.864"/>
			<path clip-path="url(#SVGID_4_)" fill="#DF3440" d="M426.001,881.621c1.608-1.505,3.387-2.805,5.269-3.865
				c8.244-2.702,14.778-9.681,20.867-15.736c4.276,4.14,4.413,6.739,3.523,11.939c-0.581,3.353-5.747,8.107-9.031,8.654
				C437.153,884.188,435.888,884.256,426.001,881.621"/>
		</g>
	</g>
</g>
</svg>
