<?xml version="1.0" encoding="UTF-8"?>
<svg xmlns:xodm="http://www.corel.com/coreldraw/odm/2003" xmlns="http://www.w3.org/2000/svg" xmlns:xlink="http://www.w3.org/1999/xlink" version="1.1" id="Layer_1" x="0px" y="0px" viewBox="0 0 2502 2502" style="enable-background:new 0 0 2502 2502;" xml:space="preserve">
<style type="text/css">
	
		.st0{fill-rule:evenodd;clip-rule:evenodd;fill:#0B062D;stroke:#000000;stroke-width:2;stroke-linecap:round;stroke-linejoin:round;stroke-miterlimit:22.9256;}
	.st1{fill:url(#SVGID_1_);}
	.st2{fill:url(#SVGID_00000058569735560217646690000011217700890282509709_);}
</style>
<g id="Layer_x0020_1">
	<g id="_1577531514064">
		<path class="st0" d="M1251,1L1251,1c688,0,1250,563,1250,1250l0,0c0,688-563,1250-1250,1250l0,0C563,2501,1,1938,1,1251l0,0    C1,563,564,1,1251,1z"></path>
		<g>
			
				<linearGradient id="SVGID_1_" gradientUnits="userSpaceOnUse" x1="1069.199" y1="1854.9788" x2="1503.199" y2="683.9787" gradientTransform="matrix(1 0 0 -1 0 2501.2756)">
				<stop offset="0" style="stop-color:#F15F40"></stop>
				<stop offset="1" style="stop-color:#EF2356"></stop>
			</linearGradient>
			<path class="st1" d="M1863,1703l-238,129l-557-60l48-79l-79-48c-40-24-25-230-25-230c-265-373-122-612-122-612     c-62,287,344,420,344,420c-81-182,30-279,30-279c89,214,192,222,192,222l103,8l135-136c-113-175,22-311,22-311     c65,254,200,254,200,254l200,6l-617-617c-89-89-233-89-324,0l-720,720c-89,89-89,233,0,324l720,720c89,89,233,89,324,0l395-395     l-30-35L1863,1703z"></path>
			
				<linearGradient id="SVGID_00000121973151909500979520000013410597715672840374_" gradientUnits="userSpaceOnUse" x1="1264.1929" y1="1829.606" x2="1642.1929" y2="791.606" gradientTransform="matrix(1 0 0 -1 0 2501.2756)">
				<stop offset="0" style="stop-color:#F15F40"></stop>
				<stop offset="1" style="stop-color:#EF2356"></stop>
			</linearGradient>
			<path style="fill:url(#SVGID_00000121973151909500979520000013410597715672840374_);" d="M1455,1381c30-11,70-33,100-75     c6-10,17-3,21,8c8,35,22,102-117,89c-11-2-14-17-3-22H1455z"></path>
		</g>
	</g>
</g>
</svg>
