<?xml version="1.0" encoding="utf-8"?>
<!-- Generator: Adobe Illustrator 27.5.0, SVG Export Plug-In . SVG Version: 6.00 Build 0)  -->
<svg version="1.1" id="Layer_1" xmlns="http://www.w3.org/2000/svg" xmlns:xlink="http://www.w3.org/1999/xlink" x="0px" y="0px"
	 viewBox="0 0 500 500" style="enable-background:new 0 0 500 500;" xml:space="preserve">
<style type="text/css">
	.st0{fill-rule:evenodd;clip-rule:evenodd;fill:#FEE700;}
	.st1{fill-rule:evenodd;clip-rule:evenodd;fill:#010101;}
</style>
<g>
	<circle class="st0" cx="250" cy="250" r="250"/>
	<g>
		<path class="st1" d="M299.3,116.8c2.2-5.3,3.4-10.3,3.6-15.1c1.2-10.1-1.2-18-7.2-20.4c-5.8-2.4-13.2,1.4-19.6,8.9v-1.4
			c0-20.6-9.6-37.6-21.5-37.6c-12,0-21.5,16.8-21.5,37.6c0,1.4,0,2.9,0.2,4.3c-7.2-9.6-16.8-14.6-23.5-11.5
			c-8.4,4.1-9.6,19.1-2.4,34c1.2,2.4,3.8,6.7,5.5,8.9c-92.2,14.4-144.6,87.1-151.3,206.8H113c5.5-98.6,56.5-154.6,141.5-154.6
			c76.1,0,133.1,53.6,132.4,154.6h51.5c1-119.2-66.5-196.3-143.8-206.3C296.4,122.5,297.8,119.9,299.3,116.8z"/>
		<path class="st1" d="M189.9,245.3v33.3c0,7.4,7.7,13.4,17,13.4c9.3,0,17-6,17-13.4v-33.3c0-7.4-7.7-13.4-17-13.4
			C197.5,231.9,189.9,237.9,189.9,245.3z M294.7,231.9c-8.6,0-15.8,6-15.8,13.4v33.3c0,7.4,6.9,13.4,15.8,13.4
			c8.6,0,15.8-6,15.8-13.4v-33.3C310.5,237.9,303.3,231.9,294.7,231.9"/>
	</g>
</g>
</svg>
