<?xml version="1.0" encoding="UTF-8"?>
<svg xmlns:xodm="http://www.corel.com/coreldraw/odm/2003" xmlns="http://www.w3.org/2000/svg" xmlns:xlink="http://www.w3.org/1999/xlink" version="1.1" id="Layer_1" x="0px" y="0px" viewBox="0 0 2502 2502" style="enable-background:new 0 0 2502 2502;" xml:space="preserve">
<style type="text/css">
	.st0{fill-rule:evenodd;clip-rule:evenodd;fill:url(#SVGID_1_);}
	.st1{fill-rule:evenodd;clip-rule:evenodd;fill:#FFFFFF;}
	.st2{fill-rule:evenodd;clip-rule:evenodd;fill:#020202;}
	.st3{fill-rule:evenodd;clip-rule:evenodd;fill:#CDFD01;}
	.st4{fill-rule:evenodd;clip-rule:evenodd;fill:url(#SVGID_00000026847302871097622970000006919337561084139422_);}
	.st5{fill-rule:evenodd;clip-rule:evenodd;fill:#C0C3C8;}
	.st6{fill-rule:evenodd;clip-rule:evenodd;fill:url(#SVGID_00000163774187764561472270000017059140417790215056_);}
	.st7{fill-rule:evenodd;clip-rule:evenodd;fill:#EFEFEF;}
	.st8{fill-rule:evenodd;clip-rule:evenodd;fill:#222325;}
	.st9{fill-rule:evenodd;clip-rule:evenodd;fill:#59595A;}
	.st10{fill-rule:evenodd;clip-rule:evenodd;fill:#A1A29E;}
	.st11{fill-rule:evenodd;clip-rule:evenodd;fill:#828385;}
	.st12{fill-rule:evenodd;clip-rule:evenodd;fill:url(#SVGID_00000067932993026920062060000005229039142540947853_);}
	.st13{fill-rule:evenodd;clip-rule:evenodd;fill:#9DC202;}
	.st14{fill-rule:evenodd;clip-rule:evenodd;fill:#6B8717;}
	.st15{fill-rule:evenodd;clip-rule:evenodd;fill:url(#SVGID_00000087407764080572978660000013979280508829580417_);}
</style>
<g>
	
		<radialGradient id="SVGID_1_" cx="9.094947e-13" cy="2502" r="1" gradientTransform="matrix(1250 0 0 -1250 1251 3128751)" gradientUnits="userSpaceOnUse">
		<stop offset="0" style="stop-color:#FFFFFF"></stop>
		<stop offset="0.3804" style="stop-color:#7F7F7F"></stop>
		<stop offset="1" style="stop-color:#000000"></stop>
	</radialGradient>
	<circle class="st0" cx="1251" cy="1251" r="1250"></circle>
	<path d="M1251,1v1c344.7,0,657,139.9,883,366c226.1,226.1,366,538.3,366,883c0,344.7-139.9,657-366,883   c-226.1,226.1-538.3,366-883,366c-344.7,0-657-139.9-883-366C141.9,1908,2,1595.7,2,1251c0-344.7,139.9-657,366-883   C594,141.9,906.3,2,1251,2V1V0C560.4,0,0,560.4,0,1251c0,690.6,560.4,1251,1251,1251c690.6,0,1251-560.4,1251-1251   C2502,560.4,1941.6,0,1251,0V1z"></path>
	<path class="st1" d="M1342,1529c3-9,2-10,10-13C1350,1522,1348,1526,1342,1529z M1226,1516c6,3,5,4,9,11c4,6,6,8,9,15   c-7-3-8-4-12-10c-5-8-6-7-7-15L1226,1516z M1203,1514c5,3,0,2,6,2c4,6,4,3,2,11c-3-1-12-9-15-12l6-2L1203,1514z M1226,1516l-7-8   c-8-7-4-2-6-7c8,0,6,1,13,5V1516z M1321,1544c4-10,6-10,15-34c2-5,27-20,28-20c-4,8-16,14-23,19C1338,1513,1331,1541,1321,1544z    M1213,1502c-3-1-5-1-8-3c-6-6-1-1-4-7c7,4,9,4,12,11V1502z M1580,1460c9-5,18-21,25-30c2,18-11,27-18,37c7,13,13,13,13,33   c-7-13-12-18-22-28c-7-7-16-18-18-31c5,8,10,16,19,19H1580z M1235,1479c-3-1-7,0-12-12c-2-6-3-10-5-15c-4-15-15-8-19-22   c8,2,20,9,23,19c10,29,0,7,12,30H1235z M1341,1444c12-5,16-12,27-16c-3,5-7,8-11,10c-3,3-4,2-7,5c-13,9-3,30-19,39c2-14,10-14,9-37   L1341,1444z M979,1460c9-3,12-11,17-17c-3,22-26,31-37,56c-6-14,7-22,12-33c-4-8-5-6-11-12c-10-12-14-32-8-46c3,7,4,20,8,31   c4,9,11,17,18,21H979z M1359,1168c-6,22-28,25-34,71c-2,15-2,32-9,44c-6,10-13,23-13,38c17,14,26,14,55,15s35-3,55-15l57-46   c4-2,0-1,4-2c9-20,20-18,44-26c8-2,43-15,47-13c-8,5-45,17-56,20c1,11-2-6,1,3c0,0,1,2,2,3c16,1,30,3,47,1c11-1,12-2,20-6   c5-3,12-9,13-2c-1,23-27,53-40,70c-20,27-27,29-38,43c-3,4-4,4-5,9c-1,13-3,2,4,10c-20,13-57,18-88,13c-64-11-37-14-82,5   c3-8,3-4,8-9c0-6,1-3-3-7c-1-2-4-3-7-4c-6-2-12-2-19,0h-4c-5-2-8-3-15,0l-2,1l-4,1c-14,5-16-1-17-2h-9l-19-1h-6c-26-1-19,3-39,15   c-17-8-16-8-38-7c-37,2-74,20-118-4c-2-8-1-2,2-4c0-14-3-11-11-18c-5-5-10-10-14-14c-24-27-19-22-36-49c-4-6-7-11-12-17   c-4-6-8-10-12-17l-10-16c2-1-5-2,8-2c7,7,8,9,22,11c9,1,22,3,31,1l27-1c-3-5,0,0-3-4c-2-2,0,0-3-4c-9-2-34-9-38-18   c17,6,41,14,58,21c6,1,14,6,20,9c8,6,9,5,12,14l8,8c5,4,9,7,14,12c2,2,5,4,7,6c4,4,4,2,5,6c10,4,18,12,29,17c9,4,25,7,36,8   c29,4,50,0,63-18c-2-15-11-20-15-30c-5-12-2-26-4-40c-4-19-1-20-11-37c-3-6-7-10-10-14c-4-6-4-8-8-15l-4-5c-5-6-5-5-6-13   c10,1,21,18,26,24c6,7,16,19,19,28c6,16,0,21,11,37c7,11,14,18,33,15c32-4,31-31,38-61c5-24,36-50,42-52c-4,6-3,10-7,14H1359z    M1359,978c0-10,6-19,15-23C1369,964,1364,968,1359,978z M1199,949c11,5,20,12,22,26L1199,949z M1436,897c-2-12-1-9,4-18   c8-10,4-15,17-22c-7,29-4,19,1,44l-16-11c-8,2-4-4-7,6L1436,897z M1108,899c7-14,6-25,1-41c13,8,24,22,32,35l-12,6l-2-8   C1118,893,1117,897,1108,899z M986,1052c-22-3-35-30-35-56c6,4,5,6,12,8c-1-7-4-48-8-54c-13,9-29,32-43,38c-3-36-12-78-17-116   c-5-41-10-79-14-120c12,7,66,72,78,85c16-8,17-24,34-31c8,12,12,13,23,33c7,11,14,22,20,34l26,5c-3,2,0,1-5,2l-36,4c0-1-1,1-2,1   c6,3,8,5,14,9c4,3,9,8,13,11c9,7,21,1,34,12c-2,1,0,1-4,1l-30-2c5,12,23,25,20,56l-6-9c-13,7-53,42-60,52l11,4c-30,4-26,1-50-4   c4,21,12,25,23,36L986,1052z M1616,834c15-15,66-78,78-85c-4,41-9,82-14,122c-5,37-14,79-17,114c-14-6-30-29-43-38c0,0-1,1-1,2   l-7,52c7-1,6-4,12-8c0,26-13,53-35,56c12-11,19-15,23-36c-25,5-20,8-51,4c1,0,1-1,2-1l9-3c-7-11-48-45-61-53l-6,9   c-1-32,16-43,21-56l-34,1c13-12,25-5,35-13c8-7,16-14,26-19c-3-3,0-1-5-3c-2-1-3-1-6-1c-10-2-18,1-28-2c0,0-1,0-2-1c0-1-1,0-2-1   l26-4l32-53c4-5,8-9,11-14c16,7,18,24,34,31H1616z M906,1250v17c9-5,0-2,9-10l4-15l22,7c6,3,24,25,24,34c-19,15-22,3-35,31   c-14,30-14,82-4,113c2,8,6,17,9,24c5,12,9,17,2,29c-5,20,4,43,10,57c4,8,7,15,13,23c6,7,11,11,16,19l12,13c10,15,18,27,28,45   c9,17,17,32,28,46l8,12c11,5,8,12,28,17c-1-34-8-24-28-58l-22-39c-6-9-7-3-7-14c-2-2-1-1-3-4c0,0-3-5-3-6c-2-5-3-8-5-14   c-13-14-20-49-17-70l2-5l-8,1l-17,6c1-2-1-7,13-11c38-11,46,11,70,46c4,5,7,9,10,14c1,3,3,5,4,7l8,8c0-35-5-26-5-36l4-12   c30,108-10,164,44,245c38,56,143,107,154,51c1-7,5-26,5-32l-41-29c-12-9-45-39-50-55c-7-21,3-6-12-23c-11-12-10-39-1-52   c2,19-2,36,12,45c4-2,1,0,4-3c28-25,43-37,94-37c72,0,89,37,99,41c13-16,9-30,12-43c0-1,0-1,1-2c0,0,0-1,1-2c6,19,9,38-5,53   c-9,11-4,10-11,22c-4,9-10,13-15,20c-9,12-62,53-72,63c0,6,1,9,0,14c-1,4-9,25,11,37c17,10,40,4,57-3c30-12,66-42,82-64   c22-30,33-67,32-115c0-39,0-101,14-131l2,11c1-1,6-4,11-11c-3,8-3,12-9,17c-3,15-5-2-6,36c7-5,26-37,32-45c9-14,26-27,29-34l1-2   c4-13-5,8,1-3c17-1,34,0,39,12c-39-10-10,3-20,38c-2,8-9,29-15,33l-11,24c-2,3-1,2-3,4c0,12-1,1-14,25l-32,49c-8,10-10,16-9,31   c35-5,66-73,88-104c15-22,28-32,43-53c11-15,28-48,22-74c-3-4-5-7-2-17c1-3,3-8,4-11c17-41,23-96,4-137c-13-28-15-16-35-31   c0-10,19-31,24-34l23-7l3,15c7,6,2,4,7,10c3-6,0-6,1-15c1-13-4-8-13-35c-5-14-9-18-12-37c-2-14-2-30-3-44c-2-16-9-23-11-37   c3,2,8,9,9,11c4-30-1-33,12-61c4-9,7-16,12-25s9-15,14-24c8-14,16-32,24-48c34-65,48-96,37-177c-3-24-17-102-30-119   c-13,5-24,20-35,28c-49,39-87,78-151,109c-29,14-37,18-58,40c-12,12-38,42-40,58c20,13,9,4,17,8c-4,5-2,4-6,4l-25-12   c-13-5-23-9-37-14c-64-21-149-12-207,16c-10,5-25,13-35,15c4-5,4-4,9-7l11-8c-10-24-37-58-57-75c-24-20-51-26-85-49   c-14-9-25-17-39-27l-73-60c-11-12-19-28-34-35c-14,32-22,89-28,127c-9,53-3,88,14,132c7,18,16,38,25,52l27,52c17,54,7,54,13,112   c1,9-5,4-5,20c11-6,19-28,28-38c1,2,3-2,1,7c-2,14-26,47-28,51c-3,8-1,33-2,44c0,14-5,28-4,42L906,1250z"></path>
	<path class="st2" d="M1095,1753l6,13c5,6,8,15,14,23c5,6,13,13,17,19l8,7c11,4,27,22,53,32c32,12,35,10,71,14c-3,8-73,72-87,86   c-32,32-258,249-266,254c3-18,13-42,19-61c6-20,13-40,19-60c25-78,54-162,77-240l39-119l17,3l12,28L1095,1753z M1269,1854   c4-5,8-8,13-11l10,12L1269,1854z M1197,1689l1-4l10-14c4-4-3,1,5-4c4-1,24-12,35-15c13-4,30-5,45-4c27,2,60,15,71,31c1,2,2,2,4,7   s1,3,1,8c-38,18-130,23-170,2l-1-8L1197,1689z M1066,1645c5-12-1-22,8-34c1,16,3,44-3,56c-7,1-2,1-5-2V1645z M1490,1646   c4,4,6,7,6,15s0,10-7,12l-1-56c3,8,3,18,3,28L1490,1646z M1514,1640c-6,8-4,11-13,13c-4-10-7-22-6-34c10-2,17-2,27,0l-1,11l-4,6   C1514,1640,1516,1638,1514,1640z M1045,1632c-2-2-1-1-3-4c-3-4,1,3-1-3l-2-13c9-2,17-2,26,1c1,12-1,26-7,34c-7-4-8-7-12-15H1045z    M1526,1619c1-11,0-5,6-8C1530,1618,1533,1616,1526,1619z M1066,1608c1,0,1-1,2-1h3c0-1,1,1,2,1c-1,0-1,1-2,1L1066,1608z    M1492,1601v-2c3-5,0-1,3-5c2-3,2-2,4-4c10-15,6-13,15-13c4,8,4,20,2,30l-20,1l-7-3c0-9-1-2,3-5V1601z M1035,1612c-5-4-3-1-5-8   C1037,1608,1034,1602,1035,1612z M1065,1585l5,8l3,7c-11,3-16,3-26,0c-2-11-2-24,5-30c6,2,3,0,8,7C1062,1580,1063,1582,1065,1585z    M1029,1527l20,35c-7,7-16,10-27,9v-10c-5-10-5-37,0-46c4,4,6,8,8,12H1029z M1541,1571c0,1,0,2,0,2l-2,5c-12-1-17-4-24-10   c1-8,14-28,19-34c7-10,4-11,10-12c1,9,1,18,1,27s0,16-4,23V1571z M1555,1558c-5-7-3-27-3-41c14,3,12,15,8,32   C1558,1559,1560,1554,1555,1558z M1010,1550c-3-1-7,4-8-22c-1-13,0-17,11-18C1012,1521,1015,1542,1010,1550z M1721,1361l-5,5l-2-8   c-3-34-33-52-34-87c-1-36-3-24-13-48c-3-8-14-39-13-47l207,41l-140,145V1361z M645,1312c6-13,8-11,15-20l206-227c5-6,11-11,16-17   c11-12,8-13,17-16c9,25,3,181-3,207c-6,24,0,38-12,60c-5,10-9,15-14,23c-4,8-6,18-11,26l-215-37L645,1312z M1668,1251c2,3,0-2,2,5   l2,15c4,50,35,53,36,107c1,32-44,99-58,108c-7-6-5-12-11-19v12c7,27-11,59-22,74c-15,21-28,31-43,53c-21,31-53,99-88,104   c0-15,1-21,9-31l32-49c13-24,14-12,14-25v-1l-10,4c-6,2-3,2-9,5l1-31l15,6c1-4-1,0,5-2h4c1-8,2-18,7-23c6,10,1,1,1,15h1   c6-5,12-25,15-33c10-35-19-47,20-38c-5-12-22-13-39-12c-6,11,3-10-1,3l-1,2c-3,6-20,20-29,34c-5,8-24,40-32,45c1-38,3-21,6-36   c0-7,0,0-1-5l-3-13c-14,30-15,92-14,131c0,48-10,85-32,115c-16,22-53,52-82,64c-17,7-40,14-57,3c-20-12-12-33-11-37c1-5,0-8,0-14   c10-10,63-50,72-63c5-7,11-11,15-20c6-12,1-12,11-22c13-15,10-34,5-53c0,1,0,1-1,2c0,0,0,1-1,2c-3,13,1,27-12,43c-10-4-27-41-99-41   c-51,0-66,12-94,37c-3,3,0,1-4,3c-14-9-11-26-12-45c-9,12-10,39,1,52c15,17,5,2,12,23c5,16,39,46,50,55l41,29c0,7-3,25-5,32   c-11,56-116,5-154-51c-54-81-14-136-44-245l-4,12c0,10,5,1,5,36l-8-8c-1-2-2-5-4-7c-3-5-6-9-10-14c-24-35-31-58-70-46   c-15,4-13,9-13,11l17-6c2-2,1-2,5-3c5-1,3,0,7,1l-7,6c-3,21,4,57,17,70l1,1c0-11-7-16,1-20c5,9,1,18,8,24c3,2,2,1,6,2c5-5,6-4,14-6   l2,29c-10,1-2,1-11-3c-2-1-3-1-5-2c0,0-3,0-3-1s-1,0-1-1v1c0,10,1,5,7,14l22,39c20,34,26,24,28,58c-20-5-17-12-28-17c-5-6-6-5-8-12   c-12-14-19-29-28-46c-10-18-18-31-28-45l-12-13c-5-8-10-11-16-19s-9-14-13-23c-6-14-15-37-10-57v-12l-1,1l-3,5c-1,2-1,3-2,5l-6,8   c-9-6-31-37-37-49c-51-91,3-101,12-151l3-30c2-8-1-2,3-6c-1-13,3-28,4-42c0-11-1-36,2-44c1-4,25-37,28-51c1-9,0-5-1-7   c-10,11-17,33-28,38c-1-15,6-11,5-20c-6-57,4-57-13-112l-27-52c-9-14-18-33-25-52c-17-44-23-79-14-132c6-38,14-95,28-127   c15,7,22,23,34,35l73,60c13,9,25,18,39,27c33,23,60,29,85,49c20,16,47,51,57,75l-11,8c-5,3-5,3-9,7c10-2,25-10,35-15   c59-27,143-36,207-16c14,4,24,8,37,14l25,12c4,0,2,1,6-4c-9-4,2,4-17-8c2-16,28-46,40-58c22-22,30-26,58-40c65-32,102-70,151-109   c11-9,22-24,35-28c13,17,26,95,30,119c11,81-3,113-37,177c-8,16-16,33-24,48c-5,9-9,14-14,24c-4,9-8,16-12,25c-12,27-7,31-12,61   c-1-3-7-9-9-11c2,14,9,21,11,37c2,14,2,30,3,44c2,19,7,23,12,37c9,26,13,22,13,35L1668,1251z M1109,814c121-127,252-254,373-382   c15-16,117-121,126-126c-3,15-148,462-163,513c-16,52-20,34-33,63c-24-3-30-9-51-14c-55-14-84-9-139,2c-32,6-54,21-63,20   C1135,831,1117,839,1109,814z M1100,805c-26-6-80-38-101-54l-31-22c-11-8-18-16-29-24l-41-38c-4-5-8-9-12-14c-8-9-14-21-25-28   c-2,8-6,15-8,22c-10,28-27,96-30,123c-1,11-2,17-3,27c-5,37-3,61,8,96c5,16,12,31,20,45c10,18,40,60,39,78c0,6-6,10-11,15l-138,151   c-9,11-16,17-25,28c-5,6-8,8-13,13l-37,42c-7,7-47,49-50,57c18,0,43,6,61,9l150,25c10,2,21,4,30,5c0,47,13,65,36,100   c9,14,29,39,33,52c6,19,15,43,29,56c24,23,40,51,57,79c2,4,4,7,7,11l19,33c24,35,20-1-4,86l-21,66c-30,88-56,179-85,267l-31,100   c-4,12-8,23-11,35c18-12,48-48,65-62c12-10,23-18,34-30c2-3,5-5,7-8c5-5,4-3,8-9c10-13,90-86,113-110l164-158c8-8,6-9,21-9   c19,0,36-3,52-11c9-4,0-2,11-4c34-7,67-33,88-58l25-38c3-6,5-18,9-22c3-3,16-7,21-11c6-5,11-9,17-14c14-12,19-21,30-35   c6-8,6-13,12-21c10-15,13-26,27-37c12-10,19-23,27-36c5-7,7-11,13-18c6-6,9-12,13-20s5-15,9-23s6-14,10-23l18-28c10-15,24-34,31-50   c9-22,3-24,21-42l63-66c6-6,8-10,14-16c16-16,34-31,48-48c10-13,24-23,32-34l-115-22c-19-4-39-7-59-11c-19-4-40-10-60-10   c0-41-7-32-2-87c1-16,16-41,23-56c3-5,4-8,7-13c5-7,3-4,7-12c4-7,10-16,14-25c19-34,37-72,44-111c6-34,2-70-5-104   c-6-32-12-61-22-92c-4-11-8-19-10-29c-10,3-20,17-28,25l-106,84l-66,41c-7,4-12,6-19,10c-12,7-21,17-32,23c3-11,7-23,11-35   c4-11,7-23,11-35c47-140,90-282,135-423c8-24,17-48,22-72c-9,6-54,55-67,68l-51,51c-7,7-9,12-16,19c-23,23-45,45-68,68   c-12,12-21,23-33,35l-102,104c-23,23-47,45-68,70c-25,30-59,54-84,84c-15,17-39,36-51,54L1100,805z"></path>
	<path class="st3" d="M1108,815c8,25,26,18,50,76c9,1,31-14,63-20c55-11,84-16,139-2c20,5,26,11,51,14c13-29,17-10,33-63   c16-51,161-498,163-513c-9,5-111,111-126,126C1360,560,1229,687,1108,815z"></path>
	<path class="st3" d="M1140,1815l-8-7c-4-5-12-12-17-19c-7-8-9-17-14-23l-7-7c-1-10-1-3,2-7l-12-28l-17-3l-39,119   c-23,77-53,162-77,240c-6,20-13,40-19,60c-6,19-16,43-19,61c8-5,234-222,266-254c15-14,85-78,87-86c-37-4-40-2-71-14   c-26-10-42-28-53-32H1140z"></path>
	<path class="st3" d="M644,1313l215,37c5-8,6-18,11-26s9-14,14-23c12-22,6-36,12-60c6-25,12-182,3-207c-8,2-6,4-17,16   c-5,6-11,11-16,17l-206,227c-8,9-10,7-15,20L644,1313z"></path>
	<path class="st3" d="M1713,1359l1,1c0,1,1,1,1,1c4,2-1,1,5,1l140-145l-207-41c-1,9,10,39,13,47c10,25,12,13,13,48s32,54,34,87V1359   z"></path>
	
		<linearGradient id="SVGID_00000156571122127151901810000008254225184963184256_" gradientUnits="userSpaceOnUse" x1="0" y1="2502" x2="1" y2="2502" gradientTransform="matrix(1.475699e-14 -241 -241 -1.475699e-14 603957.5 1015)">
		<stop offset="0" style="stop-color:#444444"></stop>
		<stop offset="1" style="stop-color:#A6A7AB"></stop>
	</linearGradient>
	<path style="fill-rule:evenodd;clip-rule:evenodd;fill:url(#SVGID_00000156571122127151901810000008254225184963184256_);" d="   M908,912l9,61c9-4,30-28,44-39l10,77c13,4,15,8,25-1c20-20,38-38,64-54c-3-18-15-29-29-38l9-9c-7-7-14-14-24-19l-16-9l25-6   c-3-10-11-22-17-31c-5-9-11-22-19-26c-9,7-21,26-31,32c-11-9-16-21-26-28l-41-47l3,34l13,104L908,912z"></path>
	<path class="st5" d="M935,1480c7-11,3-17-2-29c-3-7-6-16-9-24c-10-31-9-83,4-113c13-28,15-16,35-31c0-9-18-31-24-34   c-9,9-11,2-25,11v-3c-9,8,0,5-9,10c0-3,1-27-2-10l-3,30c-10,50-63,61-12,151c6,11,28,43,37,49l6-8c1-2,1-3,2-5l3-5l1-1v12H935z"></path>
	<path class="st5" d="M1637,1480v-12c7,7,4,13,11,19c14-9,59-76,58-108c-1-55-31-57-36-107l-2-15c-2-6,0-2-2-5c-1,9,2,9-1,15   c-5-6,0-4-7-10v3c-13-9-16-2-25-11c-5,3-23,24-24,34c19,15,22,3,35,31c19,42,12,96-4,137c-1,3-4,8-4,11c-2,11,0,13,2,17L1637,1480z   "></path>
	<path class="st5" d="M1202,1176l-2-9c5,3,15,17,19,22c5,6,13,17,16,26c15,18-10,57,14,80c14,13,11,22,3,30l-1,1c-14,14-16,9-33,17   c3,10,4,6,13,12c6,4,8,7,14,10c12,7,22,10,34,17l-1,2c1,1,3,7,17,2l4-1c-2-2-8,3,1-7c10-11,39-11,48-37c-30-5-65-2-40-51l1-1l1-1   c17-30,0-59,36-104c3-3,12-17,13-14c3-4,3-8,7-14c-6,3-37,28-42,52c-7,31-6,57-38,61c-19,3-26-4-33-15c-12-17-6-21-11-37   c-3-9-14-21-19-28s-16-23-26-24c1,8,1,7,6,13L1202,1176z"></path>
	
		<linearGradient id="SVGID_00000106839693131678240370000006769019304029992596_" gradientUnits="userSpaceOnUse" x1="0" y1="2502" x2="1" y2="2502" gradientTransform="matrix(1.475699e-14 -241 -241 -1.475699e-14 604580.5 1013)">
		<stop offset="0" style="stop-color:#444444"></stop>
		<stop offset="1" style="stop-color:#A6A7AB"></stop>
	</linearGradient>
	<path style="fill-rule:evenodd;clip-rule:evenodd;fill:url(#SVGID_00000106839693131678240370000006769019304029992596_);" d="   M1543,910c2,12-2,2-17,20c-6,7-10,14-12,24c23,14,44,34,63,53c10,11,12,7,26,2l9-77c15,12,28,27,42,39l1-2c0,0,1-1,1-2   c5-13-2,8,1-3c1-2,1-5,2-7l7-47l7-52l10-86c-10,9-21,21-29,31c-9,11-19,21-28,33l-11,11c-11-7-22-25-31-32c-7,4-15,19-19,26   c-5,9-14,21-17,31l25,5c-6,8-8,5-20,14c-8,5-13,9-19,16l8,3H1543z"></path>
	<path class="st2" d="M1673,858l-7,52l-7,47c0,2-1,5-2,7c-4,11,4-10-1,3l-1,2c0,0-1,1-1,2c-14-12-27-27-42-39l-9,77c-14,5-16,8-26-2   c-19-19-40-39-63-53c2-10,6-17,12-24c15-17,19-7,17-20l-8-3c6-6,11-10,19-16c12-9,14-5,20-14l-25-5c3-10,11-22,17-31   c5-7,12-22,19-26c9,7,20,25,31,32l11-11c9-11,19-21,28-33c8-10,19-22,29-31l-10,86H1673z M1615,835c-16-8-17-24-34-31   c-4,5-8,10-11,14l-32,53l-26,4c1,1,1,1,2,1c0,1,1,1,2,1c10,3,19,0,28,2c2,0,3,1,6,1c5,2,2,0,5,3c-10,5-18,13-26,19   c-10,8-22,1-35,13l34-1c-5,13-22,23-21,56l6-9c14,8,54,42,61,53l-9,3c0,0-1,0-2,1c30,4,26,1,51-4c-4,21-12,25-23,36   c22-3,35-30,35-56c-6,4-5,6-12,8l7-52c0,0,0-1,1-2c13,9,29,32,43,38c3-35,12-77,17-114c5-41,10-81,14-122c-12,7-63,70-78,85H1615z"></path>
	<path class="st2" d="M933,821c10,8,16,19,26,28c10-6,22-25,31-32c8,4,14,18,19,26c5,9,14,21,17,31l-25,6l16,9c10,6,17,12,24,19   l-9,9c13,8,26,20,29,38c-26,16-44,34-64,54c-10,10-12,6-25,1l-10-77c-14,11-34,35-44,39l-9-61l-13-104l-3-34l41,47L933,821z    M912,989c14-6,30-29,43-38c4,6,7,47,8,54c-7-1-6-4-12-8c0,26,13,53,35,56c-12-11-19-15-23-36c24,5,20,8,50,4l-11-4   c7-11,48-45,60-52l6,9c3-31-15-44-20-56l30,2c4,0,2,0,4-1c-13-11-24-5-34-12c-4-3-9-8-13-11c-6-5-8-6-14-9c0,0,1-2,2-1l36-4   c5-1,2,0,5-2l-26-5c-7-12-14-23-20-34c-12-20-16-22-23-33c-16,7-18,24-34,31c-12-13-65-78-78-85c4,41,9,80,14,120   c5,38,14,80,17,116L912,989z"></path>
	<path class="st5" d="M1051,1381c11,16,63,13,78,11c27-4,59-13,76,5c21-12,14-15,39-15c-11-10-15-7-27-1c11-9,10-11,24-6   c9,3,7,3,9,7l19,1l-7-7c-11-6-36-12-51-35l-34-3l-5,3c3,5,3,4,5,11c5,3-1,5-5,8c-12,8-38,16-52,19c-25,4-46,2-66-8   c-12-7-35-31-40-41c-6-10-26-42-27-51c-9-4-7-7-13-13c-5-5-10-6-10-15c-12-1-6,0-8,2l10,16c4,7,7,11,12,17s8,11,12,17   c18,27,13,21,36,49c4,5,9,10,14,14c8,7,10,4,11,18V1381z"></path>
	<path class="st5" d="M1565,1288c-2,10-10,17-15,24c-15,20-36,44-57,59c-26,18-107,3-118-20c4-6,6-6,9-11h-32c-5,8-12,22-22,26   c-12,5-25,6-29,18c7-3,10-1,15,0c0-1-3-6,9-9c17-5,20,3,27,11c-12-6-9-11-29-8l-3,6c7-2,14-2,19,0c3,1,5,2,7,4c3,4,2,1,3,7   c19-4,13-11,39-7c14,2,27,5,40,8c46,8,69-11,84-11c-7-7-5,3-4-10c0-5,1-5,5-9c11-14,18-16,38-43c13-17,39-47,40-70   c-14,6-14,27-25,35H1565z"></path>
	<path class="st7" d="M1047,1355c8,15,42,21,65,19c16-2,60-14,63-23l-5-5l-1-1c-2-2-1-2-4-4c-6,2-4,3-11,5c-7,7-33,12-49,9   c-18-3-33-14-35-26c-6-1-2,2-7-5c-15-11-19-29-20-47c-50-2-46,4-22,43L1047,1355z"></path>
	<path class="st7" d="M1542,1312c3-17,12-11,12-36c-12-1-28-8-42-4c0,15,8,53-33,72c-30,14-61,9-86-6c-6,3-10,8-12,13   c5,4,34,15,43,17c17,5,36,5,54,2s59-46,64-60V1312z"></path>
	<path class="st8" d="M1565,1288c-9,3-10,18-23,25c-6,14-46,57-64,60c-19,3-37,3-54-2c-9-2-38-13-43-17c2-6,7-10,12-13   c25,15,57,20,86,6c41-19,32-57,33-72c-2-3-2,2-3-8c27,2,42,1,66-3c-1,11-8,13-9,26L1565,1288z M1299,1384l2-1c4-11,17-13,29-18   c10-4,17-18,22-26h32c-3,5-5,6-9,11c11,23,92,37,118,20c21-14,42-39,57-59c5-7,13-14,15-24c11-8,11-28,25-35c-1-7-8-1-13,2   c-8,4-9,5-20,6c-17,2-31,0-47-1c-6-1-2,1-7-1c-3-1-3-2-4-3l8-2c11-3,48-15,56-20c-4-2-39,10-47,13c-24,7-35,6-44,26h2   c6-5,8-10,15-14c15-3,20,24,20,37c-1,14-5,12-6,13c-1,15-18,34-33,34c-2,2,0,2-4,4c-6,3-37,1-42,1c-13-1-20-6-29-12c4-2,5-4,9-6   c7-5,1-3,9-5v-2h-2c-21,12-26,15-55,15c-29-1-37-1-55-15c0-15,7-28,13-38c6-12,7-29,9-44c6-46,28-49,34-71c-1-3-10,10-13,14   c-36,45-19,74-36,104l-1,1l-1,1c-25,49,10,46,40,51c-9,26-39,27-48,37s-3,5-1,7H1299z"></path>
	<path class="st9" d="M1213,1668c-8,5,0-1-5,4l-10,14c13,1,18,5,34,7c20,2,54,4,72-5c14-7,18-7,16-26c-15-6-39-6-57-3l-45,12   c-7,0-1,3-5-2V1668z"></path>
	<path class="st9" d="M1197,1689l1,8c40,20,132,15,170-2c0-5,1-3-1-8s-2-5-4-7c-4-1-22-15-33,3c-2,3-1,3-3,6l-3,5c-15,7-47,3-66,3   c-28,0-36,2-61-7V1689z"></path>
	<path class="st1" d="M1213,1668c4,6-2,2,5,2l45-12c18-3,42-3,57,3c2,19-2,19-16,26c-19,9-52,7-72,5c-16-2-21-6-34-7l-1,4   c25,8,33,7,61,7c19,0,51,4,66-3l3-5c2-3,1-3,3-6c11-18,30-4,33-3c-11-16-44-29-71-31c-15-1-32,0-45,4c-11,3-31,14-35,15L1213,1668z   "></path>
	<path class="st10" d="M987,1277c5,2,0-2,4,3c9,10,27,61,55,76l-26-35c-24-39-28-45,22-43c0,18,5,36,20,47l-2-9l-4-5l-5-9   c-4-9-3-22-4-33l-66-5c4,8,5,4,7,13H987z"></path>
	<path class="st8" d="M1234,1246c2,13-1,28,4,40c5,10,14,15,15,30c-13,19-34,22-63,18c-11-1-27-4-36-8c-11-5-19-13-29-17l1,5   c6,2,9,4,13,9c11,3,11,7,21,12l4,4c11,0,0-1,7-2h1c4,0,2-1,5,1l34,3c15,23,40,29,51,35l7,7h9l1-2c-12-7-22-10-34-17c-6-3-8-6-14-10   c-9-6-10-2-13-12c17-8,19-3,33-17l1-1c7-8,10-17-3-30c-24-23,1-62-14-80c0,6,1,8,2,15c0,1,0,8,0,9c-2,12,0,3-3,7V1246z"></path>
	<path class="st2" d="M1454,1307c-4,7-4,7-12,3c0-5,0-7,5-8C1455,1300,1453,1305,1454,1307z M1460,1298c0-7,2-10,8-12c3-1,3-1,6,0   c10,3,1,0,6,3c-3,8-10,17-19,9H1460z M1412,1321h2c6-1,7-4,12-7c7,3,16,6,27,6c6-3,24-21,29-26l3-9l-1-1l-1-1l-5-5c-3-3-2-1-5-5h-2   c-4,1,0-1-4,2l-57,46H1412z"></path>
	<path class="st8" d="M1177,1351h-2c-3,9-48,21-63,23c-23,3-58-3-65-19c-28-15-46-65-55-76c-4-4,1,0-4-3c1,9,22,41,27,51   c6,10,28,35,40,41c20,11,40,13,66,8c14-2,39-11,52-19c4-2,10-4,5-8L1177,1351z"></path>
	<path class="st2" d="M1110,1303c4,1,6,2,6,6c0,6-3,4-8,4C1107,1306,1106,1309,1110,1303z M1084,1294c-1-10,15-8,16,2   C1100,1309,1085,1299,1084,1294z M1077,1298c3,2,7,6,11,9s10,6,11,10c11,3,21,5,27-4l-1-5c-1-4-1-2-5-6c-2-2-5-4-7-6   c-5-4-9-8-14-12c-2-1-4-1-5-2c-4-4-2-1-3-6c-9-3-12-9-21-13c4,8,3,5,9,11c-2,13-6,7-2,22V1298z"></path>
	<path class="st10" d="M1511,1273c14-4,30,3,42,4c0,25-9,19-12,36c13-7,14-22,23-25c2-13,9-15,9-26c-24,5-39,5-66,3c1,10,1,6,3,8   H1511z"></path>
	<path class="st2" d="M971,1466c-5,11-18,19-12,33c11-25,35-35,37-56c-5,6-8,13-17,17c-7-4-14-12-18-21c-4-10-5-23-8-31   c-6,15-2,34,8,46c5,7,6,5,11,12H971z"></path>
	<path class="st8" d="M1039,1251l16,5c-3,6-6,7-15,7l-18-1c-9-2-1,0-5-2c-9,2-22,0-31-1c-15-2-15-4-22-11c-1,9,5,10,10,15   c7,6,4,10,13,13c-2-9-2-5-7-13l66,5c1,10,0,24,4,33l5,9l-2-8c-5-6-5-7-5-16c0-6,0-13,0-20l14-6c0,0-3-4-4-4c-17-7-41-15-58-21   c3,9,29,16,38,18L1039,1251z"></path>
	<path class="st2" d="M1580,1460c-9-3-14-11-19-19c2,13,11,23,18,31c10,10,15,15,22,28c0-20-7-20-13-33c6-10,19-18,18-37   c-7,9-16,25-25,30H1580z"></path>
	<path class="st1" d="M1540,1572c0-4,2-10,0-13l-2-4c-2-6-1-14-4-20c-5,7-18,26-19,34c7,6,13,9,24,10l2-5c0,0,0-1,0-2H1540z"></path>
	<path class="st1" d="M1021,1561v10c11,1,21-2,27-9l-20-35l-8,34H1021z"></path>
	<path class="st1" d="M1041,1625l9-3c-2,6-4,5-4,11c4,8,5,12,12,15c6-8,8-23,7-34c-8-3-17-3-26-1l2,13V1625z"></path>
	<path class="st2" d="M1107,899c9-2,9-6,19-8l2,8l12-6c-8-13-19-27-32-35C1112,874,1114,885,1107,899z"></path>
	<path class="st1" d="M1514,1640c-2-9-3-7-6-14c9,2,1,1,6,3c4,1,1,1,7,1l1-11c-10-3-17-3-27,0c-1,12,1,25,6,34   C1510,1651,1508,1649,1514,1640z"></path>
	<path class="st1" d="M1498,1591c1,8,3,5,7,12c-8-2-5-2-14-3v2c3,11-4-3,1,3l4,4l20-1c2-10,2-23-2-30c-9,0-5-2-15,13H1498z"></path>
	<path class="st8" d="M1349,1394c-5,5-5,1-8,9c45-19,19-16,82-5c31,5,68,0,88-13c-15,0-37,19-84,11c-13-2-26-5-40-8c-26-4-20,3-39,7   L1349,1394z"></path>
	<path class="st1" d="M1069,1594l-15,3l10-11c-1-3-3-5-5-8c-5-7-3-5-8-7c-8,6-7,19-5,30c11,3,16,3,26,0L1069,1594z"></path>
	<path class="st2" d="M1435,897c3-9-2-3,7-6l16,11c-6-25-9-15-1-44c-12,7-9,11-17,22c-6,8-7,5-4,18L1435,897z"></path>
	<path class="st8" d="M1205,1396c-18-18-49-9-76-5c-15,2-66,5-78-11c-3,2-4-4-2,4c43,24,81,6,118,4c22-1,21-1,38,7V1396z"></path>
	<path class="st1" d="M1009,1552c5-9,3-29,3-40c-11,2-12,6-11,18C1002,1556,1006,1551,1009,1552z"></path>
	<path class="st5" d="M1234,1246c3-5,1,5,3-7c0-1,0-8,0-9c0-7-1-9-2-15c-10-7-14-25-30-35c4,7,4,9,8,15c3,5,6,9,10,14   C1233,1226,1230,1227,1234,1246z"></path>
	<path class="st1" d="M1554,1559c5-4,3,0,5-9c4-17,5-28-8-32C1551,1532,1549,1552,1554,1559z"></path>
	<path class="st1" d="M1025,1583l-4,16l4-9c0,1,1,1,1,2l4,11c8,4,1,4,11,3l-2-29C1031,1579,1030,1578,1025,1583z"></path>
	<path class="st1" d="M1530,1609c3-6-1-4,5-13l5,9l-3-16l-15-6l-1,31C1528,1611,1525,1612,1530,1609z"></path>
	<path class="st10" d="M1021,1561l8-34c-2-5-4-9-8-12C1017,1524,1016,1551,1021,1561z"></path>
	<path class="st5" d="M1534,1535c4,6,2,14,4,20l2,4c2,3,0,9,0,13c4-7,4-13,4-23c0-9,0-18-1-27c-6,2-3,3-10,12L1534,1535z"></path>
	<path class="st9" d="M1235,1478c-13-23-3-1-12-30c-3-9-16-17-23-19c5,14,15,6,19,22c1,5,2,10,5,15c5,12,8,11,12,12H1235z"></path>
	<path class="st11" d="M1066,1645c4,4,4,3,5,9c0,1,0,5-1,6c-3,7-1,1-4,4c2,4-2,3,5,2c6-12,4-40,3-56c-8,12-3,22-8,34V1645z"></path>
	<path class="st8" d="M1321,1544c11-3,17-31,20-35c7-5,19-11,23-19c-1,0-26,15-28,20C1327,1533,1324,1533,1321,1544z"></path>
	<path class="st2" d="M1633,1249c9,9,12,2,25,11v-3l-3-15l-23,7H1633z"></path>
	<path class="st10" d="M1489,1674c7-3,7-4,7-12s-2-12-6-15c1-10,1-20-3-28l1,56L1489,1674z"></path>
	<path class="st2" d="M914,1257v3c14-9,16-2,25-11l-22-7l-4,15H914z"></path>
	<path class="st8" d="M1341,1444c0,23-7,23-9,37c15-9,6-29,19-39c3-2,3-2,7-5s8-6,11-10c-11,4-14,11-27,16L1341,1444z"></path>
	<path class="st1" d="M1460,1298c10,8,16-1,19-9c-4-3,5-1-6-3c-2-1-3-1-6,0c-6,2-8,5-8,12H1460z"></path>
	<path class="st8" d="M1202,1176l4,5c16,9,20,28,30,35c-3-9-11-20-16-26c-4-5-15-19-19-22l2,9L1202,1176z"></path>
	<path class="st1" d="M1099,1296c0-11-16-13-16-2C1083,1299,1099,1309,1099,1296z"></path>
	<path class="st5" d="M1018,1260c4,3-4,0,5,2l18,1c9-1,12-1,15-7l-16-5c3,4,1,1,3,4c3,4,0-1,3,4l-27,1H1018z"></path>
	<path class="st5" d="M1063,1259c7,3,4,1,8,6c9,4,11,10,21,13c-4-9-4-9-12-14c-5-4-14-8-20-9c0,0,3,4,4,4H1063z"></path>
	<path class="st5" d="M1541,1587v9c10-7,4-10,12-18c0-14,5-5-1-15c-5,5-6,15-7,23h-4V1587z"></path>
	<path class="st5" d="M1010,1576l5,6c3,4,2,3,5,6l-1-9c-7-6-3-15-8-24c-8,4-1,9-1,20V1576z"></path>
	<path class="st1" d="M1269,1854l23,1l-10-12C1276,1846,1272,1850,1269,1854z"></path>
	<path class="st8" d="M1317,1383h4l3-6c20-3,17,2,29,8c-8-9-11-17-27-11C1314,1378,1317,1382,1317,1383z"></path>
	<path class="st8" d="M1541,1587c-6,2-4-2-5,2l3,16v1c2-2,1-1,3-4l11-24h-1c-8,8-2,10-12,18v-9H1541z"></path>
	<path class="st8" d="M1010,1576c2,6,3,9,5,14c0,1,3,6,3,6c2,3,1,2,3,4v-1l4-16c-4-2-3,0-6-2l1,9c-3-3-2-2-5-6l-5-6l-1-1L1010,1576z   "></path>
	<path class="st9" d="M1232,1532c4,6,4,7,12,10c-3-7-5-8-9-15c-7-11-9-8-9-20c-10-5-16-10-26-16c3,6-2,2,4,7c2,2,9,6,14,10   c8,9,7,12,14,23V1532z"></path>
	<path class="st9" d="M1220,975c-2-14-11-21-22-26L1220,975z"></path>
	<path class="st8" d="M1244,1382h6c-3-3-1-3-9-7c-14-6-13-3-24,6C1230,1375,1234,1372,1244,1382z"></path>
	<path class="st1" d="M1442,1310c8,4,8,4,12-3c-1-2,1-6-7-5C1442,1303,1442,1304,1442,1310z"></path>
	<path class="st9" d="M1164,1338l1,2c3,2,2,2,4,4l1,1l5,5h2c-2-7-2-6-5-11l5-3c-3-2-1-2-5-1h-1c-7,1,4,2-7,2V1338z"></path>
	<path class="st1" d="M1066,1665c3-3,1,3,4-4c1-1,1-5,1-6c0-6-1-5-5-9v20V1665z"></path>
	<path class="st1" d="M1116,1309c0-4-2-5-6-6c-4,5-3,3-2,10C1113,1313,1116,1315,1116,1309z"></path>
	<path class="st8" d="M1358,978c5-11,10-15,15-23C1364,960,1358,968,1358,978z"></path>
	<path class="st11" d="M1514,1640c2-2,0,0,3-4l4-6c-6,0-3,0-7-1c-5-2,2-1-6-3C1512,1633,1513,1631,1514,1640z"></path>
	<polygon class="st11" points="1069,1594 1064,1586 1054,1597  "></polygon>
	<path class="st9" d="M1490,1599c9,1,5,1,14,3c-4-7-6-3-7-12c-2,2-2,1-4,4C1490,1597,1493,1594,1490,1599z"></path>
	<path class="st11" d="M1530,1609l10-4l-5-9C1529,1604,1533,1603,1530,1609z"></path>
	<path class="st11" d="M1494,1543c6-6,7-9,9-17c-5,7-10,10-11,11l-2-11l3,13c2,5,1-3,1,5V1543z"></path>
	<path class="st9" d="M1342,1529c7-2,8-7,10-13C1343,1518,1344,1520,1342,1529z"></path>
	<path class="st11" d="M1022,1599c0,0,1,0,1,1s3,1,3,1c2,1,3,1,5,2l-4-11c0-1-1-1-1-2L1022,1599z"></path>
	
		<radialGradient id="SVGID_00000076605096886385086620000007735497462325358721_" cx="0" cy="2502" r="1" gradientTransform="matrix(113.2362 0 0 -92.3307 1078.3069 232336.2031)" gradientUnits="userSpaceOnUse">
		<stop offset="0" style="stop-color:#CFFE00"></stop>
		<stop offset="1" style="stop-color:#6D8603"></stop>
	</radialGradient>
	<path style="fill-rule:evenodd;clip-rule:evenodd;fill:url(#SVGID_00000076605096886385086620000007735497462325358721_);" d="   M1166,1342l-2-4l-4-4c-10-5-10-9-21-12c-3-5-6-6-13-9c-6,9-16,7-27,4c-1-4-7-7-11-10s-8-7-11-9c-4-15,0-9,2-22c-5-6-5-3-9-11   c-3-5-1-3-8-6l-14,6c-14,75,55,112,117,77H1166z"></path>
	<path d="M1166,1342l2.2-1.1l-2.2-4.4l-4.6-4.6l-0.4-0.2c-4.8-2.4-7-4.4-9.7-6.5c-1.4-1-2.9-2.1-4.7-3c-1.9-1-4.1-1.8-7-2.6   l-0.7,2.4l2.1-1.3c-0.8-1.4-1.7-2.5-2.7-3.5c-1.4-1.5-3.1-2.6-4.9-3.5c-1.9-1-4-1.8-6.6-2.9l-1.9-0.8l-1.2,1.7   c-1.4,2.1-3,3.4-4.7,4.2c-1.7,0.8-3.7,1.2-6.1,1.2c-3.9,0-8.5-1.1-13.5-2.4l-0.7,2.4l2.4-0.6c-0.4-1.5-1.2-2.8-2.1-3.9   c-1.4-1.6-3.2-2.9-4.9-4.2c-1.8-1.2-3.5-2.3-4.9-3.4c-1.9-1.4-3.9-3.1-5.7-4.8c-1.9-1.6-3.7-3.2-5.4-4.3l-1.4,2.1l2.4-0.6   c-1.2-4.6-1.6-7.1-1.6-8.4c0-0.8,0.1-1.2,0.2-1.6c0.1-0.4,0.3-0.8,0.6-1.3c0.4-0.8,0.9-1.9,1.4-3.5c0.5-1.5,1-3.5,1.4-6.1l0.2-1.1   l-0.7-0.9c-1.3-1.6-2.3-2.6-3.2-3.4c-0.6-0.6-1.2-1-1.6-1.3c-0.6-0.5-0.9-0.8-1.5-1.6c-0.6-0.8-1.3-2-2.4-4.2l0-0.1l0-0.1   c-0.7-1.2-1.1-2-1.5-2.6c-0.2-0.3-0.3-0.5-0.5-0.7c-0.3-0.4-0.8-0.9-1.3-1.2c-0.4-0.2-0.7-0.4-1.1-0.5c-0.5-0.2-1.1-0.4-1.8-0.7   c-0.7-0.3-1.7-0.6-2.9-1.2l-1-0.4l-16.2,6.9l-0.2,1.3c-1.3,6.8-1.9,13.3-1.9,19.5c0,22.8,8.2,41.3,21.6,54.1   c13.4,12.8,31.7,19.7,51.7,19.7c15.9,0,32.8-4.4,49.2-13.6l-1.2-2.2v2.5h1h4l-1.8-3.6L1166,1342v-2.5h-1h-0.7l-0.6,0.3   c-15.7,8.9-31.8,13-46.8,13c-18.9,0-35.9-6.5-48.3-18.3c-12.3-11.8-20-28.9-20.1-50.5c0-5.9,0.6-12.1,1.8-18.6l-2.5-0.5l1,2.3l14-6   l-1-2.3l-1,2.3c1.8,0.8,3.1,1.2,3.9,1.5c0.6,0.2,1,0.4,1.1,0.5l0.1,0l0.1-0.2l-0.2,0.2l0,0l0.1-0.2l-0.2,0.2l0,0   c0,0,0.2,0.3,0.5,0.8c0.3,0.5,0.7,1.2,1.3,2.2l2.1-1.3l-2.2,1.1c1,2.1,1.8,3.5,2.6,4.5c0.6,0.8,1.1,1.5,1.6,2   c0.4,0.4,0.8,0.7,1.1,1c0.5,0.4,1,0.8,1.6,1.4c0.6,0.6,1.4,1.4,2.4,2.6l1.9-1.6l-2.5-0.4c-0.3,2.1-0.7,3.7-1.1,4.9   c-0.6,1.8-1.1,2.7-1.6,3.9c-0.3,0.6-0.5,1.2-0.7,2c-0.2,0.8-0.3,1.6-0.3,2.5c0,2.2,0.5,5,1.8,9.7l0.2,0.9l0.8,0.5   c1.3,0.9,3,2.3,4.9,3.9c1.9,1.6,3.9,3.4,6,5c2.2,1.6,4.6,3.1,6.6,4.6c1,0.7,1.8,1.5,2.4,2.2c0.6,0.7,0.9,1.3,1,1.8l0.4,1.4l1.4,0.4   c5.1,1.4,10.1,2.6,14.8,2.6c2.8,0,5.6-0.5,8.2-1.7c2.6-1.2,4.9-3.2,6.7-6l-2.1-1.4l-1,2.3c3.5,1.5,6,2.5,7.7,3.6   c0.9,0.5,1.6,1.1,2.2,1.8c0.7,0.7,1.3,1.5,2,2.6l0.5,0.9l1,0.3c2.6,0.7,4.5,1.5,6,2.2c1.1,0.6,2.1,1.2,3,1.9c1.4,1,2.8,2.2,4.6,3.5   c1.8,1.3,3.9,2.7,6.9,4.2l1.1-2.2l-1.8,1.8l3.7,3.7l1.8,3.6L1166,1342v-2.5V1342z"></path>
	<path class="st9" d="M1041,1625c3,7-1-1,1,3c2,3,1,2,3,4c1-6,2-5,4-11l-9,3L1041,1625z"></path>
	<path class="st10" d="M1510,1260c0-1-2-3-2-3c-3-9,1,8-1-3l-8,2c2,1,1,2,4,3C1508,1261,1503,1259,1510,1260z"></path>
	<path class="st13" d="M1101,1766l-6-13c-2,3-3-4-2,7l7,7L1101,1766z"></path>
	<path class="st10" d="M1526,1619c8-3,4-1,6-8C1525,1614,1526,1608,1526,1619z"></path>
	<path class="st10" d="M993,1505l7-6c-5-1-3-2-7-1s-3,1-5,3l8-1l-2,5H993z"></path>
	<path class="st9" d="M1209,1517c-6-1-1,1-6-2c1,5,0,2,3,5c4,5,2-1,4,5L1209,1517z"></path>
	<path class="st11" d="M1496,1609l-4-4c-5-7,2,8-1-3c-3,2-3-4-3,5l7,3L1496,1609z"></path>
	<path class="st14" d="M1720,1362c-6,0,0,1-5-1c0,0-1,0-1-1s-1-1-1-1l2,8L1720,1362z"></path>
	<path class="st5" d="M1034,1613c-1-10,2-4-5-8C1031,1612,1029,1608,1034,1613z"></path>
	<path class="st11" d="M1099,1286l-8-8c1,5-1,2,3,6C1095,1285,1097,1286,1099,1286z"></path>
	<path class="st9" d="M1065,1609l5,1c0,0,1-1,2-1c-1,0-1-2-2-1h-3C1067,1608,1066,1609,1065,1609z"></path>
	<path class="st9" d="M1050,1694l-8-12C1045,1689,1045,1688,1050,1694z"></path>
	<path class="st9" d="M986,1591l-12-13L986,1591z"></path>
	<path class="st14" d="M1140,1815l-7-7L1140,1815z"></path>
	
		<radialGradient id="SVGID_00000127740864599386164710000016824907779154421926_" cx="0" cy="2502" r="1" gradientTransform="matrix(-113.2362 0 0 -92.3307 1424.8656 232335)" gradientUnits="userSpaceOnUse">
		<stop offset="0" style="stop-color:#CFFE00"></stop>
		<stop offset="1" style="stop-color:#6D8603"></stop>
	</radialGradient>
	<path style="fill-rule:evenodd;clip-rule:evenodd;fill:url(#SVGID_00000127740864599386164710000016824907779154421926_);" d="   M1394,1341l2-4l4-4c11-5,19-18,30-22c6,9,20,8,31,5c1-4,7-7,11-10s6-9,10-11c4-15-5-10-7-23c5-6,7-2,11-11c3-5,5-1,12-4l14,6   c14,75-55,112-117,77L1394,1341z"></path>
	<path d="M1394,1341l2.2,1.1l1.8-3.6l3.7-3.7l-1.8-1.8l1,2.3c3-1.4,5.7-3.2,8.3-5.3c3.8-3.1,7.4-6.6,10.9-9.7   c3.5-3.1,7-5.6,10.6-6.9l-0.9-2.3l-2.1,1.4c2.1,3.1,5,5.2,8.3,6.5c3.3,1.3,6.8,1.7,10.5,1.7c5.1,0,10.3-0.9,15-2.2l1.4-0.4l0.4-1.4   c0.1-0.5,0.4-1.1,1-1.8c0.9-1,2.3-2.2,4-3.3c1.6-1.1,3.4-2.3,5-3.5c1.2-0.9,2.2-2,3.1-3.1c1.3-1.7,2.4-3.4,3.5-4.8   c0.5-0.7,1-1.3,1.5-1.8c0.5-0.5,1-0.8,1.5-1.1l1-0.5l0.3-1.1c0.7-2.8,1.1-5,1.1-7c0-1.1-0.1-2.1-0.4-3c-0.4-1.6-1.2-2.9-2-3.9   c-0.6-0.8-1.2-1.4-1.8-2c-0.9-0.9-1.6-1.8-2.3-3c-0.7-1.2-1.3-2.8-1.6-5.2l-2.5,0.4l1.9,1.6c1.1-1.3,2-2,2.7-2.5   c0.6-0.4,1.1-0.6,1.8-0.9c0.5-0.2,1-0.5,1.6-0.9c0.9-0.6,1.8-1.4,2.7-2.6c0.9-1.2,1.7-2.6,2.6-4.7l-2.3-1l2.1,1.3   c0.3-0.5,0.6-0.8,0.8-1.1c0.3-0.3,0.4-0.3,0.6-0.4c0.2-0.1,0.5-0.1,1-0.1c0.4,0,0.9,0,1.4,0c0.8,0,1.9,0,3.1-0.2   c1.2-0.2,2.5-0.6,4-1.2l-1-2.3l-1,2.3l14,6l1-2.3l-2.5,0.5c1.2,6.5,1.8,12.7,1.8,18.6c0,21.6-7.7,38.7-20.1,50.5   c-12.3,11.8-29.4,18.3-48.3,18.3c-15,0-31.1-4.1-46.8-13l-1.7-0.9l-2.3,2.3L1394,1341l2.2,1.1L1394,1341l1.8,1.8l1-1l-1.8-1.8   l-1.2,2.2c16.4,9.3,33.3,13.6,49.2,13.6c20,0,38.4-6.9,51.7-19.7c13.4-12.7,21.6-31.3,21.6-54.1c0-6.2-0.6-12.7-1.9-19.5l-0.2-1.3   l-16.2-6.9l-1,0.4c-1.1,0.5-2.1,0.7-2.9,0.9c-0.8,0.1-1.5,0.2-2.2,0.2c-0.5,0-0.9,0-1.4,0c-0.5,0-1,0-1.6,0.1   c-0.9,0.1-1.9,0.5-2.8,1.2c-0.9,0.7-1.6,1.6-2.2,2.7l-0.1,0.1l-0.1,0.1c-0.9,2.1-1.7,3.4-2.3,4.1c-0.5,0.5-0.8,0.8-1.2,1.1   c-0.3,0.2-0.7,0.4-1.1,0.6c-0.7,0.3-1.6,0.8-2.6,1.5c-1,0.7-2.1,1.7-3.3,3.1l-0.7,0.9l0.2,1.1c0.4,2.9,1.2,5.1,2.2,6.9   c0.7,1.3,1.6,2.3,2.3,3.2c0.6,0.6,1.1,1.2,1.5,1.6c0.7,0.7,1.1,1.3,1.4,1.9c0.3,0.6,0.5,1.4,0.5,2.7c0,1.3-0.3,3.1-0.9,5.7l2.4,0.6   l-1.1-2.2c-1.4,0.7-2.5,1.7-3.4,2.7c-1.4,1.6-2.5,3.3-3.6,4.8c-1.1,1.5-2.2,2.9-3.3,3.7c-1.8,1.4-4.4,2.9-6.6,4.6   c-1.1,0.9-2.2,1.8-3.2,2.9c-0.9,1.1-1.7,2.3-2.1,3.9l2.4,0.6l-0.7-2.4c-4.4,1.2-9.2,2-13.7,2c-3.2,0-6.2-0.4-8.7-1.4   c-2.5-1-4.5-2.4-5.9-4.6l-1.1-1.6l-1.8,0.7c-3.1,1.1-5.8,2.8-8.4,4.8c-3.9,2.9-7.4,6.4-11,9.6c-3.5,3.2-7.1,6-10.8,7.7l-0.4,0.2   l-4.6,4.6l-9.1,18.1l10.9-10.9L1394,1341z"></path>
</g>
</svg>
