<?xml version="1.0" encoding="utf-8"?>
<!-- Generator: Adobe Illustrator 27.5.0, SVG Export Plug-In . SVG Version: 6.00 Build 0)  -->
<svg version="1.1" id="Layer_1" xmlns="http://www.w3.org/2000/svg" xmlns:xlink="http://www.w3.org/1999/xlink" x="0px" y="0px"
	 viewBox="0 0 500 500" style="enable-background:new 0 0 500 500;" xml:space="preserve">
<style type="text/css">
	.st0{fill:#FFFFFF;}
	.st1{fill:#3CBCA1;}
	.st2{fill:#3FADE2;}
</style>
<circle class="st0" cx="249.9" cy="249.5" r="250"/>
<path class="st1" d="M203.9,185.2h127.4c14.8,0,29.2,2.4,42.6,6.9c0.6-72.4-58.4-130.9-131.5-130.9H114.8C95.1,61.2,79,77.4,79,97.1
	V285c0,19.9,16.2,35.9,35.9,35.9h53v-99.8C167.9,201.2,184,185.2,203.9,185.2z"/>
<path class="st2" d="M373.9,192.1c0,1.6,0,3.2,0,4.5c-3,69-59.9,124.2-129.7,124.2h-76.1V409c0,19.9,16.2,35.9,35.9,35.9h129.1
	c69.8,0,126.8-55,129.7-124.2C465.2,260.9,427.3,210.1,373.9,192.1L373.9,192.1z"/>
</svg>
