<?xml version="1.0" encoding="utf-8"?>
<!-- Generator: Adobe Illustrator 26.0.3, SVG Export Plug-In . SVG Version: 6.00 Build 0)  -->
<svg version="1.0" id="katman_1" xmlns="http://www.w3.org/2000/svg" xmlns:xlink="http://www.w3.org/1999/xlink" x="0px" y="0px"
	 viewBox="0 0 800 600" style="enable-background:new 0 0 800 600;" xml:space="preserve">
<style type="text/css">
	.st0{fill:#00CBA8;}
	.st1{fill:#0DB1F9;}
	.st2{fill:#142654;}
</style>
<path class="st0" d="M148.7,265.2h64.6c7.5,0,14.8,1.2,21.6,3.5c0.3-36.7-29.6-66.4-66.7-66.4h-64.7c-10,0-18.2,8.2-18.2,18.2v95.3
	c0,10.1,8.2,18.2,18.2,18.2h26.9v-50.6C130.4,273.3,138.6,265.2,148.7,265.2z"/>
<path class="st1" d="M234.9,268.7c0,0.8,0,1.6,0,2.3c-1.5,35-30.4,63-65.8,63h-38.6v44.7c0,10.1,8.2,18.2,18.2,18.2h65.5
	c35.4,0,64.3-27.9,65.8-63C281.2,303.6,262,277.8,234.9,268.7L234.9,268.7z"/>
<path class="st2" d="M375.8,265.4c-11.8-0.5-22.7,3.2-31.3,9.7v-18.6c0-10.6-8.6-19.2-19.2-19.2v76.2c0,15.7,7.5,29.6,19.2,38.4
	c8.1,6.1,18.2,9.8,29.1,9.8c27.3,0,49.4-22.9,48.2-50.5C420.6,286.6,400.5,266.6,375.8,265.4L375.8,265.4z M403.1,313.6
	c0,16.3-13.2,29.5-29.5,29.5c-0.5,0-1,0-1.5,0c-0.1,0-0.3,0-0.4,0c-0.3,0-0.6,0-1-0.1c-0.2,0-0.3,0-0.5,0c-0.3,0-0.6,0-0.9-0.1
	c-0.2,0-0.4,0-0.6-0.1c-0.3,0-0.5-0.1-0.8-0.1c-0.2,0-0.4-0.1-0.6-0.1c-0.2,0-0.5-0.1-0.8-0.2l-0.6-0.1c-0.2,0-0.5-0.1-0.8-0.2
	c-0.2,0-0.4-0.1-0.5-0.1c-0.3-0.1-0.5-0.2-0.8-0.3c-0.1,0-0.3-0.1-0.5-0.2c-0.4-0.1-0.7-0.3-1.1-0.4c-0.2-0.1-0.4-0.2-0.6-0.2
	c-0.2-0.1-0.5-0.2-0.8-0.3l-0.6-0.3l-0.6-0.3c-0.2-0.1-0.4-0.2-0.6-0.3c-0.2-0.1-0.3-0.2-0.5-0.3c-0.2-0.1-0.4-0.2-0.6-0.4
	c-0.1-0.1-0.3-0.2-0.5-0.3c-0.2-0.1-0.4-0.3-0.6-0.4l-0.4-0.3c-0.2-0.1-0.4-0.3-0.7-0.5c-0.1-0.1-0.2-0.2-0.3-0.3
	c-0.2-0.2-0.5-0.4-0.7-0.6c0,0-0.1-0.1-0.2-0.1c-1.2-1-2.3-2.1-3.3-3.3c0,0,0-0.1-0.1-0.1c-0.2-0.3-0.5-0.6-0.7-0.8l-0.1-0.1
	c-0.2-0.3-0.4-0.6-0.6-0.9c0,0-0.1-0.1-0.1-0.1c-0.2-0.3-0.4-0.6-0.6-0.9c0,0,0,0,0-0.1c-1.6-2.4-2.8-5.2-3.6-8
	c-0.1-0.4-0.2-0.8-0.3-1.2v0c-0.2-0.8-0.3-1.7-0.5-2.6v0l-0.1-1.3v-0.3c0-0.3,0-0.7-0.1-1c0-0.4,0-0.9,0-1.4v-0.1c0-0.4,0-0.9,0-1.4
	c0-0.3,0-0.7,0.1-1v-0.3l0.1-1.3c0.1-0.9,0.3-1.8,0.5-2.6v0c0.1-0.4,0.2-0.8,0.3-1.2c0.8-2.9,2-5.6,3.6-8c0,0,0,0,0-0.1
	c0.2-0.3,0.4-0.6,0.6-0.9c0,0,0-0.1,0.1-0.1c0.2-0.3,0.4-0.6,0.6-0.9c0,0,0.1-0.1,0.1-0.1c0.2-0.3,0.4-0.6,0.7-0.9l0.1-0.1
	c1-1.2,2.1-2.3,3.4-3.4l0.1-0.1l0.7-0.6c0.1-0.1,0.2-0.2,0.3-0.2c0.2-0.1,0.4-0.3,0.7-0.5l0.4-0.3c0.2-0.1,0.4-0.3,0.6-0.4
	c0.1-0.1,0.3-0.2,0.5-0.3c0.2-0.1,0.4-0.3,0.6-0.4s0.3-0.2,0.5-0.3c0.2-0.1,0.4-0.2,0.6-0.3l0.6-0.3c0.2-0.1,0.4-0.2,0.6-0.3
	c0.2-0.1,0.5-0.2,0.7-0.3l0.7-0.3c0.3-0.1,0.7-0.3,1-0.4c0.2,0,0.3-0.1,0.5-0.2c0.2-0.1,0.5-0.2,0.8-0.2l0.6-0.1
	c0.2-0.1,0.5-0.1,0.8-0.2l0.6-0.1c0.2,0,0.5-0.1,0.8-0.2c0.2,0,0.4-0.1,0.6-0.1c0.2,0,0.5-0.1,0.8-0.1c0.2,0,0.4,0,0.6-0.1
	c0.3,0,0.5-0.1,0.8-0.1c0.2,0,0.4,0,0.6,0c0.3,0,0.6,0,0.9,0c0.1,0,0.3,0,0.5,0c0.5,0,0.9,0,1.4,0h0
	C389.8,284,403.1,297.3,403.1,313.6L403.1,313.6z M545,342.6c0,10.6,8.6,19.2,19.2,19.2V237.3H545V342.6z M583.8,342.6
	c0,10.6,8.6,19.2,19.2,19.2V237.3h-19.2V342.6z M695.2,275.1c-8.7-6.6-19.6-10.3-31.3-9.7c-24.7,1.2-44.7,21.2-45.9,45.9
	c-1.3,27.6,20.8,50.5,48.2,50.5c10.9,0,21-3.6,29.1-9.8c0,5.4,4.4,9.8,9.8,9.8h9.4v-48.2C714.3,297.9,706.8,283.9,695.2,275.1
	L695.2,275.1z M695.2,319c-2.5,13.7-14.6,24.1-29.1,24.1c-16.3,0-29.5-13.2-29.5-29.5s13.2-29.5,29.5-29.5
	c14.5,0,26.5,10.4,29.1,24.1c0.3,1.8,0.5,3.6,0.5,5.4S695.5,317.2,695.2,319L695.2,319z M481.3,343.1c-13.4,0-24.8-9.1-28.4-21.4
	h74.5c0.8,0,1.6-0.7,1.7-1.5c0.3-2.2,0.5-4.5,0.5-6.8c0-3.1-0.3-6.1-0.8-9c-4.2-22.3-23.8-39.2-47.3-39.2
	c-23.5,0-43.2,16.9-47.3,39.2c-0.5,2.9-0.8,5.9-0.8,9c0,2.8,0.2,5.5,0.7,8.2c3.9,22.7,23.7,40,47.5,40c18.5,0,34.6-10.5,42.7-25.9
	c0.4-0.9-0.2-1.9-1.2-1.9h-19.4c-0.5,0-1,0.2-1.4,0.6C496.8,339.9,489.4,343.1,481.3,343.1z M481.3,284c13.2,0,24.3,8.7,28.2,20.6
	h-56.4C457,292.7,468.1,284,481.3,284L481.3,284z"/>
</svg>
