<?xml version="1.0" encoding="utf-8"?>
<!-- Generator: Adobe Illustrator 22.0.1, SVG Export Plug-In . SVG Version: 6.00 Build 0)  -->
<svg version="1.1" id="Layer_1" xmlns="http://www.w3.org/2000/svg" xmlns:xlink="http://www.w3.org/1999/xlink" x="0px" y="0px"
	 viewBox="0 0 1024 1024" style="enable-background:new 0 0 1024 1024;" xml:space="preserve">
<style type="text/css">
	.st0{fill:#F0F0F8;}
	.st1{fill:#FEB830;}
	.st2{fill:#FEFEFE;}
	.st3{fill:#FCBF44;}
	.st4{fill:#253A45;}
	.st5{fill:#FDF0D7;}
</style>
<g>
	<path class="st0" d="M834,482c0,21,0,42,0,63c-1.8,0.2-1.9,1.5-2,2.9c-0.5,9.8-2.3,19.4-4.2,28.9c-8.3,40.3-23.5,77.8-46.2,112.2
		c-19.2,29.1-42.6,54.2-69.8,75.9c-31.7,25.3-67,43.5-105.7,55.4c-9.5,2.9-19,6-29,6.6c5.4-14.8,10.8-29.6,16.2-44.4
		c20.7-6.9,40.7-15.1,59.7-26c32.4-18.6,60.1-42.5,82.8-72.1c24.7-32.3,42-68.3,51.1-108.1c4.5-19.8,7-39.8,7.3-60
		c0.2-16.6-1.2-33.1-3.9-49.5c-4.2-25-11.5-49-22.2-72.1c-5.1-11-11.3-21.4-17-32.1c5.5-14.6,11-29.1,16.5-43.7
		c1.5,0.2,2.4,1.1,3.2,2.2c4.2,6,8.6,11.8,12.5,18c16.6,26.1,29.6,53.8,38.1,83.5c5.2,18.3,9.3,36.9,10.9,55.9
		C832.1,480.1,831.9,481.7,834,482z"/>
	<path class="st0" d="M192,545c0-21,0-42,0-63c1.4-0.2,2-1,2-2.4c-0.2-3,0.6-5.9,0.9-8.9c2.2-19.3,6.7-38.1,12.6-56.6
		c8-24.9,18.8-48.6,32.9-70.6c5.4-8.5,10.5-17.3,17.6-24.6c5.8,14.4,11.3,28.9,16.3,43.6c-0.1,1.7-0.5,3.3-1.4,4.7
		c-8.9,14.7-16.4,30-22.5,46c-10.7,28-16.5,57-18.1,86.7c-1,17.7,0.2,35.5,2.8,53.1c4.4,30.7,13.5,59.9,27.6,87.4
		c17.7,34.3,41.1,64.1,71.2,88.7c29.4,24.1,62.2,41.8,98.6,52.8c0,0.5,0.2,0.9,0.8,0.9l-0.1,0c-0.5,2.1,0.7,3.9,1.4,5.7
		c4.7,12.7,9.4,25.4,14.1,38.2c-1.7-0.1-3.4,0.2-4.9-0.2c-54.1-12.2-102.1-36.5-143.5-73.3c-20.4-18.1-38.6-38.4-53.7-61.3
		c-13.1-19.8-24.1-40.6-32.6-62.7c-9.3-23.9-15.7-48.5-18.9-74C194.3,552,196.2,547.5,192,545z"/>
	<path class="st0" d="M368,226.9c16.1-9,33.4-15.3,50.9-20.9c15.2-4.8,30.7-7.9,46.4-10.6c4.2-0.7,8.5-1,12.8-1.4
		c1.6-0.2,3.5,0.4,3.9-2c21,0,42,0,63,0c2.8,3.8,7.2,2.3,10.8,2.8c22.5,3.1,44.5,8.4,65.9,16c10.6,3.8,21,8.1,31.1,13.1
		c1.6,0.8,3.5,1.3,4.3,3.2c-5.5,11.7-9.2,24.1-14.2,35.9c-2-0.7-4.2-1.2-6.1-2.2c-19.2-9.9-39.4-16.6-60.4-21.6
		c-19.7-4.6-39.7-7-60-7.3c-15-0.2-29.8,0.9-44.6,3.1c-23.4,3.5-46,9.9-67.9,18.9c-7.1,2.9-13.4,7.4-21,9.1c-0.7-1.5-1.3-3-2-4.5
		C376.5,248,373.7,236.9,368,226.9z"/>
	<path class="st1" d="M489,834c-6.6-2.4-13.6-1.6-20.3-3c-6.7-1.4-13.8-1.2-20.2-4.2c-4.7-12.7-9.4-25.4-14.1-38.2
		c-0.7-1.8-1.9-3.6-1.4-5.7c2.7-0.2,5.2,0.9,7.8,1.6c33.8,8.8,68,11.5,102.7,7.7c16.9-1.8,33.4-5.5,49.8-9.7
		c-5.4,14.8-10.8,29.6-16.2,44.4c-8.9,3.1-18.4,3.5-27.6,5c-4.5,0.7-9.1,0-13.4,2C520.3,834,504.7,834,489,834z"/>
	<path class="st2" d="M593.2,782.6c-16.4,4.1-32.9,7.9-49.8,9.7c-34.8,3.7-68.9,1-102.7-7.7c-2.6-0.7-5-1.8-7.8-1.6c0,0,0.1,0,0.1,0
		c-0.3-0.3-0.5-0.6-0.8-0.9c-36.4-11-69.1-28.7-98.6-52.8c-30-24.6-53.4-54.5-71.2-88.7c-14.2-27.5-23.2-56.7-27.6-87.4
		c-2.5-17.6-3.7-35.4-2.8-53.1c1.6-29.8,7.4-58.8,18.1-86.7c6.1-16,13.7-31.3,22.5-46c0.9-1.5,1.3-3.1,1.4-4.7
		c2.6,0.4,2.8-2.1,3.6-3.4c26-39.5,59.8-70.5,101.2-93.3c1.4-0.8,3.2-1.2,3.9-2.9c7.6-1.7,13.9-6.2,21-9.1
		c21.9-9,44.5-15.4,67.9-18.9c14.8-2.2,29.6-3.3,44.6-3.1c20.3,0.3,40.3,2.7,60,7.3c20.9,4.9,41.2,11.7,60.4,21.6
		c1.9,1,4,1.5,6.1,2.2c0.7,1.5,2.2,1.9,3.5,2.6c13.4,7.3,26.2,15.5,38.2,24.9c13.2,10.3,25.5,21.6,36.8,34
		c10.9,11.9,20.2,25.1,29.6,38.2c5.7,10.7,11.9,21.1,17,32.1c10.7,23,18,47,22.2,72.1c2.7,16.4,4.1,32.9,3.9,49.5
		c-0.2,20.3-2.7,40.3-7.3,60c-9.1,39.8-26.3,75.8-51.1,108.1c-22.7,29.6-50.4,53.5-82.8,72.1C633.9,767.6,613.9,775.8,593.2,782.6z
		 M434.9,385.3c-0.1-1,0-2-0.3-2.9c-4.1-11-8.6-22-12.4-33.1c-6.6-19.1-22.8-34.7-48.5-32.3c-12.9,1.2-23,7.1-30.7,17.2
		c-11.4,15-11,31.1-4.4,48.1c11.9,30.7,23.2,61.5,34.8,92.3c10.7,28.4,21.5,56.8,32,85.3c4.4,11.8,9.4,23.4,12.9,35.6
		c-3.7,4.9-8.7,4.2-13.6,3.1c-5.8-1.3-11.6-2.8-17.4-4.5c-3.5-1-5.4-0.9-7,3.2c-3.7,9.8-8,19.3-12.4,28.8c-1.7,3.7-1,4.8,2.8,5.7
		c19,4.6,38,9.5,57,14.1c3.5,0.9,4.3,2,3.3,5.6c-4.1,15.2-7.7,30.6-11.6,45.9c-0.8,2.9-0.7,4.4,2.8,5.2c8.4,1.8,16.8,4,25.1,6.3
		c3.2,0.9,4.4,0,5-3.3c0.8-4.2,2.2-8.3,3.4-12.5c5.4,15.7,10.5,31.5,17.8,46.4c7.9,16,21.6,24.1,39.2,24.2
		c17.9,0.1,31.8-8,39.8-24.1c7.8-15.8,12.8-32.7,19.1-49.1c2-5.2,4.7-10.3,5.4-15.9c1.3-0.2,2.6-0.5,3.9-0.7
		c23.4-2.7,41.4-13.5,52.6-34.8c6.4-12.2,10.4-25.2,11.2-39c1.1-19-7.1-33.7-21.6-45.4c0.8-5.6,4.3-10.3,5-15.9
		c10.1-7.5,16.9-17.2,20.5-29.3c3.1-10.7,4-21.6,2.3-32.6c1.4-0.9,1.7-2.3,2.3-3.7c3.3-8.9,6.7-17.7,10-26.6
		c9-23.9,18.3-47.8,26.7-71.9c5.9-17,1.6-32.4-10.8-45.4c-9.8-10.2-22-13.4-35.9-12.6c-14.7,0.9-25.6,8.2-33.2,19.9
		c-6.3,9.6-9.2,20.9-12.9,31.7c-9-2.2-18.1-4.2-27.1-6.7c-3.3-0.9-4.2-0.2-4.9,3c-3.5,14.9-7.4,29.7-11,44.6c-0.7,3-1.7,4-5,3
		c-6-1.8-12.2-3.2-18.4-4.4c-3.1-0.6-3.7-1.5-2.9-4.6c3.9-14.8,7.4-29.7,11.3-44.5c0.9-3.3,0.6-4.9-3.3-5.7
		c-8-1.6-15.9-3.6-23.7-5.9c-3.7-1-5.1-0.6-6.1,3.5c-3.5,15.2-7.5,30.3-11.3,45.5c-0.4,1.7-0.2,4-3.6,3.1
		C472.3,394.7,453.6,390,434.9,385.3z"/>
	<path class="st3" d="M750.9,362.7c-9.4-13.1-18.6-26.3-29.6-38.2c-11.3-12.4-23.6-23.7-36.8-34c-12-9.4-24.8-17.6-38.2-24.9
		c-1.3-0.7-2.8-1.1-3.5-2.6c5-11.9,8.7-24.3,14.2-35.9c6.7,1.1,12,5.3,17.7,8.6c11.6,6.7,22.7,14.1,33.3,22.3
		c20.9,16.1,39.6,34.4,56.1,55c1.4,1.8,3.3,3.4,3.3,6C761.9,333.5,756.4,348.1,750.9,362.7z"/>
	<path class="st1" d="M382.9,263c-0.7,1.8-2.4,2.2-3.9,2.9c-41.4,22.7-75.2,53.8-101.2,93.3c-0.9,1.3-1,3.8-3.6,3.4
		c-4.9-14.7-10.5-29.2-16.3-43.6c1.5-4,4.6-6.9,7.2-10c27.5-33.2,60.2-60,98.4-80.1c1.5-0.8,3-1.3,4.5-2c5.7,10,8.5,21.2,12.9,31.7
		C381.6,260.1,382.3,261.5,382.9,263z"/>
	<path class="st1" d="M432.3,782.1c0.3,0.3,0.5,0.6,0.8,0.9C432.4,783.1,432.3,782.6,432.3,782.1z"/>
	<path class="st4" d="M455.7,693.2c-1.2,4.1-2.6,8.2-3.4,12.5c-0.6,3.3-1.8,4.1-5,3.3c-8.3-2.3-16.7-4.4-25.1-6.3
		c-3.5-0.8-3.6-2.3-2.8-5.2c3.9-15.3,7.6-30.6,11.6-45.9c1-3.6,0.2-4.8-3.3-5.6c-19-4.6-38-9.6-57-14.1c-3.9-0.9-4.6-2-2.8-5.7
		c4.4-9.5,8.7-19,12.4-28.8c1.5-4,3.5-4.2,7-3.2c5.7,1.7,11.5,3.2,17.4,4.5c4.9,1.1,10,1.7,13.6-3.1c2.3-1.9,3-4.7,3.7-7.4
		c8.6-34.4,17.3-68.8,25.7-103.3c3.3-13.3,7.3-26.5,9.5-40.1c1.9-5.6-0.1-10.2-4-14.2c-2.4-3-5.8-4.4-9.3-5.4
		c-7.1-1.9-14.2-3.6-21.3-5.3c-2.7-0.6-3.9-1.3-2.9-4.6c2.3-7.8,4-15.8,6-23.7c1.8-7.3,1.9-7.3,9.3-6.2c18.7,4.7,37.4,9.4,56,14.3
		c3.4,0.9,3.1-1.4,3.6-3.1c3.8-15.1,7.8-30.3,11.3-45.5c0.9-4.1,2.4-4.5,6.1-3.5c7.8,2.2,15.7,4.2,23.7,5.9c3.8,0.8,4.1,2.4,3.3,5.7
		c-3.9,14.8-7.4,29.7-11.3,44.5c-0.8,3.1-0.2,4,2.9,4.6c6.2,1.2,12.4,2.6,18.4,4.4c3.3,1,4.3,0,5-3c3.6-14.9,7.5-29.7,11-44.6
		c0.8-3.2,1.7-3.9,4.9-3c9,2.5,18.1,4.5,27.1,6.7c2.8,1.4,1.1,3.5,0.7,5.1c-3.6,14.8-7.2,29.7-11.1,44.4c-1.1,4-0.1,5.5,3.6,6.7
		c9.5,3.1,18.5,7.3,27.2,12.2c16,9.3,28.6,21.5,33.6,40c1.6,11,0.8,21.9-2.3,32.6c-3.5,12.1-10.3,21.8-20.5,29.3
		c-5.7,2.9-11.4,5.8-18.3,7.4c4.8,3,9,5.8,13.3,8.5c14.5,11.6,22.7,26.4,21.6,45.4c-0.8,13.8-4.8,26.8-11.2,39
		c-11.1,21.2-29.2,32-52.6,34.8c-1.3,0.2-2.6,0.4-3.9,0.7c-16.7,0.9-33.2-0.9-49.6-3.9c-3-0.6-3.9,0-4.6,3
		c-3.7,15.7-7.8,31.2-11.6,46.9c-0.7,3-1.7,3.8-4.7,2.9c-8-2.2-16-4.3-24.2-6c-4.1-0.8-4.9-2.2-3.8-6.3c4-14.7,7.6-29.6,11.2-44.4
		c0.5-1.9,1.9-4.1-1.8-5c-7-1.6-13.9-3.4-20.7-5.4c-1.9-0.5-2.7-0.1-3.1,1.8C461.3,670,458.5,681.6,455.7,693.2z M539.9,519.3
		c8.5,1.5,16.9,1.3,25.2-0.9c11.1-2.8,18.3-9.6,21-21c2.7-11.5-0.4-21-9-28.8c-4.5-4-9.5-7.3-15.1-9.4c-13.2-6.6-27.7-9.2-41.9-12.7
		c-2.2-0.5-2.6,0.5-3,2.1c-5,20-10,40-15,60c-0.5,2-0.1,3,2.2,3.5C516.1,515,527.7,518.6,539.9,519.3z M527,553.1
		c-10.1-3.6-20.6-5.6-31-7.9c-2.6-1.2-3.1,0.5-3.5,2.4c-5.4,21.8-10.9,43.5-16.3,65.3c-0.6,2.5-0.4,3.8,2.6,4.5
		c8.8,1.9,17.4,4.5,26.2,6.3c14.9,3,29.9,5.2,45.1,2.3c12.7-2.4,22.2-8.8,25.8-21.9c3.7-13.5-0.7-24.6-11.3-33.3
		C553.5,561.8,540.6,556.6,527,553.1z"/>
	<path class="st5" d="M434.9,385.3c-7.4-1.1-7.4-1.1-9.3,6.2c-2,7.9-3.7,15.9-6,23.7c-1,3.3,0.2,4,2.9,4.6
		c7.1,1.7,14.2,3.4,21.3,5.3c3.5,1,6.9,2.3,9.3,5.4c0.2,5.1,3.7,9.2,4,14.2c-2.3,13.6-6.3,26.7-9.5,40.1
		c-8.4,34.5-17.1,68.9-25.7,103.3c-0.7,2.7-1.4,5.5-3.7,7.4c-3.5-12.1-8.5-23.7-12.9-35.6c-10.5-28.5-21.3-56.9-32-85.3
		c-11.6-30.8-22.9-61.6-34.8-92.3c-6.6-17-7-33.1,4.4-48.1c7.7-10.1,17.8-16,30.7-17.2c25.7-2.4,41.9,13.2,48.5,32.3
		c3.8,11.1,8.3,22.1,12.4,33.1C434.9,383.2,434.8,384.3,434.9,385.3z"/>
	<path class="st5" d="M650.8,477.1c-5-18.5-17.5-30.7-33.6-40c-8.6-5-17.7-9.1-27.2-12.2c-3.7-1.2-4.7-2.7-3.6-6.7
		c4-14.7,7.5-29.6,11.1-44.4c0.4-1.6,2.1-3.8-0.7-5.1c3.8-10.8,6.7-22.1,12.9-31.7c7.7-11.7,18.5-19.1,33.2-19.9
		c13.9-0.8,26.1,2.4,35.9,12.6c12.4,13,16.7,28.4,10.8,45.4c-8.4,24.1-17.7,48-26.7,71.9c-3.3,8.9-6.7,17.7-10,26.6
		C652.5,474.8,652.2,476.2,650.8,477.1z"/>
	<path class="st5" d="M455.7,693.2c2.8-11.6,5.6-23.2,8.4-34.8c0.5-1.9,1.2-2.3,3.1-1.8c6.9,1.9,13.8,3.8,20.7,5.4
		c3.7,0.8,2.2,3.1,1.8,5c-3.6,14.8-7.2,29.7-11.2,44.4c-1.1,4.1-0.2,5.5,3.8,6.3c8.1,1.7,16.2,3.8,24.2,6c3,0.8,4,0,4.7-2.9
		c3.8-15.7,7.9-31.2,11.6-46.9c0.7-3,1.6-3.6,4.6-3c16.4,3,32.9,4.8,49.6,3.9c-0.7,5.7-3.4,10.7-5.4,15.9
		c-6.3,16.4-11.2,33.4-19.1,49.1c-8,16.2-21.9,24.2-39.8,24.1c-17.7-0.1-31.4-8.2-39.2-24.2C466.1,724.7,461.1,708.9,455.7,693.2z"
		/>
	<path class="st5" d="M623,554.9c-4.3-2.7-8.6-5.5-13.3-8.5c6.9-1.6,12.6-4.5,18.3-7.4C627.3,544.6,623.8,549.3,623,554.9z"/>
	<path class="st5" d="M527,553.1c13.6,3.5,26.5,8.7,37.5,17.7c10.6,8.7,15,19.7,11.3,33.3c-3.6,13.1-13.1,19.5-25.8,21.9
		c-15.2,2.9-30.2,0.7-45.1-2.3c-8.8-1.8-17.4-4.4-26.2-6.3c-3-0.7-3.3-2-2.6-4.5c5.5-21.7,10.9-43.5,16.3-65.3
		c0.5-1.9,1-3.6,3.5-2.4c-0.2,2.7,1.4,4.7,2.3,7.1c4.1,11.6,8.5,23.1,12.8,34.6c0.4,1,0.5,2.6,1.9,2.6c1.4,0,1.5-1.6,1.9-2.6
		c0.8-2,1.5-4,2.2-6.1C520.3,571.4,524.5,562.5,527,553.1z"/>
	<path class="st2" d="M539.9,519.3c-12.2-0.7-23.8-4.3-35.6-7.2c-2.2-0.5-2.7-1.5-2.2-3.5c5-20,10-40,15-60c0.4-1.6,0.8-2.6,3-2.1
		c14.2,3.4,28.6,6.1,41.9,12.7C555.8,479.6,547.5,499.3,539.9,519.3z"/>
	<path class="st5" d="M539.9,519.3c7.6-20,15.8-39.7,22.1-60.1c5.7,2.2,10.6,5.4,15.1,9.4c8.7,7.8,11.8,17.4,9,28.8
		c-2.7,11.4-10,18.1-21,21C556.8,520.5,548.4,520.7,539.9,519.3z"/>
	<path class="st2" d="M527,553.1c-2.5,9.5-6.7,18.4-9.9,27.6c-0.7,2-1.4,4.1-2.2,6.1c-0.4,1-0.5,2.6-1.9,2.6c-1.4,0-1.5-1.5-1.9-2.6
		c-4.3-11.5-8.7-23-12.8-34.6c-0.8-2.3-2.5-4.4-2.3-7.1C506.4,547.4,516.9,549.4,527,553.1z"/>
	<path class="st0" d="M457.2,444.7c-0.3-5-3.8-9.1-4-14.2C457,434.5,459,439,457.2,444.7z"/>
</g>
</svg>
