<?xml version="1.0" encoding="utf-8"?>
<!-- Generator: Adobe Illustrator 22.0.1, SVG Export Plug-In . SVG Version: 6.00 Build 0)  -->
<svg version="1.1" id="Layer_1" xmlns="http://www.w3.org/2000/svg" xmlns:xlink="http://www.w3.org/1999/xlink" x="0px" y="0px"
	 viewBox="0 0 34 34" style="enable-background:new 0 0 34 34;" xml:space="preserve">
<style type="text/css">
	.st0{fill:url(#SVGID_1_);}
</style>
<linearGradient id="SVGID_1_" gradientUnits="userSpaceOnUse" x1="33.7989" y1="11.8355" x2="-3.595" y2="37.2293" gradientTransform="matrix(1 0 0 -1 0 36)">
	<stop  offset="0" style="stop-color:#5433FF"/>
	<stop  offset="0.5" style="stop-color:#20BDFF"/>
	<stop  offset="1" style="stop-color:#5CFFA2"/>
</linearGradient>
<path class="st0" d="M32.8,8.7l-12,20.7c-0.4,0.6-0.9,1.1-1.5,1.5c-0.6,0.4-1.3,0.6-2.1,0.6c-0.7,0-1.4-0.2-2.1-0.6
	c-0.6-0.4-1.1-0.9-1.5-1.5l-2.1-3.6c0,0,0,0,0,0c0,0,0,0,0,0c0,0,0,0,0,0c0,0,0,0,0,0c0.4,0.4,0.8,0.6,1.3,0.8
	c0.5,0.2,1,0.2,1.6,0.1c0.5-0.1,1-0.3,1.5-0.5c0.4-0.3,0.8-0.7,1.1-1.1l10-17.4c0.3-0.5,0.4-1,0.5-1.5c0-0.5-0.1-1.1-0.3-1.5
	c-0.2-0.5-0.5-0.9-0.9-1.3C26,3,25.5,2.7,25,2.6c0,0,0,0,0,0c0,0,0,0,0,0c0,0,0,0,0,0c0,0,0,0,0,0h4.2c0.7,0,1.4,0.2,2.1,0.6
	c0.6,0.4,1.1,0.9,1.5,1.5s0.6,1.3,0.6,2.1C33.4,7.4,33.2,8.1,32.8,8.7z M18.6,2.5h-4.1c0,0,0,0,0,0c0,0,0,0,0,0s0,0,0,0c0,0,0,0,0,0
	c0.3,0.1,0.5,0.3,0.7,0.5c0.2,0.2,0.4,0.5,0.5,0.8c0.1,0.3,0.1,0.6,0.1,0.9c0,0.3-0.1,0.6-0.3,0.8L9.5,16c-0.2,0.3-0.4,0.5-0.6,0.7
	C8.6,16.9,8.3,17,8,17s-0.6,0-0.9-0.1c-0.3-0.1-0.6-0.2-0.8-0.4c0,0,0,0,0,0c0,0,0,0,0,0c0,0,0,0,0,0c0,0,0,0,0,0l2.1,3.7
	c0.2,0.4,0.6,0.8,1,1c0.4,0.2,0.9,0.4,1.4,0.4c0.5,0,0.9-0.1,1.4-0.4c0.4-0.2,0.8-0.6,1-1L21,6.6c0.2-0.4,0.4-0.9,0.4-1.4
	c0-0.5-0.1-0.9-0.4-1.4c-0.2-0.4-0.6-0.8-1-1C19.6,2.6,19.1,2.5,18.6,2.5z M4.2,2.5c-0.7,0-1.4,0.2-2,0.6c-0.6,0.4-1,1-1.3,1.6
	S0.6,6.1,0.7,6.8c0.1,0.7,0.5,1.3,1,1.8c0.5,0.5,1.1,0.8,1.8,1c0.7,0.1,1.4,0.1,2.1-0.2c0.7-0.3,1.2-0.7,1.6-1.3
	c0.4-0.6,0.6-1.3,0.6-2c0-0.5-0.1-0.9-0.3-1.4C7.4,4.3,7.1,3.9,6.8,3.6C6.4,3.2,6,3,5.6,2.8C5.2,2.6,4.7,2.5,4.2,2.5z"/>
</svg>
