<?xml version="1.0" encoding="utf-8"?>
<!-- Generator: Adobe Illustrator 27.5.0, SVG Export Plug-In . SVG Version: 6.00 Build 0)  -->
<svg version="1.1" id="Layer_1" xmlns="http://www.w3.org/2000/svg" xmlns:xlink="http://www.w3.org/1999/xlink" x="0px" y="0px"
	 viewBox="0 0 500 500" style="enable-background:new 0 0 500 500;" xml:space="preserve">
<style type="text/css">
	.st0{fill:#FFFFFF;}
</style>
<g>
	<circle class="st0" cx="250" cy="250" r="250"/>
	<path d="M272.9,219L393.4,98.9l-45.7-45.6l-97.6,97.4l-97.7-97.4l-45.7,45.6L227.2,219c6.3,6.3,14.6,9.4,22.9,9.4
		C258.3,228.4,266.6,225.2,272.9,219 M447.5,347.3l-97.7-97.4l97.7-97.3l-45.7-45.5L281.2,227.2c-12.7,12.6-12.7,33,0,45.5
		l120.5,120.1L447.5,347.3z M249.9,349.4l97.7,97.4l45.7-45.5L272.8,281.1c-12.7-12.6-33.1-12.6-45.7,0L106.6,401.2l45.7,45.5
		L249.9,349.4z M218.8,272.9c6.1-6,9.5-14.2,9.5-22.8s-3.4-16.7-9.5-22.8L98.2,107.2l-45.7,45.5l97.7,97.4l-97.7,97.3l45.7,45.5
		L218.8,272.9z"/>
</g>
</svg>
