<?xml version="1.0" encoding="utf-8"?>
<!-- Generator: Adobe Illustrator 22.0.1, SVG Export Plug-In . SVG Version: 6.00 Build 0)  -->
<svg version="1.1" id="Layer_1" xmlns="http://www.w3.org/2000/svg" xmlns:xlink="http://www.w3.org/1999/xlink" x="0px" y="0px"
	 viewBox="0 0 500 500" style="enable-background:new 0 0 500 500;" xml:space="preserve">
<g>
	<path d="M274.8,216.4l130.5-130L355.8,37L250.1,142.4L144.3,37L94.8,86.4l130.5,130c6.8,6.8,15.8,10.2,24.8,10.2
		C259,226.6,268,223.2,274.8,216.4 M463.8,355.3L358,249.9l105.8-105.3l-49.5-49.3l-130.5,130c-13.7,13.6-13.7,35.7,0,49.3
		l130.5,130L463.8,355.3z M249.9,357.6L355.7,463l49.5-49.3l-130.5-130c-13.7-13.6-35.8-13.6-49.5,0l-130.5,130l49.5,49.3
		L249.9,357.6z M216.2,274.8c6.6-6.5,10.3-15.4,10.3-24.7s-3.7-18.1-10.3-24.7L85.7,95.4l-49.5,49.3L142,250.1L36.2,355.4l49.5,49.3
		L216.2,274.8z"/>
</g>
</svg>
