<?xml version="1.0" encoding="utf-8"?>
<!-- Generator: Adobe Illustrator 27.5.0, SVG Export Plug-In . SVG Version: 6.00 Build 0)  -->
<svg version="1.1" id="Layer_1" xmlns="http://www.w3.org/2000/svg" xmlns:xlink="http://www.w3.org/1999/xlink" x="0px" y="0px"
	 viewBox="0 0 500 500" style="enable-background:new 0 0 500 500;" xml:space="preserve">
<style type="text/css">
	.st0{fill:#FFFFFF;}
	.st1{fill:url(#SVGID_1_);}
	.st2{fill:url(#SVGID_00000146494376864832689550000017974987647089785761_);}
	.st3{fill:url(#SVGID_00000181073684268871206590000006016931439674957185_);}
	.st4{fill:url(#SVGID_00000163055629856959943750000000409683516591174808_);}
	.st5{fill:url(#SVGID_00000148619926048335827780000003117803718395634623_);}
	.st6{fill:url(#SVGID_00000021823033764984483480000004242389971259596699_);}
</style>
<circle class="st0" cx="250" cy="250" r="250"/>
<linearGradient id="SVGID_1_" gradientUnits="userSpaceOnUse" x1="17.818" y1="70.4888" x2="17.9442" y2="66.3926" gradientTransform="matrix(8.8912 0 0 8.8912 -57.5159 -344.6205)">
	<stop  offset="0" style="stop-color:#ED7051"/>
	<stop  offset="1" style="stop-color:#F2C74E"/>
</linearGradient>
<circle class="st1" cx="101.9" cy="251.3" r="35.5"/>
<linearGradient id="SVGID_00000114073347184728264470000011140078744197798570_" gradientUnits="userSpaceOnUse" x1="32.711" y1="45.8779" x2="32.9002" y2="54.3849" gradientTransform="matrix(8.8912 0 0 8.8912 -57.5159 -344.6205)">
	<stop  offset="0" style="stop-color:#54BCF8"/>
	<stop  offset="1" style="stop-color:#4582F6"/>
</linearGradient>
<path style="fill:url(#SVGID_00000114073347184728264470000011140078744197798570_);" d="M250.2,49.6
	c-83.9,0-155.6,51.3-185.9,124.2c9.7-18.5,29.5-42.4,68.8-52.5c56.3-14.4,102.3-7,116.7-3.8c35.9,0.3,57.7,13.8,73.8,22.1
	c46.1,18.9,78.5-11.8,82.5-16C369.3,78.4,313.1,49.6,250.2,49.6z"/>
<linearGradient id="SVGID_00000041287916356077541300000005756125580249570489_" gradientUnits="userSpaceOnUse" x1="24.3196" y1="60.4491" x2="22.8705" y2="52.0051" gradientTransform="matrix(8.8912 0 0 8.8912 -57.5159 -344.6205)">
	<stop  offset="0" style="stop-color:#3871F1"/>
	<stop  offset="1" style="stop-color:#5D24C4"/>
</linearGradient>
<path style="fill:url(#SVGID_00000041287916356077541300000005756125580249570489_);" d="M248.5,117.5c1.4,0,1.5,0,1.4,0
	c-14.4-3.1-60.4-10.6-116.7,3.8c-68.3,17.6-77.7,76.9-77.7,76.9h73.2c0,0,0.4-0.3,1.3-0.9C150.1,151.3,195.2,118.2,248.5,117.5
	L248.5,117.5z"/>
<linearGradient id="SVGID_00000103949391018887878560000013986890403223280522_" gradientUnits="userSpaceOnUse" x1="32.7112" y1="416.2649" x2="32.9003" y2="424.7722" gradientTransform="matrix(8.8912 0 0 -8.8912 -57.5159 4137.793)">
	<stop  offset="0" style="stop-color:#54BCF8"/>
	<stop  offset="1" style="stop-color:#4582F6"/>
</linearGradient>
<path style="fill:url(#SVGID_00000103949391018887878560000013986890403223280522_);" d="M250.2,450.4
	c-83.9,0-155.6-51.3-185.9-124.2c9.7,18.5,29.5,42.4,68.8,52.5c56.3,14.4,102.3,7,116.7,3.8c35.9-0.3,57.7-13.8,73.8-22.1
	c46.1-18.9,78.5,11.8,82.5,16C369.3,421.6,313.1,450.4,250.2,450.4L250.2,450.4z"/>
<linearGradient id="SVGID_00000105389053961419446360000002279322941752111788_" gradientUnits="userSpaceOnUse" x1="24.3199" y1="430.8364" x2="22.8708" y2="422.3924" gradientTransform="matrix(8.8912 0 0 -8.8912 -57.5159 4137.793)">
	<stop  offset="0" style="stop-color:#3871F1"/>
	<stop  offset="1" style="stop-color:#5D24C4"/>
</linearGradient>
<path style="fill:url(#SVGID_00000105389053961419446360000002279322941752111788_);" d="M248.5,382.5c1.4,0,1.5,0,1.4,0
	c-14.4,3.1-60.4,10.6-116.7-3.8c-68.3-17.6-77.7-76.9-77.7-76.9h73.2c0,0,0.4,0.3,1.3,0.9C150.1,348.7,195.2,381.8,248.5,382.5
	L248.5,382.5z"/>
<linearGradient id="SVGID_00000036216999120738890060000011462027849519735182_" gradientUnits="userSpaceOnUse" x1="11.8373" y1="68.7374" x2="19.0841" y2="65.5236" gradientTransform="matrix(8.8912 0 0 8.8912 -57.5159 -344.6205)">
	<stop  offset="0" style="stop-color:#3871F1"/>
	<stop  offset="1" style="stop-color:#5D24C4"/>
</linearGradient>
<circle style="fill:url(#SVGID_00000036216999120738890060000011462027849519735182_);" cx="83.6" cy="250.6" r="35.5"/>
</svg>
