<?xml version="1.0" encoding="utf-8"?>
<!-- Generator: Adobe Illustrator 27.5.0, SVG Export Plug-In . SVG Version: 6.00 Build 0)  -->
<svg version="1.1" id="Layer_1" xmlns="http://www.w3.org/2000/svg" xmlns:xlink="http://www.w3.org/1999/xlink" x="0px" y="0px"
	 viewBox="0 0 500 500" style="enable-background:new 0 0 500 500;" xml:space="preserve">
<style type="text/css">
	.st0{fill:#FFFFFF;}
	.st1{fill:url(#SVGID_1_);}
	.st2{fill:url(#SVGID_00000180351508578851628750000009257545909780760498_);}
	.st3{fill:url(#SVGID_00000082336140166420471710000005807053919798107820_);}
	.st4{fill:url(#SVGID_00000041987200914633713310000011982394879737356720_);}
	.st5{fill:url(#SVGID_00000142155922709787448820000008022922586511636900_);}
	.st6{fill:url(#SVGID_00000154384356440622936490000015782128327587043511_);}
</style>
<circle class="st0" cx="250" cy="250" r="250"/>
<linearGradient id="SVGID_1_" gradientUnits="userSpaceOnUse" x1="20.2757" y1="430.0924" x2="20.3807" y2="433.5009" gradientTransform="matrix(8.891 6.487477e-02 6.487477e-02 -8.891 -80.9771 4098.4453)">
	<stop  offset="0" style="stop-color:#ED7051"/>
	<stop  offset="1" style="stop-color:#F2C74E"/>
</linearGradient>
<circle class="st1" cx="128.2" cy="250.2" r="29.5"/>
<linearGradient id="SVGID_00000097501712235507967620000015659764974632464003_" gradientUnits="userSpaceOnUse" x1="32.6622" y1="450.5717" x2="32.8196" y2="443.4929" gradientTransform="matrix(8.891 6.487477e-02 6.487477e-02 -8.891 -80.9771 4098.4453)">
	<stop  offset="0" style="stop-color:#54BCF8"/>
	<stop  offset="1" style="stop-color:#4582F6"/>
</linearGradient>
<path style="fill:url(#SVGID_00000097501712235507967620000015659764974632464003_);" d="M252.8,83.3C183,82.7,123,125,97.4,185.5
	c8.2-15.3,24.8-35.1,57.6-43.3c46.9-11.6,85.2-5.2,97.1-2.5c29.9,0.5,47.9,11.8,61.3,18.8c38.2,16,65.4-9.3,68.7-12.8
	C351.7,107.9,305.1,83.6,252.8,83.3z"/>
<linearGradient id="SVGID_00000093867385547681177750000010546116487043114121_" gradientUnits="userSpaceOnUse" x1="25.6822" y1="438.4468" x2="24.4764" y2="445.4733" gradientTransform="matrix(8.891 6.487477e-02 6.487477e-02 -8.891 -80.9771 4098.4453)">
	<stop  offset="0" style="stop-color:#3871F1"/>
	<stop  offset="1" style="stop-color:#5D24C4"/>
</linearGradient>
<path style="fill:url(#SVGID_00000093867385547681177750000010546116487043114121_);" d="M251,139.7c1.2,0,1.2,0,1.2,0
	c-12-2.7-50.2-9.2-97.1,2.5c-56.9,14.2-65.1,63.5-65.1,63.5l60.9,0.4c0,0,0.3-0.2,1.1-0.7C168.9,167.3,206.6,140,251,139.7
	L251,139.7z"/>
<linearGradient id="SVGID_00000181804077837079478630000008250052231742217093_" gradientUnits="userSpaceOnUse" x1="32.6623" y1="80.2349" x2="32.8197" y2="73.1558" gradientTransform="matrix(8.891 6.487477e-02 -6.487477e-02 8.891 -48.8084 -310.2242)">
	<stop  offset="0" style="stop-color:#54BCF8"/>
	<stop  offset="1" style="stop-color:#4582F6"/>
</linearGradient>
<path style="fill:url(#SVGID_00000181804077837079478630000008250052231742217093_);" d="M250.4,416.8
	c-69.8-0.5-129.2-43.6-153.9-104.5c8,15.5,24.3,35.5,56.9,44.1c46.8,12.3,85.1,6.4,97.1,3.9c29.9,0,48.1-11.1,61.5-17.9
	c38.5-15.4,65.2,10.3,68.6,13.8C349.6,393.5,302.7,417.1,250.4,416.8L250.4,416.8z"/>
<linearGradient id="SVGID_00000076597789351455599500000003964021883459071108_" gradientUnits="userSpaceOnUse" x1="25.6825" y1="68.1098" x2="24.4766" y2="75.1362" gradientTransform="matrix(8.891 6.487477e-02 -6.487477e-02 8.891 -48.8084 -310.2242)">
	<stop  offset="0" style="stop-color:#3871F1"/>
	<stop  offset="1" style="stop-color:#5D24C4"/>
</linearGradient>
<path style="fill:url(#SVGID_00000076597789351455599500000003964021883459071108_);" d="M249.4,360.3c1.2,0,1.2,0,1.2,0
	c-12,2.5-50.3,8.5-97.1-3.9c-56.7-15.1-64.2-64.5-64.2-64.5l60.9,0.4c0,0,0.3,0.3,1.1,0.8C167.7,331.5,205,359.3,249.4,360.3
	L249.4,360.3z"/>
<linearGradient id="SVGID_00000152255494263377752780000008745677254898267268_" gradientUnits="userSpaceOnUse" x1="15.2939" y1="431.5523" x2="21.3241" y2="434.2266" gradientTransform="matrix(8.891 6.487477e-02 6.487477e-02 -8.891 -80.9771 4098.4453)">
	<stop  offset="0" style="stop-color:#3871F1"/>
	<stop  offset="1" style="stop-color:#5D24C4"/>
</linearGradient>
<circle style="fill:url(#SVGID_00000152255494263377752780000008745677254898267268_);" cx="112.9" cy="249.5" r="29.5"/>
</svg>
