<?xml version="1.0" encoding="utf-8"?>
<!-- Generator: Adobe Illustrator 27.5.0, SVG Export Plug-In . SVG Version: 6.00 Build 0)  -->
<svg version="1.1" id="Layer_1" xmlns="http://www.w3.org/2000/svg" xmlns:xlink="http://www.w3.org/1999/xlink" x="0px" y="0px"
	 viewBox="0 0 500 500" style="enable-background:new 0 0 500 500;" xml:space="preserve">
<style type="text/css">
	.st0{fill:#FFFFFF;}
	.st1{fill:url(#SVGID_1_);}
	.st2{fill:url(#SVGID_00000132798197431097494090000010124704280174235008_);}
	.st3{fill:url(#SVGID_00000052084981622134703780000013687364085806184633_);}
	.st4{fill:url(#SVGID_00000174587667058533119190000016426865019766279842_);}
	.st5{fill:url(#SVGID_00000072960529584006703000000016443836213888240261_);}
	.st6{fill:url(#SVGID_00000072279746933671444890000004075511457780892089_);}
</style>
<circle class="st0" cx="250" cy="250.5" r="250"/>
<linearGradient id="SVGID_1_" gradientUnits="userSpaceOnUse" x1="15.1855" y1="428.8542" x2="15.3325" y2="433.6254" gradientTransform="matrix(8.8912 0 0 -8.8912 -57.5159 4100.9795)">
	<stop  offset="0" style="stop-color:#ED7051"/>
	<stop  offset="1" style="stop-color:#F2C74E"/>
</linearGradient>
<circle class="st1" cx="78.6" cy="252.1" r="41.3"/>
<linearGradient id="SVGID_00000038408220672993014010000013143224052243927695_" gradientUnits="userSpaceOnUse" x1="32.5341" y1="457.5211" x2="32.7545" y2="447.6121" gradientTransform="matrix(8.8912 0 0 -8.8912 -57.5159 4100.9795)">
	<stop  offset="0" style="stop-color:#54BCF8"/>
	<stop  offset="1" style="stop-color:#4582F6"/>
</linearGradient>
<path style="fill:url(#SVGID_00000038408220672993014010000013143224052243927695_);" d="M251.4,17.1
	c-97.7,0-181.3,59.7-216.5,144.7c11.3-21.6,34.4-49.4,80.1-61.1c65.6-16.8,119.2-8.1,135.9-4.4c41.8,0.3,67.2,16.1,86,25.8
	c53.7,22,91.4-13.8,96.1-18.6C390.1,50.7,324.7,17.1,251.4,17.1z"/>
<linearGradient id="SVGID_00000040537559647249494460000001729268510724911283_" gradientUnits="userSpaceOnUse" x1="22.7513" y1="440.5473" x2="21.0634" y2="450.3829" gradientTransform="matrix(8.8912 0 0 -8.8912 -57.5159 4100.9795)">
	<stop  offset="0" style="stop-color:#3871F1"/>
	<stop  offset="1" style="stop-color:#5D24C4"/>
</linearGradient>
<path style="fill:url(#SVGID_00000040537559647249494460000001729268510724911283_);" d="M249.4,96.2c1.6,0,1.8,0,1.6,0
	c-16.8-3.6-70.3-12.4-135.9,4.4c-79.6,20.5-90.5,89.6-90.5,89.6h85.3c0,0,0.5-0.3,1.5-1C134.8,135.6,187.3,97,249.4,96.2L249.4,96.2
	z"/>
<linearGradient id="SVGID_00000054227853672806401410000012101661121030668469_" gradientUnits="userSpaceOnUse" x1="32.5341" y1="87.2576" x2="32.7544" y2="77.3483" gradientTransform="matrix(8.8912 0 0 8.8912 -57.5159 -307.8069)">
	<stop  offset="0" style="stop-color:#54BCF8"/>
	<stop  offset="1" style="stop-color:#4582F6"/>
</linearGradient>
<path style="fill:url(#SVGID_00000054227853672806401410000012101661121030668469_);" d="M251.4,484c-97.7,0-181.3-59.7-216.5-144.7
	c11.3,21.6,34.4,49.4,80.1,61.1c65.6,16.8,119.2,8.1,135.9,4.4c41.8-0.3,67.2-16.1,86-25.8c53.7-22,91.4,13.8,96.1,18.6
	C390.1,450.4,324.7,484,251.4,484L251.4,484z"/>
<linearGradient id="SVGID_00000088817963602340009130000005034986531617277617_" gradientUnits="userSpaceOnUse" x1="22.7516" y1="70.2835" x2="21.0637" y2="80.1191" gradientTransform="matrix(8.8912 0 0 8.8912 -57.5159 -307.8069)">
	<stop  offset="0" style="stop-color:#3871F1"/>
	<stop  offset="1" style="stop-color:#5D24C4"/>
</linearGradient>
<path style="fill:url(#SVGID_00000088817963602340009130000005034986531617277617_);" d="M249.4,404.9c1.6,0,1.8,0,1.6,0
	c-16.8,3.6-70.3,12.4-135.9-4.4c-79.6-20.5-90.5-89.6-90.5-89.6h85.3c0,0,0.5,0.3,1.5,1C134.8,365.5,187.3,404.1,249.4,404.9
	L249.4,404.9z"/>
<linearGradient id="SVGID_00000023982215052210781750000017001762816496293516_" gradientUnits="userSpaceOnUse" x1="8.2161" y1="430.8995" x2="16.6572" y2="434.643" gradientTransform="matrix(8.8912 0 0 -8.8912 -57.5159 4100.9795)">
	<stop  offset="0" style="stop-color:#3871F1"/>
	<stop  offset="1" style="stop-color:#5D24C4"/>
</linearGradient>
<circle style="fill:url(#SVGID_00000023982215052210781750000017001762816496293516_);" cx="57.3" cy="251.3" r="41.3"/>
</svg>
