<?xml version="1.0" encoding="utf-8"?>
<!-- Generator: Adobe Illustrator 27.5.0, SVG Export Plug-In . SVG Version: 6.00 Build 0)  -->
<svg version="1.1" id="Layer_1" xmlns="http://www.w3.org/2000/svg" xmlns:xlink="http://www.w3.org/1999/xlink" x="0px" y="0px"
	 viewBox="0 0 1122 841.8" style="enable-background:new 0 0 1122 841.8;" xml:space="preserve">
<style type="text/css">
	.st0{fill:#F5EADC;}
	.st1{fill:#FFFFFF;}
	.st2{fill:#D26B7F;}
	.st3{fill:#FEECAC;}
	.st4{fill:#EA8397;}
	.st5{fill:#9D988D;}
	.st6{fill:none;}
</style>
<path class="st0" d="M995.2-118.8c-0.46-3.39,1.54-6.16,3.7-8.62l4.47,0.46c0.31,0.92,0.46,1.85,0.77,2.93
	c-2.62,1.08-5.24,2.31-7.7,3.85c-0.62,1.23-1.08,2.62-1.69,4c-0.31-0.77-0.62-1.54-0.92-2.31L995.2-118.8z"/>
<path class="st0" d="M1004.13-111.87c4-4.16,8.01-9.86,14.48-9.55c-0.15,0.77-0.31,2.31-0.31,3.08
	c-4.62,4.62-10.01,8.62-13.71,14.01l1.39,1.85c4.16-2.31,8.93-2.77,13.09-4.93c0.62,0.92,1.23,2,1.85,2.93
	c-1.85,3.23-3.23,6.62-5.24,9.55c-2.77,3.54-2.31,8.62-0.46,12.47c2.62,0.46,5.39,1.23,7.85,2.31c6.16-1.85,8.47-9.24,14.78-10.63
	c-2,4.62-6.78,6.78-9.39,10.93c-2,3.08-3.08,6.62-4.77,9.86c-0.15,1.23-0.15,2.62-0.31,3.85c4-1.23,5.85-5.08,8.78-7.85
	c2.77-1.39,6.47-1.39,8.78-3.7c2-2.77,3.23-6.01,5.39-8.78c1.54,0.62,3.23,1.39,4.77,2.16c-1.85,1.69-3.7,3.39-5.39,5.39
	c-2.31,2.62-1.08,6.78-3.54,9.24c-3.08,3.39-5.54,7.24-7.24,11.4c0.15,1.39-0.15,3.54,1.85,3.39c5.54-4.93,8.47-12.32,14.78-16.63
	c-0.15-1.08-0.15-2.31-0.15-3.39l3.08-1.23l2.16-0.15l-4,5.08c0.62,1.23,1.23,2.31,1.85,3.54c1.85,0.92,3.7,2.16,5.54,3.39
	c1.85-0.62,3.85-1.23,5.85-1.69c-0.15,4.62-4.31,6.31-7.55,8.32l-3.08-0.31c-1.85,2.16-3.85,4.31-5.85,6.47l-0.15,1.39
	c1.39-0.31,2.77-0.62,4.16-0.92c-1.39,3.08-2.46,6.16-3.39,9.39c7.85-5.54,10.32-15.71,17.25-22.18c4.31-2.31,8.16-6.01,13.24-6.47
	c-3.08,7.08-7.39,13.4-12.94,18.79c-2.16,2.31-4,4.93-5.54,7.7c-3.54,6.16-8.01,11.86-10.47,18.48c-1.39,4.31-5.85,6.01-8.62,9.09
	c-6.47,6.47-9.86,15.09-15.71,22.02c-2.93,3.39-5.39,7.08-7.39,11.09c-1.85,4-7.08,4.62-8.93,8.62s-5.39,6.31-7.7,9.86
	c0.15,1.54,0.31,3.08,0.31,4.62l2,1.69c-1.54,1.54-3.23,3.08-4.93,4.62c0-1.23,0.31-3.7,0.31-4.93c-2.62,2-5.39,3.7-7.08,6.47
	c-3.39,6.16-9.7,10.47-12.17,17.25c-0.77,2.62,2.77,2.46,4.31,3.7c-1.08,3.7-4.93,6.62-3.85,10.78c7.55,1.69,12.78-5.24,16.32-10.93
	c1.39,5.24-1.08,10.16-2.93,14.94c-1.54,4.47,1.23,8.32,3.39,12.01c-2.93,5.08-7.55,8.78-10.78,13.71c0.62,2.93,0.92,6.01,1.39,8.93
	c3.54,0.92,7.24,2.93,11.09,2.46c3.54-1.85,6.31-4.77,9.7-7.08c1.69,3.54,0.15,7.24-1.85,10.32c0.62,1.39,1.23,2.77,1.85,4.16
	c-6.16,2.62-8.32,9.24-11.55,14.48c-1.85,3.39,2.46,4.62,4.77,5.39c0.31,3.23-1.08,7.24,1.69,9.7c2.31,2.46,5.24,4.16,8.62,4.93
	c0.62,2.31,0.62,5.08,2.93,6.47c2.16-0.15,4-1.54,6.16-2.31c0.15,1.54,0.31,3.08,0.46,4.62c2.31,3.54,6.78,2.46,10.32,3.54
	c3.54-2,5.85-6.16,10.47-6.47c3.85-0.62,5.7-4.16,8.47-6.31c-3.39-0.62-2.62-3.7-2.62-6.16l3.23,2.77c2.62-0.46,4.77-2.16,6.01-4.47
	c2.62-5.7,6.62-10.47,11.86-13.86c2.31-1.39,2.77-4.93,0-6.31c2.31-1.54,4.93-2.62,7.24-4.31c0.15-3.08,0-6.16,3.7-7.08
	c0.92,4.16-0.77,8.01-2.77,11.55c2.77-0.15,4.77-2.31,7.08-3.7c1.39,0.46,2.93,0.77,4.31,1.23c1.69-1.69,3.54-3.23,5.39-4.93
	c-2.77-0.62-6.16,0-8.32-2.31c2.31-2.77,3.7-6.01,4-9.55c4.31-1.85,8.78,1.54,12.78,2.77c0.77,1.85,2,3.39,3.85,4.47
	c-0.46,1.08-1.08,2.31-1.54,3.39c1.39,0.92,2.77,1.85,4.16,2.77c2-1.85,3.23-4.47,3.39-7.24c3.39-1.69,7.08-2.77,10.93-3.54
	c1.39,0.92,2.93,1.85,4.47,2.62c1.54-0.62,3.08-1.23,4.62-2c0.77,1.54,1.39,3.08,2.16,4.47c-7.39,3.7-14.78,7.55-22.79,9.09
	c-8.62,2.93-16.48,7.85-24.95,10.93c-4.77,1.39-8.16,5.24-12.63,7.39c-7.39,3.54-12.78,10.16-20.02,14.17
	c-5.39,2.77-8.16,9.09-14.17,10.93c-5.08,1.69-8.93,5.7-12.17,9.86c-1.54,1.39,0.15,3.39,0.46,4.93l3.39,0.15
	c-0.15,1.08-0.31,3.39-0.31,4.47c-0.92,3.23-1.69,6.62-2.93,9.7c1.08,2,2.46,3.7,3.7,5.54c-0.15,2.77-0.77,5.54-1.39,8.16l6.47,1.08
	c-1.39,2.46-3.23,4.62-4.47,7.08c0.46,2.31,1.23,4.47,1.85,6.78c5.24,0.15,6.47-5.24,9.24-8.62c2.77-1.23,4.77,1.23,6.62,2.93
	c2.16-0.92,4.16-1.85,6.16-2.93c0.77,1.23,1.23,2.77,1.54,4.16c-1.54,2.31-4,3.7-5.54,6.01c0.31,1.54,0.77,2.93,1.54,4.31
	c4.16-0.62,8.16-2,11.7-4.31c3.7-2.16,8.16,0.15,11.86-2c2.16-2.31,3.08-5.24,4.31-8.01l1.39,1.54c0,1.23,0.15,2.62,0.31,3.85
	l2.77,2.16c-4.77,2.77-8.32,8.01-6.93,13.71l4.47-0.15c-1.69,2.31-3.08,4.93-3.85,7.7l2.93,2.62c-0.31,4.31-4.62,6.47-5.85,10.47
	c-1.23,3.08-1.39,6.62-3.23,9.55c-3.39,3.7-8.01,6.16-11.4,9.7c-4.16,3.7-5.85,9.39-10.16,13.09c-3.39,2.77-5.54,6.47-8.32,9.7
	c-4.16,5.24-10.01,9.24-12.63,15.71c-3.7,5.54-9.7,8.93-13.71,14.17c-1.85,2.62-3.7,4.93-5.85,7.24
	c39.73,190.34-44.97,385.15-211.29,485.87c-119.2,72.07-264.57,85.93-395.32,37.73c-3.54,2.93-8.32,1.85-12.47,3.23
	c1.08-2.31,2.62-4.47,4.31-6.31c-1.54-0.62-3.08-1.08-4.62-1.54c-1.39-1.54-3.7-1.23-5.54-1.54c1.39,0.92,2.93,2,4.31,2.93
	c-2.31,1.23-4.62,2.62-6.78,4.16c-1.39-0.62-2.62-1.23-4-1.69l-2.46-4.16c-2.77,0.62-5.24,2.31-6.93,4.47
	c-1.08,0.15-2.31,0.31-3.39,0.46c-2,2.31-4.62,4-7.55,5.08c0-0.46,0-1.54,0-2.16c5.54-2.62,8.62-8.62,14.63-10.63
	c0.62-1.23,1.23-2.62,2-3.85l-3.23-1.54c-5.39,4.16-11.86,7.08-16.63,12.01c-2.62-0.92-5.24-2.62-8.16-1.69
	c-6.62,1.69-12.32,5.7-17.86,9.55c-5.08,3.39-10.47,6.31-16.02,8.93c-6.62,2.62-10.78,9.09-17.71,11.24
	c-4.47,1.54-7.08,5.85-10.01,9.24c-2.16,3.08-6.78,3.08-8.47,6.62c-0.92,3.85,4,3.08,6.16,2c7.39-1.69,10.78-9.39,17.71-11.7
	l0.31,2.77c-2.16,0.92-4.16,2-6.31,2.93c0,1.85-0.15,3.54-0.15,5.39c-3.08,1.54-5.85,3.54-8.16,6.01c-2.46,2.62-6.47,3.08-9.55,4.93
	c-7.24,7.24-16.94,11.7-24.33,18.63c-2.31,2.31-5.39,3.08-8.32,4.16c-0.15,2.93,0.46,5.7,1.69,8.32c-2.46,2-5.24,3.7-8.16,5.08
	c0.62-2,1.23-4,2-6.01c-4,2-8.01,4.62-12.63,4.16c2.46,0.92,4.93,1.69,7.39,2.46c-5.08,5.24-11.4,8.93-16.94,13.55
	c-1.85,1.23-3.85,2-5.85,2.62c0-3.39,0-6.78,0.15-10.16c3.7-2.77,7.55-5.39,11.24-8.16c2.16-1.69,3.23-4.31,5.54-6.01
	c2.31-1.69,4.93-2.77,7.55-3.39l1.54-3.08c-4.31,0-8.47,2.62-12.94,1.08c3.85-4,7.85-7.85,12.17-11.24
	c1.85-1.39,3.85-2.62,6.01-3.23l0.77-1.69c-3.85,0-8.32,0.15-10.78,3.39c-5.85,7.39-16.32,8.32-23.56,13.86
	c0.62,1.69,1.08,3.54,1.39,5.24c-0.92,1.23-1.85,2.62-2.77,3.85c-8.01,0.31-15.09,4.62-22.79,6.62c-3.39-1.85-6.31-4.16-7.7-8.01
	c4.16-2,9.24-2.31,12.94-5.24c-0.15,2.16-0.15,4.47-0.15,6.62c4.47-2.62,10.16-4.62,12.63-9.55c-1.54-0.77-3.23-1.54-4.77-2.31
	c3.54-1.69,6.78-3.85,9.7-6.47c0.15-2.16-0.15-4.93,2.16-5.85c3.23-2.31,7.08-0.31,10.63,0l-1.54,4.16c3.7-1.08,7.08-3.08,9.7-5.85
	c-2.93-1.23-5.08-4-5.7-7.08c3.08-3.23,7.55-4.62,10.78-7.7c2.46-4.16,4.16-8.78,4.93-13.71c-2-3.7-6.62-2.16-10.01-2.93
	c0.92-1.85,1.85-4.16,3.85-5.08c5.39-3.23,11.24-6.78,14.17-12.63l-3.7-3.54c-0.92,0.31-1.85,0.77-2.77,1.08
	c0,1.54-0.15,3.08-0.31,4.62c-3.08,3.85-7.85,5.54-12.01,7.7c-1.08-2.16-1.54-4.77-3.85-6.01c-4.16-0.46-8.16-1.39-12.17-2.62
	c3.39-3.85,7.08-7.24,11.09-10.16c-1.69-6.62,5.39-9.7,10.01-12.32c3.23-1.54,3.54-5.08,3.39-8.32c2.16-0.46,4.77-0.15,6.62-1.69
	c2.46-2.16,4.31-5.08,7.55-6.31c2.77-2.62,6.47-3.23,9.86-4.77c0.46-1.39,1.08-2.77,1.54-4.16l-3.08-1.39
	c-3.54,2.16-7.24,4.77-11.7,4.77c-6.31-0.31-12.01,3.08-17.56,5.54c1.23,3.39,1.85,6.93,0.46,10.32c-4.16,3.08-9.39,5.85-14.78,4.77
	c-3.08-1.08-5.85-2.46-9.24-2.31c1.85-4.31,3.7-9.09,7.85-11.86c-2.31-3.54-0.92-7.39,0.77-10.78c5.85-3.23,10.01-8.62,15.25-12.63
	c3.54-3.54,8.62-5.54,11.24-10.01l-3.54-0.62c-10.32,4.16-17.86,14.01-29.26,15.09c-15.4,6.01-28.03,16.94-42.97,23.87
	c-7.7,2.46-14.48,6.78-21.56,10.63c-8.01,5.39-16.94,9.24-25.1,14.63c-3.85,2.62-8.62,3.7-11.7,7.39c-2,2.46-5.39,2.77-8.01,3.85
	c-5.7,0.31-11.24,1.69-16.94,1.39c5.24-3.7,10.16-7.7,14.78-12.17l0.62-2c-2.62-0.46-5.39-0.46-8.01-0.15
	c0.31-2.62,0.77-5.24,1.39-7.85c-0.31-0.62-0.92-1.85-1.23-2.31c-3.08,0-6.01-0.62-8.93-1.69c-0.62-2.16-2.62-5.08,0-6.62
	c7.08-4.93,14.94-8.78,22.33-13.09c5.24-3.23,11.24-4.93,16.32-8.47c4-2.77,8.32-4.93,11.7-8.32c-0.31-0.46-0.92-1.39-1.23-1.85
	c-1.23-0.62-2.62-1.23-3.85-1.69c0.31-2.16,0.46-4.47,2.31-5.85c8.01-7.7,18.79-12.01,26.64-20.17c1.08-2.62-2.46-2.77-4.16-2.31
	c-5.85,0.46-11.09,3.39-16.48,5.39c-5.08-4-10.93,0-15.4,2.77c-7.24,5.08-15.55,8.16-23.41,11.7c-3.39,1.39-6.93,3.23-10.63,3.39
	c2-4.31,6.62-6.16,10.47-8.47c5.7-3.39,12.32-6.31,15.25-12.63c-1.23-2.77-5.39-1.69-7.85-2.93c0.31-2.16,0.92-4.16,1.39-6.16
	c-1.69-1.08-3.54-2.16-5.24-3.23c-0.62-1.54-1.23-3.08-1.85-4.62c-2.31-0.15-4.62-0.31-7.08-0.46c0.15-2.31,0.46-4.62,1.08-6.78
	c-3.54-2.46-8.01-2.31-12.01-3.39c0.62-4,5.08-4.47,8.01-6.16c6.31-2.62,9.09-9.39,14.17-13.4c4.77-0.92,8.32-4.31,11.24-8.01
	c0.15-1.85-1.23-4.47,1.08-5.54c3.54-2.31,5.54-6.16,8.78-8.93c2.77-2,2.93-5.7,4.47-8.47c3.39-4.47,8.93-6.78,12.17-11.4
	c1.54-2,4-2.62,6.16-3.39c0.15-1.39,0.46-2.62,0.62-4c2.16-0.46,4-1.39,5.7-2.77l-2.93-2.93c1.39-1.39,2.77-2.62,4.16-3.85
	c2,0.31,4,0.77,6.01,1.08c2-1.54,4.16-2.93,6.16-4.31l-3.23-3.08l1.85-2.93c1.54-0.46,2.93-1.08,4.47-1.54
	c0.62-0.92,1.39-1.85,2-2.77c-1.08-1.69-2.16-3.39-3.08-5.24c-3.39,1.08-7.08,2-9.7,4.62c-3.85,3.85-9.55,4.93-13.4,8.93
	c-2.93,2.93-6.31,5.39-8.47,8.93c-1.85,2.46-3.08,5.54-5.7,7.39c-5.7,4.31-13.09,6.78-16.94,13.4c-4,1.69-8.93,1.69-12.01,4.93
	c-2.62,2.93-6.93,1.54-10.32,2.62c-6.47,1.39-10.78,6.78-16.48,9.55l-2.31,0.31c3.85-4.93,9.39-7.85,13.71-12.01
	c0.46-2-1.39-3.08-2.62-4.31c-4.31,1.23-8.62,2.31-12.78,3.85c-2.77,1.39-3.39,5.24-6.31,6.62c-4,2.31-8.16,4.47-12.47,6.31
	c-2,0.62-2.31,2.93-3.08,4.47c-4.31,0-7.55,3.23-11.7,4c-0.92-1.54-1.85-2.93-2.77-4.31c2.46-3.23,6.31-4.77,10.16-5.7
	c0-1.39,0-2.77,0-4c4.31-3.7,9.39-6.16,13.71-9.7c2.46-2.16,2.93-6.31,6.16-7.85c3.54-1.69,7.85-2.46,10.32-5.85l3.23,0.46
	c3.23-1.69,6.78-2.77,10.32-3.23c2.16,1.54,4.47,3.08,6.78,4.31c3.85,1.23,7.24-1.54,10.47-3.08c2.62-1.08,3.7-3.7,5.7-5.54
	c3.54-3.39,7.55-6.16,11.24-9.24c3.54-2.62,2.93-7.55,5.39-10.78c0.92,1.08,1.69,2.16,2.62,3.39c3.85-0.31,5.7-4.31,8.47-6.47
	c3.7-3.85,9.39-5.54,12.32-10.32c-5.85-0.46-9.24,5.08-13.86,7.7c-3.7,1.54-7.85,1.23-11.86,2.16c-2.77,0.31-6.01,0.15-8.16,2.46
	c-2.77,2.77-6.62,4-10.16,5.54c-3.23,2.62-6.93,4.93-9.55,8.32c2,2.31,3.85,4.77,5.24,7.55c-2,0.15-3.85,0.31-5.85,0.46
	c-0.92-1.69-1.69-3.39-2.62-4.93c-3.23,0.31-6.47,1.08-9.39,2.46c-1.08-0.15-3.39-0.31-4.47-0.46c3.85-3.54,8.62-5.85,13.71-6.93
	c3.7-1.08,5.54-4.93,8.93-6.78c4.31-1.85,6.93-6.01,10.93-8.32c5.39-3.39,9.86-8.16,14.48-12.47c2.46-2,1.69-5.39,2.16-8.16
	c-3.08,0.77-6.47,1.54-8.78,3.85c-4.77,4.93-10.01,9.7-16.79,11.55c2.16-5.08,5.39-9.86,9.39-13.71c1.39,0.46,2.77,0.77,4.16,1.23
	c2.46-0.92,4.31-2.77,5.39-5.24c-1.54-0.31-2.93-0.62-4.31-0.77c-1.85-1.54-4.16-2.46-6.01-3.85c-1.69-3.85,0.46-8.32-1.23-12.32
	c-0.62-2-1.08-4-1.08-6.01c-4.16,0.15-8.01,2.16-12.01,2.62c-4.77,0.62-8.62,3.7-10.32,8.16c-3.7,0-7.39,0-11.24,0
	c-1.08,1.08-2.16,2.16-3.23,3.23c-4.93-0.46-9.55,2.31-13.4,5.08c-4.16,3.23-8.93,5.7-13.86,7.39c0.15-4,4.62-3.85,7.08-6.16
	c2-1.69,2.62-4.31,3.39-6.78c4-2.31,8.01-5.08,9.39-9.7c-4-1.69-7.08,1.08-9.7,3.7c-0.62-1.54-1.23-3.08-1.69-4.77
	c-0.62-0.46-1.69-1.23-2.16-1.69c1.85-3.39,3.85-6.93,3.85-10.93c4-3.7,8.47-7.08,11.86-11.55c-1.08-1.54-2-3.08-2.93-4.77
	c2-1.54,3.85-3.23,5.54-4.93c-0.15-1.39-0.62-2.77-1.23-3.85c1.85-2.46,4.31-5.39,2-8.47c-1.69-0.46-3.39-1.54-5.24-0.62
	c-6.62,2.46-12.47,6.47-19.56,7.55c-5.24,0.46-9.24,3.85-14.01,5.39v-2.62c2.93-1.85,6.31-3.54,9.86-3.08
	c3.23-3.39,5.85-7.55,5.85-12.47c-2,0-4-0.15-6.01-0.15c1.85-4.16,3.39-8.62,4.77-12.94c0.77-3.23,2.46-6.93,5.85-8.01
	c3.54-0.77,7.7,0.46,10.78-2c6.31-4.77,14.01-8.16,18.02-15.4c0-4,0-8.01,0.15-12.01l-1.39-2.31c-2-0.46-3.85-0.92-5.85-1.23
	c0.31-2.16,0.46-4.31,0.62-6.47c0.77,0.15,2.16,0.31,2.93,0.31c3.39-2.16,7.08-4,10.78-5.7c0,1.08,0,3.23,0.15,4.47l1.69,1.54
	c2.62-0.92,5.08-1.85,7.7-2.77c3.23-1.23,6.93-0.31,10.01-2.16c-6.78-43.43-7.39-87.47-1.85-131.05
	C143.58,129.91,373.5-47.34,624.68-15c33.42,4.31,66.22,12.32,97.94,23.87c14.48,5.08,28.34,11.4,42.2,17.71
	c5.39-4.16,12.17-5.85,17.56-10.16c4.16-2.93,7.85-7.08,13.24-7.7c5.7-1.08,9.55-6.78,15.55-6.16c-1.69,4-6.47,5.24-8.93,8.78
	c-2,2.77-3.39,6.31-6.78,7.55c-2.93,1.23-6.16,3.08-5.54,6.93c1.85-0.62,3.7-1.39,5.54-2c-2,2.93-4.93,5.08-6.93,7.85
	c0.92,2.77,2.77,5.39,1.23,8.32l4,1.85c2.93-4,7.39-6.78,9.39-11.55c1.08-2.46,0.62-5.39,1.23-8.01c2.16-3.08,5.08-5.39,7.39-8.47
	c5.85-0.62,9.7-5.08,13.09-9.55l-4.93-0.15c2.77-3.85,8.01-5.54,9.55-10.32l-3.54,0.62c0.15-2,0.31-4,0.62-5.85
	c4.62-2.93,8.78-6.62,12.17-10.93c1.54,0.31,3.23,0.62,4.77,0.77c7.39-1.69,14.17-5.24,21.56-6.47c-0.15,2.46-0.46,4.93-0.62,7.39
	c4.16,0.46,8.16-0.77,12.32-1.85c0.15,1.23,0.62,3.54,0.77,4.77c3.39-1.69,6.62-4.77,10.63-3.7c5.54,1.39,9.55-3.39,13.55-6.47
	c4.16-3.7,10.32-5.24,13.09-10.32c1.54-2.16,1.23-4.93,1.23-7.39c8.32-3.85,16.17-9.09,21.87-16.48c4.16-5.7,10.01-10.47,12.01-17.4
	c3.39-3.85,7.08-7.24,11.24-10.16c0.62,1.54,1.23,3.08,2,4.62c7.85-4.93,11.86-13.86,18.33-20.33c2.16-0.62,4.93,0,6.62-1.85
	c4.93-4.31,8.93-9.7,14.63-13.09c-0.15,2.16-0.46,4.31-0.77,6.47L1004.13-111.87z M985.65-98.93c-4.93,2.93-6.78,9.39-5.7,14.78
	c3.23-2.93,5.39-6.78,8.01-10.16c2.93-4.31,6.31-8.47,8.78-13.09C991.35-107.55,989.66-101.39,985.65-98.93L985.65-98.93z
	 M933.45-46.72c-3.23,4.62-6.78,8.93-10.78,13.09c-4.31,4-6.47,9.7-10.78,13.71c-6.47,5.85-10.93,13.71-15.86,20.79
	c-2.46,4-5.54,7.7-6.62,12.32c4-2.46,8.01-5.08,11.7-7.85c0.92,1.39,2.31,2.77,2.62,4.47c0.31,3.39-2.31,5.85-4,8.32
	c0.15,1.23,0.46,3.54,0.62,4.77c4.47-2,8.01-5.7,10.16-10.16c1.39-3.23,5.08-4.47,7.85-6.16l2.93,0.62
	c2.62-3.85,6.31-7.08,7.85-11.55c0.31-4.31,3.7-7.55,6.31-10.63c-2.16-1.08-2.46-3.54-3.23-5.54c4.93-4.47,8.01-10.32,11.09-16.02
	c3.08-0.62,6.78-0.46,8.93-3.23c2.31-2.93,4.16-6.16,5.39-9.7c-6.16-2-11.4,3.08-12.47,8.93c-0.46,0.46-1.54,1.39-2,1.85l-5.08-2.77
	c1.85-3.39,3.39-6.78,4.77-10.47C938.68-52.58,935.6-49.8,933.45-46.72z M1034.62-21.78c-0.46,4.31-4.31,7.39-4.77,11.86
	c3.85-3.23,6.47-7.55,9.7-11.4c1.69-1.85,1.69-4.31,1.85-6.62c1.69-2.31,3.23-4.62,4.62-7.24c-2.16-0.46-4.77-2.16-6.62-0.15
	C1035.24-32.09,1035.24-26.55,1034.62-21.78z M883.09-15c-3.7,1.85-2.93,6.47-3.08,9.86c2,0.31,4.16,1.85,6.16,0.62
	c5.08-2.77,8.01-8.32,8.93-13.86C890.94-17.93,886.78-16.69,883.09-15z M1018.61,2.71c0.46,0.77,1.08,1.39,1.54,2.16
	c1.08-1.54,2.31-3.08,3.39-4.47l-2.16-0.46C1020.61,1.02,1019.53,1.94,1018.61,2.71L1018.61,2.71z M925.44,9.02
	c-2.62,4-6.16,7.39-8.93,11.24c-0.62,1.85-0.92,4.93,1.39,5.85c4.62-3.7,7.7-8.62,11.4-13.24c2.46-2.93,4.62-6.31,6.01-9.86
	C931.44,3.63,927.75,5.79,925.44,9.02L925.44,9.02z M1014.45,11.18l2.62,0.31c1.08-1.69,2.31-3.39,3.39-5.08
	C1017.68,6.56,1015.22,8.41,1014.45,11.18z M859.53,21.5c-2.62,2-3.39,6.31-7.24,6.47c1.69,0,3.39,0.31,4.93,0.92
	c4.31-2.62,8.32-5.7,12.01-9.09C865.99,19.8,862.45,19.65,859.53,21.5L859.53,21.5z M873.69,31.97c5.08-2.31,10.16-5.54,13.24-10.47
	l-1.39-1.54C879.08,19.8,873.69,25.66,873.69,31.97L873.69,31.97z M817.02,22.27c-6.62,7.39-14.48,13.55-20.48,21.56
	c1.54,1.08,3.08,2,4.62,2.93c2.46-1.23,5.08-2,7.85-2.31c0,0.62,0.15,1.69,0.15,2.31c-1.08,0.92-2.16,2-3.08,2.93
	c5.24,3.08,10.01,7.08,16.02,8.62c3.7-2.46,6.78-6.01,11.24-7.08c1.69-3.39,4-6.47,6.47-9.24c1.69-1.85,3.7-3.85,3.7-6.47
	c-0.77-0.92-1.54-1.85-2.31-2.77c1.39-3.23,3.08-6.31,4.93-9.39c-3.54,1.54-6.16,4.93-10.16,5.85l1.23-2c0-1.08,0-3.39,0-4.47
	c-3.7,0.46-7.08,2-9.7,4.77c-5.08,4.93-10.78,9.24-16.94,12.78c1.69-3.39,3.7-6.78,6.01-9.86c-0.92-0.15-2.62-0.46-3.54-0.46
	c2.62-2.31,5.08-5.08,7.08-8.01L817.02,22.27z M553.84,24.58c-200.97,5.85-368.98,154.77-398.86,353.74
	c-8.16,55.29-5.24,111.65,8.78,165.86c10.47,40.5,27.1,79,49.28,114.58c120.89,194.81,376.99,254.87,571.8,133.83
	s254.87-376.99,133.83-571.8C840.58,94.96,701.68,20.27,553.84,24.58L553.84,24.58z M849.98,31.66l31.11,13.4
	c1.54-0.15,2.93-0.46,4.47-0.62c0-0.77,0.15-2.31,0.31-3.08c-2,0.46-3.7,1.85-4.77,3.7L849.98,31.66z M824.26,61.69
	c2.62,1.85,5.39,3.7,8.01,5.54c4.62-5.85,8.47-12.47,12.47-18.63c-1.08-0.77-2-1.54-3.08-2.31
	C834.73,50.14,832.11,59.23,824.26,61.69z M972.25,51.37c2.31-1.39,4.47-3.08,6.16-5.08C975.33,46.6,973.64,49.06,972.25,51.37
	L972.25,51.37z M872.62,55.69c0.77,1.23,1.85,1.54,3.39,0.62l0.46-2.31C875.08,53.22,872.77,53.99,872.62,55.69L872.62,55.69z
	 M971.48,66c6.16,0.46,7.55-6.78,9.7-11.09C975.33,55.53,973.02,61.08,971.48,66L971.48,66z M857.52,70.47
	c-2.31,3.54-5.08,6.62-7.39,10.16l3.23,2.93c4.31-5.24,9.86-9.86,11.7-16.79C862.3,67.08,859.06,67.85,857.52,70.47L857.52,70.47z
	 M113.09,566.35c2.62,0.46,5.08-1.08,6.01-3.7l-3.54-0.77C114.63,563.27,113.86,564.81,113.09,566.35L113.09,566.35z M83.83,585.29
	c-1.54,0.92-0.46,2.93-0.62,4.31c6.31-0.62,11.55-5.08,15.4-9.86C92.91,578.36,88.14,582.06,83.83,585.29L83.83,585.29z
	 M133.88,637.65c1.54,1.54,2.93,3.23,4.31,4.93c4.93-0.62,7.85-4.93,9.86-8.93l-1.39-2.16
	C141.89,630.57,134.49,631.95,133.88,637.65L133.88,637.65z M148.51,642.12c-0.62,1.23-1.23,2.31-1.69,3.54
	c1.08,0.31,2.16,0.77,3.39,1.23c1.69-0.92,1.39-2.77,1.54-4.31L148.51,642.12z M121.25,765.01c-1.08,2.16,0.31,4.16,2.77,3.23
	c3.85-1.54,7.7-4.16,9.39-8.16C128.8,759.31,124.64,762.08,121.25,765.01z M272.63,811.21c-1.23,1.69,1.39,4,2.46,2
	C276.48,811.52,273.71,809.21,272.63,811.21L272.63,811.21z M296.04,821.99c4.31,1.08,8.01-1.69,10.47-4.77l-3.7-2.16
	C300.2,816.91,297.89,819.22,296.04,821.99L296.04,821.99z M260.93,819.53l-39.58,32.34c0,0.62-0.15,1.85-0.31,2.31
	c1.54-0.31,3.23-0.46,4.77-0.77c0-0.77,0.31-2.31,0.31-3.08c-1.69,0.46-3.23,0.92-4.77,1.54L260.93,819.53z M268.63,839.24
	c2.31,0,4.47-1.23,5.7-3.08l-3.7-0.92c-40.35,33.73-40.96,34.96-41.58,36.34L268.63,839.24z M270.17,850.02c0,1.08,0,2.16,0,3.23
	c2.93,1.69,6.93,2.16,8.47-1.54c-8.47-13.24-26.03-17.25-39.42-8.78c-13.4,8.47-17.25,26.03-8.78,39.42L270.17,850.02z
	 M282.64,868.04c3.7,4.47,11.09,1.85,12.94-3.08c-43.89,33.11-49.28,31.88-52.51,35.27L282.64,868.04z M318.52,873.27
	c3.85,0.46,8.32-0.15,10.32-3.85l-2.93-1.85c-10.47-12.94-29.41-15.09-42.5-4.62s-15.09,29.41-4.62,42.5L318.52,873.27z
	 M286.49,880.66c-2,1.85-4.93,2-6.93,3.85c-0.31,1.85-0.46,3.54-0.62,5.39c-2,0-4,0.15-6.01,0.31c0.92,2.31,2.16,4.62,3.23,6.93
	c5.7,0.46,9.09-4.62,13.86-6.78c2.31-1.39,5.08,0.46,7.55-0.31c3.54-1.54,6.93-3.39,10.32-5.24c-1.85-4.62,0.62-8.78,2.77-12.78
	c-47.12,37.42-57.44,34.19-63.91,40.81L286.49,880.66z M272.94,918.7c0,0.62,0,2,0.15,2.62c1.39-0.15,2.77-0.31,4.16-0.46
	c0.15-0.62,0.31-2,0.46-2.62C276.02,918.39,274.48,918.55,272.94,918.7z M259.39,929.48c4.47,1.39,6.47-3.39,8.93-6.31
	C264.32,923.63,261.39,926.25,259.39,929.48L259.39,929.48z"/>
<path class="st0" d="M942.38-111.56h0.92l-2.46,2.16l-2.77-0.15L942.38-111.56z"/>
<path class="st0" d="M960.55-96.93c0.77-3.23,2.62-6.16,5.54-7.85C965.79-101.39,963.78-98.31,960.55-96.93z"/>
<path class="st0" d="M939.3-97.85c2.16-2.62,4-5.85,7.55-6.31c0,2.31,0.46,4.77-0.92,6.93c-1.39,4.16-6.16,5.39-8.78,8.62
	c-4.31,4.77-6.16,11.7-12.01,15.09c1.23-3.54,4.31-6.16,5.85-9.55c1.54-2.77-1.85-5.39-0.46-8.16
	C931.6-95.39,935.76-96.93,939.3-97.85z"/>
<path class="st0" d="M951-92.15c-1.23,3.39-3.39,6.31-6.01,8.78l-3.7-0.15C942.22-88.46,947.92-89.23,951-92.15z"/>
<path class="st0" d="M1092.68-66.74c3.85-4.47,6.16-10.01,8.93-15.25c0.46,0.62,1.39,1.69,1.85,2.31
	c-2.31,4.16-4.16,8.47-7.24,12.17C1094.84-67.21,1093.76-67.05,1092.68-66.74z"/>
<path class="st0" d="M1061.57-71.36c0.46-2.93,3.08-4.47,5.85-4.93C1066.19-73.83,1064.04-72.13,1061.57-71.36z"/>
<path class="st0" d="M1080.67-34.4c1.69-2.16,2.77-7.08,6.16-5.85C1086.98-37.02,1084.21-33.02,1080.67-34.4z"/>
<path class="st0" d="M1093.61-30.4c-1.69-0.77-1.54-1.69,0.15-2.77C1095.45-32.25,1095.45-31.32,1093.61-30.4z"/>
<path class="st0" d="M826.42-14.69c-5.54-3.08-4.93-10.63-0.31-14.17c1.23,1.85,3.39,3.54,3.39,5.85
	C828.88-20.08,827.96-17.31,826.42-14.69z"/>
<path class="st0" d="M908.81,2.71c1.54-1.85,3.23-3.54,4.93-5.08c0,0.77,0.15,2.31,0.15,3.08C912.19,1.48,910.5,2.09,908.81,2.71z"
	/>
<path class="st0" d="M1034.78,8.1c-0.46-1.23-0.15-2.62,0.92-3.39l1.69,1.08C1037.7,7.18,1036.16,9.02,1034.78,8.1z"/>
<path class="st0" d="M1059.11,45.21c4-1.69,7.24-5.54,12.01-5.39c3.39-0.31,6.62,1.39,8.16,4.47c-4.93,1.39-10.16,1.54-15.25,2.62
	c-4.47,0.77-8.78,2.16-13.4,1.39C1053.26,46.91,1056.34,46.29,1059.11,45.21z"/>
<path class="st0" d="M1014.91,43.67c2.31-1.08,4.93-1.54,7.39-1.69c-2.31,3.7-4.77,7.24-7.55,10.47
	C1014.76,49.53,1014.76,46.6,1014.91,43.67z"/>
<path class="st0" d="M1010.75,53.99l1.23,1.54c-0.92,2.31-2.16,4.62-3.39,6.78c-0.62,0.15-1.85,0.31-2.46,0.46
	c-1.54,0.15-2.93,0.31-4.47,0.31C1005.52,61.08,1009.21,58.46,1010.75,53.99z"/>
<path class="st0" d="M1074.51,71.86c2-1.23,3.85-2.93,5.85-4.16c2.31,1.23,4.47,2.62,6.62,4c-2.31,1.39-4.62,2.46-7.08,3.85
	c0,1.08,0,3.39,0,4.47c2.46,0.46,4.93,0.62,7.39,1.23c4.62,3.85,10.47,5.54,16.32,4.77c2.46,2,5.85,1.08,8.78,1.39
	c0.62,1.85,1.08,3.7,1.69,5.54c2.31,0.92,6.93,0.92,6.93,4.31c-1.85,2.46-4,4.47-6.62,5.85c-0.62-0.92-1.69-2.46-2.16-3.39
	c-0.92,1.08-1.85,2-2.77,3.08c0.46,3.23-0.46,7.85-4.47,8.16c-0.46-1.54-0.77-2.93-1.08-4.47c-3.85-3.85-9.7-5.08-14.78-3.08
	c-1.23,4.16-2.93,8.32-5.08,12.17c-1.54,2.93-4.62,4.93-7.85,4.93c-0.77-1.85-1.54-3.7-2.46-5.54c-5.08,0.77-10.16,2.16-15.4,1.08
	c1.54-5.7,9.09-4.93,11.7-9.86c-0.92-0.92-1.08-2.93-2.62-3.08c-3.08,0.62-6.31,1.85-9.55,1.23c1.54-1.69,3.39-3.39,3.85-5.7
	c-3.08,1.54-6.78,2-10.01,0.92c0-0.31-0.15-1.08-0.15-1.54c2.46-1.54,5.08-2.93,6.47-5.7c-1.69-0.77-3.54-1.54-5.24-2.46
	c2-3.7,6.01-5.7,9.55-7.39c5.24,2.62,11.09-3.08,10.78-8.32c-3.54-1.69-7.7-1.08-10.63,1.39c-1.69,1.54-3.85,2.77-6.16,3.39
	c0.15-0.46,0.46-1.39,0.77-1.85c2.93-2.62,5.24-6.93,9.55-7.39c1.54-0.31,2.93-0.62,4.47-0.77
	C1071.28,70.62,1072.82,71.86,1074.51,71.86z M1077.74,86.49c2.46,0.62,4.31-0.77,5.7-2.62
	C1081.29,84.33,1079.44,85.25,1077.74,86.49L1077.74,86.49z"/>
<path class="st0" d="M518.11,80.79c19.25-2.46,38.96-0.92,57.6,4.31c17.25,6.78,33.26,16.02,47.89,27.41
	c9.09,6.93,16.79,15.25,24.79,23.41c14.94,16.79,27.41,35.73,37.11,56.06c10.32-3.7,20.48-7.55,31.26-9.24
	c24.49-4.77,50.05-2.77,74.07,3.39c40.04,10.63,76.54,32.34,106.72,60.52c21.71,20.64,40.35,44.66,52.82,71.92
	c1.85,2.31-1.23,3.54-2.77,4.77c-8.47,5.24-16.63,10.78-24.79,16.32c-1.39,0.77-2.93,1.85-4.62,1.85
	c-5.39-5.24-9.09-12.01-14.94-16.79c-1.23-19.1-9.39-36.81-19.1-52.82c-10.78-17.71-24.95-33.57-42.35-44.81
	c-14.94-9.7-31.88-16.17-49.43-18.79c-5.7-6.47-14.94-6.01-22.64-7.7c1.69,2.16,3.23,4.16,4.93,6.16c-4.16,0-8.32,0-12.47,0
	c-4.77-1.39-9.86-2.31-14.78-2.62l3.39,3.85c-33.26,4.31-65.3,17.56-92.86,36.65c-2.46-6.47-4.47-13.09-7.7-19.25
	c-2.93-5.39-2.62-11.7-5.08-17.25l-0.31,2c-2.31-23.72-7.55-47.74-20.48-68.07c-9.24-14.63-22.48-26.33-38.19-33.73
	c-16.48-8.01-34.8-10.93-52.82-12.32c-22.48-1.69-46.2-0.77-66.99,9.09c-18.33,8.62-32.49,24.79-40.66,43.12
	c-11.86,26.49-14.01,56.21-13.4,85.01c0.62,26.95,5.08,53.75,10.16,80.08c-25.1-16.32-51.9-30.49-80.85-38.5
	c-19.87-5.54-41.27-8.16-61.6-3.85c-10.63,2.31-20.79,6.78-29.57,13.24c1.69-4.47,5.7-7.39,9.24-10.16c4.16-3.08,8.32-6.62,13.4-7.7
	c26.8-5.7,54.36-5.24,81,1.23c8.78,2,17.09,5.24,25.56,7.85c-0.15-26.33,3.85-52.67,12.01-77.62
	c10.16-29.88,26.18-58.37,49.28-80.08C462.36,98.19,489.31,84.33,518.11,80.79z"/>
<path class="st0" d="M1002.13,96.8c1.39-0.62,2.77-1.23,4-1.85c-1.54,1.54-2.93,2.93-4.47,4.31
	C1001.82,98.65,1002.13,97.42,1002.13,96.8z"/>
<path class="st0" d="M219.04,443c4.62,22.18,14.48,43.74,30.03,60.52c12.94,13.71,28.95,23.87,46.82,29.88
	c22.18,7.7,45.89,9.55,69.3,8.93c-4.31,7.39-8.93,14.63-12.63,22.33c-20.33-5.7-40.19-12.78-59.44-21.41
	c-18.94-8.62-37.42-18.94-53.28-32.49c-14.32-11.86-26.33-26.18-35.57-42.2c-2.31-4.16-5.08-8.01-6.16-12.78
	c4.77-5.85,13.4-6.47,19.4-10.47L219.04,443z"/>
<path class="st0" d="M117.86,682.62c1.69-2,4.62,0.31,2,2C118.32,687.09,115.71,684.31,117.86,682.62z"/>
<path class="st0" d="M114.17,692.48c0.31-1.54,3.85-3.23,4.62-1.23C118.02,692.63,115.4,694.17,114.17,692.48z"/>
<path class="st0" d="M96.92,747.3c3.85-6.16,10.47-10.32,17.25-12.47C109.08,739.75,104.93,747.45,96.92,747.3z"/>
<path class="st0" d="M68.43,798.43c2.16-4.62,4.93-8.93,8.16-12.78l2.31,2c-2.16,3.54-5.54,6.47-6.47,10.63L68.43,798.43z"/>
<path class="st0" d="M87.22,793.04c1.08-2.46,2.93-4.62,5.24-6.16c1.39-0.77,2,1.08,2.93,1.69
	C93.22,791.04,90.3,792.58,87.22,793.04z"/>
<path class="st0" d="M389.21,910.69h2.46v2l-2.77,0.46C388.9,912.54,389.06,911.31,389.21,910.69z"/>
<path class="st0" d="M452.35,910.39h2.77c-0.15,0.46-0.31,1.54-0.46,2.16l-2.16,0.31C452.5,912.23,452.35,911,452.35,910.39z"/>
<path class="st0" d="M460.82,912.54c0.31-1.39,1.69-2.16,3.08-1.85c0,0.46,0.31,1.39,0.31,1.85
	C463.44,913.62,460.82,914.7,460.82,912.54z"/>
<path class="st0" d="M380.12,920.55c2.31,1.23,2.77,3.7,0.46,5.24l-2.46-1.23C378.89,923.17,379.51,921.78,380.12,920.55z"/>
<path class="st0" d="M371.65,927.79l1.23,0.62c-0.31,0.31-0.92,0.77-1.23,0.92c-0.46,4.93-4.62,8.16-8.78,10.01
	c-0.46-0.92-1.54-2.93-2-3.85c3.08-2.62,6.31-6.16,10.63-6.47L371.65,927.79z"/>
<path class="st0" d="M376.27,935.18c3.39-2.31,6.78-5.85,11.4-4.77c-2.62,2.46-5.39,4.77-8.32,6.93l-2.77-0.15
	C376.43,936.72,376.27,935.64,376.27,935.18z"/>
<path class="st0" d="M375.5,947.5c1.08-2,2.77-3.85,4.77-5.08C381.05,945.81,377.81,946.58,375.5,947.5z"/>
<path class="st0" d="M350.09,954.28c1.08-3.23,4-5.39,7.39-5.54C356.1,951.66,353.79,954.74,350.09,954.28z"/>
<path class="st0" d="M290.19,956.28c-1.23-1.54,1.23-3.39,2.46-1.85C293.88,955.82,291.42,957.66,290.19,956.28z"/>
<path class="st0" d="M244.14,967.67c4-1.54,7.85-5.39,12.32-2.93c-3.39,3.39-7.08,6.16-11.24,8.62c-0.15,1.85,2,2.62,2.93,4
	c-2.16,1.85-5.08,2-7.7,2.93c-4.16,1.54-7.24,5.08-11.55,6.47c-2.16,0.31-4.31,0.31-6.47,0.15c-0.15-1.39-0.31-2.77-0.31-4.16
	c3.7-2,8.32-2.77,10.47-6.78C235.06,971.68,239.68,969.52,244.14,967.67z"/>
<path class="st0" d="M339.16,983.69c6.01-2.62,11.4-6.62,17.56-9.09c-0.15,3.7-4.16,5.08-6.78,7.08
	c-6.16,2.93-12.01,6.31-17.71,10.01c1.08-2.31,2.46-4.62,3.54-6.93c-1.54-1.23-3.08-2.31-4.77-3.39c0.62-0.77,1.39-1.39,2-2
	C334.85,981.07,336.39,983.54,339.16,983.69z"/>
<path class="st0" d="M368.8,781.7l1.8-0.3c-1.5,1.3-3,2.5-4.7,3.5c0-0.5,0.1-1.3,0.1-1.8C367,782.6,367.9,782.2,368.8,781.7z"/>
<path class="st0" d="M346,788.8c0.3-1.2,0.9-1.5,1.8-0.7c-0.1,0.4-0.3,1.3-0.5,1.8L346,788.8z"/>
<path class="st0" d="M348.6,790.5c2.2-1.3,4.8-0.5,7.2-0.4c-0.2,1.3-0.2,2.9-1.6,3.7c-2.2,0.1-4.4-0.6-6.6-1L348.6,790.5z"/>
<path class="st1" d="M553.84,24.58c229.31-6.62,420.57,173.87,427.2,403.02s-173.87,420.57-403.17,427.2
	c-147.84,4.31-286.9-70.38-364.98-196.2c-22.18-35.42-38.65-74.07-49.13-114.42c-13.86-54.21-16.94-110.57-8.78-165.86
	C184.7,179.19,352.71,30.12,553.84,24.58L553.84,24.58z M518.11,80.79c-28.64,3.54-55.75,17.25-76.69,37.11
	c-23.1,21.71-39.12,50.2-49.28,80.08c-8.16,25.1-12.17,51.28-12.01,77.62c-8.47-2.62-16.94-5.85-25.56-7.85
	c-26.49-6.47-54.21-6.93-81-1.23c-5.08,1.23-9.24,4.62-13.4,7.7c-3.54,2.77-7.55,5.54-9.24,10.16
	c-10.16,8.32-18.17,18.94-23.72,30.8c-12.32,26.64-14.01,56.52-13.4,85.47c-0.15,14.32,1.69,28.64,5.24,42.5l-1.54,2.31
	c-6.16,4.16-14.63,4.62-19.4,10.47c0.92,4.62,3.85,8.62,6.16,12.78c9.24,16.02,21.25,30.34,35.57,42.2
	c16.02,13.55,34.34,23.87,53.28,32.49c19.25,8.62,39.12,15.71,59.44,21.41c-12.47,24.64-21.56,51.59-22.64,79.46
	c-1.08,23.25,4.16,47.12,16.63,66.99c8.78,14.32,20.94,26.18,33.88,36.65c17.4,13.86,37.88,24.64,60.06,28.34
	c21.1,3.85,42.97,0.77,62.83-6.78c21.25-8.01,40.35-20.94,56.98-36.04c28.95-26.64,52.05-60.06,64.68-97.33
	c3.39,2,5.85,5.24,8.78,8.01c10.16,9.86,21.1,18.94,32.65,27.1c29.26,20.79,62.52,37.27,98.25,43.27
	c24.33,4.16,50.51,2.62,72.84-8.47c17.71-8.62,32.19-23.25,41.89-40.19c11.55-20.02,20.02-42.04,23.1-64.99
	c3.08-22.33,0.77-44.97-6.47-66.22c-12.32-35.73-37.58-65.76-67.45-88.09c24.02-16.32,46.35-36.65,60.98-62.37
	c10.47-17.86,15.25-38.5,13.86-59.29c5.85,4.77,9.55,11.55,14.94,16.79c1.69,0,3.08-1.08,4.62-1.85
	c8.32-5.39,16.48-11.09,24.79-16.32c1.54-1.23,4.62-2.46,2.77-4.77c-12.47-27.26-31.11-51.44-52.82-71.92
	c-30.03-28.18-66.68-49.9-106.72-60.52c-24.18-6.16-49.59-8.01-74.07-3.39c-10.78,1.85-21.1,5.7-31.26,9.24
	c-9.7-20.33-22.18-39.12-37.11-55.9c-8.01-8.01-15.86-16.48-24.95-23.41c-14.63-11.4-30.65-20.64-47.89-27.41
	C556.92,79.86,537.36,78.48,518.11,80.79L518.11,80.79z"/>
<path class="st1" d="M1010.29,53.53l2.93,1.23c-0.62,1.39-1.39,2.62-2,4c-1.08,1.54-2.16,3.08-3.23,4.62l-2-0.46
	c0.62-0.15,1.85-0.31,2.46-0.46c1.39-2.16,2.46-4.47,3.39-6.78l-1.23-1.54L1010.29,53.53z"/>
<path class="st1" d="M770.05,200.6c7.7,1.69,16.94,1.23,22.64,7.7c-5.85-0.92-11.86-1.39-17.71-1.54
	C773.29,204.6,771.75,202.6,770.05,200.6z"/>
<path class="st1" d="M747.57,204.14c5.08,0.31,10.01,1.23,14.78,2.62c-3.85,0.31-7.55,0.77-11.4,1.23L747.57,204.14z"/>
<path class="st1" d="M645.47,208.15c2.46,5.54,2.16,11.86,5.08,17.25c3.23,6.16,5.24,12.78,7.7,19.25
	c-4.16,2.93-8.16,6.16-12.32,9.09c0.92-14.48,0-28.95-0.92-43.43L645.47,208.15z"/>
<path class="st2" d="M509.95,154.4c8.01,9.7,12.94,21.56,17.25,33.26c7.24,21.25,10.63,43.58,13.09,65.76
	c2.31,23.56,3.39,47.12,4.62,70.69c0.31,6.78,1.08,13.4,0.62,20.17c-2.16,0.15-4.31,0.15-6.31,0.46
	c-0.92-53.75-10.16-107.03-22.18-159.24C514.87,174.88,511.64,164.87,509.95,154.4z"/>
<path class="st2" d="M729.7,306.09c28.95-13.71,62.52-18.17,93.63-9.7c-6.78,1.69-13.71,0.46-20.64,0.92
	c-23.41,1.54-46.35,7.7-67.45,17.86c-34.19,16.17-62.68,42.2-86.55,70.99c-3.85,4.77-7.39,9.86-11.55,14.48
	c-1.23-2.46-2.62-4.93-3.85-7.39c-0.46-1.69,0.77-3.08,1.54-4.47c13.09-17.4,27.57-33.42,43.58-48.05
	C693.67,326.88,710.92,315.18,729.7,306.09z"/>
<path class="st2" d="M283.1,402.03c22.48-10.63,48.2-12.32,72.53-8.93c34.34,5.39,66.07,20.33,97.02,35.42
	c0,1.69-0.15,3.39-0.15,5.08c-0.15,2.77-0.31,5.54-0.46,8.32c-22.02-9.86-43.74-20.48-66.99-27.41
	c-21.87-6.78-45.28-10.63-68.22-7.7c-11.86,1.69-23.41,5.08-34.03,10.32c-4.62,2.46-9.09,5.24-14.01,7.24
	C266.32,414.35,274.48,405.27,283.1,402.03z"/>
<path class="st2" d="M627.14,502.44c1.54-2.31,3.08-4.62,4.62-6.93c70.07,26.18,133.06,67.91,191.88,113.65
	c4.62,3.08,6.16,8.93,6.93,14.17c0.46,2.62-1.69,4.47-2.77,6.62c-10.01-9.24-19.1-19.56-29.72-28.03
	c-50.67-42.81-110.26-73.77-171.71-97.79L627.14,502.44z"/>
<path class="st2" d="M511.33,552.64c3.39-4.93,5.54-11.09,10.16-15.09l1.39,0.15c1.54,0.46,3.08,0.92,4.77,1.54
	c0.77,1.08,0.15,2.31-0.46,3.39c-23.41,36.19-41.27,75.77-67.3,110.26c-9.09,11.24-18.94,22.48-32.03,29.26
	c-6.31,3.23-13.55,4.62-20.64,4.16c9.55-6.78,18.48-14.32,26.8-22.64C465.29,630.72,487.46,590.84,511.33,552.64z"/>
<path class="st3" d="M479.15,374.47c15.71-16.79,37.11-27.41,60.06-29.88c2.16-0.15,4.31-0.31,6.31-0.46
	c35.57-2,70.53,18.33,87.78,49.28c1.23,2.46,2.62,4.93,3.85,7.39c13.86,29.88,12.01,66.68-5.39,94.71
	c-1.54,2.31-3.08,4.77-4.62,6.93c-13.4,18.33-32.8,31.26-54.67,36.96c-14.63,3.39-30.18,4.16-44.66-0.31
	c-1.54-0.62-3.08-1.08-4.77-1.54c-20.33-7.08-37.58-21.56-50.36-38.96c-11.86-16.48-20.64-36.19-20.48-56.83
	c0.15-2.77,0.31-5.54,0.46-8.32C454.66,411.43,464.05,390.64,479.15,374.47z"/>
<path class="st4" d="M466.67,105.27c20.79-9.86,44.35-10.78,66.99-9.09c18.02,1.39,36.34,4.31,52.82,12.32
	c15.71,7.39,28.95,18.94,38.19,33.57c12.94,20.33,18.17,44.35,20.48,68.07c0.92,14.48,1.85,28.95,0.92,43.43
	c4.16-2.93,8.16-6.16,12.32-9.09c27.57-19.1,59.44-32.34,92.86-36.65c3.85-0.46,7.55-0.92,11.4-1.23c4.16,0,8.32,0,12.47,0
	c6.01,0.15,11.86,0.62,17.71,1.39c17.71,2.62,34.5,9.09,49.43,18.79c17.4,11.4,31.57,27.26,42.35,44.81
	c9.7,16.02,18.02,33.73,19.1,52.82c1.39,20.64-3.39,41.27-13.86,59.29c-14.48,25.72-36.96,45.89-61.14,62.22
	c29.88,22.48,55.29,52.36,67.45,88.09c7.24,21.25,9.55,43.89,6.47,66.22c-3.08,22.95-11.55,44.97-23.1,64.99
	c-9.86,16.94-24.18,31.72-41.89,40.19c-22.33,11.24-48.51,12.78-72.84,8.47c-35.73-6.01-68.99-22.48-98.25-43.27
	c-11.55-8.32-22.48-17.4-32.65-27.1c-2.93-2.77-5.39-5.85-8.78-8.01c-12.47,37.42-35.73,70.84-64.68,97.33
	c-16.79,15.09-35.88,28.03-56.98,36.04c-19.87,7.55-41.73,10.47-62.83,6.78c-22.18-3.7-42.66-14.32-60.06-28.34
	c-12.94-10.47-25.1-22.33-33.88-36.65c-12.32-19.87-17.71-43.74-16.63-66.99c1.08-27.87,10.01-54.82,22.64-79.46
	c3.85-7.7,8.32-14.94,12.63-22.33c-23.41,0.77-47.12-1.23-69.3-8.93c-17.86-5.85-33.88-16.17-46.82-29.88
	c-15.55-16.79-25.41-38.19-30.03-60.52c-3.7-13.86-5.39-28.18-5.24-42.5c-0.62-28.8,1.08-58.83,13.4-85.47
	c5.39-11.86,13.55-22.48,23.72-30.8c8.93-6.47,18.94-10.93,29.57-13.24c20.48-4.31,41.73-1.69,61.6,3.85
	c28.95,8.01,55.75,22.18,80.85,38.5c-5.08-26.49-9.55-53.13-10.16-80.08c-0.77-28.8,1.54-58.37,13.4-85.01
	C434.18,130.07,448.19,113.9,466.67,105.27z M509.95,154.4c1.69,10.47,4.93,20.48,7.08,30.8c12.01,52.36,21.25,105.49,22.18,159.24
	c-22.95,2.46-44.2,13.09-60.06,29.88c-15.25,16.17-24.64,36.96-26.64,59.14c0-1.69,0.15-3.39,0.15-5.08
	c-30.95-15.09-62.68-30.03-97.02-35.42c-24.33-3.39-50.05-1.69-72.53,8.93c-8.78,3.23-16.79,12.47-14.17,22.33
	c4.77-2,9.24-4.77,14.01-7.24c10.78-5.24,22.33-8.62,34.03-10.32c22.95-2.93,46.2,0.92,68.22,7.7c23.1,6.93,44.97,17.56,66.99,27.41
	c-0.15,20.64,8.62,40.35,20.48,56.83c12.63,17.25,29.88,31.72,50.36,38.96l-1.39-0.15c-4.62,4-6.78,10.01-10.16,15.09
	c-23.87,38.19-46.05,78.08-77.31,110.88c-8.32,8.16-17.25,15.86-26.8,22.64c7.08,0.46,14.32-0.92,20.64-4.16
	c12.94-6.78,22.95-17.86,32.03-29.26c26.03-34.5,43.89-74.07,67.3-110.26c0.62-1.08,1.39-2.16,0.46-3.39
	c14.48,4.47,30.03,3.7,44.66,0.31c22.02-5.54,41.27-18.63,54.82-36.96l-1.08,1.54c61.45,24.02,121.04,55.13,171.71,97.79
	c10.63,8.62,19.71,18.94,29.72,28.03c1.08-2,3.39-4,2.77-6.62c-0.77-5.24-2.31-11.09-6.93-14.17
	c-58.83-45.74-121.81-87.47-191.88-113.65c17.25-28.03,19.25-64.83,5.39-94.71c4.16-4.62,7.7-9.7,11.55-14.48
	c24.02-28.8,52.36-54.82,86.7-70.99c21.1-10.16,44.04-16.32,67.45-17.86c6.93-0.62,13.86,0.62,20.64-0.92
	c-30.95-8.32-64.68-4-93.63,9.7c-18.79,8.93-36.04,20.64-51.28,34.65c-16.02,14.63-30.49,30.8-43.58,48.05
	c-0.77,1.39-2,2.77-1.54,4.47c-17.25-30.8-52.21-51.28-87.78-49.28c0.46-6.78-0.31-13.4-0.62-20.17
	c-1.23-23.56-2.31-47.12-4.62-70.69c-2.46-22.18-5.7-44.51-13.09-65.76C522.88,175.96,517.95,164.1,509.95,154.4z"/>
<path class="st5" d="M382.13,917.16c1.85-0.77,2.46,0,2,1.85C382.28,919.78,381.51,919.16,382.13,917.16z"/>
<path class="st5" d="M400.76,944.73c1.54,0.15,1.85,1.08,0.77,2.31C399.84,946.88,399.68,946.11,400.76,944.73z"/>
<path class="st5" d="M369.81,950.12c2-0.77,2.62-0.15,2,1.85C369.81,952.58,369.19,951.97,369.81,950.12z"/>
<rect x="-28.9" y="-169" class="st6" width="1232" height="1232"/>
</svg>
