<?xml version="1.0" encoding="utf-8"?>
<!-- Generator: Adobe Illustrator 27.5.0, SVG Export Plug-In . SVG Version: 6.00 Build 0)  -->
<svg version="1.1" id="Layer_1" xmlns="http://www.w3.org/2000/svg" xmlns:xlink="http://www.w3.org/1999/xlink" x="0px" y="0px"
	 viewBox="0 0 128 128" style="enable-background:new 0 0 128 128;" xml:space="preserve">
<style type="text/css">
	.st0{clip-path:url(#SVGID_00000009553803548151332990000001620679620917610678_);}
	.st1{clip-path:url(#SVGID_00000003792498141478457150000002397858579617565841_);}
	.st2{fill:#989898;}
	.st3{fill:#040404;}
</style>
<g>
	<g>
		<g>
			<defs>
				<rect id="SVGID_1_" x="0.24" width="127.76" height="128"/>
			</defs>
			<clipPath id="SVGID_00000058577432493579465270000009364669431195957692_">
				<use xlink:href="#SVGID_1_"  style="overflow:visible;"/>
			</clipPath>
			<g style="clip-path:url(#SVGID_00000058577432493579465270000009364669431195957692_);">
				<g>
					<g>
						<defs>
							<rect id="SVGID_00000059267908914970062760000005281953688791468938_" x="0.24" width="127.76" height="128"/>
						</defs>
						<clipPath id="SVGID_00000179631412047653604830000007769280362663071407_">
							<use xlink:href="#SVGID_00000059267908914970062760000005281953688791468938_"  style="overflow:visible;"/>
						</clipPath>
						<g style="clip-path:url(#SVGID_00000179631412047653604830000007769280362663071407_);">
							<path class="st2" d="M76.81,5.06l3.41,8.03c6.7,15.63,19.12,28.18,34.82,34.89l8.02,3.41c2.09,0.88,3.74,2.2,5.05,3.74
								c-3.95-28.51-26.48-51.07-54.93-55.03C74.61,1.32,75.93,2.97,76.81,5.06z M5.29,51.29l8.02-3.41
								c15.6-6.71,28.12-19.15,34.82-34.89l3.41-8.03c0.77-1.98,2.09-3.74,3.74-5.06C26.82,3.85,4.3,26.41,0.35,54.92
								C1.55,53.49,3.2,52.17,5.29,51.29z M122.95,76.71l-8.02,3.41c-15.6,6.71-28.12,19.15-34.82,34.89l-3.41,7.92
								c-0.77,1.98-2.09,3.74-3.74,5.06c28.45-3.96,50.97-26.52,54.93-55.03C126.68,74.62,124.92,75.94,122.95,76.71L122.95,76.71z
								 M51.43,122.94l-3.41-7.92c-6.7-15.63-19.12-28.18-34.82-34.89l-8.02-3.41c-1.98-0.77-3.74-2.09-5.05-3.74
								C4.08,101.48,26.6,124.04,55.05,128C53.52,126.68,52.31,124.92,51.43,122.94z"/>
						</g>
					</g>
				</g>
				<path class="st3" d="M35.17,57.78l3.95-1.65c7.69-3.3,13.84-9.47,17.14-17.17L57.91,35c2.31-5.5,10.11-5.5,12.52,0l1.65,3.96
					c3.3,7.7,9.45,13.87,17.14,17.17l3.95,1.65c5.49,2.31,5.49,10.13,0,12.55l-3.95,1.65c-7.69,3.3-13.84,9.47-17.14,17.17
					l-1.65,3.96c-2.31,5.5-10.11,5.5-12.52,0l-1.65-3.96c-3.3-7.7-9.45-13.87-17.14-17.17l-3.95-1.65
					C29.68,67.91,29.68,60.09,35.17,57.78z"/>
			</g>
		</g>
	</g>
</g>
</svg>
