<?xml version="1.0" encoding="utf-8"?>
<!-- Generator: Adobe Illustrator 27.5.0, SVG Export Plug-In . SVG Version: 6.00 Build 0)  -->
<svg version="1.1" id="Layer_1" xmlns="http://www.w3.org/2000/svg" xmlns:xlink="http://www.w3.org/1999/xlink" x="0px" y="0px"
	 viewBox="0 0 500 500" style="enable-background:new 0 0 500 500;" xml:space="preserve">
<style type="text/css">
	.st0{fill-rule:evenodd;clip-rule:evenodd;fill:#0A1435;}
</style>
<path class="st0" d="M472.77,217.64c1.04,8.81,1.62,17.78,1.62,26.91c0,123.77-100.46,224.14-224.41,224.14
	c-90.25,0-168.03-53.21-203.67-129.94l35.9-18.05c29,63.64,93.21,107.87,167.77,107.87c101.73,0,184.24-82.38,184.24-184.02
	c0-1.88-0.03-3.77-0.09-5.65L472.77,217.64z M249.99,20.41c94.51,0,175.4,58.37,208.46,141.01l-38.4,12.22
	c-27.78-66.42-93.47-113.11-170.06-113.11c-101.73,0-184.24,82.38-184.24,184.02c0,1.25,0.03,2.52,0.06,3.77l-37.58,30.7
	c-1.74-11.24-2.64-22.74-2.64-34.47C25.61,120.75,126.07,20.41,249.99,20.41z"/>
<path class="st0" d="M0,334.16l219.48-179.3l-9.11,74.56l128.1-72.5l-6.5,70.79L500,174.27L272.11,299.64l17.02-71.34l-131.66,77.08
	l8.7-54.72L0,334.16z"/>
</svg>
