<?xml version="1.0" encoding="utf-8"?>
<!-- Generator: Adobe Illustrator 27.5.0, SVG Export Plug-In . SVG Version: 6.00 Build 0)  -->
<svg version="1.1" id="Layer_1" xmlns="http://www.w3.org/2000/svg" xmlns:xlink="http://www.w3.org/1999/xlink" x="0px" y="0px"
	 viewBox="0 0 500 500" style="enable-background:new 0 0 500 500;" xml:space="preserve">
<style type="text/css">
	.st0{fill:#FFFFFF;}
	.st1{fill-rule:evenodd;clip-rule:evenodd;fill:#060404;}
</style>
<circle class="st0" cx="250" cy="250" r="250"/>
<path id="形状结合" class="st1" d="M438.07,303.1v30.72c0,86-125.32,135.15-163.41,147.44l0,0l-13.52,4.91v-52.83l7.37-2.46
	c60.2-22.12,120.41-60.2,120.41-97.06l0,0V303.1C388.93,303.1,438.07,303.1,438.07,303.1z M247.64,51.23l51.6,15.97v54.06
	l-51.6-15.97l-3.69,1.23v121.64h54.06v50.37h-54.06v206.41l-14.74-4.91c-6.14-2.46-17.2-6.14-30.72-12.29l0,0l-6.14-2.46V67.21
	L247.64,51.23z M177.6,73.35v54.06l-70.03,20.89v79.86h70.03v232.21L161.63,453C113.71,428.43,57.2,387.88,57.2,330.13l0,0V303.1
	h50.37v27.03c0,12.29,6.14,24.57,18.43,36.86l0,0v-88.46H57.2V108.98L177.6,73.35z M313.98,72.12l122.86,38.09v169.55h-72.49v73.72
	c0,0-15.97,20.89-50.37,38.09c0-9.83,0-158.49,0-249.41V72.12z M365.58,140.92v87.23h22.12V148.3L365.58,140.92z"/>
</svg>
