<?xml version="1.0" encoding="utf-8"?>
<!-- Generator: Adobe Illustrator 27.5.0, SVG Export Plug-In . SVG Version: 6.00 Build 0)  -->
<svg version="1.1" id="Layer_1" xmlns="http://www.w3.org/2000/svg" xmlns:xlink="http://www.w3.org/1999/xlink" x="0px" y="0px"
	 viewBox="0 0 500 500" style="enable-background:new 0 0 500 500;" xml:space="preserve">
<style type="text/css">
	.st0{fill:#FFFFFF;}
	.st1{fill-rule:evenodd;clip-rule:evenodd;fill:#060404;}
</style>
<circle class="st0" cx="250" cy="250" r="250"/>
<path id="形状结合" class="st1" d="M424.6,281.5v28.2c0,78.8-114.9,123.9-149.8,135.2l0,0l-12.4,4.5v-48.4l6.8-2.3
	c55.2-20.3,110.4-55.2,110.4-89l0,0v-28.2C379.5,281.5,424.6,281.5,424.6,281.5z M250,50.6l47.3,14.6v49.6L250,100.2l-3.4,1.1v111.5
	h49.6V259h-49.6v189.2l-13.5-4.5c-5.6-2.3-15.8-5.6-28.2-11.3l0,0l-5.6-2.3v-365L250,50.6z M185.8,70.9v49.6l-64.2,19.2v73.2h64.2
	v212.9l-14.6-6.8c-43.9-22.5-95.7-59.7-95.7-112.7l0,0v-24.8h46.2v24.8c0,11.3,5.6,22.5,16.9,33.8l0,0V259H75.4V103.6L185.8,70.9z
	 M310.8,69.8l112.6,34.9v155.5H357v67.6c0,0-14.6,19.2-46.2,34.9c0-9,0-145.3,0-228.7L310.8,69.8L310.8,69.8z M365.6,140.9v87.2
	h22.1v-79.8L365.6,140.9z"/>
</svg>
