<?xml version="1.0" encoding="utf-8"?>
<!-- Generator: Adobe Illustrator 27.5.0, SVG Export Plug-In . SVG Version: 6.00 Build 0)  -->
<svg version="1.1" id="Layer_1" xmlns="http://www.w3.org/2000/svg" xmlns:xlink="http://www.w3.org/1999/xlink" x="0px" y="0px"
	 viewBox="0 0 500 500" style="enable-background:new 0 0 500 500;" xml:space="preserve">
<style type="text/css">
	.st0{fill:#FFFFFF;}
</style>
<g id="Layer_2_00000000189134919106841610000013661203385933826463_">
</g>
<circle class="st0" cx="250" cy="252.44" r="250"/>
<g id="Layer_1-2_00000075855790519271012080000006857509610004124564_">
	<g id="Layer_1-2_00000146470877349772260210000003682561261859088042_">
		<path d="M343.83,86.55c13.62,0,24.69-11.25,24.69-25.06s-11.07-25.05-24.69-25.05c-13.62,0.07-24.69,11.3-24.69,25.12
			S330.21,86.55,343.83,86.55z M351.12,151.67c11.63-0.09,20.99-9.59,20.9-21.22l0,0c0-11.68-9.35-21.23-20.9-21.23
			c-11.55,0-20.9,9.48-20.9,21.23S339.55,151.67,351.12,151.67z M408.51,159.98c11.5,0,20.85-9.48,20.85-21.17
			s-9.35-21.17-20.85-21.17c-11.5,0-20.85,9.48-20.85,21.17S397.03,159.98,408.51,159.98z M401.62,215.69
			c9.85,0,17.83-8.1,17.83-18.08c0-9.98-7.98-18.08-17.83-18.08c-9.85,0-17.83,8.1-17.83,18.08
			C383.79,207.59,391.76,215.69,401.62,215.69z M447.57,233.76c9.93,0,17.96-8.16,17.96-18.21c0-10.05-8.03-18.21-17.96-18.21
			c-9.99,0.07-18.03,8.22-17.96,18.21c0,0,0,0,0,0l0,0C429.61,225.6,437.66,233.76,447.57,233.76z M343.87,208.16
			c10.16-0.06,18.34-8.34,18.28-18.49c0,0,0,0,0,0l0,0v-0.04c0-10.23-8.16-18.53-18.28-18.53c-10.12,0-18.28,8.28-18.28,18.53
			C325.59,199.8,333.76,208.16,343.87,208.16z M327.3,252.49c8.48,0,15.32-6.96,15.32-15.51c0.07-8.5-6.76-15.44-15.26-15.51h-0.06
			c-8.48,0-15.32,6.96-15.32,15.51S318.82,252.49,327.3,252.49z M384.78,260.32c8.45-0.06,15.25-6.95,15.19-15.4c0,0,0,0,0,0l0,0
			v-0.04c0-8.53-6.78-15.44-15.19-15.44s-15.19,6.91-15.19,15.44c-0.11,8.42,6.63,15.33,15.05,15.44c0,0,0,0,0,0H384.78
			L384.78,260.32z M430.61,278.32c8.48,0,15.32-6.96,15.32-15.57s-6.84-15.57-15.32-15.57c-8.48,0-15.32,6.96-15.32,15.57
			c-0.09,8.51,6.74,15.48,15.24,15.57H430.61z M407.97,311.95c7.16,0,12.94-5.91,12.94-13.12s-5.78-13.12-12.94-13.12
			s-12.94,5.91-12.94,13.12S400.82,311.95,407.97,311.95z M361.93,294.24c7.28,0,13.25-6.03,13.25-13.44
			c0-7.41-5.91-13.44-13.25-13.44c-7.34,0-13.25,6.03-13.25,13.44C348.69,288.21,354.65,294.24,361.93,294.24z M304.52,286.03
			c7.36-0.12,13.22-6.17,13.11-13.53c-0.11-7.19-5.91-12.99-13.09-13.11h-0.02c-7.36,0.12-13.22,6.17-13.11,13.53
			c0.11,7.19,5.91,12.99,13.09,13.11H304.52z M336.44,317.63c6.34,0,11.43-5.21,11.43-11.55c0.06-6.32-5.01-11.49-11.33-11.55h-0.09
			c-6.34,0-11.43,5.21-11.43,11.55c-0.07,6.31,4.99,11.48,11.3,11.55H336.44z M382.46,335.64c6.34,0,11.55-5.21,11.55-11.68
			s-5.14-11.68-11.55-11.68c-6.45,0-11.68,5.23-11.68,11.68S376.02,335.64,382.46,335.64z M356.54,349.15c5.02,0,9.1-4.14,9.1-9.23
			c0.03-5.06-4.04-9.19-9.1-9.23c-5.02,0-9.1,4.14-9.1,9.23C347.43,344.98,351.49,349.1,356.54,349.15z M331.98,356.4
			c4.57-0.03,8.26-3.76,8.23-8.33c0,0,0,0,0,0v-0.02c0-4.64-3.71-8.35-8.23-8.35c-4.57,0.03-8.26,3.76-8.23,8.33c0,0,0,0,0,0v0.02
			c-0.08,4.53,3.53,8.27,8.07,8.35L331.98,356.4z M310.47,332.37c5.41,0,9.8-4.46,9.8-9.93c0-5.46-4.39-9.93-9.8-9.93
			s-9.8,4.46-9.8,9.93C300.65,327.89,305.03,332.32,310.47,332.37z M278.9,309.61c6.28,0,11.43-5.14,11.43-11.55
			s-5.09-11.55-11.43-11.55c-6.28,0-11.43,5.14-11.43,11.55C267.47,304.4,272.57,309.55,278.9,309.61z M372.5,454.32
			c13.57,0,24.56-11.18,24.56-24.94s-11-24.94-24.56-24.94s-24.56,11.18-24.56,24.94S358.93,454.32,372.5,454.32L372.5,454.32z
			 M310.11,422.76c11.3,0,20.48-9.3,20.48-20.78c0-11.48-9.18-20.78-20.48-20.78c-11.3,0-20.48,9.3-20.48,20.78
			S298.79,422.76,310.11,422.76z M274.46,468.44c11.43,0,20.65-9.35,20.65-20.98c0-11.55-9.23-20.98-20.65-20.98
			s-20.65,9.35-20.65,20.98C253.71,458.96,262.96,468.35,274.46,468.44L274.46,468.44z M263.73,384.27
			c9.96-0.07,17.97-8.2,17.91-18.15c0,0,0,0,0,0l0,0c0.07-9.96-7.95-18.09-17.9-18.16c0,0,0,0,0,0l0,0
			c-9.96,0.07-17.97,8.2-17.91,18.15c0,0,0,0,0,0l0,0C245.84,376.11,253.87,384.27,263.73,384.27L263.73,384.27z M228.17,430.58
			c9.85,0,17.83-8.1,17.83-18.08s-7.98-18.08-17.83-18.08s-17.83,8.1-17.83,18.08c-0.1,9.89,7.84,17.98,17.73,18.08H228.17z
			 M189.84,462c9.85,0,17.78-8.1,17.78-18.03c0-9.98-7.98-18.03-17.78-18.03c-9.85,0-17.78,8.1-17.78,18.03S180.04,462,189.84,462
			L189.84,462z M157.94,421.1c8.43-0.08,15.22-6.95,15.19-15.39c0-8.48-6.78-15.39-15.19-15.39c-8.5,0.13-15.28,7.12-15.15,15.62
			C142.91,414.26,149.62,420.97,157.94,421.1z M196.34,389.54c8.44-0.06,15.24-6.95,15.19-15.39c0-8.53-6.78-15.39-15.19-15.39
			c-8.5,0.11-15.3,7.1-15.18,15.59c0.11,8.32,6.81,15.04,15.13,15.18L196.34,389.54z M232.17,343.25
			c8.45-0.06,15.25-6.95,15.19-15.4c0,0,0,0,0,0l0,0v-0.04c0-8.53-6.78-15.44-15.19-15.44c-8.45,0.06-15.25,6.95-15.19,15.4
			c0,0,0,0,0,0l0,0v0.04C216.97,336.34,223.76,343.25,232.17,343.25z M177.36,349.62c7.28,0,13.19-5.96,13.19-13.37
			c0-7.41-5.91-13.37-13.19-13.37c-7.28,0-13.19,5.96-13.19,13.37C164.17,343.66,170.08,349.62,177.36,349.62z M139.16,381.06
			c7.26-0.04,13.11-5.95,13.07-13.21c0,0,0,0,0,0l0,0v-0.04c0.07-7.25-5.75-13.18-12.99-13.25h-0.07
			c-7.26,0.04-13.11,5.95-13.07,13.21c0,0,0,0,0,0l0,0v0.04C126.04,375.08,131.89,381.01,139.16,381.06
			C139.16,381.06,139.16,381.06,139.16,381.06L139.16,381.06z M130.37,344.21c6.27-0.05,11.32-5.16,11.3-11.43
			c0-6.34-5.09-11.43-11.3-11.43c-6.21,0-11.3,5.14-11.3,11.43C119.07,339.12,124.16,344.21,130.37,344.21z M130.05,311.88
			c5.39-0.05,9.72-4.46,9.68-9.85c0,0,0,0,0,0l0,0c0-5.41-4.34-9.85-9.68-9.85s-9.68,4.39-9.68,9.85
			C120.38,307.49,124.71,311.88,130.05,311.88z M135.37,284.99c4.59,0,8.23-3.77,8.23-8.35c0-4.59-3.71-8.35-8.23-8.35
			c-4.59,0-8.23,3.77-8.23,8.35C127.14,281.23,130.78,284.99,135.37,284.99z M168.31,280.5c5.41,0,9.8-4.46,9.8-9.93
			c0-5.46-4.39-9.93-9.8-9.93s-9.8,4.46-9.8,9.93C158.49,276.01,162.87,280.45,168.31,280.5z M204.46,266.41
			c6.28,0,11.43-5.21,11.43-11.55c0.06-6.32-5.01-11.49-11.33-11.55h-0.09c-6.28,0-11.43,5.21-11.43,11.55
			c-0.05,6.33,5.04,11.5,11.37,11.55c0,0,0,0,0,0H204.46z M213.06,303.08c7.16-0.01,12.96-5.83,12.94-13s-5.83-12.96-13-12.94
			c-7.16,0.01-12.96,5.83-12.94,13c0.01,7.14,5.8,12.93,12.94,12.94H213.06z M168.77,312.84c6.28,0,11.3-5.14,11.3-11.5
			c0-6.36-5.09-11.5-11.3-11.5c-6.28,0.04-11.34,5.16-11.3,11.44c0,0,0,0,0,0v0.06c-0.09,6.26,4.91,11.41,11.17,11.5c0,0,0,0,0,0
			L168.77,312.84L168.77,312.84z M43.81,295.79c13.5,0,24.49-11.12,24.49-24.81s-11-24.81-24.49-24.81S19.32,257.31,19.32,271
			C19.32,284.69,30.31,295.79,43.81,295.79L43.81,295.79z M99.4,251.49c11.62,0,20.98-9.55,20.98-21.3c0-11.75-9.43-21.3-20.98-21.3
			c-11.66,0.08-21.05,9.6-20.98,21.26v0.04C78.42,242.01,87.85,251.49,99.4,251.49L99.4,251.49z M77.71,196.86
			c11.55,0,20.85-9.48,20.85-21.17s-9.35-21.17-20.85-21.17c-11.59,0.08-20.93,9.54-20.85,21.13c0,0,0,0,0,0v0.04
			c-0.12,11.57,9.17,21.05,20.74,21.17L77.71,196.86z M131.3,170.97c9.85,0,17.91-8.1,17.91-18.16s-8.03-18.16-17.91-18.16
			s-17.91,8.1-17.91,18.16C113.4,162.87,121.45,170.97,131.3,170.97L131.3,170.97z M153.21,225.47c9.93,0,17.96-8.16,17.96-18.21
			s-8.03-18.21-17.96-18.21s-17.96,8.16-17.96,18.21S143.28,225.47,153.21,225.47z M201.98,214.16c8.5-0.07,15.33-7.01,15.26-15.51
			l0,0c0.13-8.43-6.6-15.37-15.03-15.5c-8.43-0.13-15.37,6.6-15.5,15.03c0,0.16,0,0.31,0,0.47l0,0c-0.1,8.47,6.69,15.41,15.15,15.51
			L201.98,214.16z M244.11,214.3c7.28,0,13.19-5.96,13.19-13.32c0-7.36-5.91-13.32-13.19-13.32c-7.36,0-13.32,5.96-13.32,13.32
			C230.79,208.34,236.75,214.3,244.11,214.3L244.11,214.3z M278.92,222.32c6.09,0,11.12-5.02,11.12-11.25
			c0-6.23-4.96-11.25-11.12-11.25c-6.17,0.05-11.14,5.08-11.12,11.25C267.87,217.23,272.82,222.32,278.92,222.32z M283.46,181.29
			c5.38-0.04,9.71-4.42,9.68-9.8c0-5.41-4.34-9.8-9.68-9.8s-9.68,4.39-9.68,9.8C273.75,176.87,278.08,181.25,283.46,181.29z
			 M256.68,167.87c6.16-0.02,11.14-5.02,11.12-11.18s-5.02-11.14-11.18-11.12c-6.16,0.02-11.14,5.02-11.12,11.18
			c0.02,6.14,4.99,11.11,11.12,11.12H256.68z M222.28,159.73c7.26-0.06,13.11-5.98,13.07-13.25c0-7.36-5.84-13.25-13.07-13.25
			c-7.23,0-13.07,5.96-13.07,13.25c-0.06,7.26,5.77,13.19,13.03,13.25c0,0,0,0,0,0H222.28z M180.22,159.78
			c8.48,0,15.32-6.96,15.32-15.51s-6.84-15.51-15.32-15.51c-8.48,0-15.32,6.96-15.32,15.51
			C164.87,152.77,171.71,159.7,180.22,159.78z M123.57,120.99c9.6,0,17.33-7.85,17.33-17.58s-7.78-17.58-17.33-17.58
			c-9.6,0-17.33,7.85-17.33,17.58S114.02,120.99,123.57,120.99z M172.33,110.33c8.48,0,15.32-6.96,15.32-15.51
			s-6.84-15.51-15.32-15.51c-8.48,0-15.32,6.96-15.32,15.51S163.85,110.33,172.33,110.33z M214.44,110.52
			c7.28,0,13.19-5.96,13.19-13.37s-5.91-13.37-13.19-13.37c-7.33,0.04-13.23,6.01-13.19,13.34c0,0,0,0,0,0l0,0v0.04
			C201.22,104.48,207.11,110.46,214.44,110.52z M249,118.49c6.16,0,11.12-5.02,11.12-11.25S255.16,95.99,249,95.99
			c-6.21,0-11.25,5.04-11.25,11.25S242.79,118.49,249,118.49z M275.55,132.27c5.51-0.04,9.96-4.54,9.93-10.05
			c0-5.59-4.46-10.05-9.93-10.05c-5.46,0-9.93,4.52-9.93,10.05C265.62,127.75,270.08,132.27,275.55,132.27z M295.02,148.09
			c4.54-0.03,8.19-3.73,8.16-8.27c0,0,0,0,0,0l0,0v-0.02c0.04-4.54-3.6-8.24-8.14-8.28c0,0,0,0,0,0h-0.02
			c-4.54,0.03-8.19,3.73-8.16,8.27c0,0,0,0,0,0l0,0v0.02c-0.07,4.5,3.53,8.21,8.03,8.28c0,0,0,0,0,0L295.02,148.09L295.02,148.09z"
			/>
	</g>
</g>
</svg>
