<?xml version="1.0" encoding="utf-8"?>
<!-- Generator: Adobe Illustrator 27.5.0, SVG Export Plug-In . SVG Version: 6.00 Build 0)  -->
<svg version="1.1" id="Layer_1" xmlns="http://www.w3.org/2000/svg" xmlns:xlink="http://www.w3.org/1999/xlink" x="0px" y="0px"
	 viewBox="0 0 500 500" style="enable-background:new 0 0 500 500;" xml:space="preserve">
<style type="text/css">
	.st0{fill:#FEB92A;}
	.st1{fill:#FEF0D6;}
	.st2{fill:#354A53;}
</style>
<g>
	<path d="M86.63,61.5c-0.22,0.09-0.39,0.3-0.58,0.47"/>
	<path d="M127.77,32.13"/>
	<path d="M137.64,27.58c7.15-4.21,13.54-7.31,18.63-9.53c8.35-3.66,15.17-5.87,20.19-7.47c5.04-1.62,9.12-2.74,11.44-3.37
		c5.27-1.44,8.62-2.36,13.21-3.27c4.75-0.94,8.31-1.38,14.53-2.15c8.39-1.03,11.52-1.15,11.52-1.28c0-0.57-56.02-0.75-226.5,0
		c0,75.25,0,150.37,0,225.5c0.42-2.98,0.84-5.95,1.26-8.93c0.68-5.61,1.81-13.08,3.78-21.76c4.04-17.85,9.31-30.74,12.55-38.56
		c6.11-14.75,11.94-24.53,21.02-40.05c1.58-2.71,3.87-6.51,7.18-11.08c0,0,1.85-2.55,3.93-5.14c19.58-24.37,37.77-39.9,37.77-39.9
		C99.37,50.99,115.75,38.75,137.64,27.58z"/>
	<path class="st0" d="M207.61,497.44c-1.74-0.26-4.22-0.68-7.23-1.32c-1.73-4.99-3.46-9.98-5.19-14.98
		c-1.51-3.83-3.02-7.67-4.53-11.5c-1.13-3.37-2.25-6.74-3.38-10.11c1.42,0.34,3.56,0.86,6.16,1.5c5.56,1.38,7.62,1.95,10.15,2.57
		c2.95,0.72,7.23,1.66,12.61,2.5c1.45,0.34,2.94,0.66,4.46,0.96c8.72,1.7,16.92,2.27,24.37,2.18c6.05-0.06,12.54-0.35,19.42-0.95
		c6.17-0.54,11.99-1.29,17.42-2.16c8.4-1.24,17.23-3.1,26.37-5.78c1.39-0.41,2.77-0.83,4.13-1.26c-1.24,3.56-2.48,7.12-3.71,10.69
		c-2.15,5.58-4.28,11.27-6.37,17.08c-1.2,3.33-2.37,6.65-3.51,9.93c-3.14,0.48-6.29,0.96-9.43,1.44c-2.92,0.35-5.84,0.7-8.76,1.05
		c-1.29,0.12-2.59,0.24-3.88,0.36c-0.99,0.13-1.98,0.25-2.97,0.38c-16.04-0.01-32.08-0.02-48.11-0.04c-1.08-0.15-2.7-0.37-4.66-0.66
		c-2.71-0.4-3.47-0.54-5.51-0.84C211.17,497.86,210.63,497.9,207.61,497.44z"/>
	<path class="st1" d="M501.4,275c-0.32,0.09-0.8,0.07-0.95,0.28c-0.53,0.79-0.96,1.65-1.42,2.49c-0.06-1.07-0.09-2.13-0.18-3.2
		c-0.16-1.87,0.56-2.84,2.55-2.57C501.4,273,501.4,274,501.4,275z"/>
	<path class="st2" d="M275.4,500c0.14-0.11,0.29-0.23,0.43-0.34c0.02,0.11,0.05,0.23,0.07,0.34C275.73,500,275.57,500,275.4,500z"/>
	<path class="st1" d="M300.38,382.56c-1.21,3.04-3.1,7.83-5.32,13.78c-2.47,6.63-2.99,8.4-5.06,13.87
		c-3.68,9.73-5.52,14.59-7.42,17.58c-2.11,3.31-5.91,9.13-13.27,13.47c-2.33,1.37-8.03,4.64-16.07,4.88
		c-9.85,0.3-16.89-4.11-19.71-5.93c-6.92-4.47-10.55-10.11-12.53-13.27c-2.02-3.22-3.53-6.98-6.55-14.48
		c-2.27-5.65-4.01-10.69-4.62-12.49c-1.15-3.39-1.73-5.34-3.65-11.04c-0.97-2.89-1.79-5.25-2.33-6.8c0.7,0.24,1.4,0.48,2.1,0.72
		c0.98,0.3,2.17,0.66,4.86,1.46c2.43,0.73,4,1.18,5.9,0.75c0.48-0.11,0.73-0.16,0.99-0.33c1.38-0.86,1.23-3,1.18-7.02
		c-0.07-5.18,0.16-2.99-0.02-10.48c-0.03-1.29-0.06-2.35-0.08-3.06c-1-0.36-2.33-0.85-3.88-1.49c-1.46-0.6-2.82-1.19-4.34-1.89
		c-3.77-1.74-7.82-3.61-12.84-6.53c-1.94-1.13-4.47-2.67-7.36-4.65c-1.22-3.77-2.24-6.77-2.88-8.64
		c-3.51-10.25-4.31-11.64-6.86-19.29c-0.42-1.25-1.41-4.07-2.78-7.92c-0.69-1.93-1.17-3.06-1.68-4.38
		c-2.07-5.27-3.24-8.98-4.74-13.35c-1.7-4.92-3.09-8.5-5.87-15.65c-3.94-10.13-4.57-11-6.61-17.04c-1-2.94-1.5-4.65-3.01-8.98
		c-1.49-4.26-2.8-7.74-3.7-10.09c-1.75-4.7-3.15-8.43-4.05-10.81c-2.45-6.54-3.49-9.25-4.87-13.38c-0.92-2.75-1.63-5.02-2.09-6.56
		c0.75-2.38,1.62-4.89,2.66-7.5c0.77-1.95,1.57-3.79,2.38-5.53c1.54-2.99,3.07-5.97,4.61-8.96c1.23-2.13,2.88-4.89,4.95-8.03
		c1.6-2.43,3.43-5.19,6.1-8.57c1.72-2.18,4.47-5.64,8.63-9.61c2.89-2.76,5.13-4.5,8.47-7.09c5.02-3.89,8.05-5.73,9.92-6.79
		c1.02-0.58,1.87-1.03,2.47-1.34c1.83,4.88,3.27,8.87,4.25,11.6c2.12,5.95,2.51,7.3,4.98,14.17c3.19,8.89,2.93,8.05,3.25,8.98
		c0.24,0.69,1.45,5.64,2.87,7.92c0.66,1.06,1.9,2.39,4.45,3.36c-0.93,0.86-2.23,2.25-3.3,4.24c-0.51,0.94-0.42,1.36-1.68,4.19
		c-0.89,2-1.61,3.62-2.28,5.94c-0.32,1.09-0.91,3.16-1.19,5.79c-0.77,7.22,1.71,10.18,1.15,13.67c-0.06,0.35-0.19,1.52,0.37,2.16
		c0.25,0.28,0.65,0.48,1.32,0.53c0.32,0.03,0.81,1.02,0.78,1.55c-0.11,1.8,0.23,2.91,2.09,3.94c1.11,0.61,0.89,3.3,1.97,4.34
		c1.89,1.81,4.32,3.05,6.5,4.57c3.37,2.34,6.35,5.45,10.92,5.4c0.35,0,0.7,0.55,1.07,0.82c0.82,0.61,1.66,1.2,2.49,1.8
		c0.46,1.49,1.14,3.68,1.96,6.33c0.45,1.44,0.9,2.9,1,3.22c1.77,5.68,3.96,12.7,7.17,20.3c1.64,3.88,2.2,4.75,3.55,8.4
		c1.22,3.29,2.04,6.05,2.54,7.88c-2.64-0.25-6.51-0.96-10.67-3.09c-2.1-1.08-3.81-2.28-5.16-3.39c-0.8-0.87-1.95-2.26-3.04-4.15
		c-1.22-2.1-1.9-4.02-2.8-6.57c-1.63-4.64-1.52-5.62-2.74-6.62c-0.98-0.8-1.8-0.78-5.78-1c-7.63-0.42-10.03-0.8-13.21,0.48
		c-1.33,0.53-2.44,1.21-3.01,2.38c-0.37,0.75-0.43,1.53-0.16,3.46c0.6,4.27,1.43,4.13,1.88,7.5c0.16,1.23,1,2.92,1.46,4.42
		c0.08,0.27,0.49,0.43,0.67,0.69c0.45,0.67,0.92,1.35,1.27,2.08c0.31,0.66,0.27,1.58,0.73,2.05c1.35,1.39,4.3,6.42,11.09,11.17
		c5.9,4.13,10.09,5.64,11.76,6.19c0.9,0.3,1.86,0.57,1.86,0.57c7.02,2.04,9.65,1.42,10.69,3.2c0.49,0.84,0.02,1.17-0.24,4.27
		c-0.23,2.81,0.08,3.37,0.24,7.85c0.25,7.13-0.49,7.46,0.43,9.02c1.69,2.88,5.37,3.72,7.08,4.11c1.19,0.27,3.16,0.18,7.1,0
		c2.99-0.14,4.6-0.36,6.14-1.35c0.34-0.22,1.2-0.78,1.97-1.8c0.45-0.6,0.92-1.41,1.24-2.55c0.75-2.62,0.5-6.02,0.26-8.58
		c-0.46-4.85-0.87-6.41-0.23-9.16c0.22-0.92,0.48-1.66,0.67-2.15c3.94-0.3,6.88-1.21,8.89-2.04c0.74-0.3,1.28-0.56,7.7-3.74
		c2.29-1.13,3.43-1.7,3.46-1.71c7.96-4.16,12.63-13.19,14.23-16.3c1.49-2.89,2.25-5.08,2.58-6.14c0.92-2.9,1.35-5.44,1.55-7.33
		c0.28-3.63,0.28-9.02-1.29-15.26c-1.45-5.76-3.71-10.2-5.53-13.19c-1.44-2.02-4.02-5.04-8.12-7.37c-1.95-1.11-3.81-1.81-5.36-2.27
		c-0.69-0.45-1.72-1.05-3.06-1.53c-2.67-0.95-4.62-0.74-4.96-1.71c-0.11-0.32-0.08-0.84,0.66-1.73c1.88-6.76,3.75-13.52,5.63-20.28
		c0.44,0.05,1.03,0.11,1.73,0.16c5.16,0.38,12.49,0.91,14.86-2.56c1.42-2.08,0.58-5.1-1.12-11.15c-0.88-3.14-1.82-4.97-2.09-5.48
		c-1.52-2.88-3.35-4.9-4.67-6.16c1.19-0.85,2.88-2.27,4.27-4.47c1.18-1.86,1.55-3.33,2.5-6.22c0.88-2.68,1.94-5.29,2.88-7.94
		c2.27-6.38,3.4-9.57,4.36-12.05c1.48-3.85,2.73-6.8,3.5-8.61c1.45-3.43,2.81-6.46,4-9.03c2.91,1.81,6.47,4.19,10.38,7.18
		c2.86,2.19,5,4.01,6.03,4.91c5.03,4.36,8.47,8.05,9.43,9.08c3.05,3.3,5.05,5.87,7.81,9.43c3.34,4.3,5.58,7.54,6.42,8.78
		c1.8,2.64,2.82,4.13,4.12,6.39c1.98,3.43,3.34,6.43,4.49,8.95c0.85,1.86,1.51,3.43,1.98,4.55c-2.16,6.86-4.03,12.7-5.49,17.21
		c-5.79,17.87-8.15,24.34-11.37,31.76c-1.49,3.43-1.22,2.6-2.68,5.98c-4.7,10.87-6.19,16.59-10.38,27.94
		c-2.27,6.16-1.68,4.06-5.6,14.31c-7.47,19.53-12.28,34.13-14.69,41.65c-0.99,3.09-1.77,5.61-2.25,7.17
		c-0.95,0.55-2.17,1.25-3.61,2.05c-1.49,0.83-3.9,2.16-6.93,3.75c-1.19,0.62-3.59,1.87-6.68,3.39c-1.91,0.94-3.6,1.74-4.98,2.39
		c0.22,7.38,0.43,14.75,0.65,22.13C293.71,384.29,297.05,383.43,300.38,382.56z"/>
	<path class="st2" d="M191.41,150.11c-11.13,6.75-15.55,10.51-17,11.74c-4.2,3.55-9.96,9.14-15.63,17.39
		c-6.17,8.55-15.25,23.14-19.39,41.02c-2.07,8.91-2.76,18.01-2.88,19.62c-0.6,8.11-0.39,15.13,0.04,20.62
		c0.28,7.16,1.35,12.99,2.36,17.19c1,4.16,2.12,7.41,2.79,9.37c0.49,1.42,2.17,6.18,5.03,12.22c1.6,3.37,3.21,6.74,5.93,10.95
		c0.64,0.99,1.67,2.42,3.72,5.28c5.23,7.28,8.17,10.82,10.01,12.97c0.21,0.24,0.63,0.74,1.13,1.3c1.95,2.21,7.96,8.81,17.57,16.05
		c3.18,2.4,7.41,5.36,12.63,8.42c4.79,2.44,9.58,4.87,14.36,7.31c2.23,0.87,4.46,1.73,6.69,2.6c0.02,0.73,0.05,1.79,0.08,3.06
		c0.09,3.65,0.15,6.01,0.15,8.05c0,2.12-0.07,5.06-0.36,8.64c-0.04,0.08-0.11,0.19-0.21,0.32c-1.08,1.35-3.91,1.45-12.5-1.39
		c-4.11-1.36-9.57-3.4-15.84-6.45c-2.08-1.09-4.16-2.19-6.24-3.28c-1-0.59-2.53-1.52-4.39-2.7c-3.56-2.26-8.62-5.5-14.42-10.27
		c-1.54-1.27-3.71-3.11-6.22-5.48c-1.14-1.02-2.29-2.04-3.43-3.06c-1.63-1.72-3.26-3.44-4.89-5.16c-4.87-5.04-8.64-9.59-11.4-13.17
		c0,0-5.26-6.84-8.6-12.58c-0.42-0.72-0.93-1.62-0.93-1.62s-1.76-3.06-3.04-5.38c-3.68-6.67-8.53-20.96-9.48-23.78
		c-0.18-0.54-0.38-1.15-0.63-1.93c0,0-1.43-4.59-2.46-9.86c-0.81-4.12-1.99-13.36-2.23-25.64c0.05-2.29,0.45-17.81,2.2-29.51
		c0.46-3.11,1.58-8.64,2.53-11.87c0.8-2.75,1.62-5.01,2.25-6.63c0.02-0.07,0.04-0.14,0.06-0.21c0.72-2.49,1.62-4.87,2.67-7.14
		c2.02-5.18,3.95-9.1,5.36-11.74c1.15-2.16,2.26-4.03,2.62-4.64c1.43-2.4,2.63-4.21,3.73-5.86c2.31-3.44,4.64-6.92,6.85-9.92
		c7.45-10.11,15.82-17.89,16.77-18.76c2.85-2.62,7.89-7.03,14.68-11.66c5.44-3.71,10.02-6.21,11.85-7.18c1.69-0.9,3.17-1.64,5.1-2.6
		c1.83-0.91,6.08-3.02,10.28-4.9c3.73-1.67,9.03-3.87,15.83-6.2c1.16-0.08,2.31-0.15,3.47-0.23c0.22,7.38,0.43,14.75,0.65,22.13
		C207.16,140.93,197.99,146.12,191.41,150.11z"/>
	<path class="st0" d="M53.68,96.13c0.94-1.13,2.11-2.53,3.47-4.12c0.73-0.86,2.77-3.23,5.32-6.08c4.7-5.25,8.7-9.37,9.73-10.43
		c4.86-4.99,9.51-9.77,16.11-15.43c3.09-2.65,5.94-4.92,7.31-6c2-1.59,4.94-3.92,8.88-6.77c3.93-2.85,6.94-4.82,10.03-6.85
		c4.71-3.09,7.16-4.7,10.85-6.81c1.42-0.8,2.6-1.45,3.43-1.9c4.72-2.57,8.16-4.25,8.99-4.65c1.22-0.59,2.22-1.06,2.86-1.36
		c3.28,7.42,4.84,11.18,5.66,13.24c0.13,0.32,0.95,2.41,2.11,5.33c0.32,0.81,0.69,1.74,1.13,2.83c1.09,2.73,2.19,5.45,3.29,8.14
		c-0.52,0.27-1.04,0.54-1.55,0.8c-5.47,2.55-10,4.96-13.43,6.87c-3.95,2.21-7.77,4.35-12.39,7.6c-3.78,2.66-6.75,5.12-10.51,8.45
		c-6.28,5.55-14.98,13.29-25.49,25.08c-4.03,4.52-8.99,10.38-14.37,17.5c-1.95,2.6-3.89,5.2-5.84,7.8
		c-0.24,0.26-0.49,0.52-0.73,0.78c-1.18-2.02-2.35-4.15-3.51-6.39c-2.65-5.16-6.07-13.75-6.07-13.75
		C57.46,106.26,55.65,101.58,53.68,96.13z"/>
	<path class="st1" d="M182.6,127.73c-11.58,6.3-20.09,13.16-25.81,18.44c0,0-9.28,8.57-16.77,18.76c-1.98,2.69-4.5,6.43-6.85,9.92
		c-0.87,1.29-2.17,3.24-3.73,5.86c-0.35,0.59-0.63,1.08-0.83,1.42c-0.53-1.37-1.31-3.37-2.24-5.8c-5.71-14.91-4.88-13.37-8.99-24.17
		c-1.95-5.12-3.48-8.98-4.87-14.82c-0.65-2.75-0.98-4.12-1.07-5.4c-0.61-8.35,3.59-15.46,5.07-17.88c0.17-0.28,0.31-0.5,0.4-0.64
		c3.69-5.85,8.28-9.53,11.56-11.68c0.82-0.54,2.02-1.28,3.56-2c6.7-3.14,12.92-2.27,16.81-2.42c6.35-0.24,11.56,2,16.67,5.08
		c1.99,1.2,3.91,2.12,5.64,3.94c1.53,1.6,2.45,3.21,2.98,4.3c1.71,2.47,3.53,5.47,5.22,9C180.75,122.54,181.8,125.28,182.6,127.73z"
		/>
	<path class="st1" d="M376.37,175.53c-2.56-1.45-4.71-3.19-5.14-6.4c-0.09-0.64-0.75-1.23-1.2-1.81c-2.18-2.79-4.22-5.71-6.6-8.32
		c-3.01-3.29-6.29-6.33-9.48-9.46c-0.47-0.46-1.19-0.73-1.51-1.26c-2.47-4.02-6-6.8-10.09-9.04c-1.36-0.74-2.46-1.95-3.66-2.97
		c-1.64-1.4-3.01-2.92-5.37-3.57c-1.76-0.48-3.07-2.61-4.56-4.03c-0.35-0.33-0.69-1.17-0.86-1.12c-2.62,0.73-3.75-1.21-5.12-2.74
		c0.06-2.16,0.42-5.56,2.04-9.36c1.91-4.51,4.68-7.44,6.37-8.98c2.2-1.38,4.4-2.77,6.6-4.15c2.88-1.38,5.77-2.75,8.65-4.13
		c3.21-0.96,9.4-2.31,16.82-0.69c6.53,1.42,10.9,4.47,12.89,5.88c5.32,3.79,8.23,7.97,8.97,9.05c4.24,6.29,5.21,12.26,5.44,13.91
		c0.12,0.87,0.56,4.31-0.19,9.99c-0.93,6.99-2.93,11.81-5.45,18.01C383.12,158.71,380.25,165.77,376.37,175.53z"/>
	<path class="st1" d="M355.83,47.42c0.43,1.53-0.27,2.27-1.74,2.46C354.67,49.05,355.25,48.24,355.83,47.42z"/>
	<path class="st1" d="M353.27,52.5c-0.05,0.85-0.09,1.7-0.14,2.55c-0.55-0.29-1.1-0.57-2.08-1.07
		C352,53.34,352.63,52.92,353.27,52.5z"/>
	<path class="st1" d="M217.39,114.93c-0.92,0.01-1.84,0.03-2.75,0.04"/>
	<path class="st1" d="M365.35,27.77c-0.63,0.44-1.26,0.89-1.89,1.33c0.01-0.91,0.03-1.81,0.04-2.72
		C364.12,26.84,364.73,27.31,365.35,27.77z"/>
	<path class="st2" d="M340.88,482.96c-0.72,0.64-1.43,1.27-2.15,1.91C339.45,484.23,340.16,483.6,340.88,482.96z"/>
	<path class="st1" d="M386.49,302.99c0.31-0.69,0.62-1.39,0.93-2.08C387.11,301.6,386.8,302.3,386.49,302.99z"/>
	<path class="st1" d="M357.96,23.44c0.48,0.34,0.95,0.68,1.43,1.01C357.96,25.47,358.14,24.19,357.96,23.44z"/>
	<path class="st2" d="M0,500L0,500L0,500z"/>
	<path class="st1" d="M498.68,290.56c-0.24,0.56-0.47,1.13-0.71,1.69c-0.18-0.29-0.37-0.59-0.55-0.88
		C497.84,291.09,498.26,290.82,498.68,290.56z"/>
	<path class="st2" d="M497.42,291.36c0.18,0.29,0.37,0.59,0.55,0.88c-0.47,0.27-0.94,0.54-1.41,0.8
		C496.85,292.49,497.13,291.92,497.42,291.36z"/>
	<path class="st1" d="M332.42,13.11c0.44,0.47,0.89,0.95,1.33,1.42C333.31,14.06,332.87,13.59,332.42,13.11z"/>
	<path class="st1" d="M203.81,144.56c0.19-0.67,0.39-1.34,0.58-2C204.2,143.22,204,143.89,203.81,144.56z"/>
	<path class="st1" d="M486.5,336.55c-0.36,0.32-0.71,0.64-1.07,0.96c0.3-0.49,0.59-0.99,0.89-1.48c0,0,0.07-0.12,0.07-0.12
		s0.13,0.04,0.13,0.04C486.51,336.15,486.5,336.35,486.5,336.55z"/>
	<path class="st2" d="M360.38,24.64c0.52,0.08,1.05,0.15,1.57,0.23c-0.18,0.13-0.37,0.26-0.55,0.39
		C361.06,25.05,360.72,24.85,360.38,24.64z"/>
	<path class="st1" d="M194.24,121c-0.28,0.45-0.55,0.89-0.83,1.34C193.69,121.9,193.97,121.45,194.24,121z"/>
	<path class="st1" d="M384.92,77.17c0.82,0,1.64,0,2.46,0C386.56,77.17,385.74,77.17,384.92,77.17z"/>
	<path class="st1" d="M243.89,157.5c-0.17,0.42-0.33,0.84-0.5,1.26C243.56,158.34,243.72,157.92,243.89,157.5z"/>
	<path class="st1" d="M291.68,115.5c-0.25,0.52-0.5,1.03-0.75,1.55C291.18,116.53,291.43,116.02,291.68,115.5z"/>
	<path class="st1" d="M361.4,25.26c0.18-0.13,0.37-0.26,0.55-0.39c0.34,0.35,0.67,0.71,1.01,1.06
		C362.44,25.7,361.92,25.48,361.4,25.26z"/>
	<path class="st1" d="M273.37,182.4c-0.43-0.3-0.86-0.6-1.3-0.9C272.51,181.8,272.94,182.1,273.37,182.4z"/>
	<path class="st1" d="M289.57,119c-0.17,0.43-0.35,0.86-0.52,1.29C289.23,119.86,289.4,119.43,289.57,119z"/>
	<path class="st1" d="M194.27,6c0.21-0.27,0.41-0.54,0.62-0.81C194.68,5.46,194.48,5.73,194.27,6z"/>
	<path class="st1" d="M289.38,190c-0.37-0.29-0.74-0.57-1.1-0.86C288.64,189.42,289.01,189.71,289.38,190z"/>
	<path class="st1" d="M161.5,358.19c0.27,0.28,0.54,0.56,0.81,0.84C162.04,358.74,161.77,358.46,161.5,358.19z"/>
	<path class="st1" d="M308.9,146.69c0.4,0.24,0.81,0.48,1.21,0.72C309.7,147.16,309.3,146.93,308.9,146.69z"/>
	<path class="st1" d="M319.4,124.8c-0.21-0.27-0.41-0.54-0.62-0.81C318.99,124.26,319.2,124.53,319.4,124.8z"/>
	<path class="st2" d="M293.34,3.05c0.18,0.49,0.35,0.98,0.53,1.47C293.69,4.03,293.51,3.54,293.34,3.05z"/>
	<path class="st1" d="M234.02,180.09c-0.19,0.5-0.38,0.99-0.57,1.49C233.65,181.08,233.83,180.58,234.02,180.09z"/>
	<path class="st1" d="M4.2,209.9c0.03-0.37,0.05-0.73,0.08-1.1C4.25,209.17,4.22,209.54,4.2,209.9z"/>
	<path class="st1" d="M118.68,204.06c0.13,0.12,0.14,0.26,0.05,0.4c-0.06-0.09-0.13-0.18-0.17-0.28
		C118.55,204.16,118.64,204.1,118.68,204.06z"/>
	<path class="st1" d="M199.1,118.08c0.03,0.14,0.07,0.29,0.08,0.43c0,0.05-0.11,0.11-0.16,0.16
		C199.04,118.48,199.07,118.28,199.1,118.08z"/>
	<path class="st1" d="M441.3,119.13c0.02-0.22,0.04-0.45,0.06-0.67C441.35,118.68,441.33,118.91,441.3,119.13z"/>
	<path class="st1" d="M53.68,101.52c0.02,0.16,0.04,0.32,0.07,0.49c-0.06-0.11-0.14-0.21-0.19-0.33
		C53.55,101.64,53.64,101.57,53.68,101.52z"/>
	<path class="st1" d="M53.42,99.89c0.09-0.08,0.18-0.08,0.27-0.01c-0.03,0.18-0.05,0.36-0.08,0.54
		C53.54,100.24,53.48,100.06,53.42,99.89z"/>
	<path class="st1" d="M73.03,123.5c0.12-0.18,0.23-0.35,0.35-0.53C73.27,123.15,73.15,123.33,73.03,123.5z"/>
	<path class="st1" d="M72.4,124.37C72.4,124.37,72.4,124.37,72.4,124.37C72.4,124.38,72.4,124.37,72.4,124.37z"/>
	<path class="st1" d="M122.98,72.53l0.14-0.16c0,0,0.18,0.09,0.18,0.09C123.2,72.52,123.09,72.54,122.98,72.53z"/>
	<path class="st1" d="M322.58,124.88c-0.23,0.07-0.46,0.14-0.69,0.22C322.12,125.02,322.35,124.95,322.58,124.88z"/>
	<path class="st1" d="M488.38,331.03c-0.14,0.16-0.28,0.32-0.42,0.49C488.09,331.35,488.23,331.19,488.38,331.03z"/>
	<path class="st2" d="M487.03,332.28c-0.09,0.21-0.18,0.42-0.28,0.63C486.84,332.69,486.93,332.48,487.03,332.28z"/>
	<path class="st1" d="M63.97,127.89c0.07,0.13,0.17,0.25,0.22,0.38c0.02,0.05-0.05,0.14-0.08,0.21
		C64.06,128.28,64.02,128.08,63.97,127.89z"/>
	<path class="st1" d="M200.27,144.92c0.2-0.07,0.4-0.14,0.6-0.21C200.67,144.79,200.47,144.85,200.27,144.92z"/>
	<path class="st1" d="M353.85,51.5c-0.12,0.23-0.23,0.45-0.35,0.68C353.62,51.95,353.74,51.72,353.85,51.5z"/>
	<path class="st1" d="M143.76,40.71c-0.05-0.23-0.09-0.47-0.14-0.7C143.66,40.24,143.71,40.48,143.76,40.71z"/>
	<path class="st1" d="M143.34,37.59c-0.12-0.2-0.25-0.39-0.37-0.59C143.1,37.2,143.22,37.39,143.34,37.59z"/>
	<path class="st1" d="M111.74,252.05c0.11,0.14,0.11,0.27,0.01,0.42c-0.05-0.1-0.12-0.19-0.16-0.3
		C111.59,252.14,111.69,252.09,111.74,252.05z"/>
	<path class="st1" d="M162.4,359.06c0.15,0.05,0.29,0.1,0.44,0.14C162.69,359.16,162.55,359.11,162.4,359.06z"/>
	<path class="st2" d="M484.51,160.97c0.13,0.16,0.27,0.33,0.4,0.49C484.78,161.3,484.65,161.13,484.51,160.97z"/>
	<path class="st2" d="M466.84,377.93c0.06,0.12,0.13,0.25,0.16,0.38c0.01,0.04-0.1,0.1-0.15,0.15c-0.04-0.12-0.1-0.24-0.13-0.37
		C466.71,378.05,466.79,377.99,466.84,377.93z"/>
	<path class="st1" d="M304.05,383.46c-0.09-0.15-0.07-0.3,0.04-0.43c0.04,0.11,0.09,0.21,0.11,0.32
		C304.2,383.38,304.1,383.43,304.05,383.46z"/>
	<path class="st1" d="M113.79,234.51c-0.08,0.25-0.16,0.51-0.24,0.76C113.63,235.02,113.71,234.76,113.79,234.51z"/>
	<path class="st2" d="M43.69,389.53c-0.09-0.19-0.18-0.38-0.26-0.57C43.52,389.15,43.6,389.34,43.69,389.53z"/>
	<path class="st1" d="M377.37,180.37c-0.17-0.11-0.35-0.21-0.52-0.32C377.02,180.16,377.19,180.26,377.37,180.37z"/>
	<path class="st1" d="M362.97,25.93c0.19,0.16,0.38,0.31,0.56,0.47C363.34,26.24,363.16,26.09,362.97,25.93z"/>
	<path class="st1" d="M378.72,181.41c-0.17-0.1-0.21-0.24-0.13-0.42c0.07,0.09,0.15,0.17,0.2,0.27
		C378.81,181.29,378.75,181.36,378.72,181.41z"/>
	<path class="st1" d="M193.45,7.15c0.07-0.19,0.21-0.25,0.4-0.19C193.71,7.03,193.58,7.09,193.45,7.15z"/>
	<path class="st2" d="M131.42,470.1c-0.18-0.01-0.36-0.02-0.53-0.03C131.06,470.08,131.24,470.09,131.42,470.1z"/>
	<path class="st2" d="M135.27,470.54c-0.14-0.08-0.27-0.15-0.41-0.23C135,470.39,135.14,470.46,135.27,470.54z"/>
	<polygon class="st1" points="493.02,183.94 493.16,183.85 493.24,184.02 493.11,184.03 	"/>
	<path class="st1" d="M221.21,185.51c0.08,0.16,0.06,0.32-0.05,0.46c-0.04-0.11-0.09-0.23-0.1-0.34
		C221.05,185.6,221.16,185.55,221.21,185.51z"/>
	<path class="st2" d="M163.56,484.85c-0.2-0.14-0.41-0.27-0.61-0.41C163.15,484.58,163.35,484.71,163.56,484.85z"/>
	<path class="st2" d="M331.9,487.32c-0.2,0.03-0.4,0.06-0.6,0.1C331.51,487.38,331.7,487.35,331.9,487.32z"/>
	<path class="st2" d="M173.92,487.7c-0.18-0.01-0.37-0.02-0.55-0.03C173.56,487.67,173.74,487.69,173.92,487.7z"/>
	<path class="st2" d="M280.87,2.36c0.18,0.02,0.36,0.05,0.54,0.07C281.23,2.41,281.05,2.38,280.87,2.36z"/>
	<path class="st2" d="M318.91,490.06c-0.18,0.13-0.36,0.27-0.55,0.4C318.55,490.33,318.73,490.2,318.91,490.06z"/>
	<path class="st2" d="M314.41,492.62c-0.18,0.01-0.36,0.03-0.53,0.04C314.06,492.65,314.24,492.64,314.41,492.62z"/>
	<path class="st2" d="M308.69,493.8c-0.07,0.24-0.14,0.48-0.21,0.72C308.55,494.28,308.62,494.04,308.69,493.8z"/>
	<path class="st2" d="M5.34,292.53c-0.16-0.07-0.32-0.15-0.47-0.22C5.02,292.38,5.18,292.45,5.34,292.53z"/>
	<path class="st2" d="M127.77,32.13c-0.27,0.2-0.55,0.41-0.82,0.61C127.23,32.54,127.5,32.33,127.77,32.13z"/>
	<path class="st2" d="M122.56,35.02c-0.23,0.23-0.46,0.46-0.69,0.68C122.1,35.47,122.33,35.25,122.56,35.02z"/>
	<path class="st2" d="M94.02,55.23c-0.37,0.06-0.73,0.13-1.1,0.19C93.29,55.36,93.66,55.29,94.02,55.23z"/>
	<path class="st2" d="M209.7,2.94c-0.03-0.07-0.06-0.13-0.09-0.2c0.09,0.06,0.18,0.12,0.27,0.17c0,0-0.08,0.1-0.08,0.1
		S209.7,2.94,209.7,2.94z"/>
	<path class="st2" d="M410.93,56.95c-0.06-0.1-0.13-0.19-0.17-0.29c-0.01-0.02,0.07-0.09,0.11-0.13
		C411,56.65,411.02,56.79,410.93,56.95z"/>
	<path class="st2" d="M409.79,55.44c-0.15-0.05-0.31-0.11-0.46-0.16C409.49,55.33,409.64,55.39,409.79,55.44z"/>
	<path class="st2" d="M486.5,336.55c0.01-0.2,0.01-0.4,0.02-0.6C486.51,336.15,486.5,336.35,486.5,336.55z"/>
	<path class="st2" d="M209.97,497.21c0.41,0.07,0.81,0.13,1.21,0.2C210.77,497.34,210.37,497.28,209.97,497.21z"/>
	<path class="st1" d="M254.97,301.65c1.18-2.79,2.38-5.59,3.6-8.4c2.19-5.07,4.39-10.08,6.61-15.03c2.03-4.59,4.06-9.18,6.09-13.77
		c0.68,0.32,1.66,0.84,2.72,1.62c4.26,3.14,5.77,7.49,6.2,8.8c1.63,4.9,0.74,9.04,0.49,10.06c-1.4,5.9-5.41,9.26-7.08,10.65
		c-1.96,1.64-3.84,2.64-5.15,3.25c-0.53,0.1-1.31,0.25-2.25,0.49c-2.75,0.71-3.95,1.4-5.59,1.87
		C259.33,301.58,257.45,301.91,254.97,301.65z"/>
	<path class="st1" d="M245.25,197.72c-0.27,0.76-0.54,1.52-0.81,2.28C244.71,199.24,244.98,198.48,245.25,197.72z"/>
	<path class="st1" d="M275.9,208.99c-0.36-0.24-0.71-0.47-1.07-0.71C275.19,208.52,275.55,208.76,275.9,208.99z"/>
	<path class="st1" d="M229.37,208.28c-0.04,0.12-0.12,0.19-0.24,0.21c0,0,0.03-0.21,0.03-0.21L229.37,208.28z"/>
	<path class="st1" d="M276.23,209.49c-0.11-0.16-0.22-0.33-0.32-0.49C276.01,209.16,276.12,209.32,276.23,209.49z"/>
	<path class="st1" d="M338.85,333.04c0.65-0.69,1.29-1.38,1.94-2.07C340.14,331.66,339.5,332.35,338.85,333.04z"/>
	<path class="st1" d="M370.22,230.88c-0.4-0.72-0.79-1.43-1.19-2.15C369.43,229.44,369.82,230.16,370.22,230.88z"/>
	<path class="st1" d="M340.85,330.86c0.12-0.27,0.24-0.54,0.36-0.8C341.09,330.33,340.97,330.59,340.85,330.86z"/>
	<path class="st1" d="M318.99,348.17c0.11-0.23,0.22-0.45,0.34-0.68C319.22,347.72,319.1,347.94,318.99,348.17z"/>
	<path class="st1" d="M153.74,310.99c0.88,1.51,1.76,3.03,2.63,4.54C155.49,314.01,154.62,312.5,153.74,310.99z"/>
	<path class="st1" d="M137.9,237.51c-0.35,0.32-0.7,0.64-1.05,0.96C137.19,238.16,137.54,237.84,137.9,237.51z"/>
	<path class="st1" d="M156.63,316c0.26,0.3,0.52,0.61,0.78,0.91C157.15,316.61,156.89,316.3,156.63,316z"/>
	<path d="M-99.5,95.58"/>
	<path d="M27.18,363.02c-4.21-7.15-7.31-13.54-9.53-18.63c-3.66-8.35-5.87-15.17-7.47-20.19c-1.62-5.04-2.74-9.12-3.37-11.44
		c-1.44-5.27-2.36-8.62-3.27-13.21c-0.94-4.75-1.38-8.31-2.15-14.53c-1.03-8.39-1.15-11.52-1.28-11.52c-0.57,0-0.75,56.02,0,226.5
		c75.25,0,150.37,0,225.5,0c-2.98-0.42-5.95-0.84-8.93-1.26c-5.61-0.68-13.08-1.81-21.76-3.78c-17.85-4.04-30.74-9.31-38.56-12.55
		c-14.75-6.11-24.53-11.94-40.05-21.02c-2.71-1.58-6.51-3.87-11.08-7.18c0,0-2.55-1.85-5.14-3.93
		c-24.37-19.58-39.9-37.77-39.9-37.77C50.59,401.29,38.35,384.91,27.18,363.02z"/>
	<path d="M363.23,472.95c-7.15,4.21-13.54,7.31-18.63,9.53c-8.35,3.66-15.17,5.87-20.19,7.47c-5.04,1.62-9.12,2.74-11.44,3.37
		c-5.27,1.44-8.62,2.36-13.21,3.27c-4.75,0.94-8.31,1.38-14.53,2.15c-8.39,1.03-11.52,1.15-11.52,1.28c0,0.57,56.02,0.75,226.5,0
		c0-75.25,0-150.37,0-225.5c-0.42,2.98-0.84,5.95-1.26,8.93c-0.68,5.61-1.81,13.08-3.78,21.76c-4.04,17.85-9.31,30.74-12.55,38.56
		c-6.11,14.75-11.94,24.53-21.02,40.05c-1.58,2.71-3.87,6.51-7.18,11.08c0,0-1.85,2.55-3.93,5.14
		c-19.58,24.37-37.77,39.9-37.77,39.9C401.5,449.54,385.12,461.78,363.23,472.95z"/>
	<path d="M472.79,136.98c4.21,7.15,7.31,13.54,9.53,18.63c3.66,8.35,5.87,15.17,7.47,20.19c1.62,5.04,2.74,9.12,3.37,11.44
		c1.44,5.27,2.36,8.62,3.27,13.21c0.94,4.75,1.38,8.31,2.15,14.53c1.03,8.39,1.15,11.52,1.28,11.52c0.57,0,0.75-56.02,0-226.5
		c-75.25,0-150.37,0-225.5,0c2.98,0.42,5.95,0.84,8.93,1.26c5.61,0.68,13.08,1.81,21.76,3.78c17.85,4.04,30.74,9.31,38.56,12.55
		c14.75,6.11,24.53,11.94,40.05,21.02c2.71,1.58,6.51,3.87,11.08,7.18c0,0,2.55,1.85,5.14,3.93c24.37,19.58,39.9,37.77,39.9,37.77
		C449.38,98.71,461.62,115.09,472.79,136.98z"/>
	<path class="st0" d="M449.01,99.59c0.64,0.81,1.29,1.67,1.93,2.6c0.26,0.38,0.51,0.76,0.76,1.13c-3.84,1.88-7.08,3.7-9.65,5.25
		c-5.81,3.49-9.83,6.51-10.68,7.16c-2.75,2.09-5,4-6.69,5.5c-0.35-0.49-0.89-1.24-1.55-2.16c-4.11-5.7-6.22-8.63-9.01-12.1
		c-3.12-3.89-5.47-6.6-9.55-10.95c-2.74-2.92-13.34-14.07-29.9-26.82c-6.55-5.04-13.86-10.63-24.62-16.59
		c-3.42-1.9-6.35-3.36-8.46-4.38c3.3-3.46,7.58-7.1,12.99-10.92c4.6-3.25,8.44-6.37,12.27-8.2c1.27,0.74,3.41,2.03,5.2,3.11
		c0.97,0.58,3.76,2.02,6.99,4.06c5.96,3.76,8.73,5.33,10,6.1c6.16,3.74,13.52,9.53,19.89,15.17c3.13,2.77,5.62,5.13,6.92,6.3
		c1.9,1.71,4.69,4.22,8.15,7.63c0.93,0.91,1.67,1.66,2.45,2.45c3.15,3.18,5.48,5.64,6.07,6.26c2.67,2.83,5.17,5.47,8.31,9.15
		c1.18,1.39,2.15,2.55,2.81,3.37"/>
	<path class="st0" d="M246.62,455.8"/>
	<path class="st1" d="M611.69,310.04"/>
	<path class="st2" d="M316.98,348.46c11.13-6.75,15.55-10.51,17-11.74c4.2-3.55,9.96-9.14,15.63-17.39
		c6.17-8.55,15.25-23.14,19.39-41.02c2.07-8.91,2.76-18.01,2.88-19.62c0.6-8.11,0.39-15.13-0.04-20.62
		c-0.28-7.16-1.35-12.99-2.36-17.19c-1-4.16-2.12-7.41-2.79-9.37c-0.49-1.42-2.17-6.18-5.03-12.22c-1.6-3.37-3.21-6.74-5.93-10.95
		c-0.64-0.99-1.67-2.42-3.72-5.28c-5.23-7.28-8.17-10.82-10.01-12.97c-0.21-0.24-0.63-0.74-1.13-1.3
		c-1.95-2.21-7.96-8.81-17.57-16.05c-3.18-2.4-7.41-5.36-12.63-8.42c-4.79-2.44-9.58-4.87-14.36-7.31c-2.23-0.87-4.46-1.73-6.69-2.6
		c-0.02-0.73-0.05-1.79-0.08-3.06c-0.09-3.65-0.15-6.01-0.15-8.05c0-2.12,0.07-5.06,0.36-8.64c0.04-0.08,0.11-0.19,0.21-0.32
		c1.08-1.35,3.91-1.45,12.5,1.39c4.11,1.36,9.57,3.4,15.84,6.45c2.08,1.09,4.16,2.19,6.24,3.28c1,0.59,2.53,1.52,4.39,2.7
		c3.56,2.26,8.62,5.5,14.42,10.27c1.54,1.27,3.71,3.11,6.22,5.48c1.14,1.02,2.29,2.04,3.43,3.06c1.63,1.72,3.26,3.44,4.89,5.16
		c4.87,5.04,8.64,9.59,11.4,13.17c0,0,5.26,6.84,8.6,12.58c0.42,0.72,0.93,1.62,0.93,1.62c0,0,1.76,3.06,3.04,5.38
		c3.68,6.67,8.53,20.96,9.48,23.78c0.18,0.54,0.38,1.15,0.63,1.93c0,0,1.43,4.59,2.46,9.86c0.81,4.12,1.99,13.36,2.23,25.64
		c-0.05,2.29-0.45,17.81-2.2,29.51c-0.46,3.11-1.58,8.64-2.53,11.87c-0.8,2.75-1.62,5.01-2.25,6.63c-0.02,0.07-0.04,0.14-0.06,0.21
		c-0.72,2.49-1.62,4.87-2.67,7.14c-2.02,5.18-3.95,9.1-5.36,11.74c-1.15,2.16-2.26,4.03-2.62,4.64c-1.43,2.4-2.63,4.21-3.73,5.86
		c-2.31,3.44-4.64,6.92-6.85,9.92c-7.45,10.11-15.82,17.89-16.77,18.76c-2.85,2.62-7.89,7.03-14.68,11.66
		c-5.44,3.71-10.02,6.21-11.85,7.18c-1.69,0.9-3.17,1.64-5.1,2.6c-1.83,0.91-6.08,3.02-10.29,4.9c-3.73,1.67-9.03,3.87-15.82,6.2
		c-1.16,0.08-2.31,0.15-3.47,0.23c-0.22-7.38-0.43-14.75-0.65-22.13C301.22,357.64,310.39,352.45,316.98,348.46z"/>
	<path class="st2" d="M305.76,278.76c0-27.62-16.41-37.09-49.23-41.03c-23.44-3.16-28.13-9.47-28.13-20.52s7.81-18.15,23.44-18.15
		c14.06,0,21.88,4.73,25.79,16.57c0.78,2.37,3.13,3.95,5.47,3.95h12.5c3.13,0,5.47-2.37,5.47-5.52v-0.79
		c-3.13-17.36-17.19-30.78-35.16-32.35v-18.94c0-3.16-2.34-5.52-6.25-6.31h-11.72c-3.13,0-5.47,2.37-6.25,6.31v18.15
		c-23.44,3.16-38.29,18.94-38.29,38.67c0,26.04,15.63,36.3,48.44,40.25c21.88,3.95,28.91,8.68,28.91,21.31s-10.94,21.31-25.79,21.31
		c-20.32,0-27.35-8.68-29.69-20.52c-0.78-3.16-3.12-4.73-5.47-4.73h-13.28c-3.12,0-5.47,2.37-5.47,5.52v0.79
		c3.12,19.73,15.63,33.93,41.41,37.88v18.94c0,3.16,2.34,5.52,6.25,6.31h11.72c3.13,0,5.47-2.37,6.25-6.31v-18.94
		C290.13,316.64,305.76,300.07,305.76,278.76L305.76,278.76z"/>
	<path class="st1" d="M228.35,159.98"/>
</g>
</svg>
