<?xml version="1.0" encoding="utf-8"?>
<!-- Generator: Adobe Illustrator 22.0.1, SVG Export Plug-In . SVG Version: 6.00 Build 0)  -->
<svg version="1.1" id="Layer_1" xmlns="http://www.w3.org/2000/svg" xmlns:xlink="http://www.w3.org/1999/xlink" x="0px" y="0px"
	 viewBox="0 0 1024 1024" style="enable-background:new 0 0 1024 1024;" xml:space="preserve">
<style type="text/css">
	.st0{fill:#F0F0F8;}
	.st1{fill:#FEB830;}
	.st2{fill:#FEFEFE;}
	.st3{fill:#FDF0D6;}
	.st4{fill:#263B45;}
	.st5{fill:#394C55;}
</style>
<g>
	<path class="st0" d="M1016,463.3c0,33,0,65.9,0,98.9c-2.8,0.3-3,2.4-3.1,4.6c-0.5,6-0.8,11.9-1.7,17.9
		c-6.1,36.6-14.8,72.4-27.9,107.1c-22,57.5-53.2,109.3-94,154.8c-28.6,31.9-60.4,60.4-96.4,84.3c-41.8,27.8-86.7,49.3-134.7,63.7
		c-14.9,4.6-29.7,9.7-45.5,10.4c8.5-23.2,17-46.5,25.4-69.7c32.5-10.8,63.9-23.7,93.7-40.8c51.2-29.7,95-67.5,130.8-114.6
		C889,745,910,707,925.6,666c17-45.2,25.9-92,27.6-140.4c0.9-28.9-1.3-57.6-6-86.4c-6.4-39.1-18.1-76.5-34.5-112.4
		c-8-17.6-18.1-34.1-27.2-51.2c8.6-22.8,17.3-45.7,25.9-68.5c2.4,0.2,3.8,1.7,5,3.5c6.6,9.4,13.5,18.5,19.6,28.3
		c26.1,41,46.5,84.5,59.8,131.3c8.2,28.7,14.6,57.9,17.1,87.8C1013,460.3,1012.7,462.9,1016,463.3z"/>
	<path class="st0" d="M8,562.2c0-33,0-65.9,0-98.9c2.2-0.3,3.1-1.6,3.1-3.8c-0.3-4.7,0.9-9.3,1.4-14c3.5-30.3,10.5-59.8,19.8-88.9
		c12.6-39.1,29.5-76.3,51.7-110.8c8.5-13.3,16.5-27.2,27.6-38.6c9.1,22.6,17.7,45.4,25.6,68.5c-0.2,2.7-0.8,5.2-2.2,7.4
		c-14,23.1-25.7,47.1-35.5,72.2c-17,43.8-25.9,89.5-28.4,136.1c-1.6,27.8,0.5,55.7,4.4,83.4c6.8,48.2,21.2,94,43.5,137.2
		c27.8,53.9,64.5,100.8,111.6,139.3c46.2,37.8,97.7,65.6,154.8,82.9c0,0.8,0.3,1.4,1.3,1.4h-0.2c-0.8,3.3,1.1,6.1,2.2,8.9
		c7.4,19.9,14.8,39.9,22.1,60c-2.7-0.2-5.3,0.3-7.7-0.3c-84.9-19.2-160.3-57.5-225.3-115.1c-32-28.4-60.6-60.3-84.3-96.2
		c-20.6-31.1-37.8-63.7-51.2-98.4c-14.6-37.5-24.7-76.1-29.7-116.2C11.6,573.2,14.6,566.2,8,562.2z"/>
	<path class="st0" d="M284.3,62.8c25.4-14.1,52.4-24,80.1-32.8c23.9-7.5,48.2-12.4,72.9-16.6c6.6-1.1,13.3-1.6,20.1-2.2
		c2.5-0.3,5.5,0.6,6.1-3.1c33,0,65.9,0,98.9,0c4.4,6,11.3,3.6,17,4.4c35.3,4.9,69.9,13.2,103.5,25.3c16.6,6,33,12.7,49,20.6
		c2.5,1.3,5.5,2,6.8,5c-7.4,18.8-14.9,37.5-22.3,56.4c-16.6-5.5-31.7-14.4-48.2-20.6C622.8,82.3,576.1,73,527.9,71
		c-26.8-1.1-53.5,0.8-80.2,4.6C410.9,81,375.4,91.1,341,105.2c-11.1,4.6-21,11.6-33,14.3c-1.1-2.4-2-4.7-3.1-7.1
		C297.7,95.9,293.3,78.5,284.3,62.8z"/>
	<path class="st1" d="M474.3,1016c-10.4-3.6-21.4-2.5-31.9-4.7c-10.5-2.2-21.7-2-31.7-6.6c-7.4-19.9-14.8-39.9-22.1-60
		c-1.1-2.8-3-5.7-2.2-8.9c4.2-0.3,8.2,1.4,12.2,2.5c53.1,13.8,106.8,18.1,161.2,12.1c26.5-2.8,52.4-8.6,78.2-15.2
		c-8.5,23.2-17,46.5-25.4,69.7c-14,5-28.9,5.3-43.3,7.9c-7.5,1.3-15.4,0-22.6,3.1C522.5,1016,498.3,1016,474.3,1016z"/>
	<path class="st2" d="M637.9,935.3c-25.7,6.4-51.7,12.4-78.2,15.2c-54.6,5.8-108.2,1.6-161.2-12.1c-4.1-1.1-7.9-2.8-12.2-2.5h0.2
		c-0.5-0.5-0.8-0.9-1.3-1.4c-57.2-17.3-108.5-45.1-154.8-82.9c-47.1-38.6-84-85.6-111.6-139.3c-22.3-43.2-36.6-89-43.5-137.2
		c-3.9-27.8-5.8-55.6-4.4-83.4c2.5-46.8,11.5-92.3,28.4-136.1c9.7-25.1,21.5-49.1,35.5-72.2c1.4-2.4,2-4.9,2.2-7.4
		c4.1,0.6,4.4-3.3,5.7-5.3c40.8-62,93.9-110.7,158.9-146.5c2.2-1.3,5-1.9,6.1-4.6c11.9-2.7,21.8-9.7,33-14.3
		c34.4-14.1,69.7-24.3,106.6-29.7c26.5-3.9,53.4-5.8,80.2-4.6c48.2,2,94.8,11.3,140.2,28.1c16.5,6.1,31.6,15.1,48.2,20.6
		c1.1,2.4,3.6,3,5.5,4.1c21,11.5,41,24.3,60,38.9c20.4,15.9,39.3,33.1,56.7,52.1c17.6,19.2,32.5,40,47.4,61.2
		c9.1,17,19,33.6,27.2,51.2c16.5,36,28.1,73.3,34.5,112.4c4.7,28.6,6.9,57.5,6,86.4c-1.6,48.2-10.5,95.1-27.6,140.4
		c-15.4,41-36.4,79-63.1,113.8c-35.8,47.1-79.6,84.9-130.8,114.6C702,911.7,670.4,924.6,637.9,935.3z M264.1,377.1
		c-0.8,1.9-1.6,3.8-2.5,5.7c-49.3,106.5-40.2,207.6,28.6,302.6c32,44.3,75.7,74.4,126.5,94.4c-0.5,4.4,2.2,8,3.6,11.8
		c10,25.7,17.6,52.4,30,77.2c12.7,25.1,34.5,37.4,62.2,37.2c27.6,0,48-13.2,61.4-37.4c6-10.8,9.6-22.6,13.7-34.1
		c5.7-15.9,13.2-31.2,17-47.7c2.4-2.2,5.7-2.5,8.5-3.5C745.8,736.8,824.8,601,799.5,462.4c-6.4-35.3-19.5-68.1-37.2-99.1
		c3.1-1.6,3.9-4.9,5-7.7c6.4-16.8,12.4-33.8,19-50.4c10.4-26.1,9.3-50.9-7.5-74.1c-21-29-62.6-34.4-90.6-18.5
		c-18.5,10.5-29,27.2-35,46.9c-15.4-7.1-30.5-14.6-46.6-19.6c-10.8-3.5-17.1,0.9-17.4,12.4c-0.2,6.6-0.2,13,0,19.6
		c0.2,10,4.6,16.3,14.1,20.1c11,4.2,21.7,8.8,31.7,15.1c-7.5,20.3-14.8,40.5-22.5,60.6c-4.4,11.6-7.5,23.7-14,34.5
		c-13.7-16.5-30.5-27.5-52.1-30.3c-4.1-0.5-4.9-2.5-4.9-6.3c0.2-9.9,0.2-19.8,0-29.7c-0.2-10-5.3-15.2-15.4-15.5
		c-5.8-0.2-11.5,0-17.3,0c-11.6,0-16.6,4.9-17,16.5c-0.2,8.8-0.3,17.7,0,26.7c0.2,4.4-1.1,6.4-5.8,7.2c-24,3.9-44.1,15.2-59.2,34.7
		c-2.8-1.3-3-4.1-3.9-6.4c-4.1-10.7-8.2-21.4-12.1-32c-6.6-18.5-14.6-36.6-20.1-55.4c13.3-9.3,28.1-16,43.2-21.8
		c8-3.1,12.1-8.6,11.9-17.3c-0.2-7.4,0.2-14.6-0.2-22c-0.3-10-6.9-14-16.5-11c-19.9,6.4-38.8,15.4-57.3,25
		c-1.7-5.2-3.3-10.5-5.5-15.4c-15.4-35.5-45.8-51.3-83.7-43c-37.8,8.3-61.2,49.6-49.6,86.7c4.2,13.7,9.7,26.8,14.6,40.4
		C253.4,347.8,260,361.9,264.1,377.1z"/>
	<path class="st1" d="M885.5,275.9c-14.9-21.2-29.8-42.1-47.4-61.2c-17.4-19-36.3-36.3-56.7-52.1c-18.8-14.6-38.9-27.6-60-38.9
		c-2-1.1-4.4-1.7-5.5-4.1c7.4-18.8,14.9-37.5,22.3-56.4c10.5,1.9,19,8.3,27.8,13.7c23.2,13.8,45.8,28.9,66.6,46.3
		c27.3,22.9,52.3,48.2,74.4,76.1c1.9,2.4,4.4,4.7,4.2,8.2C902.6,230.2,894,253.1,885.5,275.9z"/>
	<path class="st1" d="M307.7,119.5c-1.1,2.8-3.8,3.5-6.1,4.6c-65,35.8-118.1,84.5-158.9,146.5c-1.4,2-1.6,6-5.7,5.3
		c-7.7-23.1-16.5-45.8-25.6-68.5c2.4-6.3,7.2-10.8,11.3-15.7c43.2-52.1,94.5-94.2,154.5-125.8c2.4-1.3,4.7-2,7.1-3.1
		c8.9,15.7,13.3,33.3,20.3,49.8C305.7,114.8,306.8,117.1,307.7,119.5z"/>
	<path class="st1" d="M385.3,934.5c0.5,0.5,0.8,0.9,1.3,1.4C385.5,936.1,385.3,935.3,385.3,934.5z"/>
	<path class="st3" d="M604.6,786.6c-3.8,16.6-11.3,31.9-17,47.7c-4.1,11.5-7.7,23.2-13.7,34.1c-13.3,24.2-33.9,37.4-61.4,37.4
		c-27.8,0-49.6-12.2-62.2-37.2c-12.6-24.7-20.1-51.5-30-77.2c-1.4-3.8-4.1-7.4-3.6-11.8c4.2,1.4,8.5,2.8,12.6,4.1
		c10.4,3.5,16.6-1.1,17-12.2c0.2-6,0-12.1,0-18.1c0-11.1-3.8-16.3-14.4-20.6c-14.8-6-29.2-12.4-42.2-21.8c-0.3-1.3-0.5-2.8-2.4-1.6
		l-0.6-0.3c2.5-3.1,0.6-6.1-0.5-8.8c-3.1-8.8-6.6-17.6-9.9-26.4c-23.4-62.2-46.5-124.4-70.2-186.5c-5.2-13.5-8.9-27.6-16.2-40.4
		c16.6-58.1,49.9-103.6,101.1-135.8c5.5,18.8,13.5,36.9,20.1,55.4c3.8,10.7,8,21.4,12.1,32c0.9,2.4,1.1,5.2,3.9,6.4
		c-1.3,2.2-2.5,4.6-3.8,6.8c-22.3,40.2-5.2,88.1,37.5,104.7c3,1.1,5.8,2.2,8.8,3.3c4.2,16.6,11.8,32.2,17.3,48.4
		c5,14.8,11.6,28.9,15.7,44c-1.9-0.2-3.6,0-5.5-0.5c-19.9-4.4-32.8-16-37.5-36.3c-2.4-10.2-5.3-12.1-15.9-12.2c-6.8,0-13.7,0-20.4,0
		c-11,0.2-15.2,5.2-13.2,16c5.3,27.6,19.8,48.5,45.2,61.2c10,5,20.7,8.6,31.9,10.4c5.5,0.8,6.6,3.1,6.4,8.2
		c-0.3,9.4-0.2,18.8,0,28.3c0.2,10.2,5.2,15.4,15.4,15.7c6,0.3,12.1,0.2,18.1,0c10.4-0.2,15.7-5.3,16-16c0.2-7.9,0.6-15.7-0.2-23.6
		c-0.8-8.5,2-11.8,10.7-14c44.1-11.1,77.6-47.1,66.7-102.8c-3.8-19.5-14.4-33.8-31.6-43.6c-7.5-4.2-15.9-6.6-23.7-10.2
		c5-14.6,11.6-28.7,15.7-43.8c5.7-0.2,11.5-0.2,17.1-0.3c12.1-0.2,16.6-5.7,13.8-17.4c-2.5-10.8-7.7-20.4-13.7-29.5
		c6.4-10.8,9.4-22.9,14-34.5c7.7-20.1,15.1-40.4,22.5-60.6c13.5,6.9,25.7,15.9,37.2,25.7c31.1,27,54.5,59.5,68,98.8
		c-1.9,1.1-2.7,3.1-3.3,5.2c-14.6,39.1-29.2,78-43.8,117.1c-16.5,44-33.1,87.8-49.3,131.7c-4.2,11.6-10.2,22.9-12.2,35.3
		c-9.4,6.3-19.8,10.2-30.1,14.3c-8.3,3.1-12.4,8.9-12.2,17.9c0.2,6.4,0,13,0,19.5C589.2,783.8,593.6,787.6,604.6,786.6z"/>
	<path class="st4" d="M598.5,402.1c6,9.3,11.1,18.8,13.7,29.5c2.8,11.8-1.7,17.3-13.8,17.4c-5.7,0-11.5,0.2-17.1,0.3
		c-9.4,0.6-14.6-3.9-17.7-13c-4.1-11.8-12.2-20.7-24.5-24.7c-16.5-5.3-33.4-5.7-50.1-0.2c-15.4,5-23.2,16.5-23.6,32.3
		c-0.3,16.3,6.1,26.5,21.4,33c3.8,1.6,7.9,2.8,11.9,3.9c22,5.7,44.9,6.6,66.9,12.4c7.9,3.5,16.2,5.8,23.7,10.2
		c17.1,9.7,27.8,24.2,31.6,43.6c10.7,55.7-22.8,91.9-66.7,102.8c-8.6,2.2-11.5,5.5-10.7,14c0.8,7.9,0.3,15.7,0.2,23.6
		c-0.3,10.5-5.7,15.9-16,16c-6,0.2-12.1,0.2-18.1,0c-10.2-0.5-15.2-5.7-15.4-15.7c-0.2-9.4-0.3-18.8,0-28.3c0.2-5-0.9-7.2-6.4-8.2
		c-11.1-1.7-21.8-5.3-31.9-10.4c-25.4-12.7-39.9-33.8-45.2-61.2c-2-10.8,2.2-15.9,13.2-16c6.8,0,13.7,0,20.4,0
		c10.7,0,13.5,2,15.9,12.2c4.7,20.4,17.6,32,37.5,36.3c1.7,0.3,3.6,0.3,5.5,0.5c6.1,2,12.4,1.7,18.7,1.4
		c13.8,0.2,26.1-3.9,36.9-12.7c18.5-15.2,20.7-53.7-9.7-62.8c-5.3-3-11.1-4.2-17-5.7c-20.4-5.2-41.6-6.3-61.9-12.2
		c-3-1.1-5.8-2.2-8.8-3.3c-42.5-16.6-59.7-64.5-37.5-104.7c1.3-2.2,2.5-4.6,3.8-6.8c15.1-19.5,35.2-30.6,59.2-34.7
		c4.7-0.8,6-2.7,5.8-7.2c-0.3-8.8-0.2-17.7,0-26.7c0.2-11.6,5.3-16.5,17-16.5c5.8,0,11.5-0.2,17.3,0c10.2,0.3,15.4,5.5,15.4,15.5
		c0.2,9.9,0.2,19.8,0,29.7c-0.2,3.6,0.6,5.8,4.9,6.3C567.9,374.8,584.9,385.8,598.5,402.1z"/>
	<path class="st5" d="M740,431.6c-13.5-39.3-36.9-71.6-68-98.8c-11.5-9.9-23.7-18.8-37.2-25.7c-9.9-6.3-20.7-10.8-31.7-15.1
		c-9.6-3.8-14.1-10-14.1-20.1c0-6.6-0.2-13,0-19.6c0.3-11.5,6.8-15.9,17.4-12.4c16.2,5.2,31.4,12.6,46.6,19.6
		c7.7,4.9,15.5,9.4,23.1,14.4c35.3,23.4,63.4,53.7,86.2,89.2c17.9,30.9,30.8,63.7,37.2,99.1c25.3,138.6-53.5,274.5-186.5,320.9
		c-2.8,0.9-6.1,1.3-8.5,3.5c-11,0.9-15.4-3-15.5-13.8c-0.2-6.4,0.2-13,0-19.5c-0.2-8.9,3.9-14.8,12.2-17.9
		c10.4-3.9,20.7-8,30.1-14.3c2.5-1.3,5.2-2.4,7.7-3.9c75.2-47.1,113-115.7,115.9-203.8C755.7,485.5,750.8,457.8,740,431.6z"/>
	<path class="st5" d="M391.1,311.3c-51.2,32.2-84.5,77.9-101.1,135.8c-14.1,46.8-12.7,93.4,2.7,139.4
		c17.1,51.5,48.2,92.8,93.9,122.6l0.6,0.3c0.8,0.5,1.6,1.1,2.4,1.6c13,9.4,27.5,15.9,42.2,21.8c10.7,4.2,14.4,9.4,14.4,20.6
		c0,6,0.2,12.1,0,18.1c-0.3,11.1-6.6,15.5-17,12.2c-4.2-1.4-8.5-2.8-12.6-4.1c-50.7-19.9-94.4-50.1-126.5-94.4
		c-68.6-95-77.9-196.1-28.6-302.6c0.9-1.9,1.7-3.8,2.5-5.7c9.7-16.3,19.8-32.5,31.9-47.3c21.7-26.4,47.6-47.6,76.5-65.5
		c18.5-9.6,37.4-18.5,57.3-25c9.6-3.1,16,0.8,16.5,11c0.3,7.4,0,14.6,0.2,22c0.2,8.6-3.8,14.1-11.9,17.3
		C419.2,295.3,404.4,302.1,391.1,311.3z"/>
	<path class="st3" d="M372.4,264.4c-28.9,17.9-54.8,39.1-76.5,65.5c-12.1,14.8-22.1,30.9-31.9,47.3c-4.1-15.1-10.5-29.4-15.9-44
		c-4.9-13.5-10.4-26.7-14.6-40.4c-11.6-37.1,11.8-78.3,49.6-86.7c38-8.3,68.5,7.4,83.7,43C369.1,253.9,370.5,259.2,372.4,264.4z"/>
	<path class="st3" d="M762.4,363.2c-22.6-35.5-50.9-65.8-86.2-89.2c-7.5-5-15.4-9.6-23.1-14.4c6-19.9,16.5-36.6,35-46.9
		c28.1-15.9,69.7-10.5,90.6,18.5c16.8,23.2,17.9,48,7.5,74.1c-6.6,16.8-12.6,33.6-19,50.4C766.4,358.3,765.6,361.6,762.4,363.2z"/>
	<path class="st2" d="M740,431.6c10.7,26.2,15.7,53.7,14.8,81.8c-2.8,88.1-40.7,156.7-115.9,203.8c-2.4,1.6-5,2.7-7.7,3.9
		c2-12.4,7.9-23.7,12.2-35.3c16.2-44,32.8-87.9,49.3-131.7c14.6-39.1,29.2-78,43.8-117.1C737.5,434.9,738.1,432.9,740,431.6z"/>
	<path class="st2" d="M386.5,709.4c-45.7-29.8-76.6-71.1-93.9-122.6c-15.4-46-16.8-92.6-2.7-139.4c7.2,12.7,11,26.8,16.2,40.4
		c23.6,62,46.8,124.4,70.2,186.5c3.3,8.8,6.8,17.6,9.9,26.4C387,703.2,389.1,706.2,386.5,709.4z"/>
	<path class="st2" d="M565.4,493.2c-22-5.8-44.9-6.8-66.9-12.4c-4.1-1.1-8-2.2-11.9-3.9c-15.2-6.4-21.8-16.6-21.4-33
		c0.3-16,8.3-27.3,23.6-32.3c16.6-5.5,33.4-5.2,50.1,0.2c12.2,3.9,20.4,12.9,24.5,24.7c3.1,8.9,8.3,13.5,17.7,13
		C577,464.4,570.4,478.6,565.4,493.2z"/>
	<path class="st2" d="M521.3,613.7c-6.3,0.5-12.6,0.8-18.7-1.4c-4.1-15.1-10.7-29.2-15.7-44c-5.5-16.2-13-31.7-17.3-48.4
		c20.3,6,41.5,7.1,61.9,12.2c5.8,1.4,11.6,2.7,17,5.7c-5.3,14.4-10.8,28.7-16,43.2C528.6,592.1,523.1,602.3,521.3,613.7z"/>
	<path class="st2" d="M389.5,711.2c-0.8-0.5-1.6-1.1-2.4-1.6C389.1,708.4,389.2,710,389.5,711.2z"/>
	<path class="st3" d="M521.3,613.7c1.9-11.5,7.2-21.7,11-32.3c5.2-14.4,10.7-28.9,16-43.2c30.5,9.3,28.3,47.7,9.7,62.8
		C547.5,609.8,535.2,613.9,521.3,613.7z"/>
</g>
</svg>
