<?xml version="1.0" encoding="utf-8"?>
<!-- Generator: Adobe Illustrator 22.0.1, SVG Export Plug-In . SVG Version: 6.00 Build 0)  -->
<svg version="1.1" id="Layer_1" xmlns="http://www.w3.org/2000/svg" xmlns:xlink="http://www.w3.org/1999/xlink" x="0px" y="0px"
	 viewBox="0 0 1024 1024" style="enable-background:new 0 0 1024 1024;" xml:space="preserve">
<style type="text/css">
	.st0{fill:#F0F0F8;}
	.st1{fill:#FEB830;}
	.st2{fill:#FEFEFE;}
	.st3{fill:#FDF0D6;}
	.st4{fill:#263B45;}
	.st5{fill:#394C55;}
</style>
<g>
	<path class="st0" d="M834,482c0,21,0,42,0,63c-1.8,0.2-1.9,1.5-2,2.9c-0.3,3.8-0.5,7.6-1.1,11.4c-3.9,23.3-9.4,46.1-17.8,68.2
		c-14,36.6-33.9,69.6-59.9,98.6c-18.2,20.3-38.5,38.5-61.4,53.7c-26.6,17.7-55.2,31.4-85.8,40.6c-9.5,2.9-18.9,6.2-29,6.6
		c5.4-14.8,10.8-29.6,16.2-44.4c20.7-6.9,40.7-15.1,59.7-26c32.6-18.9,60.5-43,83.3-73c16.9-22.2,30.3-46.4,40.2-72.5
		c10.8-28.8,16.5-58.6,17.6-89.4c0.6-18.4-0.8-36.7-3.8-55c-4.1-24.9-11.5-48.7-22-71.6c-5.1-11.2-11.5-21.7-17.3-32.6
		c5.5-14.5,11-29.1,16.5-43.6c1.5,0.1,2.4,1.1,3.2,2.2c4.2,6,8.6,11.8,12.5,18c16.6,26.1,29.6,53.8,38.1,83.6
		c5.2,18.3,9.3,36.9,10.9,55.9C832.1,480.1,831.9,481.7,834,482z"/>
	<path class="st0" d="M192,545c0-21,0-42,0-63c1.4-0.2,2-1,2-2.4c-0.2-3,0.6-5.9,0.9-8.9c2.2-19.3,6.7-38.1,12.6-56.6
		c8-24.9,18.8-48.6,32.9-70.6c5.4-8.5,10.5-17.3,17.6-24.6c5.8,14.4,11.3,28.9,16.3,43.6c-0.1,1.7-0.5,3.3-1.4,4.7
		c-8.9,14.7-16.4,30-22.6,46c-10.8,27.9-16.5,57-18.1,86.7c-1,17.7,0.3,35.5,2.8,53.1c4.3,30.7,13.5,59.9,27.7,87.4
		c17.7,34.3,41.1,64.2,71.1,88.7c29.4,24.1,62.2,41.8,98.6,52.8c0,0.5,0.2,0.9,0.8,0.9h-0.1c-0.5,2.1,0.7,3.9,1.4,5.7
		c4.7,12.7,9.4,25.4,14.1,38.2c-1.7-0.1-3.4,0.2-4.9-0.2c-54.1-12.2-102.1-36.6-143.5-73.3c-20.4-18.1-38.6-38.4-53.7-61.3
		c-13.1-19.8-24.1-40.6-32.6-62.7c-9.3-23.9-15.7-48.5-18.9-74C194.3,552,196.2,547.5,192,545z"/>
	<path class="st0" d="M368,226.9c16.2-9,33.4-15.3,51-20.9c15.2-4.8,30.7-7.9,46.4-10.6c4.2-0.7,8.5-1,12.8-1.4
		c1.6-0.2,3.5,0.4,3.9-2c21,0,42,0,63,0c2.8,3.8,7.2,2.3,10.8,2.8c22.5,3.1,44.5,8.4,65.9,16.1c10.6,3.8,21,8.1,31.2,13.1
		c1.6,0.8,3.5,1.3,4.3,3.2c-4.7,12-9.5,23.9-14.2,35.9c-10.6-3.5-20.2-9.2-30.7-13.1c-28.8-10.7-58.6-16.6-89.3-17.9
		c-17.1-0.7-34.1,0.5-51.1,2.9c-23.4,3.5-46,9.9-67.9,18.9c-7.1,2.9-13.4,7.4-21,9.1c-0.7-1.5-1.3-3-2-4.5
		C376.5,248,373.7,236.9,368,226.9z"/>
	<path class="st1" d="M489,834c-6.6-2.3-13.6-1.6-20.3-3c-6.7-1.4-13.8-1.3-20.2-4.2c-4.7-12.7-9.4-25.4-14.1-38.2
		c-0.7-1.8-1.9-3.6-1.4-5.7c2.7-0.2,5.2,0.9,7.8,1.6c33.8,8.8,68,11.5,102.7,7.7c16.9-1.8,33.4-5.5,49.8-9.7
		c-5.4,14.8-10.8,29.6-16.2,44.4c-8.9,3.2-18.4,3.4-27.6,5c-4.8,0.8-9.8,0-14.4,2C519.7,834,504.3,834,489,834z"/>
	<path class="st2" d="M593.2,782.6c-16.4,4.1-32.9,7.9-49.8,9.7c-34.8,3.7-68.9,1-102.7-7.7c-2.6-0.7-5-1.8-7.8-1.6h0.1
		c-0.3-0.3-0.5-0.6-0.8-0.9c-36.4-11-69.1-28.7-98.6-52.8c-30-24.6-53.5-54.5-71.1-88.7c-14.2-27.5-23.3-56.7-27.7-87.4
		c-2.5-17.7-3.7-35.4-2.8-53.1c1.6-29.8,7.3-58.8,18.1-86.7c6.2-16,13.7-31.3,22.6-46c0.9-1.5,1.3-3.1,1.4-4.7
		c2.6,0.4,2.8-2.1,3.6-3.4c26-39.5,59.8-70.5,101.2-93.3c1.4-0.8,3.2-1.2,3.9-2.9c7.6-1.7,13.9-6.2,21-9.1
		c21.9-9,44.4-15.5,67.9-18.9c16.9-2.5,34-3.7,51.1-2.9c30.7,1.3,60.4,7.2,89.3,17.9c10.5,3.9,20.1,9.6,30.7,13.1
		c0.7,1.5,2.3,1.9,3.5,2.6c13.4,7.3,26.1,15.5,38.2,24.8c13,10.1,25,21.1,36.1,33.2c11.2,12.2,20.7,25.5,30.2,39
		c5.8,10.8,12.1,21.4,17.3,32.6c10.5,22.9,17.9,46.7,22,71.6c3,18.2,4.4,36.6,3.8,55c-1,30.7-6.7,60.6-17.6,89.4
		c-9.8,26.1-23.2,50.3-40.2,72.5c-22.8,30-50.7,54.1-83.3,73C634,767.6,613.9,775.8,593.2,782.6z M355.1,427.1
		c-0.5,1.2-1,2.4-1.6,3.6c-31.4,67.8-25.6,132.2,18.2,192.7c20.4,28.2,48.2,47.4,80.6,60.1c-0.3,2.8,1.4,5.1,2.3,7.5
		c6.4,16.4,11.2,33.4,19.1,49.2c8.1,16,22,23.8,39.6,23.7c17.6,0,30.6-8.4,39.1-23.8c3.8-6.9,6.1-14.4,8.7-21.7
		c3.6-10.1,8.4-19.9,10.8-30.4c1.5-1.4,3.6-1.6,5.4-2.2c84.6-29.6,134.9-116.1,118.8-204.4c-4.1-22.5-12.4-43.4-23.7-63.1
		c2-1,2.5-3.1,3.2-4.9c4.1-10.7,7.9-21.5,12.1-32.1c6.6-16.6,5.9-32.4-4.8-47.2c-13.4-18.5-39.9-21.9-57.7-11.8
		c-11.8,6.7-18.5,17.3-22.3,29.9c-9.8-4.5-19.4-9.3-29.7-12.5c-6.9-2.2-10.9,0.6-11.1,7.9c-0.1,4.2-0.1,8.3,0,12.5
		c0.1,6.4,2.9,10.4,9,12.8c7,2.7,13.8,5.6,20.2,9.6c-4.8,12.9-9.4,25.8-14.3,38.6c-2.8,7.4-4.8,15.1-8.9,22
		c-8.7-10.5-19.4-17.5-33.2-19.3c-2.6-0.3-3.1-1.6-3.1-4c0.1-6.3,0.1-12.6,0-18.9c-0.1-6.4-3.4-9.7-9.8-9.9c-3.7-0.1-7.3,0-11,0
		c-7.4,0-10.6,3.1-10.8,10.5c-0.1,5.6-0.2,11.3,0,17c0.1,2.8-0.7,4.1-3.7,4.6c-15.3,2.5-28.1,9.7-37.7,22.1
		c-1.8-0.8-1.9-2.6-2.5-4.1c-2.6-6.8-5.2-13.6-7.7-20.4c-4.2-11.8-9.3-23.3-12.8-35.3c8.5-5.9,17.9-10.2,27.5-13.9
		c5.1-2,7.7-5.5,7.6-11c-0.1-4.7,0.1-9.3-0.1-14c-0.2-6.4-4.4-8.9-10.5-7c-12.7,4.1-24.7,9.8-36.5,15.9c-1.1-3.3-2.1-6.7-3.5-9.8
		c-9.8-22.6-29.2-32.7-53.3-27.4c-24.1,5.3-39,31.6-31.6,55.2c2.7,8.7,6.2,17.1,9.3,25.7C348.3,408.4,352.5,417.4,355.1,427.1z"/>
	<path class="st1" d="M750.9,362.6c-9.5-13.5-19-26.8-30.2-39c-11.1-12.1-23.1-23.1-36.1-33.2c-12-9.3-24.8-17.6-38.2-24.8
		c-1.3-0.7-2.8-1.1-3.5-2.6c4.7-12,9.5-23.9,14.2-35.9c6.7,1.2,12.1,5.3,17.7,8.7c14.8,8.8,29.2,18.4,42.4,29.5
		c17.4,14.6,33.3,30.7,47.4,48.5c1.2,1.5,2.8,3,2.7,5.2C761.8,333.5,756.3,348.1,750.9,362.6z"/>
	<path class="st1" d="M382.9,263c-0.7,1.8-2.4,2.2-3.9,2.9c-41.4,22.8-75.2,53.8-101.2,93.3c-0.9,1.3-1,3.8-3.6,3.4
		c-4.9-14.7-10.5-29.2-16.3-43.6c1.5-4,4.6-6.9,7.2-10c27.5-33.2,60.2-60,98.4-80.1c1.5-0.8,3-1.3,4.5-2c5.7,10,8.5,21.2,12.9,31.7
		C381.6,260,382.3,261.5,382.9,263z"/>
	<path class="st1" d="M432.3,782.1c0.3,0.3,0.5,0.6,0.8,0.9C432.4,783.1,432.3,782.6,432.3,782.1z"/>
	<path class="st3" d="M572,687.9c-2.4,10.6-7.2,20.3-10.8,30.4c-2.6,7.3-4.9,14.8-8.7,21.7c-8.5,15.4-21.6,23.8-39.1,23.8
		c-17.7,0-31.6-7.8-39.6-23.7c-8-15.7-12.8-32.8-19.1-49.2c-0.9-2.4-2.6-4.7-2.3-7.5c2.7,0.9,5.4,1.8,8,2.6
		c6.6,2.2,10.6-0.7,10.8-7.8c0.1-3.8,0-7.7,0-11.5c0-7.1-2.4-10.4-9.2-13.1c-9.4-3.8-18.6-7.9-26.9-13.9c-0.2-0.8-0.3-1.8-1.5-1
		l-0.4-0.2c1.6-2,0.4-3.9-0.3-5.6c-2-5.6-4.2-11.2-6.3-16.8c-14.9-39.6-29.6-79.2-44.7-118.8c-3.3-8.6-5.7-17.6-10.3-25.7
		c10.6-37,31.8-66,64.4-86.5c3.5,12,8.6,23.5,12.8,35.3c2.4,6.8,5.1,13.6,7.7,20.4c0.6,1.5,0.7,3.3,2.5,4.1
		c-0.8,1.4-1.6,2.9-2.4,4.3c-14.2,25.6-3.3,56.1,23.9,66.7c1.9,0.7,3.7,1.4,5.6,2.1c2.7,10.6,7.5,20.5,11,30.8
		c3.2,9.4,7.4,18.4,10,28c-1.2-0.1-2.3,0-3.5-0.3c-12.7-2.8-20.9-10.2-23.9-23.1c-1.5-6.5-3.4-7.7-10.1-7.8c-4.3,0-8.7,0-13,0
		c-7,0.1-9.7,3.3-8.4,10.2c3.4,17.6,12.6,30.9,28.8,39c6.4,3.2,13.2,5.5,20.3,6.6c3.5,0.5,4.2,2,4.1,5.2c-0.2,6-0.1,12,0,18
		c0.1,6.5,3.3,9.8,9.8,10c3.8,0.2,7.7,0.1,11.5,0c6.6-0.1,10-3.4,10.2-10.2c0.1-5,0.4-10-0.1-15c-0.5-5.4,1.3-7.5,6.8-8.9
		c28.1-7.1,49.4-30,42.5-65.5c-2.4-12.4-9.2-21.5-20.1-27.8c-4.8-2.7-10.1-4.2-15.1-6.5c3.2-9.3,7.4-18.3,10-27.9
		c3.6-0.1,7.3-0.1,10.9-0.2c7.7-0.1,10.6-3.6,8.8-11.1c-1.6-6.9-4.9-13-8.7-18.8c4.1-6.9,6-14.6,8.9-22c4.9-12.8,9.6-25.7,14.3-38.6
		c8.6,4.4,16.4,10.1,23.7,16.4c19.8,17.2,34.7,37.9,43.3,62.9c-1.2,0.7-1.7,2-2.1,3.3c-9.3,24.9-18.6,49.7-27.9,74.6
		c-10.5,28-21.1,55.9-31.4,83.9c-2.7,7.4-6.5,14.6-7.8,22.5c-6,4-12.6,6.5-19.2,9.1c-5.3,2-7.9,5.7-7.8,11.4c0.1,4.1,0,8.3,0,12.4
		C562.2,686.1,565,688.5,572,687.9z"/>
	<path class="st4" d="M568.1,443c3.8,5.9,7.1,12,8.7,18.8c1.8,7.5-1.1,11-8.8,11.1c-3.6,0-7.3,0.1-10.9,0.2c-6,0.4-9.3-2.5-11.3-8.3
		c-2.6-7.5-7.8-13.2-15.6-15.7c-10.5-3.4-21.3-3.6-31.9-0.1c-9.8,3.2-14.8,10.5-15,20.6c-0.2,10.4,3.9,16.9,13.6,21
		c2.4,1,5,1.8,7.6,2.5c14,3.6,28.6,4.2,42.6,7.9c5,2.2,10.3,3.7,15.1,6.5c10.9,6.2,17.7,15.4,20.1,27.8
		c6.8,35.5-14.5,58.5-42.5,65.5c-5.5,1.4-7.3,3.5-6.8,8.9c0.5,5,0.2,10,0.1,15c-0.2,6.7-3.6,10.1-10.2,10.2c-3.8,0.1-7.7,0.1-11.5,0
		c-6.5-0.3-9.7-3.6-9.8-10c-0.1-6-0.2-12,0-18c0.1-3.2-0.6-4.6-4.1-5.2c-7.1-1.1-13.9-3.4-20.3-6.6c-16.2-8.1-25.4-21.5-28.8-39
		c-1.3-6.9,1.4-10.1,8.4-10.2c4.3,0,8.7,0,13,0c6.8,0,8.6,1.3,10.1,7.8c3,13,11.2,20.4,23.9,23.1c1.1,0.2,2.3,0.2,3.5,0.3
		c3.9,1.3,7.9,1.1,11.9,0.9c8.8,0.1,16.6-2.5,23.5-8.1c11.8-9.7,13.2-34.2-6.2-40c-3.4-1.9-7.1-2.7-10.8-3.6
		c-13-3.3-26.5-4-39.4-7.8c-1.9-0.7-3.7-1.4-5.6-2.1c-27.1-10.6-38-41.1-23.9-66.7c0.8-1.4,1.6-2.9,2.4-4.3
		c9.6-12.4,22.4-19.5,37.7-22.1c3-0.5,3.8-1.7,3.7-4.6c-0.2-5.6-0.1-11.3,0-17c0.1-7.4,3.4-10.5,10.8-10.5c3.7,0,7.3-0.1,11,0
		c6.5,0.2,9.8,3.5,9.8,9.9c0.1,6.3,0.1,12.6,0,18.9c-0.1,2.3,0.4,3.7,3.1,4C548.6,425.6,559.4,432.6,568.1,443z"/>
	<path class="st5" d="M658.2,461.8c-8.6-25-23.5-45.6-43.3-62.9c-7.3-6.3-15.1-12-23.7-16.4c-6.3-4-13.2-6.9-20.2-9.6
		c-6.1-2.4-9-6.4-9-12.8c0-4.2-0.1-8.3,0-12.5c0.2-7.3,4.3-10.1,11.1-7.9c10.3,3.3,20,8,29.7,12.5c4.9,3.1,9.9,6,14.7,9.2
		c22.5,14.9,40.4,34.2,54.9,56.8c11.4,19.7,19.6,40.6,23.7,63.1c16.1,88.3-34.1,174.8-118.8,204.4c-1.8,0.6-3.9,0.8-5.4,2.2
		c-7,0.6-9.8-1.9-9.9-8.8c-0.1-4.1,0.1-8.3,0-12.4c-0.1-5.7,2.5-9.4,7.8-11.4c6.6-2.5,13.2-5.1,19.2-9.1c1.6-0.8,3.3-1.5,4.9-2.5
		c47.9-30,72-73.7,73.8-129.8C668.2,496.1,665.1,478.5,658.2,461.8z"/>
	<path class="st5" d="M436,385.2c-32.6,20.5-53.8,49.6-64.4,86.5c-9,29.8-8.1,59.5,1.7,88.8c10.9,32.8,30.7,59.1,59.8,78.1l0.4,0.2
		c0.5,0.3,1,0.7,1.5,1c8.3,6,17.5,10.1,26.9,13.9c6.8,2.7,9.2,6,9.2,13.1c0,3.8,0.1,7.7,0,11.5c-0.2,7.1-4.2,9.9-10.8,7.8
		c-2.7-0.9-5.4-1.8-8-2.6c-32.3-12.7-60.1-31.9-80.6-60.1c-43.7-60.5-49.6-124.9-18.2-192.7c0.6-1.2,1.1-2.4,1.6-3.6
		c6.2-10.4,12.6-20.7,20.3-30.1c13.8-16.8,30.3-30.3,48.7-41.7c11.8-6.1,23.8-11.8,36.5-15.9c6.1-2,10.2,0.5,10.5,7
		c0.2,4.7,0,9.3,0.1,14c0.1,5.5-2.4,9-7.6,11C453.9,375,444.5,379.3,436,385.2z"/>
	<path class="st3" d="M424.1,355.3c-18.4,11.4-34.9,24.9-48.7,41.7c-7.7,9.4-14.1,19.7-20.3,30.1c-2.6-9.6-6.7-18.7-10.1-28
		c-3.1-8.6-6.6-17-9.3-25.7c-7.4-23.6,7.5-49.9,31.6-55.2c24.2-5.3,43.6,4.7,53.3,27.4C422,348.6,422.9,352,424.1,355.3z"/>
	<path class="st3" d="M672.5,418.2c-14.4-22.6-32.4-41.9-54.9-56.8c-4.8-3.2-9.8-6.1-14.7-9.2c3.8-12.7,10.5-23.3,22.3-29.9
		c17.9-10.1,44.4-6.7,57.7,11.8c10.7,14.8,11.4,30.6,4.8,47.2c-4.2,10.7-8,21.4-12.1,32.1C675,415.1,674.5,417.2,672.5,418.2z"/>
	<path class="st2" d="M658.2,461.8c6.8,16.7,10,34.2,9.4,52.1c-1.8,56.1-25.9,99.8-73.8,129.8c-1.5,1-3.2,1.7-4.9,2.5
		c1.3-7.9,5-15.1,7.8-22.5c10.3-28,20.9-56,31.4-83.9c9.3-24.9,18.6-49.7,27.9-74.6C656.6,463.9,657,462.6,658.2,461.8z"/>
	<path class="st2" d="M433.1,638.7c-29.1-19-48.8-45.3-59.8-78.1c-9.8-29.3-10.7-59-1.7-88.8c4.6,8.1,7,17.1,10.3,25.7
		c15,39.5,29.8,79.2,44.7,118.8c2.1,5.6,4.3,11.2,6.3,16.8C433.4,634.8,434.7,636.7,433.1,638.7z"/>
	<path class="st2" d="M547,501c-14-3.7-28.6-4.3-42.6-7.9c-2.6-0.7-5.1-1.4-7.6-2.5c-9.7-4.1-13.9-10.6-13.6-21
		c0.2-10.2,5.3-17.4,15-20.6c10.6-3.5,21.3-3.3,31.9,0.1c7.8,2.5,13,8.2,15.6,15.7c2,5.7,5.3,8.6,11.3,8.3
		C554.4,482.7,550.2,491.7,547,501z"/>
	<path class="st2" d="M518.9,577.8c-4,0.3-8,0.5-11.9-0.9c-2.6-9.6-6.8-18.6-10-28c-3.5-10.3-8.3-20.2-11-30.8
		c12.9,3.8,26.4,4.5,39.4,7.8c3.7,0.9,7.4,1.7,10.8,3.6c-3.4,9.2-6.9,18.3-10.2,27.5C523.6,564,520.1,570.5,518.9,577.8z"/>
	<path class="st2" d="M435,639.9c-0.5-0.3-1-0.7-1.5-1C434.7,638.1,434.8,639.1,435,639.9z"/>
	<path class="st3" d="M518.9,577.8c1.2-7.3,4.6-13.8,7-20.6c3.3-9.2,6.8-18.4,10.2-27.5c19.4,5.9,18,30.4,6.2,40
		C535.6,575.3,527.8,577.9,518.9,577.8z"/>
</g>
</svg>
