<?xml version="1.0" encoding="utf-8"?>
<!-- Generator: Adobe Illustrator 22.0.1, SVG Export Plug-In . SVG Version: 6.00 Build 0)  -->
<svg version="1.1" id="katman_1" xmlns="http://www.w3.org/2000/svg" xmlns:xlink="http://www.w3.org/1999/xlink" x="0px" y="0px"
	 viewBox="0 0 300 300" style="enable-background:new 0 0 300 300;" xml:space="preserve">
<style type="text/css">
	.st0{fill:#FED955;}
	.st1{fill:#9695F8;}
	.st2{fill:#5552FD;}
</style>
<g>
	<rect x="53.2" y="101.9" class="st0" width="24.2" height="24.2"/>
	<rect x="53.2" y="150.4" class="st0" width="24.2" height="24.2"/>
	<rect x="53.2" y="126.1" class="st0" width="24.2" height="24.2"/>
	<rect x="53.2" y="174.6" class="st0" width="24.2" height="24.2"/>
	<rect x="150.1" y="53.5" class="st0" width="24.2" height="24.2"/>
	<rect x="150.1" y="223.1" class="st0" width="24.2" height="24.2"/>
	<rect x="174.4" y="53.5" class="st0" width="24.2" height="24.2"/>
	<rect x="198.6" y="53.5" class="st1" width="24.2" height="24.2"/>
	<rect x="77.4" y="53.5" class="st1" width="24.2" height="24.2"/>
	<rect x="222.8" y="198.8" class="st1" width="24.2" height="24.2"/>
	<rect x="53.2" y="198.8" class="st1" width="24.2" height="24.2"/>
	<rect x="174.4" y="29.2" class="st1" width="24.2" height="24.2"/>
	<rect x="174.4" y="5" class="st2" width="24.2" height="24.2"/>
	<rect x="174.4" y="271.5" class="st2" width="24.2" height="24.2"/>
	<rect x="174.4" y="247.3" class="st1" width="24.2" height="24.2"/>
	<rect x="125.9" y="29.2" class="st1" width="24.2" height="24.2"/>
	<rect x="125.9" y="5" class="st2" width="24.2" height="24.2"/>
	<rect x="125.9" y="271.5" class="st2" width="24.2" height="24.2"/>
	<rect x="125.9" y="247.3" class="st1" width="24.2" height="24.2"/>
	<rect x="150.1" y="29.2" class="st1" width="24.2" height="24.2"/>
	<rect x="150.1" y="5" class="st2" width="24.2" height="24.2"/>
	<rect x="150.1" y="271.5" class="st2" width="24.2" height="24.2"/>
	<rect x="150.1" y="247.3" class="st1" width="24.2" height="24.2"/>
	<rect x="101.7" y="29.2" class="st1" width="24.2" height="24.2"/>
	<rect x="101.7" y="5" class="st2" width="24.2" height="24.2"/>
	<rect x="101.7" y="271.5" class="st2" width="24.2" height="24.2"/>
	<rect x="101.7" y="247.3" class="st1" width="24.2" height="24.2"/>
	<rect x="222.8" y="77.7" class="st1" width="24.2" height="24.2"/>
	<rect x="53.2" y="77.7" class="st1" width="24.2" height="24.2"/>
	<rect x="198.6" y="223.1" class="st1" width="24.2" height="24.2"/>
	<rect x="77.4" y="223.1" class="st1" width="24.2" height="24.2"/>
	<rect x="247" y="101.9" class="st1" width="24.2" height="24.2"/>
	<rect x="29" y="101.9" class="st1" width="24.2" height="24.2"/>
	<rect x="4.8" y="101.9" class="st2" width="24.2" height="24.2"/>
	<rect x="29" y="77.7" class="st2" width="24.2" height="24.2"/>
	<rect x="247" y="77.7" class="st2" width="24.2" height="24.2"/>
	<rect x="198.6" y="247.3" class="st2" width="24.2" height="24.2"/>
	<rect x="29" y="198.8" class="st2" width="24.2" height="24.2"/>
	<rect x="53.2" y="53.5" class="st2" width="24.2" height="24.2"/>
	<rect x="222.8" y="53.5" class="st2" width="24.2" height="24.2"/>
	<rect x="222.8" y="223.1" class="st2" width="24.2" height="24.2"/>
	<rect x="53.2" y="223.1" class="st2" width="24.2" height="24.2"/>
	<rect x="77.4" y="29.2" class="st2" width="24.2" height="24.2"/>
	<rect x="198.6" y="29.2" class="st2" width="24.2" height="24.2"/>
	<rect x="247" y="198.8" class="st2" width="24.2" height="24.2"/>
	<rect x="77.4" y="247.3" class="st2" width="24.2" height="24.2"/>
	<rect x="271.3" y="101.9" class="st2" width="24.2" height="24.2"/>
	<rect x="247" y="126.1" class="st1" width="24.2" height="24.2"/>
	<rect x="29" y="126.1" class="st1" width="24.2" height="24.2"/>
	<rect x="4.8" y="126.1" class="st2" width="24.2" height="24.2"/>
	<rect x="271.3" y="126.1" class="st2" width="24.2" height="24.2"/>
	<rect x="247" y="150.4" class="st1" width="24.2" height="24.2"/>
	<rect x="29" y="150.4" class="st1" width="24.2" height="24.2"/>
	<rect x="4.8" y="150.4" class="st2" width="24.2" height="24.2"/>
	<rect x="271.3" y="150.4" class="st2" width="24.2" height="24.2"/>
	<rect x="247" y="174.6" class="st1" width="24.2" height="24.2"/>
	<rect x="29" y="174.6" class="st1" width="24.2" height="24.2"/>
	<rect x="4.8" y="174.6" class="st2" width="24.2" height="24.2"/>
	<rect x="271.3" y="174.6" class="st2" width="24.2" height="24.2"/>
	<rect x="174.4" y="223.1" class="st0" width="24.2" height="24.2"/>
	<rect x="150.1" y="101.9" class="st0" width="24.2" height="24.2"/>
	<rect x="150.1" y="150.4" class="st0" width="24.2" height="24.2"/>
	<rect x="150.1" y="174.6" class="st0" width="24.2" height="24.2"/>
	<rect x="150.1" y="77.7" class="st0" width="24.2" height="24.2"/>
	<rect x="150.1" y="198.8" class="st0" width="24.2" height="24.2"/>
	<rect x="101.7" y="150.4" class="st0" width="24.2" height="24.2"/>
	<rect x="101.7" y="126.1" class="st0" width="24.2" height="24.2"/>
	<rect x="101.7" y="174.6" class="st0" width="24.2" height="24.2"/>
	<rect x="101.7" y="77.7" class="st0" width="24.2" height="24.2"/>
	<rect x="101.7" y="198.8" class="st0" width="24.2" height="24.2"/>
	<rect x="174.4" y="150.4" class="st0" width="24.2" height="24.2"/>
	<rect x="174.4" y="126.1" class="st0" width="24.2" height="24.2"/>
	<rect x="174.4" y="174.6" class="st0" width="24.2" height="24.2"/>
	<rect x="174.4" y="77.7" class="st0" width="24.2" height="24.2"/>
	<rect x="174.4" y="198.8" class="st0" width="24.2" height="24.2"/>
	<rect x="125.9" y="53.5" class="st0" width="24.2" height="24.2"/>
	<rect x="125.9" y="223.1" class="st0" width="24.2" height="24.2"/>
	<rect x="101.7" y="53.5" class="st0" width="24.2" height="24.2"/>
	<rect x="101.7" y="223.1" class="st0" width="24.2" height="24.2"/>
	<rect x="125.9" y="101.9" class="st0" width="24.2" height="24.2"/>
	<rect x="125.9" y="150.4" class="st0" width="24.2" height="24.2"/>
	<rect x="101.7" y="101.9" class="st2" width="24.2" height="24.2"/>
	<rect x="150.1" y="126.1" class="st2" width="24.2" height="24.2"/>
	<rect x="198.6" y="101.9" class="st2" width="24.2" height="24.2"/>
	<rect x="198.6" y="150.4" class="st2" width="24.2" height="24.2"/>
	<rect x="198.6" y="126.1" class="st2" width="24.2" height="24.2"/>
	<rect x="198.6" y="174.6" class="st2" width="24.2" height="24.2"/>
	<rect x="198.6" y="77.7" class="st2" width="24.2" height="24.2"/>
	<rect x="198.6" y="198.8" class="st2" width="24.2" height="24.2"/>
	<rect x="77.4" y="101.9" class="st2" width="24.2" height="24.2"/>
	<rect x="77.4" y="150.4" class="st2" width="24.2" height="24.2"/>
	<rect x="77.4" y="126.1" class="st2" width="24.2" height="24.2"/>
	<rect x="77.4" y="174.6" class="st2" width="24.2" height="24.2"/>
	<rect x="77.4" y="77.7" class="st2" width="24.2" height="24.2"/>
	<rect x="77.4" y="198.8" class="st2" width="24.2" height="24.2"/>
	<rect x="174.4" y="101.9" class="st2" width="24.2" height="24.2"/>
	<rect x="125.9" y="126.1" class="st2" width="24.2" height="24.2"/>
	<rect x="125.9" y="174.6" class="st0" width="24.2" height="24.2"/>
	<rect x="125.9" y="77.7" class="st0" width="24.2" height="24.2"/>
	<rect x="125.9" y="198.8" class="st0" width="24.2" height="24.2"/>
	<rect x="222.8" y="101.9" class="st0" width="24.2" height="24.2"/>
	<rect x="222.8" y="150.4" class="st0" width="24.2" height="24.2"/>
	<rect x="222.8" y="126.1" class="st0" width="24.2" height="24.2"/>
	<rect x="222.8" y="174.6" class="st0" width="24.2" height="24.2"/>
</g>
</svg>
