<?xml version="1.0" encoding="utf-8"?>
<!-- Generator: Adobe Illustrator 27.5.0, SVG Export Plug-In . SVG Version: 6.00 Build 0)  -->
<svg version="1.1" id="Layer_1" xmlns="http://www.w3.org/2000/svg" xmlns:xlink="http://www.w3.org/1999/xlink" x="0px" y="0px"
	 viewBox="0 0 375 346.5" style="enable-background:new 0 0 375 346.5;" xml:space="preserve">
<style type="text/css">
	.st0{fill:#FFFFFF;}
	.st1{fill:#1F439A;}
</style>
<circle class="st0" cx="186.75" cy="173.25" r="173.25"/>
<g id="Layer_2_1_">
	<g id="Layer_1-2">
		<path class="st1" d="M123.42,169.09c-0.63,10.89,7.76,20.21,18.65,20.84c0.39,0,0.78,0,1.18,0c10.97,0,19.82-8.85,19.74-19.82
			c0-10.97-8.85-19.82-19.82-19.74C132.66,150.37,123.97,158.6,123.42,169.09z"/>
		<path class="st1" d="M49.62,164c-3.53-0.24-6.58,2.51-6.74,6.03c-0.16,3.53,2.51,6.58,6.03,6.74c3.53,0.24,6.5-2.51,6.74-6.03
			C55.89,167.21,53.14,164.24,49.62,164L49.62,164z"/>
		<path class="st1" d="M122.16,54.24c3.13-1.57,4.39-5.48,2.82-8.62c-1.57-3.13-5.48-4.39-8.62-2.82c-3.13,1.57-4.39,5.41-2.82,8.54
			C115.11,54.56,118.95,55.89,122.16,54.24C122.09,54.24,122.16,54.24,122.16,54.24z"/>
		<path class="st1" d="M142.22,89.26c4.86-2.43,6.82-8.38,4.39-13.24c-2.43-4.86-8.38-6.82-13.24-4.39
			c-4.86,2.43-6.82,8.38-4.39,13.24C131.41,89.73,137.36,91.69,142.22,89.26z"/>
		<path class="st1" d="M74.69,113.31c3.76,2.43,8.77,1.41,11.28-2.35c2.43-3.76,1.41-8.77-2.35-11.28
			c-3.76-2.43-8.77-1.41-11.28,2.35l0,0C69.83,105.79,70.93,110.89,74.69,113.31z"/>
		<path class="st1" d="M86.67,160.48c-5.48-0.31-10.11,3.84-10.42,9.32s3.84,10.11,9.32,10.42c5.48,0.31,10.11-3.84,10.42-9.32l0,0
			C96.31,165.49,92.16,160.79,86.67,160.48z"/>
		<path class="st1" d="M75.78,226.83c-4,2.04-5.64,6.89-3.6,10.97c2.04,4,6.89,5.64,10.97,3.6c4-2.04,5.64-6.89,3.6-10.97l0,0
			C84.72,226.44,79.78,224.8,75.78,226.83L75.78,226.83z"/>
		<path class="st1" d="M114.17,140.03c5.41,3.53,12.61,2.04,16.06-3.37c3.53-5.41,2.04-12.61-3.37-16.06
			c-5.41-3.53-12.61-2.04-16.06,3.37C107.28,129.3,108.77,136.5,114.17,140.03L114.17,140.03z"/>
		<path class="st1" d="M236,88.48c4.54,2.98,10.73,1.72,13.71-2.82c2.98-4.54,1.72-10.73-2.82-13.71
			c-4.54-2.98-10.73-1.72-13.71,2.82l0,0C230.12,79.39,231.37,85.5,236,88.48L236,88.48z"/>
		<path class="st1" d="M256.21,53.62c2.98,1.96,6.89,1.1,8.85-1.88s1.1-6.89-1.88-8.85c-2.98-1.96-6.89-1.1-8.85,1.8
			C252.45,47.66,253.31,51.66,256.21,53.62L256.21,53.62z"/>
		<path class="st1" d="M237.48,150.21c-10.89-0.63-20.29,7.76-20.84,18.65c-0.63,10.89,7.76,20.29,18.65,20.84c0.39,0,0.78,0,1.1,0
			c10.89,0,19.74-8.85,19.74-19.82C256.21,159.46,247.98,150.76,237.48,150.21L237.48,150.21z"/>
		<path class="st1" d="M148.72,138.62c3.37,6.66,10.18,10.89,17.71,10.89c10.89,0,19.74-8.85,19.74-19.82
			c0-3.06-0.71-6.11-2.12-8.93c-4.94-9.79-16.84-13.71-26.56-8.77C147.7,117,143.79,128.9,148.72,138.62L148.72,138.62z"/>
		<path class="st1" d="M303.76,113.31c4-2.04,5.56-6.97,3.53-10.97c-2.04-4-6.97-5.56-10.97-3.53c-4,2.04-5.56,6.89-3.6,10.89
			C294.83,113.71,299.69,115.35,303.76,113.31L303.76,113.31z"/>
		<path class="st1" d="M253.62,119.58c-5.72,2.9-8.07,9.87-5.17,15.59c2.9,5.72,9.87,8.07,15.59,5.17c5.72-2.9,8.07-9.87,5.17-15.59
			C266.31,119.03,259.34,116.76,253.62,119.58z"/>
		<path class="st1" d="M188.99,50.64c4.47,0.24,8.3-3.21,8.62-7.68s-3.21-8.3-7.68-8.62c-4.47-0.24-8.3,3.13-8.62,7.6
			C181.08,46.49,184.52,50.33,188.99,50.64L188.99,50.64z"/>
		<path class="st1" d="M188.91,101.8c6.42,0.39,11.91-4.54,12.22-10.97c0.39-6.42-4.54-11.91-10.97-12.22
			c-6.42-0.39-11.91,4.54-12.22,10.97C177.63,96,182.49,101.48,188.91,101.8L188.91,101.8z"/>
		<path class="st1" d="M125.92,220.57c5.72-2.9,8.07-9.87,5.17-15.59c-2.9-5.72-9.87-8.07-15.59-5.17
			c-5.72,2.9-8.07,9.87-5.17,15.59C113.23,221.11,120.21,223.46,125.92,220.57z"/>
		<path class="st1" d="M196.43,118.8c-5.95,9.17-3.45,21.39,5.72,27.34c9.17,5.95,21.39,3.45,27.34-5.72
			c5.95-9.17,3.45-21.39-5.72-27.34c-3.21-2.12-6.97-3.21-10.81-3.21C206.3,109.87,200.11,113.24,196.43,118.8z"/>
		<path class="st1" d="M230.83,201.53c-4.94-9.79-16.84-13.71-26.56-8.77c-9.79,4.94-13.71,16.84-8.77,26.56
			c4.94,9.79,16.84,13.71,26.56,8.77l0,0c9.71-4.86,13.71-16.61,8.85-26.4C230.9,201.61,230.9,201.61,230.83,201.53z"/>
		<path class="st1" d="M265.37,200.12c-5.41-3.53-12.61-2.04-16.06,3.37c-3.53,5.41-2.04,12.61,3.37,16.06
			c5.41,3.53,12.61,2.04,16.06-3.37C272.27,210.85,270.78,203.64,265.37,200.12L265.37,200.12z"/>
		<path class="st1" d="M303.29,170.43c0.31-5.48-3.84-10.11-9.32-10.42s-10.11,3.84-10.42,9.32c-0.31,5.48,3.84,10.11,9.32,10.42
			l0,0C298.28,180.06,302.98,175.83,303.29,170.43z"/>
		<path class="st1" d="M330.63,163.38c-3.53-0.24-6.58,2.51-6.74,6.03c-0.16,3.53,2.51,6.58,6.03,6.74c3.53,0.24,6.5-2.51,6.74-6.03
			C336.82,166.59,334.16,163.61,330.63,163.38z"/>
		<path class="st1" d="M304.86,226.83c-3.76-2.43-8.77-1.41-11.28,2.35c-2.43,3.76-1.41,8.77,2.35,11.28
			c3.76,2.43,8.77,1.41,11.28-2.35C309.72,234.35,308.62,229.26,304.86,226.83L304.86,226.83z"/>
		<path class="st1" d="M123.26,286.53c-2.98-1.96-6.89-1.1-8.85,1.8c-1.96,2.98-1.1,6.89,1.8,8.85c2.98,1.96,6.89,1.1,8.85-1.8l0,0
			C127.1,292.48,126.24,288.49,123.26,286.53z"/>
		<path class="st1" d="M257.38,285.9c-3.13,1.57-4.39,5.48-2.82,8.62c1.57,3.13,5.48,4.39,8.62,2.82c3.13-1.57,4.39-5.41,2.82-8.54
			C264.43,285.59,260.6,284.26,257.38,285.9C257.46,285.9,257.38,285.9,257.38,285.9z"/>
		<path class="st1" d="M183.11,221.35c5.95-9.17,3.45-21.39-5.72-27.42c-9.17-5.95-21.39-3.45-27.42,5.72s-3.45,21.39,5.72,27.42
			c3.21,2.12,6.97,3.21,10.81,3.21C173.24,230.36,179.43,226.99,183.11,221.35z"/>
		<path class="st1" d="M143.55,251.67c-4.54-2.98-10.73-1.72-13.71,2.82c-2.98,4.54-1.72,10.73,2.82,13.71
			c4.54,2.98,10.73,1.72,13.71-2.82l0,0C149.43,260.83,148.17,254.64,143.55,251.67z"/>
		<path class="st1" d="M189.7,289.51c-4.47-0.24-8.3,3.21-8.62,7.68c-0.31,4.47,3.21,8.3,7.68,8.62c4.47,0.24,8.3-3.13,8.62-7.6
			C197.61,293.66,194.16,289.82,189.7,289.51L189.7,289.51z"/>
		<path class="st1" d="M189.77,238.35c-6.42-0.39-11.91,4.54-12.22,10.97c-0.39,6.42,4.54,11.91,10.97,12.22s11.91-4.54,12.22-10.97
			C201.13,244.23,196.2,238.66,189.77,238.35L189.77,238.35z"/>
		<path class="st1" d="M237.33,250.88c-4.86,2.51-6.82,8.46-4.31,13.32c2.51,4.86,8.46,6.82,13.32,4.31
			c4.86-2.43,6.82-8.38,4.39-13.24C248.22,250.41,242.26,248.38,237.33,250.88L237.33,250.88z"/>
	</g>
</g>
</svg>
