<?xml version="1.0" encoding="utf-8"?>
<!-- Generator: Adobe Illustrator 25.4.1, SVG Export Plug-In . SVG Version: 6.00 Build 0)  -->
<svg version="1.0" id="katman_1" xmlns="http://www.w3.org/2000/svg" xmlns:xlink="http://www.w3.org/1999/xlink" x="0px" y="0px"
	 viewBox="0 0 1700 1200" style="enable-background:new 0 0 1700 1200;" xml:space="preserve">
<style type="text/css">
	.st0{clip-path:url(#SVGID_00000024690864611933764990000012135115273278835098_);}
	.st1{fill:url(#SVGID_00000161626918178533254520000006215387638977966762_);}
	.st2{fill:url(#SVGID_00000049181266447635614260000014672337133241505708_);}
</style>
<g>
	<defs>
		<rect id="SVGID_1_" x="414.1" y="109.6" width="875.7" height="959.5"/>
	</defs>
	<clipPath id="SVGID_00000174582842692551014760000016973948164223101110_">
		<use xlink:href="#SVGID_1_"  style="overflow:visible;"/>
	</clipPath>
	<g style="clip-path:url(#SVGID_00000174582842692551014760000016973948164223101110_);">
		
			<linearGradient id="SVGID_00000146481618005701441050000006653302900322178946_" gradientUnits="userSpaceOnUse" x1="81.4338" y1="1092.9512" x2="714.7896" y2="1092.9512" gradientTransform="matrix(1 0 0 -1 454 1496)">
			<stop  offset="0" style="stop-color:#63F2C1"/>
			<stop  offset="1" style="stop-color:#00FAA6"/>
		</linearGradient>
		<path style="fill:url(#SVGID_00000146481618005701441050000006653302900322178946_);" d="M535.4,231.4
			c59.7-4.3,125.7,30.5,161,84.6c5.6-6.6,10.4-13.2,16.5-19.2c35.4-38,101.3-31.2,131.1,10.4c19.8,27.6,30,58.3,42.5,88.3
			c7.9,21.2,17.5,41.7,28.5,61.4c11.5,19,31.2,19,43,0c9.2-16.6,15.5-34.7,18.6-53.4c4-26.7,12.5-52.5,25.2-76.4
			c17.9-31.9,44.7-57.8,77.1-74.7c27.5-15,58.5-22.5,89.8-21.7v58.7c-76.1,3.6-123.2,63-121.5,115.7c1.8,52.8,48.1,107.4,121,109.6
			V572c-44.2,9.4-122.6-24.9-158-81.2c-7.2,12.3-17.4,22.6-29.6,29.8c-12.2,7.3-26.1,11.3-40.3,11.7c-51.9,3.9-79.4-22.2-96.1-59.7
			c-15-33.6-26.8-68.2-40.3-102.2c-2.9-7.6-6.7-14.8-11.3-21.5c-12.3-17.4-33.5-13.9-47.8,6.3c-14.3,20.3-19.1,46.1-23.7,70.4
			c-6.2,37.2-24.8,71.2-52.8,96.4c-25.2,24.4-56.8,41.1-91.1,48.4c-13.1,2.7-26.8,3.3-41.6,5v-60.7c16.3,0.5,32.5-2.4,47.7-8.5
			c15.1-6.1,28.8-15.3,40.2-26.9c12.3-11.1,21.8-25,27.6-40.6c5.8-15.5,7.9-32.2,5.9-48.7c-6-44.9-47.8-97-121.8-100.8V231.4z"/>
		
			<linearGradient id="SVGID_00000000925255975287842590000015222280673153053881_" gradientUnits="userSpaceOnUse" x1="5056.9526" y1="1092.7692" x2="68671.1562" y2="1092.7692" gradientTransform="matrix(1 0 0 -1 454 1496)">
			<stop  offset="0" style="stop-color:#63F2C1"/>
			<stop  offset="1" style="stop-color:#00FAA6"/>
		</linearGradient>
		<path style="fill:url(#SVGID_00000000925255975287842590000015222280673153053881_);" d="M1229.3,170v466.3H474.6V170H1229.3z
			 M1289.8,109.6H414.1v587.3h875.7V109.6z"/>
		<path d="M431.1,929.7c-2.2,0-4.5-0.4-6.5-1.3c-2.1-0.9-3.9-2.1-5.5-3.7c-1.6-1.6-2.9-3.5-3.7-5.6c-0.9-2.1-1.3-4.3-1.2-6.6V776.2
			c0-2.2,0.4-4.5,1.3-6.5c0.9-2.1,2.1-3.9,3.7-5.5c1.6-1.6,3.4-2.9,5.5-3.7c2.1-0.9,4.3-1.3,6.5-1.3h79.6c9.1-0.1,18,2.3,25.8,7
			c7.7,4.6,14.1,11.1,18.6,18.8c3.8,6.7,6.1,14.1,6.7,21.7c0.6,7.6-0.5,15.3-3.3,22.5c-2.2,5.7-5.5,11-9.7,15.6
			c4.1,4.5,7.4,9.8,9.7,15.5c2.3,6,3.5,12.3,3.4,18.7c0.1,9-2.3,17.9-6.9,25.7c-4.6,7.6-10.9,14-18.6,18.5c-7.8,4.7-16.7,7.1-25.8,7
			L431.1,929.7z M448.3,793.3v34.1h62.3c2.3,0.1,4.6-0.3,6.7-1.2c2.2-0.8,4.1-2.1,5.8-3.7c1.7-1.6,3-3.5,3.9-5.6
			c0.9-2.1,1.4-4.4,1.4-6.7c0-2.2-0.4-4.4-1.3-6.5c-0.9-2.1-2.2-3.9-3.8-5.4c-1.6-1.6-3.4-2.9-5.5-3.7c-2.1-0.9-4.3-1.3-6.5-1.3
			H448.3z M448.3,861.5v34.1h62.3c2.2,0,4.5-0.4,6.5-1.3c2.1-0.9,3.9-2.1,5.5-3.7c1.8-1.5,3.2-3.4,4.2-5.5c1-2.1,1.5-4.4,1.5-6.7
			c0-2.3-0.4-4.5-1.3-6.5c-0.9-2.1-2.2-3.9-3.8-5.5c-1.5-1.6-3.4-2.9-5.5-3.8c-2.1-0.9-4.3-1.3-6.6-1.3L448.3,861.5z"/>
		<path d="M636.9,929.7c-9,0.1-17.8-2.3-25.5-7c-7.6-4.5-14-10.9-18.5-18.5c-4.8-7.8-7.3-16.7-7.2-25.9v-68.2
			c-0.1-8.9,2.3-17.7,7-25.4c4.5-7.8,11-14.2,18.7-18.8c7.7-4.7,16.6-7.1,25.7-7h59.5c9.1-0.1,18,2.3,25.8,7
			c7.7,4.6,14.1,11.1,18.6,18.8c4.6,7.8,7,16.6,6.9,25.7v67.8c0.1,9-2.3,17.9-6.9,25.7c-4.6,7.6-10.9,14-18.6,18.5
			c-7.8,4.7-16.7,7.1-25.8,7L636.9,929.7z M620,810.2v68.2c0,2.2,0.4,4.4,1.2,6.5c0.9,2.1,2.1,3.9,3.8,5.5c1.5,1.6,3.4,2.9,5.5,3.7
			c2.1,0.9,4.3,1.3,6.5,1.2h59.7c2.2,0,4.5-0.4,6.5-1.3c2.1-0.9,3.9-2.1,5.5-3.7c1.7-1.5,3-3.4,3.8-5.4c0.9-2.1,1.3-4.3,1.3-6.5
			v-68.2c0.1-2.2-0.4-4.5-1.3-6.5c-0.9-2.1-2.2-3.9-3.8-5.4c-1.6-1.6-3.4-2.9-5.5-3.7c-2.1-0.9-4.3-1.3-6.5-1.3h-59.7
			c-2.2,0-4.4,0.4-6.5,1.2c-2.1,0.9-3.9,2.1-5.5,3.7c-1.6,1.5-2.9,3.4-3.8,5.5C620.4,805.8,620,808,620,810.2z"/>
		<path d="M822.9,861.5c-9,0.1-17.9-2.3-25.7-6.9c-7.6-4.6-14-10.9-18.5-18.6c-4.7-7.9-7.1-16.8-7.1-26c0-9.1,2.5-18.1,7.1-26
			c4.5-7.6,10.9-14,18.5-18.5c7.7-4.7,16.6-7.1,25.7-7h99.5v34.2h-99.5c-2.2,0-4.4,0.4-6.5,1.2c-2.1,0.9-3.9,2.1-5.5,3.7
			c-1.6,1.5-2.9,3.4-3.8,5.5c-0.9,2.1-1.3,4.3-1.2,6.5c0,2.3,0.4,4.5,1.2,6.6c0.9,2.1,2.1,4,3.8,5.6c1.5,1.6,3.4,2.9,5.5,3.7
			c2.1,0.9,4.3,1.3,6.5,1.2H877c9-0.1,17.9,2.3,25.7,6.9c7.7,4.5,14.1,10.9,18.6,18.6c4.5,7.8,6.8,16.7,6.8,25.7
			c0,9-2.3,17.9-6.8,25.7c-4.6,7.9-11.1,14.4-18.9,19c-7.7,4.7-16.6,7.1-25.7,7h-102v-34.2H877c2.2,0,4.5-0.4,6.5-1.3
			c2.1-0.9,3.9-2.1,5.5-3.7c1.6-1.6,2.9-3.5,3.7-5.6c0.8-2.1,1.2-4.3,1.1-6.6c0.1-2.2-0.4-4.5-1.2-6.5c-0.8-2.1-2.1-3.9-3.7-5.5
			c-1.5-1.6-3.4-2.9-5.5-3.8c-2.1-0.9-4.3-1.3-6.6-1.3L822.9,861.5z"/>
		<path d="M1003.2,929.7c-9,0.1-17.9-2.3-25.7-7c-7.6-4.5-14-10.9-18.5-18.5c-4.7-7.8-7.1-16.8-7-25.9v-68.2
			c-0.1-8.9,2.3-17.7,7-25.4c4.5-7.6,10.9-14,18.5-18.5c7.7-4.7,16.6-7.1,25.7-7h59.7c9.1-0.1,18,2.3,25.8,7
			c7.7,4.5,14,10.9,18.6,18.5c4.6,7.8,7,16.6,6.9,25.7v67.8c0.1,9-2.3,17.9-6.9,25.7c-4.6,7.6-10.9,14-18.6,18.5
			c-7.8,4.7-16.7,7.1-25.8,7L1003.2,929.7z M986.2,810.2v68.2c0,2.2,0.4,4.4,1.2,6.5c0.9,2.1,2.1,3.9,3.8,5.5
			c1.5,1.6,3.4,2.9,5.5,3.7c2.1,0.9,4.3,1.3,6.5,1.2h59.7c2.2,0,4.5-0.4,6.5-1.3c2.1-0.9,3.9-2.1,5.5-3.7c1.6-1.5,2.9-3.4,3.8-5.4
			c0.9-2.1,1.3-4.3,1.3-6.5v-68.2c0-2.2-0.4-4.4-1.3-6.5c-0.9-2.1-2.2-3.9-3.8-5.4c-1.6-1.6-3.4-2.9-5.5-3.7
			c-2.1-0.9-4.3-1.3-6.5-1.3h-59.7c-2.2,0-4.4,0.4-6.5,1.2c-2.1,0.9-3.9,2.1-5.5,3.7c-1.6,1.5-2.9,3.4-3.8,5.5
			C986.6,805.8,986.2,808,986.2,810.2z"/>
		<path d="M1172.5,822.4v107.3H1138V776.2c0-3.5,1.1-6.9,3.1-9.7c1.5-2.2,3.4-4,5.7-5.3c2.3-1.3,4.8-2,7.4-2.2
			c2.6-0.1,5.2,0.3,7.6,1.4c2.4,1,4.5,2.6,6.2,4.7l86.5,101.2V759.1h34.1v153.5c0,3.5-1,6.9-3,9.8c-2,2.9-4.8,5-8.1,6.2
			c-3.3,1.3-6.8,1.5-10.2,0.6c-3.4-0.9-6.4-2.8-8.6-5.5L1172.5,822.4z"/>
		<path d="M429.6,1043.3v25.8h-15.5v-54.2c-0.1-4.1,1-8.2,3.1-11.7c2.1-3.4,5-6.3,8.4-8.4c3.5-2.1,7.5-3.2,11.6-3.1h25.9
			c4.1,0,8.1,1,11.6,3.1c3.4,2.1,6.3,5,8.4,8.4c2.3,3.5,3.6,7.6,3.6,11.7v5.3c0.1,4.1-1.1,8.1-3.2,11.6c-2.1,3.5-5,6.4-8.4,8.4
			c-3.5,2.1-7.5,3.2-11.6,3.1H429.6z M429.6,1014.8v13h33.6c1,0,2-0.2,2.9-0.6c0.9-0.4,1.8-1,2.5-1.7c0.7-0.7,1.3-1.5,1.7-2.5
			c0.4-0.9,0.6-1.9,0.6-3v-5.3c0-1-0.2-2-0.6-3c-0.4-0.9-1-1.8-1.7-2.5c-0.7-0.7-1.5-1.3-2.5-1.7c-0.9-0.4-1.9-0.6-2.9-0.6h-25.9
			c-1,0-2,0.2-2.9,0.6c-0.9,0.4-1.8,1-2.5,1.7c-0.7,0.7-1.3,1.5-1.7,2.5C429.7,1012.8,429.5,1013.8,429.6,1014.8z"/>
		<path d="M546.6,1043.3v25.8h-15.5v-54.2c0-4.1,1-8.1,3.1-11.6c2.1-3.4,5-6.3,8.4-8.4c3.5-2.1,7.5-3.2,11.6-3.1h26.1
			c4.1,0,8.1,1,11.6,3.1c3.4,2.1,6.3,5,8.4,8.4c2.2,3.5,3.3,7.5,3.2,11.6v5.3c0,4.6-1.3,9.1-3.9,12.9c-2.6,3.8-6.2,6.7-10.4,8.5
			l13.4,27.5h-17.5l-12.6-25.8H546.6z M546.6,1014.8v13h33.8c1,0,2-0.2,2.9-0.6c0.9-0.4,1.8-1,2.5-1.7c0.7-0.7,1.3-1.5,1.7-2.5
			c0.4-0.9,0.6-1.9,0.6-3v-5.3c0-1-0.2-2-0.6-3c-0.4-0.9-1-1.8-1.7-2.5c-0.7-0.7-1.5-1.3-2.5-1.7c-0.9-0.4-1.9-0.6-2.9-0.6h-26.1
			c-1,0-2,0.2-2.9,0.6c-0.9,0.4-1.8,1-2.5,1.7c-0.7,0.7-1.3,1.5-1.7,2.5C546.7,1012.8,546.5,1013.8,546.6,1014.8z"/>
		<path d="M671.2,1069.1c-4.1,0-8.1-1-11.6-3.1c-3.5-2-6.4-4.9-8.4-8.4c-2.1-3.5-3.2-7.5-3.1-11.6v-31.2c0-4.1,1-8.1,3.1-11.6
			c2.1-3.4,5-6.3,8.4-8.4c3.5-2.1,7.5-3.2,11.6-3.1h27.1c4.1,0,8.2,1,11.7,3.1c3.4,2.1,6.3,5,8.4,8.4c2.1,3.5,3.2,7.5,3.1,11.6v31.2
			c0,4.1-1,8.1-3.1,11.6c-2,3.5-4.9,6.4-8.4,8.4c-3.6,2.1-7.6,3.2-11.7,3.1H671.2z M663.4,1014.8v31.2c0,1,0.2,2,0.6,3
			c0.4,0.9,1,1.8,1.7,2.5c0.7,0.7,1.5,1.3,2.5,1.7c0.9,0.4,1.9,0.6,3,0.6h27.1c1,0,2-0.2,3-0.6c0.9-0.4,1.8-1,2.5-1.7
			c0.7-0.7,1.3-1.5,1.7-2.5c0.4-0.9,0.6-1.9,0.6-3v-31.2c0-1-0.2-2-0.6-3c-0.4-0.9-1-1.8-1.7-2.5c-1.5-1.5-3.4-2.3-5.5-2.3h-27
			c-1,0-2,0.2-2.9,0.6c-0.9,0.4-1.8,1-2.5,1.7c-0.8,0.7-1.4,1.5-1.8,2.4C663.6,1012.8,663.4,1013.8,663.4,1014.8z"/>
		<path d="M792.8,1069.1v-62.3h-26.5v-15.1h68.5v15.5h-26.5v62.3L792.8,1069.1z"/>
		<path d="M902.4,1069.1c-4.1,0-8.1-1-11.6-3.1c-3.5-2-6.4-4.9-8.4-8.4c-2.1-3.5-3.2-7.5-3.1-11.6v-31.2c0-4.1,1-8.1,3.1-11.6
			c2.1-3.4,5-6.3,8.4-8.4c3.5-2,7.6-3.1,11.6-3h27.1c4.1,0,8.2,1,11.7,3.1c3.4,2.1,6.3,5,8.4,8.4c2.1,3.5,3.2,7.5,3.1,11.6v31.2
			c0,4.1-1,8.1-3.1,11.6c-2,3.5-4.9,6.4-8.4,8.4c-3.6,2.1-7.6,3.2-11.7,3.1L902.4,1069.1z M894.7,1014.8v31.2c0,1,0.1,2,0.5,3
			c0.4,0.9,1,1.8,1.7,2.5c0.7,0.7,1.5,1.3,2.5,1.7c0.9,0.4,1.9,0.6,3,0.6h27.1c1,0,2-0.2,3-0.6c0.9-0.4,1.8-1,2.5-1.7
			c0.7-0.7,1.3-1.5,1.7-2.5c0.4-0.9,0.6-1.9,0.6-3v-31.2c0-1-0.2-2-0.6-3c-0.4-0.9-1-1.8-1.7-2.5c-1.5-1.5-3.4-2.3-5.5-2.3h-27.1
			c-1,0-2,0.2-2.9,0.6c-0.9,0.4-1.8,1-2.5,1.7c-0.7,0.7-1.2,1.5-1.6,2.5c-0.4,0.9-0.5,1.9-0.5,2.9H894.7z"/>
		<path d="M1028.6,1069.1c-8.3,0-16.2-3.3-22-9.1c-5.8-5.8-9.1-13.8-9.1-22v-15.3c0-8.3,3.3-16.2,9.1-22c5.8-5.8,13.8-9.1,22-9.1
			h33.6v15.5h-33.6c-4.1,0-8,1.7-10.9,4.6c-2.9,2.9-4.5,6.8-4.5,10.9v15.5c0,2,0.3,4.1,1.1,6c0.8,1.9,1.9,3.6,3.4,5
			c2.7,2.8,6.5,4.4,10.4,4.5h33.6v15.5L1028.6,1069.1z"/>
		<path d="M1130.1,1069.1c-4.1,0-8.1-1-11.6-3.1c-3.5-2-6.4-4.9-8.4-8.4c-2.1-3.5-3.2-7.5-3.1-11.6v-31.2c0-4.1,1.1-8.1,3.2-11.6
			c2.1-3.4,5-6.3,8.4-8.4c3.5-2.1,7.5-3.2,11.6-3.1h27.1c4.1,0,8.2,1,11.7,3.1c3.4,2.1,6.3,5,8.4,8.4c2.1,3.5,3.2,7.5,3.1,11.6v31.2
			c0,4.1-1,8.1-3.1,11.6c-2.1,3.5-5,6.4-8.4,8.4c-3.6,2.1-7.6,3.2-11.7,3.1H1130.1z M1122.5,1014.8v31.2c0,1,0.2,2,0.6,3
			c0.4,0.9,1,1.8,1.7,2.5c0.7,0.7,1.5,1.3,2.5,1.7c0.9,0.4,1.9,0.6,2.9,0.6h27.1c2,0,4-0.8,5.5-2.2c1.5-1.4,2.3-3.4,2.3-5.4v-31.2
			c0-1-0.2-2-0.6-2.9c-0.4-0.9-1-1.8-1.7-2.5c-1.5-1.5-3.4-2.3-5.5-2.3h-27.1c-1,0-2,0.2-2.9,0.6c-0.9,0.4-1.8,1-2.5,1.7
			c-0.7,0.7-1.3,1.5-1.7,2.5C1122.6,1012.8,1122.4,1013.8,1122.5,1014.8z"/>
		<path d="M1240.8,991.7v62.3h48.9v15.5H1233c-1,0-2-0.2-3-0.6c-0.9-0.4-1.8-1-2.5-1.7c-0.7-0.7-1.3-1.5-1.7-2.5
			c-0.4-0.9-0.6-1.9-0.6-2.9v-70.1H1240.8z"/>
	</g>
</g>
</svg>
