<?xml version="1.0" encoding="utf-8"?>
<!-- Generator: Adobe Illustrator 27.5.0, SVG Export Plug-In . SVG Version: 6.00 Build 0)  -->
<svg version="1.1" id="Layer_1" xmlns="http://www.w3.org/2000/svg" xmlns:xlink="http://www.w3.org/1999/xlink" x="0px" y="0px"
	 viewBox="0 0 500 500" style="enable-background:new 0 0 500 500;" xml:space="preserve">
<style type="text/css">
	.st0{fill-rule:evenodd;clip-rule:evenodd;fill:#FEE700;}
	.st1{fill-rule:evenodd;clip-rule:evenodd;fill:#010101;}
</style>
<g>
	<circle class="st0" cx="250" cy="250" r="250"/>
	<g>
		<path class="st1" d="M303.1,126.8c2.3-5.7,3.6-11.1,3.9-16.2c1.3-10.8-1.3-19.3-7.7-21.9c-6.2-2.6-14.2,1.5-21.1,9.5v-1.5
			c0-22.1-10.3-40.4-23.2-40.4s-23.2,18-23.2,40.4c0,1.5,0,3.1,0.3,4.6c-7.7-10.3-18-15.7-25.3-12.4c-9,4.4-10.3,20.6-2.6,36.6
			c1.3,2.6,4.1,7.2,5.9,9.5c-99.2,15.5-155.6,93.8-162.8,222.6h55.4c5.9-106.1,60.8-166.4,152.3-166.4
			c81.9,0,143.2,57.7,142.5,166.4h55.4c1-128.3-71.6-211.3-154.8-222.1C300,133,301.5,130.1,303.1,126.8z"/>
		<path class="st1" d="M185.3,265.1V301c0,8,8.2,14.4,18.3,14.4s18.3-6.4,18.3-14.4v-35.8c0-8-8.2-14.4-18.3-14.4
			S185.3,257.2,185.3,265.1z M298.2,250.7c-9.3,0-17,6.4-17,14.4V301c0,8,7.5,14.4,17,14.4c9.3,0,17-6.4,17-14.4v-35.8
			C315.2,257.2,307.5,250.7,298.2,250.7"/>
	</g>
</g>
</svg>
