<?xml version="1.0" encoding="utf-8"?>
<!-- Generator: Adobe Illustrator 27.5.0, SVG Export Plug-In . SVG Version: 6.00 Build 0)  -->
<svg version="1.1" id="Layer_1" xmlns="http://www.w3.org/2000/svg" xmlns:xlink="http://www.w3.org/1999/xlink" x="0px" y="0px"
	 viewBox="0 0 500 500" style="enable-background:new 0 0 500 500;" xml:space="preserve">
<style type="text/css">
	.st0{fill-rule:evenodd;clip-rule:evenodd;fill:#FEE700;}
	.st1{fill-rule:evenodd;clip-rule:evenodd;fill:#010101;}
</style>
<g>
	<circle class="st0" cx="249.96" cy="250.04" r="249.96"/>
	<g>
		<path class="st1" d="M286.56,121.13c1.61-3.93,2.5-7.68,2.68-11.25c0.89-7.5-0.89-13.39-5.36-15.18
			c-4.29-1.79-9.82,1.07-14.64,6.61v-1.07c0-15.35-7.14-28.03-16.07-28.03c-8.93,0-16.07,12.5-16.07,28.03c0,1.07,0,2.14,0.18,3.21
			c-5.36-7.14-12.5-10.89-17.5-8.57c-6.25,3.04-7.14,14.28-1.79,25.35c0.89,1.79,2.86,5,4.11,6.61
			c-68.74,10.71-107.84,64.99-112.84,154.26h38.39c4.11-73.56,42.14-115.34,105.52-115.34c56.78,0,99.27,39.99,98.73,115.34h38.39
			c0.71-88.91-49.63-146.41-107.3-153.9C284.42,125.42,285.49,123.45,286.56,121.13z"/>
		<path class="st1" d="M204.97,217.01v24.82c0,5.53,5.71,10,12.68,10s12.68-4.46,12.68-10v-24.82c0-5.53-5.71-10-12.68-10
			S204.97,211.47,204.97,217.01z M283.17,207.01c-6.43,0-11.78,4.46-11.78,10v24.82c0,5.53,5.18,10,11.78,10
			c6.43,0,11.78-4.46,11.78-10v-24.82C294.95,211.47,289.6,207.01,283.17,207.01"/>
	</g>
	<g>
		<path class="st1" d="M224.96,347.7c-1.07,2.86-2.32,5.18-4.11,7.14c-1.79,1.96-3.75,3.57-6.25,4.64c-2.32,1.07-5,1.79-7.68,1.79
			c-2.68,0-5.36-0.54-7.68-1.79c-2.32-1.07-4.46-2.68-6.25-4.64c-1.79-2.14-3.21-4.46-4.11-7.14c-1.07-2.86-1.43-5.89-1.43-8.93
			c0-3.21,0.54-6.07,1.43-8.93c1.07-2.86,2.32-5.18,4.11-7.14s3.75-3.57,6.25-4.64c2.5-1.07,5-1.79,7.68-1.79
			c2.68,0,5.36,0.54,7.68,1.79c2.32,1.07,4.46,2.68,6.25,4.64s3.04,4.29,4.11,7.14c0.89,2.86,1.43,5.71,1.43,8.93
			C226.57,341.99,226.04,345.02,224.96,347.7 M243.18,323.96c-1.79-4.46-4.64-8.57-8.03-12.14c-7.14-7.14-16.96-11.07-26.96-11.07
			c-10.18,0-19.82,3.93-27.14,11.07c-3.39,3.39-6.25,7.68-8.03,12.14c-1.96,4.64-3.04,9.82-3.04,15c0,5.36,1.07,10.18,3.04,15
			c1.96,4.64,4.64,8.75,8.03,12.14c7.14,7.14,16.96,11.07,27.14,11.07c10.18,0,19.82-3.93,26.96-11.07
			c3.39-3.39,6.07-7.5,8.03-12.14c1.96-4.64,3.04-9.64,3.04-15S245.14,328.6,243.18,323.96 M139.26,347.7
			c-0.89,2.5-2.14,5-3.75,7.14c-1.61,1.96-3.39,3.57-5.71,4.64c-2.14,1.07-4.46,1.79-6.96,1.79h-11.61v-44.99h11.61
			c2.5,0,4.82,0.54,6.96,1.79c2.14,1.25,4.11,2.86,5.71,4.82c1.61,1.96,2.86,4.46,3.75,7.14c0.89,2.86,1.43,5.71,1.43,8.93
			C140.69,342.17,140.16,345.02,139.26,347.7 M159.08,323.96c-1.79-4.46-4.64-8.57-8.03-12.14c-3.39-3.39-7.5-6.25-11.96-8.03
			c-4.64-1.96-9.64-3.04-14.82-3.04H93.74v76.24h30.53c5.18,0,10.18-0.89,14.82-2.86s8.57-4.64,11.96-8.03
			c3.39-3.39,6.07-7.5,8.03-12.14c1.96-4.64,2.86-9.64,2.86-14.82C162.12,333.6,161.05,328.6,159.08,323.96 M385.12,347.7
			c-1.07,2.86-2.32,5.18-4.11,7.14c-1.79,1.96-3.75,3.57-6.25,4.64c-2.32,1.07-5,1.79-7.68,1.79c-2.68,0-5.36-0.54-7.68-1.79
			c-2.32-1.07-4.46-2.68-6.25-4.64c-1.79-2.14-3.21-4.46-4.11-7.14c-1.07-2.86-1.43-5.89-1.43-8.93c0-3.21,0.54-6.07,1.43-8.93
			c1.07-2.86,2.32-5.18,4.11-7.14s3.93-3.57,6.25-4.64c2.32-1.07,5-1.79,7.68-1.79c2.86,0,5.36,0.54,7.68,1.79
			c2.5,1.07,4.46,2.68,6.25,4.64s3.04,4.29,4.11,7.14c1.07,2.86,1.43,5.71,1.43,8.93C386.72,341.99,386.19,345.02,385.12,347.7
			 M403.15,323.96c-1.79-4.46-4.64-8.57-8.03-12.14c-7.14-7.14-16.96-11.07-26.96-11.07c-10.18,0-19.82,3.93-27.14,11.07
			c-3.39,3.39-6.25,7.68-8.03,12.14c-1.96,4.64-3.04,9.82-2.86,15c0,5.36,0.89,10.18,2.86,15c1.96,4.64,4.64,8.75,8.03,12.14
			c7.14,7.14,16.96,11.07,27.14,11.07c10.18,0,19.82-3.93,26.96-11.07c3.39-3.39,6.07-7.5,8.03-12.14c1.96-4.64,3.04-9.64,3.04-15
			S405.29,328.6,403.15,323.96 M299.42,347.7c-0.89,2.5-2.14,5-3.75,7.14c-1.61,1.96-3.39,3.57-5.71,4.64
			c-2.14,1.07-4.46,1.79-6.96,1.79h-11.61v-44.99h11.61c2.5,0,4.82,0.54,6.96,1.79c2.14,1.25,4.11,2.86,5.71,4.82
			c1.61,1.96,2.86,4.46,3.75,7.14c0.89,2.86,1.43,5.71,1.43,8.93C300.67,342.17,300.31,345.02,299.42,347.7 M319.24,323.96
			c-1.79-4.46-4.64-8.57-8.03-12.14c-3.39-3.39-7.5-6.25-11.96-8.03c-4.64-1.96-9.64-3.04-14.82-3.04h-30.53v76.24h30.53
			c5.18,0,10.18-0.89,14.82-2.86c4.64-1.96,8.57-4.64,11.96-8.03c3.39-3.39,6.07-7.5,8.03-12.14c1.96-4.64,2.86-9.64,2.86-14.82
			C322.27,333.6,321.2,328.6,319.24,323.96"/>
	</g>
</g>
</svg>
