<svg width="274" height="64" viewBox="0 0 274 64" fill="none" xmlns="http://www.w3.org/2000/svg">
<path d="M9.32052 9.37089C13.7775 4.89609 19.4559 1.84887 25.6375 0.614534C31.8192 -0.619803 38.2265 0.0141833 44.0494 2.43633C49.8722 4.85847 54.849 8.95998 58.3505 14.2223C61.852 19.4845 63.7209 25.6712 63.7209 32C63.7209 38.3288 61.852 44.5155 58.3505 49.7777C54.849 55.04 49.8722 59.1415 44.0494 61.5637C38.2265 63.9858 31.8192 64.6198 25.6375 63.3855C19.4559 62.1511 13.7775 59.1039 9.32052 54.6291C3.352 48.623 0 40.4848 0 32C0 23.5152 3.352 15.3769 9.32052 9.37089ZM53.8536 54.0792C58.2055 49.7113 61.1696 44.1456 62.3711 38.0859C63.5725 32.0263 62.9573 25.745 60.6033 20.0365C58.2493 14.328 54.2621 9.44868 49.1462 6.01576C44.0303 2.58283 38.0155 0.750497 31.8624 0.750497C25.7093 0.750497 19.6944 2.58283 14.5785 6.01576C9.46262 9.44868 5.47552 14.328 3.12149 20.0365C0.767461 25.745 0.152267 32.0263 1.35372 38.0859C2.55517 44.1456 5.51929 49.7113 9.87118 54.0792C15.7101 59.9236 23.6181 63.2054 31.8624 63.2054C40.1067 63.2054 48.0147 59.9236 53.8536 54.0792Z" fill="url(#paint0_linear_3_6817)"/>
<path d="M12.0008 12.0593C18.131 5.9037 25.0187 2.28365 31.9187 1.62074C39.5852 0.875349 47.0328 3.88747 53.452 10.3302C59.8712 16.773 62.8649 24.2483 62.1165 31.9436C61.4411 38.8629 57.842 45.7761 51.7088 51.9348C45.5755 58.0934 38.6938 61.7104 31.8031 62.3825C24.1395 63.134 16.695 60.128 10.2788 53.6822C3.86264 47.2364 0.847735 39.761 1.60527 32.0597C2.26544 25.1312 5.86447 18.218 12.0008 12.0593ZM51.1703 51.3941C61.3437 41.1755 67.1454 25.1648 52.9105 10.871C38.6756 -3.42288 22.7096 2.38141 12.5332 12.6C2.35671 22.8186 -3.43581 38.8324 10.8143 53.1415C25.0644 67.4506 40.9938 61.6127 51.1703 51.3941Z" fill="url(#paint1_linear_3_6817)"/>
<path d="M14.6719 14.7476C19.497 9.90252 25.3199 4.74891 31.9643 3.24896C38.849 1.69402 45.5694 4.32429 52.5059 11.2925C59.4423 18.2607 62.0526 24.9967 60.4949 31.8977C58.9951 38.536 53.8536 44.3892 49.0224 49.2403C44.1913 54.0915 38.3744 59.2512 31.7544 60.7573C24.8788 62.3244 18.1645 59.7003 11.2311 52.7382C4.29769 45.7761 1.67524 39.0248 3.22376 32.1085C4.71449 25.4428 9.84988 19.5926 14.6719 14.7476ZM48.487 48.6996C60.5497 36.5839 65.7581 25.6688 51.9674 11.8302C38.1767 -2.0085 27.2761 3.17259 15.2104 15.2822C3.14467 27.3918 -2.05765 38.3069 11.7696 52.1914C25.5968 66.0759 36.4213 60.8153 48.487 48.6996Z" fill="url(#paint2_linear_3_6817)"/>
<path d="M11.6387 23.0233C12.5332 22.1252 13.4641 21.227 14.4042 20.3166C16.3391 18.447 18.3592 16.4186 20.221 14.4757C25.3869 9.10519 30.2332 4.03408 36.4547 3.97909C41.0334 3.93326 45.9741 6.6399 51.5627 12.2548C57.1514 17.8697 59.8317 22.8064 59.7769 27.3857C59.7161 33.5993 54.6841 38.4535 49.354 43.5766C47.3674 45.4951 45.2956 47.5754 43.3881 49.5703C38.2679 54.9194 33.4337 59.9752 27.2487 60.0363C22.6853 60.0822 17.7568 57.3816 12.1772 51.7881C6.59767 46.1946 3.89307 41.2121 3.93566 36.6145C3.99346 31.4731 7.43734 27.2451 11.6387 23.0233ZM17.8876 17.9735C16.905 18.9603 15.901 19.9317 14.9305 20.8696C9.7008 25.9224 4.76012 30.7002 4.70536 36.6267C4.66277 41.0074 7.28827 45.7914 12.7248 51.2505C18.1614 56.7096 22.9013 59.3276 27.2487 59.2848C33.1173 59.2268 37.842 54.284 42.8466 49.0509C44.7602 47.053 46.8441 44.9604 48.8368 43.0389C54.0483 38.0136 58.9677 33.2633 59.0255 27.3734C59.0711 23.0111 56.4548 18.2393 51.0273 12.7894C45.5999 7.33947 40.8235 4.69698 36.4608 4.73975C30.5588 4.79474 25.8128 9.75589 20.7687 15.0072C19.8347 15.9818 18.8703 16.9868 17.8876 17.9735Z" fill="url(#paint3_linear_3_6817)"/>
<path d="M29.6217 8.5614C31.581 6.59405 33.7045 5.20102 36.2752 5.02994C40.2302 4.76417 44.7937 7.36083 50.6227 13.2048C56.4517 19.0488 59.0103 23.5915 58.7395 27.5628C58.4353 32.1177 54.313 35.252 49.9534 38.5604C47.8238 40.1856 45.6059 41.8689 43.6558 43.827C41.7057 45.7852 40.0325 48.0031 38.4109 50.1476C35.1039 54.5253 31.9826 58.6616 27.4587 58.9732C23.5037 59.242 18.9585 56.6545 13.1599 50.8197C7.36128 44.9849 4.73579 40.4239 5.00351 36.4373C5.30774 31.8549 9.43004 28.7023 13.7957 25.3541C15.9071 23.735 18.0945 22.061 20.0263 20.1211C21.9582 18.1813 23.6254 15.9878 25.2378 13.8647C26.689 11.9554 28.1067 10.0888 29.6217 8.5614ZM54.7724 33.6115C56.5977 31.7786 57.8147 29.8631 57.982 27.5353C58.2315 23.8542 55.6486 19.3482 50.072 13.7608C44.4955 8.17342 40.0081 5.55233 36.3391 5.812C32.1255 6.09305 29.2201 9.91472 25.8584 14.3413C24.2308 16.4797 22.5454 18.6975 20.577 20.674C18.6086 22.6506 16.403 24.3399 14.2703 25.9743C9.86509 29.353 6.05614 32.2674 5.77625 36.5014C5.52982 40.2009 8.12185 44.7191 13.6862 50.3187C19.2506 55.9183 23.7258 58.4997 27.4039 58.2614C31.5901 57.9742 34.4742 54.1587 37.8116 49.7383C39.4483 47.5723 41.1399 45.3331 43.1265 43.323C45.1131 41.3129 47.3431 39.6296 49.5001 37.9861C51.4593 36.477 53.306 35.0717 54.7724 33.6115Z" fill="url(#paint4_linear_3_6817)"/>
<path d="M7.91801 32.4599C9.53955 30.8316 11.9673 29.5516 14.4833 28.2258C17.4039 26.6983 20.4218 25.0976 22.6975 22.8095C24.9731 20.5214 26.5612 17.4879 28.0945 14.5613C30.2241 10.4647 32.2563 6.59716 35.8219 6.05034C39.2384 5.52795 43.6406 8.10933 49.6765 14.1733C55.7124 20.2372 58.2649 24.6302 57.7386 28.0394C57.191 31.6014 53.3364 33.6085 49.2567 35.7347C46.3087 37.2622 43.2634 38.8568 40.9695 41.1602C38.6756 43.4636 37.0966 46.5215 35.5694 49.4787C33.4398 53.5783 31.4532 57.4489 27.9028 57.9988C24.5076 58.5242 20.1206 55.952 14.0939 49.9033C8.06708 43.8546 5.49026 39.4159 6.01049 35.9883C6.24413 34.634 6.91433 33.3943 7.91801 32.4599ZM23.239 23.3502C20.8751 25.7208 17.8055 27.3399 14.8392 28.904C10.7656 31.0424 7.23349 32.9028 6.76194 36.1013C6.28734 39.2265 8.86416 43.5644 14.6354 49.3595C20.4066 55.1546 24.6962 57.7207 27.7903 57.2411C30.9573 56.7493 32.7827 53.2148 34.8971 49.1243C36.4517 46.1152 38.058 43.0145 40.4371 40.6164C42.8161 38.2183 45.9132 36.6145 48.9099 35.0535C52.9835 32.915 56.5004 31.0821 56.9902 27.9172C57.4678 24.8135 54.9032 20.4939 49.1411 14.7079C43.379 8.92193 39.0528 6.32833 35.9406 6.80184C32.7522 7.29062 30.9086 10.8221 28.7699 14.9126C27.2122 17.8941 25.6029 20.9765 23.239 23.3502Z" fill="url(#paint5_linear_3_6817)"/>
<path d="M8.10056 33.5229C9.69777 31.916 12.6245 31.024 15.6759 30.0953C19.2901 28.9956 23.0261 27.8561 25.3777 25.4947C27.7294 23.1332 28.8612 19.3849 29.9594 15.7526C31.2037 11.6377 32.3933 7.74879 35.3017 7.01257C38.2101 6.27634 42.4906 8.8455 48.7365 15.1294C54.9823 21.4133 57.5287 25.6566 56.7955 28.5709C56.0623 31.4853 52.1773 32.6492 48.0672 33.8773C44.4164 34.9648 40.6501 36.0921 38.2892 38.4596C35.9284 40.8272 34.818 44.6091 33.7227 48.275C32.5058 52.3991 31.3467 56.2971 28.4383 57.0364C25.5299 57.7757 21.2828 55.2035 15.0522 48.9471C8.82159 42.6906 6.22956 38.3893 6.96883 35.4567C7.16137 34.7196 7.55303 34.0504 8.10056 33.5229ZM55.1374 29.9456C55.5777 29.5198 55.8933 28.9809 56.0501 28.3876C56.7042 25.7971 54.1335 21.6394 48.1949 15.6762C42.2564 9.71309 38.0793 7.10421 35.4812 7.75796C32.9743 8.38727 31.8609 12.0776 30.6805 15.9817C29.6096 19.5285 28.3927 23.5456 25.9101 26.0415C23.4276 28.5373 19.4209 29.7562 15.8888 30.8316C12.0008 32.0169 8.32874 33.1349 7.70202 35.6522C7.05097 38.2641 9.6278 42.4401 15.5846 48.4185C21.5414 54.397 25.6668 56.9722 28.2466 56.3093C30.7383 55.6739 31.8304 51.9806 32.9896 48.0611C34.0483 44.4808 35.25 40.4239 37.7477 37.9189C40.2454 35.4139 44.2826 34.2072 47.8451 33.1411C50.8265 32.2551 53.6802 31.4059 55.1374 29.9456Z" fill="url(#paint6_linear_3_6817)"/>
<path d="M33.6011 8.63762C33.9156 8.31595 34.2998 8.07134 34.7237 7.92278C37.2518 7.0338 41.2798 9.55409 47.7873 16.0885C54.2947 22.6229 56.7772 26.634 55.8919 29.1512C55.0066 31.6685 51.1186 32.0625 46.6069 32.5452C42.5119 32.9851 37.8724 33.4831 35.5968 35.7681C33.3212 38.0532 32.8283 42.7119 32.3902 46.8207C31.9065 51.3511 31.4775 55.2644 29.0072 56.1442C26.5369 57.024 22.4906 54.5251 15.9984 48.006C9.50612 41.4869 6.98405 37.4269 7.86632 34.8914C8.74858 32.3558 12.6245 31.9464 17.121 31.4393C21.1794 30.978 25.7793 30.4587 28.0458 28.1828C30.3123 25.9069 30.8295 21.2879 31.2859 17.2158C31.7148 13.4827 32.0799 10.1681 33.6011 8.63762ZM54.6568 29.7164C54.8875 29.4889 55.0643 29.2122 55.174 28.9068C55.9284 26.7684 53.3486 22.7512 47.2488 16.6414C41.149 10.5317 37.1301 7.89834 34.9762 8.65595C32.9348 9.37079 32.4998 13.2383 32.0404 17.3135C31.5719 21.5109 31.0364 26.2704 28.5813 28.7357C26.1262 31.201 21.3893 31.7356 17.2062 32.2092C13.1416 32.6704 9.2962 33.1042 8.5843 35.1541C7.82981 37.3169 10.431 41.3494 16.5369 47.4806C22.6427 53.6117 26.619 56.1931 28.7547 55.4233C30.7839 54.7023 31.1885 50.8409 31.6327 46.7382C32.086 42.5011 32.5971 37.6988 35.0614 35.2243C37.5256 32.7499 42.3051 32.2367 46.5247 31.7845C50.0082 31.4149 53.3151 31.0575 54.6659 29.7042L54.6568 29.7164Z" fill="url(#paint7_linear_3_6817)"/>
<path d="M33.4429 9.23958C33.6347 9.04658 33.8606 8.89118 34.1091 8.78134C36.2722 7.81905 40.1937 10.3699 46.8533 17.0479C53.5129 23.7259 56.0136 27.6361 55.0675 29.7898C54.1213 31.9435 49.8743 31.7633 44.9914 31.5006C40.3215 31.2531 35.0279 30.969 32.9318 33.0738C30.8356 35.1787 31.1064 40.4911 31.368 45.1804C31.6266 50.0682 31.8517 54.3175 29.6613 55.2982C27.5317 56.2605 23.6041 53.7188 16.9719 47.05C10.3397 40.3811 7.78113 36.425 8.73945 34.253C9.69777 32.081 13.9113 32.246 18.779 32.4812C23.4063 32.7042 28.6543 32.9547 30.7413 30.859C32.8283 28.7634 32.5667 23.4937 32.3568 18.8442C32.1377 14.5368 31.9582 10.7334 33.4429 9.23958ZM54.0726 29.8968C54.1991 29.7774 54.3022 29.6355 54.3769 29.4782C55.1527 27.7308 52.445 23.7289 46.327 17.5886C40.2089 11.4483 36.1748 8.69581 34.4164 9.47786C32.6579 10.2599 32.8952 14.604 33.1052 18.8228C33.3455 23.8603 33.595 29.075 31.2798 31.412C28.9646 33.749 23.7623 33.4985 18.7425 33.2449C14.5441 33.0433 10.2028 32.8325 9.43918 34.5646C8.67556 36.2967 11.3771 40.3506 17.5134 46.5123C23.6497 52.674 27.6138 55.3715 29.3571 54.5925C31.1003 53.8135 30.8356 49.448 30.6105 45.2109C30.3428 40.1276 30.0629 34.8701 32.3993 32.524C34.7358 30.1778 39.9686 30.4589 45.034 30.7307C48.8612 30.9446 52.8192 31.1676 54.0726 29.8968Z" fill="url(#paint8_linear_3_6817)"/>
<path d="M84.1325 33.0552H92.7174V31.8534H82.8372V39.2H92.7174V37.9982H84.1325V33.0552ZM82.8372 25.4963V26.6981H92.7174V25.4963H82.8372Z" fill="#F1F1F2"/>
<path d="M133.442 33.0552H142.007V31.8534H132.146V39.2H142.007V37.9982H133.442V33.0552ZM132.146 25.4963V26.6981H142.007V25.4963H132.146Z" fill="#F1F1F2"/>
<path d="M265.435 33.0552H274V31.8534H264.14V39.2H274V37.9982H265.435V33.0552ZM264.14 25.4963V26.6981H274V25.4963H264.14Z" fill="#F1F1F2"/>
<path d="M117.193 25.4963L114.056 31.9576L111.944 36.6844H111.784L109.696 31.9576L106.507 25.4963H105.073L111.685 39.2H112.003L118.623 25.4963H117.193Z" fill="#F1F1F2"/>
<path d="M214.149 25.2C209.877 25.2 207.131 28.3044 207.131 32.3702C207.131 36.4361 209.877 39.5165 214.149 39.5165C218.422 39.5165 221.148 36.388 221.148 32.3702C221.148 28.3525 218.422 25.2 214.149 25.2ZM214.149 38.2867C210.582 38.2867 208.446 35.5909 208.446 32.3702C208.446 29.1496 210.582 26.4337 214.149 26.4337C217.716 26.4337 219.856 29.1296 219.856 32.3702C219.856 35.6109 217.692 38.2867 214.149 38.2867Z" fill="#F1F1F2"/>
<path d="M248.369 25.4963L242.175 32.3461L235.994 25.4963H235.595V39.2H236.891V28.4646L241.96 34.0726H242.359L247.448 28.4085V39.224H248.72V25.4963H248.369Z" fill="#F1F1F2"/>
<path d="M186.378 25.4963H181.814V26.6981H186.338C189.722 26.6981 192.356 28.8011 192.356 32.3381C192.356 35.8752 189.746 37.9782 186.338 37.9782H181.814V39.1799H186.378C190.65 39.1799 193.671 36.5762 193.671 32.3261C193.671 28.076 190.654 25.4963 186.378 25.4963Z" fill="#F1F1F2"/>
<path d="M163.772 34.3811V34.2889C165.796 33.7642 167.136 32.3461 167.136 30.0188C167.136 27.0506 165.143 25.4963 161.727 25.4963H156.299V26.6981H161.727C164.182 26.6981 165.816 27.7475 165.816 30.0548C165.816 32.3622 164.158 33.3235 161.954 33.3235H156.299V39.2H157.594V34.5413H162.229L166.051 39.2H167.438V38.8795L163.772 34.3811Z" fill="#F1F1F2"/>
<defs>
<linearGradient id="paint0_linear_3_6817" x1="54.3897" y1="9.37116" x2="9.13314" y2="54.4411" gradientUnits="userSpaceOnUse">
<stop stop-color="#414FA2"/>
<stop offset="1" stop-color="#EE4492"/>
</linearGradient>
<linearGradient id="paint1_linear_3_6817" x1="53.4389" y1="10.3217" x2="10.0875" y2="53.4943" gradientUnits="userSpaceOnUse">
<stop stop-color="#574EA0"/>
<stop offset="1" stop-color="#D84594"/>
</linearGradient>
<linearGradient id="paint2_linear_3_6817" x1="52.4859" y1="11.27" x2="11.0397" y2="52.5452" gradientUnits="userSpaceOnUse">
<stop stop-color="#6C4C9E"/>
<stop offset="1" stop-color="#C34796"/>
</linearGradient>
<linearGradient id="paint3_linear_3_6817" x1="51.5372" y1="12.2226" x2="11.9963" y2="51.6005" gradientUnits="userSpaceOnUse">
<stop stop-color="#824B9C"/>
<stop offset="1" stop-color="#AD4898"/>
</linearGradient>
<linearGradient id="paint4_linear_3_6817" x1="50.595" y1="13.1817" x2="12.9593" y2="50.6622" gradientUnits="userSpaceOnUse">
<stop stop-color="#984A9A"/>
<stop offset="1" stop-color="#984A9A"/>
</linearGradient>
<linearGradient id="paint5_linear_3_6817" x1="49.6549" y1="14.143" x2="13.9244" y2="49.7261" gradientUnits="userSpaceOnUse">
<stop stop-color="#AD4898"/>
<stop offset="1" stop-color="#824B9C"/>
</linearGradient>
<linearGradient id="paint6_linear_3_6817" x1="48.7148" y1="15.1042" x2="14.8895" y2="48.7899" gradientUnits="userSpaceOnUse">
<stop stop-color="#C34796"/>
<stop offset="1" stop-color="#6C4C9E"/>
</linearGradient>
<linearGradient id="paint7_linear_3_6817" x1="47.7747" y1="16.0653" x2="15.8547" y2="47.8537" gradientUnits="userSpaceOnUse">
<stop stop-color="#D84594"/>
<stop offset="1" stop-color="#574EA0"/>
</linearGradient>
<linearGradient id="paint8_linear_3_6817" x1="46.8325" y1="17.0246" x2="16.8177" y2="46.9156" gradientUnits="userSpaceOnUse">
<stop stop-color="#EE4492"/>
<stop offset="1" stop-color="#414FA2"/>
</linearGradient>
</defs>
</svg>
