<svg xmlns="http://www.w3.org/2000/svg" xmlns:xlink="http://www.w3.org/1999/xlink" width="148px" height="37px" x="0px" y="0px" viewBox="0 0 148 37" style="enable-background:new 0 0 148 37;" xml:space="preserve">
<path d="M61.5,13l-8.8,12.6V6.5h-4.1v24h5.3l3.8-5.5l3.8,5.5h4.6L60,21.8l6.1-8.8H61.5z M72.6,6.5h-4.1v24h4.1V6.5z
	 M105.9,26.8L100.7,13h-4.5l6.6,17.5h1.7l-2.4,6.5h4.6l9.1-24h-4.6L105.9,26.8z M124.6,8.9h-4.1V13h-2.7l-1.5,3.9h4.2v13.6h4.1V16.9
	h4.2V13h-4.2V8.9z M140,12.7c-2.3,0-4.1,1-5.1,2.6V13h-4.1v17.5h4.1v-9.3c0-2.8,1.4-5,4.2-5c3.3,0,4.7,2.1,4.7,5.3v9h4.2v-9
	C148,16.2,145,12.7,140,12.7z M90.4,13v2.2c-1.7-1.8-3.8-2.5-6.4-2.5c-2.5,0-4.6,0.9-6.3,2.6c-1.7,1.8-2.5,3.9-2.5,6.5
	s0.8,4.8,2.5,6.5c1.7,1.7,3.8,2.6,6.3,2.6c2.5,0,4.7-0.7,6.4-2.5v2.2h4.1V13H90.4z M84.9,27.1c-1.1,0-2.1-0.3-3-0.9
	c-0.9-0.6-1.6-1.4-2-2.4c-0.4-1-0.5-2.1-0.3-3.1c0.2-1,0.7-2,1.5-2.7c0.8-0.8,1.7-1.3,2.8-1.5c1.1-0.2,2.1-0.1,3.1,0.3
	c1,0.4,1.8,1.1,2.4,2s0.9,1.9,0.9,3c0,1.4-0.6,2.8-1.6,3.8C87.7,26.6,86.3,27.1,84.9,27.1z M30.6,4.3C27.4,1.6,23.5,0.1,19.3,0
	L9.8,24.9L30.6,4.3z M33,6.6L21,18.5l12,11.8c2.8-3.3,4.3-7.5,4.3-11.8C37.3,14.1,35.8,10,33,6.6z M14.6,2.8L0,17.3
	c-0.3,4.7,1.2,9.2,4.2,12.9L14.6,2.8z M18.7,20.8l-12,11.8c3.4,2.8,7.6,4.3,12,4.3c4.4,0,8.6-1.5,12-4.3L18.7,20.8z"></path>
</svg>