<svg class="logo-binance-smart-chain" viewBox="0 0 378 108" fill="#F3BA2F" xmlns="http://www.w3.org/2000/svg">
	<g>
		<path d="M109.6,17h16.5c4.2,0,7.3,1.1,9.3,3.1c1.9,1.7,2.8,3.9,2.8,6.1c0,0.9,0,1.9-0.3,2.8c-0.5,1.4-1.4,2.8-2.5,3.9c-0.5,0.5-1.1,0.9-1.7,1.1c1.9,0.5,3.7,1.7,5.1,3.1c1.1,1.4,1.7,3.1,1.7,5.6c0,1.4-0.3,3.1-0.9,4.2c-0.5,1.1-1.7,2.3-2.8,3.1c-1.4,0.9-2.8,1.4-4.2,1.9c-1.7,0.5-3.7,0.5-5.6,0.5h-17.1V16.9L109.6,17L109.6,17z M124.7,31.5c1.4,0,2.8-0.3,4.2-0.9c1.1-0.5,1.7-1.7,1.7-2.8c0-1.1-0.5-2.3-1.4-2.8c-1.1-0.9-2.5-1.1-3.9-0.9h-7.9v7.5h7.3L124.7,31.5L124.7,31.5z M126.6,45.9c1.4,0,2.8-0.3,4.2-0.9c1.1-0.5,1.7-1.7,1.4-3.1c0-1.1-0.5-2.3-1.4-2.8c-0.9-0.5-2.5-1.1-4.5-1.1h-9.3v7.9H126.6z" />
		<path d="M150.2,17h7.9v35.9h-7.9V17z" />
		<path d="M170.1,17h7.3l16.8,22.1V17h7.8v35.9h-6.7l-17.7-22.7v22.7h-7.5V17z" />
		<path d="M225.9,16.7h7.3l15.4,36.2h-8.1l-3.3-8.1h-15.1l-3.3,8.1h-8.1L225.9,16.7z M234.3,38l-4.7-11.8L224.8,38H234.3z" />
		<path d="M257,17h7.3L281,39.1V17h7.9v35.9h-6.7l-17.4-22.7v22.7H257V17z" />
		<path d="M317.5,53.4c-2.5,0-5.1-0.5-7.3-1.4c-4.5-1.9-7.9-5.3-9.8-9.8c-0.9-2.3-1.4-4.7-1.4-7.3c0-4.7,1.9-9.5,5.3-13.2c1.7-1.7,3.7-3.1,5.9-3.9c2.5-1.1,5.1-1.4,7.5-1.4c1.4,0,3.1,0,4.5,0.3s2.5,0.5,3.7,1.1c1.1,0.5,2.3,1.1,3.1,1.7c0.9,0.5,1.9,1.4,2.8,2.3l-4.7,5.9c-1.4-1.1-2.8-2.3-4.2-3.1c-1.4-0.8-3.1-1.1-4.7-1.1c-1.4,0-2.8,0.3-4.2,0.9c-1.4,0.5-2.5,1.4-3.3,2.5c-0.8,1.1-1.7,2.3-2.3,3.7c-0.5,1.4-0.9,2.8-0.9,4.2c0,1.4,0.3,3.1,0.9,4.5c0.6,1.4,1.1,2.5,2.3,3.7c1.9,2.3,4.7,3.3,7.5,3.3c1.7,0,3.7-0.3,5.3-1.1c1.4-0.9,3.1-1.9,4.2-3.1l5,5c-0.9,0.9-1.9,1.9-2.8,2.8c-1.1,0.9-2.3,1.4-3.3,1.9c-1.1,0.5-2.5,1.1-3.9,1.4C320.5,53.4,318.9,53.4,317.5,53.4z" />
		<path d="M341.6,17h26.9v7h-19.3v7.3h17.1v7h-17.1v7.6h19.6v7h-27.2V17z" />
		<path d="M119.6,88.2c-1.9,0-3.9-0.3-5.6-1.1c-1.7-0.5-3.3-1.7-5.1-3.1l2.8-3.1c1.1,1.1,2.3,1.7,3.7,2.5c1.4,0.5,2.8,0.9,4.2,0.9c1.1,0,2.3-0.3,3.3-0.9c0.9-0.5,1.1-1.4,1.1-2.3c0-0.3,0-0.9-0.3-1.1c-0.3-0.3-0.5-0.9-0.9-1.1c-0.5-0.3-1.1-0.5-1.7-0.9c-0.9-0.3-1.9-0.5-2.8-0.9c-1.1-0.3-2.5-0.5-3.7-1.1c-0.9-0.3-1.9-0.9-2.5-1.4c-0.5-0.5-1.1-1.1-1.7-1.9c-0.5-1.1-0.5-2.3-0.5-3.1c0-1.1,0.3-1.9,0.5-3.1c0.3-0.9,1.1-1.7,1.7-2.3c0.9-0.5,1.7-1.1,2.8-1.4c1.1-0.3,2.3-0.5,3.3-0.5c1.7,0,3.3,0.3,5.1,0.9c1.4,0.5,2.8,1.4,4.2,2.3l-2.3,3.3c-1.1-0.9-2.3-1.4-3.3-1.9c-1.1-0.5-2.3-0.5-3.3-0.5c-1.1,0-2.3,0.3-3.1,0.9c-0.5,0.5-1.1,1.4-1.1,2.3c0,0.5,0,0.9,0.3,1.4c0.3,0.3,0.5,0.9,0.9,1.1c0.5,0.3,1.1,0.5,1.9,0.9c0.9,0.3,1.7,0.5,3.1,0.9c1.1,0.3,2.3,0.5,3.7,1.1c0.9,0.3,1.7,0.9,2.5,1.4c0.5,0.5,1.1,1.4,1.4,1.9c0.3,0.9,0.5,1.7,0.5,2.8c0,1.1-0.3,2.3-0.5,3.1c-0.5,0.9-1.1,1.7-1.9,2.5c-0.9,0.5-1.7,1.1-2.8,1.4C122.2,87.9,120.8,88.2,119.6,88.2z" />
		<path d="M133.6,62.7h4.8l7.5,11.8l7.9-11.8h4.7v25.2h-4.5V69.7l-7.9,11.8H146l-7.8-11.8v18.2h-4.5V62.7z" />
		<path d="M173.7,62.4h4.2l10.9,25.2h-4.7l-2.5-6.1h-11.7l-2.5,6.1h-4.5L173.7,62.4z M180.2,77.8l-4.5-10.1l-4.2,10.1H180.2z" />
		<path d="M193.3,62.7h11.2c1.4,0,2.8,0.3,4.2,0.5c1.1,0.3,2.3,1.1,3.1,1.9c0.5,0.5,1.1,1.4,1.7,2.5c0.3,0.9,0.5,1.9,0.5,3.1c0,0.9-0.3,1.9-0.5,2.8c-0.3,0.9-0.9,1.4-1.1,2.3c-0.5,0.5-1.1,1.1-1.9,1.7c-0.9,0.5-1.7,0.9-2.5,1.1l6.7,9.5h-5.3l-6.1-8.7h-5.6v8.7h-4.5L193.3,62.7z M204.3,75c1.4,0,2.8-0.3,3.7-1.1c0.9-0.9,1.4-1.9,1.4-3.1s-0.5-2.3-1.4-3.1c-1.1-0.9-2.5-1.1-3.9-1.1h-6.5V75H204.3z" />
		<path d="M225.6,66.6h-8.1v-3.9h20.5v3.9h-8.1v21.3h-4.5L225.6,66.6z" />
		<path d="M265.1,88.2c-1.7,0-3.3-0.3-5.1-1.1c-3.1-1.4-5.6-3.7-6.7-6.7c-0.5-1.7-1.1-3.3-0.9-5.1c0-1.7,0.3-3.3,0.9-5.1c1.1-3.1,3.7-5.6,6.7-7c1.7-0.5,3.3-1.1,5.3-1.1c1.1,0,2.3,0,3.1,0.3c0.9,0.3,1.7,0.5,2.5,0.9c0.9,0.3,1.4,0.9,2.3,1.1c0.5,0.5,1.4,1.1,1.9,1.7l-2.8,3.3c-0.9-0.9-1.9-1.7-3.1-2.3c-1.1-0.5-2.5-0.9-3.9-0.9c-1.1,0-2.3,0.3-3.3,0.5c-1.1,0.5-1.9,1.1-2.8,1.9c-0.9,0.9-1.4,1.7-1.7,2.8c-0.3,1.1-0.5,2.3-0.5,3.3c0,1.1,0.3,2.3,0.5,3.3c0.3,1.1,0.9,1.9,1.7,2.8c0.9,0.9,1.7,1.4,2.8,1.9c1.1,0.5,2.3,0.9,3.3,0.5c1.4,0,2.8-0.3,3.9-0.9c1.1-0.5,2.3-1.4,3.3-2.5l2.8,2.8c-0.5,0.5-1.4,1.4-1.9,1.9c-0.9,0.5-1.4,1.1-2.3,1.4c-0.9,0.3-1.7,0.9-2.8,0.9C267.3,88.2,266.2,88.2,265.1,88.2z" />
		<path d="M279.9,62.7h4.2V73h12.1V62.7h4.5v25.2h-4.5V77.2h-12.1v10.7h-4.2V62.7z" />
		<path d="M316.1,62.4h4.2l10.9,25.2h-4.7l-2.5-6.1h-11.7l-2.5,6.1h-4.5L316.1,62.4z M322.3,77.8l-4.2-10.1l-4.2,10.1 H322.3z" />
		<path d="M335.7,62.7h4.5v25.2h-4.5V62.7z" />
		<path d="M346.9,62.7h3.9L364.3,80V62.7h4.5v25.2h-3.7L351.4,70v17.9h-4.5V62.7z" />
		<path d="M60.3,86.2v10.9l-9.5,5.6l-9.3-5.6V86.2l9.3,5.6L60.3,86.2z M9.2,48.4l9.3,5.6v18.8l16,9.5v10.9L9.2,78.4V48.4z M92.2,48.4v30L66.7,93.3V82.3l16-9.5V54L92.2,48.4z M66.7,33.5l9.5,5.6v10.9l-16,9.5v19L51,84.2l-9.2-5.6V59.6L25.2,50V39.1l9.5-5.6l16,9.5L66.7,33.5z M25.2,57.9l9.3,5.6v10.9l-9.3-5.6V57.9z M76.2,57.9v10.9l-9.3,5.6V63.5L76.2,57.9z M18.5,24l9.5,5.6l-9.5,5.6v10.9l-9.3-5.6V29.6L18.5,24z M82.9,24l9.5,5.6v10.9l-9.5,5.6V35.2l-9.3-5.6L82.9,24z M50.7,24l9.5,5.6l-9.5,5.6l-9.3-5.6L50.7,24z M50.7,5.2l25.5,14.9l-9.3,5.6l-16-9.5l-16.3,9.5l-9.3-5.6L50.7,5.2z" />
	</g>
</svg>