<?xml version="1.0" encoding="utf-8"?>
<!-- Generator: Adobe Illustrator 22.0.1, SVG Export Plug-In . SVG Version: 6.00 Build 0)  -->
<svg version="1.1" id="Layer_1" xmlns="http://www.w3.org/2000/svg" xmlns:xlink="http://www.w3.org/1999/xlink" x="0px" y="0px"
	 viewBox="0 0 35 35" style="enable-background:new 0 0 35 35;" xml:space="preserve">
<style type="text/css">
	.st0{fill:#12193E;}
	.st1{filter:url(#Adobe_OpacityMaskFilter);}
	.st2{fill:#FFFFFF;}
	.st3{mask:url(#mask-2_2_);}
	.st4{fill:#4CA9DC;}
</style>
<g id="_x5C_u7F16_x5C_u7EC4-7" transform="translate(0.000000, 10.000000)">
	<g id="HMDX_x5C_u5907_x5C_u4EFD-3">
		<g id="_x5C_u8499_x5C_u7248">
			<circle id="path-1_1_" class="st0" cx="17.5" cy="7.5" r="17.3"/>
		</g>
		<defs>
			<filter id="Adobe_OpacityMaskFilter" filterUnits="userSpaceOnUse" x="6.4" y="-1.5" width="22.2" height="17.6">
				<feColorMatrix  type="matrix" values="1 0 0 0 0  0 1 0 0 0  0 0 1 0 0  0 0 0 1 0"/>
			</filter>
		</defs>
		<mask maskUnits="userSpaceOnUse" x="6.4" y="-1.5" width="22.2" height="17.6" id="mask-2_2_">
			<g class="st1">
				<circle id="path-1_3_" class="st2" cx="17.5" cy="7.5" r="17.3"/>
			</g>
		</mask>
		<g id="_x5C_u7F16_x5C_u7EC4-81" class="st3">
			<g transform="translate(6.300000, 8.400000)">
				<path id="Fill-1" class="st2" d="M0.1,5c0,1.5,1.3,2.7,2.9,2.7h0.3L3.2-4.8c0-0.4,0.1-0.8,0.3-1.1c0.2-0.3,0.5-0.6,1-0.8
					C4.9-6.9,5.4-7,5.8-6.9c0.4,0.1,0.8,0.2,1.1,0.5L12-2c0,0,0.2,0.2,0.4,0.4c0.5,0.4,0.8,0.7,0.8,1.4c0,0.6-0.2,1.1-0.7,1.5
					C12.2,1.7,11.6,2,11,2c-0.6,0-1.2-0.2-1.6-0.6C8.9,0.9,8.7,0.4,8.7-0.2c0-0.7,0.3-1,0.9-1.5c0.1-0.1,0.5-0.4,0.7-0.6l-2.4-2
					L7.4-3.9c-1.3,1.1-2,1.6-2,3.7c0,1.4,0.6,2.7,1.6,3.7C8.1,4.4,9.5,5,10.9,5c1.5,0,2.9-0.6,3.9-1.5c1-0.9,1.6-2.3,1.6-3.7
					c0-2-0.7-2.7-2-3.6c-0.1-0.1-0.1-0.1-0.4-0.3L9-8.6C8.2-9.3,7.2-9.7,6.3-9.9s-2,0-3,0.4c-1,0.4-1.8,1.1-2.3,1.9
					C0.4-6.8,0.1-5.8,0.1-4.8V5z"/>
				<path id="Fill-3" class="st4" d="M14.6-5.8l0.7-0.6c0.3-0.3,0.7-0.5,1.1-0.5c0.4-0.1,0.8,0,1.3,0.2c0.4,0.2,0.7,0.4,1,0.8
					C18.9-5.6,19-5.2,19-4.8L18.9,7.7h0.3c1.7,0,3-1.2,3-2.7l0.1-9.8c0-1-0.3-2-0.8-2.8c-0.6-0.8-1.4-1.4-2.4-1.9
					C18-9.8,17-10,15.9-9.8c-1,0.1-2,0.6-2.8,1.2L12.4-8l-0.7,0.6l2.5,2L14.6-5.8z"/>
			</g>
		</g>
	</g>
</g>
</svg>
