<?xml version="1.0" encoding="utf-8"?>
<!-- Generator: Adobe Illustrator 22.0.1, SVG Export Plug-In . SVG Version: 6.00 Build 0)  -->
<svg version="1.1" id="Layer_1" xmlns="http://www.w3.org/2000/svg" xmlns:xlink="http://www.w3.org/1999/xlink" x="0px" y="0px"
	 viewBox="0 0 84 84" style="enable-background:new 0 0 84 84;" xml:space="preserve">
<style type="text/css">
	.st0{fill:#010E35;}
</style>
<path class="st0" d="M79,37.5c0.2,1.5,0.3,3,0.3,4.5c0,20.6-16.7,37.2-37.3,37.2c-15,0-27.9-8.8-33.8-21.6l6-3
	C18.9,65.2,29.6,72.6,42,72.6c16.9,0,30.6-13.7,30.6-30.6c0-0.3,0-0.6,0-0.9L79,37.5z M42,4.8c15.7,0,29.1,9.7,34.6,23.4l-6.4,2
	c-4.6-11-15.5-18.8-28.2-18.8c-16.9,0-30.6,13.7-30.6,30.6c0,0.2,0,0.4,0,0.6l-6.2,5.1c-0.3-1.9-0.4-3.8-0.4-5.7
	C4.7,21.4,21.4,4.8,42,4.8z"/>
<path class="st0" d="M0.5,56.9l36.5-29.8l-1.5,12.4l21.3-12l-1.1,11.8l27.9-8.9L45.7,51.2l2.8-11.9L26.6,52.1l1.4-9.1L0.5,56.9z"/>
</svg>
