<?xml version="1.0" encoding="utf-8"?>
<!-- Generator: Adobe Illustrator 27.5.0, SVG Export Plug-In . SVG Version: 6.00 Build 0)  -->
<svg version="1.1" id="Layer_1" xmlns="http://www.w3.org/2000/svg" xmlns:xlink="http://www.w3.org/1999/xlink" x="0px" y="0px"
	 viewBox="0 0 500 500" style="enable-background:new 0 0 500 500;" xml:space="preserve">
<style type="text/css">
	.st0{fill:#FFFFFF;}
</style>
<circle class="st0" cx="250" cy="250" r="250"/>
<path d="M354.4,93.7l-73.6,109.2c-5.1,7.4,4.7,16.4,11.7,10.2l72.4-63c2-1.6,4.7-0.4,4.7,2.3v196.9c0,2.7-3.5,3.9-5.1,2L145.4,89
	c-7-8.6-17.2-13.3-28.6-13.3H109c-20.4,0-37.2,16.8-37.2,37.6v277.2c0,20.7,16.8,37.6,37.6,37.6c12.9,0,25.1-6.7,32.1-18l73.6-109.2
	c5.1-7.4-4.7-16.4-11.7-10.2l-72.4,62.6c-2,1.6-4.7,0.4-4.7-2.3V154.4c0-2.7,3.5-3.9,5.1-2l219.2,262.3c7,8.6,17.6,13.3,28.6,13.3
	h7.8c20.7,0,37.6-16.8,37.6-37.6V113.3c0-20.7-16.8-37.6-37.6-37.6C373.6,75.7,361.5,82.3,354.4,93.7z"/>
</svg>
