<?xml version="1.0" encoding="utf-8"?>
<!-- Generator: Adobe Illustrator 27.5.0, SVG Export Plug-In . SVG Version: 6.00 Build 0)  -->
<svg version="1.1" id="Layer_1" xmlns="http://www.w3.org/2000/svg" xmlns:xlink="http://www.w3.org/1999/xlink" x="0px" y="0px"
	 viewBox="0 0 500 500" style="enable-background:new 0 0 500 500;" xml:space="preserve">
<style type="text/css">
	.st0{fill:#FFFFFF;}
</style>
<circle class="st0" cx="250" cy="250" r="250"/>
<path d="M338.1,118.8l-61,90.6c-4.2,6.2,3.9,13.6,9.7,8.4l60.1-52.3c1.6-1.3,3.9-0.3,3.9,1.9v163.3c0,2.3-2.9,3.2-4.2,1.6
	L164.8,114.9c-5.8-7.1-14.3-11-23.7-11h-6.5c-16.9,0-30.8,14-30.8,31.2v229.9c0,17.2,14,31.2,31.2,31.2c10.7,0,20.8-5.5,26.6-14.9
	l61-90.6c4.2-6.2-3.9-13.6-9.7-8.4l-60.1,51.9c-1.6,1.3-3.9,0.3-3.9-1.9v-163c0-2.3,2.9-3.2,4.2-1.6l181.8,217.5
	c5.8,7.1,14.6,11,23.7,11h6.5c17.2,0,31.2-14,31.2-31.2V135.1c0-17.2-14-31.2-31.2-31.2C354.1,103.9,344,109.4,338.1,118.8z"/>
</svg>
