<?xml version="1.0" encoding="utf-8"?>
<!-- Generator: Adobe Illustrator 22.0.1, SVG Export Plug-In . SVG Version: 6.00 Build 0)  -->
<svg version="1.1" id="Layer_1" xmlns="http://www.w3.org/2000/svg" xmlns:xlink="http://www.w3.org/1999/xlink" x="0px" y="0px"
	 viewBox="0 0 750 750" style="enable-background:new 0 0 750 750;" xml:space="preserve">
<style type="text/css">
	.st0{fill:#35302D;}
	.st1{clip-path:url(#SVGID_2_);fill:#FFFFFF;}
	.st2{clip-path:url(#SVGID_2_);fill:#35302D;}
</style>
<polygon class="st0" points="21.4,731.2 18.8,731.2 18.8,18.8 731.2,18.8 731.2,731.2 "/>
<g>
	<defs>
		<rect id="SVGID_1_" width="750" height="750"/>
	</defs>
	<clipPath id="SVGID_2_">
		<use xlink:href="#SVGID_1_"  style="overflow:visible;"/>
	</clipPath>
	<path class="st1" d="M358.1,676.8c10.6,1.5,21.4,1.7,32.1,0.1c49.2-7.2,86.3-55.9,80.8-105.1c-1.9-16.7-7.8-35-18.7-48.1
		c-7.3-8.8-17.4-17.9-24.1-26.7c-8.9-11.6-10.6-26.8-7-41c6.3-24.9,32.9-41.8,58.1-36.8c5.7,1.1,13.2,3.3,17.8,7.2
		c7.7,6.5,16.3,16.3,24.1,22.5c14.6,11.5,32.1,18,50.7,19.5c37.5,3.1,77-17.3,93.7-51.6c11.9-24.5,15.1-52.6,4.9-78.4
		c-3.4-8.5-7.6-17-13.2-24.2c-18.9-24.2-47.2-39.3-78.4-38.8c-11,0.2-21.6,1.8-32.1,5.6c-8.8,3.2-17.6,7.6-24.9,13.5
		c-9.7,7.9-17.1,17.3-26.7,24.7c-17.9,13.9-46.3,10-62.4-6.1c-12.2-12.3-17.4-28.8-14.4-46c1.1-5.8,3.3-13.2,7.2-17.8
		c7.7-9,19.5-20.4,26-30.3c10.1-15.2,15.4-33.3,15.2-51.6c-0.1-20.4-5.9-40.4-18.1-57c-20.7-28-52.3-43-87.3-40
		c-9.7,0.8-19.5,3.1-28.5,7c-19.7,8.5-36.5,23-47.1,41.9c-5.5,9.8-9.6,20.9-11.2,32.1c-3.6,24.9,1.7,53.1,17.9,73
		c7.3,9,16.6,16.3,23.5,24.9c12,15.2,13.3,36,3.7,53.4c-10.4,18.9-31.4,29-52.6,25.9c-4.5-0.7-14.4-3.9-17.8-6.6
		c-9.9-7.8-20.2-19-30.3-26.2c-14.9-10.6-31.7-15-49.9-16.2c-41.8-2.8-83.2,26.2-95.9,65.8c-6.9,21.4-6.9,44.7,1.7,65.9
		c3.6,8.9,8.2,17.4,14.3,24.9c20.8,25.7,48.8,37.9,81.8,36.3c16.4-0.8,38.9-8.1,51.6-18.7c9.4-7.7,19.1-19.9,28.5-26.3
		c18.1-12.5,44.3-9.7,60.6,6.4c11.7,11.5,17.6,26.8,15.5,43.3c-0.8,6.3-2.8,14.5-6.9,19.6c-8,9.9-18.3,20-25.9,30.3
		c-11.8,15.9-16.4,35.6-16.5,55.2C277.7,627.3,313.3,670.5,358.1,676.8"/>
	<path class="st2" d="M361.6,637.7c-22.6-5-38.4-22.4-43.4-44.5c-6.7-29.6,13.8-61.3,43.4-67.8c23.2-5.1,44.5,3.1,58.9,21.5
		c15,19.1,14.5,45.7,2.2,65.9c-7.8,12.7-21.7,22.1-36.2,25C376.8,639.6,371.1,639.5,361.6,637.7 M365.2,619.5
		c5.1,1.2,10.9,1.5,16,0.6c19.2-3.3,33.8-21.6,32.4-41.1c-1.2-16.7-12.9-30.6-28.9-35.3c-8.6-2.5-18.6-1.7-26.7,2.2
		c-15.4,7.4-25.2,24.9-22.3,42C338.3,602.8,350.4,616,365.2,619.5"/>
	<path class="st2" d="M359.9,223.5c-14.8-2.9-28.3-11.4-36.8-23.9c-4.6-6.7-7.8-13.6-9.3-21.4c-4.7-24.9,6.1-46.4,26.5-60.2
		c17.9-12.2,44.8-11.2,62.3,1.3c6.1,4.3,11.8,9.9,15.9,16.2c8.4,12.9,10.9,27.8,8.2,42.7c-3.9,21.9-22.3,40.4-43.7,44.9
		C375.2,224.6,367.7,224.9,359.9,223.5 M365.2,205.7c15.6,2.5,31.2-6.1,39.2-19.5c10.2-17,4.4-41.6-12.5-52.2
		c-13.8-8.7-31-8.3-44.5,1.1c-12.1,8.4-18.9,25-15.5,39.5C335.6,191.2,348.4,202.9,365.2,205.7"/>
	<path class="st2" d="M564.7,427.7c-8.8-2.9-14-5-21.4-11.2c-5.4-4.6-9.6-9.7-13.4-15.6c-4.3-6.7-6-13.8-7.4-21.4
		c-1.5-7.6,0.2-15.8,1.9-23.2c3.8-16.6,17.7-31,33.1-37.2c19.7-8,42.5-5.1,58.8,8.6c12.4,10.5,19.6,25,20.8,41.1
		c1.7,24.5-13.2,46.4-35,56.5C590.3,430.7,576.9,431,564.7,427.7 M575.4,411c15.9,2.1,34.2-7.6,40.1-22.7c7.1-18.4,2.7-39-15.1-49.5
		c-14.2-8.3-31.2-7.5-44.5,2.4c-12.3,9.1-18.4,27.2-13.7,41.8C546.8,397.9,559.7,409,575.4,411"/>
	<path class="st2" d="M151.5,432.1c-15.3-3.8-28.9-13.9-36.5-27.7c-11-20.1-8.9-43.7,4-62.3c12.4-17.9,34.8-25.3,55.6-22.4
		c23.3,3.3,43.1,22.7,47,45.6c5.6,32.9-14.3,61.6-47,67.9C166.9,434.5,159,434,151.5,432.1 M155,414.2c3.9,1.1,10.2,1.4,14.2,0.9
		c16.8-1.8,31.9-15.1,34.6-32c2.4-14.9-4-30.7-16.8-39.2c-12.4-8.2-30.1-9.1-42.8-0.7c-12.4,8.2-20.3,22.9-18,38.1
		C128.7,397,139.4,409.7,155,414.2"/>
</g>
</svg>
