<?xml version="1.0" encoding="utf-8"?>
<!-- Generator: Adobe Illustrator 22.0.1, SVG Export Plug-In . SVG Version: 6.00 Build 0)  -->
<svg version="1.1" id="Layer_1" xmlns="http://www.w3.org/2000/svg" xmlns:xlink="http://www.w3.org/1999/xlink" x="0px" y="0px"
	 viewBox="0 0 500 500" style="enable-background:new 0 0 500 500;" xml:space="preserve">
<style type="text/css">
	.st0{fill:#FFFFFF;}
	.st1{fill:#989898;}
	.st2{fill:#040404;}
</style>
<circle class="st0" cx="250" cy="250" r="250"/>
<g>
	<g>
		<g>
			<g>
			</g>
		</g>
	</g>
</g>
<g>
	<g>
		<path class="st1" d="M299.6,20.8l13.3,31.4c26.2,61.1,74.7,110.1,136,136.3l31.3,13.3c8.2,3.4,14.6,8.6,19.7,14.6
			C484.5,105,396.5,16.9,285.4,1.4C291,6.2,296.1,12.6,299.6,20.8z M20.2,201.4L51.5,188c60.9-26.2,109.8-74.8,136-136.3l13.3-31.4
			c3-7.7,8.2-14.6,14.6-19.8C104.3,16,16.3,104.2,0.9,215.5C5.6,209.9,12,204.8,20.2,201.4z M479.8,300.6L448.5,314
			c-60.9,26.2-109.8,74.8-136,136.3l-13.3,30.9c-3,7.7-8.2,14.6-14.6,19.8c111.1-15.5,199.1-103.6,214.6-215
			C494.4,292.5,487.5,297.6,479.8,300.6L479.8,300.6z M200.4,481.2l-13.3-30.9c-26.2-61.1-74.7-110.1-136-136.3l-31.3-13.3
			c-7.7-3-14.6-8.2-19.7-14.6C15.5,397.4,103.4,485.5,214.6,501C208.6,495.8,203.9,489,200.4,481.2z"/>
	</g>
	<path class="st2" d="M136.9,226.7l15.4-6.4c30-12.9,54.1-37,67-67.1l6.4-15.5c9-21.5,39.5-21.5,48.9,0l6.4,15.5
		c12.9,30.1,36.9,54.2,67,67.1l15.4,6.4c21.4,9,21.4,39.6,0,49l-15.4,6.4c-30,12.9-54.1,37-67,67.1l-6.4,15.5
		c-9,21.5-39.5,21.5-48.9,0l-6.4-15.5c-12.9-30.1-36.9-54.2-67-67.1l-15.4-6.4C115.5,266.3,115.5,235.7,136.9,226.7z"/>
</g>
</svg>
