<?xml version="1.0" encoding="utf-8"?>
<!-- Generator: Adobe Illustrator 27.5.0, SVG Export Plug-In . SVG Version: 6.00 Build 0)  -->
<svg version="1.1" id="Layer_1" xmlns="http://www.w3.org/2000/svg" xmlns:xlink="http://www.w3.org/1999/xlink" x="0px" y="0px"
	 viewBox="0 0 500 500" style="enable-background:new 0 0 500 500;" xml:space="preserve">
<style type="text/css">
	.st0{fill:#FFFFFF;}
	.st1{clip-path:url(#SVGID_00000089544569128219010340000013296967555384550068_);}
	.st2{clip-path:url(#SVGID_00000080184456008103051000000002336093707661626010_);}
	.st3{fill:#989898;}
	.st4{fill:#040404;}
</style>
<circle class="st0" cx="250" cy="250" r="250"/>
<g>
	<g>
		<g>
			<g>
				<defs>
					<rect id="SVGID_1_" x="0.5" y="0" width="499.1" height="500"/>
				</defs>
				<clipPath id="SVGID_00000055668034289300365980000001474370075839034807_">
					<use xlink:href="#SVGID_1_"  style="overflow:visible;"/>
				</clipPath>
				<g style="clip-path:url(#SVGID_00000055668034289300365980000001474370075839034807_);">
					<g>
						<g>
							<g>
								<defs>
									<rect id="SVGID_00000117642798387240510320000018009917242190609290_" x="0.5" y="0" width="499.1" height="500"/>
								</defs>
								<clipPath id="SVGID_00000015340812755508035910000011714725246653492410_">
									<use xlink:href="#SVGID_00000117642798387240510320000018009917242190609290_"  style="overflow:visible;"/>
								</clipPath>
								<g style="clip-path:url(#SVGID_00000015340812755508035910000011714725246653492410_);">
									<path class="st3" d="M299.6,19.8l13.3,31.4c26.2,61.1,74.7,110.1,136,136.3l31.3,13.3c8.2,3.4,14.6,8.6,19.7,14.6
										C484.5,104,396.5,15.9,285.4,0.4C291,5.2,296.1,11.6,299.6,19.8z M20.2,200.4L51.5,187c60.9-26.2,109.8-74.8,136-136.3
										l13.3-31.4c3-7.7,8.2-14.6,14.6-19.8C104.3,15,16.3,103.2,0.9,214.5C5.6,208.9,12,203.8,20.2,200.4z M479.8,299.6
										L448.5,313c-60.9,26.2-109.8,74.8-136,136.3l-13.3,30.9c-3,7.7-8.2,14.6-14.6,19.8c111.1-15.5,199.1-103.6,214.6-215
										C494.4,291.5,487.5,296.6,479.8,299.6L479.8,299.6z M200.4,480.2l-13.3-30.9c-26.2-61.1-74.7-110.1-136-136.3l-31.3-13.3
										c-7.7-3-14.6-8.2-19.7-14.6C15.5,396.4,103.4,484.5,214.6,500C208.6,494.8,203.9,488,200.4,480.2z"/>
								</g>
							</g>
						</g>
					</g>
					<path class="st4" d="M136.9,225.7l15.4-6.4c30-12.9,54.1-37,67-67.1l6.4-15.5c9-21.5,39.5-21.5,48.9,0l6.4,15.5
						c12.9,30.1,36.9,54.2,67,67.1l15.4,6.4c21.4,9,21.4,39.6,0,49l-15.4,6.4c-30,12.9-54.1,37-67,67.1l-6.4,15.5
						c-9,21.5-39.5,21.5-48.9,0l-6.4-15.5c-12.9-30.1-36.9-54.2-67-67.1l-15.4-6.4C115.5,265.3,115.5,234.7,136.9,225.7z"/>
				</g>
			</g>
		</g>
	</g>
</g>
</svg>
