<?xml version="1.0" encoding="utf-8"?>
<!-- Generator: Adobe Illustrator 22.0.1, SVG Export Plug-In . SVG Version: 6.00 Build 0)  -->
<svg version="1.1" id="Layer_1" xmlns:xodm="http://www.corel.com/coreldraw/odm/2003"
	 xmlns="http://www.w3.org/2000/svg" xmlns:xlink="http://www.w3.org/1999/xlink" x="0px" y="0px" viewBox="0 0 1500 1500"
	 style="enable-background:new 0 0 1500 1500;" xml:space="preserve">
<style type="text/css">
	.st0{fill:#EEEEEE;}
	.st1{fill:#F8F8F8;}
	.st2{fill:#D5D5D5;}
	.st3{fill:#F0F0F0;}
	.st4{fill:#FEFEFE;}
	.st5{fill:#F2F2F2;}
	.st6{fill:#ECECEC;}
	.st7{fill:#F1F1F1;}
	.st8{fill:#818181;}
	.st9{fill:#F5F5F5;}
	.st10{fill:#858585;}
	.st11{fill:#909090;}
	.st12{fill:#E3E3E3;}
	.st13{fill:#C7C7C7;}
	.st14{fill:#E0E0E0;}
	.st15{fill:#E4E4E4;}
	.st16{fill:#E1E1E1;}
	.st17{fill:#E7E7E7;}
	.st18{fill:#E5E5E5;}
	.st19{fill:#DFDFDF;}
	.st20{fill:#B8B8B8;}
	.st21{fill:#CECECE;}
	.st22{fill:#CFCFCF;}
	.st23{fill:#838383;}
	.st24{fill:#D6D6D6;}
	.st25{fill:#D1D1D1;}
	.st26{fill:#C6C6C6;}
	.st27{fill:#D9D9D9;}
	.st28{fill:#8A8A8A;}
	.st29{fill:#828282;}
	.st30{fill:#D3D3D3;}
	.st31{fill:#DDDDDD;}
	.st32{fill:#E2E2E2;}
	.st33{fill:#CACACA;}
	.st34{fill:#DEDEDE;}
	.st35{fill:#7D7D7D;}
	.st36{fill:#C0C0C0;}
	.st37{fill:#B4B4B4;}
	.st38{fill:#BCBCBC;}
	.st39{fill:#7F7F7F;}
	.st40{fill:#B0B0B0;}
	.st41{fill:#ABABAB;}
	.st42{fill:#B7B7B7;}
	.st43{fill:#D0D0D0;}
	.st44{fill:#C9C9C9;}
	.st45{fill:#C5C5C5;}
	.st46{fill:#BFBFBF;}
	.st47{fill:#C2C2C2;}
	.st48{fill:#C3C3C3;}
	.st49{fill:#AFAFAF;}
	.st50{fill:#B5B5B5;}
	.st51{fill:#3F169B;}
	.st52{fill:#5220C5;}
	.st53{fill:#5521C9;}
	.st54{fill:#471AAD;}
	.st55{fill:#4117A1;}
	.st56{fill:#4418A6;}
	.st57{fill:#4D1DBB;}
	.st58{fill:#4C1DB8;}
	.st59{fill:#4318A4;}
	.st60{fill:#491BB2;}
	.st61{fill:#491BB0;}
	.st62{fill:#511FC1;}
	.st63{fill:#D9B0FE;}
	.st64{fill:#4519AA;}
	.st65{fill:#C792FE;}
	.st66{fill:#A766FE;}
	.st67{fill:#4A1CB5;}
	.st68{fill:#BD83FE;}
	.st69{fill:#C28AFE;}
	.st70{fill:#D6A9FE;}
	.st71{fill:#9F5DFE;}
	.st72{fill:#9856FE;}
	.st73{fill:#8544FE;}
	.st74{fill:#A361FE;}
	.st75{fill:#B275FE;}
	.st76{fill:#9B5AFE;}
	.st77{fill:#783AFE;}
	.st78{fill:#BA7FFE;}
	.st79{fill:#8847FE;}
	.st80{fill:#C087FE;}
	.st81{fill:#8040FE;}
	.st82{fill:#B071FE;}
	.st83{fill:#7D3EFE;}
	.st84{fill:#D2A3FE;}
	.st85{fill:#AD6FFE;}
	.st86{fill:#AEAEAE;}
	.st87{fill:#5A25D4;}
	.st88{fill:#5C26D8;}
	.st89{fill:#5823CE;}
	.st90{fill:#40169E;}
	.st91{fill:#5924D1;}
	.st92{fill:#5622CC;}
	.st93{fill:#7033F9;}
	.st94{fill:#692FEF;}
	.st95{fill:#622AE3;}
	.st96{fill:#4F1EBE;}
	.st97{fill:#4817BD;}
	.st98{fill:#CA96FE;}
	.st99{fill:#AA6AFE;}
	.st100{fill:#BB7FFE;}
	.st101{fill:#CE9CFE;}
	.st102{fill:#D4A6FE;}
	.st103{fill:#8E4CFE;}
	.st104{fill:#9250FE;}
	.st105{fill:#8C4AFE;}
	.st106{fill:#9553FE;}
	.st107{fill:#B67AFE;}
	.st108{fill:#B477FE;}
	.st109{fill:#B97CFE;}
	.st110{fill:#CC9AFE;}
	.st111{fill:#D09FFE;}
</style>
<g id="Layer_x0020_1">
</g>
<g>
	<g>
		<g>
			<g>
				<path class="st0" d="M1158.5,1375.1c-11.5,12.8-27.3,19.5-41.6,27.8c-49.4,28.8-102.2,50.4-157.1,66.5
					c-33.7,9.9-67.9,18.2-102.9,22.2c-1.9,0.2-3.6,1.5-5.4,2.4c-14.9,0-29.7,0-44.6,0c1.4-7,7.1-5.5,11.6-5.8
					c25-1.5,49.6-6.2,74.2-10.5c1.6-0.3,3-1.3,4.4-2.1c1.8-0.9,3.8-1.5,5.8-1.8c5.7-0.8,11.6,0.4,17.2-1.7
					c11.4-4.2,24.3-3.9,34.5-11.6c7.7-4.4,16.3-5.8,24.7-8c18-0.6,33.3-10.2,49.9-15.3c34.2-11.8,65.6-29.4,96.9-47.4
					c7.1-4.1,13.9-8.7,21.1-12.5C1150.8,1375.3,1154.1,1371.9,1158.5,1375.1z"/>
				<path class="st1" d="M1492.7,830.5c-5.7,8.4-2.9,18.4-4,27.4c-4.4,38.4-13.9,75.5-25,112.3c-9.4,30.9-18.9,61.7-33.8,90.7
					c-7.4,14.5-11.7,30.6-21.3,44.1c-1.4,1.9-3.3,3.4-5,5.2c-3.7-5.1,0.3-9.2,2.1-13.4c4.7-11.1,12.2-20.9,14.6-33
					c0.5-2.9,1.3-5.7,2.7-8.4c0.5-1,1.1-1.9,1.8-2.8c3.7-3.3,5.7-7.4,5.9-12.4c0.2-1.6,0.7-3.1,1.5-4.5c3.9-3.9,6-8.5,5.8-14.1
					c0.1-1.1,0.3-2.2,0.6-3.3c0.3-1.1,0.8-2.1,1.4-3c4.4-4.1,5.5-9.2,4.3-15c0.9-7.6,3.9-14.6,6.7-21.6c1.5-3.2,2.8-6.5,4.8-9.5
					c4.6-7.4,5.8-16,8.1-24.2c10.4-40,17.4-80.6,21.4-121.8c3.7-9.4-0.8-19.8,3.7-29.1c1-1.3,2.2-1.6,3.7-0.8
					C1492.7,805.7,1492.7,818.1,1492.7,830.5z"/>
				<path class="st2" d="M898.7,1476.8c-5.3,8.2-14.5,5.6-21.9,7c-21.7,4-43.5,8-65.7,8c-1.4,0-2.8,1.4-4.2,2.2
					c-38,0-75.9,0-113.9,0c-0.8-1.6-0.4-2.9,1-3.8c7.9-3.6,16.3-1.4,24.5-2.1c34.7-0.2,69.5,1.6,104-3.7c3.5-0.9,7.1-1.2,10.8-1.2
					c5.5,0.1,11,0.4,16.3-1.6c12-2.5,24.2-3.7,36.2-5.9C890.2,1474.8,894.8,1472.8,898.7,1476.8z"/>
				<path class="st3" d="M693,1491.5c0,0.8,0,1.6,0.1,2.4c-9.9,0-19.8,0-29.7,0c-4.6-3.2-10.3,0.6-14.9-2.5l-1.2,0l-1.2,0
					c-4.6-3.2-10.3,0.6-14.9-2.5c-5.2,0.9-9.9-1.6-14.8-2.5c-3.7-3.1-8.7,0.4-12.4-2.5l-1.2,0l-1.2,0c-5.7-2-12-1.7-17.4-4.9
					c-14.7-0.4-28.2-6-42.1-9.9c-0.8-1.4-0.6-2.6,0.7-3.7c3.3-2,6.8-1.9,10.4-1.4c42.9,11.7,86.6,19.8,130.9,24
					C687.4,1488.5,690.7,1488.7,693,1491.5z"/>
				<path class="st4" d="M787.2,6.1c-9.1,5.2-19.1,2.5-28.6,2.2c-15.2-0.4-30.7,3.2-45.7-2.2C737.7,6.1,762.4,6.1,787.2,6.1z"/>
				<path class="st5" d="M1487.8,669.5c6.3,7.3-1.4,17.4,4.9,24.8c0,14,0,28.1,0,42.1c-1.5,0.8-2.7,0.5-3.7-0.8
					c-4.8-10.8,0.1-22.6-3.6-33.5c-0.4-1.4-0.7-2.9-0.8-4.3C1485.4,688.3,1481.5,678.3,1487.8,669.5z"/>
				<path class="st6" d="M1490.5,736.3c0.8,0,1.5,0.1,2.3,0.1c0,19,0,38,0,56.9c-0.8,0-1.6,0-2.5,0c-7.1-13.1-2.2-27.3-3.3-40.9
					C1486.5,747,1485.6,740.9,1490.5,736.3z"/>
				<path class="st7" d="M648.5,1491.5c5,0.8,10.5-2,14.9,2.5c-5,0-9.9,0-14.9,0C648.5,1493.1,648.5,1492.3,648.5,1491.5z"/>
				<path class="st8" d="M72.1,459.3C104,388.2,144,322.1,195.6,263.5c54.9-62.3,118-114.8,190.4-155.9c2.1-1.2,4.5-1.9,6.8-2.8
					c39.7-20.3,79.9-39.7,122.4-53.7c21.4-7.1,43-13.3,64.8-18.6c3-0.7,7-2.6,8.8,1.4c1.5,3.4-2.7,4.3-4.5,6.3
					c-11.8,6.2-24.9,8.5-37.5,12.1c-101.8,29.6-192,79.9-271.9,149.4c-74.1,64.5-132.3,140.9-175.8,228.8c-2.4,4.8-4.5,9.8-8.4,13.6
					c-8.6,10.7-11.6,23.9-17,36.1c-1.2,2.7-2.4,6.8-6.5,5.7c-3.3-0.9-2.9-4.4-2.7-7.3C65.6,471.6,69.2,465.6,72.1,459.3z"/>
				<path class="st9" d="M111.3,1135c-12.6-20.5-24.6-41.3-34.7-63.1c-14.9-31.9-26.4-65.2-37.9-98.4c-7-20.4-11.9-41.7-15.5-63
					c-3.7-22.1-9.2-43.9-11.4-66.5C8.5,809.2,7,774.4,7.3,739.5c0.2-32.4,3.7-64.6,7.9-96.7c0.1-1.1,1.3-2,2-3
					c2.4,2,2.9,4.7,3.2,7.6c0.8,9-3.3,17.6-2.3,26.6c-0.1,2.8-0.3,5.5-1,8.2c-2.4,7.4-1.1,15-1.4,22.5c-0.1,5,0.1,10.1-1,15.1
					c-2.3,21.9-2.3,43.9,0.1,65.8c0.6,13.6,2.3,27.2,3.4,40.7c0.2,6-0.8,12,1,17.8c0.4,1.2,0.6,2.5,0.8,3.8
					c0.9,5.5-0.4,11.2,2.2,16.5c6.9,41.9,17.6,82.8,29.1,123.6c1.1,4.6,2.9,9,5,13.3c3.3,10.6,7.7,20.9,11.9,31.1
					c1.5,4.2,2.8,8.5,5,12.5c1,2,1.9,4,2.8,6.1c1.4,4.3,3.1,8.4,5.7,12.1c7.7,18,17.4,35,26.7,52.1c2.5,4.6,5.3,9.2,5.2,14.8
					C113.5,1132,112.9,1133.7,111.3,1135z"/>
				<path class="st10" d="M581.8,38.7c1.7-1.6,3.3-3.2,6.6-6.2c-35.3,8.2-68.1,17.8-100.2,30.1c-28.8,11.1-56.5,24.3-83.9,38.3
					c-3.6,1.8-7,4.4-11.5,3.9c26.5-17.6,55.8-29.7,85-41.6c47.7-19.5,97.3-32.9,148-41.9c3.2-0.6,6.6-0.4,9.8-0.6
					c2-1.2,3.9-1.3,5.8,0.2c-0.5,5.3-4.8,3-7.6,3.7c-9,2.2-18.2,3.2-26.1,5.1c9.9-1.1,20.7-4.5,31.9-5.3c3.3-0.2,6.5-1.4,9.2,1.5
					c0,3.8-3,4.8-5.7,5.3c-17.3,3.3-34.7,6.7-52.1,9.7C587.8,41.5,584.5,41.2,581.8,38.7z"/>
				<path class="st7" d="M542.1,1466.6c0,0.9,0,1.7,0,2.6c-26.8-7.2-52.9-16.4-78.5-27.2c-47.4-20-92-45-134.6-73.7
					c-1.9-1.3-3.1-3.7-4.7-5.6c1.2-1.3,2.7-1.6,4.4-1.4c1,0.3,2,0.7,2.9,1.3c3,2.1,6.3,3.8,9.7,5.5c1,0.5,1.9,1.1,2.8,1.7
					c7.6,5.3,15.1,10.7,23.4,15c1,0.5,1.9,1.1,2.8,1.7c3.4,2.8,7.2,4.7,11.1,6.6c1,0.5,1.9,1.1,2.9,1.7c17.9,10,34.9,21.8,55,27.5
					c12.3,4.9,24.2,10.8,36.7,15.2c19.2,8.4,39.1,14.9,58.8,22C537.6,1461.4,542.4,1461.3,542.1,1466.6z"/>
				<path class="st11" d="M641,21.2c-1.8-0.2-3.5-0.3-5.3-0.5c25.7-6.5,52-8.1,78.2-9.1c29.2-1.1,58.6-0.3,87.8-0.3c0,0,0-0.2,0-0.2
					c32,1.9,63.6,6.6,95.3,11.5c4.1,0.6,8.1,0.5,11.2,3.7c12.1,5.3,26,5.2,37.8,11.6c-5.5,5.6-11.8,2.2-17.4,0.8
					c-37.2-9.2-74.9-14.9-112.9-19.2c-2.9-0.3-5.8-0.1-8.7-0.2c-3.7-0.1-7.4-0.1-11.1-1c-30.2-2.3-60.4-2.7-90.5,0.3
					c-9.8,1-19.7-0.6-29.2,2.3C664.6,20.5,652.8,26.8,641,21.2z"/>
				<path class="st12" d="M212.8,1266.2c-0.8-0.8-1.6-1.7-2.5-2.5c-5.4-8.5-14.2-13.9-19.8-22.3c-0.8-0.8-1.6-1.7-2.5-2.5
					c-9.8-12.5-20.4-24.3-29.7-37.2l0,0c-2.2-3.5-5.2-6.4-7.4-9.9l0,0c-8.7-13.7-20.3-25.7-25.7-41.5c0.8-1,1.8-1.5,3-1.5
					c7.7,3.3,9.8,11.3,14.7,17.1c15.6,23.2,32.6,45.3,50.8,66.5c2.8,4.7,6.5,8.7,10.5,12.4c3.4,3.6,6.9,7,10.5,10.4
					c11.3,11.4,22.6,22.7,34,33.9c4.2,5.4,11,8.8,12.5,16.2c-0.1,1.2-0.5,2.2-1.3,3.2c-7.2-0.3-9.2-8-15-10.3
					c-0.8-0.8-1.7-1.6-2.5-2.5C231.7,1286.9,221.8,1277,212.8,1266.2z"/>
				<path class="st13" d="M284.5,1328.2c-0.8-0.1-1.5-0.1-2.3-0.2c-1.9-0.3-3.1-1.4-3.8-3.1c-0.4-1.8-0.1-3.4,1.2-4.8
					c3.5-1.9,6.6-0.3,9.7,1.2c1.4,0.8,2.7,1.8,3.9,2.9c2.6,2.5,5.2,5,8.4,6.8c0.9,0.5,1.7,1.1,2.5,1.8c2.3,2,4.7,4,7.3,5.6
					c0.9,0.5,1.7,1.2,2.5,1.8c2.4,2.1,4.8,4.1,7.5,5.7c0.9,0.6,1.8,1.2,2.6,1.9c4.5,4.1,9.5,7.3,14.7,10.4c1,0.5,1.9,1.2,2.8,1.8
					c12.8,9.3,26.2,17.5,39.6,25.7c2.7,1.9,5.4,3.7,8.6,4.7c1.1,0.4,2.1,0.9,3.1,1.5c7.1,4.8,15.1,7.9,22.4,12.2c3.5,2,9,2.7,8,8.9
					c-1.5,1.2-3.2,1.7-5.1,1.5c-13.5-4.3-24.4-13.4-37-19.4l0,0c-3.7-3.1-8.6-4.4-12.4-7.4l0,0c-9.2-5.6-17.9-11.9-27.2-17.3l0,0
					c-3.7-3.2-8.2-5-12.4-7.4l0,0c-3.9-1.7-7.9-3.3-10.5-6.9c-4-2.6-8.1-5-11.7-8.1l0,0C299.4,1341.3,290.3,1336.7,284.5,1328.2z"/>
				<path class="st14" d="M72.1,459.3c-1.8,6.4-3.7,12.8-5.5,19.1c-2.4,6.8-2.3,14.3-5.3,20.9c-4.4,12.1-8.2,24.4-12.2,36.6
					c-1.8,3.2-2,7.9-7.3,7.7c-1-1.8-1.1-3.7,0.2-5.4C49.7,511,57.1,483.7,72.1,459.3z"/>
				<path class="st3" d="M126.1,1149.8c4.1,11.4,12.7,20,18.6,30.2c2.2,3.8,6.2,6.8,6.2,11.8c-12.7-9.8-18.1-24.9-27.2-37.3
					c-4.6-6.2-8.3-13.1-12.4-19.6c0-1.7,0-3.3,0-5C121.5,1132.7,124.3,1140.9,126.1,1149.8z"/>
				<path class="st15" d="M41.9,538.2c0.1,1.8,0.2,3.7,0.3,5.5c4.6,5.7,0.7,11.3-0.3,16.9c-2.7,10.4-4.8,20.9-7.5,31.3
					c-1.9,4.6-1.7,10.2-6.2,13.5c-1.2,0.7-2.4,0.6-3.5-0.2C28.2,582.3,33.8,559.9,41.9,538.2z"/>
				<path class="st16" d="M24.7,605.2c0.9,0,1.8,0,2.6,0c6.2,8.1,0,16.3-0.1,24.5c-0.1,5.1-1.8,10.3-1.9,15.5
					c-0.1,1.3-0.3,2.6-0.7,3.8c-1.8,4.7-1.8,9.7-1.8,14.6c-0.1,2.5-0.3,4.9-1.2,7.3c-0.7,1.8-1.9,3.2-3.5,4.1
					c-1.2,0.5-2.3,0.3-3.3-0.5c0.8-9.1,1.6-18.2,2.5-27.2c3.2-4.6-0.6-10.3,2.4-14.9C21.3,623.3,23,614.2,24.7,605.2z"/>
				<path class="st3" d="M279.8,1325.5c0.8,0.8,1.6,1.7,2.4,2.5c-2.8,3.8-4.7,1-7-0.7c-11.3-8.4-21.5-17.8-30.2-28.9
					c7.1,0.1,9.2,7.6,14.8,10C268.6,1311.6,275.2,1317.4,279.8,1325.5z"/>
				<path class="st3" d="M158.4,1201.8c11.9,10.8,21.8,23.2,29.7,37.2C176.4,1228,164.7,1217,158.4,1201.8z"/>
				<path class="st3" d="M212.8,1266.2c11,8.8,20.9,18.7,29.7,29.7C229.7,1288.9,219.8,1279,212.8,1266.2z"/>
				<path class="st3" d="M190.5,1241.4c7.5,6.6,16.5,11.9,19.8,22.3C202.9,1257,193.8,1251.8,190.5,1241.4z"/>
				<path class="st12" d="M284.5,1328.2c7.6,6.5,16.8,11,22.5,19.6C297.9,1343.1,288.1,1339.1,284.5,1328.2z"/>
				<path class="st7" d="M584.1,1479.1c6.1,0.7,12.1,1.4,17.4,4.9C595.2,1484.1,588.8,1484.7,584.1,1479.1z"/>
				<path class="st12" d="M319.4,1355.3c3.3,2.5,6.5,5,9.8,7.5c-1.6,0-3.3,0-4.9,0c-3.3-1.7-5.9-4.1-7.5-7.4
					C317.6,1354.4,318.5,1354.3,319.4,1355.3z"/>
				<path class="st12" d="M319.4,1355.3c-0.9,0-1.8,0-2.7,0.1c-4.9-0.3-7.7-3.4-9.8-7.5C312.2,1348.4,315.6,1352.1,319.4,1355.3z"/>
				<path class="st7" d="M631.2,1489c5,0.8,10.5-2,14.9,2.5C641.1,1490.7,635.5,1493.4,631.2,1489z"/>
				<path class="st3" d="M150.9,1191.9c4,2.2,7.2,4.9,7.4,9.9C154.4,1199.6,151.1,1196.9,150.9,1191.9z"/>
				<path class="st0" d="M19.7,632.4c-0.7,5,1.9,10.5-2.4,14.9c0-2.5,0-5,0-7.5C17.3,637.1,16.8,634.2,19.7,632.4z"/>
				<path class="st7" d="M604,1484c4.2,0.6,8.9-1.7,12.4,2.5C612.2,1485.9,607.4,1488.1,604,1484z"/>
				<path class="st8" d="M806.9,16.1c35.6,2.5,70.8,7.6,105.6,15.5c11.1,2.5,21.9,7,33.7,6.4c33.6,7.2,65.6,19.3,96.8,33.2
					c170.4,75.5,295.7,197.7,376.4,365.5c7.5,15.6,14,31.5,21,47.3c9.3,23.1,18.1,46.3,22.8,70.9c9.1,40.1,18.7,80.1,21.5,121.4
					c2.8,42.8,4.9,85.5,1.4,128.3c-0.2,2.9-0.6,5.7-2.5,8.1c-4.6,2.1-4.8-1.9-6-4.4c-2.7-17.6,1.4-35,1.9-52.6
					c0.6-20.9-3.6-41.5-3-62.4c-0.5-1.3-0.8-2.6-1-4c-1.2-6.3,0.1-13-2.1-19.2c-5.6-23.3-7.9-47.1-12.8-70.6
					c-18.1-86.5-50.8-167.1-98.3-241.6c-33.5-52.5-73-100-118.6-142.1c-64.9-59.8-138.1-106.9-220.1-140.1c-5-2-10.6-2.1-15.1-5.4
					c-8.2-5.9-17.9-7.8-27.5-10c-45.5-15-92-25.3-139.4-31.5c-3.7-0.5-7.3-1.4-10.8-2.6c-6.3-3-13.2-1.8-19.8-2.7
					c-1.2-0.2-2.3-0.7-3.4-1.3c-1-0.8-1.6-1.8-1.9-3C805.7,18.1,806.1,17,806.9,16.1z"/>
				<path class="st5" d="M1460.8,552.6c-2.7-19.1-10.9-36.5-16.5-54.7c-1.4-4.6-2.6-9.3-3.9-14c10.3,9.4,10.4,23.4,14.8,35.2
					c9.3,24.8,15.4,50.6,21.4,76.3c0.9,3.9,0.8,8.1,1.2,12.1c-1.3,0.9-2.4,0.7-3.4-0.4C1468.7,589.3,1465.7,570.7,1460.8,552.6z"/>
				<path class="st4" d="M908.3,26.4c-35.5-5.1-71-10.2-106.5-15.2c29.4-1,58.3,4,87.1,9C895.4,21.2,905.2,14.5,908.3,26.4z"/>
				<path class="st17" d="M1475.4,607.6c0.8,0,1.6,0,2.4,0c-0.3,3.6,0.8,6.8,2.5,9.9c2.9,3.7-0.6,8.7,2.5,12.4
					c0,1.6,0.1,3.3,0.1,4.9c2.8,3.8-0.6,8.7,2.4,12.4c0,1.6,0.1,3.3,0.1,4.9c3,5.5-0.9,11.9,2.4,17.4c0,0,0,0,0,0
					c-0.1,10-0.1,20-0.2,30.1c-1.8-0.1-3.3-1-3.3-2.8c-0.9-28.5-5.3-56.5-10-84.5C1474,610.6,1474.4,609,1475.4,607.6z"/>
				<path class="st5" d="M1487.8,669.5c-4.6-5.3-1.6-11.6-2.4-17.4C1490,657.4,1486.9,663.8,1487.8,669.5z"/>
				<path class="st5" d="M1482.8,629.9c-4.1-3.5-1.9-8.2-2.5-12.4C1484.5,621,1482.3,625.8,1482.8,629.9z"/>
				<path class="st5" d="M1485.3,647.3c-4.1-3.5-1.9-8.2-2.4-12.4C1486.9,638.4,1484.8,643.1,1485.3,647.3z"/>
				<path class="st18" d="M1423.5,1063.2c-1.4,12.6-9.8,22.2-14.4,33.5c-1.8,4.5-3.7,9-5.5,13.5c-19.5,32.1-38.8,64.4-61.8,94.2
					c-23.3,30.1-47.8,59.2-76.7,84.1c-1.5-1.3-1.9-2.9-1.9-4.8c6.5-14.1,20.1-22,29.7-33.4c5.1-4.3,8.1-10.4,12.7-15.1
					c4.1-3.6,6.9-8.4,10.3-12.7c7.7-8.9,14.7-18.4,22.2-27.5c17.1-21.3,30.6-45,46.2-67.3c10.5-17.7,19.1-36.5,28.6-54.7
					C1415,1068.6,1416.2,1062.3,1423.5,1063.2z"/>
				<path class="st19" d="M1264.9,1283.4c0,1.7,0,3.4,0.1,5.1c-21,23.8-46.5,42.5-71.5,61.6c-11.4,8.7-23.3,16.7-35,25
					c-29.4,15.1-56.7,33.9-87,47.3c-13.7,6.1-26.5,14.6-41.7,17.1c-0.8-1.1-0.8-2.2-0.2-3.3c12.5-9.4,28.2-12.5,41.3-20.7
					c10.7-5.4,21.9-9.7,31.6-17c3.7-2.7,7.5-5.2,11.3-7.8c19.7-9.7,38.1-21.4,55.7-34.4c22.5-14.7,43.3-31.7,63.8-49
					c4-4,9-6.7,13-10.6C1252.7,1292.5,1255.5,1283.3,1264.9,1283.4z"/>
				<path class="st20" d="M1114.3,1392.6c-2.2,4.1-6.6,5.2-10.2,7.4c-11.3,6.7-23.5,11.5-34.9,18.1c-14.3,7.7-30,12.4-43.9,20.8
					c-14.7,6-29.2,12.8-45.1,15.5c-8.2,2.6-16.3,5.1-24.5,7.7c-13.7,7-29,8.5-43.5,12.6c-2.8,1.4-6.2-0.2-8.8,1.9
					c-1.6,0.1-3.2,0.2-4.7,0.3c-16.5,2.5-33.1,4.9-49.6,7.4c-4.6,2.9-10.3-0.8-14.9,2.3c-3.3,0-6.6,0.1-9.8,0.1
					c-5.4,2.2-10.9,0.8-16.4,0.9c-2.9-6.3,3-5.8,5.8-7.8c4.9-1.6,10.3-1,15.2-2.7c2.5-0.6,5-0.9,7.6-1c5-0.1,10.1,0.2,15-1.6
					c1.3-0.4,2.5-0.6,3.8-0.8c21-1.9,41.6-6.4,62.1-11.4c59-13,115-34.1,168.6-61.7c7.9-4.1,15.3-10,24.9-9.9
					C1112.4,1390.9,1113.5,1391.5,1114.3,1392.6z"/>
				<path class="st21" d="M980.3,1454.3c14.9-5.8,29.7-11.6,44.6-17.3c1.7-1.4,3.3-1.4,5,0c0,0.8,0,1.7,0,2.5
					C1013.5,1445.1,998.7,1455.6,980.3,1454.3z"/>
				<path class="st22" d="M910.9,1474.1c14.4-6.1,29.8-8.3,44.8-12.1c-9.3,10.6-23.2,8.4-34.9,12.1
					C917.5,1475.9,914.2,1475.9,910.9,1474.1z"/>
				<path class="st2" d="M910.9,1474.1c3.3,0,6.6,0,9.9,0c-5.3,4.6-11.6,1.8-17.4,2.4C905.3,1473.7,908.2,1474.3,910.9,1474.1z"/>
				<path class="st23" d="M1480.3,808.2c0,2,0.4,3.8,2.4,4.9c5.4,9.5,0.9,19.2-0.1,28.6c-2.6,25.3-7.1,50.3-13.4,75
					c-0.5,2-0.3,4.1-0.4,6.1c-0.7,12.5-5.9,23.9-8.4,35.9c-0.1,1.2-0.4,2.5-0.9,3.6c-2.3,5.5-5.5,10.6-6.3,16.6
					c-2.5,7.4-4.9,14.8-7.4,22.3c0.8,5.8-2.1,10.3-5,14.9c-0.3,0.7-0.5,1.4-0.4,2.1c-3.4,7.6-7.6,14.8-9.9,22.9
					c-0.2,1.1-0.5,2.2-1,3.2c-1.5,3.7-4.1,6.8-5.8,10.3c-3.9,4.2-2.3,13.2-11.3,12.8c-2.9-6.2,1.1-11.1,3.4-16.1
					c13-28.2,23.5-57.5,34.9-86.3c0.5-1.2,2.1-2.7,0.5-3.8c-1.6,7.6-3.7,15.1-7.7,22c-1.1,1.8-2.7,1.2-4-0.1
					c-2.2-4.6-0.5-8.9,1-13.2c14.3-43.1,23.2-87.5,29.3-132.4c0.6-4.1,1.7-8.1,2.9-12C1476.7,820.3,1471,810.9,1480.3,808.2z"/>
				<path class="st18" d="M1487.8,823.1c-1.2,34.9-8.5,69-15.9,102.9c-1.5,7-1,14.9-6.3,20.8c-0.4-0.5-0.9-1.1-1.3-1.6
					c-1.3-7.6,4.4-14.5,2.5-22.2c2.1-19.1,8.2-37.3,10.5-56.4c2.4-19.8,5.8-39.4,6.9-59.4c0.2-2.7-1.5-7.1,4.2-6.4
					C1489,808.3,1490,815.8,1487.8,823.1z"/>
				<path class="st17" d="M1487.8,823.1c-0.1-7.6-0.2-15.2-0.3-22.9c-4.6-6.2-0.6-12.7-0.9-19.1c-0.8-24.2,1.1-48.4-1-72.5
					c-0.2-2.5,0.1-4.9,2-6.9c5.6,11.1,1.2,23.1,2.8,34.5c-0.1,19-0.1,38-0.2,57.1C1489,803.2,1492.8,813.5,1487.8,823.1z"/>
				<path class="st2" d="M1413.7,1068.6c3.2-5.1,6.4-10.3,9.6-15.4c1.5,0.3,1.7,1.8,2.6,2.6c-0.8,2.5-1.6,5-2.4,7.5
					c-6.4,3.4-7.4,10.5-10.4,16.1c-9.1,16.8-17.9,33.8-26.8,50.7c-1.4-1.4-2.2-3-2.4-5C1392,1105.2,1400.8,1085.8,1413.7,1068.6z"/>
				<path class="st24" d="M1428.1,1043.2c2.9-8.9,3.3-19.1,12.4-24.9c0.1,1,0.2,1.9,0.3,2.9c-3.1,4.6-2,11.4-7.4,14.9
					c0,1.6,0,3.2-0.1,4.9C1431.9,1042.4,1430.9,1044.9,1428.1,1043.2z"/>
				<path class="st18" d="M1440.9,1016.2c-1.5-6,2.1-10.3,5-14.9C1450.3,1008.3,1448.3,1013.1,1440.9,1016.2z"/>
				<path class="st18" d="M1465.6,946.9c-0.2,8.9-2.8,17.1-7.6,24.6c-1.9-3.3-1.5-6.6-0.1-10l0,0.1c3.6-4.4,0.1-12.4,7.6-14.8
					L1465.6,946.9z"/>
				<path class="st18" d="M1433.5,1036.1c2.7-4.9,2.3-11.2,7.4-14.9C1440.4,1027.2,1441.4,1033.8,1433.5,1036.1z"/>
				<path class="st25" d="M1457.9,961.5c0,3.3,0,6.6,0.1,10c-1.6,2.5-3.2,5-4.7,7.6C1452.2,972.5,1454.4,966.8,1457.9,961.5z"/>
				<path class="st18" d="M1428.1,1043.2c1.8-0.8,3.5-1.5,5.3-2.3c-0.4,5.4-0.6,10.9-7.4,12.4
					C1424.9,1049.6,1427.5,1046.6,1428.1,1043.2L1428.1,1043.2z"/>
				<path class="st24" d="M1428.2,1043.2c0.8,3.7-0.8,6.9-2.2,10.2c0,0.8-0.1,1.6-0.1,2.4c-0.9-0.9-1.7-1.7-2.6-2.6
					C1423.8,1049.3,1425.1,1045.8,1428.2,1043.2z"/>
				<path class="st21" d="M693,1491.5c-48-2.5-95-11.3-141.1-24.8c-1.8-3-8.2,1.1-7.8-5.2c0.9-0.9,2-1.6,3.2-1.9
					c14.1,0.1,27,5.7,40.4,8.6c6,1.3,11.9,2.8,18,3.7c4.2,1.6,8.8,1.5,13.1,2.6c7.2,2.6,15.4,0.2,22.3,4.2c5.1,3.2,11,1.9,16.5,3
					c1.3,0.2,2.6,0.5,3.9,1c15.4,0.1,30.5,3.8,45.9,3.2c4-0.1,9.4-0.9,10.2,5.6C709.6,1491.4,701.3,1491.5,693,1491.5z"/>
				<path class="st26" d="M717.9,1491.4c-15.3-4.7-31.3-1.6-46.7-4.9c-4.2-0.9-9.1,1.5-12.7-2.6c7.3-5.8,15.8-3.5,23.8-2.9
					c35.2,2.6,70.3,7.4,105.8,2.3c6.3-0.9,13.3-1.9,18.9,3.1c5.8,0,11.6,0.1,17.4,0.1c-12.1,3.8-24.8,4.2-37.3,4.6
					C764,1492,740.9,1491.4,717.9,1491.4z"/>
				<path class="st26" d="M834.2,1486.5c4.4-4.5,9.9-1.7,14.9-2.3C844.7,1488.3,839.2,1485.8,834.2,1486.5z"/>
				<path class="st27" d="M544.5,1461.8c2.5,1.6,5,3.3,7.5,4.9c-3.3,0-6.6-0.1-9.9-0.1c-2.5-1.6-5-3.2-7.5-4.9
					C537.9,1458.9,541.2,1458.9,544.5,1461.8z"/>
				<path class="st28" d="M1487.6,701.8c0,32.8,0,65.7-0.1,98.5c-3.2,23.8-6,47.6-9.7,71.3c-2.8,17.6-6.7,35.1-10.1,52.7
					c-0.5,1.3-1.2,1.4-2.2,0.5c1.1-20.8,8.6-40.4,10.7-61c1.7-16.9,4.2-33.7,6.4-50.6c0.2-22.5,3.3-44.9,2.7-67.6
					c-1.5-57-6.7-113.4-20.7-168.8c-2-7.9-4.6-15.7-4-24.1c7.8,17.6,9.5,36.8,14.6,55c4.1,30.6,8.1,61.3,12.2,91.9
					C1487.3,700.3,1487.4,701,1487.6,701.8z"/>
				<path class="st4" d="M1475.4,825.5c-6.8,53.9-18.7,106.6-34.8,158.4c0,1.7-0.6,3.2-1.4,4.7c-3.2,5.8-4.7,12.3-6.6,18.6
					c-8.9,32.9-24.6,62.8-40.8,92.4c-38.6,70.8-88.7,132.6-147.4,187.7c-8.7,8.2-18.2,15.5-26.9,23.7
					c-45.2,36.1-92.9,68.2-145.1,93.6c-72.1,35.1-147.9,57.4-227.3,68.4c-30.7,4.2-61.6,6.5-92.2,6.3c-55.1-0.3-110-5.9-164-18.4
					c-74.1-17.1-143.6-45.2-209.5-83c-31.5-20.2-63-40.4-91.6-64.7c-60.6-51.3-114.2-108.9-155.7-177c-3.6-6-7.8-11.6-11.6-17.5
					c-23.5-41.7-44.6-84.5-60-130c-14.2-41.8-25.2-84.3-31.9-128c-4.6-29.7-6.4-59.6-7.8-89.6c-4.3-86.6,9.8-170.4,35.5-252.6
					c8.3-26.6,21-51.6,33.2-76.7c16.1-30.1,31.4-60.7,50.2-89.3c78.1-118.8,181.3-208.2,310.5-267.8c42.4-19.6,86.9-33,131.6-46.1
					c22.4-4.2,44.9-8.4,67.3-12.5c0.7-1.1,1.7-1.9,2.9-2.3c4.9-0.9,10-1.3,14.8-2.7c2.7-0.3,5.4-0.2,8-0.3c10-0.9,20-2.3,30.1-2.6
					c29.7-1.6,59.3-0.9,89-0.3c4.3,0.1,9.2-0.4,12.9,3.2l0-0.1c7.2,3.1,15.3-1,22.5,2.4C881.4,30.7,933,40.1,982.8,58
					c8.5,4.5,18.4,5.6,26.9,10.2c111.3,40.8,205.2,107.1,284.1,195c81.4,90.7,136,195.7,165,314c7.5,30.4,11.8,61.4,16.6,92.3
					c3.3,6.4-0.7,13.6,2.3,20l-0.1-0.2c2.5,27,3.6,54.1,2.4,81.2C1479.1,788.9,1479.3,807.4,1475.4,825.5z"/>
				<path class="st29" d="M89.5,441.9c-7.7,19.5-15.8,38.9-22.9,58.6c-26,71.8-40.1,145.9-42.6,222.3
					c-4.5,137.7,27.4,266.3,95.1,386.1c2,3.6,3.5,7.4,5.3,11.1c-8.5,1.6-10.2-5.9-12.9-10.7c-20.9-36.5-38.2-74.7-52.2-114.4
					c-8-22.9-15.8-45.9-21-69.7c-2.1-9.5-0.3-19.6-5.3-28.5c-0.7-1.5-2.2,0.9-1-0.2c0.3-0.3,0.7,0,1,0.8c1.8,5.9,6.6,11.7,0.2,17.6
					c-8.3-13.2-7.6-28.7-10.2-43.2c-1.2-6.8-6.5-13.9-1.7-21.2c1-1.7,4.6,0,4-1c-6.5-10.9-4.8-23.4-6-34.9
					c-4.5-44.2-4.9-88.6,0.1-132.8c1.2-11,0.7-22.8,5.3-33.7c1.6-3.8-2.4,0.9-2.7-1c-0.8-14.3,5.1-27.9,5.2-42.1
					c1.5-4.3,3-8.6,4.5-12.9c3.6,6.4,0.5,12.4-0.8,18.5c1.8-16.9,8-33,8.3-50.2c0.9-5.6,1.9-11.3,2.8-16.9c1.5-2.8,3-5.6,4.5-8.4
					c2.3,1.8,1,4.4,1.5,6.3c0.1-15,10.6-27.8,10.6-43.1c1.4-7.2,3.3-14.1,7.7-20.1c0.2,1.9,0.4,3.9,0.8,8.1
					C76.1,470.6,77.3,453.4,89.5,441.9z"/>
				<path class="st30" d="M22.2,850.3c2,22,5.1,43.8,12.1,64.8c7.6,13.8,8.3,29.7,13.1,44.3c9.5,28.8,20.1,57.1,31.2,85.3
					c0.3,2.1,0,4-1.1,5.8c-1.1,1.1-2.2,1.2-3.6,0.4c-1.9-1.2-2.3-3-2.3-5.1c-2-4-2.4-8.6-5.1-12.3c-6.1-10-10.6-20.6-12.3-32.2
					c-1.9-4-2.6-8.6-4.9-12.4c-13.1-40.5-23.6-81.6-29.6-123.8c-3.2-5.4,0.9-11.9-2.5-17.3c0-0.8-0.1-1.6-0.1-2.4
					c-3-5.5,0.9-11.9-2.4-17.4c-0.3-14-3.8-27.9-2.6-42c-1.9-22.3-1.7-44.7,0-67c0.1-4.9,0.1-9.8,0.2-14.8
					c3.2-7.2-0.7-15.1,2.3-22.4c0.1-2.4,0.1-4.9,0.2-7.3c0.9,0,1.8,0,2.6,0c4.4,6.9,1.4,14.5,2.3,21.7c-0.1,3.7,0.3,7.5-0.9,11.1
					c-2.6,28.2-2.8,56.3,0.2,84.4c0.7,2.8,0.6,5.6,0.6,8.5c0.6,7.3-1.4,14.8,1.6,22c1,2.5,0.8,5.1,0.9,7.7c0.3,5-0.8,10.2,1.5,15
					C24,847,23.7,848.8,22.2,850.3z"/>
				<path class="st2" d="M126.1,1149.8c-5.9-5.9-8.1-14.6-14.8-19.9c-4.1-15.1-14.5-27.2-20.7-41.3c-3.7-8.6-7.7-17-11.6-25.5
					c-1.4-1.6-1.3-3.3-0.4-5.1c6.5-0.5,6.9,5.8,10,9.1c11.8,22,23.5,44.1,36.8,65.2c2.4,3.8,4.6,7.8,5.2,12.4c0,1.9-0.5,3.7-2,5
					l-1.2,0L126.1,1149.8z"/>
				<path class="st16" d="M12.2,719c0,22.3,0,44.7,0,67c-4.9-9.6-2.2-19.9-2.1-29.8C10.3,743.8,7.1,731.1,12.2,719z"/>
				<path class="st16" d="M14.6,681.8c-0.8,7.5,2.3,15.3-2.3,22.4C13.2,696.8,10.1,688.9,14.6,681.8z"/>
				<path class="st31" d="M79.2,1058.1c0,1.7-0.1,3.4-0.1,5.1c-3.9-3.2-5-7.5-5.1-12.2c0.9,0,1.7-0.1,2.6-0.1
					C80,1052.3,81.6,1054.5,79.2,1058.1z"/>
				<path class="st32" d="M17.2,847.8c4.6,5.2,1.6,11.6,2.5,17.3C15,859.9,18.1,853.6,17.2,847.8z"/>
				<path class="st32" d="M14.8,828c4.5,5.3,1.6,11.6,2.4,17.4C12.6,840.1,15.6,833.8,14.8,828z"/>
				<path class="st16" d="M49.3,988.9c4.1,3.2,5.2,7.5,4.9,12.4C50.5,998.1,49.3,993.8,49.3,988.9z"/>
				<path class="st31" d="M66.6,1033.6c4.3,3.1,5.2,7.5,5.1,12.3C67.8,1042.7,66.7,1038.3,66.6,1033.6z"/>
				<path class="st8" d="M673.3,23.3c-2.2,0.1-4.4,0.2-6.6,0.3c-5,2.5-10.9-1-15.7,2.3l-0.9,0.4c0,0-1-0.2-1-0.2
					c-15.2-2.2-29.6,5-44.9,3.2c12.3-2.7,24.6-5.5,36.9-8.2c11.7,0.2,23-4.1,34.7-2.8c3.4-1.6,6.7-2.2,10.4,0.9
					C682.9,24.6,676.8,20.1,673.3,23.3z"/>
				<path class="st21" d="M544.5,1461.8c-3.3,0-6.6,0-9.9,0c-20.5-5.6-40.7-12-59.5-22.3c1.3-1.6,3.1-2.3,5.1-2.4
					c14.2,3.1,27.5,9.3,41.3,13.7c8.1,2.7,18.5,0.8,23.1,10.9L544.5,1461.8z"/>
				<path class="st33" d="M480.3,1439.4c-1.7,0-3.4,0.1-5.1,0.1c-13.3-2.5-24.9-9.5-37-14.9c-2.6-3.2-10.8-0.3-8.9-8.4
					c4-2.5,8-1.4,11.8,0.3c12.4,5.5,24.3,11.9,36.5,18C479.3,1435.5,480.8,1437,480.3,1439.4z"/>
				<path class="st34" d="M428.2,1417.2c3.3,2.5,6.6,5,9.9,7.5c-21.1-5.8-39.6-16.7-56.9-29.7c13.9,2.6,23.4,14.4,37.1,17.4
					c2.6,2.3,6.6,0.9,9.1,3.5C427.6,1416.2,427.9,1416.7,428.2,1417.2z"/>
				<path class="st34" d="M341.6,1370.1c10.9,3,19.3,9.8,27.2,17.3C357.9,1384.5,349.5,1377.7,341.6,1370.1z"/>
				<path class="st34" d="M329.2,1362.7c6-0.6,9.8,2.4,12.4,7.4C336.5,1369.3,331.8,1367.8,329.2,1362.7z"/>
				<path class="st34" d="M368.8,1387.5c5.1,0.8,9.7,2.5,12.4,7.4C376,1394.1,371.4,1392.5,368.8,1387.5z"/>
				<path class="st10" d="M673.3,23.3c2.4-3.7,6.7-1.7,10.3-3.1c-2.5-3-5.4-1.3-7.8-1.9c11.9-5.1,24.9-3.3,37.2-4.2
					c25.7-2,51.6-0.6,77.5-0.6c2.5,0,4.9,0.2,6.7,2.4c-4.2,3.9-9.9,1.9-14.6,3.7c-22.5,0.1-45-0.1-67.5,0.1c-4,0-8.2-1.1-12,1.2
					C693.1,21.9,683.4,24.3,673.3,23.3z"/>
				<path class="st35" d="M784.8,18.3c3.5-3.9,8.2-1.7,12.3-2.3c3.3,0,6.6,0.1,9.8,0.1c0,0.8,0,1.6,0,2.4
					C799.6,20.2,792.2,20.5,784.8,18.3z"/>
				<path class="st36" d="M192.7,1234.3c-20-20.2-36.6-43.1-51.7-67.1c0.9-0.8,2-1.2,3.2-1.3c3.6,0.6,5.6,3.2,7.5,5.8
					c12.6,17.5,25.8,34.5,39.9,50.9c2.2,2.5,3.8,5.3,3.2,8.9C194.4,1232.6,193.7,1233.6,192.7,1234.3z"/>
				<path class="st37" d="M247.3,1291c-12.5-10.5-24.1-22.1-34.6-34.6c-1.3-1.6-1.5-3.3-0.5-5.1c2.1-1.2,4.1-0.7,5.7,0.6
					c12.1,10.4,23.4,21.7,33.8,33.8c1.4,1.6,1.8,3.6,0.7,5.7C250.6,1292.5,248.9,1292.3,247.3,1291z"/>
				<path class="st34" d="M279.8,1325.5c-6.6-5.8-14.7-9.8-20-17.2c0-0.9,0.1-1.8,0.1-2.7c1.3-1.4,2.9-1.5,4.6-1.2
					c1.1,0.4,2,0.9,2.9,1.6c3.3,3,6.8,5.9,10.4,8.4c1.6,1.7,3.1,3.5,1.8,6.1C279.7,1322.2,279.7,1323.9,279.8,1325.5z"/>
				<path class="st36" d="M143.9,1167c-1,0-1.9,0.1-2.9,0.1c-4.1-5.8-8.2-11.5-12.4-17.3c0-1.7,0.1-3.4,0.1-5.1
					C139.2,1148.5,143.9,1156.1,143.9,1167z"/>
				<path class="st38" d="M212.8,1251.5c0,1.6,0,3.3,0,5c-4.1-2.6-7.5-5.8-9.8-10.1c-1.4-1.6-1.6-3.3-0.4-5.1
					C209.5,1241.1,213.2,1244.2,212.8,1251.5z"/>
				<path class="st38" d="M264.9,1305.7c-1.7,0-3.3,0-5,0c-4.2-4.9-8.4-9.8-12.6-14.6c1.6,0,3.2,0,4.8,0
					C258.9,1293.7,264.4,1297.5,264.9,1305.7z"/>
				<path class="st36" d="M202.9,1241.6c0,1.6,0,3.1,0,4.7c-4.7-2.9-8.9-6.3-10.2-12.1c0.3-0.3,0.6-0.5,1-0.8
					C198.8,1233.8,201.7,1236.8,202.9,1241.6z"/>
				<path class="st39" d="M202.9,1241.6c-3.1-2.7-6.2-5.4-9.2-8.1c-2.9-11.4-12.8-17.7-19.2-26.5c-9.8-13.6-20.4-26.6-30.6-39.9
					c-3.8-8.3-8.4-16-15.2-22.3c-14.2-25.4-29.7-50.2-42.1-76.7c-3-7.5-6.9-14.7-10-22.2c-16.7-39.3-31.1-79.4-40.8-121.1
					c-0.7-3.2-1-6.4-1.5-9.7c1.9-6.9-2.6-13.5-1.7-22.2c5.1,10.1,5.8,19.4,7.9,28.4c12.3,52.9,31.3,103.5,55.4,152
					c8,16.1,13.7,34.3,28.4,46.6c19.4,28.1,37.5,57.1,59.2,83.6c52.9,64.7,114.1,119.9,185.4,163.6c3.5,2.1,6.6,4.8,9.9,7.2
					c30.1,20.3,63.1,34.8,96.3,48.8c4.5,1.9,8.8,4.4,13.7,5.5c2.4,0.6,6.4,1.2,6,4.8c-0.5,3.4-4.2,3.3-7,3.7
					c-13.3-1.9-24.4-9.4-36.4-14.5c-20.7-8.7-40.4-19.8-60.3-30.3c-0.7-0.1-1.5-0.2-2.2-0.3c-2-1.9-4.5-3-6.4-4.9
					c-14.8-8.4-28.8-18.1-43.2-27.2l0,0c-5.7-4.2-11.8-8-17.4-12.3l0,0c-3.5-2.2-6.4-5.2-10-7.4l0,0c-3.4-2.3-6.4-5.3-9.9-7.5l0,0
					c-3.5-2.3-6.3-5.3-9.9-7.3c-0.9-0.8-1.8-1.6-2.7-2.4c-4-3.4-8.2-6.6-12.8-9.3c-3.9-2.7-7.5-5.9-11.6-8.3c0,0,0,0,0,0
					c-4.3-4.9-8.5-9.8-12.8-14.7c-12-14.3-25.3-27.3-39.4-39.5C210.4,1247.3,207.3,1243.8,202.9,1241.6z"/>
				<path class="st40" d="M391,1392.6c14.7,4.1,27.3,12.9,41,19.2c18.2,8.4,36,17.4,55.4,22.8c6.5,2.8,13.9,2.4,20.4,5.4
					c7.1,3.1,15.1,4,21.7,8.5c0.7,1,1,2.2,0.6,3.4c-3,2.6-7.2-0.1-10.3,2.2c-13.2-4.9-26.4-9.8-39.6-14.6c-17.5-7-32.4-20.2-52-22.3
					c0,0,0,0,0,0c-1.8-1.5-4.2-2.4-5-4.9C413.8,1403.6,399.7,1402.5,391,1392.6z"/>
				<path class="st41" d="M339.2,1360.1c16.3,6.8,30.1,17.6,44.6,27.3c-0.8,1.1-1.7,1.2-2.7,0.2
					C366,1380.2,351.4,1371.9,339.2,1360.1z"/>
				<path class="st41" d="M321.8,1347.8c7.1,2.3,13.1,6,17.4,12.3C331.9,1358.2,325.8,1354.4,321.8,1347.8z"/>
				<path class="st41" d="M277.3,1313c5.8,1.3,9.4,5.2,12,10.3c-3.2-0.9-6.4-1.8-9.6-2.7c-0.9-1.5-1.8-3.1-2.7-4.6
					C276.2,1314.9,276.3,1313.9,277.3,1313z"/>
				<path class="st41" d="M311.8,1340.5c5,0.2,7.7,3.4,10,7.4C316.7,1347.7,314,1344.5,311.8,1340.5z"/>
				<path class="st41" d="M292,1325.7c5.1,0.1,7.8,3.4,9.9,7.3C296.9,1332.9,294.3,1329.6,292,1325.7z"/>
				<path class="st41" d="M301.9,1333c4.9,0.3,7.7,3.4,9.9,7.5C306.8,1340.2,304,1337.1,301.9,1333z"/>
				<path class="st37" d="M381,1387.6c0.9-0.1,1.8-0.1,2.7-0.2c3,0.2,4.7,1.9,5,4.9C385.1,1392.5,382.7,1390.8,381,1387.6z"/>
				<path class="st33" d="M423.2,1412.2c2.4,0.9,4,2.5,5,4.9c-4-0.3-7.4-1.8-10-4.9C419.9,1412.3,421.6,1412.3,423.2,1412.2z"/>
				<path class="st8" d="M58.8,498.5c3.1,1.8,3,4.3,1.9,7.4c-4.1,11.8-8,23.6-13,38.5c-0.6-5.2-0.8-7.1-1-9.1
					C49.3,522.5,53.5,510.3,58.8,498.5z"/>
				<path class="st8" d="M39.4,560.6c1.5,1.2,5.5-7,4.3,0.2c-3.1,18.3-8.2,36.3-13,56.6c-2.6-10.1,3.4-17.4,1.2-25.2
					C33.1,581.4,35.5,570.8,39.4,560.6z"/>
				<path class="st8" d="M17.2,800.7c0-2.3-0.1-4.6-0.1-6.9c-1.7-29.2-1.7-58.5,0-87.7c0.1-3.1,0.1-6.2,0.2-9.3
					c3.4-8.3-0.5-17.2,2.3-25.5c0.1-2.2,0.2-4.5,0.3-6.7c3.1-4.7-0.4-10.5,2.3-15.3c-0.3-0.7-0.2-1.3,0.1-2c3.2-1.4,1.7-5.2,5.7-9.4
					c-10.6,74.6-10.9,146.9-1.5,219.6c-1.4-2.4-2.7-4.8-4.1-7.2c-0.1-1.5-0.1-3-0.2-4.5c-2.7-4.8,0.8-10.6-2.3-15.3
					c-0.1-2.3-0.1-4.6-0.2-6.8C16.6,816.2,20.7,808.1,17.2,800.7z"/>
				<path class="st29" d="M19.5,671.3c-0.8,8.5,3,17.4-2.3,25.5c0.1-7.4,0.2-14.8,0.2-22.3C18.1,673.5,18.8,672.4,19.5,671.3z"/>
				<path class="st29" d="M22,649.3c-0.5,5.1,2.2,10.8-2.3,15.3C19.7,659.4,18.8,654,22,649.3z"/>
				<path class="st28" d="M1475.4,825.5c4.1-45.3,2.8-90.7,2.2-136.1c4.5,3.4,2.2,8.3,2.8,12.5c5.1,35.4,0.4,70.8,0,106.2
					C1474.8,812.8,1481,820.9,1475.4,825.5z"/>
				<path class="st11" d="M784.8,18.3c7.4,0.1,14.8,0.1,22.2,0.2c-0.1,0.9-0.1,1.8-0.2,2.7c-34.6-0.1-69.2-0.2-103.8-0.3
					c3.7-4,8.5-2.4,12.8-2.4C738.8,18.3,761.8,18.3,784.8,18.3z"/>
				<path class="st25" d="M1009.6,68.2c-9.4-2.2-19.1-3.7-26.9-10.2C992.4,59.7,1002,61.3,1009.6,68.2z"/>
				<path class="st11" d="M829.3,23.5c-7.6,0-15.3,1.2-22.5-2.4C814.3,21.6,822.2,18.5,829.3,23.5z"/>
				<path class="st28" d="M1477.7,689.6c-3.6-6.4-2.3-13.3-2.3-20C1480.3,675.7,1477.1,682.9,1477.7,689.6z"/>
				<path class="st42" d="M1264.9,1283.4c-5.8,5-11.5,10-17.3,15c-1.5,1.3-3.1,1.5-4.9,0.6c-1-1.5-1.1-3.3,0-4.6
					c15.1-16.5,29.3-33.9,48.3-46.4c2,0.3,3.2,1.5,3.8,3.4C1284.8,1262,1274.9,1272.7,1264.9,1283.4z"/>
				<path class="st43" d="M1386.1,1124.7c0.1,1.8,0.1,3.5,0.2,5.3c-12.9,19.3-26,38.6-38.8,58.1c-2.3,3.5-4.5,6.8-8.1,9
					c-0.9-0.9-1.4-1.9-1.6-3.2c0.4-6.1,4.3-10.6,7.6-15.2c10.4-14.3,20.2-28.9,29.5-44C1377.5,1130.4,1379.3,1124.5,1386.1,1124.7z"
					/>
				<path class="st44" d="M1339.2,1194.1c0.1,1,0.1,1.9,0.2,2.9c-6.9,9.5-13.4,19.4-22.3,27.3c-0.9-0.9-1.4-1.9-1.5-3.2
					C1321,1210,1326.2,1198.7,1339.2,1194.1z"/>
				<path class="st45" d="M1294.8,1251.3c-0.9-0.8-1.7-1.6-2.6-2.4c-0.4-8.4,5.5-11.3,11.9-13.8c1.2,0.1,2.3,0.6,3.2,1.5
					C1302.9,1241.3,1301.2,1248.3,1294.8,1251.3z"/>
				<path class="st46" d="M1307.3,1236.6c-1-0.1-2.1-0.2-3.1-0.3c-1.4-9.7,4-13.7,12.7-14.8c0.1,0.9,0.1,1.9,0.2,2.8
					C1314.5,1228.9,1312.5,1234,1307.3,1236.6z"/>
				<path class="st47" d="M1235.4,1308.4c-19.8,18.6-41.1,35.4-64.4,49.6c-0.8-0.9-1.3-2-1.4-3.2c0.4-3.1,2.4-5.1,4.8-6.8
					c17.8-13,35.3-26.5,52.1-40.7c2.5-2.2,5.4-3.8,9-1.9c0.6,0.7,0.8,1.4,0.6,2.1C1235.8,1308.1,1235.6,1308.4,1235.4,1308.4z"/>
				<path class="st38" d="M1170.8,1355.1c0.1,1,0.1,1.9,0.2,2.9c-17.3,14.1-35.8,26.4-56.7,34.6c-1-0.1-2.1-0.2-3.1-0.3
					c-0.8-3.4,1.3-5.5,3.7-7c16.5-9.8,32.9-19.8,49-30.3C1166,1353.7,1168.5,1353.2,1170.8,1355.1z"/>
				<path class="st48" d="M1029.8,1437c-1.7,0-3.3,0-5,0c14.8-6.6,29.7-13.2,44.5-19.8c0.9-0.9,1.7-1,2.6,0.1
					C1059.1,1426.5,1044.3,1431.3,1029.8,1437z"/>
				<path class="st36" d="M1071.9,1417.2c-0.9,0-1.7,0-2.6-0.1c10.8-7.3,22.3-13.3,34.8-17.2
					C1095.1,1408.8,1083.4,1412.8,1071.9,1417.2z"/>
				<path class="st13" d="M1235.4,1308.4c-0.1-1-0.2-2-0.2-3c-0.2-5.1,2.1-7.7,7.4-7.2c1.7,0,3.4,0.1,5.1,0.1
					C1245,1303.5,1239.3,1304.8,1235.4,1308.4z"/>
				<path class="st39" d="M1242.5,1298.3c-3.1,1.7-5.7,4-7.4,7.2c-18.1,13.7-36.1,27.4-54.2,41.1c-3.5,2.7-6.8,5.7-10.2,8.5
					c-20.2,11.9-40.5,23.7-59.6,37.3c-24.1,11.3-47.9,23.3-72.3,33.7c-38.8,16.5-78.3,31.2-120.2,38.3c-7.8,1-15.3,4.5-23.4,3.4
					c-3.6-7.8,4.3-5.3,6.3-5.8c16.3-4.2,32.7-7.7,48.9-12.3c60.8-17.2,118.2-42,172.6-74.4c33.5-20,65.7-41.8,94.8-67.8
					c21-20.2,43-39.4,63-60.7c61.7-65.8,110-140.2,144.2-223.7c2.3-5.6,3.8-11.5,5.7-17.2c3.8-6,4.2-13.4,7.8-19.5
					c0.7-0.8,1.4-1.7,2.2-2.5c7.3-6.6,5.9-17.4,13.4-27.6c-5.1,23.5-14,42.5-20.5,62.1c-5.6,17.1-16.5,32.1-19.8,50.1
					c-6.8,19.9-19.3,37-27.6,56.1c-15.7,23.1-31.3,46.3-47,69.4c-8.8,8-15.6,17.7-22.2,27.4c-5.4,3.9-10.6,8.1-12.7,14.8
					c-4.8,3.5-8.9,7.5-12,12.6C1274.7,1264.4,1258.3,1281,1242.5,1298.3z"/>
				<path class="st49" d="M807,1486.5c-49.6,6-99-0.5-148.5-2.5c0,0,0,0,0,0c-5.4-3.3-11.9,0.8-17.3-2.5c-6.7-5.1-15.7,0.5-22.3-4.8
					c-0.4-1.4-0.1-2.6,1.1-3.6c9.2-5.2,18.4,0.9,27.6,0.3c2,0.1,3.9,0.4,5.8,0.9c4.2,1.6,8.7,1.5,13.1,1.6c2.6,0.1,5.2,0.4,7.8,1
					c7.9,2.4,16.2,0.6,24.2,1.7c1.4,0.1,2.8,0.4,4.2,0.8c31.7,1.9,63.4,1.7,95.1,0c1.4-0.5,2.9-0.8,4.4-0.9
					c4.5-0.2,9.1-0.8,12.5,3.2C812,1483.3,809.5,1484.9,807,1486.5z"/>
				<path class="st39" d="M673.1,1479.2c-2.4,0-4.8-0.1-7.2-0.1c-3.8-3-8.7,0.3-12.6-2.4c-1.6,0-3.2-0.1-4.8-0.1
					c-2.8-2.6-7.5,0.3-10.3-3.6c4.3-5.9,9.9-2.7,14.6-2c34.7,4.7,69.7,6.9,104.6,6.5c30.4-0.3,60.8-2.3,91-6.4
					c5.2-0.7,10.4-2.6,15.8-1c3.3,2.6,2.8,4.3-1.3,5c-3,0.6-6.3-0.9-9,1.4l-1.1,0.1l-1.1-0.1c-4.7,2.9-10.4-0.8-15.1,2.4
					c-2.4,0-4.7,0.1-7.1,0.1c-9,3.2-18.7-1.2-27.6,2.4l-1.1,0.1l-1.1-0.1c-33.1,1.8-66.3,1.8-99.4,0l-1.1,0.1l-1.1-0.1
					C690,1478.1,681.2,1482.3,673.1,1479.2z"/>
				<path class="st8" d="M854,1476.7c2.9-4.8,9.5-0.3,12.4-5c0.4-0.4,0.7-0.8,1.1-1.2c3.8-2.1,8.2-1.1,12.2-2.6c1-0.4,2-0.6,3-0.8
					c3.1-0.5,6.3-0.8,9.4-0.6c0.5,0.1,1,0.1,1.6,0.2c8.3-0.8,16.7-1.6,25-2.4C897.7,1471.5,876,1474.9,854,1476.7z"/>
				<path class="st8" d="M802,1481.6c8.8-5.4,18.4-1.4,27.6-2.4c-4.5,4-10.1,1.6-15.1,2.5C810.3,1481.7,806.1,1481.7,802,1481.6z"/>
				<path class="st8" d="M836.7,1479.1c4.4-4.5,10-1.8,15.1-2.4C847.2,1480.6,841.8,1478.6,836.7,1479.1z"/>
				<path class="st25" d="M1465.6,924.7c0.7-0.2,1.5-0.3,2.2-0.5c1.8,7.8-3,14.9-2.4,22.5c-4.4,4-2.7,11.1-7.6,14.8
					C1457.9,948.8,1465.3,937.5,1465.6,924.7z"/>
				<path class="st50" d="M519.9,1454.1c2.7-3.3,6.6-1.8,9.9-2.3c11.6-4.6,21.2,3.9,32,4.6c10.3,3,20.7,5.4,31.1,7.9
					c4.4,2,9.9,1.2,13.7,4.8c0.6,1.1,0.9,2.3,0.7,3.5c-0.3,0.5-0.7,1-1,1.6c-17.7-0.5-33.9-7.8-51.1-10.8c-3.6-0.6-7.2-1.1-10.8-1.6
					C537,1457,528.7,1454.6,519.9,1454.1z"/>
				<path class="st26" d="M641.1,1481.5c5.8,0.9,12.1-2.1,17.3,2.5C652.7,1483.1,646.3,1486.3,641.1,1481.5z"/>
				<path class="st50" d="M618.9,1474c-0.1,0.9-0.1,1.8-0.2,2.7c-4.1-0.7-8.9,1.4-12.3-2.6c0,0,0.1-0.1,0.1-0.1
					c3.4-2.9,7-3.2,11-1.4C618,1473.1,618.5,1473.5,618.9,1474z"/>
				<path class="st51" d="M470,876.8c13.4-41.6,36.1-77.6,66.8-108.6c1.4-0.7,2-2.6,3.8-2.9c7,1.3,10.2,7.7,15.1,11.7
					c4.1,4.2,8.2,8.4,12.4,12.5c2.7,2.7,5.4,5.4,8.2,8c9.6,9.6,19.3,19.3,29,28.9c7.3,7.7,14.9,15.1,22.5,22.5
					c9,9.2,18.1,18.2,27.3,27.3c9.4,9.7,19.1,19,28.5,28.6c1.2,1.2,2.3,2.4,3.5,3.6c1.2,1.1,2.4,2.3,3.6,3.5
					c6.4,6.3,12.7,12.7,19.2,18.9c9.7,9.9,19.6,19.6,29.3,29.5c3.4,3.5,7.3,6.6,8,11.9c0.1,1.9-0.4,3.7-1.6,5.2
					c-3.6,2.7-7.7,3.7-12.1,4.2c-11.2,2.4-23.3,1.9-34.1,1.5c-9.4-0.3-20.5,5.8-29.5-2.2c-1.8-1.5-3.9-1.4-5.6,0
					c-11.4,9.8-24.9,9.1-38.6,7.8c-8.7-0.8-11-5.2-8.7-13.5c-3.1,2.4-2.2,5.6-3,8.1c-3.1,9.7-19,16.3-28.2,11.7
					c-3-1.5-3.8-4.3-3.4-7.3c0.6-4.8,1.4-9.6,3.3-14.4c-4.2,12.3-9.1,20.7-25.3,22.2c-14.3,1.3-27.7,4.2-41.4-1.7
					c-2.5-1.1-5.9-3.4-7.6,0.1c-4.9,9.8-11.9,4.2-18.9,4.3c-8.4,0.2-19.1-2.2-24.7,8.7c-2.2,4.2-6.5,4.6-10.6,1.6
					c-4.3-6.3-2.9-13.5-2.7-20.3c0.4-15.1-1.6-30.3,1.1-45.3c2.8-4.3,2.6-9.2,2.6-14.1C460.6,911.1,465.8,894.1,470,876.8z"/>
				<path class="st52" d="M992.8,800.7c10.1,10.8,17.3,23.4,22.7,37.1c-4.5,7.9-10.1,15-19,17.7c-5.2,1.6-10.3,2.6-15.2,5.4
					c-7.4,4.3-16.9,5.6-20,15.7c-0.8,2.7-4,4-7.2,3.9c-7.1-0.3-20.7,2.9-24.2,7.4c-2.6,3.4-10.6-2.1-9.9,6.8
					c0.1,1.3-9.5,2.9-14.6,4.5c-2.2,0.7-5,0.6-6.5-2.3c-2.7,2.3-1.6,5.8-2.8,8.5c-0.8,1.9-1.5,4.9-3.4,4.7
					c-14.3-1.3-23.1,12.4-37.3,12.6c-7.7,0.1-11.4,9.6-16.3,15.4c-3.9,4.7-6.5,7.8-12.9,3.6c-5.1-3.3-8.8,2.3-12.2,4.6
					c-10.3,7-21.8,11.4-32.9,16.7c-4.4,2.1-8.6,4.3-12.6,7.1c-5.3,2-9.7,5.9-14.9,8c-1.2,0.1-2.3,0-3.5-0.3
					c-1.7-0.8-2.8-2.1-3.5-3.8c-0.2-1.2-0.1-2.3,0.2-3.4c-1-9.3,0.5-19.7,4.9-26.2c5.8-8.5,13.7-17.6,23.4-22
					c12.9-5.9,22.3-14.3,28.9-26.4c2.1-3.8,4-7.6,8.3-8.6c16.2-3.5,22.5-16.9,29.7-29.4c1.2-2.1,1.5-5.5,3.6-6.2
					c13.8-4.8,21.2-17.9,33.2-24.7c4.5-2.5,2.5-5.1,2.4-8.1c-0.2-5.2-5.4-13.9,7-11.2c0.7-9.9,11.4-9,15.8-14.6
					c3.7-4.7,6.5-3.9,11.1,0.4c-1-10.1,2.4-18.3,6.7-26.2c1.7-3.1,5.7-6.8,7.3-4c5.4,9.6,8.6,1.9,13-0.4c7.6-3.9,14.2-4.1,20.8,3.5
					C973,777.8,981.8,790.3,992.8,800.7z"/>
				<path class="st53" d="M992.8,800.7c-8.8-1-10.6-9.7-15.4-14.8c-5-5.4-9.6-11.2-14.8-16.4c-9.1-9.2-14.5-9.3-23.3,0.1
					c-2.5,2.7-5.1,4.9-8.2,4.5c-5-0.7-1.3-4.2-1.3-6.6c0-0.9-0.8-2.6-1.5-2.7c-1-0.1-3,0.7-3.1,1.2c-1.1,10.8-12,20.2-3.6,32.8
					c-6.9,0.1-8.1-7.1-13.6-7.1c-2.6,3.3,1.8,16.2-10.4,7.9c-3.3-2.3-4.9,2.2-5.1,4.9c-0.4,4.6,1.9,9.6-6.8,4.8
					c-4.6-2.6-2.6,4.4-2.1,7.4c1.1,6.2,9.2,15.8-6.8,13.2c-3.1-0.5-2,3-3.2,4.1c-3.3,3.1-3.8,8.4-8.8,9.9
					c-15.5,4.7-19.9,19.5-29.1,30.2c-4.4,5.1-5.2,19.6-19.2,15c-2.9-1-8.5,1.1-9.2,6.4c-2,15.2-19.7,17.6-24.7,30.4
					c-12.7-5.4-12.9,9-19.7,12.4c-14.4,7.2-9.2,22.7-15.3,33.2c-0.8,1.2-1.6,1.2-2.5,0c-12.4-13.2-24.8-26.4-37.2-39.6
					c3.7-8.3,5.6-18.4,9.7-25.2c4.4-7.2,12.7-14.7,21.1-19.9c15.7-9.8,24.2-26.7,37.6-38.4c11.5-10,20.5-22.5,32.9-31.5
					c3.7-2.7,7.1-5.5,9.6-9.5c5.6-8.9,13.7-15.3,21.9-21.5c1.3-1,2.7-1.9,4.1-2.7c10.2-6,6.5-21.3,15.3-26.1
					c9.6-5.2,15.8-10.4,20.7-20.7c5-10.3,14.9-18.6,26.5-23.1c8.2,1.9,11.4,11.1,19.4,13.4c14.5,11.5,28.3,23.8,38.6,39.5
					C974,778.1,985.9,787.4,992.8,800.7z"/>
				<path class="st54" d="M747.6,974c0.8,0.8,1.6,1.7,2.5,2.5c4.7,5.8,9.5,11.5,8.8,19.7c3.8,25.1,7.4,50.3,10.9,75.4
					c2.1,15.1,6.5,30,7.4,45.5c0.3,4.8,5,6,8.7,7.8c5.3,2.5,7.8,6.9,1,9.3c-8.1,2.9-6.4,7.4-5.1,13.3c1.3,5.8,4.5,10.5,7.1,15.6
					c2.5,5,5.4,10.2-4.1,13.1c-7.5,2.3-2,7.3,1.2,8.3c17.7,5.3,7.4,21.7,12.8,31.7c0.6,1.2-0.8,3.1-1.9,4.4
					c-2.9,3.5-1,10.9,3.2,12.9c1.2,0.6,2.6,1.1,3.4,0.1c3.3-4.4,6.5-7.5,8.7,0.5c1.7,6.4,3.3,13.3-7.5,14.8
					c12.4-1.6,18.9,4.4,22.2,15l-0.6,0.5l-0.6-0.4c-33.3,8.8-67.2,9.3-101.3,8.1c-3.2-0.2-1.6-10.5-8.7-3.8c-2,1.9-8,1.4-9.9-2.4
					c-3.1-6,1.8-9.8,5.4-13.9c-3.7,3.4-7.5,4.4-10.4-0.4c-4.5-7.5-2.2-15.1,3-20.5c6.3-6.5,8.1,3.5,14.1,5.5
					c-5-6.1-13.7-10-6.2-18.9c1.5-1.8-3.5-3.7-6.2-4.4c-8.1-2-6.6-5.8-2.1-10.2c4.7-4.6,10.9-7.6,14.6-13.3c3-4.6,4.8-8.7-2.5-11.6
					c-7.7-3.1-7.3-6.8-1.4-12.6c6.1-6.1,9-14,6.9-23.4c-2.1-9.2-1.5-17.8,3.9-26.8c2.6-4.3,9.4-12.1,0.1-19.1
					c-3.8-2.8,0.6-8.5,1.8-12.7c5.1-18.6,10.9-37,7.2-56.7c0-3.7,3.2-5.3,5.1-7.8c2-3.8,2.2-7.9,1.7-12.1
					C739.7,995.4,744,984.8,747.6,974z"/>
				<path class="st55" d="M732.7,979c4.1-0.8,8.3-1.7,12.4-2.5c1.4,10.5-6.1,15-13.2,19.8c-20.4,5.7-35,20.4-50.7,33.2
					c-6.7,5.4-12.3,12.2-22.3,11.1c-4.2-0.5-5.8,3.9-8.3,6.4c-6.1,6.2-8.8,15-21.7,14.7c-9.2-0.2-17.9,10.6-23.3,19.1
					c-6.7,10.6-20.5,21.3-32.1,19.7c-3.9-0.5-6.6-0.1-8.3,3.2c-3.4,6.6-8.9,9.3-16.7,8.9c-0.9,5.7,6.2,11.2,0.1,16.3
					c-4.2,3.5-8.8,5.9-14.2,6.9c-7.9,1.5-12.6,5.2-10.8,14.5c0.8,4.3,0.2,9.3-6.3,9.5l-0.1-0.1c-4.3-5.7-6.1-13.4-13.1-17.1
					c-24.2-34.1-39.8-71.9-47-112.9c-8.7-49.9-6.2-99.3,10.2-147.6c0.6-1.9,1.8-3.6,2.8-5.4c-3.2,17.6-6.4,35.1-9.6,52.7
					c-3,3.7,0.4,8.6-2.4,12.4c-2.8,22.4-6.8,44.9,2.4,66.8c5.4,12.2,5.1,25.6,8.5,38.2c1.2,4.3,2.1,8.7,3,13.4
					c6.2-2,12.3-3,18.2-3.4c8.1-0.5,7.2-9.6,11.8-11.3c4.5-1.6,10.5,7.2,15.5,2.4c8-7.8,19-6.2,27.7-11c2.4-1.3,4.6-0.6,7-0.8
					c8.7-0.7,17-0.9,23.8-8.9c7.2-8.4,18.4-8.7,28.9-8.1c5.8,0.3,10-1.3,14.2-5.5c6.4-6.4,15.7-6.6,23.9-8.5
					c14.4-3.4,28.2-7.4,41.9-13.5C699.7,985.1,716.4,981.9,732.7,979z"/>
				<path class="st56" d="M709.5,1071.8c8.2-0.7,8.6,3.2,5,8.9c-1.9,3.1-5.5,4.8-6.7,8.7c-2.2,7.3-11.9,11.8-7.7,21.9
					c0.7,1.7-3.1,4.5-6.4,4.3"/>
				<path class="st56" d="M695.8,1115.7c7.2,14.2,3.6,25.7-8.2,34.5c-6.8,5-12.2,11.8-20,15.4c-5.2,2.4,0.5,5.8-1.4,8.6
					c4.6-2.2,7.7-7.8,13.2-3.4c5.2,4.2,0.1,8-0.6,12.1c-1.8,9.6-8.1,8.3-14.9,5.8c0.7,10.4,4.3,20.9-6.7,27.3c-5,2.9-6.1-1.9-8.9-7
					c-0.9,13.9-4.3,24.9-15.3,32.1c-4,2.7-6.3,4.2-11.7,1.8c-10.5-4.7-20-11.1-30.4-16.1c-14.7-6-25.9-16.6-37.2-27.2
					c6-8.2,10.8-18.7,25.5-12c-6.3-6.8-7.2-11.9,0.4-18.6c4.6-4.1,10-11.3,6.3-19.8c-1.4-3.2-1.2-6.8,2.3-8.7
					c4.4-2.3,5.4,2.1,7.3,4.5c1.8,2.2,2.4,5.3,5.2,6.8c2.9-10.2,2.9-10.2,15.1-3.7c-10.4-8.7-10.3-9.9-0.1-20.8
					c4.1-4.4,8.3-8.4,11.5-14c5-8.8,7.6,1.1,12.8,4.2c-7-13.7-0.7-21.4,9.1-28.7c6.6-5,9.3-14.6,18.8-16.7c0.4-0.1,0.7-0.6,0.8-0.9
					c5.4-19.9,21.6-31.1,35.6-44.2c0.3-1.1,0.8-2.1,1.4-3c7.8-10.3,17.3-19.3,24.6-30.1c8-3.2,11.1-10.5,14.9-17.3c0-1.7,0-3.3,0-5
					c0.8,0,1.6,0,2.5,0c0,0.8,0,1.6,0,2.4c2.6,12.2-5.8,22.8-5,34.7c-1.2,4.1-3.7,8.3,0,12.4c-2.5,1.7-5,3.3-7.4,5
					c-6.5,4.5-9.4,10.3-8.2,18.5c0.7,5,1.1,10.5-2.2,15.2c-0.7,0.9-1.6,1.6-2.6,2.1c-9.5-3-5.8,8.5-11,10.8"/>
				<path class="st57" d="M1029.8,1083.1c-3.8,12.7-8.8,24.7-17.1,35.2c-3.6-3.4-1.3-6.8,0-10.2c2-5.1,6.3-9.9-1.9-14.2
					c-4.2-2.2,1.5-7.7-0.9-11.8c-2.4,14.5-14.3,4.8-21.3,7.4c-6.4,2.4-9.7-7.8-9.8-15c-4.7,9-9.6,9.3-15.6-0.3
					c-2.6-4.3-4.2-7.5-10.2-5.7c-2.5,0.8-6.7-0.6-7.3-3.4c-1.2-5.7-4.9-6.9-9.6-7.8c-2.7-0.5-4.5-2.5-3.8-5.4
					c1.6-6.6-2.8-6.1-6.3-4.8c-18.2,6.5-29.8-5.9-42.5-14.7c-3.6-2.5-7.7-5.1-9.9-9.1c-1.3-2.4-0.7-1.8-2.2-0.1
					c-2.8,3.1-6.1,1-8.8-0.9c-10.6-7.3-21.6-12.5-35.2-10.9c-3.7,0.4-8.7-0.8-11.9-4.8c-6.2-7.8-15.2-9.5-24.4-9.2
					c-4.8,0.2-9.2,0.9-11.1-4.7c-1.2-3.4-3.8-3.8-6.7-4.3c-6.1-0.8-10.6-4.2-13.7-9.4c0-3.2,2.2-4.4,4.8-4.3
					c20.3,0.9,41.3-3.7,60.4,7.8c5.5,3.3,11.2-0.8,16.9-1.1c3.2-0.1,8.3-3,9.3-0.5c4.3,9.8,11.1,2.7,16.6,3.3
					c15.3,1.7,30.6,2.8,45.7,5.8c5.4,1.1,10.7,0.2,15.9-1.2c4.5-1.2,8.9-2.5,12.4,2c1.4,1.8,2.8,2.5,5.2,1.1
					c11.2-6.7,12.6,0.1,12.4,9.3c8.6-6,17.4-12.7,28.7-8.1c7,2.9,4,9.9,4.5,15.4c0.2-3.3,1.5-6.3,4.5-7.6c6-2.7,12-4.5,12.3,6.4
					c4.3-6-7.5-11.1,0.4-15.9c6.8-4.1,11.6,2.1,17,4.2c7,2.8,16.1,1.6,20.1,10.3c0.6,22.4-7.6,43.1-13,64.3
					C1032.2,1074.5,1031.7,1079.1,1029.8,1083.1z"/>
				<path class="st58" d="M759.9,979c6.3,1.6,10.3,10.5,18.7,6c0.5-0.3,2.1,0.3,2.2,0.5c2,17.6,16.3,4.4,22.9,9.3
					c4.9,3.7,13.4,2.1,15.2,10.7c0.6,2.7,6.6-0.3,7.6,4.2c15.6-5,27.3,2.9,39.2,11.4c7.8,5.6,3.7-6.2,5.8-6.2
					c18.2,22.3,37.5,37.4,66.5,27.7c2.9,6.5-4.7,6.5-3.4,11.2c0.6,0.4,1.5,1.5,2.5,1.5c5.5,0.1,13.6-4,10.6,7.9
					c-0.8,3.1,2.7,2.4,4.4,2.4c1.8,0,5.2,3.3,5.1-1.7c0-2.3-0.2-4.5,2.7-4.1c2.2,0.4,3.2,2.7,3,4.8c-0.4,4.6,1.8,7.8,4.8,10.8
					c1.7,1.7,2.9,4.8,5.7,3.6c3.1-1.3,3.7-3.9,1.2-7c-1.7-2-0.7-4.2,1.6-4.8c2.7-0.8,3.4,1.7,4,3.6c1.5,4.7,2.3,9.6,4.5,13.9
					c0.7,1.4,5.5,9.3,5.9-2.5c0.1-4.4,4.8-2.1,6.9,0.5c2.1,2.6,4.4,6.2,7.9,4.1c4.5-2.7,0.6-5.3-1.3-7.9c-1.1-1.5-0.3-3.4,1.3-4.1
					c0.8-0.4,2.6-0.1,3.3,0.5c3.3,3.1,7.1,6.7,5.2,11.5c-1.7,4.4-5.7,8.1,3.5,6.3c5.4-1.1,3.2,3,2.7,5.5c-1.2,6.9-7.4,12-7.1,19.5
					c-12.3,28.5-31.8,51.5-54.5,72.1c-1.1-8,4.1-13.3,8.2-19c4.7-6.5,6.5-11.3-2.9-16.2c-18.2-9.4-29.6-27.4-46.6-38.5
					c-6.4-4.1-16.1-6.1-14.4-17.4c0.5-3.6-2.1-1.1-2.9-0.8c-6.2,2-9.5-2-11.8-6.4c-5.1-9.6-14.5-11.7-23.6-14
					c-8-2-16.7-11.7-18.1-20.2c-1.2-7.3-9-12.5-13.5-13.6c-13.3-3.2-19.6-13.3-27.4-22.1c-2.1-2.4-2.9-7.1-6.1-7.3
					c-13.3-1-18.5-12.2-26.5-19.8c-8.9-1.7-17.1-4-15.8-15.9C757.6,978.3,758.7,978.2,759.9,979z"/>
				<path class="st59" d="M704.6,1025.7c1.6-0.1,0.5,2,0.9,0.4c0-0.1-0.3-0.2-0.5-0.3c2.7,3,6.7,6.1-0.5,7.5
					c-12,2.3-15.9,12.8-21.9,21.1c-0.5,0.6-0.4,2.2-0.7,2.2c-10.6,2.2-5.7,14.3-12.4,19c-2.3,1.6-3.8,4.3-7.4,3.1
					c-1.3-0.4-3,0.4-4.5,0.6c4.3,12.4-9.1,10.7-13.2,16.4c-2.8,4-8.1,9-4.6,12.9c7,7.7,1.8,10.9-3.8,15.7
					c-3.2-3.5,2.5-11.7-6.7-12.2c2.6,11.7-9.2,13.4-14.2,20.1c-4.1,5.5-10.4,10,2.9,10.3c6.1,0.1,6,2.9,2,6.7
					c-2.2,2.1-4,4.7-6.1,7.1c-4.2-3.4-3-9.8-8.1-12.2c-0.5,0.6-1.4,1-1.4,1.6c-0.3,4.1,5.1,9.6-0.9,12.1c-6.2,2.6-5.6-5.3-8.3-8.2
					c-2.1-2.3-3.4-5.3-5.3-8.4c-0.9,1-2.4,2.5-2.2,2.6c8.6,9.9-2.3,18.5-2.2,27.8c0,3.8-10.8-1.7-9.5,6.6c0.7,4.4,8.2,4.4,8.1,10.1
					c0,3.2-1.7,7.2-4.7,4.2c-11.4-11.3-15.9-0.5-22,5.9c-0.7,0.8-2.3,0.7-3.5,1c-2.3-0.6-3.7-2.1-4.6-4.3c-3.1-8.8-13-10.9-17.8-18
					c-5.7-5-10.7-10.5-14.1-17.4c3-3,5.7-6,3.5-10.7c-4.9-10.2,2.5-12.9,9.6-15.7c4.4-1.7,9.1-1.4,13.6-4.6
					c5.5-3.9,7.4-6.3,1.6-10.8c-2.1-1.7-4-3.4-2.4-6c1.6-2.5,4.4-4.2,7.4-3.5c3.7,0.9,6.9,2.5,9.5-2.1c3.6-6.5,5.9-15.5,17-7.4
					c2.6,1.9,9.2-2.7,12.7-6.2c2.7-2.7,4.8-5.5,9.1-5.1c1.1,0.1,1.1-1,2.3-1.3c-9.2-12.3,10.9-10.8,10.5-18.9
					c-0.1-2.2,1.3-4.4,3.7-3.9c5.1,1,9,0.5,9.9-5.7c0.3-2.4,2.4-2.5,3.7-1.7c13.4,7.9,14.2-6.7,19.1-11.8c4.5-4.7,6.5-10.3,14.3-6.8
					c3.6,1.6,6.4-0.7,8.6-3.2c13-14.7,31.2-22.9,44.8-36.6c4.8-4.8,10.5,0,14.4-4.1c-3.6,14.3-14.6,22.9-25.2,31.9"/>
				<path class="st60" d="M757.5,979c-0.4,12.1,10.7,11,17.3,14.9c0,10.9,12.6,12.3,15.7,21c2.8,8.2,3.4,17.5,13,22.2
					c6.9,3.4,6.6,4.1,8.1,18.5c0.3,2.9,2.3,1.2,3.4,1.6c7,2.5,14.4,4.5,15.8,13.5c0.6,4.1,3.6,4,6.4,3.9c4-0.1,6.2,1.8,6.5,5.7
					c0.3,5.4,3.3,7.5,8.4,8.9c10.1,2.7,10.6,5.1,4,14c2.5,4.1,6.6,1.9,10,2.6c8.8,1.7,16.3,9.4,14.6,15.6
					c-2.6,9.7,1.5,14.2,6.6,19.7c-0.4,0.6-0.8,1.1-1.2,1.5c0.4-0.3,1.1-0.5,2-0.6c6.1,6.3,5.4,15.6,10.1,22.6c2,3,3.1,6.4,6.7,8
					c1,0.6,1.9,1.3,2.7,2.1c4.2,12.1,18,15.9,23.3,27.4c2.9,6.2,2.8,9.3-3.1,12.7c-5.9,3.4-11.3,7.8-16.8,11.8
					c-22.7,17.9-48.1,29.9-76.6,35.1c0.5-8.8,8.3-8.9,13.9-11c23.6-8.6,23.7-8.4,12.6-31c-1.1-2.2-1.9-4.7-3.8-6.2
					c-8.2-6.5-7.8-12.6-0.8-17.3c-15.7-14.4-17.4-37.7-32.7-51.8c-0.3-1.1-0.4-2.3-0.3-3.5c1.6-5.6,2.2-10.4-5.7-12
					c-5.2-1-8.3-4.5-8.7-10.5c-0.4-5.5,0.2-11.7-6.1-15.1c-2-1.1-1.3-3.4-0.6-5.5c2.2-7,2.6-13.1-7.5-13.7c-3.3-0.2-7-1.4-7.9-5
					c-1-3.8,1.6-5,5.2-4.7c0.5,0.1,0.5-0.3,0.1-1.1c-7.5-17.1-14.3-34.6-24-50.5c-5.2-8.6-7.3-18.4-12.9-26.5
					c4.6-8.2-6.9-12.3-4.9-19.8c0.8,0,1.6,0,2.5,0C753.8,978,756.4,977,757.5,979z"/>
				<path class="st61" d="M824.3,1142.4c14.7,12.3,20.1,30,27.4,46.6c1.1,2.5,2.1,6.6,5,1c0.8-1.6,1.8-0.9,2.5,0.3
					c2,3.8,0.9,8.6-1.8,10c-7.2,3.7-4.1,5.6,0,8.9c7.6,6,9.2,15.9,13.5,23.9c7.4,13.8-6.3,14.8-13.8,17.9
					c-7.8,3.3-16.7,3.8-22.8,10.7c-2.2,1.9-4.6,2.8-7.5,2.2c-2.1-4.1-10.4-2-9.2-9.6c0.6-3.8-2.8-2.1-4.2-1.6
					c-9.1,3-11.8-3.3-14.8-9.8c4.6-2,7.2,3.9,11.4,2.5c2-5-1-9.4-0.8-14.4c-4.4,2.1,0.7,9.2-5.3,8.3c-4.6-0.7-10.1-3.7-10.6-8.7
					c-0.6-5.3-1.9-6.7-6.7-5.1c-2.7,0.9-4.1-0.5-3.8-3c0.3-2.8,2.4-2.3,4.6-2c10.9,1.5,8.2-2.9,7.1-11.2
					c-1.6-11.9-2.3-21.6-15.8-25.5c-1.9-0.6-3.6-6-1.9-8.9c2.5-4.5,7.3-1.9,11.4-2.1c1.8-9.8-7.4-15.2-9.9-23.6
					c-3.7-12.2-1.2-16.7,11.4-19c-13.3-3.2-16-9.3-16.6-22.6c-0.4-9.5,2.4-22.8-8.1-32.1c5.3-12.2-2.7-23.4-2.7-35.3
					c0-14.9-4.6-29.2-7.3-43.8c8.7,4.2,9.9,14.3,13.8,21.2c8.8,15.6,18.6,31.5,22.5,49.5c1.1,5.2,5.3,6,9.3,7
					c-3.4,6.8-8.8,0.9-14.1,4.3c5.4,1.9,8.5,5.3,13.4,2.8c9-4.6,7.8,0.5,5.2,5.9c-1,2.1-1.8,2.8,0.4,4.7c5.5,4.8,5.3,5-4.4,9.1
					c11.8,1.6,12.7,12.1,11.3,17c-2.2,7.8,3,8.7,5.9,8.7C835.4,1126.6,827.4,1135.3,824.3,1142.4"/>
				<path class="st62" d="M1029.8,1083.1c-0.7-13.7,3.9-26.7,8.2-39.1c4.6-13.3,6.6-26.5,6.6-40.3c-0.1-0.7-0.3-1.3-0.4-2
					c-1.6-16.7,0.8-33.5-1.4-50.1c-1.8-8.1-1.4-16.4-2.9-24.5c-3.9-21.5-3.2-15.9-20.7-18.7c-8.1-1.3-10.7-3.1-9.6-10.9
					c-2.7,16-3.2,16.4-15.4,9.9c1.6,12.7-0.4,13.5-10.8,16c-10.1,2.5-22.8,0.5-29.4,12.3c-1.1,1.9-3.1,2.7-5.4,1.8
					c-2.5-1-3.6-3.1-4-5.7c-1.3-9.2,3.5-21.1,20.9-23.2c-11.5,0.7-19.6,5.6-21.3,18c-0.4,3.1-2.3,4.5-4.9,4.4
					c-6.6-0.3-10.6,2.7-13.7,8.4c-1.6,3.1-4.9,3-8.7,1.9c-9.7-3-18.8-2.5-29.2,1c-10.1,3.4-21.9,6.4-34.6,2.8
					c4.4,9.4-0.2,10.4-7.9,11.8c-16.5,3.1-33.6,2.8-49.4,10.5c-8.7,4.2-18.7,6.8-28.5,1.8c4-12.3,18.8-6.5,25.5-15.5
					c2.5-3.3,8.3-10.3,15.2-3.9c-0.1-12.6,16.9-5.2,17.1-16.7c6,1.8-0.7,7.4,5.1,8.8c6.6,1.6,4.6-4.5,6.2-6.5
					c4.5-5.4,11-8.9,13.6-16.5c1.5-4.4,8.3-0.4,13-1.8c12.1-3.4,20-8.1,22.8-18.5c5.3,1.3,0.3,8.1,6,9.9c3-5.4,1.2-12.8,6.6-17.7
					c5.5,18.3,14.6-8.8,20.3,4.4c2.1-7-5.1-8.2-3.8-12.9c6.7-3.4,7.5,5,11.9,5.8c3.2-3.1-2-6.3,0.9-9.9c6.7,1.8,16.5,8.1,15.2-7.4
					c0.8,0.2,1.9,0.2,2.3,0.6c7.6,10.4,14.2,7.2,17.2-2.8c2.6-8.6,11.6-9.5,15.1-9.6c10.3-0.3,6.9-7.7,8.5-12.4
					c6,0.7,3.6,7.3,7.9,9.1c-1.3-10.2,13.8-2.3,13.3-12.3c0-0.7,3.2-0.3,3.3-2.6c0.2-5.2,0.2-5.2,4.7-3
					c19.5,32.8,30.1,68.4,32.9,106.2c3.4,45.5,1.5,90.6-15.6,133.7C1032,1079.6,1030.8,1081.3,1029.8,1083.1z"/>
				<path class="st63" d="M965.3,766.3c-13.1-12.5-26.2-24.9-39.3-37.4c-7.3-3.9-11.4-11.4-18.2-15.9c-3-0.3-4.7-2.4-6.4-4.6
					c-2.3-3.6-5.3-6.5-8.4-9.4c-0.8-0.7-1.6-1.5-2.4-2.3c-7.6-7.9-15.4-15.5-23.1-23.2c-5-5.2-10.1-10.2-15.2-15.2
					c-9.8-9.9-19.7-19.8-29.6-29.5c-9.8-10.1-19.8-20-29.9-29.9c-7.2-9-18.3-14.6-22.4-26.2c0.3-5.3,3.4-6.5,7.5-4.2
					c10,5.5,21.9,7.9,29.9,16.9c2.9,3.2,6.2,5.3,10.5,5.7c2.9,0.3,6.5,1.3,7.7,3.5c5.8,10.3,17.4,12.9,25.6,20
					c6.3,5.4,12.8,10.4,21.4,11.6c2.9,0.4,6,1.9,7.5,4.1c5.9,8.9,15.3,9.5,24.3,11.5c7.7,1.7,9.7,10.2,17,13.9
					c18.5,9.3,33.6,24.6,52.3,34.1c2.2,1.1,4.9,1.8,6.5,3.5c8.5,9.5,17.9,13.1,29.6,5.9c-4.1,17.9-17.2,30.1-28.3,43.4
					C975.7,750.1,968.3,756.6,965.3,766.3z"/>
				<path class="st64" d="M722.8,1242.8c-9.3-0.1-11.5-7.4-15.2-12.5c-4.9,3.9-4.8,9.2-6.5,13.7c-1.1,2.9,0.5,6.1,2.7,7.7
					c4.1,3.1,4.4-1.8,5.8-3.7c1.6-2.2,3-4.4,5.7-2.2c2.6,2,3.1,4.8,0.6,7.5c-0.6,0.6-1.3,1-2.1,1.3c-4.7,2-8.8,7.1-5.8,10.2
					c3.5,3.6,10.5,3.6,14.8-3.2c0,2.4,0,4.8,0,7.2c-12.2,5.2-23.6-1.3-35.4-2.5c-6.7-0.7-13.2-3.2-19.9-4.6
					c-28.4-5.1-53.3-18-76.5-34.7c10.4,0.5,16.8,9.7,26.6,12.2c11.4,2.9,24.7-5,25.9-17.4c0.7-7.1,2.6-13.3,7.3-18.9
					c5.7,3,0,8.3,2.8,12.7c13.9-8.6,7.8-20.3,5.2-30.8c2.9-1.6,4.6,0.1,6.4,0.7c3,1,8.4,4,8.5,2.9c0.1-5.7,3.9-9,5.9-13.3
					c0.2-0.5-1.8-2.8-3-3.1c-3.5-0.8-5.1,2.2-6.3,4.6c-0.9,1.9,0.7,5.6-3.5,4.4c-2.3-0.7-4.4-2.8-4.3-5.5c0.2-4.7,0.9-9.4,1.3-14.1
					c8.1,4.6,7.6-5.4,11.9-7.1c18.9-7.1,22.7-21,17.5-38.9c3.6-2.8,10.2-4.9,2.3-10.3c-2.2-1.5-2.1-4.3-0.5-5.2
					c7.2-4.2,8.4-13.1,14.8-17.8c2.2-1.6,5.4-3.2,4.6-6.5c-0.8-3-4-2-6.3-2.3c-1-4.8,7.8-8.2,1.8-14.1c-0.9-0.8,2.3-3.2,4.4-2.3
					c2.9,1.2,5,4.2,8.7,4"/>
				<path class="st64" d="M722.8,1060.7c2.1-6.6,1.6-13.4,1-20.1c-0.8-8.7,1.5-14.4,11.4-14.6c4,6.7,5.6,13.6,2.7,21.3
					c-5.2,14.1-1.6,30.5-10.9,43.6c-2,2.8-3,4.6,2.3,5.3c6.6,0.9,13.2,3.4,2,9.1c-1,0.5-1.6,2.2-1.5,2.4c4.2,6.9,3.7,11.8-6.4,12.4
					c2.3,6.8-3,13.2-0.5,20.3c4.1,11.3,2.2,21.3-8.5,28.5c-1.4,0.9-3.5,1.9-2.6,3.5c0.9,1.6,3,3.3,4.7,3.5c11.7,1.2,9.5,6.4,5.2,14
					c-4.8,8.4-13.9,11.3-20.1,18.7c4.8,3.3,13.8,0.1,15.3,8.1"/>
				<path class="st65" d="M990.4,374.4c18.8,22.8,32.9,48,39.6,76.9c0.7,1,1.1,2.1,0.9,3.4c-3.6,5.3-9.5,4-14.6,4.7
					c-11.2,1.6-21.9,4.1-30.1,12.5c-3.8,3.9-8.5,5.6-13.5,4.9c-9.9-1.3-19,5.6-28.9,2.3c-1-0.3-1.5-0.3-1.6,0.3
					c-4.3,19.6-22.2,16.3-35.4,21.6c-17.1,6.9-35.3,10.4-52.6,17.3c-28.2,11.3-55.3,26.5-85.9,31.6c-0.8,0.1-1.6-0.3-2.4-0.6
					c-3.8-4.5,0.4-6.9,3-8.7c7.4-5.1,13.8-11.8,22.4-15.1c15.7-6.1,28.9-17.3,41.7-27c14.4-10.9,29.5-19.7,45.3-27.6
					c3.6-1.8,5.4-5,8.4-7c7.9-5.5,14.1-13.3,25-14.1c7.6-0.6,12.9-7.3,18-12.1c14-13.2,32.2-19.6,47.3-30.9
					c9.9-7.5,19.2-14.8,12-29.2C988.4,376.6,989.4,375.3,990.4,374.4z"/>
				<path class="st66" d="M669.3,387.5c7.2,17.6,15.4,35.2,24.5,51.5c14.5,26.2,26.9,53.5,42.9,78.9c3,4.8,5,9.5,1.9,15
					c-4,2.9-6.7-0.6-9.8-1.9c-3.9-2.7-8.2-5-10.7-9.4c-10.9-12.9-16.1-30-31.3-40.1c-11.2-7.5-17.8-20.2-25.9-30.9
					c-16.9-22.5-34.5-44.5-52.5-66.1c-10.8-12.9-20.6-27.3-34.6-37.4c-2.6-1.9-3.4-4.6-3.7-7.5c-0.9-8.2-6-11.4-13.6-11.9
					c17.2-19.3,39.8-30.5,62.3-42c1.5-1.4,3.2-1.3,5-0.6c0.8,14.2,0.8,28.7,14.1,38.3c0.7,0.5,1.3,1.3,1.3,2.1"/>
				<path class="st67" d="M889.1,1153.4c-2.3-2.4,0.2-8-2.9-11c-0.3-2-0.6-4.3-3.4-4.1c-11.3,0.5-15.5-2.1-4.9-11.2
					c4.7-4,0.1-7.2-1.6-9.4c-2.9-3.9-4.2-11-11.6-8.9c-6,1.7-10.2,0.3-13.4-5c-1.9-3.3-2.3-5.5,2.5-5.5c2.3,0,5.4,1.8,4.8-2.7
					c-0.4-2.9-2.3-3.8-5.3-3.5c-9.8,0.9-15-2.8-12-13.6c-3.4-2.6-7,0.6-10.5-0.4c-2-0.6-5.1-1.4-4.4-3.2
					c5.1-13.1-5.8-11.9-12.5-14.6c-4.5-1.8-6.2-1.6-4.4-6.7c1.8-5.1,0.1-9.7-3.8-11.7c-11.3-5.7-17.4-13.9-17.9-26.9
					c-0.1-2.2-2.4-8.3-7.5-8.5c-10.9-0.4-8.2-6.4-5.4-12.6c2.1-0.6,4.9-2.8,4.1,2.3c-1,6.6,7.6,11.4,8.8,11.6
					c20.4,2.4,24.7,22.9,38,33c6.7,5.1,6.5-5,12-3.3c0.4,4.4-2.2,11.6,7.2,12c4.6,0.2,7.5,7.3,6.8,8.5c-4.1,7.6-3.9,8.2,2.4,6.4
					c0.9-0.3,2.1,0.2,3.1,0.4c-3.7,14.4,5.2,10.9,12.9,9.2c2-0.4,3,1,3.5,2.6c3.3,10.4,6.7,1.2,11-0.5c1.1,5.6,2.3,10.8,6,15.6
					c3.4,4.4,5,7.3,10.1,3c1.7-1.5,3.8-1.6,5.5,0.2c2.8,2.9-0.7,3.2-1.5,5c-2.8,5.5,2.3,8,6,10.2c12,7.1,23.8,14.7,33.2,25.1
					c7.8,8.6,15.9,15.8,27.2,18.9c2.9,0.8,3.5,15.9,0.3,17.9c-7,4.5-8.6,12.6-13.2,18.6c-14,14.3-27.9,28.8-47.3,36.1
					c3.1-4.3,12.2-11.5,17.5-14.2c1.8-0.9,4.1-3.9,2.7-4.6c-6.8-3.5-4-14.2-13.6-16"/>
				<path class="st67" d="M906.8,1173.7"/>
				<path class="st68" d="M891.2,290.2c19.5,8.5,37.3,19.4,52,35c3.4,7.6-0.9,12.5-6.1,17c-9.7,8.5-16.6,18.7-23.3,29.8
					c-4.8,8-14.9,13.1-21.1,21.2c-21.3,27.9-47.1,52.1-68.1,80.5c-17.4,23.4-37.2,45.6-59.2,65.4c-1.1,0.3-2.3,0.2-3.3-0.2
					c-3.8-5.7-0.5-10.1,2.9-14.3c5.5-6.7,10.6-13.5,13.1-22c0.4-1.1,0.9-2,1.6-2.9c6-5.8,7.2-14.1,10.8-21.1c0.1-1.1,0.5-2.2,1-3.2
					c6.2-4.8,12.7-9.5,9.1-19.1c5.3-6.8,5.8-16.3,15.4-21.1c4.4-2.2,5.4-11.5,8.3-17.3c5.9-12,19.2-21.1,16.4-37
					c-0.5-3,1.7-5.3,3.7-7.5c9.9-11.3,19.8-22.4,19.9-39c0-4.7,5-8.4,8.6-11.7c5.9-5.3,10.2-11.7,15.2-17.7
					C892.2,300.1,892.5,295.6,891.2,290.2z"/>
				<path class="st69" d="M762.4,538.3c0.8,0,1.6,0,2.5,0c12-12.2,24.7-23.7,35.9-36.9c8.1-9.6,17.9-18.7,28.5-26.2
					c11.8-8.3,21.7-18.7,31-29.7c1.3-1.6,2.4-3.9,4.2-4.5c12.3-4,17.5-15.6,25.7-23.8c6.7-6.7,12.2-14.5,21.8-17.6
					c3-1,3.6-4.3,4.3-7.2c0.8-3.3,1.9-6.6,5.7-7.4c14.7-3,22.6-12.7,27.1-26.3c1.9-5.8,7.4-7.5,13.2-6.7c3.6,0.5,7.1,2.1,10.8,2.5
					c7.4,5.2,12,12.7,17.2,19.8c0,0.4-0.1,0.9,0,1.2c7.1,17.2,5.8,21.4-10.5,32.7c-17.4,12.1-38.3,19.6-52.5,35.5
					c-7.4,8.2-15.9,7.4-24.1,10.6c-6.1,2.4-10.4,8.1-14.8,12.2c-12.5,11.4-29.1,14.5-42.2,24.3c-2.2,1.6-3.6,1.7-5,5
					c-4.4,10-17,9.9-24.4,16.9c-15.4,14.4-37.5,19.4-51.9,35.5c-0.4,1.9-1.5,3.2-3.3,4c-2.5,0.7-4.8,0.6-6.9-1.1
					C753.9,544.8,757.2,541,762.4,538.3z"/>
				<path class="st70" d="M1010.2,699.3c-12.7,12.1-13.1,11.9-28-1.5c-8.4-7.6-21.6-8.2-29-17c-9-10.7-23.2-13.2-33-23
					c-4.1-4.2-13.7-3-12.4-12.9c-7.8,5.6-12.1-7-19.4-3.7c-4.2,1.9-3.7,0.6-4.5-3.6c-0.9-5-7.8-9.1-12.2-8.9
					c-8.1,0.3-13.4-3.8-17.5-8.6c-7.9-9.3-23.9-8.7-27.4-22.9c-19.9-4.2-33.3-21.1-52.2-27.3c-2-0.6-2.3,1.7-2.5,3.3
					c-1.1,0.7-2.2,0.8-3.4,0.4c-5.1-3.3-9.5-7.4-12.5-12.8c-0.3-1.2-0.3-2.4,0-3.6c4.1-5.5,8.7-2,13.2-0.8
					c13.8,6.6,28.4,11.6,42.2,18.3c21.8,11.4,46.6,15.1,68.3,27.8c11.3,6.6,27,6,38.9,13.2c14.7,8.9,32.1,10.4,46.9,18.4
					c8.6,4.7,17.7,8.9,26.7,11.5c9.4,2.7,18.3,10.5,29.4,6.3c5.7-2.2,7.4,1.4,7.8,6.2c0,0.6,0.1,1.2,0.1,1.7
					C1026.6,674.6,1019.1,687.3,1010.2,699.3z"/>
				<path class="st71" d="M720.3,521c3.3,2.5,6.6,5,9.9,7.4c3,7.6,11,9.7,16.2,14.9c0.9,0.8,1.7,1.7,2.2,2.7
					c0.6,1.8,0.4,3.5-0.6,5.1c-1.5,1.1-3.2,1.4-5,1c-6.6-4.1-12.9-8.8-20.2-11.8c-1-0.6-2-1.2-2.9-1.9c-8.1-8-19.5-10.6-28.5-16.7
					c-22.4-15.4-47-27.1-69.3-42.7c-8.9-6.2-19.6-9.8-29-15.7c-25.1-15.6-50.5-30.8-74.8-47.6c-9-6.2-18.5-9.2-29.1-3.8
					c5.6-16.3,15.1-30.1,27.4-42.1c3.6-4,7.8-7.5,10.3-12.5l-0.1,0c2.4-1.8,4.8-1.2,6.6,0.8c10.6,11.8,24.2,19.8,36.9,28.9
					c1.3,1,3,1.5,3.9,2.9c13.3,21.4,32.8,35.5,55,46.1c6.9,3.3,2.7,10.1,8.5,14.6c14.1,10.8,29.1,20.5,41.9,33.3
					c8.6,8.6,16,18.6,26,26.1C710.5,513.7,715.5,517.3,720.3,521z"/>
				<path class="st72" d="M467.6,645.3c-8.5-17.2-11.6-36-13.4-54.6c-5-50-1.1-99.1,18.5-146.1c0.5-1.1,1.4-2,2.1-2.9
					c8.4-7.5,16.9-7.2,25.4-0.1c6.1,5.1,12.3,9.8,20.9,8.9c2.6-0.3,4.6,1.3,6.7,2.7c11.7,7.4,24.5,11.4,38,14.7
					c8.6,2.1,14.8,10.5,24.3,13.2c14.6,4.2,30.9,5.9,41.2,19.6c0.4,0.6,1.5,0.7,2.3,0.9c31.3,6.4,57.9,23.9,86.9,35.9
					c0.8,0.3,1.6,0.5,2.3,0.8c2.2,1.8,5.1,3,5.8,6.2c-0.1,1.2-0.6,2.2-1.4,3.1c-4.1,3-9,2.1-12.9,0.8c-13.3-4.4-27.7-4.8-40.6-10.9
					c-14-7.4-29.7-9.5-44.7-13.3c-23.8-6.1-47.3-13.1-71.2-18.8c-12.7-3-23.6-10.7-37.4-10.9c-11.7-0.1-22.8-5.9-33.9-9.3
					c-6.9-2.1-13.9,3.8-19.7-1.9c-0.6,2.6-0.1,5.2-0.5,7.9c-1.8,11.9-5.4,23.5-7.1,35.5c-0.5,4-0.3,7.9-0.3,11.9
					c0.1,1.4,0.1,2.8,0,4.1c-0.4,19.6-0.3,39.2,3.6,58.5c1.2,11.2,4.3,22,7.3,32.8c0.4,1.3,0.6,2.6,0.7,4
					C470.4,640.8,470,643.5,467.6,645.3z"/>
				<path class="st73" d="M487.2,690.3c-8.2-11.5-13.5-24.2-17-37.8c-0.2-4.6-2.6-7.4,4.2-12.4c16.2-12,33.2-17.2,52.7-19
					c14.5-1.4,27.8-8.8,41.6-13.3c19.3-6.3,38.3-14.5,58.2-18.1c11.8-2.1,21.7-4.1,31.6-12.1c4.9-3.9,15.3-4.1,23.3-5.6
					c10.8-2,22-3.6,30.9-11.1c0.9-0.7,1.9-1.3,3-1.7c5-0.9,10.2-0.6,14.6-3.8c4.4-2.6,9.1-2.9,14-2c1.2,0.3,2.3,0.8,3.2,1.6
					c1,2,0.1,3.4-1.4,4.6c-6,3.2-11.3,7.8-17.8,10.4c-7.5,0.3-13.8,3-18.9,8.6c-1,0.6-2,1.1-3.1,1.5c-16.7,9.2-35.2,15.1-50.6,26.6
					c-5.4,4-11.5,7.2-18.1,6.8c-5.6-0.3-10,1.3-13.5,4.7c-9.2,8.8-21.2,11.8-32.4,16.3c-4.6,1.9-8.2,4.4-12.1,7.6
					c-6.6,5.4-16.1,6.5-23.3,11.6c-1.1,0.8-4.2-0.4-4.7,0.6c-6.4,13.1-19.9,8.7-30.1,12.4c-5.4,2-11,2.9-8.2,11.4
					c1.3,3.8-2.9,6.4-6.4,4.3c-7-4.1-14.3-2.8-21.6-2.6c-2-2.9-2.9-6.1-3.3-8.3c0.2,2.7,1.2,6.3,4.3,9.2
					C489,683.8,490.7,686.9,487.2,690.3z"/>
				<path class="st74" d="M720.3,521c-15-0.3-20.8-13.7-30.1-21.9c-11.8-10.4-20.9-25.9-34.3-31.7c-10.1-4.4-14-14.8-24.3-17.1
					c-1.6-0.4-4-4.1-3.8-4.2c8.3-9.1-3.2-7-5.6-9.1c-10.4-9-22.3-15.8-32.8-25.1c-12.4-11-20.8-26.9-36.8-34
					c-10.3-4.6-16.9-14-25.8-20.4c7-12.7,18-21.5,29.6-29.6c9-4.2,14.5-1.1,15.6,8.4c0.8,6.2,5.5,8.6,8.8,12.7
					c11,13.4,22.9,26,34.1,39.2c11.4,13.4,21.3,28.1,33.4,41.1c14.3,15.5,23.1,36.4,40.1,49.1c12.9,9.7,17.5,24.7,28.7,34.9
					C719,514.9,719.3,518.3,720.3,521z"/>
				<path class="st75" d="M742.1,255.8c11-4.9,21.8,0.9,32.7,0.3c1.3,1.1,3.2,1.6,3.7,3.5c2.7,12.7,3.1,25.1-4.5,36.5
					c-1.8,2.7-1.2,5.4-0.6,8.3c3.8,21.7-0.2,42.8-5.2,63.9c-1,4.3-1.6,9.1,0,13.4c3.7,10.4,2.4,20.1-2.5,29.7
					c-0.9,1.8-2.2,3.8-1.9,5.8c3.8,27.1-6.9,53.7-3,80.8c-0.6,13.6-3.8,27.1-3,40.8c0,4.4-3.8,7.6-3.7,12c0.5,2,0.1,3.7-1.3,5.2
					c-1.4,0.4-2.5,0.1-3.5-1c-1.1-1.9-0.6-3.8-0.3-5.7c-1.3-7-2.8-14-2.1-21.1c3.9-27.2-1.2-54.3-4.1-80.9
					c-2.7-24.9-2.8-49.8-5.4-74.6c-0.8-7.9-6.9-17,3.9-23.2c1-0.6,0.9-1,0.4-1.5c-12.6-11.9-2-29.7-11.3-43.8
					c-4.2-6.4,2.7-20.1,2.3-30.7c-0.5-13.9,6.4-18.1,19.5-15.1C748.5,257.5,744.5,259.7,742.1,255.8z"/>
				<path class="st76" d="M722.8,538.3c-3,1.6-5.6,2.3-9-0.1c-19.1-12.9-43.3-15.4-61.3-30.6c-2.1-1.8-4.6-1-7-1.2
					c-8.1-0.4-16.2,0.5-21.2-9.2c-4.2-8.2-15-6.3-22.5-10c-11.1-5.5-25.7-4.1-33.8-16.2c-2.1-3.2-4.1-1.7-6.1-0.6
					c-2.1,1.1-4.5,4.3-6.3,2.1c-4.6-5.5-8.3-12-17.1-7.3c-11.1-14.6-32.9-9.7-44.5-24.6c-4.3-5.5-12.8-0.8-19.3,0.9
					c1.5-8.4,5.6-15.6,10.2-22.5c5.8,0.6,1-3.4,2.1-4.8c0.8-0.8,1.5-1.6,2.3-2.3c8.9-9.1,18.9-9.7,31.1,1.3
					c12.3,11.1,27.4,17.4,40.8,26.6c16.3,11.1,33.3,21.2,50.7,30.7c27.2,14.7,53.6,30.9,79.4,48
					C701.7,525.3,715.5,526.7,722.8,538.3z"/>
				<path class="st77" d="M727.8,568c5.9-3,10.3-8.8,17.3-9.9c1.5,5.6-3,8.2-5.9,11.3c-22,23.3-45,45.8-67.3,68.8
					c-17.4,17.9-36.8,34.1-53.3,52.9c-19.2,21.9-44.5,37.7-60.9,62.3c-4,6-10.7,10.1-17.7,13c-1,0.6-2.1,1.2-3.1,1.8
					c1.1-11.7-11.2-15.5-14.4-24.6c-6-6.4-3.7-11.4,2.1-16.7c6.1-5.7,15.2-8.9,16.7-18.8c0.2-1.2,1.3-2.4,2.5-2.5
					c21.2-2.8,31.3-21.7,46.9-32.5c26.8-18.5,52.8-38.3,78.1-58.6c15.1-12.1,30.2-24.4,44.8-37.2C717.5,573,723,571.1,727.8,568z"/>
				<path class="st78" d="M777.4,258.7c-0.8-0.8-1.6-1.6-2.5-2.4c41.4,2.3,80.8,11.8,116.4,34c5.3,3.9,6.4,8.6,1.6,13.5
					c-6.2,6.4-9.2,15.3-17.4,20.4c-5.9,3.8-9.6,10.7-9.6,17.8c0,7.3,1.5,14.2-8.3,15.8c-0.4,0.1-0.7,0.4-1,0.6
					c2.2,3.2,10.6,7-1.4,8.4c-4.6,0.5-3.6,9-10,9.5c-2,0.1-1.9,2.9-1.7,5.2c1,10-4.8,17-8.7,25.4c-4.2,9.1-18.7,15.8-12.3,29.5
					c0.3,0.6-1.1,2.7-1.5,2.7c-14-2.2-10.6,14-18.9,17.8c-2.6,6.9-5,14-9.9,19.8c0,0.8,0,1.6,0,2.5c-5.9,6.4-7.2,15.4-12.4,22.3
					c-2.2,2.6-3.3,7.3-8.4,4.8c-5.1-5.7-3.2-11.4-0.4-17.3c7.8-8.1,10.8-18.3,15.3-28.3c9-19.8,13.3-41.4,23.1-60.3
					c8.4-16.2,11.6-34.8,23.6-49.3c3-3.6,3-9.6,3.3-14.2c0.9-12.8,8-22.1,14.8-31.8c0.9-1.4-0.2,0.4,0.8-1c13.1-18.2,12-22-8.9-28.5
					c-10-3.7-20.5-5.7-30.9-8.1C800.6,264.7,787.5,267.9,777.4,258.7z"/>
				<path class="st79" d="M470.2,652.5c-2.2-1.9-2.7-4.5-2.6-7.2c0.1-2.7,0.2-5.3,0.3-8c0.7-0.6,1.1-1.3,1.1-2.1
					c0-0.2-0.5-0.3-1.1-0.3c-4.4-10.3-8.2-20.7-7.4-32.2c-1.7-2.6-1.6-5.3,1.9-5.1c4,0.2,8.2,0.8,11.8,3.3c1.7,1.2,4.5,3.5,5.3,2.5
					c8.8-10.1,22.8-1.9,32.2-9.5c1.3-1,2.6-2.5,4.2-2.5c19.7-0.6,38.8-9.4,58.7-4.3c4.6,1.2,6.3,1.6,8.6-3.5
					c2.2-4.7,5.5-12.3,13.6-5.4c1.2,1,3.2-0.2,4.7-0.6c25.2-6.9,51.6-7,77.1-12.2c6-1.2,10.8-3.5,15.4-6.9c7.4-1.9,15-6.1,21.5,1.9
					c-6.8,12.6-20.2,11.9-31.3,13.7c-8.3,1.3-15.5,7.8-24.8,4.8c-4.8-1.6-4.9,5.3-7,7.6c-9.3,10.2-21.1,3.7-31.3,7
					c-18.5,5.9-36.4,13.6-55,18.6c-13.5,3.6-26,13.2-39.5,12.2c-11.6-0.9-19.9,5.5-29.9,6.9c-11.1,1.5-17.7,7.4-22.8,16.9
					c-0.8-2.3-1.4-4.1-2-5.8"/>
				<path class="st80" d="M973.2,354.7c-2.3,3.3-5.3,3.4-8.7,2c-9.1-3.9-13.9-1.1-13.9,9c0,4.5-3.4,6.4-5.8,9.5
					c-6.3,8.1-13.5,12.4-23.5,12.6c-0.3,0-0.9,0.4-1,0.6c-2.6,19.7-24,21-33.5,34.1c-1.9,2.5-0.8,3.6-0.2,5c2,4.7,1.9,5-4.1,5.9
					c-6.4,1-13.3,6.2-17.4,11.6c-5.3,7-12.4,12-18,18.3c-9.7,10.8-22.8,17.7-32.1,28c-5.4,6-12.1,11-17.2,17.6
					c-9,11.7-19.5,22.4-32.9,29.5c12.6-15.8,27.1-30,39.9-45.5c6.7-8.1,14.1-16,20.3-24.8c9.9-14,20.5-27.7,33-40
					c8.7-8.6,16.2-19.2,24.5-28c8.5-8.9,12.9-23.5,27.8-26.3c1.6-0.3,1.7-6.5,3.5-9.3c5.5-8.5,11.3-17,19.6-23.1
					c5.7-4.1,8.9-9.3,9.7-16.2C954.8,333.4,966.1,341.8,973.2,354.7z"/>
				<path class="st81" d="M485.1,679.4c7.2-3.5,14.3-6.9,21.5,0c1.3,1.2,2.8,2.2,4.3,1c2-1.6,1.4-3.9-0.3-5.2
					c-9.9-7.2-0.4-8.9,3.4-9.6c8.6-1.6,16.8-9.1,26.4-2.7c1.5,1,3.6-1,3.3-2.5c-2-11.7,6.1-10.2,12.7-9.5c4,0.4,5.5-0.2,5.1-4.1
					c-0.2-1.6-0.6-4.3,1.1-4c9.1,1.5,13.8-4.3,20.8-8.5c11.8-7,27.1-8.4,38.1-18.2c6.1-5.5,13.2-5.5,20.8-6.3
					c11.2-1.2,17.2-13.8,28.4-15.5c14-2.2,22.1-17.3,37.2-16.3c-2.5,12.8-15.7,14.1-23.1,21.6c-18.4,18.6-44.8,24.4-65.2,40.4
					c-20.2,15.9-42.5,29.2-64.6,42.5c-14,8.5-27.5,17.9-42.4,24.9c-4.4,2.1-8.6,4.6-10.3,9.7c-7.3-7.6-12-16.8-15.1-26.8
					C486.5,686.7,485.8,683.1,485.1,679.4z"/>
				<path class="st82" d="M735.9,276.1c-1.9,8.2,1.5,17.6-4.5,25.4c-0.5,0.7-0.3,3,0.2,3.4c14.5,8,3.7,22.2,7.8,32.9
					c2.8,7.3,0.9,8.1,9.3,6.5c1.2,4.7-2.7,5.6-5.4,6.7c-6.6,2.8-7.4,9-5,13.4c5.8,11,6.1,25,4.7,34c-4.1,25.7,5.3,49.6,4.4,74.9
					c-0.6,16.9,2.4,35,2.8,52.7c-9.4-3.7-6.5-13.2-8.3-19.8c-5.7-20.8-4.9-42.8-10.8-63.7c-4.5-15.9-3.1-32.5-6.7-48.6
					c-1.1-4.9-2.1-9.4-4.7-13.5c-8.2-13-8.2-13,2.9-23.4c-4.8-3.8-13.4-5.8-9.2-14.5c1.7-3.6,6.6-5.1,9.8-2
					c-14.3,0.8-11.6-10.2-12.3-19.8c-0.9-13-3.9-25.8-3.7-39.1c0.1-11.2-7-15.6-18.4-13.7c-5.3,0.9-10.6,1.9-15.7,3.4
					c-7.4,0.9-14,5.7-21.8,4.2c-1.3-0.4-2.3-1.2-3-2.2c29.9-13.3,61.6-17.2,94-17.4c4.1,0,8.2,0,13.4,0"/>
				<path class="st83" d="M502.3,717.1c0.7-3.5-2.5-6,4.2-9.9c28.5-16.3,56.5-33.6,84.1-51.4c20.5-13.3,39.6-29,62.6-39.2
					c20.2-9,38.8-22.5,54.7-38.6h0c2.5-1.7,5-2.2,7.4,0c-5.9,11.6-18.9,14.8-27.8,23.1c-9.3,8.8-17.7,18.5-28.9,25.4
					c-14.2,8.7-27.3,19.2-40.8,28.9c-1.7,1.2-3.4,2.3-4.8,3.9c-7.7,8.8-21,13.2-26.6,20.6c-7.2,9.4-18.6,11.9-24.3,21.4
					c-3.2,5.3-7.4,8.7-14.2,6.1c-1.2-0.5-4.3,0.7-4.3,0.8c2,13.2-11,14.5-17.3,20.7c-5,4.9-6.2,8.8-3.9,14.7
					C514,736,507.2,727.3,502.3,717.1z"/>
				<path class="st8" d="M606.5,1471.5c-3.2-4.2-9.4-0.4-12.6-4.7c2.8-2.8,5.9-1.7,6.1-1.6c-11.3-1.7-25.7-4.1-39.3-9.3
					c1.1,0.9,1.9,1.9,1.2,3.4c-10.7-2.5-21.4-5-32.1-7.5c-0.1-0.8-0.2-1.6-0.3-2.3c1.2-1.4,2.6-1.6,4.3-1.1
					c-9.1-0.6-16.7-7.7-26.4-6.2c-7.2-0.9-14.3-2.5-20-7.5c1.6-0.1,3.2-0.2,8.8-0.7c-9.6-4-15.9-6.8-22.3-9.3
					c-28.8-11.1-56.3-25.2-83.3-40.1c-4.4-2.4-10.1-4.2-11.8-10.1c33.6,17.5,66.9,35.6,102.3,49.5c78.2,30.6,159,48,243.1,50.8
					c153.9,5.3,295.2-34.2,424.4-117.5c23.8-15.4,46.1-33.1,69.1-49.8c-7.3,13.2-20.4,20.1-31.8,28.4
					c-78.8,57.8-165.5,99.2-260.6,122.3c-10.6,2.6-21.8,3.3-31.7,8.5c-3.7,2.9-8.7-0.6-12.4,2.5c-4.6,3.1-10.3-0.7-14.9,2.5
					c-26.4,2.3-52.8,5.6-79.2,6.7c-26.2,1.1-52.3,1.6-78.6-0.8c-22.3-2-44.7-3.2-70.2-6.7c5.3,3,7.7,4.4,10.2,5.7
					c-9.9-0.9-19.7-1.7-29.6-2.6c0,0,0,0.1,0,0.1C615.2,1471.1,610.2,1474.7,606.5,1471.5z"/>
				<path class="st70" d="M1042.2,483.8c6,10.7,5.7,23,6.4,34.4c2.8,46.3,2.3,92.5-15.3,136.6c-0.7,1.8-2.2,3.3-3.4,5
					c0,0-0.2-0.2-0.2-0.2c-2.9-7-1-13.7,1.4-20.4c2-13.4,9-25.6,8.6-39.5c1.7-6.9,1.9-14,3.7-20.8c0.6-4,0-8,0.2-12
					c-0.2-16,0.9-32-1.4-47.8c-0.6-3.6-0.7-7.3-1.5-11c-0.8-3.2,0.3-6.5-0.8-9.7c-1.6-4.1-2.9-8.2-0.2-12.4
					C1040.4,485,1041.2,484.3,1042.2,483.8z"/>
				<path class="st61" d="M667.5,1261.5c18.6,1,36.3,8.9,55.3,7.2c18.9,4.8,37.9,2.8,56.9,1.1c15.4-1.4,30.6-3.8,45.9-5.8
					c-11.6,5.9-24.4,7-36.9,8.3C747.7,1276.6,706.9,1276,667.5,1261.5z"/>
				<path class="st84" d="M1042.2,483.8c-0.1,0.9-0.1,1.8-0.2,2.6c-4.4,0.9-5.3-2.3-6.5-5.4c-3.4-8.6-4.3-17.8-5.8-26.8
					c0.1-0.9,0.1-1.9,0.2-2.8C1040.4,459.8,1039.7,472.4,1042.2,483.8z"/>
				<path class="st85" d="M648.1,273.2c1,0.1,2,0.2,3,0.3c-5.5,12-16.9,11-27.3,12.3c-1.6,0-3.3,0-4.9,0
					C627.6,279.2,637.6,275.8,648.1,273.2z"/>
				<path class="st59" d="M504.1,1142.7c11.4,0.4,9.9,10.5,13.1,17.1C511.5,1155.2,506.9,1149.6,504.1,1142.7z"/>
				<path class="st56" d="M531.3,1177.3c6.7,5.3,16.9,7,17.8,18C542.7,1189.9,535.4,1185.2,531.3,1177.3z"/>
				<path class="st2" d="M1438.4,986.5c-1.1,7.1-1.9,14.3-7.8,19.5C1432,999,1432.7,991.7,1438.4,986.5z"/>
				<path class="st74" d="M527,357.4c-0.4,6.7-5,9.9-10.3,12.5C518.6,364.4,522.4,360.5,527,357.4z"/>
				<path class="st72" d="M487.1,414.3c5.1,3.9,2.3,7.2-1.5,11.6c-0.3-3-0.5-4.9-0.7-6.8C484.8,417.1,484.9,415.3,487.1,414.3z"/>
				<path class="st10" d="M651,26c4.7-4.7,10.4-2,15.7-2.3C661.8,26.6,656.3,26.2,651,26z"/>
				<path class="st39" d="M28.1,873.8c-1-4.2-1.9-6.6,0.4-9C30.1,867.6,30,870,28.1,873.8z"/>
				<path class="st8" d="M28.8,630.8c-2.5-3.3-1.2-5.8-1.5-9.3C30.5,624.6,29.6,627.1,28.8,630.8z"/>
				<path class="st29" d="M17,706.1c0,29.2,0,58.5,0,87.7C13.4,764.6,13.4,735.3,17,706.1z"/>
				<path class="st86" d="M76.7,1045.8c5.3,6.5,9.1,13.7,10,22.2c-2.5-3.3-4.9-6.7-7.4-10c-0.9-2.4-1.8-4.8-2.7-7.2
					C76.6,1049.2,76.6,1047.5,76.7,1045.8z"/>
				<path class="st29" d="M17.2,800.7c5,7.2,1.6,15.3,2.3,22.9C15.8,816.3,17.5,808.4,17.2,800.7z"/>
				<path class="st29" d="M19.7,830.5c4.5,4.5,1.8,10.2,2.3,15.3C18.6,841.1,19.9,835.7,19.7,830.5z"/>
				<path class="st20" d="M277.3,1313c-0.1,1-0.2,2-0.4,3c-5.8-1.4-9.5-5.3-12-10.4C270.9,1305,274.3,1308.6,277.3,1313z"/>
				<path class="st39" d="M507.4,1442.1c-0.8-0.9-2.1-1.8-2.2-2.8c-0.6-4.2,2.4-1.8,3.5-1.5c9.6,3.1,19.1,6.5,28.9,9.8
					c-2.6,2.9-5.6,1.2-8.1,1.8C521.6,1448.5,514.2,1446.2,507.4,1442.1z"/>
				<path class="st8" d="M700.3,1481.6c33.1,0,66.3,0,99.4,0c-3,3-6.8,2.2-10.4,2.2c-26.2,0.1-52.4,0-78.5,0
					C707.2,1483.9,703.3,1484.7,700.3,1481.6z"/>
				<path class="st8" d="M673.1,1479.2c8.3,1,17.1-2.7,25,2.5C689.8,1480.8,681.1,1483.7,673.1,1479.2z"/>
				<path class="st8" d="M653.3,1476.7c4.3,0.5,9-1.7,12.6,2.4C661.6,1478.7,656.9,1480.4,653.3,1476.7z"/>
				<path class="st39" d="M866.4,1471.7c4.3-4.5,9.9-1.7,14.9-2.5C876.9,1473.7,871.3,1470.9,866.4,1471.7z"/>
				<path class="st39" d="M881.2,1469.2c3.5-4.1,8.2-1.9,12.4-2.5C890.2,1470.8,885.4,1468.6,881.2,1469.2z"/>
				<path class="st39" d="M561.9,1459.3c0.3-1.6-6.4-5.5,0.4-4.5c14.1,2.2,27.8,6.3,42.7,9.8c-4.2,3.4-7.8,1.5-11.1,2.2
					C582.8,1466,572.3,1462.9,561.9,1459.3z"/>
				<path class="st49" d="M606.5,1471.5c4.2,0.5,8.9-1.3,12.4,2.5c-4.1,0-8.3,0-12.4,0C606.5,1473.2,606.5,1472.4,606.5,1471.5z"/>
				<path class="st87" d="M738.3,756.3c4.1,4.5-0.1,13.1-7.7,11.8c-9.1-1.5-7.4,12.9-17,8.7c-1.3-0.6-11.5,8.9-11.6,10.1
					c-1.2,13-11.6,11.3-19.4,14.8c-5.7,2.6-10.7,9.3-13.2,14.5c-2.6,5.2-6.9,10.7-6.3,18.2c0.7,8.4-4.9,10.7-12.8,5.5
					c-3-1.9-2,0.8-2.2,1.1c-1.4,1.5-2.4,3.3-3.5,5.1c-7,11.9-7,11.9-18.3,4.2c-8.3-6.5-15.8-13.9-22.3-22.2
					c-2.6-18.9,10.5-27.2,22.9-37.5c8.2-6.8,15.9-14.9,23.5-22.6c6.7-6.8,11.6-14.9,22.2-15.6c1.1-0.1,1.2-0.2,1.6-1.1
					c11.2-24.3,15.4-28.6,40.1-41.6c4.7-2.5,6.7-7.1,7.7-12.1c0.8-3.6,0.6-7.9,3.6-10.3c10.7-8.9,19.9-19.3,29.9-28.8
					c11.2-10.5,25.3-17.7,33-32.1c3.2-6.1,11-8.3,15.9-13.4c2.1-2.2,4.5,0.5,6.2,2.2c4.6,4.1,8.4,9.1,13.8,12.4
					c11.1,8.8,20.7,19,30,29.6c-0.6,0.6-1.6,1.5-2,1.2c-7.6-5-15.8-5.8-25.1-2.5c-2,4,5.1,15.6-9.3,14.2c-3.4-0.3-0.9,2.1-1.3,3.2
					c-4.2,10.6-6.9,21.4-21.1,24.9c-10.5,2.6-17.3,13.1-26.3,19.4c-4.7,3.3-7.4,8.8-12.1,12.3c-1.3,1-2.6,2-2.6,3.9
					c0.4,10.7,0.4,11-9.7,10.5"/>
				<path class="st88" d="M676.4,748.5c2.5,3.3,2.2,6.8-0.4,11.6c-4.6-5-6.7-8.2-13.2,0.5c-4.5,6.1-10.4,15.8-20.7,18.4
					c-4.9,1.3-9.4,5.2-8.7,11.9c0.1,1.3-1.6,4-2,3.9c-13.3-3.6-12.6,13.5-22.5,15.2c-2,0.4-4.9,2.8-1.8,6.6
					c3.7,4.6-0.2,8.2-3.3,11.5c-10.7-9.1-20.8-18.9-29.8-29.7c5.6-12.3,15.8-20.9,25-30c30.7-30.3,61-61,91.5-91.6
					c27.5-27.6,56.3-53.9,81.5-83.7c5.2-6.2,11.4-8.9,17.1-1.5c1.8,2.3,3,4.7,5.6,6.1c10.7,9.1,20.9,18.7,29.6,29.8
					c-2.6-0.1-4.6-2.3-6.6-2.6c-5.5-0.9-5.3-17.5-15.2-5.4c-4.1,5-13.7,4.5-13.7,13.9c0,1.7-1.6,4-3.1,5.2
					c-15.6,12.3-29.2,28-44.5,39.1c-13.5,9.7-13.5,23.5-22.6,33.2c-2.1,2.3-2,6.9-6.5,2.6c-0.7-0.6-3.2-0.6-3.2-0.5
					c-2.8,11.5-17,10.4-21.7,19.6"/>
				<path class="st89" d="M869.1,671.9c9,7.5,17.3,15.6,24.7,24.7c-7.5,1.6-16.3,1.3-16.6,12.8c-0.1,3.6-3.8,3.6-6.8,3.8
					c-10.7,0.9-16.5,7.3-20.8,16.7c-4.2,9.2-13.3,13.9-20.9,19.8c-3.8,3-1.7,2.3,0.2,4.2c2.9,2.9,1.4,6.5-1.3,8.7
					c-7.1,5.9-13.8,12.1-19.5,19.3c-3.5,4.4-4.9,3.5-13.1-6.4c1.4,3.1,0,5.2-1.5,7.4c-3,4.3,3.4,3.6,3.4,6.4c0,3.5-2.3,5.5-5.2,5.9
					c-8.2,1.1-12.3,6.5-14.4,13.5c-2.8,9.5-11,6.5-17.1,7.7c-2.9,5.1,6.1,7.2,2.3,12.2c-3.3,4.3-7.6,1.4-11.2,2.3
					c-8.4,2.1-8.6,10.9-11.5,17.2c-1.8,4-2.7,8.2-8,7.4c-11.4-1.8-15.1,6.1-18.5,14.3c-1.9,4.7-3.3,8-10,8.5
					c-9.6,0.7-9,11.2-12.2,17.7c-2.1,4.4-2.2,9.7-8.1,11.2c-10.7-9.2-20.8-18.9-29.7-29.8c-0.5-2.4-1.4-5.4,1.2-6.7
					c14.1-6.9,20.7-20.8,30.7-31.5c9.4-10,21-18.2,29.9-29c1.3-1.5,3.6-2.4,3.7-4.6c0.7-15.6,13.6-19.1,24.5-23.5
					c9.4-3.8,16-8.8,16-19.2c0-6.3,4.5-8.5,8.4-8.8c12.1-1.1,17-10.7,22.9-18.5c5.8-7.8,12.9-13.4,20.3-19.3
					c8.7-7.1,16.3-15.7,23.2-24.3c3.8-4.8,6.2-9.9,12.4-12.1c2.6-1,6.2-3.1,6.5-5.3C855.8,656.1,863.2,668.8,869.1,671.9z"/>
				<path class="st90" d="M732.7,979c-13.7,5.5-27.1,12.5-42.4,12.4c-5.9,0-7.4,5.7-12,7.7c-16.4,7-34.6,7.2-51.1,13.7
					c-2.3,0.9-4.5,0.1-6.7,3.3c-6,8.7-23,10.4-32.2,4.2c-5.6-0.6,8.8,10.5-3.9,6.4c-3.8-1.2-9.5-0.6-8.2,6.7
					c0.6,3.1-0.8,2.1-3.3,1.9c-8.8-0.8-17.2,3.4-26.1,4.1c-9.3,0.8-21.8,4.1-30.7,11.5c-6.7,5.6-10.3,0.3-14.4-5.3
					c5,16.2-8.7,11.4-14.5,14.7c-4.6,2.6-12.4-2.9-15.5,6.3c-5.8-19.3-11.7-38.1-11.4-58.1c12-1.9,4.4-6.9,1.5-11
					c7.4-3.6,17.3,6.2,23.4-5c0.7-1.3,7.3,1.6,11,3.4c3.7,1.8,10.2,4.9,11.2-1c1.8-10.4,7.7-6.9,12.1-4.5
					c13.5,7.1,26.8,7.5,40.4,0.6c0.7-0.4,1.6-1.1,2.2-1c20.1,3.5,15.9-15.3,24.2-24.1c2.2,1.7,6.6,2.7,2.3,9
					c-2.4,3.5-2.6,8.4-3.7,12.7c-0.5,2.1-0.8,4.9,1.6,5.2c6.1,0.8,12.1-4.9,18.3-0.1c2.1-3,4.5-5.8,6.2-9.1c1-2,1.4-4.8,1-7.1
					c-0.4-2.2-3.1-4.4,0.2-6.2c3.1-1.7,4,2.2,6.1,2.8c5.5,1.6,2,3.2,0.4,5.4c-2.3,3.1,0.9,7.3,2.2,6.9c8.1-2.7,15.6,5.2,24.8-0.4
					c5.7-3.5,14.3-2.7,19.4-9.2c0.6-0.8,3.3-1.2,3.3-1.1c6.2,16.2,21.6-3.8,29.2,7.3c1.2,1.7,3.7,0.1,4-2.5c0.1-1.4-0.2-4.7,1.1-3.6
					C712.2,984.3,723,976,732.7,979z"/>
				<path class="st91" d="M707.8,770.7c2.2-1.6,3.7,0.4,5.2,1.6c1.8,1.5,5.8,3.9,5.8,1.8c0-10.4,5.7-9.7,13.1-8.9
					c1.6,0.2,7.7-1.9,6.3-5.9c-2.1-6.1-6-0.1-9.2,0c-1-8.3,4.2-13.4,9.1-18.6"/>
				<path class="st91" d="M748.1,735.6c-0.3-4,3.5-5.3,5.6-7.7c9.8-11.6,24.6-17.9,33.5-30.6c0.5-0.7,1-1.8,1.6-1.8
					c9.7-0.2,17.2-2.6,20.4-13.6c1.1-3.9,9.5-5.1,1.9-11.5c-3.6-3,0.4-6,4.3-5.4c2.6,0.4,4.9,2.2,7.5,3.5
					c2.5-11.2,2.5-11.2-1.8-17.2c3.4-5.7,17.3,10.9,15.3-7.2c6.9,2.8,9.3,12.6,18.2,13c5.9,4,10.4,9.4,14.8,14.8
					c-5,0.8-6.2-3.5-12.6-5.7c9.4,15.3-5.1,13.9-11.3,17.9c-3.1,2-8.7,0-5.4,7.2c0.6,1.2-3.6,5.1-6,7.2
					c-10.8,9.1-18.1,22.3-31.5,28.4c-7.7,3.5-8.4,12.1-14.1,17.4c-6.1,5.7-11.2,11.7-19.7,13.4c-3.9,0.8-4.3,2.3-5,6.9
					c-1.3,8.4-4.9,18.8-16.1,19c-10.3,0.2-13,13.2-23.4,12.1c-0.2,0-0.8,1.4-0.9,2.1c-1.8,19.8-19,28-30.6,40.3
					c-8.4,8.9-17.7,16.9-22.3,28.6c-1.9,4.9-6.6,5.6-9.9,4.9c-6.2-1.4-4.8,3.8-6.8,6c-10.1-8.1-19-17.3-27.3-27.2
					c7.2,3.1,13.4,5.6,15.6-6.3c1-5.7,8-8.4,12.6-12.2c3.8,4.6-2.7,5.7-2,9c0.7,0.4,1.4,1.1,1.9,1c4-0.8,6.8-2.8,6.7-7.4
					c-0.3-11.1-1.8-22.4,11.8-26.2c-0.9-15.1,13.8-8.6,20.6-12c2.1-1,7.2-2.7,5.1-5.5c-8-10.4-2.7-9.2,5.6-7.9"/>
				<path class="st92" d="M903.1,706.7c1.8,1.7,3.6,3.5,5.4,5.2c0.7,0.5,1,1,0.7,1.5c-0.3,0.5-0.5,0.7-0.8,0.7
					c-3.3,2.9-5.1,7.2-10.4,8.1c-3.2,0.5-7.7,1.9-5.5,7.5c0.4,1-0.1,2.4-0.1,3.5c-15-1.1-8.1,17.7-18.7,20.6
					c-1.1,0.3-1.8,2.1-2.8,2.2c-13.2,1.3-13,12.4-15.9,21.3c-0.4,1.1-1,2.6-2,3c-19.2,9.1-27.7,30.9-47.1,39.7
					c-1.2,0.6-2.3,2-2.9,3.3c-4.2,9.2-9.5,15.4-19.5,21c-8.3,4.6-16.6,15.6-22.5,25.3c-4.2,7-10,12.5-15.8,16.5
					c-6.5,4.5-13.1,8.9-16.9,15.5c-2.9,5-8.1,3-11.1,6.2c4.9,6.5,0.8,16.7-9.4,24.1c-7.6-5.6-14.2-12.2-19.9-19.8
					c0.1-2.9-0.1-5.9,2.3-8.2c8.7-5.8,15.9-13.3,24.8-18.9c1.2-0.8,3.1-2,1.3-3.7c-8.7-8.5-1.8-9.8,5-10.8c3.2-0.4,5.3-1.3,6.4-4.6
					c2-6.1,5.4-10.3,12.7-8.1c3.1,0.9,4-1,5.4-3.4c4.2-7,8.3-14.2,16.2-17.9c1.5-0.7,3.6-2,3.1-3.5c-3-9.2,6.8-10.8,8.9-15.8
					c5.3-12.2,14.9-13.8,25.3-15.7c1.8-0.4,2.4-2,2.8-3.7c0.6-2.8,1.8-5.4,3.4-7.7c4.6-14.6,20.7-17.4,29.4-28.1
					c4.4-5.4,10.8-9.8,15.2-15.7c1.5-2,2.7-4.4,4.8-5.6c16.4-9.1,25.7-25.9,40.1-37.2C898.7,702.5,900.7,705.1,903.1,706.7z"/>
				<path class="st93" d="M539.9,766.4c21.4-19.5,37.8-43.8,61.4-61.6c10.9-8.2,19.2-20.8,29.2-30.9
					c35.1-35.4,70.4-70.5,105.6-105.7c3.2-3.2,6-6.7,9-10.1c0.8-0.8,1.7-1.6,2.5-2.4c0.8-1,1.6-1,2.5-0.2c0.8,0.1,1.6,0.1,2.4,0
					c2.8-1.3,3.7,0.8,4.8,2.7c0.1,0.7,0.2,1.5,0.3,2.3c8.6,10.3,4.3,18.6-3.8,26.6c-7.2,7.2-12.9,15.5-23.6,19.2
					c-5.5,1.9-8.7,9.5-12,15.1c-3.2,5.5-7.3,10.1-12.8,13.2c-13.7,7.8-22.3,21.1-33.6,31.5c-14.7,13.5-27,29.4-42.7,41.9
					c2.6-1.8-10.9,12.9-12.3,14.1c-9.6,8.2-12,6.3-20,15.5c-0.5,0.9-3.6,0.7-4.2,1.4c-2.3,1.6-1.8,4.4-2.6,6.6
					c-9,12.4-21.7,21.3-31.3,33.2c-1.2,1.4-2.9,1-4.2-0.4C549.7,774.4,544.8,770.4,539.9,766.4z"/>
				<path class="st92" d="M896.1,704.2c-10.4,12.7-19.5,26.6-34.5,34.9c-3.4,1.9-6.6,4.7-8.4,8.7c-5.5,12.4-21.4,15.4-26,28.7
					c-11.6-2-13.7,9.3-20.2,14.4c-0.8,2.5-5.9,3.5-2.5,7.4c-1.6,2.2,8.2,12.9-5.2,6.7c-5.7-2.6-16.8,6.6-19.9,11.4
					c-4.5,6.8-9.1,13.1-13,20.5c-4.2,8-16.9,11.6-18.3,24.2c-0.3,2.9-5,1.8-7.5,0.3c-7.8-4.8-9.7,0.8-10,6.3c-0.3,5.1-2.3,5.5-6.5,6
					c-3.1,0.3-9.1-3.1-9.2,2.4c-0.2,6.9,6.9,0.3,10.3,4.3c-6.9,5.1-11.4,13.2-20.4,15.3c-3.2,0.7-4.2,2-4.1,4.7
					c0.4,9.8-6,4.4-10,4.5c-1.6,1.7-2.1,4.6-5,5.1c-0.8-0.8-1.7-1.6-2.5-2.4c5.8-7.2,5.7-16.8,9.9-24.7c3.1-5.9,3.7-7.1,11.8-6.2
					c4.1,0.5,4.7-2.3,5.5-5.1c3.3-11.6,6.4-23.3,23-17.8c1.9,0.6,4-1.4,3.6-2.3c-3.5-7.1,5.3-9.6,5.4-14.5
					c0.3-11.9,5.9-11.6,14.2-7.6c2.4,1.1,4-0.3,4.7-2.4c0.7-2-0.6-3-2.5-3.4c-3.2-0.7-7.9-1.4-4.9-5.8c2.2-3.2,5.7-7.7,11.2-5.4
					c3.6,1.5,7.1,3.6,8.7-2c3.1-10.9,8.5-19.1,22.1-18c-2.3-6.4-7.4-0.1-9.9-4.9c7-2.1,1.8-13,10.6-14.4c7.3-1.1,3.8,7,7.3,9.3
					c1.8-2.9,18.5-18.1,21.6-20.4c1.4-1.1,3-3.6,2.7-5c-0.8-3.5-2.8-1.1-4.4-0.1c-2.5,1.4-3.8,0.4-4-2.3c-0.2-2.8,0.9-5,3.9-5.3
					c10.6-1.2,12.6-14.8,23.2-15.8c-3-8.4,4.1-11.7,8.4-16.4c5.3-5.7,11.4-9.4,19.5-5.5c1.8-4.7-5.1-8.8,1.1-12.6
					c5.9-3.6,11.4-7.2,18.1-2c0,0-0.1,0-0.1,0C894.6,699.1,897.7,700.9,896.1,704.2z"/>
				<path class="st94" d="M628.7,706.7c10.4-7.9,16.2-20,26.5-28.4c11.9-9.6,22.2-21.4,32.6-32.6c12.7-13.6,28.3-24.1,39.6-39.7
					c5.4-7.5,16.9-12.3,23.9-20.6c5.7-6.7,13.4-12.6,4.4-22.1c-0.2-0.2,1.2-1.8,1.8-2.8c4.9,3.3,9,7.5,12.3,12.4
					c4.1,7.6,2,13.1-4,19.3c-32.2,33.5-65.5,65.8-98.1,98.8c-28,28.4-55.7,57.3-86.2,83.1c-5.8,4.9-6.5,14.2-14.8,16.7
					c-5-3.3-9.1-7.4-12.2-12.5c11.5-11.5,23-23.1,34.5-34.6c1.7-1.2,1.7-3.3,2.5-5C607.3,732,615,715.9,628.7,706.7z"/>
				<path class="st95" d="M566.8,790.9c12.2-23.2,34.3-37.3,51.9-55.4c30.3-31.3,61.6-61.7,92.1-92.8c16.6-17,33.6-33.8,50.7-50.5
					c5.1-5,12.2-8.7,6.4-16.5c0.7-1.3,0.8-1.5,1.5-2.7c1,0-0.3-0.4,0.7-0.3c7.5,8.2,19.2,18.6,26.7,26.8
					c-12.9-11.8-21.4-5.7-30.4,4.9c-16,18.6-34.4,35.1-51.8,52.6c-42,42-84.1,84-125.8,126.2c-4.9,4.9-9,10.7-14.5,15.2
					C570.9,796.6,568.4,794.2,566.8,790.9z"/>
				<path class="st89" d="M685.6,909.8c1-2.4,2.6-4.1,5-5.1c-0.1,2.7,0.4,5.7-2.5,7.5C687.3,911.4,686.4,910.6,685.6,909.8z"/>
				<path class="st90" d="M457.9,941.9c0.5-4.2-1.7-8.9,2.4-12.4C459.8,933.7,462,938.4,457.9,941.9z"/>
				<path class="st96" d="M767.4,969.1c11.7-1.8,24.5,1.3,34-9.6c1.9-2.1,7.9-1.4,11.8-0.8c6.4,0.9,12.2,0.8,17.3-3.8
					c3.4-3,7.6-2.2,11.7-2c3.5,0.2,8.3,3.6,10.2-0.5c2.5-5.6-5.8-4.2-7.2-8.1c2.1-3.9,6.2-3.2,8.5-2c10.6,5.6,20.5-2.6,31.1-2.2
					c6,0.2,15.3-5.4,23.4-4.1c9.1,1.5,14.8-2.8,22.4-6.1c8.6-3.7,11.5-8.3,15.4-15c6.2-10.8,17.1-6.2,26.5-7
					c-9.6,1.3-17.2,5.1-23,13.1c-1.8,2.5-3.7,3.9-2.3,7.2c1.1,2.6-2.3,7.7,3.2,7.5c3.7-0.2,2.2-4.6,2.6-7.2c0.3-1.6,0.5-3.1,1-5.8
					c7.5,5.1,13.9,3.7,20.2-1.1c1.9-1.5,4.4-2.8,6.7-2.9c14-0.6,14.9-2.3,7.5-16c1.6-2.2,2.6,0,4,0.4c4.5,1.4,7.7,8.5,12.5,5.4
					c2.3-1.5,0.4-7.7-0.7-12.1c-0.9-3.8,7.6,0.4,8.8-5.3c4.8,5.6-2.1,15-0.4,14c8.4-5.3,16.5,8.8,23.2-1.1
					c7.2,14.6,9.4,29.8,8.9,45.4c2,18.2,2,36.3,0,54.5c0,0,0,0,0,0c-9.8-2.9-20.3-3.6-28.8-10.2c-1.8-1.4-3.8-2.2-5.5-0.5
					c-1,0.9-1.8,3.8-1.5,4.1c13,9.1-0.6,11.8-3.1,17c-8.9-2.7,8.5-11.9-3.6-12.4c-11.5-0.5-6.8,8.6-4.3,15.7
					c-1.4-0.1-2.7-0.1-4.1-0.2c-1.6-4.1-4-8.1-4.7-12.3c-1.7-10.4-8.9-13.7-18.3-7.7c-4.8,3-9.6,6.1-14.3,9.2c-1.6,1-3,1.4-4.3-0.3
					c-1.1-1.5-1.3-3.8,0.5-4.1c8.2-1.4,0.4-7.2,2.9-10c-5.3-2-7.4,1.5-9.4,5.3c-0.6,1-1.5,1.9-3.3,4.1c-2.2-10.3-6.9-12.4-16.5-8.8
					c-6.1,2.3-13.7,2.1-21.2-1.8c-5.7-2.9-15.4,6.8-20.8-4.1c-6.3,5.3-13,0.2-19.4,0.6c-4.3,0.3-9.6,0.4-8,7.8
					c-4.2-1.6-5-4.4-4.7-7.2c0.6-5.5-0.7-6.6-6.2-4.8c-9.5,3.1-18.1,5.6-28.9-0.5c-11.6-6.4-26.1-8.4-39.8-3.9
					c-6.1,2-11.8-5.5-17.5,0.2c-0.8,0-1.7,0-2.5,0c-2-0.1-3.9-0.5-5-2.5C757.5,974.1,760.5,967.7,767.4,969.1z"/>
				<path class="st92" d="M908.5,714.1c0-0.7,0-1.5,0-2.2c7.2,4.3,12.5,10.5,17.6,17C917.3,727.4,913.5,720,908.5,714.1z"/>
				<path class="st64" d="M742.6,1021.1c-7.5-4.1-3.9-8.3,0-12.4C745.3,1012.8,741.8,1017,742.6,1021.1z"/>
				<path class="st97" d="M1044.6,1003.8c0-18.2,0-36.3,0-54.5C1048.6,967.4,1048.6,985.6,1044.6,1003.8z"/>
				<path class="st89" d="M896.1,704.2c-0.8-2.5-1.6-5-2.4-7.6c4.2,2.3,7.4,5.6,9.3,10.1C900.7,705.9,898.4,705,896.1,704.2z"/>
				<path class="st98" d="M1029.7,454.2c7.1,7.1,4.6,17.2,7.9,25.6c1.1,2.8,1.8,5.1,4.4,6.6c-3.4,4.2-0.3,8.2,0.2,12.3
					c-10.2,5.9-20.1,10.7-32.7,11.2c-21,0.8-41.9,3.1-62.6,9.2c-13.4,4-27.1,11.4-42.5,7.5c-3.4-0.9-7.5,0.6-10.6,2.6
					c-3.6,2.3-6.7,5.1-10.9,1.2c-0.9-0.9-2.4-1.8-3.2-1c-8.7,9-21.3,4.7-31.3,9.4c-10.1,4.8-20.6,8.2-32.1,7.7
					c-4.3-0.2-7.8,2.2-11.1,4.8c-14.3,2.6-28.6,3.8-42.7-0.7c0.8-0.8,1.7-1.7,2.5-2.5c19.6-8,42.1-8.4,59-23.6
					c2.7-2.4,7.7-2.4,11.6-3.1c15.1-2.6,28.1-10.3,41.2-17.5c3.5-1.9,6.3-0.4,9.4-0.5c4.4-0.1,10,3.2,11.5-4.6
					c0.2-0.9,2.2-2.3,2.8-2.1c12.1,4.7,20.3-4.7,30.4-7.6c6.4-1.8,10.9-2.3,9.9-10.2c-0.2-1.5-0.3-3.1,2.4-2.6
					c11.3,2.5,21.8-5.3,33.2-2.9c1.4,0.3,3.9-0.1,4.6-1C993.2,455.9,1012.4,457.6,1029.7,454.2z"/>
				<path class="st99" d="M623.8,285.8c8-6.5,19.9-4.4,27.3-12.3c7.4-1.7,14.8-3.3,22.3-5c4.8,9.2,9.5,18.4-2,26.5
					c-3.2,2.2-1.1,5-0.3,7.7c8,27.4,21.9,52.9,25.9,81.6c0.4,2.9,1.1,6,4,7.3c6.4,2.9,10.6,6.4,6.1,14.1c-1.5,2.6,0.8,3.3,3,3.8
					c2.7,0.7,5.1,4.2,3.6,5.3c-9.4,7.3,1.2,12.6,1.7,18.8c0.5,7.6,2.9,15.2,6.1,22.5c10.4,24,18.9,48.8,25.7,74
					c1.3,4.9,3.5,10.3,0.4,15.5c-0.8,0-1.6,0-2.5,0c-1.6-4.7-8.2-6.3-7.4-12.4c0.7-15.1-10.5-25-16.7-36.9
					C711.3,478,704,458.1,690,442c-3.6-4.1-2.5-9.9-4.6-14.9c-6.5-15.7-13.9-31.5-22.8-45.1c-5.8-9-6.8-21.5-17.1-28.1
					c-2.9-1.8-4.9-6.4-5.1-11.5c-0.3-12.8-7.3-22.4-17.7-29.6c-0.9-0.6-1.8-1.4-2.8-2C628.1,303.5,615.2,293.1,623.8,285.8z"/>
				<path class="st74" d="M737.7,533.4c1.7,4.6,7.7,6.6,7.4,12.4c-5.1-5.6-15.5-6.7-14.9-17.3C732.7,530.1,735.2,531.7,737.7,533.4z
					"/>
				<path class="st100" d="M772.3,506.1c2.5-1.6,5-3.3,7.4-4.9c1,10.4-5.8,17.3-11.7,24.1c-3.5,4-5.8,7.8-5.7,13
					c-2.5,4.1-5,8.2-7.4,12.4c-0.8,0.8-1.6,0.9-2.4,0.1c0.8-4.2,1.6-8.3,2.4-12.5c1.3-9.5,4.6-18.4,8.9-26.9
					C765.5,508.1,766.5,503,772.3,506.1z"/>
				<path class="st100" d="M792.1,476.4c1.7-7.4,2.8-15.1,9.9-19.8C809.5,468.6,801.2,472.7,792.1,476.4z"/>
				<path class="st100" d="M779.7,501.2c1-9.2,4.3-17.1,12.4-22.3C788.7,486.7,791,497.7,779.7,501.2z"/>
				<path class="st101" d="M752.6,550.8c0.8,0,1.6-0.1,2.4-0.1c2.5,0,5,0,7.4,0c13.9-2.4,28.3,1.8,42.1-2.5
					c19.2,0.8,39.5,0.4,57.3-3.3c31.4-6.6,63.3-0.1,94-8.3c4.8-1.3,9.8,0.1,14.7,0.4c21.7,1,43.3-1.9,65.1-1.9
					c8.4,0,10.6,3.3,10.4,11c-0.2,7.3-1.4,14.7,1,21.9c0,4.1,0,8.2,0,12.4c-12.1-5.7-24.2-5.1-36.2,0.3c-3.5,1.6-6.4,0.5-9.1-1.5
					c-9.3-6.9-19.7-9-31.1-10c-5.9-0.6-6.6,1.1-8,5.2c-2.8,8.3-7.6,10.2-14.5,4c-0.1-2.5-1.4-1.7-2.8-1c-4.9-0.6-10,0-14.7-1.2
					c-4.2-1.1-10.9,0.4-10.6-7.4c0-1.4-0.3-2.1-1.9-1.7c-14,3.8-28.7-10.2-42.5,1.6c-1.6,1.4-4,0.4-5.8-0.6
					c-20.7-11.1-42.3-6.4-63.8-4c-11.8-3.5-24.5-1.2-36.1-5.9c-4.1,1.7-8.4-4.6-12.5,0.1c-1.6-0.9-3.2-1.8-4.8-2.7
					C752.6,554,752.6,552.4,752.6,550.8z"/>
				<path class="st84" d="M769.8,558.1c12.5,1,25.6-2.9,37.1,4.9c10.1-3.2,20.4,0,30,1.4c16.8,2.4,33.4,5.9,50.4,5.4
					c4.5-0.1,7.7,2.6,11.6,3.7c9.6,2.8,11.3,2.9,24.1,1.8c4.2-0.4,7.9,2.1,11.2,4.6c6.8,5,14.1,5.5,22.1,3.9
					c8-1.6,15.7,0.7,23.4,2.8c8.1,2.1,15.5,6.9,24.2,6.1c1.6-0.2,3.2-0.7,4.9-0.5c5.1,0.7,9.2,7.8,15.9,1c1.4-1.4,11,5.2,17.3,6.9
					c3.1,14.3-8,25.8-7.4,39.6c-1.7,1.4-3.9,2.4-5.7,1.6c-20.5-9.3-43.5-10.3-64-18.3c-12.8-5-25.1-11.1-38.8-13.5
					c-21.4-3.6-40.8-13.7-61.8-18.7c-17.1-4-33.6-10-50.5-14.7c-1.8-0.5-3.1,0.5-4.3,1.7c-10.4-5.6-20.5-12.3-32.7-13.7
					C773.1,563.8,771.4,561,769.8,558.1z"/>
				<path class="st102" d="M809.4,577.9c8.4-7,16.6-1.1,24.5,0.9c22.1,5.5,43.1,15.4,66.1,17.2c0.8,0.1,1.9-0.1,2.4,0.3
					c14.7,16.1,38,7.2,54.3,19c12.5,8.9,28.3,10.5,42.6,13.3c12.5,2.4,23.2,8.9,35.4,11.2c-2.7,6.3-5.4,12.6-5,19.7
					c-2.6-3.9-4.5-9.3-10.1-2.5c-1.7,2.1-4.6,2.8-7.5,0c-5-5-10-8.9-18.3-4.6c-5.4,2.8-0.4-8-5-6.5c-11.5,3.5-17.1-9.9-28.7-8.9
					c-4.5,0.4-12-8.4-19.4-9.1c-11.1-1.1-18.6-8.8-28.1-12.6c-6.9-2.8-14.7-5.4-21.7-6.5c-8.4-1.4-15.3-4.4-22.2-8.4
					C850.2,589.5,828.8,586.5,809.4,577.9z"/>
				<path class="st85" d="M747.6,545.8c0.1-15.5-8-28.8-11.6-43.3c-3.2-12.8-9.1-24.9-13.8-37.4c-4.5-12-9.6-23.4-10.7-36.5
					c-0.3-3.8-5.4-5.1-11.1-5.8c3.6-2.2,5.7-3.4,7.7-4.6c1.7-1,4.3-1.7,4-4.1c-0.5-3.8-3.6-1.3-5.1-2c-2.6-1.1-8.4-3.7-4.1-7.7
					c7.1-6.5,4.4-7.8-3-9.1c-4.4-0.8-5.6-4-6-9c-0.8-11-5.3-21.4-8.3-31.9c-3.2-11.2-10.9-20.9-11.2-33.2
					c-0.2-5.5-2.1-11.1-5.2-16.2c-2.9-4.8-10.4-12.6,4-12.7c2.2,0,0.9-2.7,1.3-4.2c1.9-6.7-1.3-13.1-1.2-19.7
					c7.2-1.6,14.2-3.9,21.5-4.8c7.8-0.9,18.3,9.4,16.3,18.6c-3.4,15.8,4.6,30.4,2.6,45.9c-0.3,2.7-1.3,8.9,6.8,9.3
					c6.6,0.3,5.6,6.5,2.3,11.2c-4.4-1.5,2.7-7.3-3.3-7.4c-1.7,0-4.2,1.4-5.1,2.9c-2,3.4,1.3,5.3,3.4,6.8c3,2.1,6.5,3.4,9.9,5.1
					c-0.2,0.4-0.2,1.5-0.6,1.7c-14.3,5.9-10.8,15.1-3.7,23.8c6.9,8.4,4.2,18.2,5.7,27.4c2.3,14.5,2.1,29.4,8.1,43.3
					c1.5,3.5,3.1,7.2,1.9,11.9c-2.3,8.3,0,16.2,3.1,24.2c4.8,12.1,1.9,25.9,7.7,37.8c0,8.3,0,16.5,0,24.8c-0.8,0.8-1.6,0.8-2.4-0.1
					C747.6,549.1,747.6,547.4,747.6,545.8z"/>
				<path class="st72" d="M747.6,550.7c0.8,0,1.6,0,2.4,0.1c0,1.6,0.1,3.2,0.1,4.8c-0.8,0.1-1.7,0.1-2.5,0.2c-0.8,0-1.7-0.1-2.5-0.1
					c-4-2.6-9.2-0.1-13.1-3.1c-2.2-1.8-5.4-2.9-4.2-6.8l0,0c7-4.4,10,2.9,14.9,4.9C744.3,550.7,745.9,550.7,747.6,550.7z"/>
				<path class="st76" d="M742.6,550.7c-5.5,0-8.9-6.5-14.9-4.9c-1.7-2.5-3.3-4.9-5-7.4C730.6,540.5,738.2,543,742.6,550.7z"/>
				<path class="st103" d="M732.7,550.7c3.6,3.1,9.2,1,12.4,4.9c-5.1,0-10.3-0.5-14.9,2.5c-4.6,3.1-10.2-0.3-14.9,2.5c0,0,0,0,0,0
					c-7.4-4-14.9,0.4-22.3,0c-3.8,3-8.4,2.9-12.9,3.3c-18.9,1.6-37.8,2.9-56.2,8.2c-8.1,2.4-16.4-0.6-24.6,0.9
					c-14.5,2.6-28.8,7.6-43.6,5.4c-15.6-2.3-29.5,3.1-43.9,6.7c-0.8,0.2-1.9,0.8-2.4,0.4c-11.9-8.5-24.2-3.4-36.7-2
					c-9.8,1.1-15.6-5.8-16.1-15.8c-0.4-9,1.5-18-1.2-26.9c0-0.8,0-1.7,0-2.5c0.9-0.8,1.8-1.5,2.9-2c13.4-2.5,27.7-0.5,40,1.8
					c12.1,2.3,23.5,0.6,35.2,1.9c12.1,1.3,25.3-2,36.5-0.1c11.5,1.9,23.3,1.1,34.4,4.2c8.9,2.5,17.7,3.5,26.8,0.8
					c2.4-0.7,4.9-0.6,7.4-0.4C670,547.7,701.5,547.4,732.7,550.7z"/>
				<path class="st104" d="M732.7,550.7c-14.5,6-29.1-1.2-43.7,0.3c-21.4,2.1-42.5-5.9-64.4-1.6c-9.6,1.9-20.4-2-30.7-3.7
					c-6.8-1.1-15.6,6.7-21-4.3c-0.3-0.5-10.5,1.5-16.2,1.8c-13,0.8-25.8,0.1-38.6-0.4c-20.1-0.7-40.2-2.9-60.3-4.5
					c-2.9-3.7,0.4-8.4-2.2-12.1c2.4-12.5,4.8-24.9,7.2-37.4c5.3,1.5,15.5-4,12.9,9c-1,4.8,3.7,5.3,6.3,5.9
					c5.2,1.2,11.9-4.6,15.4,4.2c0.4,1.1,3.3-1.4,4.4-3.1c4.7-7.2,9.1-7.6,13.6,0.3c3.3,5.7,8.9,8.5,15.3,9
					c25.4,2,50.4,5.9,75.5,10.3c15.9,2.8,32,4.6,47.5,9.1c7.2,2.1,14.5,2,21.8,2.3c15.4,3.6,30.7,7.2,46.2,10.6
					c1.8,0.4,3.9-0.4,5.8-0.7C729.4,547.4,731.1,549.1,732.7,550.7z"/>
				<path class="st105" d="M455.5,540.9c4.9,8,1.7,16.8,2.3,25.2c0.7,10.5,8.3,16.7,18.6,14.4c11-2.4,22.4-9.8,32,2.9
					c0.2,0.3,1.9,0.1,2.2-0.3c6.2-9.2,17.7-1,25-7.9c7.3-6.9,15.3,4.2,23.9,1c1.8-0.7,5.5-0.2,7.8-2.3c3-2.8,5.3-3.3,7.8,0.6
					c2.6,4,3.2,2.6,6.2-1c5.1-6.2,15.7-5,21.3-4.2c20.6,2.9,39-6.6,58.8-7c10.5-0.2,21.1-1.6,31.7-1.6
					c-7.2,12.2-20.5,10.3-30.9,10.8c-8.9,0.4-16.7,4.8-25,4.4c-11.2-0.6-21.5,1.8-32.2,4.1c-4,0.8-10.4,8-14.1-1.8
					c-0.5-1.4-1.4,1.8-1.9,3c-2.8,8.1-9.4,12.6-16.7,9.8c-19-7.3-36.5,5.2-55.1,2.7c-5.2-0.7-6.9,9.9-13.8,8.3
					c-7.4-1.8-14.3-5.7-18.7,5c-0.7,1.8-7.9,2.4-11.8-2.2c-2.9-3.4-7.7-5-12.5-1.9C453.4,582.5,455.9,561.6,455.5,540.9z"/>
				<path class="st106" d="M675.8,535.9c-10.3,9-20.3,0.1-30.1-1.2c-12.1-1.6-23.3-7.4-36.3-5.6c-6.4,0.9-13.4-3-20.1-5
					c-19-5.5-38.7-4.1-58-7c-8.8-1.3-15.7-2.5-18.8-13.2c-1.5-5.3-6.3-2.5-7.6,3c-1.3,5.2-5.5,7.2-10.5,5.9
					c-5.5-1.4-0.9-5.2-1.1-9.5c-8.3,9.1-15.7,0.6-25,0.4c10.2-9.9,5.1-13.6-5.3-14.8c1.2-3.4,2.3-6.8,3.5-10.2
					c2.8-1.9-2.5,6.5,5.6,3.3c10.1-4,24.1-1.3,34,6.6c4.9,3.9,9.8,1.3,14.6,2.6c34.7,9.1,68.8,20.5,103.6,29.3
					c14.8,3.8,29.8,8.2,45.1,10.5C672.4,531.4,674.4,533.1,675.8,535.9z"/>
				<path class="st105" d="M455.7,526.2c3.9,3.5,1.6,8.1,2.2,12.1c-0.8,0-1.6,0-2.4,0C455.6,534.3,455.6,530.2,455.7,526.2z"/>
				<path class="st81" d="M715.4,577.9c-2.5,0-5,0-7.4,0c4.2-8.1,10.9-11.1,19.8-9.9C725.3,573.5,720.3,575.6,715.4,577.9z"/>
				<path class="st79" d="M715.4,560.6c4.3-4.5,9.9-1.7,14.9-2.5C725.9,562.7,720.6,561.7,715.4,560.6z"/>
				<path class="st107" d="M772.3,506.1c-9.2,8.9-11.3,21.6-17.3,32.2c-1.6-13.4,2.9-26.3,2.5-39.6c3-7,7.2-13.3,2.9-21.8
					c-2.1-4.1,2.3-9.2,3.8-13.5c5.8-17,1.7-35.2,7.8-52.1c2.1-5.8,8.6-12.1-0.4-18.4c-2.3-1.6-0.4-5.6,2.7-6.9
					c7.1-3,6.7-9.3,7.8-15.4c2.9-15.2,3.6-31,10.8-45.2c2-3.9,1.8-8,1.2-12.1c-2-13.4,2.5-26,4.7-38.9c1.5-8.7,8.7-9.6,15.5-10.9
					c9.5,4.6,20.9,3.4,29.8,9.8c-11,8.5-15.9,21.9-17.3,33.6c-1.7,14.6-6.5,27.5-11.4,40.7c-4,10.8-4.3,23-8.3,32.7
					c-7.8,18.8-11.3,38.6-17.8,57.4c-5.9,16.9-9.7,34.6-17.1,51C772.1,494.6,769.3,500.4,772.3,506.1z"/>
				<path class="st108" d="M776.6,407.9c-6.2,9-6.8,21.6-5.5,32.5c1.4,11.5-6.5,20.5-5.8,31.7c0.1,2.4-2.2,3.9,0.1,8.2
					c3.6,7-2.1,13.5-7.9,18.5c0.5-17.2,1.4-34.4,1.1-51.7c-0.1-6.1,7.4-10.8,5.6-13.4c-9.3-13.7,0.5-24.9,3.2-36.9
					c1.9-8.5-5.6-15.4-3.3-24.5c0.7-2.9,0.3-6.8,2.7-9.2c3.7-3.6,3.1-7,1.5-11.2c-1.2-3.3-7-8.7,2.8-8.8c0.1,0,0.9-3.5,0.2-4.3
					c-7.1-7.5-3.7-11.1,3.1-14.2c-6.8-7.6-5-24.9-1-33.4c3.3-7,5.8-15.5,3.3-23.6c-1.1-3.5-1.2-6.2,0.5-9.2
					c12.3,2.4,24.5,4.9,37.1,5c-7.9,3.1-11.6,7.9-13.4,17.2c-2.4,12.3-5.2,24.3-3.5,36.7c0.4,3.2-0.4,5.7-1.4,8.1
					c-7.4,17.1-10.2,35.2-11.3,53.6"/>
				<path class="st109" d="M772.3,488.8c-4-6.6,1-11.3,3.2-16.8c4.3-11.2,7.6-23.1,10.9-34.2c3.9-13.5,8.2-27.7,10.7-42
					c0.9-5.1,4.3-10.5,8.1-14.1c4.4-4.2-1.1-6.1-0.7-9.5c1.3-11.2,7.6-20.5,10-31.1c2.5-10.9,12.2-20.3,6.5-33c-0.6-1.4,4-4.7,3.9-7
					c-0.2-8.2,11.8-12.3,6.6-22.6c-1-2,7.4-5.1,12.5-5c7.6,0.3,17.6,2.1,19.2,8.3c1.9,7.4-2.3,16.6-8.1,23.1
					c-11.1,12.5-17.1,26.9-17.1,43.8c0,1.5-0.3,3.6-1.3,4.4c-5.8,4.6-9.9,9.3-10.3,17.7c-0.6,11.9-11,19.9-14.8,30.8
					c-3.4,9.5-7.6,18.8-8.1,29.2c-0.4,8-6.3,14.2-10,20.4c-4,6.6-4.9,13-6.6,19.7C785,479,780.3,485.3,772.3,488.8z"/>
				<path class="st110" d="M1047,568c-4.2-4.1-2.8-9.5-2.2-14c1.7-11.4-2.2-17.3-14-16.6c-9.6,0.6-19.3,1.4-28.7,3.1
					c-3.2,0.6-5.7,3.9-7.3-1.6c-0.2-0.8-2.1-2-2.4-1.9c-15.3,10.5-32.3,0.9-48.7,3.7c-20.6,3.6-42.4,6.9-63.6,2.1
					c-8.2-1.8-9.3,9.1-18.4,6.9c-15.1-3.7-30.8-2-46,2.4c-4.3,1.3-7.5-2.7-11.3-4c2.1-2.9,5.4-5.1,8.3-4.6
					c20.5,3.4,36.8-13.9,57.1-11.3c2.5,0.3,4.8-2.3,6.5-5c2.4-3.7,6.1-8.8,8.1,0.6c0.6,2.7,2.4,3.2,4.5,1.9
					c13.1-8.2,17.4-9.6,32.2-5.8c6.2,1.6,4.1-4.6,7.8-5.5c8.8-2.2,20.1,2.2,25.9-8.8c13.8,9.8,27.8-12.1,41.5,0.3
					c7.5-10.1,22,3.4,29.8-8.5c0.6-0.9,10.1-3.7,15.9-2.9c2.8,2.5-0.9,5,0,7.4c3.3,2.4-8.2-1.3-1.1,2.8c2.6,1.5,1.7,5.1,3.6,7.1
					C1049.9,533.1,1045.8,550.7,1047,568z"/>
				<path class="st111" d="M1042.2,600.2c-7.9,4.3-12.9-0.8-17.8-5.7c-3.8,2.2-0.5,6.5-4.6,10.1c-4.3-18.3-24.7-0.2-31.4-14.9
					c-4,1.1,0.6,5.7-3.5,7.3c-0.9-1-2.1-2-2.9-3.3c-3-4.9-6.6-5.4-12.6-5.8c-10.5-0.8-21.3,2.9-30.7-0.2c-5.2-1.7-10-8.1-16.5-10.3
					c-1.4,4.1,6.4,6.6,1.5,11c-11.2-9.7-24.5-12.4-39.1-14.2c-13.6-1.7-27.6-1.1-41.1-4.9c-11.8-3.3-24.2-4.2-36.3-6.2
					c2-6.4,8.1-3.7,11.6-3.9c17.5-1.3,35.5-3.8,51.9,5.6c2.2,1.2,2.9,2.5,5.8,0.2c8-6.1,17.1-7.5,26.3-1.8c5.1,3.2,6.9,3.1,21.9-0.8
					c-3.3,9.3-3.2,11,7.1,10.5c6.1-0.3,11,2.6,16.5,2.5c10.1,6.3,12.7,3.9,14.4-14.5c5.2,2.6,9.3,11,16.2,3.4
					c0.5-0.6,3.6-0.1,4.2,0.8c2.9,4.1,5,8.3,11,3.3c1.5-1.2,3.7,1.4,5.2,3.8c3.7,6,9.1,9.3,14.7,2.3c5.5-6.9,11.1,4.9,17.9-1.7
					c6.1-6,10.9,3.1,15.3,7.4C1043.1,586.4,1046.3,594.2,1042.2,600.2z"/>
				<path class="st98" d="M1044.6,516c-1.8-2.1-3.5-4.2-5.3-6.2c-5.8-6.6,2.2-2.2,2.9-3.7C1045.8,508.7,1044.3,512.6,1044.6,516z"/>
				<path class="st111" d="M948.6,570.2c1.4,0.9,2.9,1.3,3.2,2.1c0.6,1.9-0.9,2.6-2.5,3c-2.1,0.6-1.7-1.3-1.9-2.1
					C947.3,572.4,948.1,571.5,948.6,570.2z"/>
			</g>
		</g>
	</g>
</g>
</svg>
