<?xml version="1.0" encoding="utf-8"?>
<!-- Generator: Adobe Illustrator 22.0.1, SVG Export Plug-In . SVG Version: 6.00 Build 0)  -->
<svg version="1.1" id="katman_1" xmlns="http://www.w3.org/2000/svg" xmlns:xlink="http://www.w3.org/1999/xlink" x="0px" y="0px"
	 viewBox="0 0 450 450" style="enable-background:new 0 0 450 450;" xml:space="preserve">
<style type="text/css">
	.st0{fill:url(#SVGID_1_);}
	.st1{fill:url(#SVGID_2_);}
	.st2{fill:url(#SVGID_3_);}
	.st3{fill:url(#SVGID_4_);}
	.st4{fill:url(#SVGID_5_);}
	.st5{fill:url(#SVGID_6_);}
	.st6{fill:url(#SVGID_7_);}
	.st7{fill:url(#SVGID_8_);}
	.st8{fill:url(#SVGID_9_);}
	.st9{fill:url(#SVGID_10_);}
	.st10{fill:url(#SVGID_11_);}
	.st11{fill:url(#SVGID_12_);}
	.st12{fill:url(#SVGID_13_);}
	.st13{fill:url(#SVGID_14_);}
	.st14{fill:url(#SVGID_15_);}
	.st15{fill:url(#SVGID_16_);}
	.st16{fill:none;}
	.st17{fill:url(#SVGID_17_);}
	.st18{fill:url(#SVGID_18_);}
	.st19{fill:url(#SVGID_19_);}
	.st20{fill:url(#SVGID_20_);}
	.st21{fill:url(#SVGID_21_);}
	.st22{fill:url(#SVGID_22_);}
	.st23{fill:url(#SVGID_23_);}
	.st24{fill:url(#SVGID_24_);}
	.st25{fill:url(#SVGID_25_);}
	.st26{fill:url(#SVGID_26_);}
	.st27{fill:url(#SVGID_27_);}
	.st28{fill:url(#SVGID_28_);}
	.st29{fill:url(#SVGID_29_);}
	.st30{fill:url(#SVGID_30_);}
	.st31{fill:url(#SVGID_31_);}
	.st32{fill:url(#SVGID_32_);}
	.st33{fill:url(#SVGID_33_);}
	.st34{fill:url(#SVGID_34_);}
	.st35{fill:url(#SVGID_35_);}
	.st36{fill:url(#SVGID_36_);}
	.st37{fill:url(#SVGID_37_);}
	.st38{fill:url(#SVGID_38_);}
	.st39{fill:url(#SVGID_39_);}
	.st40{fill:url(#SVGID_40_);}
	.st41{fill:url(#SVGID_41_);}
	.st42{fill:url(#SVGID_42_);}
	.st43{fill:url(#SVGID_43_);}
	.st44{fill:url(#SVGID_44_);}
	.st45{fill:url(#SVGID_45_);}
</style>
<g id="synapseNodes">
	
		<radialGradient id="SVGID_1_" cx="358.8384" cy="878.9235" r="198.5462" gradientTransform="matrix(0.9717 0 0 0.9754 -123.6659 -632.217)" gradientUnits="userSpaceOnUse">
		<stop  offset="0" style="stop-color:#299FDA"/>
		<stop  offset="0" style="stop-color:#A6529A"/>
		<stop  offset="1" style="stop-color:#59509D"/>
	</radialGradient>
	<path class="st0" d="M224.5,2.5c-11,0-19.9,8.9-19.9,19.9s8.9,19.9,19.9,19.9c11,0,19.9-8.8,19.9-19.8S235.5,2.5,224.5,2.5z"/>
	
		<radialGradient id="SVGID_2_" cx="358.8384" cy="878.9235" r="198.5462" gradientTransform="matrix(0.9717 0 0 0.9754 -123.6659 -632.217)" gradientUnits="userSpaceOnUse">
		<stop  offset="0" style="stop-color:#299FDA"/>
		<stop  offset="0" style="stop-color:#A6529A"/>
		<stop  offset="1" style="stop-color:#59509D"/>
	</radialGradient>
	<path class="st1" d="M224.5,13.5c4.9,0,8.9,4,8.9,9s-4,9-8.9,9s-8.9-4-8.9-9S219.6,13.5,224.5,13.5z"/>
	
		<radialGradient id="SVGID_3_" cx="358.8384" cy="878.9235" r="198.5462" gradientTransform="matrix(0.9717 0 0 0.9754 -123.6659 -632.217)" gradientUnits="userSpaceOnUse">
		<stop  offset="0" style="stop-color:#299FDA"/>
		<stop  offset="0" style="stop-color:#A6529A"/>
		<stop  offset="1" style="stop-color:#59509D"/>
	</radialGradient>
	<path class="st2" d="M139.2,55.3c-11,0-19.9,8.9-19.9,19.9S128.2,95,139.2,95c11,0,19.9-8.9,19.9-19.9S150.1,55.3,139.2,55.3z"/>
	
		<radialGradient id="SVGID_4_" cx="358.8384" cy="878.9235" r="198.5462" gradientTransform="matrix(0.9717 0 0 0.9754 -123.6659 -632.217)" gradientUnits="userSpaceOnUse">
		<stop  offset="0" style="stop-color:#299FDA"/>
		<stop  offset="0" style="stop-color:#A6529A"/>
		<stop  offset="1" style="stop-color:#59509D"/>
	</radialGradient>
	<path class="st3" d="M311.8,56.3c-11,0-19.9,8.9-19.9,19.9S300.8,96,311.8,96c11,0,19.9-8.9,19.9-19.9S322.8,56.3,311.8,56.3z"/>
	
		<radialGradient id="SVGID_5_" cx="358.8384" cy="878.9235" r="198.5462" gradientTransform="matrix(0.9717 0 0 0.9754 -123.6659 -632.217)" gradientUnits="userSpaceOnUse">
		<stop  offset="0" style="stop-color:#299FDA"/>
		<stop  offset="0" style="stop-color:#A6529A"/>
		<stop  offset="1" style="stop-color:#59509D"/>
	</radialGradient>
	<path class="st4" d="M139.2,66.3c4.9,0,8.9,4,8.9,9s-4,9-8.9,9s-8.9-4-8.9-9S134.3,66.3,139.2,66.3z"/>
	
		<radialGradient id="SVGID_6_" cx="358.8384" cy="878.9235" r="198.5462" gradientTransform="matrix(0.9717 0 0 0.9754 -123.6659 -632.217)" gradientUnits="userSpaceOnUse">
		<stop  offset="0" style="stop-color:#299FDA"/>
		<stop  offset="0" style="stop-color:#A6529A"/>
		<stop  offset="1" style="stop-color:#59509D"/>
	</radialGradient>
	<path class="st5" d="M311.8,67.2c4.9,0,8.9,4,8.9,9c0,5-4,9-8.9,9c-4.9,0-8.9-4-8.9-9C302.9,71.3,306.9,67.2,311.8,67.2z"/>
	
		<radialGradient id="SVGID_7_" cx="358.8384" cy="878.9235" r="198.5462" gradientTransform="matrix(0.9717 0 0 0.9754 -123.6659 -632.217)" gradientUnits="userSpaceOnUse">
		<stop  offset="0" style="stop-color:#299FDA"/>
		<stop  offset="0" style="stop-color:#A6529A"/>
		<stop  offset="1" style="stop-color:#59509D"/>
	</radialGradient>
	<path class="st6" d="M224.5,101.1c-12.6,0-22.8,10.2-22.8,22.9S212,147,224.5,147c12.6,0,22.8-10.2,22.8-22.9
		S237.2,101.1,224.5,101.1z"/>
	
		<radialGradient id="SVGID_8_" cx="358.8384" cy="878.9235" r="198.5462" gradientTransform="matrix(0.9717 0 0 0.9754 -123.6659 -632.217)" gradientUnits="userSpaceOnUse">
		<stop  offset="0" style="stop-color:#299FDA"/>
		<stop  offset="0" style="stop-color:#A6529A"/>
		<stop  offset="1" style="stop-color:#59509D"/>
	</radialGradient>
	<path class="st7" d="M51.9,104.1c-11,0-19.9,8.9-19.9,19.9s8.9,19.9,19.9,19.9s19.9-8.9,19.9-19.9
		C71.7,113.1,62.8,104.1,51.9,104.1z"/>
	
		<radialGradient id="SVGID_9_" cx="358.8384" cy="878.9235" r="198.5462" gradientTransform="matrix(0.9717 0 0 0.9754 -123.6659 -632.217)" gradientUnits="userSpaceOnUse">
		<stop  offset="0" style="stop-color:#299FDA"/>
		<stop  offset="0" style="stop-color:#A6529A"/>
		<stop  offset="1" style="stop-color:#59509D"/>
	</radialGradient>
	<path class="st8" d="M398.1,104.1c-11,0-19.9,8.9-19.9,19.9s8.9,19.9,19.9,19.9c11,0,19.9-8.9,19.9-19.9
		C418,113.1,409.1,104.1,398.1,104.1z"/>
	
		<radialGradient id="SVGID_10_" cx="358.8384" cy="878.9235" r="198.5462" gradientTransform="matrix(0.9717 0 0 0.9754 -123.6659 -632.217)" gradientUnits="userSpaceOnUse">
		<stop  offset="0" style="stop-color:#299FDA"/>
		<stop  offset="0" style="stop-color:#A6529A"/>
		<stop  offset="1" style="stop-color:#59509D"/>
	</radialGradient>
	<path class="st9" d="M224.5,112.1c6.6,0,11.9,5.4,11.9,11.9c0,6.6-5.4,11.9-11.9,11.9s-11.9-5.4-11.9-11.9
		C212.7,117.5,217.9,112.1,224.5,112.1z"/>
	
		<radialGradient id="SVGID_11_" cx="358.8384" cy="878.9235" r="198.5462" gradientTransform="matrix(0.9717 0 0 0.9754 -123.6659 -632.217)" gradientUnits="userSpaceOnUse">
		<stop  offset="0" style="stop-color:#299FDA"/>
		<stop  offset="0" style="stop-color:#A6529A"/>
		<stop  offset="1" style="stop-color:#59509D"/>
	</radialGradient>
	<path class="st10" d="M51.9,115c4.9,0,8.9,4,8.9,9c0,5-4,8.9-8.9,8.9s-8.9-4-8.9-8.9C43,119.2,47,115,51.9,115z"/>
	
		<radialGradient id="SVGID_12_" cx="358.8384" cy="878.9235" r="198.5462" gradientTransform="matrix(0.9717 0 0 0.9754 -123.6659 -632.217)" gradientUnits="userSpaceOnUse">
		<stop  offset="0" style="stop-color:#299FDA"/>
		<stop  offset="0" style="stop-color:#A6529A"/>
		<stop  offset="1" style="stop-color:#59509D"/>
	</radialGradient>
	<path class="st11" d="M398.1,115c4.9,0,8.9,4,8.9,9c0,5-4,8.9-8.9,8.9s-8.9-4-8.9-8.9C389.2,119.2,393.2,115,398.1,115z"/>
	
		<radialGradient id="SVGID_13_" cx="358.8384" cy="878.9235" r="198.5462" gradientTransform="matrix(0.9717 0 0 0.9754 -123.6659 -632.217)" gradientUnits="userSpaceOnUse">
		<stop  offset="0" style="stop-color:#299FDA"/>
		<stop  offset="0" style="stop-color:#A6529A"/>
		<stop  offset="1" style="stop-color:#59509D"/>
	</radialGradient>
	<path class="st12" d="M136.2,150.9c-12.6,0-22.8,10.2-22.8,22.9c0,12.7,10.2,22.9,22.8,22.9s22.8-10.2,22.8-22.9
		C159,161.1,148.8,150.9,136.2,150.9z"/>
	
		<radialGradient id="SVGID_14_" cx="358.8384" cy="878.9235" r="198.5462" gradientTransform="matrix(0.9717 0 0 0.9754 -123.6659 -632.217)" gradientUnits="userSpaceOnUse">
		<stop  offset="0" style="stop-color:#299FDA"/>
		<stop  offset="0" style="stop-color:#A6529A"/>
		<stop  offset="1" style="stop-color:#59509D"/>
	</radialGradient>
	<path class="st13" d="M311.8,150.9c-12.6,0-22.8,10.2-22.8,22.9c0,12.7,10.2,22.9,22.8,22.9c12.6,0,22.8-10.2,22.8-22.9
		C334.6,161.1,324.4,150.9,311.8,150.9z"/>
	
		<radialGradient id="SVGID_15_" cx="358.8384" cy="878.9235" r="198.5462" gradientTransform="matrix(0.9717 0 0 0.9754 -123.6659 -632.217)" gradientUnits="userSpaceOnUse">
		<stop  offset="0" style="stop-color:#299FDA"/>
		<stop  offset="0" style="stop-color:#A6529A"/>
		<stop  offset="1" style="stop-color:#59509D"/>
	</radialGradient>
	<path class="st14" d="M136.2,161.8c6.6,0,11.9,5.4,11.9,11.9c0,6.6-5.4,11.9-11.9,11.9c-6.6,0-11.9-5.4-11.9-11.9
		S129.7,161.8,136.2,161.8z"/>
	
		<radialGradient id="SVGID_16_" cx="358.8384" cy="878.9235" r="198.5462" gradientTransform="matrix(0.9717 0 0 0.9754 -123.6659 -632.217)" gradientUnits="userSpaceOnUse">
		<stop  offset="0" style="stop-color:#299FDA"/>
		<stop  offset="0" style="stop-color:#A6529A"/>
		<stop  offset="1" style="stop-color:#59509D"/>
	</radialGradient>
	<path class="st15" d="M311.8,161.8c6.6,0,11.9,5.4,11.9,11.9c0,6.6-5.4,11.9-11.9,11.9s-11.9-5.4-11.9-11.9
		C300,167.2,305.2,161.8,311.8,161.8z"/>
	<path class="st16" d="M225.5,196.7c-15.4,0-27.8,12.4-27.8,27.9c0,15.4,12.4,27.9,27.8,27.9s27.8-12.4,27.8-27.9
		S240.8,196.7,225.5,196.7z"/>
	
		<radialGradient id="SVGID_17_" cx="358.8384" cy="878.9235" r="198.5462" gradientTransform="matrix(0.9717 0 0 0.9754 -123.6659 -632.217)" gradientUnits="userSpaceOnUse">
		<stop  offset="0" style="stop-color:#299FDA"/>
		<stop  offset="0" style="stop-color:#A6529A"/>
		<stop  offset="1" style="stop-color:#59509D"/>
	</radialGradient>
	<path class="st17" d="M51.9,204.6c-11,0-19.9,8.9-19.9,19.9c0,11,8.9,19.9,19.9,19.9s19.9-8.9,19.9-19.9
		C71.7,213.5,62.8,204.6,51.9,204.6z"/>
	
		<radialGradient id="SVGID_18_" cx="358.8384" cy="878.9235" r="198.5462" gradientTransform="matrix(0.9717 0 0 0.9754 -123.6659 -632.217)" gradientUnits="userSpaceOnUse">
		<stop  offset="0" style="stop-color:#299FDA"/>
		<stop  offset="0" style="stop-color:#A6529A"/>
		<stop  offset="1" style="stop-color:#59509D"/>
	</radialGradient>
	<path class="st18" d="M398.1,204.6c-11,0-19.9,8.9-19.9,19.9c0,11,8.9,19.9,19.9,19.9c11,0,19.9-8.9,19.9-19.9
		C418,213.5,409.1,204.6,398.1,204.6z"/>
	
		<radialGradient id="SVGID_19_" cx="358.8384" cy="878.9235" r="198.5462" gradientTransform="matrix(0.9717 0 0 0.9754 -123.6659 -632.217)" gradientUnits="userSpaceOnUse">
		<stop  offset="0" style="stop-color:#299FDA"/>
		<stop  offset="0" style="stop-color:#A6529A"/>
		<stop  offset="1" style="stop-color:#59509D"/>
	</radialGradient>
	<path class="st19" d="M225.5,207.7c9.3,0,16.8,7.6,16.8,16.9c0,9.4-7.6,16.9-16.8,16.9c-9.3,0-16.8-7.6-16.8-16.9
		C208.7,215.2,216.2,207.7,225.5,207.7z"/>
	
		<radialGradient id="SVGID_20_" cx="358.8384" cy="878.9235" r="198.5462" gradientTransform="matrix(0.9717 0 0 0.9754 -123.6659 -632.217)" gradientUnits="userSpaceOnUse">
		<stop  offset="0" style="stop-color:#299FDA"/>
		<stop  offset="0" style="stop-color:#A6529A"/>
		<stop  offset="1" style="stop-color:#59509D"/>
	</radialGradient>
	<path class="st20" d="M51.9,215.6c4.9,0,8.9,4,8.9,8.9c0,5-4,9-8.9,9s-8.9-4-8.9-9C43,219.6,47,215.6,51.9,215.6z"/>
	
		<radialGradient id="SVGID_21_" cx="358.8384" cy="878.9235" r="198.5462" gradientTransform="matrix(0.9717 0 0 0.9754 -123.6659 -632.217)" gradientUnits="userSpaceOnUse">
		<stop  offset="0" style="stop-color:#299FDA"/>
		<stop  offset="0" style="stop-color:#A6529A"/>
		<stop  offset="1" style="stop-color:#59509D"/>
	</radialGradient>
	<path class="st21" d="M398.1,215.6c4.9,0,8.9,4,8.9,8.9c0,5-4,9-8.9,9s-8.9-4-8.9-9C389.2,219.6,393.2,215.6,398.1,215.6z"/>
	
		<radialGradient id="SVGID_22_" cx="358.8384" cy="878.9235" r="198.5462" gradientTransform="matrix(0.9717 0 0 0.9754 -123.6659 -632.217)" gradientUnits="userSpaceOnUse">
		<stop  offset="0" style="stop-color:#299FDA"/>
		<stop  offset="0" style="stop-color:#A6529A"/>
		<stop  offset="1" style="stop-color:#59509D"/>
	</radialGradient>
	<path class="st22" d="M139.2,251.5c-12.6,0-22.8,10.2-22.8,22.9s10.2,22.9,22.8,22.9s22.8-10.2,22.8-22.9
		C162.1,261.7,151.8,251.5,139.2,251.5z"/>
	
		<radialGradient id="SVGID_23_" cx="358.8384" cy="878.9235" r="198.5462" gradientTransform="matrix(0.9717 0 0 0.9754 -123.6659 -632.217)" gradientUnits="userSpaceOnUse">
		<stop  offset="0" style="stop-color:#299FDA"/>
		<stop  offset="0" style="stop-color:#A6529A"/>
		<stop  offset="1" style="stop-color:#59509D"/>
	</radialGradient>
	<path class="st23" d="M311.8,251.5c-12.6,0-22.8,10.2-22.8,22.9s10.2,22.9,22.8,22.9c12.6,0,22.8-10.2,22.8-22.9
		S324.4,251.5,311.8,251.5z"/>
	
		<radialGradient id="SVGID_24_" cx="358.8384" cy="878.9235" r="198.5462" gradientTransform="matrix(0.9717 0 0 0.9754 -123.6659 -632.217)" gradientUnits="userSpaceOnUse">
		<stop  offset="0" style="stop-color:#299FDA"/>
		<stop  offset="0" style="stop-color:#A6529A"/>
		<stop  offset="1" style="stop-color:#59509D"/>
	</radialGradient>
	<path class="st24" d="M139.2,262.4c6.6,0,11.9,5.4,11.9,11.9s-5.4,11.9-11.9,11.9s-11.9-5.4-11.9-11.9
		C127.3,267.8,132.7,262.4,139.2,262.4z"/>
	
		<radialGradient id="SVGID_25_" cx="358.8384" cy="878.9235" r="198.5462" gradientTransform="matrix(0.9717 0 0 0.9754 -123.6659 -632.217)" gradientUnits="userSpaceOnUse">
		<stop  offset="0" style="stop-color:#299FDA"/>
		<stop  offset="0" style="stop-color:#A6529A"/>
		<stop  offset="1" style="stop-color:#59509D"/>
	</radialGradient>
	<path class="st25" d="M311.8,262.4c6.6,0,11.9,5.4,11.9,11.9s-5.4,11.9-11.9,11.9s-11.9-5.4-11.9-11.9
		C300,267.8,305.2,262.4,311.8,262.4z"/>
	
		<radialGradient id="SVGID_26_" cx="358.8384" cy="878.9235" r="198.5462" gradientTransform="matrix(0.9717 0 0 0.9754 -123.6659 -632.217)" gradientUnits="userSpaceOnUse">
		<stop  offset="0" style="stop-color:#299FDA"/>
		<stop  offset="0" style="stop-color:#A6529A"/>
		<stop  offset="1" style="stop-color:#59509D"/>
	</radialGradient>
	<path class="st26" d="M224.5,301.2c-12.6,0-22.8,10.2-22.8,22.9S212,347,224.5,347c12.6,0,22.8-10.2,22.8-22.9
		S237.2,301.2,224.5,301.2z"/>
	
		<radialGradient id="SVGID_27_" cx="358.8384" cy="878.9235" r="198.5462" gradientTransform="matrix(0.9717 0 0 0.9754 -123.6659 -632.217)" gradientUnits="userSpaceOnUse">
		<stop  offset="0" style="stop-color:#299FDA"/>
		<stop  offset="0" style="stop-color:#A6529A"/>
		<stop  offset="1" style="stop-color:#59509D"/>
	</radialGradient>
	<path class="st27" d="M51.9,305.2c-11,0-19.9,8.9-19.9,19.9c0,11,8.9,19.9,19.9,19.9s19.9-8.9,19.9-19.9
		C71.7,314.1,62.8,305.2,51.9,305.2z"/>
	
		<radialGradient id="SVGID_28_" cx="358.8384" cy="878.9235" r="198.5462" gradientTransform="matrix(0.9717 0 0 0.9754 -123.6659 -632.217)" gradientUnits="userSpaceOnUse">
		<stop  offset="0" style="stop-color:#299FDA"/>
		<stop  offset="0" style="stop-color:#A6529A"/>
		<stop  offset="1" style="stop-color:#59509D"/>
	</radialGradient>
	<path class="st28" d="M398.1,305.2c-11,0-19.9,8.9-19.9,19.9c0,11,8.9,19.9,19.9,19.9c11,0,19.9-8.9,19.9-19.9
		C418,314.1,409.1,305.2,398.1,305.2z"/>
	
		<radialGradient id="SVGID_29_" cx="358.8384" cy="878.9235" r="198.5462" gradientTransform="matrix(0.9717 0 0 0.9754 -123.6659 -632.217)" gradientUnits="userSpaceOnUse">
		<stop  offset="0" style="stop-color:#299FDA"/>
		<stop  offset="0" style="stop-color:#A6529A"/>
		<stop  offset="1" style="stop-color:#59509D"/>
	</radialGradient>
	<path class="st29" d="M224.5,312.2c6.6,0,11.9,5.4,11.9,11.9s-5.4,11.9-11.9,11.9s-11.9-5.4-11.9-11.9
		C212.7,317.5,217.9,312.2,224.5,312.2z"/>
	
		<radialGradient id="SVGID_30_" cx="358.8384" cy="878.9235" r="198.5462" gradientTransform="matrix(0.9717 0 0 0.9754 -123.6659 -632.217)" gradientUnits="userSpaceOnUse">
		<stop  offset="0" style="stop-color:#299FDA"/>
		<stop  offset="0" style="stop-color:#A6529A"/>
		<stop  offset="1" style="stop-color:#59509D"/>
	</radialGradient>
	<path class="st30" d="M51.9,316.2c4.9,0,8.9,4,8.9,9c0,5-4,8.9-8.9,8.9s-8.9-4-8.9-8.9C43,320.2,47,316.2,51.9,316.2z"/>
	
		<radialGradient id="SVGID_31_" cx="358.8384" cy="878.9235" r="198.5462" gradientTransform="matrix(0.9717 0 0 0.9754 -123.6659 -632.217)" gradientUnits="userSpaceOnUse">
		<stop  offset="0" style="stop-color:#299FDA"/>
		<stop  offset="0" style="stop-color:#A6529A"/>
		<stop  offset="1" style="stop-color:#59509D"/>
	</radialGradient>
	<path class="st31" d="M398.1,316.2c4.9,0,8.9,4,8.9,9c0,5-4,8.9-8.9,8.9s-8.9-4-8.9-8.9C389.2,320.2,393.2,316.2,398.1,316.2z"/>
	
		<radialGradient id="SVGID_32_" cx="358.8384" cy="878.9235" r="198.5462" gradientTransform="matrix(0.9717 0 0 0.9754 -123.6659 -632.217)" gradientUnits="userSpaceOnUse">
		<stop  offset="0" style="stop-color:#299FDA"/>
		<stop  offset="0" style="stop-color:#A6529A"/>
		<stop  offset="1" style="stop-color:#59509D"/>
	</radialGradient>
	<path class="st32" d="M139.2,355c-11,0-19.9,8.9-19.9,19.9s8.9,19.9,19.9,19.9c11,0,19.9-8.9,19.9-19.9
		C159,364,150.1,355,139.2,355z"/>
	
		<radialGradient id="SVGID_33_" cx="358.8384" cy="878.9235" r="198.5462" gradientTransform="matrix(0.9717 0 0 0.9754 -123.6659 -632.217)" gradientUnits="userSpaceOnUse">
		<stop  offset="0" style="stop-color:#299FDA"/>
		<stop  offset="0" style="stop-color:#A6529A"/>
		<stop  offset="1" style="stop-color:#59509D"/>
	</radialGradient>
	<path class="st33" d="M311.8,356.1c-11,0-19.9,8.9-19.9,19.9s8.9,19.9,19.9,19.9c11,0,19.9-8.9,19.9-19.9
		C331.7,365,322.8,356.1,311.8,356.1z"/>
	
		<radialGradient id="SVGID_34_" cx="358.8384" cy="878.9235" r="198.5462" gradientTransform="matrix(0.9717 0 0 0.9754 -123.6659 -632.217)" gradientUnits="userSpaceOnUse">
		<stop  offset="0" style="stop-color:#299FDA"/>
		<stop  offset="0" style="stop-color:#A6529A"/>
		<stop  offset="1" style="stop-color:#59509D"/>
	</radialGradient>
	<path class="st34" d="M139.2,365.9c4.9,0,8.9,4,8.9,8.9c0,5-4,9-8.9,9s-8.9-4-8.9-9C130.3,370,134.3,365.9,139.2,365.9z"/>
	
		<radialGradient id="SVGID_35_" cx="358.8384" cy="878.9235" r="198.5462" gradientTransform="matrix(0.9717 0 0 0.9754 -123.6659 -632.217)" gradientUnits="userSpaceOnUse">
		<stop  offset="0" style="stop-color:#299FDA"/>
		<stop  offset="0" style="stop-color:#A6529A"/>
		<stop  offset="1" style="stop-color:#59509D"/>
	</radialGradient>
	<path class="st35" d="M311.8,366.9c4.9,0,8.9,4,8.9,9s-4,8.9-8.9,8.9c-4.9,0-8.9-4-8.9-8.9S306.9,366.9,311.8,366.9z"/>
	
		<radialGradient id="SVGID_36_" cx="358.8384" cy="878.9235" r="198.5462" gradientTransform="matrix(0.9717 0 0 0.9754 -123.6659 -632.217)" gradientUnits="userSpaceOnUse">
		<stop  offset="0" style="stop-color:#299FDA"/>
		<stop  offset="0" style="stop-color:#A6529A"/>
		<stop  offset="1" style="stop-color:#59509D"/>
	</radialGradient>
	<path class="st36" d="M224.5,407.8c-11,0-19.9,8.9-19.9,19.9s8.9,19.9,19.9,19.9c11,0,19.9-8.9,19.9-19.9S235.5,407.8,224.5,407.8z
		"/>
	
		<radialGradient id="SVGID_37_" cx="358.8384" cy="878.9235" r="198.5462" gradientTransform="matrix(0.9717 0 0 0.9754 -123.6659 -632.217)" gradientUnits="userSpaceOnUse">
		<stop  offset="0" style="stop-color:#299FDA"/>
		<stop  offset="0" style="stop-color:#A6529A"/>
		<stop  offset="1" style="stop-color:#59509D"/>
	</radialGradient>
	<path class="st37" d="M224.5,418.7c4.9,0,8.9,4,8.9,8.9s-4,9-8.9,9s-8.9-4-8.9-9S219.6,418.7,224.5,418.7z"/>
	
		<radialGradient id="SVGID_38_" cx="358.8384" cy="878.9235" r="198.5462" gradientTransform="matrix(0.9717 0 0 0.9754 -123.6659 -632.217)" gradientUnits="userSpaceOnUse">
		<stop  offset="0" style="stop-color:#299FDA"/>
		<stop  offset="0" style="stop-color:#A6529A"/>
		<stop  offset="1" style="stop-color:#59509D"/>
	</radialGradient>
	<path class="st38" d="M303.9,170.6l-70.5,42.8l5.7,9.4l70.5-42.8L303.9,170.6z"/>
	
		<radialGradient id="SVGID_39_" cx="358.8384" cy="878.9235" r="198.5462" gradientTransform="matrix(0.9717 0 0 0.9754 -123.6659 -632.217)" gradientUnits="userSpaceOnUse">
		<stop  offset="0" style="stop-color:#299FDA"/>
		<stop  offset="0" style="stop-color:#A6529A"/>
		<stop  offset="1" style="stop-color:#59509D"/>
	</radialGradient>
	<path class="st39" d="M144.9,169.6l-5.9,9.3l71.4,45.8l5.9-9.3L144.9,169.6z"/>
	
		<radialGradient id="SVGID_40_" cx="358.8384" cy="878.9235" r="198.5462" gradientTransform="matrix(0.9717 0 0 0.9754 -123.6659 -632.217)" gradientUnits="userSpaceOnUse">
		<stop  offset="0" style="stop-color:#299FDA"/>
		<stop  offset="0" style="stop-color:#A6529A"/>
		<stop  offset="1" style="stop-color:#59509D"/>
	</radialGradient>
	<path class="st40" d="M125.8,174.5l-65.5,40.8l5.7,9.3l65.5-40.8L125.8,174.5z"/>
	
		<radialGradient id="SVGID_41_" cx="358.8384" cy="878.9235" r="198.5462" gradientTransform="matrix(0.9717 0 0 0.9754 -123.6659 -632.217)" gradientUnits="userSpaceOnUse">
		<stop  offset="0" style="stop-color:#299FDA"/>
		<stop  offset="0" style="stop-color:#A6529A"/>
		<stop  offset="1" style="stop-color:#59509D"/>
	</radialGradient>
	<path class="st41" d="M391.7,222.2L321.2,265l5.7,9.4l70.5-42.8L391.7,222.2z"/>
	
		<radialGradient id="SVGID_42_" cx="358.8384" cy="878.9235" r="198.5462" gradientTransform="matrix(0.9717 0 0 0.9754 -123.6659 -632.217)" gradientUnits="userSpaceOnUse">
		<stop  offset="0" style="stop-color:#299FDA"/>
		<stop  offset="0" style="stop-color:#A6529A"/>
		<stop  offset="1" style="stop-color:#59509D"/>
	</radialGradient>
	<path class="st42" d="M213.2,226.2L142.7,269l5.7,9.4l70.3-42.8L213.2,226.2z"/>
	
		<radialGradient id="SVGID_43_" cx="358.8384" cy="878.9235" r="198.5462" gradientTransform="matrix(0.9717 0 0 0.9754 -123.6659 -632.217)" gradientUnits="userSpaceOnUse">
		<stop  offset="0" style="stop-color:#299FDA"/>
		<stop  offset="0" style="stop-color:#A6529A"/>
		<stop  offset="1" style="stop-color:#59509D"/>
	</radialGradient>
	<path class="st43" d="M238.2,225l-5.9,9.3l71.4,45.8l5.9-9.3L238.2,225z"/>
	
		<radialGradient id="SVGID_44_" cx="358.8384" cy="878.9235" r="198.5462" gradientTransform="matrix(0.9717 0 0 0.9754 -123.6659 -632.217)" gradientUnits="userSpaceOnUse">
		<stop  offset="0" style="stop-color:#299FDA"/>
		<stop  offset="0" style="stop-color:#A6529A"/>
		<stop  offset="1" style="stop-color:#59509D"/>
	</radialGradient>
	<path class="st44" d="M323.3,171.2l-5.9,9.3l71.4,45.8l5.9-9.3L323.3,171.2z"/>
	
		<radialGradient id="SVGID_45_" cx="358.8384" cy="878.9235" r="198.5462" gradientTransform="matrix(0.9717 0 0 0.9754 -123.6659 -632.217)" gradientUnits="userSpaceOnUse">
		<stop  offset="0" style="stop-color:#299FDA"/>
		<stop  offset="0" style="stop-color:#A6529A"/>
		<stop  offset="1" style="stop-color:#59509D"/>
	</radialGradient>
	<path class="st45" d="M60.2,223.4l-5.9,9.3l71.4,45.8l5.9-9.3L60.2,223.4z"/>
</g>
</svg>
