<?xml version="1.0" encoding="utf-8"?>
<!-- Generator: Adobe Illustrator 16.0.0, SVG Export Plug-In . SVG Version: 6.00 Build 0)  -->
<!DOCTYPE svg PUBLIC "-//W3C//DTD SVG 1.1//EN" "http://www.w3.org/Graphics/SVG/1.1/DTD/svg11.dtd">
<svg version="1.1" id="Layer_1" xmlns="http://www.w3.org/2000/svg" xmlns:xlink="http://www.w3.org/1999/xlink" x="0px" y="0px"
	 width="500px" height="500px" viewBox="0 0 500 500" enable-background="new 0 0 500 500" xml:space="preserve">
<path fill="#C9CED6" d="M208.964,90.057l10.31,101.874l38.162-116.134L208.964,90.057z"/>
<path fill="#E2E4E8" d="M146.227,26.987l62.722,63.052l48.473-14.251L146.227,26.987z"/>
<path fill="#F2F3F4" d="M195.243,184.796l24.016,7.126L208.949,90.04l-62.722-63.052L195.243,184.796z"/>
<path fill="#C9CED6" d="M94.917,37.626l57.132,191.031l-58.343,99.696l-83.013-187.64L94.917,37.626z"/>
<path fill="#F2F3F4" d="M316.769,71.4l55.599,85.651l-101.225,49.567L316.769,71.4z"/>
<path fill="#F7F8F9" d="M434.882,40.917l-62.5,116.134L316.769,71.4L434.882,40.917z"/>
<path fill="#E2E4E8" d="M492.658,168.458l-120.307-11.407l62.5-116.134L492.658,168.458z"/>
<path fill="#C9CED6" d="M425.985,259.363c-2.426-4.281-53.634-102.318-53.634-102.318l120.628,10.968L425.985,259.363z"/>
<path fill="#E2E4E8" d="M271.143,206.612l154.843,52.751l-53.618-102.318L271.143,206.612z"/>
<path fill="#A93E3C" d="M206.987,238.629l78.625,217.901l103.184-153.968L206.987,238.629z"/>
<path fill="#C73D38" d="M230.459,466.854L93.706,328.354l58.343-99.688L230.459,466.854z"/>
<path fill="#F2F3F4" d="M276.191,305.524l9.421,151.006l-78.625-217.901L276.191,305.524z"/>
<path fill="#E2E4E8" d="M388.796,302.563l-112.604,2.962l-69.205-66.895L388.796,302.563z"/>
<path fill="#C9CED6" d="M285.612,456.546l-9.421-151.021l112.62-2.945L285.612,456.546z"/>
<path fill="#E2E4E8" d="M10.693,140.713l141.356,87.944L94.917,37.626L10.693,140.713z"/>
<path fill="#DB4646" d="M152.049,228.666l-58.343,99.688l97.495,19.176L152.049,228.666z"/>
<path fill="#C9CED6" d="M230.459,466.854L93.706,328.354l58.343-99.688L230.459,466.854z"/>
<path fill="#E2E4E8" d="M152.049,228.666l-58.343,99.688l97.495,19.176L152.049,228.666z"/>
</svg>
