<?xml version="1.0" encoding="utf-8"?>
<!-- Generator: Adobe Illustrator 16.0.0, SVG Export Plug-In . SVG Version: 6.00 Build 0)  -->
<!DOCTYPE svg PUBLIC "-//W3C//DTD SVG 1.1//EN" "http://www.w3.org/Graphics/SVG/1.1/DTD/svg11.dtd">
<svg version="1.1" id="Layer_1" xmlns="http://www.w3.org/2000/svg" xmlns:xlink="http://www.w3.org/1999/xlink" x="0px" y="0px"
	 width="156.218px" height="157.986px" viewBox="0 0 156.218 157.986" enable-background="new 0 0 156.218 157.986"
	 xml:space="preserve">
<g>
	<defs>
		<rect id="SVGID_1_" width="156.218" height="157.986"/>
	</defs>
	<clipPath id="SVGID_2_">
		<use xlink:href="#SVGID_1_"  overflow="visible"/>
	</clipPath>
	<path clip-path="url(#SVGID_2_)" d="M85.399,69.583l43.223-42.984l-16.396-16.307L77.202,45.123L42.178,10.292L25.781,26.599
		l43.223,42.984c2.263,2.251,5.231,3.377,8.198,3.377C80.168,72.959,83.136,71.833,85.399,69.583 M147.97,115.5l-35.023-34.83
		l35.023-34.831l-16.396-16.306L88.352,72.518c-4.527,4.503-4.527,11.803,0,16.306l43.222,42.983L147.97,115.5z M77.142,116.279
		l35.023,34.83l16.396-16.307L85.34,91.819c-4.528-4.503-11.869-4.503-16.398,0l-43.221,42.983l16.397,16.307L77.142,116.279z
		 M65.992,88.883c2.175-2.163,3.396-5.095,3.396-8.152c0-3.059-1.221-5.991-3.396-8.153L22.77,29.594L6.374,45.899L41.397,80.73
		L6.374,115.56l16.396,16.308L65.992,88.883z"/>
</g>
</svg>
