<?xml version="1.0" encoding="utf-8"?>
<!-- Generator: Adobe Illustrator 27.5.0, SVG Export Plug-In . SVG Version: 6.00 Build 0)  -->
<svg version="1.1" id="katman_1" xmlns="http://www.w3.org/2000/svg" xmlns:xlink="http://www.w3.org/1999/xlink" x="0px" y="0px"
	 viewBox="0 0 500 500" style="enable-background:new 0 0 500 500;" xml:space="preserve">
<style type="text/css">
	.st0{clip-path:url(#SVGID_00000183215081369220462100000000275921104907232669_);}
	.st1{fill:#FFFFFF;}
	.st2{fill:url(#SVGID_00000055679470403437511820000008397320589712793220_);}
	.st3{fill:url(#SVGID_00000088839098644855915240000007486733053339317430_);}
</style>
<g>
	<g>
		<defs>
			<rect id="SVGID_1_" x="-185.9" y="-240.4" width="875.7" height="959.5"/>
		</defs>
		<clipPath id="SVGID_00000114765699969129337020000001053938810118181769_">
			<use xlink:href="#SVGID_1_"  style="overflow:visible;"/>
		</clipPath>
		<g style="clip-path:url(#SVGID_00000114765699969129337020000001053938810118181769_);">
			<circle class="st1" cx="252" cy="250" r="250"/>
			
				<linearGradient id="SVGID_00000068670068175408651900000013196794001998189720_" gradientUnits="userSpaceOnUse" x1="-349.381" y1="-744.431" x2="-54.7188" y2="-744.431" gradientTransform="matrix(1 0 0 1 454 996)">
				<stop  offset="0" style="stop-color:#63F2C1"/>
				<stop  offset="1" style="stop-color:#00FAA6"/>
			</linearGradient>
			<path style="fill:url(#SVGID_00000068670068175408651900000013196794001998189720_);" d="M104.7,171.7
				c27.8-2,58.5,14.2,74.9,39.4c2.6-3.1,4.8-6.1,7.7-8.9c16.5-17.7,47.1-14.5,61,4.8c9.2,12.8,14,27.1,19.8,41.1
				c3.7,9.9,8.1,19.4,13.3,28.6c5.3,8.8,14.5,8.8,20,0c4.3-7.7,7.2-16.1,8.7-24.8c1.9-12.4,5.8-24.4,11.7-35.5
				c8.3-14.8,20.8-26.9,35.9-34.7c12.8-7,27.2-10.5,41.8-10.1v27.3c-35.4,1.7-57.3,29.3-56.5,53.8c0.8,24.6,22.4,50,56.3,51v26.7
				c-20.6,4.4-57-11.6-73.5-37.8c-3.3,5.7-8.1,10.5-13.8,13.9c-5.7,3.4-12.1,5.3-18.7,5.4c-24.1,1.8-36.9-10.3-44.7-27.8
				c-7-15.6-12.5-31.7-18.7-47.5c-1.3-3.5-3.1-6.9-5.3-10c-5.7-8.1-15.6-6.5-22.2,2.9c-6.7,9.4-8.9,21.4-11,32.7
				c-2.9,17.3-11.5,33.1-24.6,44.8c-11.7,11.3-26.4,19.1-42.4,22.5c-6.1,1.3-12.5,1.5-19.3,2.3v-28.2c7.6,0.2,15.1-1.1,22.2-4
				c7-2.8,13.4-7.1,18.7-12.5c5.7-5.2,10.1-11.6,12.8-18.9c2.7-7.2,3.7-15,2.7-22.7c-2.8-20.9-22.2-45.1-56.7-46.9L104.7,171.7
				L104.7,171.7z"/>
			
				<linearGradient id="SVGID_00000059280663221466853890000012776214774616730789_" gradientUnits="userSpaceOnUse" x1="1965.0101" y1="-744.3245" x2="31554.1328" y2="-744.3245" gradientTransform="matrix(1 0 0 1 454 996)">
				<stop  offset="0" style="stop-color:#63F2C1"/>
				<stop  offset="1" style="stop-color:#00FAA6"/>
			</linearGradient>
			<path style="fill:url(#SVGID_00000059280663221466853890000012776214774616730789_);" d="M427.5,143.2v216.9h-351V143.2H427.5z
				 M455.6,115.1H48.3v273.2h407.3V115.1z"/>
		</g>
	</g>
</g>
</svg>
