<?xml version="1.0" encoding="utf-8"?>
<!-- Generator: Adobe Illustrator 27.5.0, SVG Export Plug-In . SVG Version: 6.00 Build 0)  -->
<svg version="1.1" id="Layer_1" xmlns="http://www.w3.org/2000/svg" xmlns:xlink="http://www.w3.org/1999/xlink" x="0px" y="0px"
	 viewBox="0 0 500 500" style="enable-background:new 0 0 500 500;" xml:space="preserve">
<style type="text/css">
	.st0{fill:#FFFFFF;}
	.st1{fill-rule:evenodd;clip-rule:evenodd;fill:#0B1535;}
</style>
<circle class="st0" cx="249" cy="249.5" r="250"/>
<path class="st1" d="M463.35,223.57c1,8.48,1.56,17.11,1.56,25.89c0,119.08-96.66,215.66-215.92,215.66
	c-86.83,0-161.67-51.2-195.96-125.02l34.54-17.37c27.9,61.23,89.68,103.79,161.42,103.79c97.88,0,177.27-79.26,177.27-177.05
	c0-1.81-0.03-3.63-0.09-5.44L463.35,223.57z M249,33.81c90.93,0,168.76,56.16,200.57,135.67l-36.95,11.76
	C385.89,117.33,322.69,72.41,249,72.41c-97.88,0-177.27,79.26-177.27,177.05c0,1.2,0.03,2.42,0.06,3.63l-36.16,29.54
	c-1.67-10.81-2.54-21.88-2.54-33.17C33.11,130.35,129.77,33.81,249,33.81z"/>
<path class="st1" d="M12.65,335.72l211.17-172.51l-8.77,71.74l123.25-69.76l-6.25,68.11l161.67-51.42L274.45,302.5l16.38-68.64
	l-126.68,74.16l8.37-52.65L12.65,335.72z"/>
</svg>
