<?xml version="1.0" encoding="utf-8"?>
<!-- Generator: Adobe Illustrator 22.0.1, SVG Export Plug-In . SVG Version: 6.00 Build 0)  -->
<svg version="1.1" id="Layer_1" xmlns="http://www.w3.org/2000/svg" xmlns:xlink="http://www.w3.org/1999/xlink" x="0px" y="0px"
	 viewBox="0 0 1024 1024" style="enable-background:new 0 0 1024 1024;" xml:space="preserve">
<style type="text/css">
	.st0{fill:#313A53;}
	.st1{fill:#03BBE3;}
	.st2{fill:#3CE9A9;}
</style>
<g>
	<path class="st0" d="M512.5,913c-131.7,0-263.3,0-395,0.1c-3.7,0-4.6-0.8-4.6-4.6c0.1-263.7,0.1-527.3,0-791c0-3.7,0.8-4.6,4.6-4.6
		c263.7,0.1,527.3,0.1,791,0c3.7,0,4.6,0.8,4.6,4.6c-0.1,263.7-0.1,527.3,0,791c0,3.7-0.8,4.6-4.6,4.6
		C776.5,913,644.5,913,512.5,913z M506.3,323.5c-8.4-8.3-16.8-16.6-25.2-24.9c-18.3-18.2-43.9-18.2-62.2,0.1
		C365,352.4,311.2,406.3,257.4,460.1c-19.7,19.7-19.7,44.6,0.1,64.4C320.2,587.3,383,650,445.8,712.8c1.4,1.4,2.9,2.7,4.4,4.1
		c9.9,9.9,19.4,20.2,29.7,29.7c9,8.4,20.1,11.3,32.4,9.6c11-1.6,19.1-7.9,26.7-15.5c71.8-71.9,143.7-143.7,215.5-215.6
		c1.3-1.3,2.6-2.6,3.8-4c15.8-17.8,15.2-42.6-1.7-59.5C702.1,407.1,647.6,352.5,593,298c-17.6-17.6-43.5-17.5-61.2,0.1
		C523.2,306.5,514.8,315,506.3,323.5z"/>
	<path class="st1" d="M506.3,323.5c8.5-8.5,17-17,25.5-25.4c17.7-17.5,43.6-17.6,61.2-0.1c54.6,54.5,109.1,109.1,163.6,163.6
		c16.8,16.9,17.5,41.7,1.7,59.5c-1.2,1.4-2.5,2.7-3.8,4c-71.9,71.9-143.7,143.7-215.5,215.6c-7.6,7.6-15.6,13.9-26.7,15.5
		c-12.3,1.7-23.4-1.2-32.4-9.6c-10.2-9.5-19.8-19.8-29.7-29.7c9.1-9.1,18.2-18.1,27.2-27.2c9.6-9.7,19.2-19.5,28.7-29.2
		c18-17.9,36.1-35.9,54.1-53.7c1.7-1.7,1.6-2.8,0-4.4c-18.1-17.9-36.1-35.8-54.1-53.7c-18.1-18.2-36.2-36.4-54.4-54.6
		c-0.6-0.6-1.4-0.9-2.1-1.3c-0.2-2.1-1.9-3.1-3.1-4.3c-17.5-17.5-35-35-52.4-52.4c17.2-17.3,34.5-34.6,51.6-52.1
		c3.2-3.3,5.1-3.4,8.4,0c16,16.3,32.1,32.3,48.3,48.4c20,20,40.1,39.9,60.1,59.8c15.9,16.1,31.9,32.1,47.8,48.2
		c8.2,8.2,8.2,8.2,16.4,0c14.9-14.9,29.9-29.9,44.8-44.8c1.7-1.7,3.5-2.9,0.8-5.6c-18.1-17.8-36.2-35.8-54.2-53.8
		c-1.6-1.7-3.1-3.5-4.8-5.1c-25.6-25.7-51.3-51.3-77-77C526.4,343.9,516.4,333.7,506.3,323.5z"/>
	<path class="st2" d="M562.6,492.1c-20.1-19.9-40.1-39.8-60.1-59.8c-16.1-16.1-32.3-32.1-48.3-48.4c-3.3-3.3-5.2-3.2-8.4,0
		c-17.1,17.5-34.4,34.7-51.6,52.1c-17.7,17.6-35.4,35.3-53.2,52.8c-3,3-2.3,4.5,0.3,7c16.4,16.2,32.7,32.4,48.8,48.8
		c3,3.1,4.6,3.2,7.7,0.1c17.2-17.4,34.6-34.6,52-51.9c0.7,0.4,1.5,0.8,2.1,1.3c18.1,18.2,36.2,36.4,54.4,54.6
		c-17.9,17.8-35.8,35.7-53.8,53.5c-2.3,2.3-1.3,3.4,0.5,5.2c17.8,17.7,35.6,35.5,53.4,53.2c-9.6,9.7-19.1,19.5-28.7,29.2
		c-9,9.1-18.2,18.1-27.2,27.2c-1.5-1.4-3-2.7-4.4-4.1C383,650,320.2,587.3,257.5,524.5c-19.8-19.8-19.8-44.7-0.1-64.4
		c53.8-53.8,107.6-107.6,161.5-161.5c18.3-18.3,43.9-18.3,62.2-0.1c8.4,8.3,16.8,16.6,25.2,24.9c10.1,10.2,20.1,20.4,30.2,30.5
		c25.6,25.7,51.3,51.3,77,77c1.6,1.6,3.2,3.4,4.8,5.1c-1.3,1.3-2.5,2.7-3.8,4C597.2,457.4,579.9,474.7,562.6,492.1z"/>
	<path class="st0" d="M449.7,492.8c-17.4,17.3-34.8,34.5-52,51.9c-3.1,3.2-4.7,3.1-7.7-0.1c-16.1-16.4-32.4-32.6-48.8-48.8
		c-2.6-2.5-3.3-4-0.3-7c17.9-17.5,35.5-35.2,53.2-52.8c17.5,17.5,35,34.9,52.4,52.4C447.8,489.7,449.5,490.7,449.7,492.8z"/>
	<path class="st0" d="M562.6,492.1c17.3-17.3,34.6-34.7,51.8-52c1.3-1.3,2.5-2.6,3.8-4c18.1,17.9,36.1,35.9,54.2,53.8
		c2.7,2.6,0.9,3.9-0.8,5.6c-15,14.9-29.9,29.9-44.8,44.8c-8.2,8.2-8.2,8.2-16.4,0C594.5,524.2,578.5,508.1,562.6,492.1z"/>
	<path class="st0" d="M506.1,660.5c-17.8-17.7-35.6-35.5-53.4-53.2c-1.7-1.7-2.7-2.9-0.5-5.2c18-17.8,35.9-35.6,53.8-53.5
		c18,17.9,36.1,35.8,54.1,53.7c1.7,1.7,1.8,2.7,0,4.4C542.2,624.6,524.2,642.6,506.1,660.5z"/>
</g>
</svg>
