<?xml version="1.0" encoding="utf-8"?>
<!-- Generator: Adobe Illustrator 22.0.1, SVG Export Plug-In . SVG Version: 6.00 Build 0)  -->
<svg version="1.1" id="Layer_1" xmlns="http://www.w3.org/2000/svg" xmlns:xlink="http://www.w3.org/1999/xlink" x="0px" y="0px"
	 viewBox="0 0 200 200" style="enable-background:new 0 0 200 200;" xml:space="preserve">
<style type="text/css">
	.st0{fill:#FF4A4A;}
	.st1{fill:#FFFFFF;}
</style>
<path class="st0" d="M100,200c55.2,0,100-44.8,100-100C200,44.8,155.2,0,100,0C44.8,0,0,44.8,0,100C0,155.2,44.8,200,100,200z"/>
<path class="st1" d="M14.4,122H61c0.3,0,0.6,0,0.9-0.1c0,0,0.1,0,0.1,0l0.1,0c0.1,0,0.2-0.1,0.3-0.1c0.4-0.2,0.8-0.4,1.1-0.7
	c0.3-0.3,0.6-0.7,0.7-1.1c0.2-0.4,0.3-0.9,0.3-1.3V80.2c0-0.3-0.1-0.7-0.2-1c-0.1-0.3-0.3-0.6-0.6-0.8c-0.2-0.2-0.5-0.4-0.8-0.6
	c-0.3-0.1-0.6-0.2-1-0.2h-7.5c-0.2,0-0.3,0-0.5,0c-0.2,0-0.3,0.1-0.5,0.1c-0.3,0.1-0.6,0.3-0.8,0.6c0,0,0,0-0.1,0.1
	c-0.1,0.1-0.2,0.2-0.3,0.4c-0.1,0.1-0.1,0.3-0.2,0.4c-0.1,0.3-0.2,0.6-0.2,1v29.2H23.6V80.2c0-0.3-0.1-0.7-0.2-1
	c-0.1-0.3-0.3-0.6-0.6-0.8c-0.1-0.1-0.2-0.2-0.3-0.3c-0.2-0.1-0.3-0.2-0.5-0.3c0,0-0.1,0-0.1,0c0,0-0.1,0-0.1,0
	c-0.1,0-0.2-0.1-0.4-0.1c-0.1,0-0.1,0-0.2,0c-0.1,0-0.1,0-0.2,0h-7.5c-0.3,0-0.7,0.1-1,0.2c-0.3,0.1-0.6,0.3-0.8,0.6
	c-0.2,0.2-0.4,0.5-0.6,0.8c-0.1,0.3-0.2,0.6-0.2,1v38.3c0,0.4,0.1,0.9,0.3,1.3c0.2,0.4,0.4,0.8,0.7,1.1c0.3,0.3,0.7,0.6,1.1,0.7
	C13.5,121.9,13.9,122,14.4,122z"/>
<path class="st1" d="M117.7,122.3h7.5c0.1,0,0.2,0,0.3,0c0.1,0,0.1,0,0.2,0c0.2,0,0.3-0.1,0.5-0.1c0.3-0.1,0.6-0.3,0.8-0.6
	c0.2-0.2,0.4-0.5,0.6-0.8c0.1-0.3,0.2-0.6,0.2-1V81.5c0-0.6-0.2-1.2-0.5-1.8c-0.3-0.5-0.8-1-1.3-1.3c-0.6-0.3-1.2-0.4-1.8-0.4
	c-0.6,0-1.2,0.2-1.7,0.6L101.5,93c-0.4,0.3-0.9,0.4-1.4,0.4s-1-0.2-1.4-0.4L77.7,78.7c-0.5-0.4-1.1-0.6-1.7-0.6
	c-0.6,0-1.2,0.1-1.8,0.4c-0.5,0.3-1,0.7-1.3,1.3c-0.3,0.5-0.5,1.1-0.5,1.8v38.3c0,0.3,0.1,0.7,0.2,1c0.1,0.2,0.2,0.4,0.3,0.6
	c0.1,0.1,0.2,0.2,0.2,0.3c0.2,0.2,0.5,0.4,0.8,0.6c0.3,0.1,0.6,0.2,1,0.2h7.5c0.1,0,0.2,0,0.4,0c0.2,0,0.3-0.1,0.5-0.1
	c0,0,0.1,0,0.1-0.1c0.3-0.1,0.6-0.3,0.8-0.6c0.2-0.2,0.4-0.5,0.6-0.8c0.1-0.2,0.1-0.3,0.2-0.5c0-0.1,0-0.1,0-0.2c0-0.1,0-0.2,0-0.3
	V99.9l13.2,8.3c0.5,0.3,1.2,0.5,1.8,0.5c0.6,0,1.3-0.2,1.8-0.5l13.2-8.3v19.8c0,0.3,0.1,0.7,0.2,1c0.1,0.3,0.3,0.6,0.6,0.8
	c0.2,0.2,0.5,0.4,0.8,0.6c0.1,0,0.2,0.1,0.2,0.1c0.1,0,0.2,0,0.2,0.1c0.1,0,0.2,0,0.3,0C117.5,122.3,117.6,122.3,117.7,122.3z"/>
<path class="st1" d="M139,77.7h46.7c0.4,0,0.9,0.1,1.3,0.3c0.2,0.1,0.4,0.2,0.6,0.3c0.1,0.1,0.2,0.2,0.3,0.3c0,0,0.1,0.1,0.1,0.1
	c0.3,0.3,0.6,0.7,0.7,1.1c0.2,0.4,0.3,0.9,0.3,1.3v38.3c0,0.3-0.1,0.7-0.2,1c-0.1,0.3-0.3,0.6-0.6,0.8c-0.2,0.2-0.5,0.4-0.8,0.6
	c-0.3,0.1-0.6,0.2-1,0.2H179c-0.1,0-0.3,0-0.4,0c-0.2,0-0.4-0.1-0.5-0.2c-0.3-0.1-0.6-0.3-0.8-0.6c-0.2-0.2-0.4-0.5-0.6-0.8
	c-0.1-0.3-0.2-0.6-0.2-1V92c0-0.4-0.2-0.9-0.5-1.2c-0.3-0.3-0.7-0.5-1.2-0.5h-24.9c-0.4,0-0.9,0.2-1.2,0.5c-0.3,0.3-0.5,0.7-0.5,1.2
	v27.5c0,0.3-0.1,0.7-0.2,1s-0.3,0.6-0.6,0.8c-0.2,0.2-0.5,0.4-0.8,0.6c-0.2,0.1-0.3,0.1-0.5,0.1c-0.2,0-0.3,0-0.5,0h-7.5
	c-0.1,0-0.2,0-0.2,0c-0.1,0-0.1,0-0.2,0c-0.2,0-0.4-0.1-0.6-0.2c-0.3-0.1-0.6-0.3-0.8-0.6c-0.2-0.2-0.4-0.5-0.6-0.8s-0.2-0.6-0.2-1
	V81.1c0-0.4,0.1-0.9,0.3-1.3c0.2-0.4,0.4-0.8,0.7-1.1c0.3-0.3,0.7-0.6,1.1-0.7C138.1,77.8,138.5,77.7,139,77.7z"/>
<path class="st1" d="M156,108.5V101c0-0.2,0-0.4,0.1-0.6c0-0.1,0.1-0.2,0.1-0.3c0.1-0.3,0.3-0.6,0.6-0.8c0.2-0.2,0.5-0.4,0.8-0.5
	c0.3-0.1,0.6-0.2,1-0.2h7.5c0.3,0,0.7,0.1,1,0.2c0.3,0.1,0.6,0.3,0.8,0.5c0.2,0.2,0.4,0.5,0.6,0.8c0.1,0.3,0.2,0.6,0.2,1v7.5
	c0,0.2,0,0.5-0.1,0.7c0,0.1-0.1,0.2-0.1,0.3c-0.1,0.3-0.3,0.6-0.6,0.8c-0.2,0.2-0.5,0.4-0.8,0.5c-0.3,0.1-0.6,0.2-1,0.2h-7.5
	c-0.3,0-0.7-0.1-1-0.2c-0.3-0.1-0.6-0.3-0.8-0.5c-0.2-0.2-0.4-0.5-0.6-0.8C156.1,109.2,156,108.9,156,108.5z"/>
</svg>
