<svg width="335" height="80" viewBox="0 0 335 80" fill="none" xmlns="http://www.w3.org/2000/svg">
<path d="M292.311 41.5417H257.886C258.303 49.2488 263.833 55.2796 271.956 55.2796C280.08 55.2796 283.601 50.8408 284.271 49.5016H291.81C291.14 53.1024 285.863 62.3172 271.961 62.3172C259.146 62.3172 250.184 52.7699 250.184 40.6239C250.184 28.4779 259.146 18.9307 271.207 18.9307C283.269 18.9307 292.315 27.9769 292.315 41.5464L292.311 41.5417ZM258.387 35.1784H283.85C281.92 28.8947 277.482 25.4625 271.203 25.4625C264.502 25.4625 259.979 29.1475 258.387 35.1784Z" fill="black"/>
<path d="M311.13 43.1333C303.174 42.2109 297.56 38.4416 297.56 30.8234C297.56 23.2053 304.429 18.7617 314.562 18.7617C328.548 18.7617 333.071 25.9632 334.41 30.1538H326.286C325.364 29.0629 322.264 25.2936 314.562 25.2936C308.278 25.2936 305.099 27.5551 305.099 30.5706C305.099 33.586 307.192 35.3466 312.136 35.9318C315.405 36.3486 317.413 36.5171 321.014 36.9385C330.814 38.1934 335 42.3841 335 50.007C335 56.9602 328.637 62.4854 316.908 62.4854C302.336 62.4854 297.223 53.5234 296.301 49.7541H304.425C304.841 51.0933 308.194 55.785 316.903 55.785C323.941 55.785 327.373 53.2705 327.373 50.007C327.373 46.7434 325.612 44.8142 320.003 44.1447L311.125 43.138L311.13 43.1333Z" fill="black"/>
<path d="M109.885 61.3106H102.36V20.2653H109.885V27.7898C111.041 24.8118 114.516 19.9375 124.105 19.9375H128.516V27.462H123.941C113.443 27.462 109.89 30.9785 109.89 38.2501V61.3153L109.885 61.3106Z" fill="black"/>
<path d="M53.0791 14.2393H77.2868C87.5879 14.2393 93.0335 18.931 93.0335 26.9705C93.0335 31.9947 89.4328 35.4315 85.832 36.5178C90.2709 37.7727 94.1245 41.7105 94.1245 47.8257C94.1245 56.1181 88.6789 61.3108 77.7082 61.3108H53.0838V14.2393H53.0791ZM60.7862 21.1082V33.671H76.7015C82.3109 33.671 85.0782 31.578 85.0782 27.3873C85.0782 23.1966 82.3156 21.1036 76.7015 21.1036H60.7862V21.1082ZM60.7862 40.4557V54.4418H77.1182C83.4019 54.4418 86.2488 51.8478 86.2488 47.4043C86.2488 42.9607 83.2334 40.451 77.1182 40.451H60.7862V40.4557Z" fill="black"/>
<path d="M133.67 0H141.625V11.9774H133.67V0ZM133.838 19.9327H141.461V61.3105H133.838V19.9327Z" fill="black"/>
<path d="M184.567 54.1932C183.476 56.2019 178.953 62.317 169.49 62.317C158.435 62.317 149.052 54.2774 149.052 40.6237C149.052 26.9701 158.43 18.9305 169.49 18.9305C178.869 18.9305 183.476 24.5446 184.567 26.8015V7.95508H192.19V61.3103H184.567V54.1932V54.1932ZM170.914 25.968C162.453 25.968 156.927 32.2517 156.927 40.6237C156.927 48.9958 162.457 55.2795 170.914 55.2795C179.37 55.2795 184.731 48.9958 184.731 40.6237C184.731 32.2517 179.201 25.968 170.914 25.968Z" fill="black"/>
<path d="M235.462 54.2727C234.371 56.45 229.848 62.3966 220.385 62.3966C209.33 62.3966 199.946 54.357 199.946 40.7033C199.946 27.0496 209.325 18.9258 220.385 18.9258C229.763 18.9258 234.371 24.6195 235.462 26.8811V19.9278H243.085V59.4374C243.085 71.0777 235.546 79.2062 221.391 79.2062C205.312 79.2062 200.953 68.7365 200.283 66.1378H208.66C209.245 67.1445 212.177 72.1686 221.391 72.1686C230.606 72.1686 235.462 67.4769 235.462 59.4374V54.2727ZM221.808 25.9633C213.347 25.9633 207.822 32.3266 207.822 40.7033C207.822 49.08 213.352 55.359 221.808 55.359C230.264 55.359 235.626 48.8272 235.626 40.7033C235.626 32.5795 230.096 25.9633 221.808 25.9633V25.9633Z" fill="black"/>
<path d="M22.6766 25.8653L40.947 16.1728L37.8754 10.3105L21.1454 17.0297C20.7147 17.2029 20.2371 17.2029 19.8063 17.0297L3.07161 10.3105L0 16.1728L18.2705 25.8653L0 35.553L3.07161 41.4153L19.8016 34.6962C20.2324 34.5229 20.71 34.5229 21.1408 34.6962L37.8707 41.4153L40.9424 35.553L22.6719 25.8606L22.6766 25.8653Z" fill="#1CE783"/>
</svg>
