<svg width="373" height="75" viewBox="0 0 373 75" fill="none" xmlns="http://www.w3.org/2000/svg">
<path d="M55.0879 14.8096H92.6951V21.7782H62.8121V33.5287H80.6912V40.5818H62.8121V54.9367H95.384V61.9899H55.0879V14.8096Z" fill="black"/>
<path d="M122.497 46.457L108.48 61.9851H99.2446L117.879 41.3373L99.1602 20.5205H109.066L122.666 35.8797L136.514 20.5205H145.834L127.283 41.0886L145.834 61.9898H136.429L122.497 46.4617V46.457Z" fill="black"/>
<path d="M201.823 0.206055H209.463V61.9853H201.823V0.206055V0.206055Z" fill="black"/>
<path d="M260.719 41.2529C260.719 53.5947 251.235 62.9942 238.893 62.9942C226.551 62.9942 217.067 53.5947 217.067 41.2529C217.067 28.9112 226.467 19.5117 238.893 19.5117C251.319 19.5117 260.719 28.9112 260.719 41.2529V41.2529ZM252.83 41.2529C252.83 32.9422 247.209 26.5648 238.898 26.5648C230.587 26.5648 224.965 33.1111 224.965 41.2529C224.965 49.3948 230.587 55.9411 238.898 55.9411C247.209 55.9411 252.83 49.5637 252.83 41.2529Z" fill="black"/>
<path d="M338.928 42.1776H304.427C304.845 49.9018 310.387 55.9459 318.529 55.9459C326.671 55.9459 330.195 51.4973 330.871 50.1552H338.426C337.755 53.7638 332.466 62.999 318.534 62.999C305.69 62.999 296.708 53.4307 296.708 41.2578C296.708 29.085 305.69 19.5166 317.778 19.5166C329.867 19.5166 338.933 28.5829 338.933 42.1823L338.928 42.1776ZM304.93 35.8002H330.448C328.52 29.5026 324.071 26.0629 317.773 26.0629C311.058 26.0629 306.525 29.756 304.93 35.8002Z" fill="black"/>
<path d="M158.363 74.0079H150.808V20.5206H158.363V27.6535C159.287 25.5559 164.154 19.5117 173.473 19.5117C184.553 19.5117 193.872 27.5691 193.872 41.2529C193.872 54.9368 184.553 62.9942 173.473 62.9942C164.407 62.9942 159.287 57.2879 158.363 55.27V74.0032V74.0079ZM172.131 55.9457C180.526 55.9457 186.064 49.5637 186.064 41.2576C186.064 32.9516 180.522 26.5695 172.131 26.5695C163.741 26.5695 158.199 32.9469 158.199 41.2576C158.199 49.5684 163.741 55.9457 172.131 55.9457Z" fill="black"/>
<path d="M275.843 61.9851H268.302V20.5158H275.941V28.1555C277.101 25.1709 280.484 20.1826 290.095 20.1826H294.515V27.7238H289.93C279.409 27.7238 275.848 31.5812 275.848 38.8736V61.9898L275.843 61.9851Z" fill="black"/>
<path d="M353.814 61.9851H346.272V20.5158H353.912V28.1555C355.071 25.1709 358.455 20.1826 368.065 20.1826H372.486V27.7238H367.901C357.38 27.7238 353.818 31.5812 353.818 38.8736V61.9898L353.814 61.9851Z" fill="black"/>
<path d="M22.7267 26.4475L41.0376 16.7336L37.9592 10.8584L21.1922 17.5924C20.7605 17.766 20.2818 17.766 19.8501 17.5924L3.0784 10.8631L0 16.7336L18.3109 26.4475L0 36.1614L3.0784 42.0366L19.8454 35.3026C20.2771 35.129 20.7558 35.129 21.1875 35.3026L37.9545 42.0366L41.0329 36.1614L22.722 26.4475H22.7267Z" fill="#84E6F8"/>
</svg>
