<?xml version="1.0" encoding="utf-8"?>
<!-- Generator: Adobe Illustrator 16.0.0, SVG Export Plug-In . SVG Version: 6.00 Build 0)  -->
<!DOCTYPE svg PUBLIC "-//W3C//DTD SVG 1.1//EN" "http://www.w3.org/Graphics/SVG/1.1/DTD/svg11.dtd">
<svg version="1.1" id="Layer_1" xmlns="http://www.w3.org/2000/svg" xmlns:xlink="http://www.w3.org/1999/xlink" x="0px" y="0px"
	 width="500px" height="500px" viewBox="0 0 500 500" enable-background="new 0 0 500 500" xml:space="preserve">
<g>
	<path fill-rule="evenodd" clip-rule="evenodd" fill="#FFFFFF" d="M251.212,504.244c-83.124,0-166.248-0.023-249.372,0.088
		c-3.134,0.003-3.749-0.614-3.747-3.748c0.097-166.249,0.097-332.496,0-498.744C-1.909-1.293-1.293-1.909,1.84-1.907
		c166.248,0.099,332.496,0.099,498.744,0c3.134-0.001,3.748,0.614,3.747,3.747c-0.1,166.248-0.1,332.495,0,498.744
		c0.001,3.134-0.613,3.751-3.747,3.748C417.459,504.221,334.336,504.244,251.212,504.244z M320.298,132.649l-0.104,0.038
		c-21.702,20.851-42.756,42.353-63.946,63.718c-2.078-0.198-2.979-2-4.226-3.243c-18.9-18.834-37.728-37.738-56.642-56.556
		c-5.073-5.048-10.063-10.253-15.627-14.718c-21.591-17.324-55.526-6.883-63.84,19.478c-5.272,16.719-1.217,31.211,10.949,43.481
		c19.429,19.597,39.006,39.046,58.519,58.56c8.154,8.155,8.125,15.376-0.12,23.626c-19.292,19.301-38.548,38.642-57.915,57.87
		c-7.611,7.557-12.23,16.313-13.49,27.125c-2.044,17.561,10.293,37.154,27.199,42.443c17.042,5.33,31.809,1.478,44.367-10.995
		c23.361-23.201,46.647-46.478,69.965-69.723c1.116,1.019,2.274,1.994,3.345,3.06c22.341,22.284,44.641,44.609,67.019,66.857
		c14.972,14.885,33.849,17.681,52.063,7.155c14.385-8.311,20.495-22.984,19.867-37.003c-0.537-12.01-6.103-21.609-14.584-29.964
		c-19.547-19.256-38.846-38.767-58.261-58.156c-1.956-1.953-3.771-3.932-4.502-6.727c-1.502-5.749,0.257-10.381,4.373-14.489
		c18.329-18.296,36.589-36.661,54.874-55l0.268-0.042c0,0,0.063-0.264,0.063-0.263c0.186-0.187,0.368-0.373,0.553-0.559
		c12.911-10.645,19.078-23.936,16.766-40.935c-2.334-17.15-18.847-32.796-36.126-34.252c-16.901-1.424-29.723,5.523-39.997,18.305
		C320.837,132.044,320.567,132.346,320.298,132.649z"/>
	<path fill-rule="evenodd" clip-rule="evenodd" fill="#59BA47" d="M255.386,313.754c-23.318,23.245-46.604,46.521-69.965,69.723
		c-12.559,12.473-27.325,16.325-44.367,10.995c-16.906-5.289-29.244-24.883-27.199-42.443c1.259-10.812,5.878-19.568,13.49-27.125
		c19.367-19.229,38.623-38.569,57.915-57.87c8.245-8.25,8.274-15.471,0.12-23.626c-19.513-19.514-39.089-38.963-58.519-58.56
		c-12.166-12.27-16.221-26.762-10.949-43.481c8.314-26.36,42.249-36.802,63.84-19.478c5.564,4.465,10.555,9.67,15.627,14.718
		c18.915,18.818,37.742,37.722,56.642,56.556c1.247,1.242,2.147,3.045,4.226,3.243c0.425,1.771,1.938,2.694,3.098,3.861
		c8.171,8.218,16.314,16.465,24.59,24.578c16.521,16.198,17.516,43.267,0.106,60.024
		C274.272,294.271,264.924,304.112,255.386,313.754z"/>
	<path fill-rule="evenodd" clip-rule="evenodd" fill="#20B24B" d="M255.386,313.754c9.538-9.642,18.887-19.482,28.655-28.886
		c17.409-16.758,16.414-43.827-0.106-60.024c-8.275-8.112-16.419-16.359-24.59-24.578c-1.16-1.167-2.673-2.09-3.098-3.861
		c21.19-21.366,42.244-42.867,63.946-63.718c0.251,1.276-0.226,2.377-0.76,3.498c-3.808,7.996-5.418,16.146-3.884,25.166
		c3.359,19.729,19.604,33.235,38.703,34.541c9.18,0.627,17.266-2.764,25.327-6.404c-18.285,18.339-36.545,36.705-54.874,55
		c-4.116,4.108-5.875,8.74-4.373,14.489c0.73,2.795,2.546,4.773,4.502,6.727c19.415,19.39,38.714,38.9,58.261,58.156
		c8.481,8.354,14.047,17.954,14.584,29.964c0.628,14.019-5.482,28.692-19.867,37.003c-18.215,10.525-37.092,7.729-52.063-7.155
		c-22.378-22.248-44.678-44.573-67.019-66.857C257.66,315.748,256.502,314.772,255.386,313.754z"/>
	<path fill-rule="evenodd" clip-rule="evenodd" fill="#59BA47" d="M379.58,189.487c-8.062,3.64-16.147,7.031-25.327,6.404
		c-19.1-1.306-35.344-14.812-38.703-34.541c-1.534-9.019,0.076-17.169,3.884-25.166c0.534-1.12,1.011-2.221,0.76-3.498l0.104-0.038
		c0.27-0.303,0.539-0.605,0.808-0.908c10.274-12.782,23.096-19.729,39.997-18.305c17.279,1.456,33.792,17.102,36.126,34.252
		c2.313,16.999-3.854,30.29-16.765,40.933c-0.244,0.126-0.43,0.314-0.554,0.56l-0.063,0.264L379.58,189.487z"/>
	<path fill-rule="evenodd" clip-rule="evenodd" fill="#20B24B" d="M321.105,131.741c-0.269,0.303-0.538,0.605-0.808,0.908
		C320.567,132.346,320.837,132.044,321.105,131.741z"/>
	<path fill-rule="evenodd" clip-rule="evenodd" fill="#20B24B" d="M379.91,189.182c0.124-0.246,0.31-0.434,0.554-0.561
		C380.278,188.809,380.096,188.995,379.91,189.182z"/>
</g>
</svg>
