<svg enable-background="new 0 0 562.3 560.2" viewBox="0 0 562.3 560.2" xmlns="http://www.w3.org/2000/svg" xmlns:xlink="http://www.w3.org/1999/xlink"><clipPath id="a"><circle cx="278.5" cy="278.5" r="277.3"/></clipPath><linearGradient id="b"><stop offset="0" stop-color="#d8ff55"/><stop offset=".09608457" stop-color="#cffc52"/><stop offset=".256" stop-color="#b5f54b"/><stop offset=".4599" stop-color="#8ce83f"/><stop offset=".7" stop-color="#52d72f"/><stop offset=".9677" stop-color="#09c21a"/><stop offset="1" stop-color="#00bf17"/></linearGradient><linearGradient id="c" gradientTransform="matrix(.9525 .3046 .3046 -.9525 -150.0923 312.2098)" gradientUnits="userSpaceOnUse" x1="751.2769" x2="-130.6401" xlink:href="#b" y1="-160.9407" y2="-160.9407"/><linearGradient id="d" gradientTransform="matrix(-.3917 .9201 .9201 .3917 -1588.0111 399.8836)" gradientUnits="userSpaceOnUse" x1="-1120.2208" x2="-565.3184" xlink:href="#b" y1="1669.8514" y2="1669.8514"/><circle cx="278.5" cy="278.5" fill="#333" r="265.7"/><g clip-path="url(#a)"><path d="m538.5 613.6c0-6.9-1.2-11.6-2.3-18.5-2.3-5.8-3.5-9.2-8.1-16.2-2.3-1.2-3.5-1.2-3.5-3.5-1.2-2.3-2.3-6.9-3.5-9.2l3.5-10.4c1.2-3.5 0-8.1 0-12.7-1.2-2.3-4.6-5.8-5.8-8.1-6.9-5.8-13.9-9.2-22-12.7-18.5-16.2-38.1-28.9-56.6-43.9-2.3-1.2-3.5-3.5-4.6-5.8-1.2-2.3-3.5-3.5-2.3-4.6 0-8.1-3.5-16.2-8.1-23.1-4.6-5.8-10.4-9.2-16.2-9.2-6.9 0-13.9 2.3-18.5 4.6-3.5 3.5-8.1 5.8-11.6 9.2-18.5 9.2-38.1 11.6-56.6 22-4.6 2.3-8.1 3.5-10.4 6.9-1.2-4.6-1.2-9.2-2.3-13.9-1.2-2.3-4.6-5.8-5.8-8.1 2.3-20.8-1.2-42.7-8.1-63.5-2.3-6.9-4.6-13.9-5.8-20.8 2.3 4.6 6.9 5.8 10.4 9.2 2.3 4.6 5.8 10.4 9.2 11.6 3.5 1.2 6.9 0 9.2-1.2 2.3 1.2 5.8 2.3 8.1 1.2 6.9-2.3 12.7-4.6 18.5-9.2 5.8-6.9 9.2-16.2 11.6-23.1 1.2-2.3 3.5-3.5 3.5-4.6 1.2-3.5-1.2-9.2-2.3-11.6-5.8-8.1-4.6-18.5-8.1-27.7-2.3-13.9-4.6-26.6 0-40.4 1.2-2.3 2.3-5.8 2.3-8.1 0-12.7-1.2-22-4.6-31.2 2.3 1.2 4.6-1.2 6.9-2.3 1.2-2.3 2.3-1.2 3.5-3.5s3.5-3.5 3.5-3.5c2.3 1.2 6.9 0 9.2-1.2s4.6-2.3 8.1-3.5c2.3-1.2 3.5-4.6 5.8-6.9 2.3 1.2 6.9 0 9.2-1.2s4.6-2.3 8.1-3.5c2.3-1.2 4.6-2.3 5.8-6.9l2.3 1.2c4.6-1.2 6.9-2.3 9.2-3.5 6.9-2.3 9.2-3.5 12.7-6.9 4.6-1.2 6.9-2.3 9.2-3.5 4.6-1.2 8.1-3.5 12.7-6.9 1.2-2.3 2.3-1.2 2.3-1.2 2.3-1.2 4.6-1.2 6.9-2.3 2.3-1.2 6.9-2.3 9.2-3.5s2.3-1.2 4.6-2.3c4.6-2.3 11.6-2.3 16.2-4.6l2.3-1.2c-2.3 1.2-4.6 1.2-6.9 2.3 0 0-2.3-1.2-6.9 0-2.3 1.2-4.6 1.2-6.9 2.3-2.3 1.2-4.6 1.2-6.9 2.3l3.5 1.2c-2.3-1.2-2.3 1.2-4.6 1.2-2.3 1.2-6.9 2.3-9.2 1.2-2.3 1.2-4.6 1.2-6.9 2.3 0 0-2.3 1.2-4.6 1.2-8.1 0-15 1.2-23.1 3.5-2.3-1.2-2.3 1.2-4.6 1.2-3.5 3.5-8.1 3.5-9.2 3.5-4.6 1.2-11.6 1.2-13.9 4.6-2.3-1.2-5.8-2.3-8.1 0-6.9 0-11.6 1.2-17.3 5.8-2.3-1.2-5.8-2.3-8.1 0-2.3-5.8-5.8-4.6-5.8-4.6-4.6-5.8-8.1-6.9-11.6-10.4-13.9-10.4-28.9-17.3-46.2-23.1-5.8-2.3-9.2-3.5-15-6.9-8.1-2.3-12.7-5.8-18.5-10.4-5.8-3.5-10.4-9.2-15-15 1.2 4.6 3.5 8.1 6.9 10.4 4.6 5.8 11.6 12.7 17.3 13.9-11.6-3.5-22-11.6-32.3-19.6-6.9-3.5-13.9-8.1-20.8-8.1s-13.9 4.6-19.6 9.2c4.6-2.3 12.7-4.6 18.5-4.6 10.4 1.2 18.5 8.1 26.6 12.7-8.1-2.3-12.7-5.8-20.8-9.2-6.9 0-11.6 2.3-17.3 5.8 4.6-1.2 8.1-3.5 11.6-2.3 6.9 0 13.9 4.6 19.6 5.8-9.2 3.5-20.8 4.6-27.7 5.8-6.9 2.3-15 1.2-23.1-1.2-3.5-1.2-9.2-4.6-12.7-8.1 1.2 2.3 3.5 8.1 8.1 9.2 5.8 3.5 11.6 5.8 17.3 8.1-6.9 0-12.7 0-19.6-4.6s-11.6-10.4-15-15c2.3 4.6 2.3 11.6 5.8 15 2.3 4.6 8.1 6.9 12.7 8.1-3.5-1.2-8.1-2.3-12.7-5.8-3.5-1.2-6.9-4.6-10.4-9.2 2.3 4.6 4.6 12.7 10.4 16.2 3.5 3.5 6.9 4.6 10.4 8.1-2.3-1.2-6.9 0-8.1 0-10.4-1.2-18.5-1.2-30-1.2s-20.8 5.8-30 11.6c4.6-2.3 12.7-4.6 19.6-6.9 4.6-1.2 11.6-1.2 15-1.2-11.6 2.3-23.1 5.8-33.5 10.4-5.8 4.6-13.9 8.1-16.2 16.2-2.3 5.8 0 12.7 2.3 19.6-1.2-4.6-3.5-9.2-1.2-15s6.9-8.1 12.7-12.7c-3.5 5.8-10.4 11.6-10.4 18.5 2.3 6.9 6.9 12.7 11.6 16.2-3.5-3.5-5.8-8.1-4.6-12.7-1.2-4.6 4.6-6.9 8.1-10.4 8.1-5.8 19.6-6.9 28.9-8.1-8.1 3.5-17.3 6.9-22 15-3.5 5.8-4.6 13.9-2.3 20.8 1.2-3.5 0-8.1 3.5-11.6 3.5-5.8 10.4-6.9 16.2-11.6-1.2 3.5-4.6 6.9-5.8 11.6-4.6 6.9-10.4 13.9-19.6 19.6-4.6 2.3-11.6 2.3-15 1.2-5.8-3.5-10.4-9.2-11.6-16.2 2.3 4.6 2.3 11.6 8.1 15 3.5 3.5 9.2 4.6 15 6.9-6.9 0-15 1.2-19.6-4.6-5.8-3.5-6.9-12.7-6.9-19.6-2.3 8.1-2.3 13.9 1.2 22 4.6 5.8 11.6 10.4 17.3 11.6-5.8-2.3-9.2-3.5-15-6.9-3.5-3.5-6.9-6.9-9.2-11.6 1.2 9.2 8.1 15 15 19.6 9.2 4.6 17.3 5.8 26.6 4.6-3.5 3.5-8.1 5.8-12.7 4.6-8.1 0-18.5-3.5-27.7-2.3-6.9 0-10.4 6.9-15 12.7 3.5-3.5 9.2-8.1 15-8.1 8.1 0 16.2 3.5 22 4.6-4.6 1.2-10.4-1.2-15 0s-11.6 1.2-13.9 4.6c-3.5 3.5-3.5 9.2-2.3 13.9 1.2-2.3 0-6.9 2.3-8.1 3.5-3.5 8.1-3.5 9.2-3.5 3.5 1.2 10.4 1.2 16.2 4.6-6.9 0-11.6 1.2-15 5.8-3.5 5.8-4.6 9.2-6.9 15-3.5 3.5-4.6 9.2-6.9 15-5.8 11.6-8.1 25.4-4.6 39.3 3.5 9.2 6.9 19.6 15 26.6-2.3-4.6-6.9-12.7-6.9-17.3-1.2-9.2-1.2-17.3 3.5-24.3 2.3-5.8 5.8-11.6 8.1-17.3l-1.2 2.3c-1.2 9.2-5.8 17.3-4.6 28.9s5.8 20.8 11.6 30c-1.2-2.3-3.5-8.1-4.6-12.7-2.3-6.9-3.5-16.2-1.2-24.3 3.5-11.6 12.7-19.6 19.6-27.7-4.6 9.2-9.2 16.2-12.7 26.6-2.3 5.8-2.3 12.7 0 19.6 1.2 4.6 3.5 9.2 3.5 16.2 0 6.9 0 12.7-5.8 17.3s-13.9 4.6-19.6 2.3-10.4-8.1-15-13.9c1.2 4.6 3.5 9.2 5.8 15 3.5 3.5 9.2 4.6 12.7 8.1-11.6-3.5-24.3-3.5-35.8-2.3-4.6 1.2-11.6 2.3-15 5.8-3.5 3.5-2.3 8.1-1.2 10.4 2.3 4.6 5.8 10.4 8.1 15-2.3-4.6-5.8-8.1-4.6-12.7s3.5-5.8 5.8-4.6c6.9 0 15 0 23.1 3.5 3.5 1.2 9.2 3.5 12.7 4.6-3.5-1.2-8.1 0-12.7-2.3-2.3-1.2-4.6 1.2-6.9 2.3-1.2 2.3-1.2 3.5 0 6.9 1.2 4.6 3.5 8.1 6.9 10.4-1.2-2.3-2.3-6.9-1.2-9.2 1.2-3.5 5.8-4.6 8.1-3.5 10.4 1.2 20.8 4.6 31.2 5.8 8.1 0 17.3-1.2 23.1-5.8s8.1-10.4 8.1-17.3c0 6.9 0 12.7-3.5 18.5-4.6 6.9-13.9 8.1-20.8 10.4-9.2 1.2-17.3-1.2-27.7-2.3 9.2 3.5 20.8 6.9 31.2 8.1 6.9 0 11.6-1.2 17.3-1.2-8.1 3.5-15 5.8-23.1 5.8-6.9 0-9.2-3.5-16.2-3.5 5.8 2.3 9.2 4.6 15 6.9s12.7 2.3 18.5 1.2c-4.6 2.3-12.7 6.9-18.5 4.6-3.5-1.2-9.2-4.6-12.7-5.8 3.5 3.5 6.9 6.9 11.6 10.4 5.8 2.3 9.2 3.5 16.2 3.5-28.9 20.8-61.2 37-94.7 45.1-8.1 0-13.9-2.3-23.1-3.5s-18.5-1.2-26.6 2.3c-4.6 1.2-6.9 2.3-12.7 4.6-11.6 5.8-24.3 8.1-34.7 17.3-8.1 5.8-15 15-20.8 23.1-8.1-2.3-13.9-4.6-20.8-9.2-10.4-8.1-18.5-15-26.6-24.3-6.9-6.9-12.7-15-16.2-23.1-1.2-4.6-3.5-8.1-6.9-10.4-8.1-9.2-17.3-18.5-28.9-26.6-6.9-4.6-16.2-4.6-24.3-3.5-9.2 1.2-17.3 6.9-24.3 13.9-9.2 8.1-16.2 18.5-22 27.7-8.1-2.3-16.2-4.6-19.6-12.7-4.6-5.8-4.6-12.7-6.9-19.6 0 6.9-2.3 12.7 1.2 17.3 1.2 2.3 2.3 6.9 5.8 10.4-6.9-6.9-12.7-12.7-12.7-20.8s3.5-16.2 5.8-24.3c-3.5 5.8-4.6 9.2-9.2 13.9-2.3 8.1-4.6 13.9-3.5 23.1 1.2 9.2 8.1 15 15 22-5.8-3.5-11.6-5.8-13.9-10.4-3.5-3.5-5.8-8.1-8.1-13.9 3.5 9.2 6.9 19.6 13.9 25.4s13.9 10.4 23.1 16.2c-3.5 16.2-2.3 33.5-3.5 50.8-8.1-2.3-17.3-5.8-26.6-5.8-4.6 1.2-11.6 1.2-13.9 4.6-3.5 5.8-8.1 10.4-6.9 15 2.3-8.1 8.1-12.7 17.3-13.9 8.1 0 16.2 3.5 24.3 5.8-8.1 0-16.2 1.2-23.1 5.8-3.5 3.5-6.9 6.9-8.1 10.4-6.9-12.7-3.5-8.1-1.2-4.6-1.2-2.3-2.3-6.9-1.2-11.6 1.2-3.5 6.9-6.9 10.4-6.9 9.2-1.2 17.3-1.2 25.4 1.2 1.2 4.6 2.3 6.9 2.3 11.6s0 6.9 1.2 11.6c-5.8-2.3-10.4-1.2-16.2-3.5-8.1 0-18.5-1.2-26.6 2.3s-13.9 10.4-18.5 17.3c3.5-5.8 9.2-8.1 16.2-10.4 9.2-3.5 18.5-2.3 28.9-1.2-9.2 1.2-17.3 1.2-23.1 5.8s-9.2 10.4-13.9 17.3c6.9-6.9 15-12.7 22-15 8.1 0 17.3 1.2 27.7 2.3-1.2 3.5-4.6 9.2-8.1 12.7s-8.1 5.8-12.7 6.9c4.6-1.2 9.2-1.2 11.6-2.3 4.6-1.2 5.8-4.6 10.4-6.9-3.5 5.8-5.8 11.6-11.6 16.2-3.5 3.5-8.1 5.8-11.6 9.2-12.7-8.1-26.6-19.6-42.7-22-11.6-3.5-26.6 0-35.8 5.8 6.9-2.3 17.3-5.8 24.3-3.5 8.1 0 17.3 5.8 25.4 10.4-11.6-3.5-23.1-8.1-34.7-6.9-11.6 2.3-19.6 9.2-28.9 16.2 8.1-5.8 17.3-11.6 27.7-12.7 9.2-1.2 18.5 3.5 25.4 10.4 5.8 3.5 10.4 8.1 16.2 11.6-13.9-4.6-27.7-6.9-41.6-6.9-6.9 0-16.2 1.2-22 5.8s-8.1 10.4-8.1 17.3v16.2c0-6.9 0-12.7 3.5-18.5s8.1-5.8 13.9-8.1c4.6-1.2 11.6-1.2 16.2-1.2-6.9 0-13.9 2.3-18.5 4.6-2.3 8.1-4.6 13.9-5.8 17.3 0 6.9 1.2 11.6 1.2 17.3 1.2-2.3 0-6.9 0-8.1 1.2-3.5 2.3-8.1 5.8-11.6 4.6-2.3 11.6-2.3 16.2-3.5 10.4 1.2 19.6 5.8 28.9 11.6-5.8-2.3-13.9-4.6-20.8-4.6-4.6 1.2-11.6 1.2-13.9 4.6-3.5 3.5-4.6 9.2-6.9 15 1.2-3.5 3.5-5.8 6.9-6.9 4.6-2.3 9.2-1.2 12.7 0 8.1 2.3 17.3 8.1 23.1 13.9-5.8-2.3-9.2-4.6-16.2-4.6-5.8-2.3-12.7 0-17.3 1.2 2.3 1.2 4.6-1.2 6.9 0 6.9 0 13.9 2.3 22 6.9 5.8 3.5 10.4 8.1 17.3 12.7 6.9 6.9 16.2 11.6 23.1 16.2 12.7 8.1 27.7 15 42.7 16.2 10.4 1.2 22-1.2 32.3-6.9 10.4-5.8 19.6-12.7 26.6-22-4.6 6.9-8.1 12.7-13.9 17.3-6.9 8.1-17.3 13.9-28.9 16.2-13.9 2.3-27.7 0-39.3-4.6 16.2 4.6 31.2 10.4 47.4 8.1 12.7 0 25.4-4.6 34.7-12.7 11.6-9.2 18.5-22 24.3-35.8 0 8.1 0 15-3.5 23.1-2.3 8.1-8.1 12.7-12.7 17.3-2.3 1.2-3.5 3.5-5.8 4.6l-3.5 9.2c2.3-1.2 5.8-2.3 5.8-4.6 11.6-8.1 19.6-18.5 24.3-33.5 4.6-13.9 2.3-28.9 0-42.7 4.6-8.1 10.4-17.3 10.4-26.6s-1.2-18.5-4.6-26.6c15-12.7 26.6-32.3 31.2-54.3 1.2-2.3 1.2-4.6 3.5-3.5-2.3 5.8-3.5 12.7-4.6 20.8 0 6.9 3.5 12.7 5.8 17.3-2.3-6.9-2.3-13.9 0-20.8 2.3-8.1 6.9-13.9 10.4-19.6 0 9.2-3.5 17.3-1.2 24.3 1.2 2.3 0 6.9 1.2 9.2 1.2 11.6 5.8 24.3 9.2 37 0 9.2 2.3 13.9 4.6 22 1.2 4.6 4.6 8.1 4.6 12.7l-1.2 4.6s-46.2 26.6-61.2 40.4c-5.8 4.6-12.7 6.9-17.3 13.9-3.5 5.8-2.3 12.7 0 19.6-4.6 2.3-10.4 5.8-13.9 10.4-3.5 5.8-2.3 12.7 0 19.6 1.2 2.3 0 6.9 1.2 9.2 1.2 15 3.5 28.9 8.1 43.9 1.2 2.3 1.2 4.6 0 6.9 0 22 9.2 68.2 9.2 68.2l-2.3 5.8s-10.4 8.1-6.9 12.7c1.2 2.3 4.6 5.8 8.1 9.2-2.3 5.8-2.3 12.7-3.5 16.2-1.2 2.3 1.2 2.3 2.3 4.6 5.8 3.5 9.2 4.6 15 6.9s11.6 3.5 18.5 3.5c2.3-5.8 3.5-11.6 1.2-17.3-1.2-4.6-3.5-9.2-6.9-12.7 1.2-3.5 2.3-8.1 2.3-12.7-2.3-6.9-6.9-10.4-9.2-18.5-5.8-10.4-6.9-19.6-5.8-30 0-8.1-1.2-17.3 0-26.6 0-8.1-9.2-28.9-9.2-28.9l6.9-22s32.3 67 42.7 95.9c1.2 2.3-1.2 2.3 1.2 4.6 0 6.9 0 12.7 4.6 20.8 2.3 4.6 8.1 6.9 12.7 8.1-2.3 5.8-1.2 10.4 1.2 17.3 1.2 2.3 3.5 3.5 4.6 5.8 6.9 4.6 12.7 5.8 20.8 9.2 3.5 1.2 8.1 2.3 11.6-1.2-1.2-4.6-1.2-9.2-4.6-13.9-2.3-6.9-6.9-12.7-11.6-18.5 0 0-2.3-1.2-1.2-2.3 2.3-5.8 3.5-9.2 0-15-2.3-4.6-8.1-9.2-12.7-12.7-10.4-12.7-15-26.6-20.8-41.6-6.9-24.3-18.5-75.1-18.5-75.1v-1.2c11.6-6.9 22-15 32.3-19.6 2.3-1.2 6.9-2.3 11.6-2.3 6.9-2.3 13.9-4.6 19.6-9.2 3.5-3.5 6.9-8.1 10.4-11.6 5.8-2.3 12.7-4.6 16.2-10.4s5.8-11.6 8.1-17.3c6.9-2.3 15-5.8 20.8-10.4s8.1-12.7 10.4-20.8c10.4-1.2 19.6-2.3 27.7-8.1 5.8-4.6 9.2-10.4 13.9-17.3 4.6-6.9 6.9-15 9.2-23.1 27.7 9.2 60.1 10.4 87.8 4.6 25.4-4.6 48.5-17.3 70.5-31.2 23.1-16.2 43.9-35.8 62.4-57.8 10.4 3.5 19.6 8.1 28.9 4.6 6.9-2.3 10.4-5.8 16.2-10.4 8.1-5.8 18.5-9.2 28.9-15 23.1-11.6 45.1-24.3 71.6-33.5 11.6 17.3 20.8 37 23.1 57.8-1.2 3.5-2.3 5.8-1.2 10.4 0 6.9 0 12.7 1.2 17.3-2.3 1.2-3.5 3.5-3.5 5.8-1.2 2.3-2.3 5.8 0 8.1-4.6 1.2-8.1 5.8-9.2 10.4-2.3 5.8-2.3 12.7 1.2 17.3 1.2 2.3 2.3 5.8 5.8 8.1s4.6 5.8 8.1 6.9c3.5 1.2 6.9 0 6.9-2.3 3.5-5.8 8.1-10.4 12.7-17.3 4.6-1.2 8.1-3.5 9.2-8.1 2.3-5.8 0-12.7-2.3-20.8-1.2-2.3-1.2-4.6 0-8.1-1.2-24.3-6.9-47.4-13.9-71.6 11.6 5.8 19.6 12.7 30 20.8 3.5 3.5 8.1 6.9 9.2 11.6s3.5 9.2 6.9 11.6c3.5 3.5 8.1 2.3 11.6 3.5-2.3 5.8-3.5 10.4-3.5 16.2 1.2 2.3 2.3 5.8 4.6 5.8-2.3 5.8-2.3 12.7-1.2 18.5 1.2 4.6 3.5 8.1 9.2 11.6 5.8 3.5 12.7 8.1 19.6 8.1 2.3 1.2 6.9 0 8.1-3.5-.2-15.1-1.4-19.7-2.5-24.3zm-256.5-243.8c-1.2-9.2-3.5-16.2-4.6-25.4 2.3 4.6 5.8 8.1 11.6 12.7-4.7 4.6-8.2 8.1-7 12.7z" fill="url(#c)"/></g><path d="m23.2 169.9c60.1-140.9 223-206.8 363.9-146.7s206.8 223 146.7 363.9-223 206.8-363.9 146.7-206.8-222.9-146.7-363.9zm488.7 208c55.5-128.2-4.6-278.4-134-332.7s-278.4 4.6-332.7 134 5.8 278.4 134 333.9 278.4-5.8 332.7-135.2z" fill="url(#d)"/></svg>