<?xml version="1.0" encoding="utf-8"?>
<!-- Generator: Adobe Illustrator 16.0.0, SVG Export Plug-In . SVG Version: 6.00 Build 0)  -->
<!DOCTYPE svg PUBLIC "-//W3C//DTD SVG 1.1//EN" "http://www.w3.org/Graphics/SVG/1.1/DTD/svg11.dtd">
<svg version="1.1" id="Layer_1" xmlns="http://www.w3.org/2000/svg" xmlns:xlink="http://www.w3.org/1999/xlink" x="0px" y="0px"
	 width="500px" height="500px" viewBox="0 0 500 500" enable-background="new 0 0 500 500" xml:space="preserve">
<g>
	<path fill-rule="evenodd" clip-rule="evenodd" fill="#FFFFFF" d="M-2.97-2.97c166.858,0,333.716,0.055,500.575-0.195
		c6.968-0.012,8.347,1.366,8.335,8.334c-0.252,164.146-0.252,328.29,0,492.435c0.012,6.968-1.366,8.346-8.335,8.334
		c-164.144-0.251-328.289-0.251-492.434,0c-6.968,0.012-8.346-1.364-8.336-8.334C-2.914,330.747-2.97,163.889-2.97-2.97z
		 M116.851,132.409c-9.979,0-17.388-0.22-24.775,0.1c-3.417,0.149-8.3-2.166-9.907,2.406c-1.508,4.288,3.24,6.279,5.801,8.692
		c37.994,35.781,75.954,71.602,114.266,107.038c6.108,5.647,7.156,11.267,5.556,18.794c-7.873,37.058-15.55,74.158-23.077,111.289
		c-0.597,2.943-3.411,7.329,0.7,9.144c4.3,1.899,5.273-3.174,6.918-5.747c12.59-19.691,25.106-39.437,37.416-59.304
		c3.142-5.071,6.981-8.688,12.451-11.296c24.147-11.516,47.618-24.606,72.284-34.834c25.42-10.543,45.97-25.174,56.918-51.135
		c2.354-5.584,6.438-6.839,12.132-6.668c12.191,0.37,24.402,0.162,36.603,0.074c2.553-0.018,6.003,1.091,7.072-2.302
		c1.009-3.201-2.26-4.554-4.187-6.287c-7.558-6.801-15.678-13.063-22.614-20.438c-5.446-5.792-11.14-6.31-18.226-5.033
		c-21.338,3.844-42.783,7.086-64.081,11.117c-6.331,1.198-9.911-0.59-13.466-5.666c-11.465-16.374-23.484-32.356-35.018-48.685
		c-3.381-4.789-7.385-7.292-13.229-8.114c-15.09-2.122-30.104-4.782-45.146-7.233c-32.763-5.34-65.523-10.691-98.288-16.019
		c-2.571-0.419-5.6-1.971-7.373,1.093c-1.741,3.008,1.159,4.916,2.612,7.032C110.439,123.7,112.831,126.869,116.851,132.409z"/>
	<path fill-rule="evenodd" clip-rule="evenodd" fill="#33A3D6" d="M116.851,132.409c-4.02-5.54-6.411-8.709-8.657-11.98
		c-1.453-2.116-4.353-4.024-2.612-7.032c1.773-3.064,4.802-1.512,7.373-1.093c32.765,5.327,65.525,10.679,98.288,16.019
		c15.042,2.451,30.056,5.111,45.146,7.233c5.845,0.821,9.849,3.325,13.229,8.114c11.533,16.329,23.553,32.312,35.018,48.685
		c3.555,5.076,7.135,6.864,13.466,5.666c21.298-4.031,42.743-7.273,64.081-11.117c7.086-1.277,12.779-0.759,18.226,5.033
		c6.937,7.376,15.057,13.637,22.614,20.438c1.927,1.733,5.195,3.085,4.187,6.287c-1.069,3.393-4.52,2.284-7.072,2.302
		c-12.2,0.088-24.411,0.296-36.603-0.074c-5.693-0.17-9.777,1.084-12.132,6.668c-10.948,25.961-31.498,40.592-56.918,51.135
		c-24.666,10.228-48.137,23.318-72.284,34.834c-5.47,2.608-9.31,6.225-12.451,11.296c-12.31,19.867-24.826,39.612-37.416,59.304
		c-1.645,2.573-2.618,7.646-6.918,5.747c-4.11-1.814-1.297-6.2-0.7-9.144c7.527-37.131,15.204-74.231,23.077-111.289
		c1.6-7.527,0.552-13.146-5.556-18.794c-38.313-35.436-76.272-71.257-114.266-107.038c-2.561-2.413-7.31-4.404-5.801-8.692
		c1.606-4.572,6.489-2.257,9.907-2.406C99.462,132.189,106.872,132.409,116.851,132.409z M119.912,120.322
		c-0.812-0.148-1.625-0.298-2.438-0.447c0.121,0.752,0.243,1.503,0.364,2.256c31.305,42.921,62.609,85.842,93.716,128.489
		c4.33-1.887,3.278-5.234,4.406-7.571c15.009-31.105,26.76-63.595,40.285-95.334c1.932-4.529,0.653-5.751-3.863-6.452
		C208.209,134.385,164.068,127.325,119.912,120.322z M342.276,254.745c-26.771-36.869-52.271-71.993-78.725-108.423
		c-15.406,37.184-29.998,72.395-44.926,108.423C259.972,254.745,300.061,254.745,342.276,254.745z M218.429,261.811
		c4.486,13.268,9.191,25.87,12.934,38.75c2.251,7.749,5.078,9.43,12.621,5.529c17.997-9.303,36.438-17.749,54.674-26.593
		c11.088-5.374,22.133-10.844,33.197-16.274c-0.15-0.469-0.301-0.939-0.453-1.412C294.448,261.811,257.495,261.811,218.429,261.811z
		 M385.362,192.77c-25.675,4.441-48.101,8.325-71.884,12.44c11.851,16.217,22.853,31.268,34.906,47.762
		C360.677,232.958,372.246,214.126,385.362,192.77z M193.114,366.829c2.843,0.661,4.013-0.57,4.917-2.019
		c9.838-15.748,19.629-31.525,29.467-47.27c1.291-2.069,2.411-4.155,1.561-6.636c-4.416-12.884-8.882-25.751-13.331-38.626
		c-0.641,0.075-1.283,0.146-1.926,0.218C206.936,303.807,200.07,335.115,193.114,366.829z M170.584,212.055
		c1.858-3.88,1.083-5.29,0.079-6.673c-15.079-20.773-30.164-41.541-45.223-62.329c-1.64-2.265-3.377-4.146-6.492-4.123
		c-7.87,0.054-15.741,0.018-23.61,0.018c-0.217,0.777-0.433,1.556-0.649,2.335C119.771,164.671,144.854,188.063,170.584,212.055z
		 M380.783,213.956c11.188,0,22.015,0,33.738,0c-27.713-26.367-19.304-23.538-33.723-1.422
		C380.655,212.754,380.783,213.152,380.783,213.956z"/>
	<path fill-rule="evenodd" clip-rule="evenodd" fill="#FAFDFF" d="M119.918,120.315c44.15,7.01,88.292,14.07,132.464,20.948
		c4.517,0.701,5.795,1.923,3.863,6.452c-13.525,31.739-25.276,64.229-40.285,95.334c-1.128,2.337-0.076,5.684-4.406,7.571
		c-31.107-42.646-62.411-85.567-93.716-128.489C118.532,121.526,119.225,120.92,119.918,120.315z"/>
	<path fill-rule="evenodd" clip-rule="evenodd" fill="#FAFDFF" d="M342.276,254.745c-42.216,0-82.305,0-123.651,0
		c14.929-36.029,29.521-71.239,44.926-108.423C290.005,182.752,315.505,217.876,342.276,254.745z"/>
	<path fill-rule="evenodd" clip-rule="evenodd" fill="#FAFDFF" d="M218.429,261.811c39.066,0,76.019,0,112.972,0
		c0.152,0.473,0.303,0.943,0.453,1.412c-11.064,5.431-22.109,10.9-33.197,16.274c-18.235,8.844-36.677,17.29-54.674,26.593
		c-7.542,3.9-10.369,2.22-12.621-5.529C227.621,287.681,222.916,275.078,218.429,261.811z"/>
	<path fill-rule="evenodd" clip-rule="evenodd" fill="#FAFDFF" d="M385.362,192.77c-13.116,21.356-24.686,40.188-36.978,60.202
		c-12.054-16.494-23.056-31.544-34.906-47.762C337.262,201.095,359.688,197.211,385.362,192.77z"/>
	<path fill-rule="evenodd" clip-rule="evenodd" fill="#FAFDFF" d="M193.114,366.829c6.956-31.714,13.822-63.022,20.688-94.332
		c0.643-0.072,1.285-0.143,1.926-0.218c4.449,12.875,8.916,25.742,13.331,38.626c0.85,2.48-0.27,4.566-1.561,6.636
		c-9.838,15.744-19.629,31.521-29.467,47.27C197.127,366.259,195.957,367.49,193.114,366.829z"/>
	<path fill-rule="evenodd" clip-rule="evenodd" fill="#FAFDFF" d="M170.584,212.055c-25.731-23.992-50.813-47.383-75.895-70.772
		c0.216-0.779,0.432-1.558,0.649-2.335c7.869,0,15.74,0.036,23.61-0.018c3.115-0.022,4.853,1.858,6.492,4.123
		c15.059,20.788,30.144,41.556,45.223,62.329C171.668,206.765,172.442,208.174,170.584,212.055z"/>
	<path fill-rule="evenodd" clip-rule="evenodd" fill="#FAFDFF" d="M380.783,213.956c0-0.803-0.128-1.201,0.016-1.422
		c14.419-22.116,6.01-24.945,33.723,1.422C402.798,213.956,391.971,213.956,380.783,213.956z"/>
	<path fill-rule="evenodd" clip-rule="evenodd" fill="#FAFDFF" d="M117.838,122.131c-0.122-0.753-0.243-1.504-0.364-2.256
		c0.813,0.148,1.626,0.298,2.442,0.442C119.225,120.92,118.532,121.526,117.838,122.131z"/>
</g>
</svg>
