<?xml version="1.0" encoding="utf-8"?>
<!-- Generator: Adobe Illustrator 16.0.0, SVG Export Plug-In . SVG Version: 6.00 Build 0)  -->
<!DOCTYPE svg PUBLIC "-//W3C//DTD SVG 1.1//EN" "http://www.w3.org/Graphics/SVG/1.1/DTD/svg11.dtd">
<svg version="1.1" id="Layer_1" xmlns="http://www.w3.org/2000/svg" xmlns:xlink="http://www.w3.org/1999/xlink" x="0px" y="0px"
	 width="500px" height="500px" viewBox="0 0 500 500" enable-background="new 0 0 500 500" xml:space="preserve">
<g>
	<path fill="#33A3D6" d="M54.342,92.986C48.611,85.09,45.202,80.573,42,75.91c-2.07-3.017-6.204-5.736-3.722-10.024
		c2.528-4.368,6.844-2.155,10.51-1.558c46.704,7.593,93.401,15.222,140.102,22.834c21.44,3.493,42.841,7.285,64.351,10.31
		c8.333,1.17,14.04,4.739,18.858,11.565c16.437,23.276,33.571,46.058,49.915,69.396c5.067,7.236,10.171,9.784,19.193,8.077
		c30.359-5.746,60.927-10.367,91.342-15.847c10.1-1.82,18.216-1.082,25.98,7.174c9.888,10.514,21.462,19.438,32.234,29.132
		c2.747,2.471,7.404,4.398,5.968,8.962c-1.524,4.836-6.442,3.254-10.081,3.28c-17.39,0.126-34.796,0.422-52.174-0.104
		c-8.115-0.242-13.937,1.546-17.293,9.505c-15.605,37.006-44.897,57.861-81.132,72.89c-35.158,14.577-68.616,33.236-103.035,49.652
		c-7.798,3.717-13.271,8.872-17.748,16.1c-17.548,28.319-35.387,56.466-53.333,84.534c-2.344,3.668-3.73,10.899-9.86,8.191
		c-5.858-2.585-1.849-8.837-0.997-13.033c10.729-52.927,21.67-105.811,32.893-158.633c2.28-10.729,0.788-18.739-7.918-26.791
		c-54.613-50.51-108.72-101.569-162.877-152.573c-3.65-3.44-10.419-6.277-8.269-12.39c2.288-6.518,9.25-3.217,14.122-3.43
		C29.555,92.672,40.117,92.986,54.342,92.986z M58.705,75.758c-1.158-0.211-2.316-0.425-3.475-0.638
		c0.173,1.072,0.346,2.142,0.518,3.215c44.622,61.18,89.244,122.361,133.585,183.151c6.17-2.69,4.671-7.461,6.279-10.793
		c21.393-44.337,38.145-90.648,57.422-135.89c2.754-6.456,0.932-8.197-5.506-9.196C184.563,95.803,121.646,85.74,58.705,75.758z
		 M375.666,267.366c-38.161-52.554-74.51-102.621-112.217-154.549c-21.961,53.003-42.759,103.193-64.038,154.549
		C258.349,267.366,315.491,267.366,375.666,267.366z M199.133,277.438c6.393,18.913,13.1,36.877,18.436,55.234
		c3.209,11.047,7.239,13.442,17.99,7.882c25.652-13.261,51.939-25.3,77.933-37.906c15.806-7.66,31.549-15.458,47.321-23.197
		c-0.215-0.669-0.431-1.338-0.646-2.013C307.49,277.438,254.817,277.438,199.133,277.438z M437.081,179.025
		c-36.598,6.331-68.564,11.868-102.465,17.733c16.893,23.115,32.574,44.569,49.755,68.081
		C401.894,236.31,418.385,209.467,437.081,179.025z M163.046,427.132c4.054,0.943,5.721-0.813,7.01-2.877
		c14.023-22.447,27.979-44.937,42.002-67.38c1.84-2.95,3.437-5.923,2.224-9.459c-6.294-18.366-12.66-36.708-19-55.06
		c-0.915,0.108-1.83,0.209-2.745,0.313C182.749,337.3,172.963,381.927,163.046,427.132z M130.933,206.515
		c2.648-5.531,1.544-7.541,0.113-9.512c-21.495-29.61-42.996-59.213-64.462-88.845c-2.337-3.228-4.813-5.909-9.253-5.877
		c-11.219,0.077-22.438,0.026-33.654,0.026c-0.309,1.108-0.618,2.218-0.925,3.329C58.504,138.973,94.256,172.316,130.933,206.515z
		 M430.554,209.225c15.947,0,31.381,0,48.091,0c-39.503-37.584-27.518-33.552-48.07-2.027
		C430.372,207.511,430.554,208.079,430.554,209.225z"/>
	<path fill="#FAFDFF" d="M58.713,75.748c62.933,9.993,125.853,20.055,188.816,29.859c6.438,0.999,8.26,2.741,5.506,9.196
		c-19.277,45.242-36.029,91.553-57.422,135.89c-1.608,3.332-0.109,8.103-6.279,10.793C144.992,200.698,100.37,139.517,55.748,78.335
		C56.738,77.473,57.725,76.61,58.713,75.748z"/>
	<path fill="#FAFDFF" d="M375.666,267.366c-60.175,0-117.319,0-176.254,0c21.281-51.357,42.081-101.545,64.038-154.549
		C301.156,164.746,337.505,214.813,375.666,267.366z"/>
	<path fill="#FAFDFF" d="M199.133,277.438c55.685,0,108.357,0,161.031,0c0.216,0.675,0.432,1.344,0.645,2.013
		c-15.771,7.741-31.514,15.537-47.318,23.197c-25.992,12.606-52.279,24.646-77.935,37.906c-10.749,5.56-14.778,3.165-17.989-7.882
		C212.235,314.314,205.528,296.349,199.133,277.438z"/>
	<path fill="#FAFDFF" d="M437.081,179.025c-18.696,30.441-35.189,57.284-52.71,85.813c-17.182-23.512-32.864-44.964-49.755-68.081
		C368.518,190.893,400.483,185.356,437.081,179.025z"/>
	<path fill="#FAFDFF" d="M163.046,427.132c9.917-45.205,19.703-89.832,29.49-134.462c0.917-0.103,1.832-0.205,2.747-0.311
		c6.341,18.353,12.709,36.693,19,55.059c1.213,3.534-0.384,6.507-2.224,9.459c-14.023,22.441-27.979,44.931-42.002,67.378
		C168.767,426.319,167.1,428.075,163.046,427.132z"/>
	<path fill="#FAFDFF" d="M130.933,206.515c-36.676-34.199-72.429-67.541-108.181-100.879c0.307-1.111,0.616-2.221,0.925-3.329
		c11.217,0,22.436,0.051,33.654-0.026c4.439-0.031,6.917,2.649,9.253,5.877c21.466,29.631,42.968,59.235,64.462,88.845
		C132.478,198.975,133.581,200.983,130.933,206.515z"/>
	<path fill="#FAFDFF" d="M430.554,209.225c0-1.146-0.182-1.712,0.022-2.027c20.553-31.525,8.566-35.557,48.068,2.027
		C461.935,209.225,446.501,209.225,430.554,209.225z"/>
	<path fill="#FAFDFF" d="M55.748,78.335c-0.174-1.073-0.345-2.143-0.518-3.215c1.158,0.211,2.316,0.425,3.48,0.63
		C57.725,76.61,56.738,77.473,55.748,78.335z"/>
</g>
</svg>
