<?xml version="1.0" encoding="utf-8"?>
<!-- Generator: Adobe Illustrator 16.0.0, SVG Export Plug-In . SVG Version: 6.00 Build 0)  -->
<!DOCTYPE svg PUBLIC "-//W3C//DTD SVG 1.1//EN" "http://www.w3.org/Graphics/SVG/1.1/DTD/svg11.dtd">
<svg version="1.1" id="Layer_1" xmlns="http://www.w3.org/2000/svg" xmlns:xlink="http://www.w3.org/1999/xlink" x="0px" y="0px"
	 width="500px" height="500px" viewBox="0 0 500 500" enable-background="new 0 0 500 500" xml:space="preserve">
<g>
	<defs>
		<polygon id="SVGID_1_" points="91.007,35.029 1705.089,35.029 1023.455,476.771 91.007,465.003 		"/>
	</defs>
	<clipPath id="SVGID_2_">
		<use xlink:href="#SVGID_1_"  overflow="visible"/>
	</clipPath>
	<g clip-path="url(#SVGID_2_)">
		<path fill="#DFDFDE" d="M434.838,206.819c0,42.574-15.935,83.904-44.565,115.521c-28.633,31.622-67.97,51.539-110.543,55.77
			c1.99-24.397-5.479-48.798-21.165-67.718c-15.684-18.922-37.842-31.122-62.241-34.11V48.225
			c26.142-10.955,54.524-15.437,82.906-12.698c28.133,2.739,55.273,12.199,78.926,27.885c23.649,15.685,43.071,37.096,56.266,61.994
			C427.866,150.551,434.838,178.436,434.838,206.819L434.838,206.819z"/>
		<path fill="#1E4581" d="M91.506,381.098c-1.743-14.439,0-28.881,4.979-42.573s12.697-25.894,23.154-36.102
			c15.685,23.651,37.097,42.823,61.994,56.268c24.897,13.446,53.031,20.168,81.163,20.168c5.727,0,11.205-0.248,16.933-0.749
			c-1.995,23.407-12.45,45.313-29.629,61.497c-17.179,16.185-39.586,25.147-63.238,25.646c-23.403,0.248-46.309-7.966-63.986-23.652
			C105.449,425.914,94.245,404.502,91.506,381.098L91.506,381.098z"/>
		<path fill="#162F51" d="M196.323,48.473v227.809c24.399,2.74,46.806,14.94,62.241,34.11c15.686,18.92,23.155,43.32,21.165,67.718
			c-5.479,0.501-11.206,0.749-16.933,0.749c-28.382,0-56.266-6.973-81.163-20.168c-24.897-13.444-46.309-32.616-61.994-56.268
			c14.938-14.438,34.357-23.65,55.022-25.893l0,0V59.178C181.384,55.196,188.604,51.461,196.323,48.473L196.323,48.473z"/>
		<path fill="#DFDFDE" d="M91.007,206.819c0-29.877,7.718-59.007,22.408-84.898c14.689-25.894,35.852-47.555,61.497-62.743v217.103
			c-20.666,2.241-40.085,11.454-55.272,26.142C100.718,274.042,90.759,240.927,91.007,206.819L91.007,206.819z"/>
	</g>
</g>
</svg>
