<?xml version="1.0" encoding="utf-8"?>
<!-- Generator: Adobe Illustrator 22.0.1, SVG Export Plug-In . SVG Version: 6.00 Build 0)  -->
<svg version="1.1" id="Layer_1" xmlns="http://www.w3.org/2000/svg" xmlns:xlink="http://www.w3.org/1999/xlink" x="0px" y="0px"
	 viewBox="0 0 255 255" style="enable-background:new 0 0 255 255;" xml:space="preserve">
<style type="text/css">
	.st0{fill:#FF4A4A;}
</style>
<g>
	<path class="st0" d="M163.4,159.4h-10.8c-2,0-3.7-1.6-3.7-3.7v-28.4L130,139.1c-1.6,1-3.6,1-5.2,0L106,127.3v28.4
		c0,2-1.6,3.7-3.7,3.7H91.6c-2,0-3.7-1.6-3.7-3.7l0,0v-54.8c0-2.7,2.2-4.9,4.9-4.9c1,0,1.9,0.3,2.7,0.9l29.8,20.5
		c1.2,0.9,2.9,0.9,4.1,0l29.8-20.5c2.2-1.5,5.3-0.9,6.8,1.3c0.6,0.8,0.8,1.8,0.9,2.7v54.8C167,157.7,165.4,159.4,163.4,159.4
		L163.4,159.4z"/>
	<path class="st0" d="M71.8,159.3h-67c-2.7,0-4.9-2.2-4.9-4.9l0,0V99.3c0.1-2.1,1.7-3.7,3.8-3.7h10.8c2,0,3.7,1.6,3.7,3.7l0,0v41.9
		h40.6V99.3c0-2,1.6-3.7,3.7-3.7H73c2,0,3.7,1.6,3.7,3.7v55.1C76.7,157.1,74.5,159.3,71.8,159.3L71.8,159.3z"/>
	<path class="st0" d="M183.2,95.6h67c2.7,0,4.9,2.2,4.9,4.9v55.1c0,2-1.6,3.7-3.6,3.7l0,0h-10.8c-2,0-3.7-1.6-3.7-3.7l0,0v-39.5
		c0-1.3-1.1-2.4-2.4-2.4l0,0h-35.7c-1.3,0-2.4,1.1-2.4,2.4l0,0v39.5c0,2-1.6,3.7-3.7,3.7H182c-2,0-3.7-1.6-3.7-3.7l0,0v-55.1
		C178.3,97.8,180.5,95.6,183.2,95.6L183.2,95.6L183.2,95.6z"/>
	<path class="st0" d="M211.3,125.3H222c2,0,3.7,1.6,3.7,3.7v10.9c0,2-1.6,3.7-3.7,3.7h-10.7c-2,0-3.7-1.6-3.7-3.7v-11
		C207.6,126.9,209.3,125.3,211.3,125.3z"/>
</g>
</svg>
