<?xml version="1.0" encoding="utf-8"?>
<!-- Generator: Adobe Illustrator 16.0.0, SVG Export Plug-In . SVG Version: 6.00 Build 0)  -->
<!DOCTYPE svg PUBLIC "-//W3C//DTD SVG 1.1//EN" "http://www.w3.org/Graphics/SVG/1.1/DTD/svg11.dtd">
<svg version="1.1" id="Layer_1" xmlns="http://www.w3.org/2000/svg" xmlns:xlink="http://www.w3.org/1999/xlink" x="0px" y="0px"
	 width="500px" height="500px" viewBox="0 0 500 500" enable-background="new 0 0 500 500" xml:space="preserve">
<path fill="#489BD5" d="M420.13,404.732c-0.322,9.162-7.899,16.504-17.19,16.504H152.056c0,0-0.192,0-0.406-0.041h-0.171
	c-0.321,0-0.621,0-0.921,0c-9.463,0-17.147-7.686-17.147-17.169v-6.038c0.043-0.623,0.792-11.903,8.414-25.861
	c12.331-22.587,35.259-39.563,68.12-50.459l100.939-33.459c2.25-0.753,22.521-7.772,42.711-25.113
	c27.703-23.764,42.559-55.47,43.072-91.777l7.151,4.708c16.035,10.555,16.333,29.522,16.333,30.314v198.371l0,0L420.13,404.732z
	 M334.282,169.392c0,18.324-6.55,33.139-20.059,45.278c-10.703,9.634-21.838,13.936-23.205,14.428l-100.706,33.396
	c-60.221,19.974-89.379,54.398-103.231,79.766c-2.59,4.755-4.923,9.68-6.936,14.669c-0.193,0.468-0.364,0.94-0.557,1.412V206.362
	c0-18.303,14.301-28.901,16.185-30.207l0.151-0.043l0.17-0.171l137.612-90.535c15.842-10.425,32.178-0.107,32.349,0l68.247,44.915
	v39.07H334.282z M482.492,401.501V206.362c0-8.884-2.141-54.591-44.423-82.421l-41.148-27.06V35.847
	c0-9.634-7.812-17.448-17.445-17.448h-27.017c-9.635,0-17.449,7.814-17.449,17.448v20.294l-34.68-22.842
	c-25.113-16.527-66.044-22.928-100.897,0L61.649,123.941l-0.149,0.108c-7.75,5.138-44.272,32.026-44.272,82.313v195.139
	c0,18.665,4.325,34.616,12.845,47.417c6.829,10.257,16.356,18.478,28.302,24.447c20.209,10.106,40.119,10.236,40.932,10.236h301.107
	c0.835,0,20.723-0.108,40.953-10.236c11.946-5.97,21.452-14.19,28.302-24.447C478.169,436.139,482.492,420.187,482.492,401.501"/>
</svg>
