<?xml version="1.0" encoding="utf-8"?>
<!-- Generator: Adobe Illustrator 22.0.1, SVG Export Plug-In . SVG Version: 6.00 Build 0)  -->
<svg version="1.1"
	 id="svg2" xmlns:cc="http://creativecommons.org/ns#" xmlns:dc="http://purl.org/dc/elements/1.1/" xmlns:rdf="http://www.w3.org/1999/02/22-rdf-syntax-ns#" xmlns:svg="http://www.w3.org/2000/svg"
	 xmlns="http://www.w3.org/2000/svg" xmlns:xlink="http://www.w3.org/1999/xlink" x="0px" y="0px" viewBox="0 0 341.3 341.3"
	 style="enable-background:new 0 0 341.3 341.3;" xml:space="preserve">
<style type="text/css">
	.st0{fill:url(#path30_1_);}
	.st1{fill:#FFFFFF;}
</style>
<linearGradient id="path30_1_" gradientUnits="userSpaceOnUse" x1="0" y1="683.0039" x2="342.0162" y2="683.0039" gradientTransform="matrix(341.3333 0 0 -341.3333 115713.3281 233302.6563)">
	<stop  offset="0" style="stop-color:#734CE2"/>
	<stop  offset="1" style="stop-color:#4554AD"/>
	<stop  offset="1" style="stop-color:#524DFB"/>
</linearGradient>
<path id="path30" class="st0" d="M341.3,170.7c0,94.3-76.4,170.7-170.7,170.7C76.4,341.3,0,264.9,0,170.7C0,76.4,76.4,0,170.7,0
	C264.9,0,341.3,76.4,341.3,170.7"/>
<path id="path32" class="st1" d="M215.5,124.9c3.5,0,6.8,1.4,9.3,3.9L239,143c1.9,1.9,4.6,3,7.2,3c2.4,0,4.6-0.8,6.4-2.4
	c2.2-1.9,3.4-4.6,3.4-7.4c0-2.6-1-5.1-2.9-7l-14-14c-6.3-6.3-14.7-9.8-23.7-9.8c-8.9,0-17.3,3.5-23.7,9.8l-94.3,94.3
	c-4.2,4.2-9.8,6.6-15.8,6.6h0c-5.5,0-10.8-2.1-14.7-5.8c-4.3-4.1-6.7-9.7-6.7-15.7c0-5.8,2.2-11.2,6.3-15.3l4.2-4.2l8,8v-30.7H48.2
	l8.7,8.7l-3.8,3.8c-16.3,16.3-16.5,42.7-0.5,58.8c7.8,7.9,18.2,12.2,29.3,12.2c11,0,21.4-4.3,29.2-12.1l95-95
	C208.6,126.3,212,124.9,215.5,124.9"/>
<path id="path34" class="st1" d="M288.2,164.9l-7-7l8.7-8.7h-30.7v30.7l8-8l7.4,7.4c4.1,4.1,6.3,9.5,6.3,15.3c0,6-2.4,11.5-6.7,15.7
	c-4,3.8-9.2,5.8-14.7,5.8c-6,0-11.6-2.3-15.8-6.6L192.3,158l-14,14l51.8,51.8c7.8,7.8,18.2,12.1,29.2,12.1
	c11.1,0,21.5-4.3,29.3-12.2C304.7,207.6,304.5,181.2,288.2,164.9"/>
<path id="path36" class="st1" d="M85.7,146.6c1.8,1.5,4,2.4,6.4,2.4c2.7,0,5.3-1.1,7.2-3l17.2-17.2c2.5-2.5,5.8-3.9,9.3-3.9
	c3.5,0,6.8,1.4,9.3,3.9l13.8,13.8l14-14l-13.4-13.4c-6.3-6.3-14.7-9.8-23.7-9.8c-8.9,0-17.3,3.5-23.7,9.8l-16.9,16.9
	c-1.9,1.9-2.9,4.3-2.9,7C82.4,142,83.6,144.7,85.7,146.6"/>
</svg>
