<?xml version="1.0" encoding="utf-8"?>
<!-- Generator: Adobe Illustrator 22.0.1, SVG Export Plug-In . SVG Version: 6.00 Build 0)  -->
<svg version="1.1"
	 id="svg2" xmlns:cc="http://creativecommons.org/ns#" xmlns:dc="http://purl.org/dc/elements/1.1/" xmlns:rdf="http://www.w3.org/1999/02/22-rdf-syntax-ns#" xmlns:svg="http://www.w3.org/2000/svg"
	 xmlns="http://www.w3.org/2000/svg" xmlns:xlink="http://www.w3.org/1999/xlink" x="0px" y="0px" viewBox="0 0 341.3 341.3"
	 style="enable-background:new 0 0 341.3 341.3;" xml:space="preserve">
<style type="text/css">
	.st0{clip-path:url(#SVGID_2_);}
	.st1{fill:url(#path30_1_);}
	.st2{fill:#FFFFFF;}
</style>
<g id="g10" transform="matrix(1.3333333,0,0,-1.3333333,0,341.33333)">
	<g id="g12" transform="scale(0.1)">
		<g id="g14">
			<g>
				<defs>
					<circle id="SVGID_1_" cx="1280" cy="1280" r="170.7"/>
				</defs>
				<clipPath id="SVGID_2_">
					<use xlink:href="#SVGID_1_"  style="overflow:visible;"/>
				</clipPath>
				<g id="g16" class="st0">

						<linearGradient id="path30_1_" gradientUnits="userSpaceOnUse" x1="0" y1="-2562.5298" x2="342.0162" y2="-2562.5298" gradientTransform="matrix(341.3333 0 0 -341.3333 867850.1875 -873396.8125)">
						<stop  offset="0" style="stop-color:#734CE2"/>
						<stop  offset="1" style="stop-color:#4554AD"/>
						<stop  offset="1" style="stop-color:#524DFB"/>
					</linearGradient>
					<path id="path30" class="st1" d="M2560,1280C2560,573.1,1986.9,0,1280,0C573.1,0,0,573.1,0,1280c0,706.9,573.1,1280,1280,1280
						C1986.9,2560,2560,1986.9,2560,1280"/>
				</g>
			</g>
		</g>
		<path id="path32" class="st2" d="M1616.1,1622.9c26.5,0,51.3-10.3,70-29l106.3-106.3c14.3-14.3,34.1-22.6,54.3-22.6
			c17.7,0,34.7,6.3,47.8,17.8c16.2,14.1,25.4,34.5,25.4,55.8c0,19.8-7.7,38.3-21.7,52.3l-104.7,104.7
			c-47.4,47.4-110.5,73.5-177.5,73.5c-67,0-130.1-26.1-177.5-73.5L731.7,988.8c-31.7-31.7-73.8-49.1-118.5-49.1h0
			c-41.6,0-80.8,15.6-110.4,43.8c-32.5,30.9-50.3,72.6-50.3,117.4c0,43.3,16.9,84,47.5,114.6l31.7,31.7l60.2-60.2V1417H361.6
			l65.3-65.3l-28.5-28.5c-122.2-122.2-123.9-320-3.8-440.9c58.6-59,136.8-91.5,220-91.5c82.8,0,160.7,32.3,219.3,90.8l712.3,712.3
			C1564.8,1612.6,1589.6,1622.9,1616.1,1622.9"/>
		<path id="path34" class="st2" d="M2161.6,1323.2l-52.6,52.6l65.3,65.3h-230.1v-230.1l60.1,60.1l55.8-55.8
			c30.6-30.6,47.5-71.3,47.5-114.6c0-44.8-17.9-86.5-50.3-117.4c-29.6-28.3-68.9-43.8-110.4-43.8c-44.7,0-86.8,17.5-118.5,49.1
			l-386.1,386.2l-104.7-104.6l388.7-388.7c58.6-58.6,136.4-90.8,219.3-90.8c83.2,0,161.3,32.5,220,91.5
			C2285.5,1003.2,2283.8,1201,2161.6,1323.2"/>
		<path id="path36" class="st2" d="M643.1,1460.4c13.1-11.4,30.1-17.8,47.8-17.8c20.2,0,40,8.2,54.3,22.6l128.6,128.6
			c18.7,18.7,43.6,29,70,29c26.5,0,51.3-10.3,70-29l103.6-103.6l104.7,104.7l-100.8,100.8c-47.4,47.4-110.5,73.5-177.5,73.5
			c-67.1,0-130.1-26.1-177.5-73.5l-127.1-127.1c-14-14-21.7-32.5-21.7-52.3C617.7,1494.9,626.9,1474.5,643.1,1460.4"/>
	</g>
</g>
</svg>