<?xml version="1.0" encoding="utf-8"?>
<!-- Generator: Adobe Illustrator 16.0.0, SVG Export Plug-In . SVG Version: 6.00 Build 0)  -->
<!DOCTYPE svg PUBLIC "-//W3C//DTD SVG 1.1//EN" "http://www.w3.org/Graphics/SVG/1.1/DTD/svg11.dtd">
<svg version="1.1" id="Layer_1" xmlns="http://www.w3.org/2000/svg" xmlns:xlink="http://www.w3.org/1999/xlink" x="0px" y="0px"
	 width="500px" height="500px" viewBox="0 0 500 500" enable-background="new 0 0 500 500" xml:space="preserve">
<g>
	<path fill-rule="evenodd" clip-rule="evenodd" d="M497.883,497.883c-165.255,0-330.511,0-495.766,0c0-165.255,0-330.511,0-495.766
		c165.255,0,330.511,0,495.766,0C497.883,167.372,497.883,332.628,497.883,497.883z M198.871,249.719
		c0,14.079-0.035,28.161,0.016,42.24c0.022,6.709,2.335,9.177,8.749,9.185c28.16,0.037,56.322,0.03,84.481-0.031
		c6.653-0.014,9.064-2.371,9.078-8.867c0.055-27.971,0.062-55.94,0.007-83.912c-0.014-7.287-2.293-9.462-9.639-9.47
		c-27.59-0.025-55.18-0.024-82.769,0c-7.763,0.008-9.893,2.115-9.911,9.755C198.851,222.318,198.874,236.02,198.871,249.719z
		 M198.839,147.848c0-14.263,0.063-28.525-0.028-42.787c-0.038-6.033-2.265-8.212-8.319-8.221
		c-28.334-0.047-56.671-0.05-85.006,0.004c-6.542,0.012-8.661,2.091-8.671,8.474c-0.047,28.334-0.035,56.67,0.008,85.005
		c0.009,6.318,2.197,8.513,8.628,8.523c28.146,0.049,56.29,0.049,84.436-0.011c7.108-0.015,8.914-1.955,8.942-9.34
		C198.884,175.614,198.845,161.73,198.839,147.848z M351.733,198.859c14.074,0,28.146,0.027,42.22-0.011
		c7.242-0.021,9.212-1.94,9.219-9.067c0.025-27.955,0.021-55.912-0.01-83.869c-0.007-7.133-1.994-9.104-9.183-9.11
		c-27.956-0.026-55.912-0.026-83.869,0.007c-6.817,0.009-8.933,2.063-8.942,8.773c-0.035,28.146-0.038,56.294,0.014,84.439
		c0.014,6.778,2.049,8.78,8.901,8.816C323.967,198.909,337.848,198.859,351.733,198.859z M198.839,352.265
		c0-13.881,0.03-27.765-0.013-41.646c-0.021-7.612-1.821-9.463-9.395-9.473c-27.765-0.031-55.53-0.018-83.295,0.027
		c-7.547,0.011-9.295,1.836-9.302,9.535c-0.024,27.574-0.018,55.149-0.014,82.725c0.001,7.982,1.717,9.738,9.669,9.742
		c27.574,0.018,55.148,0.015,82.724,0.003c7.803-0.003,9.597-1.804,9.624-9.835C198.882,379.65,198.85,365.959,198.839,352.265z
		 M403.207,352.841c0-14.07,0.021-28.142-0.011-42.212c-0.017-7.591-1.821-9.444-9.428-9.455
		c-27.761-0.041-55.523-0.041-83.283-0.006c-7.463,0.013-9.314,1.958-9.318,9.583c-0.021,27.57-0.021,55.144,0,82.713
		c0.007,7.916,1.807,9.715,9.737,9.719c27.76,0.021,55.523,0.021,83.283,0.007c6.964-0.003,8.984-2.073,9.002-9.279
		C403.225,380.221,403.197,366.531,403.207,352.841z"/>
	<path fill-rule="evenodd" clip-rule="evenodd" fill="#FFFFFF" d="M198.873,249.719c0.001-13.699-0.022-27.4,0.011-41.101
		c0.019-7.64,2.148-9.747,9.911-9.755c27.589-0.024,55.179-0.025,82.769,0c7.346,0.008,9.625,2.183,9.639,9.47
		c0.055,27.972,0.048,55.941-0.007,83.912c-0.014,6.496-2.425,8.854-9.078,8.867c-28.159,0.062-56.321,0.068-84.481,0.031
		c-6.414-0.008-8.727-2.476-8.749-9.185C198.836,277.88,198.871,263.798,198.873,249.719z"/>
	<path fill-rule="evenodd" clip-rule="evenodd" fill="#FFFFFF" d="M198.842,147.848c0.003,13.883,0.042,27.767-0.014,41.647
		c-0.028,7.385-1.834,9.325-8.942,9.34c-28.146,0.06-56.29,0.06-84.436,0.011c-6.431-0.011-8.619-2.205-8.628-8.523
		c-0.043-28.335-0.055-56.671-0.008-85.005c0.01-6.383,2.129-8.462,8.671-8.474c28.335-0.054,56.672-0.051,85.006-0.004
		c6.055,0.009,8.281,2.188,8.319,8.221C198.901,119.322,198.839,133.585,198.842,147.848z"/>
	<path fill-rule="evenodd" clip-rule="evenodd" fill="#FFFFFF" d="M351.733,198.859c-13.886,0-27.767,0.05-41.65-0.021
		c-6.853-0.036-8.888-2.038-8.901-8.816c-0.052-28.146-0.049-56.293-0.014-84.439c0.01-6.71,2.125-8.765,8.942-8.773
		c27.957-0.033,55.913-0.033,83.869-0.007c7.188,0.007,9.176,1.978,9.183,9.11c0.031,27.957,0.035,55.914,0.01,83.869
		c-0.007,7.127-1.977,9.047-9.219,9.067C379.879,198.887,365.808,198.859,351.733,198.859z"/>
	<path fill-rule="evenodd" clip-rule="evenodd" fill="#FFFFFF" d="M198.845,352.265c0.005,13.694,0.037,27.386-0.007,41.079
		c-0.027,8.031-1.821,9.832-9.624,9.835c-27.575,0.012-55.149,0.015-82.724-0.003c-7.952-0.004-9.668-1.76-9.669-9.742
		c-0.004-27.575-0.011-55.15,0.014-82.725c0.007-7.699,1.755-9.524,9.302-9.535c27.765-0.045,55.53-0.059,83.295-0.027
		c7.573,0.01,9.373,1.86,9.395,9.473C198.869,324.5,198.839,338.384,198.845,352.265z"/>
	<path fill-rule="evenodd" clip-rule="evenodd" fill="#FFFFFF" d="M403.203,352.841c-0.006,13.69,0.021,27.38-0.014,41.069
		c-0.018,7.206-2.038,9.276-9.002,9.279c-27.76,0.015-55.523,0.015-83.283-0.007c-7.931-0.004-9.73-1.803-9.737-9.719
		c-0.021-27.569-0.021-55.143,0-82.713c0.004-7.625,1.855-9.57,9.318-9.583c27.76-0.035,55.522-0.035,83.283,0.006
		c7.606,0.011,9.411,1.864,9.428,9.455C403.229,324.699,403.207,338.771,403.203,352.841z"/>
</g>
</svg>
