<?xml version="1.0" encoding="utf-8"?>
<!-- Generator: Adobe Illustrator 22.0.1, SVG Export Plug-In . SVG Version: 6.00 Build 0)  -->
<svg version="1.1" id="Layer_1" xmlns="http://www.w3.org/2000/svg" xmlns:xlink="http://www.w3.org/1999/xlink" x="0px" y="0px"
	 viewBox="0 0 1000 1000" style="enable-background:new 0 0 1000 1000;" xml:space="preserve">
<style type="text/css">
	.st0{fill:#FFFFFF;}
</style>
<g>
	<path d="M500.1,993.4C231.2,997.9,5,768.9,6.1,497.8C7.2,232.3,231.3,5.5,501.9,6.5c266.7,1,493.9,225,492,497.4
		C992.1,770.8,768.6,997.5,500.1,993.4z"/>
	<g>
		<path class="st0" d="M603.4,701.9c0,27.8-0.1,55.6,0,83.4c0.1,13.5,4.1,17.9,17.3,17.9c54.9,0.1,109.8,0.1,164.6,0
			c13.3,0,18.6-5.2,18.7-18.3c0.1-54.5,0.1-109,0-163.5c0-13.9-5.2-18.8-19.2-18.8c-54.5-0.1-109-0.1-163.5,0
			c-14.3,0-17.8,3.5-17.9,18.1C603.3,647.8,603.4,674.9,603.4,701.9z"/>
		<path class="st0" d="M395,702.5c0-27.4,0.1-54.9,0-82.3c-0.1-14.9-2.8-17.5-17.9-17.5c-53.8-0.1-107.6-0.1-161.4,0
			c-16.3,0-19.7,3.4-19.7,19.7c-0.1,53.8-0.1,107.6,0,161.4c0,15.5,3.8,19.5,19.1,19.5c54.1,0.1,108.3,0.1,162.4,0
			c13.8,0,17.5-3.8,17.5-17.4C395.1,758.1,395,730.3,395,702.5z"/>
		<path class="st0" d="M499.3,597.9c28.2,0,56.3,0.1,84.5-0.1c12.2-0.1,15-2.7,15-14.6c0.1-56.3,0.1-112.6,0-169
			c0-11.4-3.8-15.2-14.9-15.3c-56-0.1-111.9-0.1-167.9,0c-12.4,0-16.2,3.9-16.2,16.4c-0.1,55.6-0.1,111.2,0,166.8
			c0,13.2,2.5,15.6,16.1,15.7C443.7,598,471.5,597.9,499.3,597.9z"/>
		<path class="st0" d="M703.3,394.2c27.8,0,55.6,0.1,83.4,0c13.5-0.1,17.4-3.9,17.4-17.5c0.1-54.1,0.1-108.2,0-162.4
			c0-13.7-3.8-17.5-17.4-17.5c-55.9-0.1-111.9-0.1-167.8,0c-12.8,0-15.4,2.7-15.4,15.2c-0.1,55.2-0.1,110.4,0,165.6
			c0,13.9,2.7,16.5,16.5,16.6C647.7,394.3,675.5,394.2,703.3,394.2z"/>
		<path class="st0" d="M296.1,394.2c27.8,0,55.6,0.1,83.4,0c12.9-0.1,15.5-2.5,15.5-15.1c0.1-55.6,0.1-111.1,0-166.7
			c0-13.2-2.6-15.6-16.2-15.6c-55.2-0.1-110.4-0.1-165.6,0c-13.7,0-17.2,3.6-17.2,17.5c-0.1,54.5-0.1,109,0,163.5
			c0,13.5,2.9,16.3,16.8,16.4C240.5,394.3,268.3,394.2,296.1,394.2z"/>
	</g>
</g>
</svg>
