<?xml version="1.0" encoding="utf-8"?>
<!-- Generator: Adobe Illustrator 16.0.0, SVG Export Plug-In . SVG Version: 6.00 Build 0)  -->
<!DOCTYPE svg PUBLIC "-//W3C//DTD SVG 1.1//EN" "http://www.w3.org/Graphics/SVG/1.1/DTD/svg11.dtd">
<svg version="1.1" id="Layer_1" xmlns="http://www.w3.org/2000/svg" xmlns:xlink="http://www.w3.org/1999/xlink" x="0px" y="0px"
	 width="500px" height="500px" viewBox="0 0 500 500" enable-background="new 0 0 500 500" xml:space="preserve">
<g>
	<path fill-rule="evenodd" clip-rule="evenodd" fill="#010101" d="M492.724,256.808c0,72.464-0.516,144.944,0.408,217.393
		c0.201,15.186-1.936,19.77-18.73,19.673c-147.433-0.873-294.872-1.019-442.295,0.124c-19.127,0.146-20.564-5.529-20.491-21.771
		c0.667-146.176,0.69-292.365-0.029-438.542c-0.081-16.533,1.787-21.786,20.624-21.646c147.422,1.101,294.864,0.983,442.292,0.095
		c16.997-0.102,18.794,4.813,18.617,19.784C492.253,106.869,492.724,181.842,492.724,256.808z M297.899,297.525
		c-0.152,23.589-0.499,47.186-0.352,70.776c0.052,6.911-3.007,18.309,6.206,18.902c25.966,1.673,53.488,5.473,77.649-1.334
		c14.158-3.983,3.374-29.048,6.221-44.297c6.469-34.739-5.296-50.305-42.441-43.924c-15.703,2.706-32.208,0.771-48.354,0.938
		c0.528-29.913,1.043-59.833,1.562-89.745c22.345-0.301,44.693-0.403,67.038-1.02c7.011-0.199,19.188,3.095,19.886-4.41
		c2.384-25.761,5.655-52.674,0.49-77.466c-3.506-16.805-25.569-7.38-38.964-7.688c-49.402-1.158-49.564-0.476-49.315,50.863
		c0.067,13.577,1.307,27.153,1.915,40.644c-30.419-0.933-60.83-1.856-91.247-2.789c-0.299-22.342-0.398-44.691-1.015-67.027
		c-0.195-7.029,3.096-19.197-4.409-19.895c-25.761-2.384-52.678-5.654-77.462-0.483c-16.81,3.499-7.384,25.562-7.695,38.963
		c-1.156,49.396-0.469,49.557,50.865,49.307c13.581-0.066,27.155-1.305,40.644-1.906c-0.424,30.867-0.85,61.74-1.272,92.607
		c-23.594-0.154-47.189-0.499-70.78-0.345c-6.914,0.043-18.305-3.009-18.899,6.197c-1.672,25.959-5.476,53.488,1.331,77.65
		c3.983,14.157,29.047,3.382,44.301,6.222c34.736,6.476,50.306-5.305,43.916-42.441c-2.702-15.705-0.764-32.21-0.935-48.348
		C237.154,297.496,267.533,297.51,297.899,297.525z"/>
	<path fill-rule="evenodd" clip-rule="evenodd" fill="#FFFFFF" d="M209.207,205.835c-13.574,0.703-27.148,1.942-40.729,2.008
		c-51.334,0.25-52.021,0.088-50.865-49.307c0.312-13.401-9.114-35.464,7.695-38.963c24.785-5.171,51.701-1.901,77.462,0.483
		c7.505,0.698,4.214,12.866,4.409,19.895c0.617,22.335,0.715,44.685,0.971,67.072C208.107,207.075,209.207,205.835,209.207,205.835z
		"/>
	<path fill-rule="evenodd" clip-rule="evenodd" fill="#FFFFFF" d="M299.528,209.855c-0.696-13.579-1.936-27.155-2.003-40.732
		c-0.249-51.339-0.087-52.021,49.315-50.863c13.395,0.308,35.458-9.117,38.964,7.688c5.165,24.792,1.894,51.705-0.49,77.466
		c-0.697,7.505-12.875,4.21-19.886,4.41c-22.345,0.616-44.693,0.718-67.088,0.975C298.296,208.748,299.528,209.855,299.528,209.855z
		"/>
	<path fill-rule="evenodd" clip-rule="evenodd" fill="#FFFFFF" d="M207.849,298.545c0.422-30.867,0.849-61.74,1.314-92.659
		c0.043-0.05-1.056,1.189-1.013,1.138c30.46,0.888,60.871,1.811,91.335,2.787c0.043,0.045-1.189-1.063-1.145-1.013
		c-0.469,29.958-0.983,59.877-1.512,89.79l1.07-1.063c-30.366-0.016-60.745-0.029-91.117-0.045L207.849,298.545z"/>
	<path fill-rule="evenodd" clip-rule="evenodd" fill="#FFFFFF" d="M206.783,297.48c0.171,16.138-1.767,32.643,0.935,48.348
		c6.39,37.137-9.18,48.917-43.916,42.441c-15.253-2.84-40.317,7.936-44.301-6.222c-6.807-24.162-3.003-51.691-1.331-77.65
		c0.594-9.206,11.985-6.154,18.899-6.197c23.591-0.154,47.187,0.19,70.78,0.345L206.783,297.48z"/>
	<path fill-rule="evenodd" clip-rule="evenodd" fill="#FFFFFF" d="M296.829,298.588c16.146-0.168,32.65,1.768,48.354-0.938
		c37.146-6.381,48.91,9.185,42.441,43.924c-2.847,15.249,7.938,40.313-6.221,44.297c-24.161,6.807-51.684,3.007-77.649,1.334
		c-9.213-0.594-6.154-11.991-6.206-18.902c-0.147-23.591,0.199-47.188,0.352-70.776L296.829,298.588z"/>
</g>
</svg>
