<?xml version="1.0" encoding="UTF-8"?>
<svg xmlns:xodm="http://www.corel.com/coreldraw/odm/2003" xmlns="http://www.w3.org/2000/svg" xmlns:xlink="http://www.w3.org/1999/xlink" version="1.1" id="Layer_1" x="0px" y="0px" viewBox="0 0 2500 2500" style="enable-background:new 0 0 2500 2500;" xml:space="preserve">
<style type="text/css">
	.st0{fill-rule:evenodd;clip-rule:evenodd;fill:url(#SVGID_1_);}
	.st1{fill-rule:evenodd;clip-rule:evenodd;fill:url(#SVGID_00000063621749914378814050000004410571046142307486_);}
	.st2{fill-rule:evenodd;clip-rule:evenodd;fill:url(#SVGID_00000147918635762785415600000010839637401687058357_);}
	.st3{fill-rule:evenodd;clip-rule:evenodd;fill:url(#SVGID_00000042008288060297103700000016143533108587079304_);}
	.st4{fill:#EF9146;}
	.st5{fill:#E57622;}
</style>
<g id="Layer_x0020_1">
	<g id="_2806710025216">
		
			<linearGradient id="SVGID_1_" gradientUnits="userSpaceOnUse" x1="1247.0016" y1="1288.9227" x2="1310.0016" y2="101.9228" gradientTransform="matrix(1 0 0 -1 0 2499.2756)">
			<stop offset="0" style="stop-color:#EF9146"></stop>
			<stop offset="1" style="stop-color:#E0592E"></stop>
		</linearGradient>
		<path class="st0" d="M1750,2000c410,0,743-329,750-738v-12c0,690-560,1250-1250,1250S0,1940,0,1250h1000    C1000,1664,1336,2000,1750,2000z"></path>
		
			<linearGradient id="SVGID_00000118356319585817749960000015152627571408599938_" gradientUnits="userSpaceOnUse" x1="1250" y1="1249.2756" x2="1250" y2="62.2756" gradientTransform="matrix(1 0 0 -1 0 2499.2756)">
			<stop offset="0" style="stop-color:#E57722"></stop>
			<stop offset="1" style="stop-color:#F2B24C"></stop>
		</linearGradient>
		<path style="fill-rule:evenodd;clip-rule:evenodd;fill:url(#SVGID_00000118356319585817749960000015152627571408599938_);" d="    M750,2000c-410,0-743-329-750-738v-12c0,690,560,1250,1250,1250s1250-560,1250-1250H1500C1500,1664,1164,2000,750,2000z"></path>
		
			<linearGradient id="SVGID_00000064356410240983026740000002230358970489712515_" gradientUnits="userSpaceOnUse" x1="1250" y1="1249.2756" x2="1250" y2="2499.2756" gradientTransform="matrix(1 0 0 -1 0 2499.2756)">
			<stop offset="0" style="stop-color:#E57722"></stop>
			<stop offset="1" style="stop-color:#DD4A33"></stop>
		</linearGradient>
		<path style="fill-rule:evenodd;clip-rule:evenodd;fill:url(#SVGID_00000064356410240983026740000002230358970489712515_);" d="    M750,500C340,500,7,829,0,1238v12C0,560,560,0,1250,0s1250,560,1250,1250H1500C1500,836,1164,500,750,500z"></path>
		
			<linearGradient id="SVGID_00000122722690083866335830000002246677408019549871_" gradientUnits="userSpaceOnUse" x1="1250" y1="1249.2756" x2="1250" y2="2499.2756" gradientTransform="matrix(1 0 0 -1 0 2499.2756)">
			<stop offset="0" style="stop-color:#EF9046"></stop>
			<stop offset="1" style="stop-color:#F3C44F"></stop>
		</linearGradient>
		<path style="fill-rule:evenodd;clip-rule:evenodd;fill:url(#SVGID_00000122722690083866335830000002246677408019549871_);" d="    M1750,500c410,0,743,329,750,738v12C2500,560,1940,0,1250,0S0,560,0,1250h1000C1000,836,1336,500,1750,500z"></path>
		<polygon class="st4" points="987,1238 12,1238 12,1263 987,1263   "></polygon>
		<polygon class="st5" points="2488,1238 1513,1238 1513,1263 2488,1263   "></polygon>
	</g>
</g>
</svg>
