<?xml version="1.0" encoding="utf-8"?>
<!-- Generator: Adobe Illustrator 25.4.1, SVG Export Plug-In . SVG Version: 6.00 Build 0)  -->
<svg version="1.0" id="Layer_1" xmlns="http://www.w3.org/2000/svg" xmlns:xlink="http://www.w3.org/1999/xlink" x="0px" y="0px"
	 viewBox="0 0 1122 841.8" style="enable-background:new 0 0 1122 841.8;" xml:space="preserve">
<style type="text/css">
	.st0{fill:#F5EADC;}
	.st1{fill:#FFFFFF;}
	.st2{fill:#D26B7F;}
	.st3{fill:#FEECAC;}
	.st4{fill:#EA8397;}
	.st5{fill:#9D988D;}
	.st6{fill:none;}
</style>
<path class="st0" d="M826,53.5c-0.3-2.2,1-4,2.4-5.6l2.9,0.3c0.2,0.6,0.3,1.2,0.5,1.9c-1.7,0.7-3.4,1.5-5,2.5
	c-0.4,0.8-0.7,1.7-1.1,2.6c-0.2-0.5-0.4-1-0.6-1.5L826,53.5z"/>
<path class="st0" d="M831.8,58c2.6-2.7,5.2-6.4,9.4-6.2c-0.1,0.5-0.2,1.5-0.2,2c-3,3-6.5,5.6-8.9,9.1l0.9,1.2
	c2.7-1.5,5.8-1.8,8.5-3.2c0.4,0.6,0.8,1.3,1.2,1.9c-1.2,2.1-2.1,4.3-3.4,6.2c-1.8,2.3-1.5,5.6-0.3,8.1c1.7,0.3,3.5,0.8,5.1,1.5
	c4-1.2,5.5-6,9.6-6.9c-1.3,3-4.4,4.4-6.1,7.1c-1.3,2-2,4.3-3.1,6.4c-0.1,0.8-0.1,1.7-0.2,2.5c2.6-0.8,3.8-3.3,5.7-5.1
	c1.8-0.9,4.2-0.9,5.7-2.4c1.3-1.8,2.1-3.9,3.5-5.7c1,0.4,2.1,0.9,3.1,1.4c-1.2,1.1-2.4,2.2-3.5,3.5c-1.5,1.7-0.7,4.4-2.3,6
	c-2,2.2-3.6,4.7-4.7,7.4c0.1,0.9-0.1,2.3,1.2,2.2c3.6-3.2,5.5-8,9.6-10.8c-0.1-0.7-0.1-1.5-0.1-2.2l2-0.8l1.4-0.1l-2.6,3.3
	c0.4,0.8,0.8,1.5,1.2,2.3c1.2,0.6,2.4,1.4,3.6,2.2c1.2-0.4,2.5-0.8,3.8-1.1c-0.1,3-2.8,4.1-4.9,5.4L865,93c-1.2,1.4-2.5,2.8-3.8,4.2
	l-0.1,0.9c0.9-0.2,1.8-0.4,2.7-0.6c-0.9,2-1.6,4-2.2,6.1c5.1-3.6,6.7-10.2,11.2-14.4c2.8-1.5,5.3-3.9,8.6-4.2
	c-2,4.6-4.8,8.7-8.4,12.2c-1.4,1.5-2.6,3.2-3.6,5c-2.3,4-5.2,7.7-6.8,12c-0.9,2.8-3.8,3.9-5.6,5.9c-4.2,4.2-6.4,9.8-10.2,14.3
	c-1.9,2.2-3.5,4.6-4.8,7.2c-1.2,2.6-4.6,3-5.8,5.6s-3.5,4.1-5,6.4c0.1,1,0.2,2,0.2,3l1.3,1.1c-1,1-2.1,2-3.2,3
	c0-0.8,0.2-2.4,0.2-3.2c-1.7,1.3-3.5,2.4-4.6,4.2c-2.2,4-6.3,6.8-7.9,11.2c-0.5,1.7,1.8,1.6,2.8,2.4c-0.7,2.4-3.2,4.3-2.5,7
	c4.9,1.1,8.3-3.4,10.6-7.1c0.9,3.4-0.7,6.6-1.9,9.7c-1,2.9,0.8,5.4,2.2,7.8c-1.9,3.3-4.9,5.7-7,8.9c0.4,1.9,0.6,3.9,0.9,5.8
	c2.3,0.6,4.7,1.9,7.2,1.6c2.3-1.2,4.1-3.1,6.3-4.6c1.1,2.3,0.1,4.7-1.2,6.7c0.4,0.9,0.8,1.8,1.2,2.7c-4,1.7-5.4,6-7.5,9.4
	c-1.2,2.2,1.6,3,3.1,3.5c0.2,2.1-0.7,4.7,1.1,6.3c1.5,1.6,3.4,2.7,5.6,3.2c0.4,1.5,0.4,3.3,1.9,4.2c1.4-0.1,2.6-1,4-1.5
	c0.1,1,0.2,2,0.3,3c1.5,2.3,4.4,1.6,6.7,2.3c2.3-1.3,3.8-4,6.8-4.2c2.5-0.4,3.7-2.7,5.5-4.1c-2.2-0.4-1.7-2.4-1.7-4l2.1,1.8
	c1.7-0.3,3.1-1.4,3.9-2.9c1.7-3.7,4.3-6.8,7.7-9c1.5-0.9,1.8-3.2,0-4.1c1.5-1,3.2-1.7,4.7-2.8c0.1-2,0-4,2.4-4.6
	c0.6,2.7-0.5,5.2-1.8,7.5c1.8-0.1,3.1-1.5,4.6-2.4c0.9,0.3,1.9,0.5,2.8,0.8c1.1-1.1,2.3-2.1,3.5-3.2c-1.8-0.4-4,0-5.4-1.5
	c1.5-1.8,2.4-3.9,2.6-6.2c2.8-1.2,5.7,1,8.3,1.8c0.5,1.2,1.3,2.2,2.5,2.9c-0.3,0.7-0.7,1.5-1,2.2c0.9,0.6,1.8,1.2,2.7,1.8
	c1.3-1.2,2.1-2.9,2.2-4.7c2.2-1.1,4.6-1.8,7.1-2.3c0.9,0.6,1.9,1.2,2.9,1.7c1-0.4,2-0.8,3-1.3c0.5,1,0.9,2,1.4,2.9
	c-4.8,2.4-9.6,4.9-14.8,5.9c-5.6,1.9-10.7,5.1-16.2,7.1c-3.1,0.9-5.3,3.4-8.2,4.8c-4.8,2.3-8.3,6.6-13,9.2c-3.5,1.8-5.3,5.9-9.2,7.1
	c-3.3,1.1-5.8,3.7-7.9,6.4c-1,0.9,0.1,2.2,0.3,3.2l2.2,0.1c-0.1,0.7-0.2,2.2-0.2,2.9c-0.6,2.1-1.1,4.3-1.9,6.3
	c0.7,1.3,1.6,2.4,2.4,3.6c-0.1,1.8-0.5,3.6-0.9,5.3l4.2,0.7c-0.9,1.6-2.1,3-2.9,4.6c0.3,1.5,0.8,2.9,1.2,4.4c3.4,0.1,4.2-3.4,6-5.6
	c1.8-0.8,3.1,0.8,4.3,1.9c1.4-0.6,2.7-1.2,4-1.9c0.5,0.8,0.8,1.8,1,2.7c-1,1.5-2.6,2.4-3.6,3.9c0.2,1,0.5,1.9,1,2.8
	c2.7-0.4,5.3-1.3,7.6-2.8c2.4-1.4,5.3,0.1,7.7-1.3c1.4-1.5,2-3.4,2.8-5.2l0.9,1c0,0.8,0.1,1.7,0.2,2.5l1.8,1.4
	c-3.1,1.8-5.4,5.2-4.5,8.9l2.9-0.1c-1.1,1.5-2,3.2-2.5,5l1.9,1.7c-0.2,2.8-3,4.2-3.8,6.8c-0.8,2-0.9,4.3-2.1,6.2
	c-2.2,2.4-5.2,4-7.4,6.3c-2.7,2.4-3.8,6.1-6.6,8.5c-2.2,1.8-3.6,4.2-5.4,6.3c-2.7,3.4-6.5,6-8.2,10.2c-2.4,3.6-6.3,5.8-8.9,9.2
	c-1.2,1.7-2.4,3.2-3.8,4.7c25.8,123.6-29.2,250.1-137.2,315.5c-77.4,46.8-171.8,55.8-256.7,24.5c-2.3,1.9-5.4,1.2-8.1,2.1
	c0.7-1.5,1.7-2.9,2.8-4.1c-1-0.4-2-0.7-3-1c-0.9-1-2.4-0.8-3.6-1c0.9,0.6,1.9,1.3,2.8,1.9c-1.5,0.8-3,1.7-4.4,2.7
	c-0.9-0.4-1.7-0.8-2.6-1.1l-1.6-2.7c-1.8,0.4-3.4,1.5-4.5,2.9c-0.7,0.1-1.5,0.2-2.2,0.3c-1.3,1.5-3,2.6-4.9,3.3c0-0.3,0-1,0-1.4
	c3.6-1.7,5.6-5.6,9.5-6.9c0.4-0.8,0.8-1.7,1.3-2.5l-2.1-1c-3.5,2.7-7.7,4.6-10.8,7.8c-1.7-0.6-3.4-1.7-5.3-1.1
	c-4.3,1.1-8,3.7-11.6,6.2c-3.3,2.2-6.8,4.1-10.4,5.8c-4.3,1.7-7,5.9-11.5,7.3c-2.9,1-4.6,3.8-6.5,6c-1.4,2-4.4,2-5.5,4.3
	c-0.6,2.5,2.6,2,4,1.3c4.8-1.1,7-6.1,11.5-7.6l0.2,1.8c-1.4,0.6-2.7,1.3-4.1,1.9c0,1.2-0.1,2.3-0.1,3.5c-2,1-3.8,2.3-5.3,3.9
	c-1.6,1.7-4.2,2-6.2,3.2c-4.7,4.7-11,7.6-15.8,12.1c-1.5,1.5-3.5,2-5.4,2.7c-0.1,1.9,0.3,3.7,1.1,5.4c-1.6,1.3-3.4,2.4-5.3,3.3
	c0.4-1.3,0.8-2.6,1.3-3.9c-2.6,1.3-5.2,3-8.2,2.7c1.6,0.6,3.2,1.1,4.8,1.6c-3.3,3.4-7.4,5.8-11,8.8c-1.2,0.8-2.5,1.3-3.8,1.7
	c0-2.2,0-4.4,0.1-6.6c2.4-1.8,4.9-3.5,7.3-5.3c1.4-1.1,2.1-2.8,3.6-3.9c1.5-1.1,3.2-1.8,4.9-2.2l1-2c-2.8,0-5.5,1.7-8.4,0.7
	c2.5-2.6,5.1-5.1,7.9-7.3c1.2-0.9,2.5-1.7,3.9-2.1l0.5-1.1c-2.5,0-5.4,0.1-7,2.2c-3.8,4.8-10.6,5.4-15.3,9c0.4,1.1,0.7,2.3,0.9,3.4
	c-0.6,0.8-1.2,1.7-1.8,2.5c-5.2,0.2-9.8,3-14.8,4.3c-2.2-1.2-4.1-2.7-5-5.2c2.7-1.3,6-1.5,8.4-3.4c-0.1,1.4-0.1,2.9-0.1,4.3
	c2.9-1.7,6.6-3,8.2-6.2c-1-0.5-2.1-1-3.1-1.5c2.3-1.1,4.4-2.5,6.3-4.2c0.1-1.4-0.1-3.2,1.4-3.8c2.1-1.5,4.6-0.2,6.9,0l-1,2.7
	c2.4-0.7,4.6-2,6.3-3.8c-1.9-0.8-3.3-2.6-3.7-4.6c2-2.1,4.9-3,7-5c1.6-2.7,2.7-5.7,3.2-8.9c-1.3-2.4-4.3-1.4-6.5-1.9
	c0.6-1.2,1.2-2.7,2.5-3.3c3.5-2.1,7.3-4.4,9.2-8.2l-2.4-2.3c-0.6,0.2-1.2,0.5-1.8,0.7c0,1-0.1,2-0.2,3c-2,2.5-5.1,3.6-7.8,5
	c-0.7-1.4-1-3.1-2.5-3.9c-2.7-0.3-5.3-0.9-7.9-1.7c2.2-2.5,4.6-4.7,7.2-6.6c-1.1-4.3,3.5-6.3,6.5-8c2.1-1,2.3-3.3,2.2-5.4
	c1.4-0.3,3.1-0.1,4.3-1.1c1.6-1.4,2.8-3.3,4.9-4.1c1.8-1.7,4.2-2.1,6.4-3.1c0.3-0.9,0.7-1.8,1-2.7l-2-0.9c-2.3,1.4-4.7,3.1-7.6,3.1
	c-4.1-0.2-7.8,2-11.4,3.6c0.8,2.2,1.2,4.5,0.3,6.7c-2.7,2-6.1,3.8-9.6,3.1c-2-0.7-3.8-1.6-6-1.5c1.2-2.8,2.4-5.9,5.1-7.7
	c-1.5-2.3-0.6-4.8,0.5-7c3.8-2.1,6.5-5.6,9.9-8.2c2.3-2.3,5.6-3.6,7.3-6.5l-2.3-0.4c-6.7,2.7-11.6,9.1-19,9.8
	c-10,3.9-18.2,11-27.9,15.5c-5,1.6-9.4,4.4-14,6.9c-5.2,3.5-11,6-16.3,9.5c-2.5,1.7-5.6,2.4-7.6,4.8c-1.3,1.6-3.5,1.8-5.2,2.5
	c-3.7,0.2-7.3,1.1-11,0.9c3.4-2.4,6.6-5,9.6-7.9l0.4-1.3c-1.7-0.3-3.5-0.3-5.2-0.1c0.2-1.7,0.5-3.4,0.9-5.1
	c-0.2-0.4-0.6-1.2-0.8-1.5c-2,0-3.9-0.4-5.8-1.1c-0.4-1.4-1.7-3.3,0-4.3c4.6-3.2,9.7-5.7,14.5-8.5c3.4-2.1,7.3-3.2,10.6-5.5
	c2.6-1.8,5.4-3.2,7.6-5.4c-0.2-0.3-0.6-0.9-0.8-1.2c-0.8-0.4-1.7-0.8-2.5-1.1c0.2-1.4,0.3-2.9,1.5-3.8c5.2-5,12.2-7.8,17.3-13.1
	c0.7-1.7-1.6-1.8-2.7-1.5c-3.8,0.3-7.2,2.2-10.7,3.5c-3.3-2.6-7.1,0-10,1.8c-4.7,3.3-10.1,5.3-15.2,7.6c-2.2,0.9-4.5,2.1-6.9,2.2
	c1.3-2.8,4.3-4,6.8-5.5c3.7-2.2,8-4.1,9.9-8.2c-0.8-1.8-3.5-1.1-5.1-1.9c0.2-1.4,0.6-2.7,0.9-4c-1.1-0.7-2.3-1.4-3.4-2.1
	c-0.4-1-0.8-2-1.2-3c-1.5-0.1-3-0.2-4.6-0.3c0.1-1.5,0.3-3,0.7-4.4c-2.3-1.6-5.2-1.5-7.8-2.2c0.4-2.6,3.3-2.9,5.2-4
	c4.1-1.7,5.9-6.1,9.2-8.7c3.1-0.6,5.4-2.8,7.3-5.2c0.1-1.2-0.8-2.9,0.7-3.6c2.3-1.5,3.6-4,5.7-5.8c1.8-1.3,1.9-3.7,2.9-5.5
	c2.2-2.9,5.8-4.4,7.9-7.4c1-1.3,2.6-1.7,4-2.2c0.1-0.9,0.3-1.7,0.4-2.6c1.4-0.3,2.6-0.9,3.7-1.8l-1.9-1.9c0.9-0.9,1.8-1.7,2.7-2.5
	c1.3,0.2,2.6,0.5,3.9,0.7c1.3-1,2.7-1.9,4-2.8l-2.1-2l1.2-1.9c1-0.3,1.9-0.7,2.9-1c0.4-0.6,0.9-1.2,1.3-1.8c-0.7-1.1-1.4-2.2-2-3.4
	c-2.2,0.7-4.6,1.3-6.3,3c-2.5,2.5-6.2,3.2-8.7,5.8c-1.9,1.9-4.1,3.5-5.5,5.8c-1.2,1.6-2,3.6-3.7,4.8c-3.7,2.8-8.5,4.4-11,8.7
	c-2.6,1.1-5.8,1.1-7.8,3.2c-1.7,1.9-4.5,1-6.7,1.7c-4.2,0.9-7,4.4-10.7,6.2l-1.5,0.2c2.5-3.2,6.1-5.1,8.9-7.8c0.3-1.3-0.9-2-1.7-2.8
	c-2.8,0.8-5.6,1.5-8.3,2.5c-1.8,0.9-2.2,3.4-4.1,4.3c-2.6,1.5-5.3,2.9-8.1,4.1c-1.3,0.4-1.5,1.9-2,2.9c-2.8,0-4.9,2.1-7.6,2.6
	c-0.6-1-1.2-1.9-1.8-2.8c1.6-2.1,4.1-3.1,6.6-3.7c0-0.9,0-1.8,0-2.6c2.8-2.4,6.1-4,8.9-6.3c1.6-1.4,1.9-4.1,4-5.1
	c2.3-1.1,5.1-1.6,6.7-3.8l2.1,0.3c2.1-1.1,4.4-1.8,6.7-2.1c1.4,1,2.9,2,4.4,2.8c2.5,0.8,4.7-1,6.8-2c1.7-0.7,2.4-2.4,3.7-3.6
	c2.3-2.2,4.9-4,7.3-6c2.3-1.7,1.9-4.9,3.5-7c0.6,0.7,1.1,1.4,1.7,2.2c2.5-0.2,3.7-2.8,5.5-4.2c2.4-2.5,6.1-3.6,8-6.7
	c-3.8-0.3-6,3.3-9,5c-2.4,1-5.1,0.8-7.7,1.4c-1.8,0.2-3.9,0.1-5.3,1.6c-1.8,1.8-4.3,2.6-6.6,3.6c-2.1,1.7-4.5,3.2-6.2,5.4
	c1.3,1.5,2.5,3.1,3.4,4.9c-1.3,0.1-2.5,0.2-3.8,0.3c-0.6-1.1-1.1-2.2-1.7-3.2c-2.1,0.2-4.2,0.7-6.1,1.6c-0.7-0.1-2.2-0.2-2.9-0.3
	c2.5-2.3,5.6-3.8,8.9-4.5c2.4-0.7,3.6-3.2,5.8-4.4c2.8-1.2,4.5-3.9,7.1-5.4c3.5-2.2,6.4-5.3,9.4-8.1c1.6-1.3,1.1-3.5,1.4-5.3
	c-2,0.5-4.2,1-5.7,2.5c-3.1,3.2-6.5,6.3-10.9,7.5c1.4-3.3,3.5-6.4,6.1-8.9c0.9,0.3,1.8,0.5,2.7,0.8c1.6-0.6,2.8-1.8,3.5-3.4
	c-1-0.2-1.9-0.4-2.8-0.5c-1.2-1-2.7-1.6-3.9-2.5c-1.1-2.5,0.3-5.4-0.8-8c-0.4-1.3-0.7-2.6-0.7-3.9c-2.7,0.1-5.2,1.4-7.8,1.7
	c-3.1,0.4-5.6,2.4-6.7,5.3c-2.4,0-4.8,0-7.3,0c-0.7,0.7-1.4,1.4-2.1,2.1c-3.2-0.3-6.2,1.5-8.7,3.3c-2.7,2.1-5.8,3.7-9,4.8
	c0.1-2.6,3-2.5,4.6-4c1.3-1.1,1.7-2.8,2.2-4.4c2.6-1.5,5.2-3.3,6.1-6.3c-2.6-1.1-4.6,0.7-6.3,2.4c-0.4-1-0.8-2-1.1-3.1
	c-0.4-0.3-1.1-0.8-1.4-1.1c1.2-2.2,2.5-4.5,2.5-7.1c2.6-2.4,5.5-4.6,7.7-7.5c-0.7-1-1.3-2-1.9-3.1c1.3-1,2.5-2.1,3.6-3.2
	c-0.1-0.9-0.4-1.8-0.8-2.5c1.2-1.6,2.8-3.5,1.3-5.5c-1.1-0.3-2.2-1-3.4-0.4c-4.3,1.6-8.1,4.2-12.7,4.9c-3.4,0.3-6,2.5-9.1,3.5v-1.7
	c1.9-1.2,4.1-2.3,6.4-2c2.1-2.2,3.8-4.9,3.8-8.1c-1.3,0-2.6-0.1-3.9-0.1c1.2-2.7,2.2-5.6,3.1-8.4c0.5-2.1,1.6-4.5,3.8-5.2
	c2.3-0.5,5,0.3,7-1.3c4.1-3.1,9.1-5.3,11.7-10c0-2.6,0-5.2,0.1-7.8l-0.9-1.5c-1.3-0.3-2.5-0.6-3.8-0.8c0.2-1.4,0.3-2.8,0.4-4.2
	c0.5,0.1,1.4,0.2,1.9,0.2c2.2-1.4,4.6-2.6,7-3.7c0,0.7,0,2.1,0.1,2.9l1.1,1c1.7-0.6,3.3-1.2,5-1.8c2.1-0.8,4.5-0.2,6.5-1.4
	c-4.4-28.2-4.8-56.8-1.2-85.1c21-163.1,170.3-278.2,333.4-257.2c21.7,2.8,43,8,63.6,15.5c9.4,3.3,18.4,7.4,27.4,11.5
	c3.5-2.7,7.9-3.8,11.4-6.6c2.7-1.9,5.1-4.6,8.6-5c3.7-0.7,6.2-4.4,10.1-4c-1.1,2.6-4.2,3.4-5.8,5.7c-1.3,1.8-2.2,4.1-4.4,4.9
	c-1.9,0.8-4,2-3.6,4.5c1.2-0.4,2.4-0.9,3.6-1.3c-1.3,1.9-3.2,3.3-4.5,5.1c0.6,1.8,1.8,3.5,0.8,5.4l2.6,1.2c1.9-2.6,4.8-4.4,6.1-7.5
	c0.7-1.6,0.4-3.5,0.8-5.2c1.4-2,3.3-3.5,4.8-5.5c3.8-0.4,6.3-3.3,8.5-6.2l-3.2-0.1c1.8-2.5,5.2-3.6,6.2-6.7l-2.3,0.4
	c0.1-1.3,0.2-2.6,0.4-3.8c3-1.9,5.7-4.3,7.9-7.1c1,0.2,2.1,0.4,3.1,0.5c4.8-1.1,9.2-3.4,14-4.2c-0.1,1.6-0.3,3.2-0.4,4.8
	c2.7,0.3,5.3-0.5,8-1.2c0.1,0.8,0.4,2.3,0.5,3.1c2.2-1.1,4.3-3.1,6.9-2.4c3.6,0.9,6.2-2.2,8.8-4.2c2.7-2.4,6.7-3.4,8.5-6.7
	c1-1.4,0.8-3.2,0.8-4.8c5.4-2.5,10.5-5.9,14.2-10.7c2.7-3.7,6.5-6.8,7.8-11.3c2.2-2.5,4.6-4.7,7.3-6.6c0.4,1,0.8,2,1.3,3
	c5.1-3.2,7.7-9,11.9-13.2c1.4-0.4,3.2,0,4.3-1.2c3.2-2.8,5.8-6.3,9.5-8.5c-0.1,1.4-0.3,2.8-0.5,4.2L831.8,58z M819.8,66.4
	c-3.2,1.9-4.4,6.1-3.7,9.6c2.1-1.9,3.5-4.4,5.2-6.6c1.9-2.8,4.1-5.5,5.7-8.5C823.5,60.8,822.4,64.8,819.8,66.4L819.8,66.4z
	 M785.9,100.3c-2.1,3-4.4,5.8-7,8.5c-2.8,2.6-4.2,6.3-7,8.9c-4.2,3.8-7.1,8.9-10.3,13.5c-1.6,2.6-3.6,5-4.3,8
	c2.6-1.6,5.2-3.3,7.6-5.1c0.6,0.9,1.5,1.8,1.7,2.9c0.2,2.2-1.5,3.8-2.6,5.4c0.1,0.8,0.3,2.3,0.4,3.1c2.9-1.3,5.2-3.7,6.6-6.6
	c0.9-2.1,3.3-2.9,5.1-4l1.9,0.4c1.7-2.5,4.1-4.6,5.1-7.5c0.2-2.8,2.4-4.9,4.1-6.9c-1.4-0.7-1.6-2.3-2.1-3.6
	c3.2-2.9,5.2-6.7,7.2-10.4c2-0.4,4.4-0.3,5.8-2.1c1.5-1.9,2.7-4,3.5-6.3c-4-1.3-7.4,2-8.1,5.8c-0.3,0.3-1,0.9-1.3,1.2l-3.3-1.8
	c1.2-2.2,2.2-4.4,3.1-6.8C789.3,96.5,787.3,98.3,785.9,100.3z M851.6,116.5c-0.3,2.8-2.8,4.8-3.1,7.7c2.5-2.1,4.2-4.9,6.3-7.4
	c1.1-1.2,1.1-2.8,1.2-4.3c1.1-1.5,2.1-3,3-4.7c-1.4-0.3-3.1-1.4-4.3-0.1C852,109.8,852,113.4,851.6,116.5z M753.2,120.9
	c-2.4,1.2-1.9,4.2-2,6.4c1.3,0.2,2.7,1.2,4,0.4c3.3-1.8,5.2-5.4,5.8-9C758.3,119,755.6,119.8,753.2,120.9z M841.2,132.4
	c0.3,0.5,0.7,0.9,1,1.4c0.7-1,1.5-2,2.2-2.9l-1.4-0.3C842.5,131.3,841.8,131.9,841.2,132.4L841.2,132.4z M780.7,136.5
	c-1.7,2.6-4,4.8-5.8,7.3c-0.4,1.2-0.6,3.2,0.9,3.8c3-2.4,5-5.6,7.4-8.6c1.6-1.9,3-4.1,3.9-6.4C784.6,133,782.2,134.4,780.7,136.5
	L780.7,136.5z M838.5,137.9l1.7,0.2c0.7-1.1,1.5-2.2,2.2-3.3C840.6,134.9,839,136.1,838.5,137.9z M737.9,144.6
	c-1.7,1.3-2.2,4.1-4.7,4.2c1.1,0,2.2,0.2,3.2,0.6c2.8-1.7,5.4-3.7,7.8-5.9C742.1,143.5,739.8,143.4,737.9,144.6L737.9,144.6z
	 M747.1,151.4c3.3-1.5,6.6-3.6,8.6-6.8l-0.9-1C750.6,143.5,747.1,147.3,747.1,151.4L747.1,151.4z M710.3,145.1
	c-4.3,4.8-9.4,8.8-13.3,14c1,0.7,2,1.3,3,1.9c1.6-0.8,3.3-1.3,5.1-1.5c0,0.4,0.1,1.1,0.1,1.5c-0.7,0.6-1.4,1.3-2,1.9
	c3.4,2,6.5,4.6,10.4,5.6c2.4-1.6,4.4-3.9,7.3-4.6c1.1-2.2,2.6-4.2,4.2-6c1.1-1.2,2.4-2.5,2.4-4.2c-0.5-0.6-1-1.2-1.5-1.8
	c0.9-2.1,2-4.1,3.2-6.1c-2.3,1-4,3.2-6.6,3.8l0.8-1.3c0-0.7,0-2.2,0-2.9c-2.4,0.3-4.6,1.3-6.3,3.1c-3.3,3.2-7,6-11,8.3
	c1.1-2.2,2.4-4.4,3.9-6.4c-0.6-0.1-1.7-0.3-2.3-0.3c1.7-1.5,3.3-3.3,4.6-5.2L710.3,145.1z M539.4,146.6
	c-130.5,3.8-239.6,100.5-259,229.7c-5.3,35.9-3.4,72.5,5.7,107.7c6.8,26.3,17.6,51.3,32,74.4c78.5,126.5,244.8,165.5,371.3,86.9
	s165.5-244.8,86.9-371.3C725.6,192.3,635.4,143.8,539.4,146.6L539.4,146.6z M731.7,151.2l20.2,8.7c1-0.1,1.9-0.3,2.9-0.4
	c0-0.5,0.1-1.5,0.2-2c-1.3,0.3-2.4,1.2-3.1,2.4L731.7,151.2z M715,170.7c1.7,1.2,3.5,2.4,5.2,3.6c3-3.8,5.5-8.1,8.1-12.1
	c-0.7-0.5-1.3-1-2-1.5C721.8,163.2,720.1,169.1,715,170.7z M811.1,164c1.5-0.9,2.9-2,4-3.3C813.1,160.9,812,162.5,811.1,164
	L811.1,164z M746.4,166.8c0.5,0.8,1.2,1,2.2,0.4l0.3-1.5C748,165.2,746.5,165.7,746.4,166.8L746.4,166.8z M810.6,173.5
	c4,0.3,4.9-4.4,6.3-7.2C813.1,166.7,811.6,170.3,810.6,173.5L810.6,173.5z M736.6,176.4c-1.5,2.3-3.3,4.3-4.8,6.6l2.1,1.9
	c2.8-3.4,6.4-6.4,7.6-10.9C739.7,174.2,737.6,174.7,736.6,176.4L736.6,176.4z M253.2,498.4c1.7,0.3,3.3-0.7,3.9-2.4l-2.3-0.5
	C254.2,496.4,253.7,497.4,253.2,498.4L253.2,498.4z M234.2,510.7c-1,0.6-0.3,1.9-0.4,2.8c4.1-0.4,7.5-3.3,10-6.4
	C240.1,506.2,237,508.6,234.2,510.7L234.2,510.7z M266.7,544.7c1,1,1.9,2.1,2.8,3.2c3.2-0.4,5.1-3.2,6.4-5.8l-0.9-1.4
	C271.9,540.1,267.1,541,266.7,544.7L266.7,544.7z M276.2,547.6c-0.4,0.8-0.8,1.5-1.1,2.3c0.7,0.2,1.4,0.5,2.2,0.8
	c1.1-0.6,0.9-1.8,1-2.8L276.2,547.6z M258.5,627.4c-0.7,1.4,0.2,2.7,1.8,2.1c2.5-1,5-2.7,6.1-5.3
	C263.4,623.7,260.7,625.5,258.5,627.4z M356.8,657.4c-0.8,1.1,0.9,2.6,1.6,1.3C359.3,657.6,357.5,656.1,356.8,657.4L356.8,657.4z
	 M372,664.4c2.8,0.7,5.2-1.1,6.8-3.1l-2.4-1.4C374.7,661.1,373.2,662.6,372,664.4L372,664.4z M349.2,662.8l-25.7,21
	c0,0.4-0.1,1.2-0.2,1.5c1-0.2,2.1-0.3,3.1-0.5c0-0.5,0.2-1.5,0.2-2c-1.1,0.3-2.1,0.6-3.1,1L349.2,662.8z M354.2,675.6
	c1.5,0,2.9-0.8,3.7-2l-2.4-0.6c-26.2,21.9-26.6,22.7-27,23.6L354.2,675.6z M355.2,682.6c0,0.7,0,1.4,0,2.1c1.9,1.1,4.5,1.4,5.5-1
	c-5.5-8.6-16.9-11.2-25.6-5.7s-11.2,16.9-5.7,25.6L355.2,682.6z M363.3,694.3c2.4,2.9,7.2,1.2,8.4-2c-28.5,21.5-32,20.7-34.1,22.9
	L363.3,694.3z M386.6,697.7c2.5,0.3,5.4-0.1,6.7-2.5l-1.9-1.2c-6.8-8.4-19.1-9.8-27.6-3s-9.8,19.1-3,27.6L386.6,697.7z M365.8,702.5
	c-1.3,1.2-3.2,1.3-4.5,2.5c-0.2,1.2-0.3,2.3-0.4,3.5c-1.3,0-2.6,0.1-3.9,0.2c0.6,1.5,1.4,3,2.1,4.5c3.7,0.3,5.9-3,9-4.4
	c1.5-0.9,3.3,0.3,4.9-0.2c2.3-1,4.5-2.2,6.7-3.4c-1.2-3,0.4-5.7,1.8-8.3c-30.6,24.3-37.3,22.2-41.5,26.5L365.8,702.5z M357,727.2
	c0,0.4,0,1.3,0.1,1.7c0.9-0.1,1.8-0.2,2.7-0.3c0.1-0.4,0.2-1.3,0.3-1.7C359,727,358,727.1,357,727.2z M348.2,734.2
	c2.9,0.9,4.2-2.2,5.8-4.1C351.4,730.4,349.5,732.1,348.2,734.2L348.2,734.2z"/>
<path class="st0" d="M791.7,58.2h0.6l-1.6,1.4l-1.8-0.1L791.7,58.2z"/>
<path class="st0" d="M803.5,67.7c0.5-2.1,1.7-4,3.6-5.1C806.9,64.8,805.6,66.8,803.5,67.7z"/>
<path class="st0" d="M789.7,67.1c1.4-1.7,2.6-3.8,4.9-4.1c0,1.5,0.3,3.1-0.6,4.5c-0.9,2.7-4,3.5-5.7,5.6c-2.8,3.1-4,7.6-7.8,9.8
	c0.8-2.3,2.8-4,3.8-6.2c1-1.8-1.2-3.5-0.3-5.3C784.7,68.7,787.4,67.7,789.7,67.1z"/>
<path class="st0" d="M797.3,70.8c-0.8,2.2-2.2,4.1-3.9,5.7l-2.4-0.1C791.6,73.2,795.3,72.7,797.3,70.8z"/>
<path class="st0" d="M889.3,87.3c2.5-2.9,4-6.5,5.8-9.9c0.3,0.4,0.9,1.1,1.2,1.5c-1.5,2.7-2.7,5.5-4.7,7.9
	C890.7,87,890,87.1,889.3,87.3z"/>
<path class="st0" d="M869.1,84.3c0.3-1.9,2-2.9,3.8-3.2C872.1,82.7,870.7,83.8,869.1,84.3z"/>
<path class="st0" d="M881.5,108.3c1.1-1.4,1.8-4.6,4-3.8C885.6,106.6,883.8,109.2,881.5,108.3z"/>
<path class="st0" d="M889.9,110.9c-1.1-0.5-1-1.1,0.1-1.8C891.1,109.7,891.1,110.3,889.9,110.9z"/>
<path class="st0" d="M716.4,121.1c-3.6-2-3.2-6.9-0.2-9.2c0.8,1.2,2.2,2.3,2.2,3.8C718,117.6,717.4,119.4,716.4,121.1z"/>
<path class="st0" d="M769.9,132.4c1-1.2,2.1-2.3,3.2-3.3c0,0.5,0.1,1.5,0.1,2C772.1,131.6,771,132,769.9,132.4z"/>
<path class="st0" d="M851.7,135.9c-0.3-0.8-0.1-1.7,0.6-2.2l1.1,0.7C853.6,135.3,852.6,136.5,851.7,135.9z"/>
<path class="st0" d="M867.5,160c2.6-1.1,4.7-3.6,7.8-3.5c2.2-0.2,4.3,0.9,5.3,2.9c-3.2,0.9-6.6,1-9.9,1.7c-2.9,0.5-5.7,1.4-8.7,0.9
	C863.7,161.1,865.7,160.7,867.5,160z"/>
<path class="st0" d="M838.8,159c1.5-0.7,3.2-1,4.8-1.1c-1.5,2.4-3.1,4.7-4.9,6.8C838.7,162.8,838.7,160.9,838.8,159z"/>
<path class="st0" d="M836.1,165.7l0.8,1c-0.6,1.5-1.4,3-2.2,4.4c-0.4,0.1-1.2,0.2-1.6,0.3c-1,0.1-1.9,0.2-2.9,0.2
	C832.7,170.3,835.1,168.6,836.1,165.7z"/>
<path class="st0" d="M877.5,177.3c1.3-0.8,2.5-1.9,3.8-2.7c1.5,0.8,2.9,1.7,4.3,2.6c-1.5,0.9-3,1.6-4.6,2.5c0,0.7,0,2.2,0,2.9
	c1.6,0.3,3.2,0.4,4.8,0.8c3,2.5,6.8,3.6,10.6,3.1c1.6,1.3,3.8,0.7,5.7,0.9c0.4,1.2,0.7,2.4,1.1,3.6c1.5,0.6,4.5,0.6,4.5,2.8
	c-1.2,1.6-2.6,2.9-4.3,3.8c-0.4-0.6-1.1-1.6-1.4-2.2c-0.6,0.7-1.2,1.3-1.8,2c0.3,2.1-0.3,5.1-2.9,5.3c-0.3-1-0.5-1.9-0.7-2.9
	c-2.5-2.5-6.3-3.3-9.6-2c-0.8,2.7-1.9,5.4-3.3,7.9c-1,1.9-3,3.2-5.1,3.2c-0.5-1.2-1-2.4-1.6-3.6c-3.3,0.5-6.6,1.4-10,0.7
	c1-3.7,5.9-3.2,7.6-6.4c-0.6-0.6-0.7-1.9-1.7-2c-2,0.4-4.1,1.2-6.2,0.8c1-1.1,2.2-2.2,2.5-3.7c-2,1-4.4,1.3-6.5,0.6
	c0-0.2-0.1-0.7-0.1-1c1.6-1,3.3-1.9,4.2-3.7c-1.1-0.5-2.3-1-3.4-1.6c1.3-2.4,3.9-3.7,6.2-4.8c3.4,1.7,7.2-2,7-5.4
	c-2.3-1.1-5-0.7-6.9,0.9c-1.1,1-2.5,1.8-4,2.2c0.1-0.3,0.3-0.9,0.5-1.2c1.9-1.7,3.4-4.5,6.2-4.8c1-0.2,1.9-0.4,2.9-0.5
	C875.4,176.5,876.4,177.3,877.5,177.3z M879.6,186.8c1.6,0.4,2.8-0.5,3.7-1.7C881.9,185.4,880.7,186,879.6,186.8L879.6,186.8z"/>
<path class="st0" d="M516.2,183.1c12.5-1.6,25.3-0.6,37.4,2.8c11.2,4.4,21.6,10.4,31.1,17.8c5.9,4.5,10.9,9.9,16.1,15.2
	c9.7,10.9,17.8,23.2,24.1,36.4c6.7-2.4,13.3-4.9,20.3-6c15.9-3.1,32.5-1.8,48.1,2.2c26,6.9,49.7,21,69.3,39.3
	c14.1,13.4,26.2,29,34.3,46.7c1.2,1.5-0.8,2.3-1.8,3.1c-5.5,3.4-10.8,7-16.1,10.6c-0.9,0.5-1.9,1.2-3,1.2c-3.5-3.4-5.9-7.8-9.7-10.9
	c-0.8-12.4-6.1-23.9-12.4-34.3c-7-11.5-16.2-21.8-27.5-29.1c-9.7-6.3-20.7-10.5-32.1-12.2c-3.7-4.2-9.7-3.9-14.7-5
	c1.1,1.4,2.1,2.7,3.2,4c-2.7,0-5.4,0-8.1,0c-3.1-0.9-6.4-1.5-9.6-1.7l2.2,2.5c-21.6,2.8-42.4,11.4-60.3,23.8
	c-1.6-4.2-2.9-8.5-5-12.5c-1.9-3.5-1.7-7.6-3.3-11.2l-0.2,1.3c-1.5-15.4-4.9-31-13.3-44.2c-6-9.5-14.6-17.1-24.8-21.9
	c-10.7-5.2-22.6-7.1-34.3-8c-14.6-1.1-30-0.5-43.5,5.9c-11.9,5.6-21.1,16.1-26.4,28c-7.7,17.2-9.1,36.5-8.7,55.2
	c0.4,17.5,3.3,34.9,6.6,52c-16.3-10.6-33.7-19.8-52.5-25c-12.9-3.6-26.8-5.3-40-2.5c-6.9,1.5-13.5,4.4-19.2,8.6
	c1.1-2.9,3.7-4.8,6-6.6c2.7-2,5.4-4.3,8.7-5c17.4-3.7,35.3-3.4,52.6,0.8c5.7,1.3,11.1,3.4,16.6,5.1c-0.1-17.1,2.5-34.2,7.8-50.4
	c6.6-19.4,17-37.9,32-52C480,194.4,497.5,185.4,516.2,183.1z"/>
<path class="st0" d="M830.5,193.5c0.9-0.4,1.8-0.8,2.6-1.2c-1,1-1.9,1.9-2.9,2.8C830.3,194.7,830.5,193.9,830.5,193.5z"/>
<path class="st0" d="M322,418.3c3,14.4,9.4,28.4,19.5,39.3c8.4,8.9,18.8,15.5,30.4,19.4c14.4,5,29.8,6.2,45,5.8
	c-2.8,4.8-5.8,9.5-8.2,14.5c-13.2-3.7-26.1-8.3-38.6-13.9c-12.3-5.6-24.3-12.3-34.6-21.1c-9.3-7.7-17.1-17-23.1-27.4
	c-1.5-2.7-3.3-5.2-4-8.3c3.1-3.8,8.7-4.2,12.6-6.8L322,418.3z"/>
<path class="st0" d="M256.3,573.9c1.1-1.3,3,0.2,1.3,1.3C256.6,576.8,254.9,575,256.3,573.9z"/>
<path class="st0" d="M253.9,580.3c0.2-1,2.5-2.1,3-0.8C256.4,580.4,254.7,581.4,253.9,580.3z"/>
<path class="st0" d="M242.7,615.9c2.5-4,6.8-6.7,11.2-8.1C250.6,611,247.9,616,242.7,615.9z"/>
<path class="st0" d="M224.2,649.1c1.4-3,3.2-5.8,5.3-8.3l1.5,1.3c-1.4,2.3-3.6,4.2-4.2,6.9L224.2,649.1z"/>
<path class="st0" d="M236.4,645.6c0.7-1.6,1.9-3,3.4-4c0.9-0.5,1.3,0.7,1.9,1.1C240.3,644.3,238.4,645.3,236.4,645.6z"/>
<path class="st0" d="M432.5,722h1.6v1.3l-1.8,0.3C432.3,723.2,432.4,722.4,432.5,722z"/>
<path class="st0" d="M473.5,721.8h1.8c-0.1,0.3-0.2,1-0.3,1.4l-1.4,0.2C473.6,723,473.5,722.2,473.5,721.8z"/>
<path class="st0" d="M479,723.2c0.2-0.9,1.1-1.4,2-1.2c0,0.3,0.2,0.9,0.2,1.2C480.7,723.9,479,724.6,479,723.2z"/>
<path class="st0" d="M426.6,728.4c1.5,0.8,1.8,2.4,0.3,3.4l-1.6-0.8C425.8,730.1,426.2,729.2,426.6,728.4z"/>
<path class="st0" d="M421.1,733.1l0.8,0.4c-0.2,0.2-0.6,0.5-0.8,0.6c-0.3,3.2-3,5.3-5.7,6.5c-0.3-0.6-1-1.9-1.3-2.5
	c2-1.7,4.1-4,6.9-4.2L421.1,733.1z"/>
<path class="st0" d="M424.1,737.9c2.2-1.5,4.4-3.8,7.4-3.1c-1.7,1.6-3.5,3.1-5.4,4.5l-1.8-0.1C424.2,738.9,424.1,738.2,424.1,737.9z
	"/>
<path class="st0" d="M423.6,745.9c0.7-1.3,1.8-2.5,3.1-3.3C427.2,744.8,425.1,745.3,423.6,745.9z"/>
<path class="st0" d="M407.1,750.3c0.7-2.1,2.6-3.5,4.8-3.6C411,748.6,409.5,750.6,407.1,750.3z"/>
<path class="st0" d="M368.2,751.6c-0.8-1,0.8-2.2,1.6-1.2C370.6,751.3,369,752.5,368.2,751.6z"/>
<path class="st0" d="M338.3,759c2.6-1,5.1-3.5,8-1.9c-2.2,2.2-4.6,4-7.3,5.6c-0.1,1.2,1.3,1.7,1.9,2.6c-1.4,1.2-3.3,1.3-5,1.9
	c-2.7,1-4.7,3.3-7.5,4.2c-1.4,0.2-2.8,0.2-4.2,0.1c-0.1-0.9-0.2-1.8-0.2-2.7c2.4-1.3,5.4-1.8,6.8-4.4
	C332.4,761.6,335.4,760.2,338.3,759z"/>
<path class="st0" d="M400,769.4c3.9-1.7,7.4-4.3,11.4-5.9c-0.1,2.4-2.7,3.3-4.4,4.6c-4,1.9-7.8,4.1-11.5,6.5c0.7-1.5,1.6-3,2.3-4.5
	c-1-0.8-2-1.5-3.1-2.2c0.4-0.5,0.9-0.9,1.3-1.3C397.2,767.7,398.2,769.3,400,769.4z"/>
<path class="st0" d="M368.8,781.7l1.8-0.3c-1.5,1.3-3,2.5-4.7,3.5c0-0.5,0.1-1.3,0.1-1.8C367,782.6,367.9,782.2,368.8,781.7z"/>
<path class="st0" d="M346,788.8c0.3-1.2,0.9-1.5,1.8-0.7c-0.1,0.4-0.3,1.3-0.5,1.8L346,788.8z"/>
<path class="st0" d="M348.6,790.5c2.2-1.3,4.8-0.5,7.2-0.4c-0.2,1.3-0.2,2.9-1.6,3.7c-2.2,0.1-4.4-0.6-6.6-1L348.6,790.5z"/>
<path class="st1" d="M539.4,146.6c148.9-4.3,273.1,112.9,277.4,261.7S703.9,681.4,555,685.7C459,688.5,368.7,640,318,558.3
	c-14.4-23-25.1-48.1-31.9-74.3c-9-35.2-11-71.8-5.7-107.7C299.7,247,408.8,150.2,539.4,146.6L539.4,146.6z M516.2,183.1
	c-18.6,2.3-36.2,11.2-49.8,24.1c-15,14.1-25.4,32.6-32,52c-5.3,16.3-7.9,33.3-7.8,50.4c-5.5-1.7-11-3.8-16.6-5.1
	c-17.2-4.2-35.2-4.5-52.6-0.8c-3.3,0.8-6,3-8.7,5c-2.3,1.8-4.9,3.6-6,6.6c-6.6,5.4-11.8,12.3-15.4,20c-8,17.3-9.1,36.7-8.7,55.5
	c-0.1,9.3,1.1,18.6,3.4,27.6l-1,1.5c-4,2.7-9.5,3-12.6,6.8c0.6,3,2.5,5.6,4,8.3c6,10.4,13.8,19.7,23.1,27.4
	c10.4,8.8,22.3,15.5,34.6,21.1c12.5,5.6,25.4,10.2,38.6,13.9c-8.1,16-14,33.5-14.7,51.6c-0.7,15.1,2.7,30.6,10.8,43.5
	c5.7,9.3,13.6,17,22,23.8c11.3,9,24.6,16,39,18.4c13.7,2.5,27.9,0.5,40.8-4.4c13.8-5.2,26.2-13.6,37-23.4c18.8-17.3,33.8-39,42-63.2
	c2.2,1.3,3.8,3.4,5.7,5.2c6.6,6.4,13.7,12.3,21.2,17.6c19,13.5,40.6,24.2,63.8,28.1c15.8,2.7,32.8,1.7,47.3-5.5
	c11.5-5.6,20.9-15.1,27.2-26.1c7.5-13,13-27.3,15-42.2c2-14.5,0.5-29.2-4.2-43c-8-23.2-24.4-42.7-43.8-57.2
	c15.6-10.6,30.1-23.8,39.6-40.5c6.8-11.6,9.9-25,9-38.5c3.8,3.1,6.2,7.5,9.7,10.9c1.1,0,2-0.7,3-1.2c5.4-3.5,10.7-7.2,16.1-10.6
	c1-0.8,3-1.6,1.8-3.1c-8.1-17.7-20.2-33.4-34.3-46.7c-19.5-18.3-43.3-32.4-69.3-39.3c-15.7-4-32.2-5.2-48.1-2.2
	c-7,1.2-13.7,3.7-20.3,6c-6.3-13.2-14.4-25.4-24.1-36.3c-5.2-5.2-10.3-10.7-16.2-15.2c-9.5-7.4-19.9-13.4-31.1-17.8
	C541.4,182.5,528.7,181.6,516.2,183.1L516.2,183.1z"/>
<path class="st1" d="M835.8,165.4l1.9,0.8c-0.4,0.9-0.9,1.7-1.3,2.6c-0.7,1-1.4,2-2.1,3l-1.3-0.3c0.4-0.1,1.2-0.2,1.6-0.3
	c0.9-1.4,1.6-2.9,2.2-4.4l-0.8-1L835.8,165.4z"/>
<path class="st1" d="M679.8,260.9c5,1.1,11,0.8,14.7,5c-3.8-0.6-7.7-0.9-11.5-1C681.9,263.5,680.9,262.2,679.8,260.9z"/>
<path class="st1" d="M665.2,263.2c3.3,0.2,6.5,0.8,9.6,1.7c-2.5,0.2-4.9,0.5-7.4,0.8L665.2,263.2z"/>
<path class="st1" d="M598.9,265.8c1.6,3.6,1.4,7.7,3.3,11.2c2.1,4,3.4,8.3,5,12.5c-2.7,1.9-5.3,4-8,5.9c0.6-9.4,0-18.8-0.6-28.2
	L598.9,265.8z"/>
<path class="st2" d="M510.9,230.9c5.2,6.3,8.4,14,11.2,21.6c4.7,13.8,6.9,28.3,8.5,42.7c1.5,15.3,2.2,30.6,3,45.9
	c0.2,4.4,0.7,8.7,0.4,13.1c-1.4,0.1-2.8,0.1-4.1,0.3c-0.6-34.9-6.6-69.5-14.4-103.4C514.1,244.2,512,237.7,510.9,230.9z"/>
<path class="st2" d="M653.6,329.4c18.8-8.9,40.6-11.8,60.8-6.3c-4.4,1.1-8.9,0.3-13.4,0.6c-15.2,1-30.1,5-43.8,11.6
	c-22.2,10.5-40.7,27.4-56.2,46.1c-2.5,3.1-4.8,6.4-7.5,9.4c-0.8-1.6-1.7-3.2-2.5-4.8c-0.3-1.1,0.5-2,1-2.9
	c8.5-11.3,17.9-21.7,28.3-31.2C630.2,342.9,641.4,335.3,653.6,329.4z"/>
<path class="st2" d="M363.6,391.7c14.6-6.9,31.3-8,47.1-5.8c22.3,3.5,42.9,13.2,63,23c0,1.1-0.1,2.2-0.1,3.3
	c-0.1,1.8-0.2,3.6-0.3,5.4c-14.3-6.4-28.4-13.3-43.5-17.8c-14.2-4.4-29.4-6.9-44.3-5c-7.7,1.1-15.2,3.3-22.1,6.7
	c-3,1.6-5.9,3.4-9.1,4.7C352.7,399.7,358,393.8,363.6,391.7z"/>
<path class="st2" d="M587,456.9c1-1.5,2-3,3-4.5c45.5,17,86.4,44.1,124.6,73.8c3,2,4,5.8,4.5,9.2c0.3,1.7-1.1,2.9-1.8,4.3
	c-6.5-6-12.4-12.7-19.3-18.2c-32.9-27.8-71.6-47.9-111.5-63.5L587,456.9z"/>
<path class="st2" d="M511.8,489.5c2.2-3.2,3.6-7.2,6.6-9.8l0.9,0.1c1,0.3,2,0.6,3.1,1c0.5,0.7,0.1,1.5-0.3,2.2
	c-15.2,23.5-26.8,49.2-43.7,71.6c-5.9,7.3-12.3,14.6-20.8,19c-4.1,2.1-8.8,3-13.4,2.7c6.2-4.4,12-9.3,17.4-14.7
	C481.9,540.2,496.3,514.3,511.8,489.5z"/>
<path class="st3" d="M490.9,373.8c10.2-10.9,24.1-17.8,39-19.4c1.4-0.1,2.8-0.2,4.1-0.3c23.1-1.3,45.8,11.9,57,32
	c0.8,1.6,1.7,3.2,2.5,4.8c9,19.4,7.8,43.3-3.5,61.5c-1,1.5-2,3.1-3,4.5c-8.7,11.9-21.3,20.3-35.5,24c-9.5,2.2-19.6,2.7-29-0.2
	c-1-0.4-2-0.7-3.1-1c-13.2-4.6-24.4-14-32.7-25.3c-7.7-10.7-13.4-23.5-13.3-36.9c0.1-1.8,0.2-3.6,0.3-5.4
	C475,397.8,481.1,384.3,490.9,373.8z"/>
<path class="st4" d="M482.8,199c13.5-6.4,28.8-7,43.5-5.9c11.7,0.9,23.6,2.8,34.3,8c10.2,4.8,18.8,12.3,24.8,21.8
	c8.4,13.2,11.8,28.8,13.3,44.2c0.6,9.4,1.2,18.8,0.6,28.2c2.7-1.9,5.3-4,8-5.9c17.9-12.4,38.6-21,60.3-23.8c2.5-0.3,4.9-0.6,7.4-0.8
	c2.7,0,5.4,0,8.1,0c3.9,0.1,7.7,0.4,11.5,0.9c11.5,1.7,22.4,5.9,32.1,12.2c11.3,7.4,20.5,17.7,27.5,29.1
	c6.3,10.4,11.7,21.9,12.4,34.3c0.9,13.4-2.2,26.8-9,38.5c-9.4,16.7-24,29.8-39.7,40.4c19.4,14.6,35.9,34,43.8,57.2
	c4.7,13.8,6.2,28.5,4.2,43c-2,14.9-7.5,29.2-15,42.2c-6.4,11-15.7,20.6-27.2,26.1c-14.5,7.3-31.5,8.3-47.3,5.5
	c-23.2-3.9-44.8-14.6-63.8-28.1c-7.5-5.4-14.6-11.3-21.2-17.6c-1.9-1.8-3.5-3.8-5.7-5.2c-8.1,24.3-23.2,46-42,63.2
	c-10.9,9.8-23.3,18.2-37,23.4c-12.9,4.9-27.1,6.8-40.8,4.4c-14.4-2.4-27.7-9.3-39-18.4c-8.4-6.8-16.3-14.5-22-23.8
	c-8-12.9-11.5-28.4-10.8-43.5c0.7-18.1,6.5-35.6,14.7-51.6c2.5-5,5.4-9.7,8.2-14.5c-15.2,0.5-30.6-0.8-45-5.8
	c-11.6-3.8-22-10.5-30.4-19.4c-10.1-10.9-16.5-24.8-19.5-39.3c-2.4-9-3.5-18.3-3.4-27.6c-0.4-18.7,0.7-38.2,8.7-55.5
	c3.5-7.7,8.8-14.6,15.4-20c5.8-4.2,12.3-7.1,19.2-8.6c13.3-2.8,27.1-1.1,40,2.5c18.8,5.2,36.2,14.4,52.5,25
	c-3.3-17.2-6.2-34.5-6.6-52c-0.5-18.7,1-37.9,8.7-55.2C461.7,215.1,470.8,204.6,482.8,199z M510.9,230.9c1.1,6.8,3.2,13.3,4.6,20
	c7.8,34,13.8,68.5,14.4,103.4c-14.9,1.6-28.7,8.5-39,19.4c-9.9,10.5-16,24-17.3,38.4c0-1.1,0.1-2.2,0.1-3.3
	c-20.1-9.8-40.7-19.5-63-23c-15.8-2.2-32.5-1.1-47.1,5.8c-5.7,2.1-10.9,8.1-9.2,14.5c3.1-1.3,6-3.1,9.1-4.7c7-3.4,14.5-5.6,22.1-6.7
	c14.9-1.9,30,0.6,44.3,5c15,4.5,29.2,11.4,43.5,17.8c-0.1,13.4,5.6,26.2,13.3,36.9c8.2,11.2,19.4,20.6,32.7,25.3l-0.9-0.1
	c-3,2.6-4.4,6.5-6.6,9.8c-15.5,24.8-29.9,50.7-50.2,72c-5.4,5.3-11.2,10.3-17.4,14.7c4.6,0.3,9.3-0.6,13.4-2.7
	c8.4-4.4,14.9-11.6,20.8-19c16.9-22.4,28.5-48.1,43.7-71.6c0.4-0.7,0.9-1.4,0.3-2.2c9.4,2.9,19.5,2.4,29,0.2
	c14.3-3.6,26.8-12.1,35.6-24l-0.7,1c39.9,15.6,78.6,35.8,111.5,63.5c6.9,5.6,12.8,12.3,19.3,18.2c0.7-1.3,2.2-2.6,1.8-4.3
	c-0.5-3.4-1.5-7.2-4.5-9.2c-38.2-29.7-79.1-56.8-124.6-73.8c11.2-18.2,12.5-42.1,3.5-61.5c2.7-3,5-6.3,7.5-9.4
	c15.6-18.7,34-35.6,56.3-46.1c13.7-6.6,28.6-10.6,43.8-11.6c4.5-0.4,9,0.4,13.4-0.6c-20.1-5.4-42-2.6-60.8,6.3
	c-12.2,5.8-23.4,13.4-33.3,22.5c-10.4,9.5-19.8,20-28.3,31.2c-0.5,0.9-1.3,1.8-1,2.9c-11.2-20-33.9-33.3-57-32
	c0.3-4.4-0.2-8.7-0.4-13.1c-0.8-15.3-1.5-30.6-3-45.9c-1.6-14.4-3.7-28.9-8.5-42.7C519.3,244.9,516.1,237.2,510.9,230.9z"/>
<path class="st5" d="M427.9,726.2c1.2-0.5,1.6,0,1.3,1.2C428,727.9,427.5,727.5,427.9,726.2z"/>
<path class="st5" d="M440,744.1c1,0.1,1.2,0.7,0.5,1.5C439.4,745.5,439.3,745,440,744.1z"/>
<path class="st5" d="M419.9,747.6c1.3-0.5,1.7-0.1,1.3,1.2C419.9,749.2,419.5,748.8,419.9,747.6z"/>
<rect x="161" y="20.9" class="st6" width="800" height="800"/>
</svg>
