<?xml version="1.0" encoding="utf-8"?>
<!-- Generator: Adobe Illustrator 26.0.3, SVG Export Plug-In . SVG Version: 6.00 Build 0)  -->
<svg version="1.0" id="katman_1" xmlns="http://www.w3.org/2000/svg" xmlns:xlink="http://www.w3.org/1999/xlink" x="0px" y="0px"
	 viewBox="0 0 600 450" style="enable-background:new 0 0 600 450;" xml:space="preserve">
<style type="text/css">
	.st0{fill:#1E284B;}
	.st1{fill:#FBC506;}
</style>
<path class="st0" d="M402.1,101.7L402.1,101.7c-1,0-1.9,0.3-2.8,0.7l0,0c0,0-15.1,8.7-21.6,12.2c-5.3,2.9-5.6,6.4-5.6,7.6
	c0,1.2,0.4,4.7,5.6,7.6c6.4,3.5,21.6,12.2,21.6,12.2l0,0c0.8,0.5,1.8,0.7,2.8,0.7c1.5,0,2.9-0.6,3.9-1.6c1-1,1.6-2.4,1.6-3.9
	c0-1-0.3-1.9-0.7-2.8c-0.5-0.8-1.2-1.5-2-2l0,0l-18.6-10.2l18.6-10.2l0,0c0.8-0.5,1.5-1.2,2-2c0.5-0.8,0.7-1.8,0.7-2.8
	c0-1.5-0.6-2.9-1.6-3.9C405,102.3,403.6,101.7,402.1,101.7L402.1,101.7z M275.3,104.6c-2.5,0-5,0.5-7.3,1.4s-4.4,2.4-6.2,4.1
	c-1.8,1.8-3.2,3.9-4.1,6.2c-1,2.3-1.4,4.8-1.4,7.3c0,2.5,0.5,5,1.4,7.3c1,2.3,2.4,4.4,4.1,6.2c1.8,1.8,3.9,3.2,6.2,4.1
	c2.3,1,4.8,1.4,7.3,1.4c2.5,0,5-0.5,7.3-1.4c2.3-1,4.4-2.4,6.2-4.1s3.2-3.9,4.1-6.2c1-2.3,1.4-4.8,1.4-7.3c0-5-2-9.9-5.6-13.5
	C285.2,106.6,280.3,104.6,275.3,104.6z M470.9,168.1c-2.4,0-4.7,0.6-6.8,1.6c-2.1,1.1-4,2.6-5.4,4.5l0,0l-30.2,42.5l0.1,0
	c-1.9,2.6-3,5.8-3,9c0,3.2,1.1,6.4,3,9l-0.1,0l30.2,42.5l0,0c1.4,1.9,3.3,3.5,5.4,4.5c2.1,1.1,4.5,1.6,6.8,1.6c2,0,4-0.4,5.8-1.2
	c1.9-0.8,3.5-1.9,5-3.3c1.4-1.4,2.5-3.1,3.3-5c0.8-1.9,1.2-3.8,1.2-5.8c0-3.1-1-6.2-2.8-8.8l0,0l-23.9-33.6l23.9-33.6l0,0
	c1.8-2.6,2.8-5.6,2.8-8.8c0-2-0.4-4-1.2-5.8c-0.8-1.9-1.9-3.5-3.3-5c-1.4-1.4-3.1-2.5-5-3.3C474.9,168.5,472.9,168.1,470.9,168.1
	L470.9,168.1z M255.4,306.6c-4.2,0-7.7,3.6-7.7,8c0,3.1,1.7,5.9,4.3,7.2c44.4,27.9,83.4,25.3,83.4,25.3s39,2.5,83.4-25.3
	c2.6-1.4,4.3-4.1,4.3-7.2c0-4.4-3.4-8-7.7-8c-1.6,0-3.2,0.5-4.5,1.5l-0.7,0.4c0,0-33.3,23.4-74.9,22.7
	c-41.6,0.7-74.9-22.7-74.9-22.7l-0.7-0.4C258.6,307.2,257,306.6,255.4,306.6z"/>
<path class="st1" d="M359.6,167.4c-1.4,0-2.8,0.1-4.2,0.2c-0.8,0.1-1.5,0.2-2.3,0.3c-0.9,0.1-1.8,0.2-2.6,0.4
	c-0.7,0.1-1.4,0.3-2.1,0.5c-0.9,0.2-1.8,0.4-2.7,0.7c-0.6,0.2-1.3,0.4-1.9,0.6c-0.9,0.3-1.9,0.6-2.8,1c-0.6,0.2-1.2,0.5-1.7,0.8
	c-0.9,0.4-1.8,0.9-2.7,1.3c-0.5,0.3-1,0.6-1.6,0.9c-0.9,0.5-1.8,1.1-2.7,1.7c-0.5,0.3-0.9,0.6-1.4,1c-0.9,0.6-1.8,1.3-2.6,2
	c-0.4,0.3-0.8,0.7-1.2,1c-0.9,0.7-1.7,1.5-2.5,2.3c-0.3,0.3-0.7,0.7-1,1c-0.8,0.9-1.6,1.7-2.3,2.6c-0.3,0.4-0.6,0.7-0.8,1.1
	c-0.7,0.9-1.4,1.9-2.1,2.9c-0.2,0.4-0.5,0.7-0.7,1.1c-0.6,1-1.3,2.1-1.8,3.2c-0.2,0.4-0.4,0.7-0.5,1.1c-0.5,1.1-1.1,2.2-1.5,3.4
	c-0.1,0.4-0.3,0.7-0.4,1.1c-0.4,1.2-0.8,2.4-1.2,3.6c-0.1,0.4-0.2,0.7-0.3,1.1c-0.3,1.2-0.6,2.5-0.8,3.7c-0.1,0.4-0.1,0.7-0.2,1.1
	c-0.2,1.3-0.4,2.5-0.5,3.8c-0.1,0.8-0.1,1.6-0.1,2.4h0v0.3c0,0.3,0,0.7,0,1c0,0.1,0,0.3,0,0.4h0h0v51.6h0c0,3.9,1.6,7.6,4.4,10.4
	c2.8,2.8,6.5,4.3,10.4,4.3c3.9,0,7.7-1.5,10.4-4.3c2.8-2.8,4.4-6.5,4.4-10.4h0v-0.2v-53.1c0.3-4.3,1.9-8.3,4.7-11.6
	c2.8-3.2,6.5-5.5,10.7-6.4c0,0,0.1,0,0.1,0c0.5-0.1,1-0.2,1.5-0.2c0.2,0,0.3-0.1,0.5-0.1c0.4,0,0.8-0.1,1.2-0.1c0.3,0,0.6,0,0.8,0
	c0,0,0,0,0,0c0.3,0,0.6,0,1,0c0.4,0,0.7,0,1.1,0.1c0.2,0,0.4,0.1,0.6,0.1c0.5,0.1,0.9,0.1,1.4,0.2c0.1,0,0.1,0,0.2,0
	c0.6,0.1,1.2,0.3,1.7,0.5c3.8,1.2,7.1,3.5,9.5,6.6c2.4,3.1,3.9,6.9,4.1,10.9v53.1v0.2h0c0,3.9,1.6,7.6,4.4,10.4
	c2.8,2.8,6.5,4.3,10.4,4.3c3.9,0,7.7-1.5,10.4-4.3c2.8-2.8,4.4-6.5,4.4-10.4h0v-51.6h0h0c0-0.1,0-0.3,0-0.4c0-0.3,0-0.7,0-1v-0.3h0
	c0-0.8-0.1-1.6-0.1-2.4c-0.1-1.3-0.3-2.6-0.5-3.8c0-0.4-0.1-0.7-0.2-1.1c-0.2-1.3-0.5-2.5-0.8-3.7c-0.1-0.4-0.2-0.7-0.3-1.1
	c-0.4-1.2-0.7-2.4-1.2-3.6c-0.1-0.4-0.3-0.7-0.4-1.1c-0.5-1.2-1-2.3-1.5-3.4c-0.2-0.4-0.3-0.7-0.5-1.1c-0.6-1.1-1.2-2.2-1.8-3.2
	c-0.2-0.4-0.4-0.7-0.7-1.1c-0.7-1-1.4-2-2.1-2.9c-0.3-0.4-0.6-0.7-0.8-1.1c-0.7-0.9-1.5-1.8-2.3-2.6c-0.3-0.4-0.6-0.7-1-1
	c-0.8-0.8-1.6-1.6-2.5-2.3c-0.4-0.3-0.8-0.7-1.2-1c-0.9-0.7-1.7-1.4-2.6-2c-0.4-0.3-0.9-0.7-1.3-1c-0.9-0.6-1.8-1.1-2.7-1.7
	c-0.5-0.3-1-0.6-1.5-0.9c-0.9-0.5-1.8-0.9-2.8-1.3c-0.6-0.3-1.2-0.5-1.7-0.8c-0.9-0.4-1.8-0.7-2.8-1c-0.6-0.2-1.3-0.4-1.9-0.6
	c-0.9-0.3-1.8-0.5-2.7-0.7c-0.7-0.2-1.4-0.3-2.1-0.5c-0.9-0.2-1.8-0.3-2.6-0.4c-0.8-0.1-1.5-0.2-2.3-0.3
	C362.4,167.5,361,167.5,359.6,167.4C359.6,167.4,359.6,167.4,359.6,167.4L359.6,167.4z M125,168.4c-3.9,0-7.7,1.6-10.5,4.4
	c-2.8,2.8-4.4,6.6-4.4,10.5c0,1.1,0.1,2.2,0.4,3.3l0,0l21.1,86l0,0c0.9,3.1,2.7,5.9,5.3,7.9c2.6,2,5.8,3.1,9,3.1
	c3.2,0,6.2-1,8.8-2.9c2.5-1.9,4.4-4.5,5.4-7.5l0,0.1l15.7-44.9l15.7,44.9l0-0.1c1,3,2.8,5.6,5.4,7.5c2.5,1.9,5.6,2.9,8.8,2.9
	c3.3,0,6.4-1.1,9-3.1c2.6-2,4.5-4.8,5.3-7.9l0,0l21.1-86l0,0c0.2-1.1,0.4-2.2,0.4-3.3c0-3.9-1.6-7.7-4.4-10.5
	c-2.8-2.8-6.6-4.4-10.5-4.4c-3.5,0-6.9,1.3-9.6,3.6s-4.5,5.5-5,9l0,0l-8.7,35.5l-13.4-38.2l0,0c0,0,0,0,0-0.1
	c-0.1-0.4-0.3-0.7-0.5-1.1c0-0.1-0.1-0.2-0.1-0.3c-0.2-0.4-0.4-0.7-0.6-1c0-0.1-0.1-0.2-0.1-0.3c-0.2-0.3-0.4-0.7-0.7-1
	c-0.1-0.1-0.1-0.2-0.2-0.3c-0.2-0.3-0.5-0.6-0.7-0.9c-0.1-0.1-0.2-0.2-0.2-0.3c-0.3-0.3-0.5-0.5-0.8-0.8c-0.1-0.1-0.2-0.2-0.3-0.3
	c-0.3-0.2-0.6-0.5-0.8-0.7c-0.1-0.1-0.2-0.2-0.3-0.3c-0.3-0.2-0.6-0.4-0.9-0.6c-0.1-0.1-0.3-0.2-0.4-0.2c-0.3-0.2-0.6-0.3-0.9-0.5
	c-0.1-0.1-0.3-0.1-0.5-0.2c-0.3-0.1-0.6-0.2-0.9-0.3c-0.2-0.1-0.4-0.1-0.5-0.2c-0.3-0.1-0.6-0.2-0.9-0.2c-0.2-0.1-0.4-0.1-0.6-0.1
	c-0.3-0.1-0.6-0.1-0.9-0.2c-0.2,0-0.4-0.1-0.6-0.1c-0.3,0-0.5,0-0.8-0.1c-0.3,0-0.6,0-0.9,0c0,0,0,0,0,0c-0.3,0-0.6,0-0.9,0
	c-0.3,0-0.5,0-0.8,0.1c-0.2,0-0.4,0.1-0.7,0.1c-0.3,0-0.5,0.1-0.8,0.1c-0.2,0-0.4,0.1-0.6,0.2c-0.3,0.1-0.6,0.2-0.9,0.2
	c-0.2,0.1-0.4,0.1-0.5,0.2c-0.3,0.1-0.6,0.2-0.9,0.3c-0.2,0.1-0.3,0.1-0.5,0.2c-0.3,0.1-0.6,0.3-0.9,0.5c-0.1,0.1-0.3,0.2-0.4,0.3
	c-0.3,0.2-0.6,0.4-0.8,0.6c-0.1,0.1-0.2,0.2-0.3,0.3c-0.3,0.2-0.6,0.4-0.8,0.7c-0.1,0.1-0.2,0.2-0.3,0.3c-0.3,0.2-0.5,0.5-0.8,0.8
	c-0.1,0.1-0.2,0.2-0.2,0.3c-0.3,0.3-0.5,0.6-0.7,0.9c-0.1,0.1-0.1,0.2-0.2,0.3c-0.2,0.3-0.4,0.6-0.6,1c-0.1,0.1-0.1,0.2-0.2,0.3
	c-0.2,0.3-0.4,0.7-0.6,1c0,0.1-0.1,0.2-0.1,0.3c-0.2,0.4-0.3,0.7-0.5,1.1c0,0,0,0,0,0.1l-0.1,0l-13.4,38.2l-8.7-35.5l0,0
	c-0.6-3.5-2.3-6.7-5-9C132,169.7,128.5,168.4,125,168.4L125,168.4z M275.9,168.4c-3.9,0-7.6,1.5-10.4,4.3c-2.8,2.7-4.4,6.5-4.4,10.3
	h0v0.2v85.3v1h0c0.3,3.8,1.9,7.3,4.7,9.8c2.8,2.6,6.4,4,10.1,4c3.8,0,7.4-1.4,10.1-4c2.8-2.6,4.4-6.1,4.7-9.8h0.1v-1v-85.3V183h0
	c-0.1-3.9-1.7-7.6-4.4-10.4C283.5,170,279.8,168.4,275.9,168.4L275.9,168.4z"/>
</svg>
