<?xml version="1.0" encoding="utf-8"?>
<!-- Generator: Adobe Illustrator 16.0.0, SVG Export Plug-In . SVG Version: 6.00 Build 0)  -->
<!DOCTYPE svg PUBLIC "-//W3C//DTD SVG 1.1//EN" "http://www.w3.org/Graphics/SVG/1.1/DTD/svg11.dtd">
<svg version="1.1" id="Layer_1" xmlns="http://www.w3.org/2000/svg" xmlns:xlink="http://www.w3.org/1999/xlink" x="0px" y="0px"
	 width="800px" height="2000px" viewBox="0 0 800 2000" enable-background="new 0 0 800 2000" xml:space="preserve">
<g>
	<defs>
		<rect id="SVGID_1_" x="134" y="706" width="500" height="500"/>
	</defs>
	<clipPath id="SVGID_2_">
		<use xlink:href="#SVGID_1_"  overflow="visible"/>
	</clipPath>
	<path clip-path="url(#SVGID_2_)" fill="#121620" d="M622.346,956c0,131.635-106.711,238.346-238.346,238.346
		S145.654,1087.635,145.654,956S252.365,717.654,384,717.654S622.346,824.365,622.346,956"/>
</g>
<g>
	<defs>
		<path id="SVGID_3_" d="M477.065,818.537c-0.131,0-0.253,0.052-0.346,0.145c-0.092,0.09-0.144,0.215-0.144,0.344
			c0,0.131,0.052,0.254,0.144,0.347c0.093,0.091,0.215,0.144,0.346,0.144c5.883,1.563,11.327,4.461,15.911,8.467
			c4.584,4.007,8.185,9.014,10.523,14.636c2.338,5.621,3.35,11.704,2.96,17.78c-0.39,6.074-2.173,11.979-5.212,17.254
			l-115.251,199.822c-3.046,5.227-7.248,9.687-12.282,13.041c-5.035,3.354-10.77,5.512-16.768,6.31
			c-5.998,0.796-12.098,0.21-17.834-1.713c-5.734-1.922-10.955-5.131-15.26-9.382c-0.08-0.103-0.194-0.173-0.324-0.19
			c-0.127-0.018-0.258,0.016-0.361,0.093s-0.172,0.194-0.189,0.322c-0.019,0.128,0.015,0.258,0.092,0.362l24.135,41.771
			c4.163,7.193,10.145,13.162,17.343,17.313c7.199,4.15,15.363,6.336,23.672,6.336c8.31,0,16.474-2.186,23.673-6.336
			c7.198-4.151,13.18-10.12,17.342-17.313l137.677-238.466c4.157-7.201,6.347-15.368,6.348-23.684
			c0.003-8.313-2.182-16.481-6.336-23.685c-4.153-7.203-10.128-13.187-17.325-17.349c-7.197-4.164-15.362-6.36-23.677-6.369H477.065
			z M403.927,818.537h-47.731c-0.098,0.033-0.184,0.095-0.243,0.179c-0.062,0.082-0.093,0.183-0.093,0.286
			c0,0.102,0.031,0.202,0.093,0.286c0.06,0.084,0.146,0.146,0.243,0.178c3.215,1.241,6.123,3.163,8.527,5.632
			c2.404,2.471,4.245,5.43,5.401,8.676c1.155,3.248,1.597,6.705,1.291,10.139s-1.347,6.76-3.056,9.753l-69.57,120.332
			c-1.797,3.052-4.248,5.667-7.176,7.659c-2.928,1.993-6.262,3.311-9.76,3.861c-3.498,0.553-7.076,0.32-10.474-0.674
			c-3.399-0.996-6.534-2.73-9.185-5.082c-0.076-0.104-0.192-0.172-0.32-0.188c-0.129-0.021-0.259,0.014-0.363,0.092
			c-0.103,0.077-0.172,0.192-0.189,0.322c-0.02,0.127,0.015,0.258,0.093,0.36l24.428,42.407c2.742,4.759,6.69,8.712,11.446,11.46
			c4.755,2.748,10.152,4.194,15.645,4.194c5.491,0,10.889-1.446,15.644-4.194c4.756-2.748,8.704-6.701,11.446-11.46l91.02-157.315
			c2.745-4.756,4.19-10.151,4.189-15.644c-0.004-5.491-1.45-10.886-4.199-15.64c-2.748-4.756-6.7-8.701-11.459-11.444
			c-4.748-2.735-10.132-4.175-15.611-4.175C403.951,818.537,403.939,818.537,403.927,818.537 M238.257,818.537
			c-8.146,0-16.108,2.416-22.882,6.941c-6.771,4.525-12.052,10.959-15.169,18.483c-3.117,7.526-3.933,15.806-2.343,23.796
			c1.589,7.989,5.511,15.328,11.271,21.088c5.76,5.76,13.098,9.682,21.088,11.271c7.988,1.589,16.27,0.773,23.795-2.344
			c7.526-3.116,13.959-8.396,18.484-15.168c4.525-6.774,6.941-14.736,6.941-22.883c0.006-5.41-1.055-10.769-3.123-15.769
			c-2.067-4.999-5.102-9.542-8.928-13.368c-3.824-3.825-8.367-6.859-13.367-8.926c-4.985-2.063-10.327-3.123-15.721-3.123
			C238.289,818.537,238.273,818.537,238.257,818.537"/>
	</defs>
	<clipPath id="SVGID_4_">
		<use xlink:href="#SVGID_3_"  overflow="visible"/>
	</clipPath>
	<g clip-path="url(#SVGID_4_)">
		
			<linearGradient id="SVGID_5_" gradientUnits="userSpaceOnUse" x1="150.5747" y1="1250.4746" x2="151.5742" y2="1250.4746" gradientTransform="matrix(-430.1456 -292.1071 292.1071 -430.1456 -299948.375 582970.875)">
			<stop  offset="0" style="stop-color:#5433FF"/>
			<stop  offset="0.5" style="stop-color:#20BDFF"/>
			<stop  offset="1" style="stop-color:#5CFFA2"/>
		</linearGradient>
		<polygon fill="url(#SVGID_5_)" points="728.12,923.699 315.256,643.328 41.416,1046.575 454.279,1326.947 		"/>
	</g>
</g>
</svg>
