<?xml version="1.0" encoding="utf-8"?>
<!-- Generator: Adobe Illustrator 16.0.0, SVG Export Plug-In . SVG Version: 6.00 Build 0)  -->
<!DOCTYPE svg PUBLIC "-//W3C//DTD SVG 1.1//EN" "http://www.w3.org/Graphics/SVG/1.1/DTD/svg11.dtd">
<svg version="1.1" id="Layer_1" xmlns="http://www.w3.org/2000/svg" xmlns:xlink="http://www.w3.org/1999/xlink" x="0px" y="0px"
	 width="500px" height="500px" viewBox="0 0 500 500" enable-background="new 0 0 500 500" xml:space="preserve">
<g>
	<defs>
		<rect id="SVGID_1_" x="13.103" y="13.012" width="473.977" height="473.977"/>
	</defs>
	<clipPath id="SVGID_2_">
		<use xlink:href="#SVGID_1_"  overflow="visible"/>
	</clipPath>
	<path clip-path="url(#SVGID_2_)" fill="#FFFFFF" d="M239.402,440.727c6.701,0.96,13.538,1.094,20.262,0.091
		c31.091-4.535,54.523-35.356,51.07-66.426c-1.173-10.538-4.952-22.101-11.823-30.404c-4.602-5.563-10.999-11.305-15.252-16.877
		c-5.596-7.334-6.69-16.969-4.445-25.893c3.971-15.736,20.781-26.433,36.733-23.25c3.622,0.722,8.337,2.087,11.248,4.546
		c4.885,4.117,10.277,10.3,15.219,14.203c9.206,7.265,20.317,11.384,32.063,12.343c23.68,1.951,48.681-10.921,59.228-32.604
		c7.515-15.455,9.567-33.234,3.125-49.537c-2.121-5.358-4.771-10.752-8.324-15.32c-11.915-15.31-29.852-24.854-49.527-24.527
		c-6.982,0.113-13.65,1.151-20.262,3.542c-5.584,2.02-11.112,4.784-15.761,8.541c-6.148,4.975-10.808,10.943-16.877,15.636
		c-11.338,8.765-29.287,6.318-39.406-3.848c-7.716-7.75-11.012-18.23-9.07-29.049c0.666-3.69,2.063-8.326,4.568-11.259
		c4.874-5.697,12.309-12.884,16.46-19.134c6.362-9.612,9.714-21.029,9.623-32.638c-0.09-12.872-3.7-25.553-11.45-36.022
		c-13.088-17.7-33.067-27.188-55.156-25.282c-6.126,0.53-12.354,1.974-18.005,4.422c-12.467,5.381-23.071,14.52-29.794,26.489
		c-3.476,6.183-6.092,13.21-7.108,20.262c-2.278,15.749,1.061,33.54,11.293,46.153c4.636,5.708,10.492,10.289,14.835,15.75
		c7.592,9.578,8.405,22.767,2.369,33.777c-6.565,11.958-19.866,18.332-33.247,16.381c-2.854-0.418-9.082-2.46-11.259-4.175
		c-6.228-4.93-12.748-11.981-19.133-16.526c-9.398-6.68-20.048-9.511-31.521-10.268c-26.422-1.759-52.573,16.528-60.616,41.606
		c-4.344,13.538-4.378,28.273,1.061,41.641c2.278,5.619,5.155,11,9.013,15.761c13.132,16.212,30.845,23.929,51.67,22.97
		c10.357-0.474,24.571-5.145,32.638-11.789c5.922-4.876,12.071-12.567,18.017-16.652c11.451-7.874,28.012-6.125,38.267,4.018
		c7.367,7.275,11.146,16.944,9.815,27.345c-0.507,3.995-1.771,9.184-4.355,12.389c-5.087,6.282-11.574,12.646-16.357,19.133
		c-7.435,10.063-10.38,22.496-10.459,34.895C188.601,409.443,211.129,436.733,239.402,440.727"/>
	<path clip-path="url(#SVGID_2_)" fill="#35312E" d="M241.646,416.031c-14.305-3.158-24.245-14.169-27.415-28.136
		c-4.253-18.717,8.743-38.729,27.415-42.837c14.655-3.227,28.135,1.929,37.229,13.572c9.454,12.094,9.16,28.903,1.411,41.64
		c-4.907,8.056-13.708,13.979-22.88,15.795C251.225,417.229,247.603,417.16,241.646,416.031 M243.903,404.49
		c3.215,0.779,6.859,0.938,10.131,0.361c12.139-2.076,21.378-13.628,20.499-25.959c-0.757-10.583-8.146-19.349-18.255-22.281
		c-5.426-1.579-11.732-1.083-16.876,1.376c-9.759,4.648-15.919,15.739-14.091,26.534
		C226.902,393.977,234.528,402.313,243.903,404.49"/>
	<path clip-path="url(#SVGID_2_)" fill="#35312E" d="M240.519,154.23c-9.33-1.806-17.869-7.221-23.263-15.106
		c-2.877-4.207-4.93-8.608-5.866-13.515c-2.99-15.749,3.87-29.321,16.754-38.053c11.326-7.683,28.305-7.051,39.394,0.801
		c3.87,2.742,7.435,6.239,10.041,10.243c5.314,8.168,6.905,17.544,5.212,27.009c-2.459,13.82-14.067,25.553-27.639,28.373
		C250.232,154.93,245.47,155.11,240.519,154.23 M243.903,143.005c9.837,1.556,19.708-3.858,24.763-12.297
		c6.441-10.773,2.786-26.286-7.886-32.999c-8.732-5.495-19.585-5.246-28.137,0.688c-7.66,5.314-11.913,15.795-9.827,24.966
		C225.198,133.868,233.253,141.256,243.903,143.005"/>
	<path clip-path="url(#SVGID_2_)" fill="#35312E" d="M369.976,283.281c-5.54-1.816-8.868-3.148-13.505-7.085
		c-3.396-2.889-6.07-6.138-8.438-9.872c-2.696-4.265-3.769-8.71-4.692-13.515c-0.948-4.818,0.135-10.008,1.195-14.633
		c2.426-10.492,11.189-19.573,20.938-23.522c12.443-5.031,26.851-3.204,37.149,5.461c7.864,6.623,12.41,15.771,13.121,25.948
		c1.072,15.479-8.314,29.354-22.134,35.694C386.164,285.176,377.67,285.402,369.976,283.281 M376.732,272.755
		c10.053,1.354,21.616-4.772,25.327-14.316c4.502-11.62,1.737-24.65-9.567-31.306c-8.956-5.269-19.72-4.761-28.146,1.488
		c-7.773,5.765-11.609,17.159-8.654,26.444C358.694,264.485,366.806,271.491,376.732,272.755"/>
	<path clip-path="url(#SVGID_2_)" fill="#35312E" d="M108.817,286.09c-9.668-2.403-18.277-8.767-23.072-17.521
		c-6.972-12.691-5.629-27.629,2.55-39.396c7.84-11.282,22.022-16.021,35.154-14.169c14.71,2.077,27.256,14.316,29.692,28.802
		c3.509,20.814-9.059,38.933-29.692,42.882C118.609,287.58,113.589,287.274,108.817,286.09 M111.073,274.752
		c2.448,0.677,6.464,0.856,9.003,0.553c10.615-1.128,20.148-9.521,21.875-20.239c1.512-9.433-2.549-19.404-10.616-24.751
		c-7.83-5.19-19.021-5.732-27.019-0.43c-7.841,5.201-12.838,14.496-11.383,24.053C94.456,263.921,101.225,271.92,111.073,274.752"/>
</g>
</svg>
