<?xml version="1.0" encoding="utf-8"?>
<!-- Generator: Adobe Illustrator 27.5.0, SVG Export Plug-In . SVG Version: 6.00 Build 0)  -->
<svg version="1.1" id="Layer_1" xmlns:xodm="http://www.corel.com/coreldraw/odm/2003"
	 xmlns="http://www.w3.org/2000/svg" xmlns:xlink="http://www.w3.org/1999/xlink" x="0px" y="0px" viewBox="0 0 2500 2500"
	 style="enable-background:new 0 0 2500 2500;" xml:space="preserve">
<style type="text/css">
	.st0{fill:#E6BC7B;}
	.st1{fill:none;}
	.st2{fill:none;stroke:#000000;stroke-width:68.4128;stroke-linecap:round;stroke-linejoin:round;stroke-miterlimit:22.4058;}
</style>
<g id="Layer_x0020_1">
	<g id="_2167159189632">
		<path class="st0" d="M2500,1250C2500,560,1940,0,1250,0S0,560,0,1250s560,1250,1250,1250S2500,1940,2500,1250z"/>
		<path class="st1" d="M2500,1250C2500,560,1940,0,1250,0S0,560,0,1250s560,1250,1250,1250S2500,1940,2500,1250z"/>
		<polyline id="路径_3088" class="st2" points="1403.4,572.7 1403.4,885.5 1094.6,885.5 1094.6,572.7 		"/>
		<polyline id="路径_3089" class="st2" points="1094.6,1923.4 1094.6,1610.6 1403.4,1610.6 1403.4,1923.4 		"/>
		<polyline id="路径_3090" class="st2" points="1094.6,1239.2 1752.3,1239.2 1752.3,1610.6 746.7,1610.6 746.7,885.5 
			1752.3,885.5 		"/>
		<circle id="椭圆_164" class="st2" cx="1249" cy="1248" r="1001.8"/>
	</g>
</g>
</svg>
