<?xml version="1.0" encoding="utf-8"?>
<!-- Generator: Adobe Illustrator 16.0.0, SVG Export Plug-In . SVG Version: 6.00 Build 0)  -->
<!DOCTYPE svg PUBLIC "-//W3C//DTD SVG 1.1//EN" "http://www.w3.org/Graphics/SVG/1.1/DTD/svg11.dtd">
<svg version="1.1" id="Layer_1" xmlns="http://www.w3.org/2000/svg" xmlns:xlink="http://www.w3.org/1999/xlink" x="0px" y="0px"
	 width="800px" height="2000px" viewBox="0 0 800 2000" enable-background="new 0 0 800 2000" xml:space="preserve">
<g>
	<defs>
		<rect id="SVGID_1_" x="150" y="708" width="500" height="500"/>
	</defs>
	<clipPath id="SVGID_2_">
		<use xlink:href="#SVGID_1_"  overflow="visible"/>
	</clipPath>
	<path clip-path="url(#SVGID_2_)" d="M627.988,958c0,125.915-102.073,227.988-227.988,227.988
		c-125.914,0-227.988-102.073-227.988-227.988S274.086,730.012,400,730.012C525.915,730.012,627.988,832.085,627.988,958"/>
	<path clip-path="url(#SVGID_2_)" fill="#FEFEFE" d="M497.668,873.914c0.078,4.346-2.945,7.512-6.059,10.624
		c-37.946,37.94-75.896,75.878-113.842,113.819c-16.863,16.862-33.719,33.734-50.584,50.596c-2.592,2.591-5.078,5.395-8.86,6.245
		c-5.767,1.297-10.568-0.441-13.737-5.406c-3.336-5.229-3.027-10.678,1.287-15.181c9.2-9.601,18.646-18.967,28.047-28.373
		c46.525-46.549,93.09-93.059,139.576-139.646c4.708-4.72,9.789-7.984,16.485-5.145
		C494.993,863.573,497.777,867.708,497.668,873.914"/>
	<path clip-path="url(#SVGID_2_)" fill="#FDFDFD" d="M392.586,879.348c0.238,3.471-1.73,6.525-4.387,9.189
		c-19.113,19.162-38.184,38.367-57.432,57.394c-6.223,6.151-13.545,6.164-18.824,0.671c-5.168-5.376-5.119-12.377,0.791-18.352
		c19.195-19.406,38.57-38.635,57.885-57.926c4.176-4.17,9.195-5.364,14.501-2.939C389.775,869.512,392.577,873.375,392.586,879.348"
		/>
	<path clip-path="url(#SVGID_2_)" fill="#FDFDFD" d="M491.068,976.601c-0.073,4.732-1.894,7.806-4.589,10.498
		c-19.146,19.125-38.201,38.342-57.461,57.353c-6.199,6.12-13.545,6.021-18.828,0.433c-5.045-5.336-4.788-12.423,1.104-18.358
		c19.066-19.207,38.258-38.29,57.389-57.434c4.334-4.336,9.392-5.875,15.035-3.227C488.431,968.075,490.87,972.14,491.068,976.601"
		/>
</g>
</svg>
