<svg width="500" height="183" viewBox="0 0 500 183" fill="none" xmlns="http://www.w3.org/2000/svg">
<g clip-path="url(#clip0_1019_14079)">
<path d="M174.431 74.7324C174.765 74.7324 175.037 75.0019 175.037 75.3329V100.799C175.037 112.871 167.41 118.814 157.342 118.814C147.274 118.814 139.646 112.871 139.646 100.799V75.3329C139.646 75.0019 139.919 74.7324 140.253 74.7324H146.232C146.566 74.7324 146.838 75.0019 146.838 75.3329V100.368C146.838 108.79 151.278 112.132 157.342 112.132C163.406 112.132 167.846 108.79 167.846 100.368V75.3329C167.846 75.0019 168.118 74.7324 168.452 74.7324H174.431Z" fill="white"/>
<path d="M279.196 96.4044C279.134 109.161 269.314 118.815 256.501 118.815C243.688 118.815 233.807 109.153 233.807 96.4044C233.807 83.6557 243.688 73.9941 256.501 73.9941C269.314 73.9941 279.134 83.6557 279.196 96.4044ZM240.928 96.4044C240.928 105.442 247.622 112.132 256.494 112.132C265.365 112.132 271.996 105.442 271.996 96.4044C271.996 87.3664 265.302 80.6764 256.494 80.6764C247.685 80.6764 240.928 87.3664 240.928 96.4044Z" fill="white"/>
<path d="M342.917 118.076H336.729C336.301 118.076 336.006 117.652 336.161 117.26L352.535 75.3723C352.667 75.0259 353.009 74.7949 353.382 74.7949H361.126C361.499 74.7949 361.841 75.0259 361.974 75.3723L378.347 117.26C378.503 117.652 378.207 118.076 377.78 118.076H371.591C371.342 118.076 371.109 117.922 371.023 117.691L357.814 83.2094C357.62 82.6936 356.873 82.6936 356.679 83.2094L343.469 117.691C343.376 117.922 343.151 118.076 342.902 118.076H342.917Z" fill="white"/>
<path d="M92.8413 118.076H86.6525C86.2249 118.076 85.9295 117.652 86.085 117.26L102.467 75.3723C102.599 75.0259 102.941 74.7949 103.314 74.7949H111.058C111.431 74.7949 111.773 75.0259 111.905 75.3723L128.279 117.26C128.434 117.652 128.139 118.076 127.711 118.076H121.523C121.274 118.076 121.041 117.922 120.955 117.691L107.753 83.2017C107.559 82.6859 106.813 82.6859 106.618 83.2017L93.4089 117.683C93.3156 117.914 93.0901 118.068 92.8413 118.068V118.076Z" fill="white"/>
<path d="M325.526 117.098L313.241 101.562C320.169 100.261 324.235 95.6269 324.235 88.5135C324.235 80.3531 318.863 74.7871 309.377 74.7871H292.242C291.736 74.7871 291.332 75.1874 291.332 75.6878C291.332 78.875 293.944 81.4617 297.163 81.4617H308.623C314.369 81.4617 317.113 84.364 317.113 88.5751C317.113 92.7861 314.431 95.7501 308.623 95.7501H292.234C291.729 95.7501 291.324 96.1504 291.324 96.6508V117.467C291.324 117.798 291.596 118.068 291.931 118.068H297.77C298.104 118.068 298.376 117.798 298.376 117.467V101.932H305.117L315.784 115.712C316.934 117.198 318.715 118.068 320.604 118.068H325.044C325.549 118.068 325.837 117.491 325.518 117.098H325.526Z" fill="white"/>
<path d="M223.955 117.098L211.671 101.562C218.598 100.261 222.665 95.6269 222.665 88.5135C222.665 80.3531 217.292 74.7871 207.807 74.7871H190.671C190.166 74.7871 189.762 75.1874 189.762 75.6878C189.762 78.875 192.374 81.4617 195.593 81.4617H207.053C212.798 81.4617 215.543 84.364 215.543 88.5751C215.543 92.7861 212.861 95.7501 207.053 95.7501H190.664C190.158 95.7501 189.754 96.1504 189.754 96.6508V117.467C189.754 117.798 190.026 118.068 190.36 118.068H196.199C196.534 118.068 196.806 117.798 196.806 117.467V101.932H203.546L214.213 115.712C215.364 117.198 217.145 118.068 219.034 118.068H223.473C223.979 118.068 224.266 117.491 223.948 117.098H223.955Z" fill="white"/>
<path d="M394.55 63H400.544C400.878 63 401.151 63.2694 401.151 63.6005V92.5852C401.151 92.9163 400.878 93.1934 400.536 93.1934H394.542C394.208 93.1934 393.936 92.924 393.936 92.5929V63.6082C393.936 63.2771 394.208 63 394.55 63Z" fill="#5DEB5A"/>
<path d="M408.124 81.4848C404.89 81.4848 402.27 78.8904 402.27 75.6878C402.27 75.1874 402.682 74.7871 403.179 74.7871H412.175C412.509 74.7871 412.789 75.0489 412.789 75.3876V80.8997C412.789 81.2307 412.517 81.5002 412.175 81.5002L408.116 81.4848H408.124Z" fill="#5DEB5A"/>
<path d="M382.911 74.7793C382.577 74.7793 382.297 75.0487 382.297 75.3798V80.8919C382.297 81.2229 382.569 81.4924 382.911 81.4924H397.761V74.7793H382.911Z" fill="#5DEB5A"/>
</g>
<defs>
<clipPath id="clip0_1019_14079">
<rect width="326.744" height="55.814" fill="white" transform="translate(86.0469 63.9531)"/>
</clipPath>
</defs>
</svg>
