<?xml version="1.0" encoding="utf-8"?>
<!-- Generator: Adobe Illustrator 16.0.0, SVG Export Plug-In . SVG Version: 6.00 Build 0)  -->
<!DOCTYPE svg PUBLIC "-//W3C//DTD SVG 1.1//EN" "http://www.w3.org/Graphics/SVG/1.1/DTD/svg11.dtd">
<svg version="1.1" id="Layer_1" xmlns="http://www.w3.org/2000/svg" xmlns:xlink="http://www.w3.org/1999/xlink" x="0px" y="0px"
	 width="800px" height="2000px" viewBox="0 0 800 2000" enable-background="new 0 0 800 2000" xml:space="preserve">
<g>
	<path fill="#FFFFFF" d="M400,600L400,600c220.833,0,400,179.167,400,400l0,0c0,220.833-179.167,400-400,400l0,0
		c-220.833,0-400-179.167-400-400l0,0C0,779.167,179.167,600,400,600z"/>
</g>
<g id="Layer_x0020_1">
	<g id="_2167087048384">
		<rect x="133.205" y="727.398" fill="none" width="500.1" height="500.1"/>
		<g>
			<path fill="#E1177C" d="M477.875,1170.287c6.001,0,11.202,3.4,11.202,7.801c0,4.401-5.201,7.802-11.202,7.802H313.842
				c-6.002,0-11.202-3.4-11.202-7.802c0-4.4,5.2-7.801,11.202-7.801H477.875z"/>
			<circle fill="#E1177C" cx="278.234" cy="1174.487" r="11.202"/>
			<circle fill="#E1177C" cx="376.854" cy="1133.079" r="11.202"/>
			<path fill="#E1177C" d="M569.293,1121.877c6.001,0,11.202,5.201,11.202,11.203c0,6-5.201,11.201-11.202,11.201H408.661
				c-6.002,0-11.203-5.201-11.203-11.201c0-6.002,5.201-11.203,11.203-11.203H569.293z"/>
			<circle fill="#E1177C" cx="166.012" cy="1091.67" r="11.203"/>
			<path fill="#E1177C" d="M325.844,1080.468c6.002,0,11.203,5.202,11.203,11.202c0,6.002-5.201,11.203-11.203,11.203H193.617
				c-6,0-11.201-5.201-11.201-11.203c0-6,5.201-11.202,11.201-11.202H325.844z"/>
			<path fill="#E1177C" d="M622.104,1080.468c6.002,0,11.201,5.202,11.201,11.202c0,6.002-5.199,11.203-11.201,11.203H359.451
				c-6.001,0-11.203-5.201-11.203-11.203c0-6,5.202-11.202,11.203-11.202H622.104z"/>
			<path fill="#E1177C" d="M572.894,1038.86c6.001,0,11.202,5.201,11.202,11.202s-5.201,11.203-11.202,11.203H250.629
				c-6.001,0-11.202-5.202-11.202-11.203s5.201-11.202,11.202-11.202H572.894z"/>
			<circle fill="#E1177C" cx="215.223" cy="1050.063" r="11.203"/>
			<path fill="#E1177C" d="M505.479,998.253c6.002,0,11.204,5.2,11.204,11.202c0,6-5.202,11.202-11.204,11.202H183.216
				c-6.001,0-11.202-5.202-11.202-11.202c0-6.002,5.201-11.202,11.202-11.202H505.479z"/>
			<circle fill="#E1177C" cx="144.408" cy="1009.654" r="11.202"/>
			<circle fill="#E1177C" cx="215.223" cy="968.046" r="11.202"/>
			<path fill="#E1177C" d="M603.898,956.844c6.002,0,11.204,5.201,11.204,11.202s-5.202,11.202-11.204,11.202H253.229
				c-6.001,0-11.202-5.201-11.202-11.202s5.201-11.202,11.202-11.202H603.898z"/>
			<path fill="#53CBC9" d="M482.076,781.609c57.012,24.206,95.019,83.817,90.617,144.229c-102.021,0-203.841,0.8-305.861-0.8
				c0-40.608,13.803-82.016,43.209-110.622c43.209-44.009,114.822-57.812,171.834-32.807H482.076z"/>
		</g>
	</g>
</g>
</svg>
