<?xml version="1.0" encoding="utf-8"?>
<!-- Generator: Adobe Illustrator 16.0.0, SVG Export Plug-In . SVG Version: 6.00 Build 0)  -->
<!DOCTYPE svg PUBLIC "-//W3C//DTD SVG 1.1//EN" "http://www.w3.org/Graphics/SVG/1.1/DTD/svg11.dtd">
<svg version="1.1" id="Layer_1" xmlns="http://www.w3.org/2000/svg" xmlns:xlink="http://www.w3.org/1999/xlink" x="0px" y="0px"
	 width="500px" height="500px" viewBox="0 0 500 500" enable-background="new 0 0 500 500" xml:space="preserve">
<g>
	<g>
		<path fill="#FFFFFF" d="M470.183,384.169c0,27.17,0,54.107,0.23,81.047c0,4.375-0.92,5.295-5.295,5.295
			c-144.363-0.23-288.956-0.23-433.318,0c-4.375,0-5.296-0.92-5.296-5.295c0.23-144.363,0.23-288.956,0-433.318
			c0-4.375,0.921-5.296,5.296-5.296c144.363,0.23,288.955,0.23,433.318,0c4.375,0,5.295,0.921,5.295,5.296
			c-0.23,54.567,0,109.365,0,163.933c-3.223,0.921-5.064-1.151-6.217-3.453c-8.059-15.197-20.721-22.334-37.529-23.485
			c-1.15-0.461-2.072-1.382-2.764-2.533c-29.01-59.863-76.209-96.473-141.829-109.136c-2.763-0.921-5.986-0.921-8.749-1.381
			c-3.454-0.921-6.907-1.612-9.9-3.224c-15.196-5.986-30.163-5.756-45.127,1.381c-7.369,3.454-16.348,2.764-23.715,6.908
			c-14.505,6.677-30.162,11.051-43.977,19.57c-14.736,9.21-28.551,19.34-40.063,32.234c-30.623,29.471-47.431,65.85-53.877,107.293
			c-0.461,3.453-1.382,6.677-2.303,10.131c-2.072,5.756,0.461,12.203-2.303,17.729c-12.433,8.979-16.347,21.413-13.354,35.688
			c3.684,17.498,2.993,34.996,2.763,52.266c0,11.512,0.921,23.023,2.763,34.305c3.914,23.486,17.038,37.07,40.753,40.293
			c15.196,2.072,28.55,7.828,41.444,15.656c21.413,13.355,45.358,17.27,70.223,15.887c2.994-0.229,5.297-2.072,8.059-2.762
			c7.139-1.152,13.816,1.611,20.723,1.842c14.275,1.842,28.781,1.381,43.055,0.461c27.63-3.455,53.647-11.283,77.822-25.328
			c8.289-4.834,15.197-11.051,23.256-16.346c2.301-0.922,4.375-1.613,6.906-1.383c21.412,5.756,42.596,5.756,63.777-0.23
			c7.598-2.303,14.045-6.217,20.492-10.82C463.046,385.321,465.808,381.638,470.183,384.169z"/>
		<path fill="#DCDBDB" d="M470.183,330.522c0,11.514,0,23.025,0,34.537c-13.354,24.867-35.918,32.695-62.166,32.004
			c-8.289-0.23-17.498,2.072-24.404-5.525c-1.152-3.455,1.15-5.297,3.223-7.139c2.533-1.842,5.064-2.303,8.059-1.15
			c26.938,13.123,63.777-5.525,68.383-34.768c1.381-8.059-1.152-15.656-5.527-22.104c-9.209-13.123-10.59-26.478-4.834-41.674
			c3.684-9.67,3.223-20.261,2.992-30.622c-0.461-12.894,0.691-25.787-1.15-38.681c-1.842-14.275-7.367-25.326-21.643-30.393
			c-1.611-1.381-2.072-3.223-1.152-5.295c4.605-4.375,9.211-2.303,13.355,0.23c10.359,6.447,16.346,16.578,17.959,28.09
			c3.914,28.09,4.834,56.179-2.072,84.039c-2.303,8.979-1.613,17.038,3.223,24.866C466.96,321.313,467.88,326.148,470.183,330.522z"
			/>
		<path fill="#E7E7E7" d="M470.183,330.522c-11.742-13.354-14.736-27.859-10.131-45.588c6.678-25.097,4.145-51.114,1.152-76.67
			c-1.383-10.592-7.139-20.031-16.578-26.018c-3.684-2.303-7.598-3.915-11.973-1.842c-4.605-2.994-6.447-7.138-5.295-12.433
			c17.959-0.461,30.391,7.598,38.219,23.484c1.152,2.072,2.764,3.684,4.836,4.605C470.183,240.727,470.183,285.626,470.183,330.522z
			"/>
		<path fill="#ECECEC" d="M384.071,391.077c7.828,5.525,17.27,3.914,25.787,4.145c19.111,0.461,36.84-4.605,50.424-19.34
			c3.223-3.455,5.066-8.52,9.9-10.592c0,6.447,0,12.664,0,19.109c-4.375,0.23-6.906,3.914-9.9,6.217
			c-13.354,10.361-28.551,14.045-44.666,14.506c-10.131,0.23-20.492,0.691-30.623-1.381c-3.914-0.691-6.908-2.072-10.131-3.914
			C376.013,394.3,378.085,390.386,384.071,391.077z"/>
		<path fill="#9B1C25" d="M264.575,51.008c2.533,1.842,6.447,0.46,8.75,3.223c3.914,3.224,1.381,4.145-1.842,4.835
			c-21.874-3.223-42.827,0-61.706,9.21c1.611-0.46,5.525-1.381,6.217,2.533c0.461,2.532-3.225,3.684-5.525,4.374
			c-14.045,4.375-28.09,8.059-41.215,15.427c-8.979,5.065-17.959,10.591-24.405,18.879c-2.533,3.224-5.757,6.677-4.375,12.433
			c4.145-3.684,7.368-8.519,12.432-0.92c2.764,4.374,8.52,0.92,11.513-3.224c5.065-7.137,11.051-13.124,17.268-19.11
			c5.066-4.836,10.822-8.52,17.268-11.282c2.303-0.921,5.297-2.763,6.908,0.23c1.381,2.532-1.381,3.914-3.223,5.295
			c-2.302,1.843-4.835,3.224-6.908,5.065c-3.684,3.454-10.131,3.914-11.512,9.9c-2.303,3.454-5.066,6.678-7.829,10.592
			c4.834-1.381,4.604-5.525,6.446-8.52c2.764-3.223,2.764-10.36,10.131-7.367c2.533,5.525,2.072,10.821-0.689,15.887
			c-5.066,2.993-9.67,6.907-15.197,9.209c-3.453,0.691-6.446,2.072-8.518,5.066c-5.756,0.69-11.742,0.92-17.269-0.23
			c-7.137-1.611-11.742,0.69-14.735,6.907c-1.842,3.685-7.369,7.599-4.835,11.052c2.763,3.914,7.598-0.691,11.512-1.842
			c1.382-0.461,2.764-0.691,4.145,0c1.842,2.303,0.691,4.145-0.459,6.217c-5.066,10.59-4.836,11.051,5.985,15.426
			c1.152,0.691,1.843,1.612,1.613,2.993c-1.613,2.303-4.375,2.303-6.677,3.455c2.994,1.842,5.756,0.229,8.519-0.23
			c1.612-0.46,3.223-0.691,4.834-0.46c4.836,3.453,9.441,6.908,15.197,8.519c0.69,0.69,0.69,1.381,0.459,2.072
			c-8.288,4.834-9.439,7.829-4.604,12.203c3.684,3.223,7.137,2.993,8.518-1.843c1.383-4.604,2.764-8.518,7.139-11.051
			c2.072-1.151,1.842-3.914,2.533-6.217c1.611-6.447,4.144-12.434,10.359-15.887c3.225-0.23,5.986,0.23,7.6,3.453
			c-7.369,9.441-5.297,18.65-0.23,28.551c3.453,6.908-0.922,13.814-11.283,19.109c-5.064,2.533-9.67,5.986-17.037,8.75
			c4.605,0.922,5.525,7.598,10.131,1.15c2.072-2.762,6.676,1.383,10.131,2.303c3.223,1.383,7.367,0.23,9.9,3.225
			c0.461,0.92,0.691,1.842,0.461,2.762c-1.383,4.605-5.066,4.375-8.75,4.605c-3.223,0.23-6.678,0-10.131,0
			c-5.756,0.23-11.051-1.611-15.656-5.295c-4.836-2.994-8.059-7.6-11.053-12.434c-3.914-9.67-9.209-18.189-20.03-21.643
			c-2.072-1.612-3.224-3.684-4.836-5.527c-7.137-10.82-17.729-19.34-22.333-32.233c-1.381-7.369,3.224-12.894,6.447-18.88
			c2.764-5.065,8.059-8.979,6.908-15.657c-2.764-6.677,0.459-12.203,3.684-17.498c1.842-3.224,4.604-5.756,6.215-9.21
			c10.822-10.361,23.945-17.269,37.531-23.024c7.829-3.224,14.735-7.598,20.491-13.584c4.836-4.605,11.744-5.296,16.809-9.67
			C232.342,51.237,248.229,47.094,264.575,51.008z"/>
		<path fill="#EBEBEB" d="M204.711,440.81c-10.59,7.137-22.333,4.145-33.385,2.992c-19.11-2.07-37.299-8.287-53.417-19.801
			c-11.281-8.059-24.866-9.67-37.99-12.203c-26.247-5.064-36.608-23.023-39.602-46.277c-2.072-16.578-2.303-33.156-1.381-49.732
			c0.921-15.197-4.836-29.472-3.685-44.438c0.921-10.592,4.605-19.341,15.196-23.946c4.145,3.915,3.684,8.98,0.921,12.433
			c-7.368,9.21-7.598,19.341-4.145,29.472c6.907,20.952,6.447,42.365,6.447,64.008c0,8.289,0.46,16.807,6.907,23.254
			c1.381,1.383,2.303,2.994,2.993,4.836c0.69,7.367,5.296,11.742,11.742,14.504c3.684,1.613,7.368,3.686,11.282,4.145
			c18.188,2.533,34.307,10.361,49.963,19.342c9.9,5.525,20.721,10.131,32.694,8.289c10.361,2.301,20.262,5.525,30.393,8.518
			C201.258,437.126,204.022,437.587,204.711,440.81z"/>
		<path fill="#A31D27" d="M271.483,57.685c2.992,0,2.992-1.382,1.842-3.454c2.992,0.691,6.217-0.69,8.979,1.382
			c-2.763,4.374-5.296,9.21-7.829,13.814c-0.69,0.921-1.381,1.842-2.302,2.763c-1.612,1.612-3.685,2.764-5.526,4.145
			c-4.145,4.145-10.131,5.756-13.584,10.591c1.842,3.685,5.756,5.526,7.598,8.75c6.907,11.742,14.275,23.255,14.506,37.529
			c-1.382,1.843-3.454,2.303-5.756,2.764c-7.829-2.303-7.599-11.282-13.124-15.426c-4.145-4.835-6.677-11.512-14.505-11.283
			c1.611,5.527,6.906,8.75,8.748,14.045c1.843,5.296,5.066,10.131,6.909,15.427c5.756,18.189,7.137,36.838,4.374,55.719
			c-4.145,3.223-4.604-0.691-5.756-2.994c-2.763-5.756-3.224-12.203-5.755-17.959c-1.152-2.532-2.072-5.295-4.605-6.907
			c-1.381-0.691-3.914-2.303-4.145,0c-0.23,6.907-6.447,6.217-10.131,8.518c-4.834,3.455-10.592,5.986-10.131,13.125
			c-0.691,5.986,0.922,11.973,1.611,17.959c-0.23,3.684,1.613,7.137,1.842,10.59c-0.229,2.303-2.762,3.225-3.453,5.297
			c0,2.072,2.764,3.684,1.381,6.217c-4.143,3.914-8.287,6.906-14.045,3.684c0-0.691,0-1.381,0-2.072
			c0.23-1.152,0.461-2.533-0.459-3.453c-1.842-2.303-6.447-2.994-4.145-7.6c3.914-2.072,12.893,0.23,8.289-9.439
			c-1.612-13.354-1.152-26.248,9.439-36.608c0.23-0.23,0.92,0.229,0.461-0.691c-2.533-5.066-2.303-5.066,1.611-7.829
			c2.764-1.611,5.525-3.224,8.748-3.684c1.152,0.23,0.23-0.921,0-0.691c-3.914,2.072-4.143-2.764-6.445-3.454
			c-1.152-1.152-2.072-2.303-2.994-3.684c-2.533-3.685-4.604-8.059-7.828-11.052c-4.375-3.684-4.834-7.598-1.842-12.203
			c-2.992-2.993-7.137-3.454-10.592-5.065c-1.611-0.691-2.992-1.842-2.531-3.914c0.459-2.072,2.302-2.303,4.144-2.072
			c4.604,0.23,8.979,1.381,13.124,2.762c5.295,1.843,10.822,3.914,15.426,7.138c3.453,2.303,8.52,4.834,6.908,9.67
			c-1.152,3.915-6.217,2.303-9.9,2.533c9.9,5.295,17.729,12.432,23.714,21.643c-1.842-23.945-9.439-38.912-27.859-53.416
			c1.611,4.834,0.691,7.828-4.145,5.986c-6.678-2.533-13.584-4.836-20.723-5.527c-1.611-0.229-3.684-0.459-3.684-2.762
			c0-1.842,1.842-2.764,3.224-3.684c7.829-4.605,16.346-5.065,25.327-3.685c-1.152-1.611-3.684-2.763-2.764-5.065
			c0.691-1.842,2.764-2.072,4.375-2.072c5.756,0,10.592,2.533,15.426,5.065c7.828,4.375,14.045,10.361,19.111,17.038
			c-5.065-11.052-12.664-20.262-24.636-25.557c-3.453-1.612-3.684-8.059-9.9-6.678c-1.842,0.461-1.611-2.532-0.92-4.144
			c1.381-3.685,4.143-6.217,7.598-8.059c5.986-2.993,11.512-6.447,18.189-7.599c2.532-0.46,5.295-1.611,7.137,0.922
			c2.072,2.763,0.461,5.525-0.69,8.058c-1.151,2.303-2.763,4.145-4.145,5.296c5.296-4.835,11.513-9.9,14.966-17.269
			C270.332,58.836,270.792,58.145,271.483,57.685z"/>
		<path fill="#9B1B26" d="M273.325,69.196c2.302-4.835,2.532-11.281,9.209-13.584c29.012,3.914,54.799,15.656,78.514,32.233
			c26.707,18.65,46.969,42.596,61.936,71.375c1.15,2.072,3.223,4.145,2.533,7.138c-4.605,5.065-9.9,2.303-14.967,1.381
			c-4.834-2.764-5.756-8.289-8.748-12.203c-7.6-11.742-15.889-23.024-25.789-32.924c-12.432-13.125-26.938-23.485-42.824-32.004
			c-2.303-1.382-4.605-2.993-7.367-4.145c-8.059-3.454-15.888-7.138-24.406-9.44c-5.526-1.611-11.053-2.993-16.578-4.144
			C281.153,71.269,276.088,73.341,273.325,69.196z"/>
		<path fill="#9D1C26" d="M52.291,228.526c4.145-29.242,12.203-56.871,28.09-82.198c8.289-13.125,17.038-25.787,28.78-35.918
			c6.217,4.145,3.685,10.592,4.605,16.348c-0.461,3.453-3.223,5.756-4.834,8.749c-16.578,20.262-27.86,43.056-34.077,68.383
			c-2.302,8.979-2.993,17.959-5.295,26.938c-1.612,5.297-0.461,10.822-1.151,16.117c-0.69,7.599-8.979,13.125-16.808,11.743
			C51.83,248.786,50.68,238.657,52.291,228.526z"/>
		<path fill="#991B26" d="M369.798,401.208c-26.018,23.484-57.563,34.766-91.407,41.213c-2.533,0.461-5.065,0.23-7.599,0.23
			c-12.894,1.842-25.788,0.23-38.911,0.691c-2.994-0.23-5.986-1.611-9.211-1.842c-2.072-0.23-5.064,0.92-5.295-2.533
			c-0.23-2.764,2.303-3.684,4.375-4.375c6.217-2.072,12.893-2.303,19.109-4.375c2.072-0.689,4.145-1.842,6.217-2.762
			c5.526-2.072,11.512,0,17.039-2.072c15.656-1.383,30.853-4.836,45.589-10.131c5.525-2.072,11.281-4.145,16.576-6.908
			c8.059-3.684,15.428-8.518,22.795-13.354c2.764-1.842,5.295-4.375,9.209-4.145c3.686,0.23,7.139,1.611,10.592,2.764
			C375.093,395.683,374.862,398.214,369.798,401.208z"/>
		<path fill="#901923" d="M112.846,126.758c-2.764-5.066-0.461-11.283-3.685-16.348c21.644-23.485,48.582-38.681,78.514-49.042
			c1.611-0.46,3.223-1.151,4.605-1.842c7.137-1.611,14.045-5.526,21.643-3.914c0.23,0.23,0.461,0.46,0.691,0.46
			c-15.658,8.289-27.859,21.873-45.82,27.169c-6.446,1.842-13.354,5.986-18.418,11.742c-2.302,2.764-5.525,3.685-8.519,5.296
			c-5.295,8.979-14.736,14.045-21.182,22.104C118.371,124.225,116.76,127.908,112.846,126.758z"/>
		<path fill="#D6D5D5" d="M52.291,228.526c0,10.359,0,20.721,0,31.082c1.611,1.382,2.072,3.224,1.842,5.065
			c-1.611,8.52-2.303,17.038,3.224,24.637c1.611,5.756,2.993,11.512,4.375,17.268c0.921,21.184,0.229,42.365,0.229,63.547
			c0,3.225,0,6.447-2.532,8.75c-8.289-4.834-8.519-13.123-8.749-20.951c-0.691-22.795,1.381-45.59-6.447-67.692
			c-2.993-8.52-5.065-19.11,1.612-27.169c4.144-5.065,5.065-9.67,4.144-15.426C51.37,241.188,48.607,234.512,52.291,228.526z"/>
		<path fill="#851622" d="M247.307,429.067c-5.064,5.525-12.203,5.295-18.879,6.676c-3.455,0.691-6.678,1.152-10.131,3.225
			c3.223,4.145,8.518,0.23,11.512,3.453c-2.072,1.842-4.145,0.922-6.217,0.23c-6.678,1.15-12.893-2.072-19.34-2.072
			c-11.973-4.375-24.867-6.447-36.379-11.973c-4.145-0.461-8.52-0.691-7.137-6.906c5.986-3.914,12.663-1.844,19.11-2.072
			c5.986-0.23,11.973-0.461,17.729,0.459c9.67,1.842,19.34,4.145,29.012,4.836C233.493,427.456,241.321,424.462,247.307,429.067z"/>
		<path fill="#871622" d="M369.798,401.208c0-1.842,5.986-4.375-0.922-5.525c-3.914-0.461-7.598-2.303-11.512-3.455
			c-0.23-0.92-0.23-1.611,0.23-2.531c4.375-4.145,8.518-8.98,14.734-10.822c3.684,0.461,7.369,0.461,11.053,1.15
			c3.684,0.691,5.986,2.303,4.145,6.447c-1.152,1.383-2.072,2.764-3.225,4.375c-3.223,2.764-6.217,5.525-9.439,8.289
			C372.79,399.366,372.099,402.358,369.798,401.208z"/>
		<path fill="#EBE8EA" d="M213.922,55.612c-7.598-0.461-14.275,3.684-21.873,3.914c15.426-5.986,31.313-10.591,47.43-13.814
			c8.52-1.612,16.808,2.763,24.866,5.296C247.538,50.777,230.729,53.31,213.922,55.612z"/>
		<path fill="#871624" d="M410.089,166.359c5.066-0.691,10.131,2.303,15.197,0c0.459,0.461,1.15,0.92,1.611,1.151
			c1.842,4.145,3.453,8.289,5.295,12.434c-0.23,1.381-0.461,2.763,1.152,3.684c0.92,0.691,1.15,1.381,0.23,2.072
			c-6.217,2.994-11.283-0.92-16.578-2.533c-1.152-0.69-2.072-1.381-2.994-2.532c-1.611-2.763-2.303-5.986-3.914-8.75
			C409.858,170.273,408.478,168.432,410.089,166.359z"/>
		<path fill="#571822" d="M224.053,442.882c2.072,0,4.145-0.23,6.217-0.23c13.584,0,27.168,0.23,40.752,0.23
			C255.136,445.874,239.709,445.874,224.053,442.882z"/>
		<path fill="#CDCCCC" d="M433.575,185.469c0.229-0.461,0.229-1.15,0-1.611c14.965,4.605,21.182,13.123,22.793,29.24
			c2.533,22.564,5.066,45.819-0.922,67.461c-5.525,19.801-2.301,35.458,7.6,52.496c9.209,16.117-1.842,39.832-20.953,49.271
			c-12.662,6.217-26.248,8.059-40.063,6.678c-2.992-0.23-7.367-0.23-7.828-5.066c6.217-5.984,14.506-2.531,21.643-4.834
			c4.836-1.15,9.441-3.453,14.736-3.453c16.809,0.92,31.543-20.031,26.018-37.301c-1.842-6.216-5.525-11.512-8.98-16.576
			c-6.445-9.441-7.828-19.342-3.453-30.162c10.131-26.479,7.367-53.647,3.684-80.815c-0.92-6.677-3.684-12.664-11.051-15.197
			C433.575,192.836,431.731,189.844,433.575,185.469z"/>
		<path fill="#412A33" d="M417.228,380.716c-7.369,2.994-15.426,1.611-23.025,3.223c-3.223-1.381-4.604,1.844-6.906,2.764
			c0-3.453-2.072-4.145-4.836-4.375c-4.145-0.23-8.289-0.92-12.434-1.381c-6.445,2.764-12.432-1.611-18.879-1.611
			c-2.303-0.461-4.375-1.152-6.447-2.072c-5.756-2.072-11.742-0.691-17.498-1.152c-11.512,0.23-22.334,3.686-32.465,8.52
			c-2.763,1.383-5.525,2.994-8.519,3.684c-2.303,0.461-4.835,0.461-4.145-3.223c17.038-13.125,36.839-17.729,58.021-16.578
			c5.758,0.461,11.283,1.842,16.809,3.453c15.426,4.375,31.313,6.908,47.43,6.217C408.478,377.954,413.313,377.032,417.228,380.716z
			"/>
		<path fill="#FAA819" d="M235.334,71.499c-3.223,2.532-6.217,5.065-8.289,9.67c4.375,0,8.289-2.072,12.664,0
			c-2.994,2.533-6.447,4.375,0.23,7.138c14.505,5.756,21.642,17.959,25.787,32.465c-11.281-12.895-22.794-25.327-41.904-26.709
			c1.381,4.835,6.447,4.375,8.52,8.75c-11.973-2.072-23.486-3.454-34.537,5.064c10.592,0.23,19.57,2.994,29.701,8.52
			c-2.764-4.835-4.375-7.367-5.986-10.131c20.953,5.295,35.688,37.069,35.227,62.856c-2.532,0-2.302-2.072-2.763-3.684
			c-1.611-3.914-3.914-7.598-6.216-11.051c-1.611-2.533-6.217-5.066-0.461-8.519c1.611-0.92-0.691-2.303-1.15-3.223
			c-1.842-2.763-4.605-5.066-6.217-7.828c-1.152-2.303,2.303-8.75-4.836-5.066c-4.145-1.381-7.137-5.295-11.512-6.447
			c-1.611-1.151-3.223-2.762-4.836,0c-0.229,0.23-0.689,0.461-0.92,0.461c-5.295-0.92-10.361-1.842-17.268-2.993
			c4.374,5.525,12.663,2.993,14.045,9.9c-1.843,1.611-3.914,0.92-5.757,0.23c-6.445-1.842-12.203-1.613-17.498,2.762
			c-2.533,2.072-5.525,2.763-8.749,1.842c-4.145-5.065-10.361-0.92-15.197-3.223c0.921-5.064,5.066-4.835,8.75-5.064
			c4.604-2.303,10.591-1.843,14.045-6.908c1.842-5.525,2.072-11.512,1.611-17.269c-0.461-2.993,2.072-2.993,3.684-3.914
			c9.209-2.993,19.111-5.296,19.801-17.729c1.152-4.604,4.145-6.907,8.75-7.598c-4.145,0.46-7.139,2.532-8.52,6.677
			c-0.92,12.894-10.361,16.348-20.723,18.419c-0.229-0.229-0.459-0.69-0.92-0.921c3.453-2.993,6.906-5.756,12.203-10.131
			c-16.578,5.296-26.709,15.657-36.148,26.939c-2.533,2.993-4.605,6.676-7.368,9.439c-5.296,4.836-12.894,2.072-15.427-5.525
			c-1.15,1.611-1.842,3.223-2.762,4.604c-1.381,1.613-2.303,5.066-4.835,3.685c-2.993-1.613-3.454-5.066-2.072-8.289
			c3.224-7.138,8.52-12.895,14.506-17.959c16.578-13.585,36.609-20.031,56.639-26.018c2.074-0.691,4.605-0.23,6.447-2.993
			c-3.223-0.23-6.217-0.461-9.209-0.691c20.492-11.742,42.135-17.498,65.62-11.973c0.229,0.461,0.229,0.921,0,1.612
			c-2.072,2.303-5.065,2.532-7.829,2.303C252.833,61.368,243.624,64.822,235.334,71.499z"/>
		<path fill="#A51D31" d="M224.973,152.545c1.383,0.69,1.613,1.842,1.613,3.223c-0.691,6.447-7.6,4.835-10.592,8.289
			c-2.764,1.381-4.375,5.295-8.289,3.684c-2.303-0.92-4.605-2.072-6.678-2.993c-1.381-2.072,0.691-3.685,1.383-5.527
			c-10.361-1.611-15.428,5.296-20.492,12.203c-2.072,2.764-1.611,5.756-0.461,8.75c1.611,4.375,0.461,6.677-4.605,5.525
			l-0.459-0.691c-2.763-2.071-5.296-4.374-6.447-7.598c-2.764-6.676-5.756-5.295-9.209-0.69c-0.921,0.459-2.072,1.151-2.994,1.611
			c-1.611-1.611-2.993-3.224-3.454-5.525c-0.691-0.461-1.382-1.152-2.072-1.613c0.461-3.453,3.454-3.223,5.756-4.145
			c7.828-2.992,14.965-7.137,21.182-12.663c2.764-2.302,6.678-4.835,5.756-8.75c-1.15-4.834-6.215-2.993-9.439-3.914
			c-5.525-4.605-0.461-5.295,2.533-6.676C196.653,133.204,211.85,140.342,224.973,152.545z"/>
		<path fill="#FBAC18" d="M177.313,137.118c-1.15,0.691-2.762,1.382-3.223,2.303c-0.461,1.382,1.381,1.152,2.302,1.382
			c0.69,0.69,0.69,1.611,0.459,2.532c-3.453,7.828-9.67,12.894-17.498,15.427c-4.375,1.611-9.439,2.072-10.59-4.605
			c-1.842-1.152,4.374-5.525-2.072-5.066c-4.605,2.072-8.98,5.066-14.275,5.066c-4.605,0-6.677-1.611-3.914-6.216
			c2.993-4.834,5.986-9.67,8.749-14.736c2.072-3.684,6.447-4.604,9.441-3.914c5.065,1.152,10.131,2.994,14.735,0.23
			c3.453-2.072,2.072,6.217,5.756,2.072c4.836,0.921,11.053-7.368,14.275,2.303C181.688,137.118,178.924,135.967,177.313,137.118z"
			/>
		<path fill="#5B0B1A" d="M209.547,232.209c5.525,0.23,10.131-2.072,14.275-5.526c1.15-0.691,2.303-0.691,3.223,0
			c1.383,3.223,2.764,6.446,5.297,9.209c1.842,2.072,3.453,4.605,1.15,7.367c-8.059,5.295-17.959,5.066-26.479,8.75
			c-0.92,0.23-1.611,0.69-2.532,0.69c-18.65,4.145-36.839,9.671-55.259,14.275c-4.604,1.151-8.979,3.684-14.045,1.382
			c-0.92-1.151-1.151-2.533-0.92-3.914c1.612-3.915,5.065-5.065,8.979-5.757c8.98-1.381,17.729-4.144,26.479-6.677
			c10.361-1.611,18.88-7.138,27.168-12.894c-1.842-0.689-3.453-0.23-5.064-1.15c-1.151-0.691-2.072-1.381-1.842-2.994
			c4.605,0,8.979,0,13.584,0C206.325,235.663,208.856,235.893,209.547,232.209z"/>
		<path fill="#FAF8F9" d="M207.706,167.741c2.533-1.611,4.835-3.223,7.367-5.065l3.225,2.762c4.145,2.994-0.461,4.605-0.922,6.678
			c-0.23,1.15-5.986,1.15-0.461,3.684c1.613,0.691-0.459,3.684-1.381,5.295c-5.064,9.441-5.295,18.881-0.691,28.551
			c5.066,9.9,5.066,9.9-9.9,10.361c-1.381,1.381-3.223,1.15-4.834,1.842c1.381,2.072,4.604,2.764,4.604,5.756
			c-1.611,2.072-3.684,1.381-5.756,0.922c-2.762-1.152-5.756-2.072-9.67-3.455c1.611,2.533,2.533,4.145,3.914,6.447
			c-7.598-1.15-13.123-4.145-16.348-10.592c4.836-2.072,10.131-1.842,14.506-6.215c2.764-2.533,7.598-4.605,11.512-7.138
			c4.605-2.993,5.756-5.986,3.685-10.821c-0.921-2.072-1.382-4.375-2.763-6.447C198.497,182.016,200.797,174.648,207.706,167.741z"
			/>
		<path fill="#DD1F26" d="M176.623,185.7c2.762-0.92,6.676-1.611,2.532-5.295c-3.223-2.994-1.842-5.525-0.459-8.289
			c5.526-10.822,12.663-14.967,27.399-15.426c0,3.914-4.605,4.834-5.526,8.288c-4.605,5.757-6.677,12.895-9.671,19.342
			c-2.992,6.216-7.137,13.123-11.281,19.109c-1.611,2.533-5.295,1.381-7.828-0.69c-3.454-2.763-5.986-6.217-5.526-11.052
			c0.23-3.684,3.223-4.145,6.217-4.375C174.09,187.081,175.471,186.161,176.623,185.7z"/>
		<path fill="#9595C9" d="M176.623,142.414c0-0.46,0-1.152,0-1.611c4.604-2.303,8.979-0.691,11.512,2.993
			c2.762,3.914-1.612,6.677-4.145,9.209c-8.98,8.75-19.34,15.197-31.543,18.42c-11.742-1.842-13.814-6.447-7.598-16.346
			c1.151-1.843,2.993-3.455,2.532-5.988c1.382-1.611,2.994-3.223,4.605-5.295c1.842,3.453,0.691,5.756-0.922,7.828
			c-1.15,3.224-2.992,6.677,0.461,9.439c2.763,2.303,5.986,1.152,8.98,0c6.446-2.301,11.051-6.907,15.657-11.742
			C178.004,147.249,178.004,144.947,176.623,142.414z"/>
		<path fill="#839CAE" d="M119.522,121.002c6.217-8.289,15.197-13.585,22.564-20.492c1.842,3.914-2.072,4.835-3.453,7.137
			c-3.684,5.986-8.289,11.742-4.835,19.341c-3.454,5.525-7.598,10.59-12.203,15.195c-1.381,0.691-2.532,0.922-3.684,0
			C114.688,134.586,117.219,127.908,119.522,121.002z"/>
		<path fill="#A9742A" d="M166.262,220.006c3.454,3.684,6.907,7.137,10.361,10.82c0.459,0.922,0.459,1.613-0.23,2.303
			c-3.455,2.994-7.138,3.225-11.283,2.303c-1.611-0.461-3.223-1.381-4.374-2.533c-1.842-5.064-7.599-6.445-10.361-10.59
			c2.762-2.072,5.526-3.914-0.23-5.756c-1.611-0.691-2.763-1.613-3.684-3.225c-1.152-1.842-1.611-3.914-2.303-5.986
			c-0.23-2.533-0.691-5.295,2.303-6.676C155.901,204.12,161.196,211.717,166.262,220.006z"/>
		<path fill="#CAC9C9" d="M119.522,142.184c0.691-0.46,1.152-1.15,1.842-1.611c2.303-0.691,4.145-0.23,5.527,1.842
			c-2.072,6.447-8.75,11.051-6.908,18.879c0.922,2.072,0.461,4.145,0.922,6.217c-0.461,2.763-1.842,4.835-3.455,6.908
			c-1.381,1.612-2.762,3.684-5.295,2.762c-8.289-5.525-3.453-13.584-3.684-20.491C109.852,150.012,113.536,145.176,119.522,142.184z
			"/>
		<path fill="#6F0D1E" d="M146.461,200.895c-1.842,2.072-0.691,4.605-0.921,6.908c0.921,1.381,0.691,2.763,0.691,4.145
			c0.461,6.906-1.611,8.748-8.289,6.447c-1.842-0.691-3.684-1.613-5.065-2.994c-2.072-2.992-1.842-6.447-1.842-9.9
			c0-3.223,1.381-5.986,1.611-8.979c1.151-9.21,1.381-9.21,9.209-4.144c1.152,1.381,2.302,2.762,3.453,4.375
			C145.54,198.133,149.223,198.824,146.461,200.895z"/>
		<path fill="#A46F29" d="M176.393,232.44c0-0.691,0-1.152,0.23-1.842c4.374,2.07,8.059,5.986,13.584,4.834
			c0.689,0.691,1.381,1.152,2.072,1.842c0,5.756-5.066,6.678-8.52,8.98c-3.453,2.301-7.368,4.145-11.512,5.294
			c-3.455,0.922-6.678,1.843-9.44-1.611c-0.461-4.145,4.604-6.908,2.762-11.512C167.643,233.821,173.629,235.663,176.393,232.44z"/>
		<path fill="#F8EEEF" d="M160.506,176.95c-2.763-4.374,0.69-4.834,3.454-6.215c2.763-1.382,4.605-1.382,5.064,1.611
			c0.922,5.295,7.599,6.907,7.139,12.893C169.254,185.7,164.42,182.247,160.506,176.95z"/>
		<path fill="#64202C" d="M142.086,192.377c-2.994,2.533-3.684-3.225-6.908-1.612c0,4.374-0.229,9.209-1.842,13.814
			c-0.92,0.459-1.611,0.459-2.301-0.23c-2.072-3.225-1.613-6.678-0.691-9.9c1.611-7.139-0.23-12.895-5.986-17.5
			c-2.763-2.301-4.835-5.064-5.066-8.748c0.23-2.303,0.461-4.605,0.691-6.678C125.739,172.576,134.949,181.786,142.086,192.377z"/>
		<path fill="#8586B1" d="M146.461,200.895c-0.23-1.381-0.691-2.992-0.921-4.374c11.512,3.684,18.42,11.282,20.722,23.254
			C159.584,213.559,153.137,207.342,146.461,200.895z"/>
		<path fill="#F5E3E6" d="M187.213,194.45c3.914,0,7.139,0.23,10.131,0c2.072-0.23,4.145-0.691,4.836,1.842
			c0.689,2.072-0.23,3.914-1.612,5.525c-1.382,1.842-3.455,1.381-5.296,0.691C191.819,200.895,189.977,197.672,187.213,194.45z"/>
		<path fill="#8C8CBE" d="M138.402,172.807c-8.519,0-12.203-4.605-14.045-13.125C130.805,162.676,137.25,164.057,138.402,172.807z"
			/>
		<path fill="#BEB8B9" d="M126.891,142.414c-1.843-0.691-3.685-1.152-5.527-1.842c3.684-4.835,6.447-10.592,12.434-13.584
			C135.409,133.895,129.422,137.348,126.891,142.414z"/>
		<path fill="#F6E8EA" d="M183.991,111.791c-0.691,7.139-4.605,10.361-13.124,9.901c4.834-5.526,8.749-10.131,12.663-14.735
			C184.682,108.568,184.451,110.18,183.991,111.791z"/>
		<path fill="#F1E1E3" d="M179.385,209.415c4.145-2.072,7.828-3.914,11.283-5.525c1.842-0.922,3.454,0.23,4.374,1.611
			c0.922,1.611-0.689,2.764-2.072,2.994C188.825,209.645,184.911,215.862,179.385,209.415z"/>
		<path fill="#F4E6E8" d="M154.059,173.036c3.223,0.461,4.144,2.533,3.453,5.527c-5.295,0.92-11.051,3.914-14.965-2.994
			C146.691,174.648,150.375,173.958,154.059,173.036z"/>
		<path fill="#F1E2E4" d="M151.295,189.383c-9.209-1.15-12.203-6.676-15.196-14.045
			C143.237,178.563,147.381,182.938,151.295,189.383z"/>
		<path fill="#EEDBDE" d="M166.723,208.495c1.381-0.23,1.842-0.461,2.301-0.461c3.914,1.15,8.75,0.691,10.592,5.525
			c0.461,1.381,0,2.533-1.151,2.533C173.168,216.323,169.485,213.79,166.723,208.495z"/>
		<path fill="#C72C27" d="M190.438,119.85c-0.461,10.822-9.441,4.605-14.045,6.908C181.458,125.145,183.53,117.317,190.438,119.85z"
			/>
		<path fill="#F1CDC0" d="M183.991,111.791c-0.23-1.611-0.461-3.223-0.461-4.834c1.842-5.066,6.678-7.368,10.822-10.131v0.46
			c0.459,0.69,1.842,0.69,1.842,1.842c-1.383,0.921-2.764,1.842-3.914,2.763C187.213,103.732,185.372,107.647,183.991,111.791z"/>
		<path fill="#CBD7EE" d="M198.956,228.985c1.842-0.459,4.145,0.23,5.297-1.842c2.302-2.303,4.604-1.381,7.137-0.23
			c2.994,3.225-1.611,2.072-1.842,3.455C205.864,229.676,202.18,231.288,198.956,228.985z"/>
		<path fill="#9B1C26" d="M59.429,378.874c0.23-24.865-0.921-49.732,0.46-74.599c0.23-7.368,1.612-8.289,7.368-4.835
			c2.303,1.15,4.604,2.532,4.835,5.525c-0.23,23.254-0.921,46.279,0.23,69.533c1.382,3.684,4.145,4.375,7.598,3.455
			c10.361-2.533,20.723-5.066,30.623-8.52c3.914-1.383,6.907-4.145,8.749-7.828c1.842-4.605,0.921-12.434,10.131-9.211
			c7.369,10.822,7.369,10.822,20.031,6.908c6.908-2.072,13.814-3.684,20.723-5.756c6.447-2.072,9.9-6.217,10.131-12.434
			c0.459-18.65,1.15-37.529-0.23-56.18c-0.922-11.512-3.225-12.434-14.506-9.67c-6.907,1.611-13.584,5.065-20.952,4.604
			c-3.685-2.993-3.455-6.907-3.224-11.052c21.183-6.677,42.826-11.512,64.238-17.729l0,0c19.801-4.604,38.682-12.204,58.251-17.038
			c16.808-3.684,33.155-9.211,49.733-13.125c1.842-0.459,3.684-1.381,5.064-2.992c0.461-0.691,0.691-1.381,1.152-2.303
			c2.302-15.195,14.734-20.721,26.246-26.709c2.764-1.381,5.986-1.611,8.75-3.223c1.15-0.691,2.303-1.381,3.453-2.072
			c9.441-4.145,19.342-5.986,29.701-5.525c3.225,0,6.217,0.92,9.211,2.533c5.756,4.145,10.131,9.44,11.281,16.807
			c0,3.684-0.23,7.367,0.922,10.822c0.459,14.045-8.75,19.34-21.184,24.635c-4.834,2.072-9.209,4.145-11.973,8.75
			c-1.611,16.808-0.459,33.846-0.689,50.654c0,2.532,0.23,4.604,3.684,4.604c12.203-2.763,12.203-2.763,12.203-14.966
			c0-4.374,0-8.519,0.23-12.894c0.459-6.447,4.143-9.21,10.131-9.21c5.984,0,6.445,4.835,6.445,9.21
			c0.23,3.914-0.23,8.059,0.23,11.973c0.23,2.763-1.381,7.367,3.684,6.907c4.375-0.46,10.361,0.23,10.361-7.368
			c0-8.288,1.15-16.808-0.23-25.097c-1.842-11.281,1.152-22.333,0.23-33.384c0-5.066,0-10.361-0.691-15.426
			c0.23-3.914,0.922-7.599,4.836-9.9c3.453-0.23,5.295,2.072,7.137,4.374c5.297,7.599,3.914,16.348,3.914,24.637
			c0,5.295,0.23,10.822-0.229,16.117c0,0.92-0.23,2.072-0.23,2.992c0.23,15.887,1.381,32.004-0.461,47.891
			c-3.453,6.447-10.822,5.296-16.117,7.598c-5.295,2.303-11.051,3.685-16.578,5.297c-5.064,1.611-10.359,2.992-15.656,3.914
			c-19.57,3.453-38.68,9.209-57.561,15.426c-8.749,2.764-17.498,5.756-26.479,6.908c-12.663,1.842-24.865,5.525-36.839,9.67
			c-1.15,0.689-2.532,1.15-3.914,1.15c-25.787,5.525-51.113,13.125-76.671,20.031c-9.9,2.764-20.26,4.605-29.932,8.059
			c-19.34,4.605-38.68,9.9-57.56,15.656c-5.065,2.303-10.361,3.225-15.427,5.066c-14.505,1.842-18.649,0-23.715-10.131
			C60.35,381.177,59.889,380.024,59.429,378.874z"/>
		<path fill="#D7D6D6" d="M60.811,382.558c5.986,7.828,14.044,10.592,23.715,8.289c3.914-1.381,7.137,0.922,10.36,2.072
			c5.986,2.072,11.974,4.605,18.65,4.145c3.455,0.691,6.217,2.764,8.75,5.064c7.368,6.678,16.348,10.131,25.557,13.814
			c4.375,2.994,10.361,3.455,13.123,8.98c2.303,1.381,4.836,2.764,7.139,4.145c-7.368,4.375-14.275,0.461-21.182-1.611
			c-15.658-5.066-28.09-16.348-43.978-20.723c-9.21-2.533-19.11-3.223-27.859-7.598C67.947,395.452,61.271,391.769,60.811,382.558z"
			/>
		<path fill="#791120" d="M233.493,242.11c0-3.225-2.764-4.836-4.375-6.908c-2.072-2.303-4.375-4.604-2.303-8.059
			c-1.381-2.992-4.834-2.992-6.906-4.834c0.689-2.533,2.533-3.914,5.064-4.145c4.145-2.533,6.217,1.15,8.75,2.992
			c8.52,5.756,15.656,4.145,20.261-5.295c2.072-4.145,3.224-8.52,5.756-12.434c1.151-1.842,0.921-4.145,1.842-6.217
			c1.382-18.418,2.303-36.608-3.684-54.336c-0.69-2.072-0.46-3.914-1.151-5.986c-2.532-4.605-4.604-9.67-7.368-14.045
			c-2.992-3.455-4.605-7.828-8.75-10.361c-2.07-1.152-1.842-3.224,0-4.835c7.828,1.152,11.283,7.828,16.118,12.894
			c2.763,3.223,4.835,6.907,7.368,10.361c0.921,2.072,2.072,4.145,2.072,6.446c-0.23,1.842,0,3.685,0.921,5.296
			c1.611,3.223,2.993,6.446,2.993,10.36c-2.303,4.836-0.23,9.441,0.921,14.045c1.151,4.605,2.303,9.441,2.072,14.275
			c-0.691,8.289,1.842,16.348,1.381,24.637c-0.229,8.52-0.46,17.037-2.532,25.326c-1.151,2.764-3.454,3.225-5.986,2.994
			C254.905,237.043,244.774,242.571,233.493,242.11z"/>
		<path fill="#8D1823" d="M261.122,204.35c-1.842,4.375-3.684,8.979-5.756,13.354c-5.065,10.592-14.737,12.434-23.715,5.066
			c-2.072-1.843-3.914-4.375-6.908-4.375c-1.381-3.455-3.914-6.217-3.223-10.361c3.453-4.836-3.223-9.67-0.23-14.506
			c10.361-9.209,13.814-9.67,25.557-3.223c2.994,1.611,5.987,2.992,9.21,4.145C259.74,196.752,261.353,199.975,261.122,204.35z"/>
		<path fill="#F5F4F1" d="M177.313,137.118c1.611-0.92,2.994-2.071,4.605-2.993c3.914-0.921,7.598-1.842,11.051-4.835
			c6.678-5.756,14.506-1.842,21.873,0.691c1.613,0.461,3.225,0.922,3.686,2.994c-2.303,1.15-5.066-0.922-7.6,1.611
			c5.527,5.295,9.9,11.742,14.045,18.189c-3.223,1.381-4.375-1.613-5.986-2.994C206.555,140.572,193.2,134.816,177.313,137.118z"/>
		<path fill="#951A26" d="M264.345,142.184c-1.611-0.921-1.381-2.072-0.46-3.453c1.612-1.613,4.375-1.842,5.986-3.455
			c1.382-1.842,3.454-1.611,5.296-2.072c0-8.288-4.145-15.426-6.907-22.793c-0.921-2.533-3.915-4.375-1.842-7.598
			c3.223-1.151,4.604,1.381,5.985,3.453c6.678,9.67,10.822,20.492,11.973,32.234c1.382,7.598,2.533,15.196,0.691,23.024
			c-3.914,5.066-5.525,0-7.368-2.072C272.864,153.926,269.871,147.02,264.345,142.184z"/>
		<path fill="#EB5B26" d="M240.401,133.665c5.525,3.453,9.209,8.289,11.05,14.045c-2.302,2.303-3.453-2.072-5.525,0
			c3.453,5.525,8.519,10.131,8.058,17.268c-8.058-9.67-16.808-18.418-30.162-25.787c6.678,0,11.051,0,16.348,0
			c-5.297-9.9-15.197-11.282-22.334-16.116v0.229c1.611-1.611,3.453-2.072,5.525-1.842c5.295,0,8.75,2.994,11.742,6.908
			C238.098,129.061,239.479,131.133,240.401,133.665z"/>
		<path fill="#9A93C6" d="M214.613,210.106c-5.296-9.211-7.83-18.42-1.382-28.551c2.764-4.375-0.92-11.282,6.217-14.275
			c-5.525,1.382-5.756-0.92-4.375-4.604c2.764-4.145,8.289-3.684,11.514-7.138c3.684,0.921,6.215,5.756,11.051,3.914
			c-5.986,3.684-12.895,5.296-17.498,10.822c2.992,1.612,5.295-2.072,8.748-0.23C212.77,179.713,213.922,194.91,214.613,210.106z"/>
		<path fill="#CFCCCD" d="M266.647,74.262c1.612-1.151,2.993-2.072,4.605-3.224c2.763-0.921,5.064,0,5.295,2.533
			c0.461,9.439,6.908,14.505,12.895,20.261c0.23,2.764-1.612,4.145-3.914,5.065c-6.447,0.23-12.895,0-18.65-3.684
			c-2.993-5.525-1.151-11.742-1.611-17.498C265.497,76.564,265.957,75.413,266.647,74.262z"/>
		<path fill="#E25726" d="M235.334,71.499c9.67-11.052,22.794-12.434,36.149-12.203c-3.224,11.513-13.124,16.577-22.565,21.873
			c2.533-4.374,8.059-6.677,9.441-11.973c0.46-1.611,1.842-3.224,0.69-4.835c-1.382-1.842-2.993-0.23-4.604,0
			C247.307,64.822,241.782,69.196,235.334,71.499z"/>
		<path fill="#E3E3E3" d="M289.212,94.063c-8.979-3.223-14.736-8.979-14.275-19.34c0-2.533-1.842-3.224-3.684-3.685
			c0.69-0.69,1.381-1.151,2.072-1.842c4.374,0.23,8.519,0,12.433,2.072c-1.611,3.914-0.46,6.907,2.532,9.671
			c2.303,2.302,5.066,4.374,6.447,7.598C294.507,92.221,292.896,94.293,289.212,94.063z"/>
		<path fill="#BDB9BA" d="M265.957,77.945c2.072,5.296,1.151,10.822,0.23,16.117c-0.921,1.151-2.303,1.612-3.685,1.842
			c-1.15,0.23-2.072,0.23-3.223,0c-3.224-2.993-6.678-5.986-9.901-8.749C255.826,85.544,259.971,79.788,265.957,77.945z"/>
		<path fill="#5C2732" d="M219.909,187.311c0.461-9.209,8.059-11.281,14.275-15.195c1.842-1.151,8.289,0.46,4.375-6.447
			c-1.383-2.533,5.525-2.993,8.748-1.381c2.764,1.381,3.915,4.605,5.066,7.598c-0.922,1.15-0.23,3.223-2.302,3.914
			c-9.211-5.065-15.656,1.15-22.334,5.756c-2.303,1.611-3.684,4.375-5.986,6.217C221.29,187.772,220.598,187.772,219.909,187.311z"
			/>
		<path fill="#2E2832" d="M262.733,132.053c-6.907-8.75-13.124-17.729-22.333-24.406c0.92-2.533,2.301-3.684,4.834-1.612
			c4.836,3.684,9.901,7.139,12.664,13.125C259.05,123.764,265.267,126.297,262.733,132.053z"/>
		<path fill="#A04052" d="M256.057,135.276c6.677,14.045,7.368,29.242,6.907,44.438c-0.23,6.678-0.23,13.123-0.23,19.801
			c-2.532-0.23-2.763-1.611-1.611-3.453c0.921-19.801-0.23-39.372-5.296-58.713c-0.46-0.459-0.69-0.92-0.46-1.381
			C255.826,135.506,255.826,135.276,256.057,135.276z"/>
		<path fill="#5E5461" d="M261.353,196.061c0,1.381,0.46,2.763,1.611,3.453c0,1.842,0.461,3.684-1.611,4.836
			c-1.612-2.764-3.224-5.756-4.836-8.52c-3.914-6.217-7.368-12.664-5.526-20.492c0.231-1.381,0.231-2.762,1.842-3.453
			C256.517,179.483,256.747,188.463,261.353,196.061z"/>
		<path fill="#BE475D" d="M259.51,95.904c0.691-0.46,1.382-1.15,1.843-1.611c2.302,1.842,4.374,3.914,5.065,7.138
			c0,0.46,0,0.69,0,1.151c2.993,8.289,5.985,16.578,8.979,24.866c0.69,2.072,2.763,4.145-0.461,5.986
			C271.713,120.08,265.957,107.877,259.51,95.904z"/>
		<path fill="#414954" d="M262.733,132.053c0.691-5.064-5.065-7.828-4.835-12.893c5.986,3.684,5.986,11.973,11.973,15.887
			c0.461,0.459,3.685,0,0.921,1.842c-1.842,1.15-4.604,1.15-6.907,1.842C265.267,136.197,262.733,134.355,262.733,132.053z"/>
		<path fill="#908EC1" d="M211.159,226.684c-2.303,0-4.604,0.229-7.137,0.229c-3.454-0.689-5.986-2.762-8.289-6.676
			c3.453,0,6.217,0,8.979,0C206.784,222.54,209.086,224.612,211.159,226.684z"/>
		<path fill="#3E4045" d="M265.957,77.945c-5.526,3.224-8.749,10.361-16.578,9.21c5.756-4.145,11.512-8.519,17.039-12.663
			C266.418,75.413,266.188,76.564,265.957,77.945z"/>
		<path fill="#A44154" d="M219.909,187.311c0.461,0,0.92,0,1.381,0c2.303,2.072,1.842,4.375,0.461,6.678
			c0.92,4.145,1.611,8.059,2.533,12.203c0.689,3.223-1.152,2.072-2.533,1.611C221.059,200.895,218.756,194.219,219.909,187.311z"/>
		<path fill="#B44D5F" d="M256.057,135.276c0,0.691,0,1.152,0,1.842c-3.224-4.374-5.755-8.979-6.908-14.274
			C252.833,126.297,255.136,130.441,256.057,135.276z"/>
		<path fill="#CCACBF" d="M219.678,222.309c2.533,1.381,7.598-1.152,6.908,4.834c-0.922-0.23-2.072-0.23-2.994-0.459
			C223.592,224.151,217.145,227.374,219.678,222.309z"/>
		<path fill="#F7F8F8" d="M376.935,121.231c10.592,9.902,19.109,21.414,26.248,33.847c2.072,5.525-1.611,8.288-5.525,10.821
			c-6.678,2.072-13.586,1.381-20.492,1.842c-8.52-5.986-13.354-14.736-18.65-23.485
			C362.429,134.586,367.034,125.836,376.935,121.231z"/>
		<path fill="#95B4C8" d="M376.935,121.231c-6.908,6.677-12.203,14.506-17.498,22.564c-7.139-0.69-10.361-5.756-12.895-11.743
			c2.764-3.453,1.842-6.677-0.92-9.9c-4.145-5.064-9.441-8.289-14.275-12.203c-2.764-2.072-5.756-3.914-7.139-7.367
			c0.922-5.986,4.836-10.131,9.441-13.585C350.226,97.056,364.731,107.877,376.935,121.231z"/>
		<path fill="#94B1C6" d="M303.026,75.413c8.059,2.532,16.117,5.296,23.715,9.67c-2.533,5.757-5.295,11.282-11.973,13.354
			c-7.598-1.611-14.735-4.145-19.34-11.052C295.659,82.09,299.112,78.637,303.026,75.413z"/>
		<path fill="#F3F0F0" d="M303.026,75.413c-0.461,5.065-5.065,7.598-7.138,11.742c0,1.612-0.46,2.303-2.072,1.612
			c-3.224-2.993-6.907-5.986-9.9-9.21c-2.763-3.224-3.914-6.447,1.842-8.289C291.744,71.499,297.271,73.802,303.026,75.413z"/>
		<path fill="#F2F2F2" d="M315.229,97.517c4.605-3.454,6.217-9.44,11.281-12.434c2.533,1.382,4.836,2.533,7.369,3.914
			c-1.613,5.296-6.447,8.75-8.98,13.585c-0.23,2.302-1.611,3.684-3.914,4.145c-4.145-0.922-6.447-3.224-7.367-7.368
			C313.849,98.438,314.538,97.747,315.229,97.517z"/>
		<path fill="#88A3B5" d="M397.427,164.518c2.072-2.994,5.986-5.066,5.756-9.439c2.303,3.914,4.604,7.598,6.906,11.512
			c0.461,1.612,0.922,3.454,1.611,5.065c-0.689,4.835-4.143,3.224-6.906,2.994c-3.453-0.46-7.367-0.46-10.131-3.224
			C392.13,167.741,395.585,166.59,397.427,164.518z"/>
		<path fill="#FFFFFF" d="M67.487,230.368c1.382-9.441,2.532-18.881,5.525-27.86c3.914-9.441,10.821-16.808,16.808-24.867
			c1.382-1.842,3.224-3.453,5.757-2.993c5.065,5.065,8.058,11.743,11.742,17.959c0.23,6.217-2.072,11.743-5.065,17.038
			c-5.065,5.295-9.44,11.281-14.045,16.809c-1.382,1.842-2.993,2.992-5.065,3.684c-5.065,0.689-9.67,4.604-15.196,2.303
			C67.257,231.979,67.026,231.288,67.487,230.368z"/>
		<path fill="#9FBFD5" d="M95.347,174.879c-8.749,8.288-14.275,18.879-22.334,27.629c5.757-25.787,17.499-48.582,34.767-68.843
			c5.756,2.533,2.994,7.138,2.072,10.822c-1.842,6.447-5.986,12.203-6.216,19.34c0,0.921-0.23,1.611-0.46,2.533
			C101.103,169.583,99.491,173.266,95.347,174.879z"/>
		<path fill="#93AFC4" d="M102.023,164.748c-1.381-5.527,1.382-10.131,3.454-14.966c2.072-5.065,5.986-9.9,2.302-15.887
			c1.612-2.303,3.225-4.605,4.836-6.907c2.303-1.843,4.375-3.914,6.676-5.757c2.072,7.138-2.993,14.045,0,21.183
			c-3.454,4.605-6.907,9.209-10.36,13.814C108.24,159.913,106.629,163.596,102.023,164.748z"/>
		<path fill="#922339" d="M67.487,230.368c0.23,0.459,0.46,1.15,0.46,1.611c3.454,4.834,1.842,10.131,2.072,15.426
			c0,1.842,0.23,3.684,0.23,5.295c-4.835,5.526-11.742,8.52-17.959,11.973c0-1.842-0.23-3.453-0.23-5.295
			c10.361-4.605,16.809-11.282,14.045-23.715C65.646,234.051,65.875,231.979,67.487,230.368z"/>
		<path fill="#84A1B3" d="M327.202,373.81c6.217-0.23,12.664-1.383,18.65,1.611c-5.066,3.684-9.672,8.059-13.816,12.893
			c-0.689,0.23-1.611,0.461-2.301,0.691c-16.578,2.303-31.314,7.367-41.905,21.643c-5.756,7.598-13.124,13.354-22.794,15.887
			c-0.921,0.23-1.611,0-2.533,0c0,0.461,0.23,0,0.461,0c0.921,0,1.611,0.23,2.072,1.152c-5.756,2.531-11.973,0.459-17.729,1.611
			c-6.906-0.691-13.814,0-20.721-2.072c-0.461-1.842,0.92-2.764,2.301-2.994c22.564-3.453,38.681-17.498,54.108-32.463
			C298.191,386.702,312.696,379.796,327.202,373.81z"/>
		<path fill="#93B0C5" d="M265.267,427.456c-2.533-0.23-4.836-0.461-8.979-0.922c15.196-2.764,25.097-9.9,32.694-21.412
			c6.217-9.439,17.959-11.742,27.859-16.117c4.145-1.842,8.75-4.836,13.814-1.381c1.152,4.145-1.842,6.445-3.914,8.979
			c-5.295,6.678-10.592,13.584-15.426,20.492C296.349,423.312,281.153,426.995,265.267,427.456z"/>
		<path fill="#F4F3F3" d="M311.085,417.325c0.921-8.98,8.979-13.584,12.895-20.723c1.842-3.223,4.143-5.986,6.445-8.979
			c0.461,0,0.922-0.23,1.383-0.23c3.684-1.152,6.906-0.691,9.439,2.762c-1.842,8.75-7.828,14.506-14.275,20.262
			C322.137,413.642,316.61,415.483,311.085,417.325z"/>
		<path fill="#92AFC3" d="M326.972,410.187c4.375-6.445,8.98-12.893,13.354-19.57c1.842-3.223,2.303-7.598,6.908-8.979
			c4.375,2.301,8.059,5.295,10.82,9.209c-0.229,0.461-0.459,0.922-0.459,1.381C347.464,398.444,338.253,406.272,326.972,410.187z"/>
		<path fill="#9C1C26" d="M52.521,264.903c3.914-6.446,10.821-8.749,17.268-11.512c1.843-5.756,6.908-5.526,11.513-6.217
			c1.382,0,3.224,0.461,4.145-0.23c11.052-7.367,23.485-2.992,35.228-3.684c5.295,4.375,9.439,9.67,14.275,14.505
			c1.611,2.303,2.071,4.835,0.459,7.368c0,1.151-0.23,2.303-0.23,3.453c0.461,0.461,0.691,0.922,0.461,1.382
			c0,0.461-0.23,0.69-0.23,0.69c-0.69,0.461-1.151,0.921-1.842,1.382c-5.295,2.303-11.051,3.684-11.282,11.052
			c-0.23,2.763,0.92,5.525-0.23,8.289c-3.453,5.986-9.439,7.828-15.887,8.519c-9.9,0.921-19.341,5.526-29.701,3.685
			c-9.21-1.612-15.887-7.139-21.183-14.506C48.377,281.481,48.377,273.423,52.521,264.903z"/>
		<path fill="#60212D" d="M55.054,289.079c3.685,0.69,5.526,3.914,7.829,6.447c3.914,4.145,8.749,6.217,14.505,5.756
			c-1.382,3.453-3.454,3.453-6.217,1.842c-2.993-1.381-5.986-2.764-9.21-4.145c-0.46,1.611-1.15,3.453-1.842,5.296
			C56.436,299.671,56.436,294.145,55.054,289.079z"/>
		<path fill="#738B9B" d="M283.686,393.149c-14.966,16.348-31.543,30.393-54.798,32.693c-0.689,0-1.381,0.922-2.072,1.383
			c-9.439,0-18.648-2.764-27.859-4.836c-0.689-0.92-0.689-1.611,0.23-2.533c6.908-2.992,14.736-1.15,21.643-4.143
			c14.736-3.225,28.32-8.98,40.753-17.5c2.763-2.072,5.757-3.914,8.979-5.064C274.937,392.688,279.312,389.696,283.686,393.149z"/>
		<path fill="#5B252E" d="M199.647,420.548c-0.23,0.461-0.23,1.152-0.461,1.611c-10.59,0-20.951-0.23-31.543-0.23
			c-2.533,0-5.295-0.689-6.447,2.533c-5.295-1.611-9.9-4.605-14.504-7.828c1.611-1.611,3.453-2.072,5.525-1.842
			c14.965,2.764,29.932,2.072,44.897,3.453C198.266,418.937,198.956,419.628,199.647,420.548z"/>
		<path fill="#859EB1" d="M358.054,391.077c-4.604-1.381-7.828-4.605-10.359-8.52c-1.613-3.223,1.611-3.684,3.223-5.064
			c6.678-0.691,12.664,2.531,19.109,3.453C366.573,384.86,362.659,388.313,358.054,391.077z"/>
		<path fill="#640A1A" d="M431.731,200.895c-1.611-1.15-3.223-2.301-4.604-3.453c-2.764,1.152-5.297,0.461-7.598-1.611
			c-1.842-4.605-4.605-8.75-2.533-14.045c5.756,0,10.59,4.145,16.578,3.453c1.15,2.764,2.531,5.756,3.684,8.52
			c2.762,2.533,3.684,5.756,4.373,9.209c5.986,25.787,7.139,51.576,2.994,77.823c-0.691,4.375-0.461,9.44-5.066,12.203
			c-1.15,0.23-2.07-0.23-2.762-0.921c-0.691-12.434-0.23-24.636-0.23-37.069c0-3.684-0.691-7.368-0.922-11.051l0,0
			c2.072-11.512,0.691-23.025,0.691-34.768C436.337,206.422,434.726,202.967,431.731,200.895z"/>
		<path fill="#657582" d="M416.997,182.016c0.92,4.605,3.914,8.75,3.223,13.814c-3.684,2.763-7.598,3.914-12.203,2.072
			c-2.301-5.986-5.756-11.051-10.359-15.196c-2.072-5.527,1.842-5.757,5.295-5.757c4.375,0,8.52,1.152,12.434,2.994
			C415.845,180.635,416.536,181.325,416.997,182.016z"/>
		<path fill="#768D9E" d="M415.386,179.944c-3.914,1.842-7.369,0.23-11.053-0.691c-3.453-0.92-6.217-1.15-6.676,3.455
			c-2.764-0.921-5.527-1.843-8.289-2.533c-0.922-0.461-2.072-0.691-2.533-1.842c-0.23-2.533,1.611-4.144,2.533-5.986
			c1.15-1.381,2.303-2.994,4.604-2.533c5.756,1.611,11.514,4.375,17.729,1.611C413.772,173.958,414.694,176.721,415.386,179.944z"/>
		<path fill="#9B1B27" d="M197.344,420.087c-17.037,1.152-33.846-0.92-50.653-3.223c-9.441-2.533-18.189-6.678-25.328-13.584
			c-1.842-5.986,3.224-5.525,6.447-7.139c4.835-0.689,8.98,1.383,13.354,2.533c8.98,2.533,18.189,1.842,27.4,2.072
			c3.454,0,7.598-0.92,9.9,3.223c-2.533,3.455-6.447,2.072-9.441,3.225c22.795-3.914,43.977-11.283,62.166-26.018
			c14.506-11.512,30.392-20.723,48.122-26.248c1.611-0.461,3.223-1.15,5.064-1.381c2.303-0.461,5.066-1.152,5.986,1.611
			c0.691,2.072-1.611,3.453-3.223,4.605c-11.973,8.518-24.176,16.576-32.465,25.096c10.361-9.67,24.637-18.42,39.832-26.248
			c9.67-4.834,20.262-6.217,30.854-7.828c2.533-0.23,5.756-0.461,6.447,2.533c0.689,3.223-2.533,4.145-5.066,4.836
			c-14.735,2.992-28.55,8.518-39.602,16.115c10.361-6.906,23.715-10.359,37.76-12.432c8.75-1.152,17.268,0,25.557,2.072
			c15.197,3.453,30.162,7.137,45.818,8.287c9.9,0.691,19.57-0.459,28.781-3.914c8.52-3.223,13.354-9.67,13.354-19.109
			c-1.15-9.209-8.059-13.354-15.426-17.268c-4.605-2.303-9.67-3.686-14.506-5.757c-0.691-0.46-1.15-1.151-1.15-2.072
			c0.459-2.532,2.072-4.604,3.914-6.216c0.689-0.23,1.611-0.461,2.531-0.461c5.758,1.381,11.283,3.453,16.578,6.217
			c13.354,6.676,20.953,16.807,19.111,32.234c-3.686,9.439-7.139,19.109-18.881,21.182c-4.605,0.922-8.52,3.684-13.354,3.453
			c-23.025,0.922-45.588-1.381-67.691-8.059c-18.881-5.756-37.301-0.689-55.029,7.139c-4.145,1.842-8.288,4.145-12.202,6.217
			c-1.843,5.986-8.289,5.525-12.203,8.979c-14.506,10.361-29.701,19.57-47.89,22.104
			C214.153,419.397,205.633,418.937,197.344,420.087z"/>
		<path fill="#B9B9B9" d="M430.581,377.263c8.059-5.066,14.045-11.742,17.268-20.723c5.527-9.209,3.914-17.729-1.611-26.478
			c-4.375-6.907-12.662-11.513-12.662-20.952c0.92-5.756,2.07-11.512,5.525-16.348c6.447-20.722,5.986-41.674,4.604-63.086
			c-0.92-11.973-4.145-23.715-6.445-35.457c8.748,1.611,12.203,6.676,13.814,19.801c2.762,21.873,2.762,43.976-0.23,65.849
			c-0.691,5.296-3.453,10.131-5.525,15.196c-3.686,8.75-1.613,16.578,3.223,24.176c2.072,2.993,3.684,6.447,5.756,9.439
			c13.584,18.65,1.15,41.443-15.195,48.352C436.337,378.413,433.575,379.335,430.581,377.263z"/>
		<path fill="#79111E" d="M269.871,394.761c2.303-5.295,8.289-5.525,12.203-8.979c3.454,3.223,5.756-0.691,8.059-1.844
			c11.742-5.756,23.716-10.129,37.069-10.359c-12.895,9.9-28.32,14.504-43.517,19.34C279.081,393.61,274.476,394.3,269.871,394.761z
			"/>
		<path fill="#D7D8D8" d="M350.687,377.493c-1.15,1.611-2.072,3.453-3.223,5.064c-2.994,2.072-3.684,6.447-7.369,8.289
			c-2.762-1.15-5.756-2.303-8.518-3.453c3.223-5.756,6.447-11.512,14.045-11.973C347.464,376.11,349.075,376.802,350.687,377.493z"
			/>
		<path fill="#FEF3DF" d="M196.194,99.589c-0.691-0.691-1.152-1.382-1.842-1.842c9.439-3.685,19.801-6.217,20.49-19.11
			c1.613-0.461,2.303,0,1.613,1.611C215.534,92.451,212.081,95.675,196.194,99.589z"/>
		<path fill="#A21D29" d="M240.401,133.665c-2.533-0.92-4.145-2.762-5.066-5.295c0.461-1.611-0.691-3.914,1.611-4.375
			c2.303-0.46,3.455,1.612,4.836,2.994C244.543,129.75,241.551,131.592,240.401,133.665z"/>
		<path fill="#FAD69B" d="M216.456,80.248c-0.461-0.46-1.152-1.151-1.613-1.611c2.764-6.678,9.211-6.447,16.117-9.21
			C226.356,75.413,218.756,74.262,216.456,80.248z"/>
		<path fill="#9D1C27" d="M175.471,100.51c-2.303-0.461-3.684-1.612-3.684-3.454c0-3.224,2.763-3.224,4.835-3.224
			c1.381,0,3.223,0.23,2.993,2.072C179.385,98.438,177.543,99.589,175.471,100.51z"/>
		<path fill="#AB3124" d="M218.987,65.743c2.533-2.533,5.066-3.454,8.289-1.842c1.152,0.69,0.691,2.071-0.23,2.763
			C224.284,68.736,221.52,68.506,218.987,65.743z"/>
		<path fill="#AD3424" d="M163.038,106.496c-4.143-0.23-7.598-0.461-13.354-0.691C155.67,101.661,159.354,99.818,163.038,106.496z"
			/>
		<path fill="#A62323" d="M201.719,83.011c0.691-3.684,2.992-4.604,6.217-3.914c0.461,0.23,1.381,1.612,1.15,1.843
			C207.245,83.472,204.711,84.393,201.719,83.011z"/>
		<path fill="#A31D27" d="M223.592,121.461c-1.381,1.842-3.453,2.072-5.525,1.842c0-2.072-0.922-5.065,1.381-5.986
			C221.981,116.396,222.901,119.16,223.592,121.461z"/>
		<path fill="#FCFAF8" d="M176.623,142.414c4.604,0.92,7.368,2.533,2.762,6.907c-5.525,5.527-10.821,11.052-18.189,13.814
			c-4.374,1.613-9.209,3.455-12.663-0.92c-2.994-3.684,0-7.367,2.303-10.822c-0.23,5.986,2.532,7.599,7.828,5.527
			C166.262,154.156,172.249,149.321,176.623,142.414z"/>
		<path fill="#A64124" d="M135.409,265.134c0-2.303-0.459-4.605-1.842-6.447c-1.612-3.684-4.834-5.986-7.598-8.979
			c-1.611-2.072-4.835-3.684-2.302-6.908c3.453-2.992,7.828-3.914,11.973-3.914c9.439-0.229,18.65-1.15,28.09-0.459
			c2.533,4.145-1.611,4.145-3.454,5.525c-4.605,1.381-9.439,2.072-15.197,3.223c5.757,3.915,11.053,0,15.887,1.152
			c0.691,0.229,1.382,0.689,2.072,1.381c2.764,2.072,5.756,1.841,8.75,0.23c1.381,1.611,1.381,3.223,0,4.834
			c-9.67,2.763-19.34,6.447-29.471,6.907C138.863,261.68,137.481,263.752,135.409,265.134z"/>
		<path fill="#89361D" d="M171.327,254.543c0-1.612,0-3.224,0-4.835c7.598-2.764,14.967-5.986,20.723-12.203
			c2.992,0,6.217-0.92,9.9,0.922C192.51,245.793,183.069,252.01,171.327,254.543z"/>
		<path fill="#AE4561" d="M134.719,269.969c0-0.46,0.23-1.151,0.23-1.611c20.952-5.296,41.674-10.592,62.625-15.887
			c2.764-0.691,5.525-0.922,8.289-1.382c-17.268,7.138-35.918,9.9-53.647,15.656c-3.453,1.151-7.367,0.921-10.361,3.454
			C139.553,272.271,137.25,272.271,134.719,269.969z"/>
		<path fill="#AE4561" d="M233.493,242.11c10.361-2.764,20.722-5.297,31.313-8.059c0.461,0.461,0.691,0.689,0.461,1.15
			s-0.461,0.461-0.461,0.461c-19.34,6.217-38.68,11.973-58.942,15.426C214.613,246.254,224.514,246.024,233.493,242.11z"/>
		<path fill="#951A24" d="M164.65,239.116c-13.585,3.684-28.32-0.92-41.445,5.297c-0.69,0.92-1.381,0.92-1.842,0
			c-13.354,1.15-26.938,0-39.832,4.834c2.302-8.289,10.591-6.906,15.887-10.361c10.36-3.453,21.413-3.223,31.544-6.676
			c1.381-3.225,0.229-6.678,0.69-9.9c0.46-2.994,0.46-6.217,3.914-7.369c0.46,0,1.152,0.23,1.611,0.23
			c10.131,3.225,10.131,3.225,10.361-7.137c1.611,1.381,1.382,3.453,1.842,5.295c3.684,6.217-0.92,11.283-2.532,16.809
			c0,4.145,3.223,2.992,5.525,3.453c4.604,0.461,9.44-0.922,14.045,0.461c3.914-0.461,8.059-0.922,11.973-1.383
			c-2.072,4.375-7.369,3.686-10.361,6.447C165.571,239.577,165.11,239.577,164.65,239.116z"/>
		<path fill="#C2872B" d="M142.086,230.368c2.764-5.297,5.295-10.822,5.295-17.039c1.382,0.691,2.533,1.152,3.914,1.842
			c1.382,2.303,1.382,4.375-0.23,6.447c4.375,2.533,10.131,3.914,10.131,10.592C154.289,234.741,148.073,235.202,142.086,230.368z"
			/>
		<path fill="#CC5027" d="M142.086,230.368c6.217,1.611,12.434,2.301,18.879,1.842c1.382,0,2.764,0.23,3.455,1.611
			c-5.986,2.303-12.433,2.303-18.65,1.381C144.158,234.741,139.092,235.202,142.086,230.368z"/>
		<path fill="#78121B" d="M151.065,221.387c0-2.072,0.23-4.375,0.23-6.447c0.23,0,0.461,0,0.921,0
			c2.762,0.922,7.137,1.613,6.217,5.066C157.512,223.229,153.598,221.618,151.065,221.387z"/>
		<path fill="#841621" d="M113.075,177.18c1.152-1.381,2.074-2.532,3.224-3.914c5.065,3.914,6.447,10.131,8.289,15.656
			c2.762,7.83,5.295,15.658,8.059,23.716c-2.994,6.907-0.691,14.274-2.072,21.182c-10.822,1.611-21.873,2.992-32.695,5.756
			c-1.842-1.15-2.302-2.992-2.532-5.064c-0.23-1.844,0-3.686,0.46-5.527c0.23-0.92,0.691-1.611,1.382-2.301
			c3.914-1.382,7.828-0.23,11.972-1.382c8.98-2.532,11.283-5.986,9.671-14.965c-1.382-7.829-4.836-14.736-9.9-20.723
			c-0.461-1.151-0.691-2.533-0.461-3.684C108.932,182.477,109.391,179.022,113.075,177.18z"/>
		<path fill="#6B0B1C" d="M131.495,211.256c-4.145-2.303-3.914-6.676-5.065-10.131c-3.453-9.209-6.908-18.418-10.131-27.859
			c0.23-2.301,1.611-3.914,2.993-5.295c3.224,2.763,5.527,6.447,8.98,9.209c4.605,3.914,6.447,9.671,4.834,15.427
			c-1.151,3.914-1.151,7.829-1.151,11.973C132.877,206.881,133.106,209.184,131.495,211.256z"/>
		<path fill="#DFDDDE" d="M113.075,177.18c-0.69,2.994-1.842,5.757-3.684,8.059c-7.598-4.375-7.828-11.512-7.137-19.109
			c0-0.461,0-1.152,0-1.612c2.763-2.533,3.684-6.677,7.137-8.75c2.072,1.381,1.842,3.224,0.921,5.295
			C108.24,167.049,108.932,172.576,113.075,177.18z"/>
		<path fill="#8E3244" d="M131.495,211.256c0-2.303,0.23-4.604,0.23-6.906c0.46,0,1.152,0,1.611,0c0,3.453,0,6.906,0.23,10.361
			c-3.454,5.985-0.92,12.663-1.612,19.11c-0.92,0.92-1.611,0.691-2.072-0.23C130.574,226.223,128.963,218.625,131.495,211.256z"/>
		<path fill="#BF7B2A" d="M164.65,239.116c0.459,0,1.151,0,1.611,0c4.605,5.297,0.92,7.828-3.453,10.361c-0.691,0-1.152,0-1.843,0
			c-2.071-1.842-2.301-4.375-1.842-6.906C160.965,241.188,162.809,240.038,164.65,239.116z"/>
		<path fill="#FDFDFE" d="M143.928,278.488c9.209-2.303,18.189-4.836,27.398-6.908c7.828-1.842,11.052,0.461,11.283,8.059
			c0.229,20.722,0.229,41.444,0.229,61.937c0,7.598-4.374,12.203-11.512,14.275c-8.749,2.531-17.729,4.834-26.477,7.137
			c-10.592,2.764-12.895,1.15-14.506-10.131c-2.763-2.992-2.763-6.906-2.763-10.592c0-14.273-0.23-28.549,0.23-43.055
			c0-6.907,0.921-13.584,6.677-18.189C136.791,278.948,139.784,276.415,143.928,278.488z"/>
		<path fill="#FFFFFF" d="M304.638,311.413c-2.072,7.137-6.906,10.591-14.045,12.203c-8.979,2.072-17.729,4.834-26.478,6.906
			c-8.52,2.072-11.742-0.46-11.742-9.209c-0.23-20.031,0-40.063-0.23-60.094c0-7.828,3.684-12.434,10.821-14.506
			c9.9-2.762,20.031-5.064,29.932-8.057c5.756-1.613,9.439,0,11.742,5.525c0.691,2.072,1.612,4.373,1.842,6.676
			c0.461,5.296,1.842,11.973-4.145,14.736c-5.986,2.764-12.893,7.368-20.03,1.843c-4.605-3.454-7.368-0.921-7.829,3.453
			c-1.15,9.9-0.69,20.031-0.229,30.162c0,1.842,0.921,3.453,3.224,3.224c1.381,0,2.763-0.69,3.684-2.072
			c1.151-1.612,0.69-3.454-0.921-4.604c-3.915-2.533-5.757-5.986-5.986-10.592c-0.461-10.821,1.381-13.584,11.973-16.117
			c1.842-0.46,3.914-0.921,5.756-1.611c13.354-3.454,14.505-2.533,14.735,11.742C306.94,291.151,306.94,301.282,304.638,311.413z"/>
		<path fill="#FDFDFE" d="M223.131,271.811c0.23-0.921,0.23-1.611,0.461-2.532c0.461-11.282,5.525-16.117,16.578-16.348
			c3.914,0,3.223,2.303,3.223,4.375c0,23.024,0.23,45.818,0,68.843c0,6.446-3.684,11.052-9.67,12.894
			c-10.361,3.223-20.953,5.986-31.543,8.52c-6.678,1.611-10.822-1.152-10.822-8.289c-0.23-22.564,0-45.358-0.23-67.922
			c0-3.685,0.922-5.986,4.836-6.447c3.453-0.46,6.677-1.611,9.9-2.763c5.064-1.842,4.835,1.611,5.295,4.835
			c4.145,14.735,1.611,29.471,2.303,44.438c0.23,3.223-1.381,8.52,2.764,8.52c5.064,0.229,3.684-5.527,3.914-8.98
			c0.23-9.439,0-18.88,0.23-28.32C220.829,278.718,220.598,274.804,223.131,271.811z"/>
		<path fill="#FFFFFF" d="M364.731,251.089c0.23,16.117,0.23,32.234,0.461,48.352c0,2.992-0.691,4.835-3.914,5.295
			c-5.066,0.691-9.67,3.914-14.967,2.764c-0.689-0.23-0.689-3.224-0.689-4.836c0-8.288,0-16.577,0-25.096
			c-12.664,1.381-12.664,1.381-12.664,13.123c0,2.072,0,3.914,0,5.986c0,18.189-0.461,18.65-20.031,19.801
			c-3.684-25.326-4.375-50.653-0.23-75.979c1.842-2.303,2.303-5.758,5.296-6.908c6.907,4.375,16.117,4.375,21.183,11.973
			c-1.611,2.992-6.217,4.605-4.375,9.209c0.691,1.612,2.072,1.842,3.453,1.382c4.605-0.921,5.066-4.835,5.756-8.289
			c0.23-1.152,0.922-2.072,1.844-2.764C353.22,244.413,359.206,247.174,364.731,251.089z"/>
		<path fill="#A61E2A" d="M130.113,297.599c0.691,18.419,0.691,36.838,0,55.258c-9.439-2.072-5.295,7.139-8.519,10.361
			c-3.914-3.684-2.303-8.75-2.303-13.123c0-5.066-1.842-5.988-6.217-4.375c-3.914,1.381-6.907,2.762-9.209,6.906
			c-2.763,5.527-8.059,7.828-14.274,4.836c-2.764-13.584-1.612-27.17-0.921-40.984c0.229-6.216,8.059-9.67,13.814-7.137
			c13.124,5.756,16.117,3.684,16.578-11.282c0-1.842,0.459-3.684,1.381-5.296C125.278,291.151,126.891,296.217,130.113,297.599z"/>
		<path fill="#F9F9FA" d="M425.286,221.618c0,7.598,2.301,15.426-1.842,22.795c-1.842,3.453,2.762,5.064,2.531,8.518
			c-0.459,5.756,0,11.513,0,17.269c0,18.88,0,18.88-19.801,21.873c0-8.059,0.23-16.117-0.23-24.176c0-2.303,2.303-6.907-2.531-6.217
			c-3.686,0.461-10.131-0.69-9.67,6.678c0.229,4.604,0,9.21,0,13.814c0,14.966,0,14.966-14.736,17.499
			c-3.684,1.611-4.605-0.461-4.605-3.685c0-14.966,0-29.701,0-44.667c0-2.993,1.383-4.834,4.145-5.756
			c3.684-1.15,7.139-2.303,10.592-3.453c1.381-0.461,2.533-0.691,3.914-0.691c4.145-0.691,8.52-0.691,11.742-4.145
			C409.399,228.985,416.767,224.612,425.286,221.618z"/>
		<path fill="#A61E28" d="M312.927,240.727c0,25.328,0,50.655,0.23,75.981c-1.611-1.15-1.381-2.763-1.842-4.604
			c-0.461-2.532,1.611-6.446-2.533-6.907c-3.914-0.461-1.611,4.835-4.145,6.217c0-14.045,0-28.09,0-43.517
			c-8.979,2.303-17.498,3.684-25.096,6.907c-6.908,2.993-1.843,10.131-2.994,15.427c-0.921,4.604,2.072,4.374,5.296,3.684
			c1.612-0.46,2.763,0.69,2.763,2.303c0,2.993,1.382,7.138-1.15,8.979c-2.533,1.842-6.678,3.223-9.671,2.533
			c-3.914-0.922-1.611-5.297-1.842-8.289c-0.23-9.44,0-18.881-0.23-28.32c0-4.145-0.229-7.599,5.526-8.749
			c4.375-0.691,7.828-2.303,7.367,4.374c0,1.151,1.382,1.382,2.764,1.151c0.92-0.23,1.611-0.46,2.532-0.69
			c14.505-3.224,14.274-3.224,14.505-17.959c0-1.611,0.23-3.453,0.23-5.064C311.776,253.392,310.624,243.26,312.927,240.727z"/>
		<path fill="#FBFBFB" d="M90.742,357.923c5.064-2.303,11.281-1.844,12.663-10.822c0.46-3.684,10.821-4.375,17.038-5.064
			c1.842-0.23,1.381,2.762,1.381,4.145c0,5.756-0.23,11.281-0.23,17.037c-2.993,5.064-7.598,8.059-13.584,9.439
			c-8.749,2.072-17.498,4.605-26.478,6.908c-3.914,1.15-7.828,1.842-10.361-2.764c-1.842-20.262-0.46-40.752-0.69-61.244
			c4.835-3.914,10.821-1.842,16.347-2.764c3.224-0.461,2.533,3.224,2.533,5.296c0,10.821,0,21.644,0,32.464
			C89.591,353.317,88.209,356.079,90.742,357.923z"/>
		<path fill="#B26C28" d="M304.638,330.522c8.52-2.303,17.27-4.374,25.787-6.676c5.756-1.612,11.742-2.994,17.729-3.914
			c9.9-1.612,19.801-3.225,29.703-2.533c3.684,0.23,7.598-0.461,9.898,3.453c-1.381,2.764-4.143,2.764-6.676,2.994
			c-13.584-2.303-25.098,4.834-37.299,8.059c-16.578,4.604-33.387,8.287-49.733,13.123c-4.604,1.381-9.44,2.072-14.275,0
			c-2.532-1.842-1.151-3.223,0.461-4.605c2.302-2.072,5.296-2.992,8.058-4.604C293.587,334.437,298.882,332.364,304.638,330.522z"/>
		<path fill="#A61E28" d="M223.131,271.811c0.23,14.966,0.461,29.933,0.461,44.667c0,5.757-0.23,5.757-12.203,8.289
			c0-19.57,0-38.911,0-58.251C213.231,273.192,218.528,271.811,223.131,271.811z"/>
		<path fill="#DAD7D8" d="M71.401,315.097c0,20.723,0,41.213,0,61.936c-1.382-0.922-1.612-2.303-1.612-3.684
			c0-21.873,0-43.516,0-65.39c0-1.611,0.691-3.224,1.151-5.065c2.072-0.461,4.605,0.23,6.217-1.842
			c4.835,0.691,9.44,1.611,14.275-2.303c2.993-2.303,8.059,1.842,12.663-0.23c5.756-2.532,12.203-3.914,17.268-8.288
			c0.691,0.69,0.691,1.382,0.691,2.072c-0.23,1.611-0.46,3.454-0.691,5.065c-2.072,4.835-6.446,7.367-11.282,8.519
			c-9.9,2.072-19.57,6.217-30.162,5.757C76.467,311.874,73.704,312.333,71.401,315.097z"/>
		<path fill="#EAEAEA" d="M338.944,245.563c-6.217-5.295-16.117-3.684-20.723-11.742c1.152-0.922,2.764-2.764,3.225-2.533
			c10.82,5.297,25.557-5.295,34.076,8.52c0.689,1.15,2.303,2.072,3.684,2.072c7.367-0.23,6.217,4.605,5.525,9.209
			c-6.678-0.231-12.434-4.145-18.879-5.295C343.55,246.254,341.017,248.327,338.944,245.563z"/>
		<path fill="#630A1B" d="M439.101,292.532c0.689,5.986-3.684,11.053-3.684,17.039c-1.842,4.834,0.689,11.742-6.447,14.505
			c-4.605-2.302-9.211-3.914-14.045-5.296c-2.303-7.598,2.764-13.123,5.064-19.57c4.605-3.224,10.592-2.533,15.428-5.065
			c1.15,0,1.15-1.612,2.072-1.842C438.179,292.532,438.64,292.532,439.101,292.532z"/>
		<path fill="#C04B27" d="M356.212,187.311c-6.676,4.375-14.734,5.296-21.643,10.822c-6.447,5.295-11.512,10.131-12.893,18.42
			c-3.455-2.764-2.072-7.369-3.914-10.822c-0.922-4.145-5.066-7.367-3.225-12.203c11.742-3.453,23.025-8.289,33.846-14.045
			C353.22,180.174,354.831,183.627,356.212,187.311z"/>
		<path fill="#851621" d="M121.825,292.763c-0.23-0.69-0.461-1.381-0.691-2.072c-1.611-2.532-1.842-5.295-1.842-8.288
			c2.303-6.907,8.75-8.979,14.045-12.203c0.461,0,0.691,0,1.152,0c2.532,0,4.834,0,7.368,0c2.302,2.302,3.223,5.065,1.842,8.289
			c-10.131,2.532-14.045,9.439-13.814,19.34C125.739,298.519,123.206,296.677,121.825,292.763z"/>
		<path fill="#CBCCCC" d="M394.433,243.952c-0.689-0.461-1.611-0.922-2.303-1.152c-1.381-1.842-1.842-5.525-5.986-2.762
			c-3.453,2.303-7.828,4.375-11.051-0.922c4.375-8.979,14.736-8.289,21.873-12.893c7.828-5.066,10.131-10.592,10.82-18.65
			c2.533-2.764,5.297-3.453,8.98-2.303c5.295,4.145,3.684,8.98,0.691,13.584c-2.764,4.375-6.447,7.83-10.822,10.822
			C398.347,230.827,396.044,237.043,394.433,243.952z"/>
		<path fill="#5B1F29" d="M157.512,370.124c18.65-6.906,38.451-10.59,57.561-16.346c14.736-4.375,29.701-8.059,44.667-12.203
			c2.072-0.461,3.914-1.152,5.526,0.689c-1.612,6.447-6.217,8.52-12.203,8.52c-3.684-1.15-7.368-0.461-11.051,0.461
			c-22.334,5.986-44.898,11.973-67.231,18.189c-2.994,0.92-5.988,2.072-8.059,4.605
			C162.118,375.421,159.584,373.349,157.512,370.124z"/>
		<path fill="#78111D" d="M252.603,349.403c5.757,0.461,8.52-4.375,12.434-7.139c0.461-0.459,0.921-0.92,1.382-1.611
			c4.835-0.23,9.209-2.532,13.814-3.453c2.993-0.691,5.756-2.533,8.749,0c-3.453,2.303-7.138,4.605-10.591,6.906
			c-5.987,6.908-14.736,9.672-21.874,14.967c-4.835,1.842-8.518,6.678-14.504,6.447c-2.764-0.922-4.605-2.303-4.145-5.525
			C241.782,355.159,246.387,351.476,252.603,349.403z"/>
		<path fill="#E6E7E7" d="M375.093,239.116c6.678,4.145,11.051-2.531,16.578-3.914c1.381,2.533,0.689,5.066,0.689,7.598
			c-2.531,1.383-5.064,4.145-7.367,4.145c-10.592-0.23-9.9,6.448-9.67,13.584c0.23,10.592,0,21.183,0,31.774
			c0,2.993-0.922,6.677,3.684,7.368c-2.303,1.15-5.295,3.453-5.064-1.612C374.401,278.488,371.868,258.687,375.093,239.116z"/>
		<path fill="#E5E5E5" d="M406.175,228.754c2.533-2.992,5.297-5.756,7.828-8.748c3.686-4.145,5.986-8.289,2.533-13.814
			c2.303-2.072,4.605-2.072,6.678,0.23c3.453,4.604,2.531,9.9,2.072,15.195c-5.066,3.453-8.98,8.52-14.967,10.361
			c-3.453,1.15-1.381,5.295-3.914,6.906C403.183,235.663,403.644,232.209,406.175,228.754z"/>
		<path fill="#650B1C" d="M319.835,204.35c2.762,3.684,1.611,8.059,2.072,11.973c0,0.689-0.23,1.381-0.23,2.072
			c-5.297,4.145-11.743,5.064-18.189,5.756c-3.454-2.533-1.152-5.066,0.46-7.139c3.915-5.525,7.599-10.82,3.685-17.729
			c-0.691-1.15,0.689-2.072,1.842-2.303C314.769,196.981,315.46,203.198,319.835,204.35z"/>
		<path fill="#B2B2B2" d="M113.996,397.983c-9.21,3.455-16.117-2.992-23.945-5.064c-1.842-0.461-3.684-1.611-5.295-2.303
			c4.604-1.611,9.209-3.223,14.044-4.834c2.993-1.613,5.986-1.383,8.979,0.23C109.852,390.155,115.608,391.997,113.996,397.983z"/>
		<path fill="#596B77" d="M419.989,299.44c1.383,6.907-3.914,12.203-4.834,18.649c-0.691,1.151-1.383,1.382-2.303,0.46
			c-0.461,0-0.922,0-1.381,0.23c-0.691,0.461-1.383,0.461-2.303,0c-10.592-4.604-10.592-4.604-4.836-14.275
			C409.399,302.894,414.694,301.052,419.989,299.44z"/>
		<path fill="#62202B" d="M107.319,388.313c-2.302-3.453-5.755-2.301-8.749-2.301c19.34-6.447,38.911-12.203,58.942-15.889
			c3.453-0.229,5.296,4.145,8.98,3.225c4.834-1.383,8.059,0.691,10.59,4.834c-0.459,2.303-2.072,3.686-3.914,4.836
			c-1.842,0.23-3.223-0.23-4.834-1.15c-8.059-7.369-17.039-6.908-26.939-3.686c-6.446,2.303-13.124,3.225-19.57,5.527
			c-1.151,0.459-2.303,0.689-3.454,0.92C114.457,385.091,110.773,386.702,107.319,388.313z"/>
		<path fill="#FBAC18" d="M330.655,216.323c-0.92-7.139,4.145-9.9,9.439-11.514c6.447-1.842,9.672,3.455,12.664,8.059
			C346.772,223.459,338.253,217.473,330.655,216.323z"/>
		<path fill="#851624" d="M423.444,206.652c-2.303-0.46-4.375-1.382-6.678-0.23c-2.994,0.459-5.986,0.92-8.75,1.381
			c-2.072-3.223-2.072-6.447,0.23-9.67c3.914-1.842,7.828-2.303,12.203-2.072c2.533-0.23,4.605,0.46,6.908,1.611
			C425.745,200.436,424.595,203.659,423.444,206.652z"/>
		<path fill="#7C767B" d="M404.333,304.505c0.23,0.691,1.152,1.612,0.922,1.843c-3.684,5.065-4.605,8.979,3.684,9.67
			c0.461,0,0.691,1.382,0.92,2.303c-8.287,3.454-15.887-1.612-23.945-2.073c-6.906-6.216-0.229-6.445,3.686-8.058
			C394.433,306.808,399.269,305.657,404.333,304.505z"/>
		<path fill="#F59F1E" d="M391.671,204.58c-1.613-3.455-2.764-6.908-4.605-9.67c-1.611-2.533-3.914-4.605-6.447-7.599
			c8.059-1.611,13.584,0.691,17.268,7.139C399.269,197.211,399.269,197.211,391.671,204.58z"/>
		<path fill="#E25926" d="M330.655,216.323c4.375,1.381,9.9-4.605,13.814,2.072c0.461,0.689,3.914-5.756,8.059-5.527
			c1.152,4.605-7.367,7.139-1.611,13.125c-5.756-3.223-9.67-4.605-15.426-2.303C327.433,227.143,331.347,219.545,330.655,216.323z"
			/>
		<path fill="#631E28" d="M389.368,307.959c-1.152,2.303-8.059,1.382-3.684,6.677c-12.664,2.072-25.559,3.914-37.99,6.908
			c-5.756,0.69-11.514,1.611-17.27,2.303c15.428-6.678,32.004-9.211,48.121-14.045C381.999,308.88,385.454,307.269,389.368,307.959z
			"/>
		<path fill="#EC5B26" d="M371.868,208.034c-1.611,4.605-9.67,2.763-9.439,9.9c-4.834-7.137-7.598-15.656-17.037-17.268
			c0.92-2.302,2.533-2.533,4.145-2.994c2.992,1.152,6.217,0,9.209,1.152c1.842,0.69,5.295,1.151,5.066,2.532
			C362.89,208.495,369.798,205.27,371.868,208.034z"/>
		<path fill="#F5A51D" d="M371.868,208.034c-4.143-1.152-7.367,1.15-10.82,2.763c-1.611-2.533-0.23-3.916,0.691-5.066
			c3.223-3.453,1.15-4.375-2.072-4.605c-3.686-0.23-7.139-1.15-10.361-3.453C361.509,193.989,369.567,197.672,371.868,208.034z"/>
		<path fill="#F6A21D" d="M367.954,194.219c-1.15-0.691-3.223-0.922-3.684-1.842c-0.92-2.072,1.383-1.842,2.533-2.303
			c6.678-2.303,13.584,1.381,19.109,10.591c-2.301,5.986-6.215,3.684-8.979,0.92C374.171,199.053,371.64,195.831,367.954,194.219z"
			/>
		<path fill="#BC4B6A" d="M302.565,223.459c6.678-0.69,12.895-2.533,19.111-5.064c-0.23,1.381-0.461,2.762-2.303,3.223
			c-18.189,4.605-36.148,10.822-54.799,14.045c0-0.461,0-1.15,0-1.611c1.843-0.461,3.914-0.23,5.296-1.842
			c0.461-0.691,0.921-1.152,1.612-1.611c1.15-0.461,2.072-0.691,3.223-1.152c1.611-0.461,2.993-1.15,4.375-1.611
			C287.14,226.454,294.507,222.54,302.565,223.459z"/>
		<path fill="#EF5C28" d="M367.954,194.219c4.375-0.23,7.369,2.302,9.902,5.525c2.531,3.453,5.064,4.145,8.287,1.15
			c3.225,8.289-7.367,4.836-7.828,10.131C375.784,204.35,372.79,198.824,367.954,194.219z"/>
		<path fill="#641E29" d="M288.981,337.431c-7.828-1.152-14.735,5.064-22.563,3.223c12.433-4.834,25.097-8.289,38.22-10.361
			C300.033,334.207,294.277,335.589,288.981,337.431z"/>
		<path fill="#8D3347" d="M437.718,292.532c-0.689,0.691,0.461,3.225-2.072,1.843c0-16.808,0-33.386,0-50.193
			c3.455,6.447,1.383,13.353,1.613,20.261C437.718,273.652,437.489,283.093,437.718,292.532z"/>
		<path fill="#EFE0E6" d="M373.021,228.526c-2.072-3.225-3.453-5.756-5.295-8.289c-1.613-2.533-0.691-4.605,1.381-5.756
			c2.762-1.842,4.145,0.92,5.295,2.531C376.704,220.696,375.554,224.381,373.021,228.526z"/>
		<path fill="#8D3347" d="M431.731,200.895c4.145-0.459,4.605,3.455,4.836,5.527c0.922,12.662,2.533,25.326-0.922,37.76
			c0-7.598-0.229-15.197,0.23-22.795C436.106,214.02,435.187,207.342,431.731,200.895z"/>
		<path fill="#A83A50" d="M387.526,178.563c0.689,0.459,1.15,0.92,1.842,1.612c-10.822-0.23-21.414,2.072-31.543,5.525
			c-0.922-1.842,0.229-2.993,1.381-4.145c2.533-1.381,3.684-3.914,6.447-5.065c5.756,2.072,11.512-0.46,17.268,0
			C384.532,176.49,386.144,177.18,387.526,178.563z"/>
		<path fill="#EAD6DC" d="M386.835,222.309c-1.381-4.375-7.137-5.527-5.064-10.592c0.689-1.611,2.531-2.764,4.143-1.381
			C389.829,213.098,390.058,216.553,386.835,222.309z"/>
		<path fill="#FAF5F5" d="M353.911,217.934c5.756,3.453,8.059,7.598,7.137,13.584C356.212,228.526,352.989,225.071,353.911,217.934z
			"/>
		<path fill="#DAC4D3" d="M396.966,216.092c-3.223-2.994-4.836-6.217-2.533-10.361c0.922-1.381,2.303-1.842,3.225-0.461
			C400.649,208.954,399.728,212.639,396.966,216.092z"/>
		<path fill="#841621" d="M359.667,182.016c-0.691,1.15-1.152,2.533-1.842,3.684c-0.461,0.461-0.922,0.921-1.613,1.381
			c-3.684-0.92-4.373-4.834-6.906-6.906c-2.303-0.922-3.225-2.533-1.842-4.605c0.92-1.381,2.533-0.69,3.914,0
			c2.762,1.611,5.525,3.224,7.828,5.295C359.206,181.325,359.437,181.555,359.667,182.016z"/>
		<path fill="#811520" d="M107.319,388.313c0.921-6.445,7.138-3.914,10.361-5.986c6.447,2.994,11.973,6.908,10.822,15.428
			c-2.303,1.842-6.908,0.92-7.138,5.525c-2.532-1.842-4.834-3.453-7.368-5.297C111.694,394.761,109.622,391.538,107.319,388.313z"/>
		<path fill="#971B25" d="M319.835,204.35c-5.986,1.381-6.447-5.066-10.361-6.908c-2.072-0.92-5.066,0-6.678-2.303
			c-5.986-5.295-9.439-4.834-12.894,2.072c-2.302,4.375-2.993,8.98-4.835,13.585c-1.382,2.993-2.072,6.676-5.525,8.057
			c-3.454-0.459-6.217-1.842-7.139-5.756c1.152-11.051-1.611-21.873-0.92-32.924c-1.151-9.209-7.829-17.959-3.454-27.86
			c4.604,0.69,4.604,4.605,5.526,7.598c2.532,9.439,4.835,18.88,6.446,28.55c0.69,4.145,0.46,8.289-0.69,12.432
			c2.303-7.598,1.15-15.656,2.993-23.023c2.763-3.914,4.604,0.23,6.907,0.691c4.835-2.533,1.611-7.138,2.763-10.591
			c0.69-1.842,0.229-4.605,2.532-4.836c2.533-0.459,2.764,2.303,3.454,4.145c1.382,3.455,1.382,7.369,3.224,10.592
			c1.842,2.992,1.611,7.598,8.289,6.217c3.453-0.691,6.217,5.064,5.295,9.9C316.61,197.442,318.222,200.895,319.835,204.35z"/>
		<path fill="#8687B8" d="M278.391,189.383c-3.915-12.203-4.605-25.096-10.361-36.838c-0.461-3.684-2.072-7.138-3.914-10.361
			c6.677,1.151,7.828,7.829,11.973,11.512c2.763,2.763,3.454,7.138,7.368,9.21c0.46,1.381-0.461,2.301-1.151,3.223
			c-2.993,3.914-1.151,8.289-1.612,12.433C280.462,182.477,281.614,186.391,278.391,189.383z"/>
		<path fill="#842638" d="M271.483,180.404c2.302,11.512,1.611,23.024,1.842,34.536c3.914,5.986,2.532,11.744-1.612,17.039
			c-0.69,0.23-1.151,0.23-1.842,0.461c1.612-11.744,1.612-23.715,1.612-35.688C271.713,191.225,267.108,185.93,271.483,180.404z"/>
		<path fill="#7A111E" d="M221.75,193.989c-0.23-2.303-0.23-4.605-0.461-6.678c3.684-10.821,14.045-13.123,23.025-16.577
			c3.914-1.613,4.143,2.993,6.215,4.374c1.613,6.908,5.296,13.355,5.527,20.492c-1.842-0.23-4.375,0-5.755-1.15
			C241.09,187.081,231.651,185.7,221.75,193.989z"/>
		<path fill="#EB5A27" d="M282.074,137.348c-2.072-13.124-6.217-25.096-15.656-34.766l0,0c0.921-5.065,4.835-3.685,7.828-3.454
			c3.224,0.23,6.677,0.69,9.439,3.224c7.829,14.736,8.289,30.393,5.757,46.51c-2.764,1.381-3.454-0.691-3.685-2.533
			C285.067,143.105,283.916,140.111,282.074,137.348z"/>
		<path fill="#9798CB" d="M282.074,137.348c6.446,1.842,3.224,8.75,6.677,12.203c2.993,2.763,2.072,6.677,2.533,10.131
			c0,1.611,0,3.453-0.23,5.066c-0.23,2.532-0.691,5.525-3.684,5.986c-3.685,0.459-5.756-1.842-5.756-5.527
			c0.69-0.69,1.381-1.15,2.071-1.842C283.916,154.387,283.916,145.868,282.074,137.348z"/>
		<path fill="#991B26" d="M283.686,103.963c-5.756-0.921-11.282-5.295-17.268-1.381c-2.303-2.303-4.605-4.835-5.065-8.289
			c1.611-0.23,3.453-0.23,5.065-0.461c6.446,1.382,12.894,2.764,19.34,4.145c8.979-1.381,15.888,3.224,23.024,7.368
			c3.224,1.843,6.678,2.532,9.9,4.375c8.059,5.296,17.27,8.98,23.484,17.039c2.764,5.756,6.217,10.821,8.98,16.577
			c1.381,4.605,3.684,8.75,6.906,12.203c2.764,6.677,10.131,11.973,6.908,20.723c0.461,3.914-1.15,5.756-5.066,5.295l0,0
			c-4.143-3.914-5.064-9.439-7.367-14.506c-7.137-14.965-13.814-30.161-28.549-40.292c0.229,0.69,0.689,0.92,0.92,1.381
			c2.072,3.454,7.367,7.829,3.684,11.051c-3.914,3.455-6.906-2.993-9.9-5.525c-5.295-4.834-10.82-9.44-18.189-11.051
			c-2.072-0.921-5.064-1.842-4.374-4.375c1.151-3.684,5.296-2.303,8.288-2.992C299.343,108.568,289.442,109.949,283.686,103.963z"/>
		<path fill="#86A0B2" d="M307.862,107.188c-6.908-4.375-14.506-6.678-22.104-8.98c1.151-1.381,2.303-2.763,3.454-4.145
			c2.072-1.381,3.914-2.993,4.835-5.525c0.69-0.461,1.382-1.151,2.072-1.612c5.756,4.836,12.433,7.599,19.341,10.361
			c-0.23,0.461-0.23,1.151-0.461,1.611C313.618,102.813,312.466,106.727,307.862,107.188z"/>
		<path fill="#891721" d="M364.731,176.721c-0.461-7.828-5.756-13.585-8.52-20.492c-2.762-3.914-4.145-8.519-6.906-12.203
			c-2.764-5.526-6.908-10.131-8.289-16.348c3.684-0.92,5.295,1.611,6.678,4.375c3.914,3.915,8.059,7.829,11.973,11.743
			c5.756,7.598,11.512,15.197,17.268,22.794c3.684,1.612,4.836,5.295,6.217,8.518c0.23,1.152,0,2.303-0.691,3.455
			c-2.992,0.23-6.217-0.46-8.979,1.151C369.567,181.325,367.034,179.713,364.731,176.721z"/>
		<path fill="#E0E0DF" d="M381.999,175.108c-2.301-2.532-4.143-5.295-5.064-8.749c6.678-2.763,13.584-0.691,20.492-1.842
			c-1.152,1.612-2.303,3.454-3.225,5.065c-1.15,1.152-2.303,2.303-3.453,3.453C387.985,174.879,385.224,176.721,381.999,175.108z"/>
		<path fill="#89A5B9" d="M347.464,132.053c-2.303-1.381-4.375-2.992-6.678-4.375c-6.906-6.676-15.426-10.59-23.023-15.887
			c-0.922-3.453,1.381-4.375,3.684-5.756c1.15-1.151,2.303-2.303,3.453-3.453c8.75,7.598,20.031,12.434,25.787,23.484
			C353.22,130.441,351.608,131.592,347.464,132.053z"/>
		<path fill="#D5D4D5" d="M321.446,105.805c-1.152,1.842-2.533,3.915-3.684,5.756c-3.455-1.151-7.139-1.842-10.131-4.374
			c2.302-2.764,4.604-5.297,7.137-8.06C316.38,102.121,318.683,104.424,321.446,105.805z"/>
		<path fill="#A01C28" d="M108.932,188.693c10.36,6.676,11.973,17.729,12.202,28.549c0,8.75-12.432,13.355-23.254,9.67
			c-3.914-6.676,0.691-11.973,2.993-17.729c1.843-5.525,3.454-10.82,5.296-16.348C106.629,191.456,105.938,188.922,108.932,188.693z
			"/>
		<path fill="#F1F0F0" d="M108.932,188.693c-0.922,1.381-1.842,2.762-2.764,4.143c-4.835-5.295-8.059-11.512-10.821-18.188
			c1.611-3.455,3.684-6.447,6.907-8.519c2.532,6.216,2.532,13.584,7.137,19.109C109.161,186.621,108.932,187.542,108.932,188.693z"
			/>
		<path fill="#EAEBEB" d="M67.947,249.247c-0.46-5.756-0.69-11.512,0.23-17.037c5.526,0.23,9.9-3.914,15.656-3.225
			c0.922,4.145-2.302,6.678-4.144,9.441C75.775,242.11,74.164,248.096,67.947,249.247z"/>
		<path fill="#90ACBF" d="M78.078,237.274c1.842-2.762,3.684-5.525,5.526-8.289c1.151-1.15,2.302-2.301,3.453-3.453
			c4.375-1.611,7.599-0.23,10.361,3.453c0,1.613-0.23,3.455-0.23,5.066C91.202,236.813,85.676,242.571,78.078,237.274z"/>
		<path fill="#9EC0D7" d="M97.419,228.754c-3.454-1.15-6.907-2.301-10.361-3.453c4.145-5.756,7.828-11.973,13.585-16.117
			c0.69,6.217-2.994,11.742-2.994,17.729C97.649,227.604,97.419,228.065,97.419,228.754z"/>
		<path fill="#7D93A5" d="M78.078,237.274c6.907,2.303,12.434-3.914,19.11-3.453c0,1.842,0.23,3.453,0.23,5.295
			c0.46,0.461,0.46,0.922,0.23,1.152s-0.46,0.459-0.46,0.459c-5.065,3.455-11.742,3.225-15.887,8.289
			c-4.604-0.461-8.289,1.383-11.742,4.145c-2.072-0.69-2.303-2.303-1.612-4.145C71.171,245.102,74.625,241.188,78.078,237.274z"/>
		<path fill="#F7A21C" d="M127.12,263.982c-5.065,2.763-13.584,0-12.432,9.9c-11.052-10.131-11.743-11.282-10.822-15.196
			c0.921-3.453,2.994-5.295,6.447-5.756C119.522,250.858,122.746,257.535,127.12,263.982z"/>
		<path fill="#F7A51C" d="M86.827,274.113c-5.525-3.914-3.453-8.52-1.151-12.894c2.764-5.296,7.138-8.749,12.664-8.059
			c4.145,5.986-10.592,8.749-1.382,15.196C96.037,274.344,89.13,270.43,86.827,274.113z"/>
		<path fill="#F5A11D" d="M73.013,278.718c-5.525-5.065-3.453-10.821-1.151-16.347c1.612-3.685,4.836-6.217,9.21-6.217
			c0.23,0,0.69,0.23,0.69,0.46c0,0.461,0,0.921,0,1.382c-2.532,2.763-3.914,6.217-3.453,9.9
			C78.539,272.731,76.697,276.186,73.013,278.718z"/>
		<path fill="#ED5C27" d="M73.013,278.718c5.296-5.756,0.691-15.887,8.749-20.491c-3.223,6.907-1.611,13.814,1.843,20.491
			C79.69,278.718,76.236,278.718,73.013,278.718z"/>
		<path fill="#F6A21D" d="M58.968,280.79c-2.993-6.217-2.532-11.742,2.993-16.117c2.533-2.072,4.145-1.842,4.145,2.072
			c-1.611,2.303-0.69,4.835-0.69,7.368C65.646,278.258,63.803,280.79,58.968,280.79z"/>
		<path fill="#F3E9EE" d="M99.03,290.69c-4.374-1.842-7.598-3.684-8.749-7.367c-0.69-2.072-1.382-5.065,1.151-5.986
			c2.763-0.922,5.065,0.69,5.296,3.914C96.958,284.244,97.419,287.007,99.03,290.69z"/>
		<path fill="#DEC4CE" d="M105.938,271.58c5.986,4.375,5.295,9.21,3.914,14.966C105.017,282.402,102.944,278.027,105.938,271.58z"/>
		<path fill="#DD4F26" d="M58.968,280.79c6.907-2.532,3.915-9.9,6.907-14.274c0.461,2.993,1.382,5.985,1.612,9.209
			c0.23,2.072,1.842,5.986,0.69,5.526C64.954,279.639,61.501,286.546,58.968,280.79z"/>
		<path fill="#E75426" d="M86.827,274.113c1.382-5.756,7.829-2.072,10.361-5.756c2.532,2.072,3.684,4.604,2.532,8.979
			C95.807,272.271,90.972,274.804,86.827,274.113z"/>
		<path fill="#EADCE2" d="M83.144,291.842c-4.604-1.151-7.138-3.454-6.446-8.059c0.46-2.302,2.532-2.302,3.914-1.842
			C85.676,284.244,81.302,288.849,83.144,291.842z"/>
		<path fill="#D4BFCD" d="M72.553,293.685c-4.835-0.691-7.368-3.685-7.828-8.059c-0.23-1.382,1.15-2.072,2.302-1.612
			C71.171,285.855,72.553,289.31,72.553,293.685z"/>
		<path fill="#C4534E" d="M121.133,244.182c0.691,0,1.152,0,1.843,0c2.532,5.295,9.9,7.367,10.36,14.275
			C129.422,253.621,123.206,250.858,121.133,244.182z"/>
		<path fill="#64202E" d="M133.567,270.199c-4.375,4.604-10.59,6.677-14.045,12.203C120.674,274.113,126.891,271.58,133.567,270.199
			z"/>
		<path fill="#851622" d="M197.344,420.087c8.059-2.301,16.348-2.762,24.867-3.223c-7.139,3.453-14.967,3.453-22.564,3.684
			C198.956,420.548,198.036,420.317,197.344,420.087z"/>
		<path fill="#C0BDBF" d="M381.999,175.108c2.533-1.611,5.527-1.842,8.52-1.842c-0.92,1.842-2.072,3.455-2.992,5.296
			c-1.613,0-3.455,0-5.066,0C382.229,177.411,382.229,176.26,381.999,175.108z"/>
		<path fill="#E68924" d="M408.247,325.228c13.814,2.992,27.17,7.137,32.234,22.564c-1.381,11.973-9.439,17.037-20.262,18.879
			c-25.326,4.375-50.422,3.225-75.059-4.375c-3.914-1.15-8.289-2.531-4.145-8.287c-10.592-4.836-21.873-2.764-33.385-0.23
			c-6.678,1.381-6.678,1.15-8.059-3.684c9.209-7.369,20.491-7.83,31.313-9.902c20.492-3.684,41.213-6.676,61.475-10.82
			C398.116,328.22,402.722,324.536,408.247,325.228z"/>
		<path fill="#DD3A26" d="M300.954,351.245c0.921,3.914,3.453,1.381,5.065,0.92c14.735-3.914,29.241-3.914,43.978,1.613
			c-1.844,4.604-6.908,0.92-9.902,4.145c7.83,3.914,16.348,5.525,24.406,6.676c18.189,2.764,36.609,2.764,54.799,0
			c10.131-1.611,18.418-6.217,21.412-17.037c0.691,14.965-9.209,21.412-18.881,24.176c-17.268,5.064-34.535,2.303-51.805-0.922
			c-11.281-2.303-22.102-6.217-33.615-6.906c-15.426-0.922-30.161,2.992-43.977,9.439c-3.453,1.611-7.137,3.453-11.051,4.375
			c13.584-13.586,30.852-19.342,49.041-23.715c-16.117-0.922-30.852,3.223-44.437,11.281c-13.124,7.828-25.558,16.807-37.99,25.787
			c10.361-15.656,26.248-24.867,43.055-36.609c-9.67,1.383-16.578,4.145-23.255,7.139c-13.584,6.217-26.248,14.045-37.99,23.254
			c-19.11,14.736-40.754,22.795-65.159,22.104c3.914-0.922,8.059-2.072,11.973-2.994c-11.973-1.381-24.176-0.229-35.918-3.223
			c-1.842-2.764-0.23-4.375,1.842-5.756c20.031,5.525,39.372,3.223,58.481-4.375c5.066,0.23,9.9,0,13.355-4.834
			c14.965-9.211,29.701-18.42,45.126-26.709c11.743-6.908,24.406-10.592,38.222-11.051
			C299.112,348.481,301.185,348.481,300.954,351.245z"/>
		<path fill="#CD7A29" d="M300.954,351.245c-0.691-1.381-2.072-1.611-3.223-1.611c-4.836,1.611-4.605-0.922-2.303-3.453
			c2.072-2.303,5.525-2.764,8.519-3.686c20.722-5.525,41.444-10.36,62.165-15.656c4.836-1.381,10.131-1.842,14.506-4.835
			c2.303,0,4.836-0.229,7.137-0.229c7.139-4.145,13.816-1.842,20.262,2.072c0.23,0.459,0.23,0.92,0.461,1.381
			c-10.361,7.598-23.023,8.289-34.996,10.592c-21.873,4.145-43.977,6.445-65.619,11.973
			C304.868,348.481,303.257,350.323,300.954,351.245z"/>
		<path fill="#A8A5A6" d="M428.739,323.847c4.145-3.914,3.453-9.901,6.678-14.275c1.381,9.439,10.359,13.814,14.273,21.873
			c2.764,5.756,4.836,11.281,3.455,17.729c-0.691,3.453-2.533,5.525-5.297,7.367c1.383-14.965-5.986-24.865-18.648-31.543
			c-0.691-0.23-0.922-0.461-0.691-0.691C428.509,324.076,428.739,323.847,428.739,323.847z"/>
		<path fill="#791122" d="M407.786,323.616c-6.676-0.691-13.584-1.382-20.26-2.072c-9.441-2.994-19.111-1.382-28.781-0.691
			c-3.684,0.23-7.367,0.922-11.051,0.691c12.432-3.684,24.174-10.361,37.99-6.908c8.287-0.69,16.117,2.303,23.945,3.685
			c0.459,0.229,1.15,0.46,1.611,0.46C411.472,321.313,410.089,322.694,407.786,323.616z"/>
		<path fill="#C63627" d="M142.086,396.142c-0.46,1.613-1.152,3.455-1.611,5.066c-3.914-1.152-8.059-2.303-11.973-3.225
			c-3.224-1.842-5.066-3.914-2.072-7.367c-3.453-2.072-6.447-4.375-8.75-8.059c1.152,0,2.302,0,3.453,0.23
			c5.527,0.691,9.21,5.756,14.736,6.678c2.763,1.381,6.447,0.92,8.289,4.145C144.389,394.991,143.008,395.452,142.086,396.142z"/>
		<path fill="#A94B63" d="M428.739,323.847c0.23,0.459,0.23,0.689,0.23,1.15c-5.525-2.072-10.822-4.375-16.348-6.447
			c0.691-0.229,1.611-0.229,2.303-0.46C419.989,319.472,425.056,319.933,428.739,323.847z"/>
		<path fill="#CB872A" d="M159.124,242.34c2.533,1.842,1.613,4.604,1.842,6.906c-3.914,0.691-7.828,1.383-11.742,1.842
			c-4.374,0.46-7.137-1.381-7.598-6.448C147.381,243.952,153.368,243.03,159.124,242.34z"/>
		<path fill="#AC3E5D" d="M97.188,240.727c0-0.689,0-1.15,0.23-1.611c10.591-2.762,21.183-5.295,32.234-5.525
			c0.691,0,1.382,0.23,2.072,0.23C120.674,237.735,108.471,237.504,97.188,240.727z"/>
		<path fill="#9DBCD3" d="M135.178,341.575c0-4.375,0.23-8.52,0-12.895c-0.459-5.525,3.914-5.986,7.369-6.446
			c4.834-0.46,2.762,3.914,3.223,6.216c0.23,0.461,0,1.152,0,1.612c0,19.11-2.072,17.499,17.039,12.433
			c3.914-0.92,5.065-2.992,5.065-6.676c0-5.527,0.23-10.822,0-16.348c-0.23-4.836,3.223-5.756,6.677-6.217
			c4.604-0.461,3.914,3.223,3.914,5.986c0,7.137,0,14.275,0,21.643c0,5.986-2.533,9.67-8.519,11.053
			c-8.52,2.072-17.268,4.143-25.788,6.906c-6.908,2.072-9.9,0.461-9.209-6.906C135.409,348.481,134.949,345.028,135.178,341.575
			L135.178,341.575z"/>
		<path fill="#A71E29" d="M162.809,316.247c0,4.836-0.691,9.901,0.229,14.506c1.152,7.139-2.992,8.75-8.518,9.9
			c-2.994,0.691-4.145-0.23-4.145-3.453c0-12.434,0-24.637,0-37.069c0-6.677,6.217-5.296,9.67-5.756
			c4.834-0.69,2.533,3.914,2.533,6.216C163.038,305.887,162.809,310.952,162.809,316.247z"/>
		<path fill="#99B8CD" d="M299.343,311.874c-0.23,3.223-2.303,5.756-5.065,6.446c-11.973,3.224-23.716,8.288-36.609,8.519
			c-2.072-11.742-0.46-13.354,10.592-11.973c6.677-1.611,13.354-3.453,19.801-5.064c1.842-1.152,3.684-2.533,5.756-3.225
			C299.343,304.966,301.185,306.577,299.343,311.874z"/>
		<path fill="#A5C4DA" d="M299.343,311.874c-0.461-2.072,0.46-5.757-3.914-3.455c-2.303,1.152-4.605,1.843-7.139,1.383
			c0.23-5.066,0.23-10.361,0.461-15.427c0-3.685,0.461-7.368-5.295-5.296c-1.151,0.461-2.533,0-2.533-1.382
			c0-0.921,0.691-2.532,1.611-2.763c4.836-1.611,9.9-2.993,14.736-3.914c2.072-0.461,3.223,1.151,3.223,2.993
			C300.263,292.993,302.335,302.663,299.343,311.874z"/>
		<path fill="#A6C4DA" d="M268.489,314.636c-5.756,2.072-13.584,2.303-10.591,11.973c-3.684-10.82-1.151-21.873-1.382-32.924
			c0-4.605,5.296-3.685,8.289-4.375c4.145-0.691,3.224,2.993,3.224,5.295C268.26,301.513,268.26,308.189,268.489,314.636z"/>
		<path fill="#9CBCD2" d="M238.788,313.716c0.23,21.412,1.383,19.109-19.34,25.326c-5.756,1.611-11.742,2.533-17.498,4.375
			c-4.836,1.381-6.447-0.461-6.447-4.836c0-8.519,0.23-17.268,0-25.787c0-5.295,3.224-5.986,7.138-6.446
			c5.295-0.461,2.762,3.684,3.223,5.756c0.23,1.151,0,2.302,0,3.454c0,15.887,0,15.656,15.195,11.742
			c5.066-1.151,7.369-3.224,6.908-8.75c-0.461-4.834,0-9.67-0.23-14.734c-0.23-5.297,3.453-5.987,7.367-6.447
			c5.297-0.461,2.994,3.684,3.225,5.756C239.249,306.577,238.788,310.262,238.788,313.716z"/>
		<path fill="#A1C2D8" d="M361.278,282.862c0,3.914-0.461,8.059,0,11.973c0.691,6.447-3.914,7.368-8.059,7.598
			c-5.986,0.461-3.684-4.374-3.914-7.367c-0.23-3.914,0.461-8.059-0.23-11.973c-0.691-3.684,3.684-10.361-3.684-10.821
			c-10.592-0.461-16.809,4.604-17.039,11.973c0,6.217-0.459,12.663,0.23,18.88c0.691,6.907-4.145,7.828-8.748,7.828
			c-5.527-0.23-3.455-5.295-2.994-8.059c1.151-7.137,1.151-14.275,0.461-21.412c-0.461-4.836,1.15-7.368,5.986-8.52
			c10.361-2.303,20.492-5.296,30.623-8.289c5.064-1.611,7.598-1.151,6.906,5.065C360.817,274.344,361.278,278.718,361.278,282.862
			L361.278,282.862z"/>
		<path fill="#AC1E35" d="M338.944,245.563c2.303,0.922,4.836-2.303,6.908,0.23c-1.613,4.375,2.992,11.512-5.758,12.433
			c-2.301,0.23-5.525,3.224-6.676,0.23c-1.152-3.224-2.303-7.599,0.92-10.822C335.491,246.485,337.333,246.254,338.944,245.563z"/>
		<path fill="#EDECEC" d="M71.401,315.097c-0.461-3.914-0.23-5.986,5.296-5.525c16.116,1.15,31.082-2.764,44.667-11.743
			c0.23,1.151,0.23,2.303,0.461,3.454c0.46,10.131-6.676,16.808-17.039,15.887c-1.151-0.23-2.532-0.23-2.302-1.611
			c0.46-5.986-2.533-5.066-6.678-4.145c-5.064,0.92-6.216,3.684-5.986,8.289c0.922,12.893-1.15,25.557,1.151,38.451
			c-3.684-1.613-2.302-4.836-2.302-7.369c-0.23-11.742,0-23.254,0-35.688C82.453,316.708,76.927,318.09,71.401,315.097z"/>
		<path fill="#A0C0D7" d="M378.546,277.106c0-18.189,0-18.189,18.189-23.024c5.295-1.382,10.361-3.224,15.656-4.375
			c6.217-1.381,10.131,0.23,9.67,7.828c-0.459,7.138-0.459,14.275,0,21.413c0.461,7.138-5.064,7.368-9.209,7.368
			c-5.066,0-2.533-4.835-2.764-7.368c-0.23-6.217,0.23-12.663,0.461-18.88c0-1.382,0.691-3.454-0.691-3.914
			c-5.986-1.151-11.051,2.072-16.346,3.453c-3.455,0.921-4.375,3.224-4.375,6.447c0,7.138-0.23,14.275,0.23,21.643
			c0.23,5.526-3.225,7.138-7.369,7.368c-5.525,0.461-2.992-4.145-3.223-6.678C378.085,284.474,378.546,280.79,378.546,277.106z"/>
		<path fill="#9F1C34" d="M406.175,228.754c0,3.455,0.23,6.908,0.23,10.361c-2.992,4.145-8.059,3.225-12.203,4.836
			C392.821,230.598,392.821,230.368,406.175,228.754z"/>
		<path fill="#99B8CE" d="M117.68,354.929c0.46,7.598-2.532,11.742-8.979,13.584c-8.98,2.303-17.729,4.605-26.479,7.139
			c-5.065,1.611-7.828,0.689-7.598-5.066c0-8.979,0-17.729-0.23-26.707c-0.23-6.217,5.296-4.375,8.059-5.297
			c3.684-0.92,2.532,2.764,2.763,4.605c0.23,1.611,0,3.453,0,5.064c0,15.658,2.763,17.27,17.269,10.592
			c1.842-0.92,3.684-1.611,3.684-4.145c-0.23-6.447,4.836-6.906,8.75-6.676C119.982,348.481,116.529,353.317,117.68,354.929z"/>
		<path fill="#C47529" d="M380.388,322.004c-1.842,5.987-7.598,5.526-11.973,6.677c-21.412,5.526-43.055,10.592-64.697,15.887
			c-2.764,0.691-5.757,1.152-7.829,2.764c-2.072,1.381,0.23,2.072,1.612,2.303c-13.125,2.303-26.479,4.834-38.221,11.742
			c-1.382-0.922-2.993-1.611-3.685-3.453c6.907-5.758,14.506-9.9,22.564-13.586c18.649,0.691,35.688-7.598,53.417-11.281
			c10.59-2.303,20.951-5.064,30.852-10.131C367.495,320.392,374.401,322.234,380.388,322.004z"/>
		<path fill="#DD5526" d="M300.954,121.461c11.973,1.382,18.189,11.052,27.629,18.88c-1.842-7.138-5.986-11.512-9.67-16.348
			c15.887,3.684,30.854,25.096,40.754,57.792c-4.605,0-7.369-3.914-12.203-6.447c0.92,2.303,1.381,3.684,1.842,4.836
			c-10.361,7.367-21.412,13.354-34.537,13.814c-1.842-3.223-3.684-6.217-5.525-9.44c-2.533,1.612,0.921,3.454-0.922,4.834
			c-10.36-5.064-10.59-15.656-14.044-26.477c-0.23,6.446,0,10.821-0.921,15.196c-0.23,1.611,0.23,6.906-4.605,3.684
			c0.23-2.533-0.461-4.836-0.23-7.368c0-1.152,0.461-2.533,0.922-3.684c2.072-4.835,0.69-10.131,1.15-15.197
			c0.23-2.533-0.69-5.986,2.533-6.447c2.763-0.459,3.453,3.224,4.835,5.296c2.302,4.145,1.612,9.44,5.065,12.893
			c2.533,0.461,5.065,0.922,7.367,2.303c1.842,1.842,2.764,4.375,3.914,6.678c4.145,9.67,4.375,9.9,12.895,2.992
			c5.295-4.374,12.203-5.064,17.498-9.9c2.303-2.072,3.225-2.762,2.072-5.295c-2.072-4.375-2.992-9.44-7.367-12.434
			c-3.914-2.762-1.381-7.828-4.375-10.821c-0.461,0.23,0.461,0.69,0.461,1.151c0.461,2.994,2.762,6.677-0.461,8.519
			c-2.764,1.612-5.064-1.842-7.137-3.684c-7.6-7.599-14.967-14.966-24.176-20.723C302.105,125.375,300.263,124.225,300.954,121.461z
			"/>
		<path fill="#64071B" d="M176.393,379.565c-2.072-3.914-6.216-4.605-9.9-6.217c-2.302-3.684,1.151-3.914,2.762-4.375
			c25.557-7.137,51.344-14.045,76.902-20.951c2.072-0.461,4.604-0.691,6.216,1.381c-3.916,4.375-8.519,7.828-13.814,10.361
			c-2.533,4.373-6.908,6.445-11.283,8.518c-4.145,1.383-8.059,3.225-11.512,5.758c-0.691,0.459-1.381,0.689-2.072,1.15
			c-6.217,2.533-12.434,4.834-18.42,8.289c-2.762,2.072-6.217,1.15-9.209,1.381C182.379,384.169,178.004,384.169,176.393,379.565z"
			/>
		<path fill="#921924" d="M187.213,383.479c2.303-0.23,4.375-0.461,6.678-0.691c6.677-3.453,14.045-5.756,20.951-9.209l0,0
			c3.914-2.764,8.52-4.145,12.434-6.908c3.914-2.303,7.828-4.604,11.742-6.676c-0.23,2.762,2.764,3.453,3.684,5.525
			c-0.459,5.756-5.986,6.217-9.67,8.748c-4.375,3.225-9.439,5.066-14.275,7.6c-2.762,1.381-5.295,2.531-4.143,6.215
			c-3.224,3.455-5.527,10.361-11.513,2.994c-11.281,1.842-22.104,5.525-33.385,6.678c-8.75,0.92-17.499,1.842-25.557-3.686
			c-2.994-1.15-5.756-2.301-8.75-3.223c-1.611-7.367,4.145-7.137,8.289-7.367c8.98-0.23,17.498-0.922,26.248-2.764
			c1.15,0.691,2.303,1.381,3.453,2.072C177.774,383.938,182.149,386.013,187.213,383.479z"/>
		<path fill="#D98327" d="M214.383,388.083c-3.225-2.301-5.297-3.914,0.23-6.445c9.67-4.605,19.34-9.211,27.86-16.117
			c4.373-2.533,8.287-6.217,13.583-7.367c2.072,0.229,3.684,0.92,3.684,3.453C244.315,370.354,229.348,379.104,214.383,388.083z"/>
		<path fill="#7A111E" d="M304.407,193.989c1.843,1.15,3.455,2.303,5.297,3.453c6.445,11.053-3.225,17.729-6.908,26.018
			c-7.598,3.453-15.887,4.836-23.945,6.908c-2.533-2.994-0.921-6.217,0.461-8.75c4.145-6.907,6.677-14.506,8.979-22.104
			C290.823,189.844,296.349,188.233,304.407,193.989z"/>
		<path fill="#7E1320" d="M169.715,380.716c-7.137,6.908-16.117,4.605-24.637,5.066c-3.914,0.23-8.979-1.383-9.9,5.064
			c-5.525-1.15-10.131-4.145-13.814-8.289c10.822-5.986,23.255-7.137,35.228-9.9C161.426,371.276,164.879,378.413,169.715,380.716z"
			/>
		<path fill="#A0798E" d="M187.213,383.479c-4.834,4.145-9.67,6.447-14.045-0.691c0-2.303,0.691-3.914,3.455-3.223
			C179.385,382.097,183.299,383.019,187.213,383.479z"/>
		<path fill="#48202C" d="M304.407,193.989c-9.67-3.914-12.433-2.303-15.656,8.289c-2.993,9.439-6.677,18.648-9.9,27.859
			c-1.151,0.461-2.533,0.92-3.684,1.381c-0.921-5.525,0.46-10.131,5.065-13.584c2.532-6.908,4.835-13.814,7.368-20.723
			C291.054,187.542,297.501,186.391,304.407,193.989z"/>
		<path fill="#791120" d="M280.002,217.934c-1.611,4.605-3.454,8.979-5.065,13.584c-1.151,0-2.072,0.23-3.224,0.23
			c0.461-5.756,1.151-11.281,1.612-17.038C276.317,214.481,277.699,217.243,280.002,217.934z"/>
		<path fill="#F8F5F4" d="M290.593,172.116c0,0.691,0,1.381,0,2.072c-1.15,4.144-5.756-1.381-6.907,2.533
			c0.23,8.749,0.69,17.499-5.065,27.399c0-6.217,0-10.592,0-14.967c0-7.137,0-14.274,0-21.412c0-1.842-1.15-5.526,3.224-2.993
			c1.612,1.842,3.224,5.525,5.757,3.914c2.992-2.072,1.15-6.217,1.842-9.67C293.587,163.135,291.054,167.741,290.593,172.116z"/>
		<path fill="#F7AA26" d="M283.686,176.721c-0.46-1.842-1.151-3.685-1.611-5.756c3.914-0.461,4.835,5.065,8.749,3.223
			c0,2.762,1.151,5.525-1.611,7.598C287.14,180.174,285.298,178.563,283.686,176.721z"/>
		<path fill="#FBAC18" d="M290.593,172.116c-1.15-4.145,0.691-8.75-1.381-12.895c-0.23-3.223-0.23-6.446-0.461-9.67
			c0.23-8.059,1.611-16.348-2.303-23.485c-2.532-4.605,4.836-6.217,1.382-10.82c-2.072-2.994-5.986-6.217-4.145-11.283
			c9.44,2.072,18.189,4.836,26.019,13.354c-5.066,0.461-8.52,0.691-14.045,1.152c2.762,1.842,3.914,2.533,5.064,3.223
			c11.973,8.289,23.256,17.498,34.307,30.162c-0.921-6.447-1.611-10.592-2.303-14.736c6.908,11.052,15.197,21.183,18.42,35.458
			c-5.295-2.763-7.598,1.842-10.822,2.993c-8.059,2.994-14.504,7.598-21.182,12.203c-2.533,1.842-3.223-1.611-3.914-3.223
			c-2.303-4.835-4.375-9.9-6.447-14.966c-1.842-0.92-3.223-4.145-5.986-1.611c-0.23,1.15-0.461,2.302-0.921,5.295
			c-4.374-8.059-4.144-16.117-8.979-23.024C290.593,157.84,294.507,165.438,290.593,172.116z"/>
		<path fill="#AF384E" d="M349.306,144.026c4.145,2.994,5.756,7.598,6.906,12.203C352.067,153.235,350.456,148.631,349.306,144.026z
			"/>
		<path fill="#F08F21" d="M143.928,394.069c17.729,3.914,34.537,0.691,51.574-4.373c2.303-0.691,5.986-4.605,7.367,1.15
			c-3.684,6.447-10.59,5.756-16.576,6.908c-11.283,2.301-22.334,4.373-34.077,2.072c-3.914-0.691-6.447-3.225-10.131-3.916
			C142.777,395.452,143.237,394.761,143.928,394.069z"/>
		<path fill="#A71E28" d="M303.026,168.202c0-1.612-1.381-4.605,1.842-4.145c2.533,0.46,5.525,1.842,4.145,5.756
			C306.02,172.807,304.638,170.504,303.026,168.202z"/>
		<path fill="#AB435C" d="M214.613,373.579c-5.988,5.064-13.355,7.367-20.953,9.209
			C199.877,377.954,207.014,375.421,214.613,373.579z"/>
		<path fill="#A74359" d="M227.045,366.671c-3.223,4.145-7.598,5.986-12.432,6.908C217.606,369.435,222.211,367.823,227.045,366.671
			z"/>
		<path fill="#AA1F25" d="M295.659,128.6c3.914,1.151,8.059-2.072,9.9,1.842c0.92,1.842-1.383,5.526-3.914,5.986
			C297.731,136.889,297.501,132.744,295.659,128.6z"/>
		<path fill="#A71E25" d="M341.478,161.754c-0.691,2.303-2.533,2.994-4.605,2.994c-3.223,0.229-3.453-2.303-3.684-4.605
			c-0.23-1.842,0.691-2.764,2.303-2.303C338.024,158.301,340.556,158.992,341.478,161.754z"/>
		<path fill="#A61E27" d="M327.663,177.872c-1.383,2.072-3.455,2.533-5.756,2.533c-2.303-0.23-2.072-2.072-2.072-3.684
			c0.229-2.533,1.611-3.455,3.914-2.533C325.591,174.648,327.202,175.569,327.663,177.872z"/>
		<path fill="#AB1F25" d="M323.058,153.465c0,2.072-1.15,2.763-2.764,2.533c-2.302-0.461-3.453-1.842-3.453-4.145
			c0-1.381,0.922-2.764,2.764-2.533C321.907,149.782,321.907,152.314,323.058,153.465z"/>
	</g>
</g>
</svg>
