<?xml version="1.0" encoding="utf-8"?>
<!-- Generator: Adobe Illustrator 22.0.1, SVG Export Plug-In . SVG Version: 6.00 Build 0)  -->
<svg version="1.1" id="Layer_1" xmlns="http://www.w3.org/2000/svg" xmlns:xlink="http://www.w3.org/1999/xlink" x="0px" y="0px"
	 viewBox="0 0 1024 1024" style="enable-background:new 0 0 1024 1024;" xml:space="preserve">
<style type="text/css">
	.st0{fill:#FEFEFE;}
	.st1{fill:#DBDBDB;}
	.st2{fill:#E7E7E7;}
	.st3{fill:#ECECEC;}
	.st4{fill:#9B0321;}
	.st5{fill:#EBEBEB;}
	.st6{fill:#A30323;}
	.st7{fill:#9A0122;}
	.st8{fill:#9D0122;}
	.st9{fill:#990122;}
	.st10{fill:#900120;}
	.st11{fill:#D5D5D5;}
	.st12{fill:#85031F;}
	.st13{fill:#87031F;}
	.st14{fill:#ECE8EA;}
	.st15{fill:#870621;}
	.st16{fill:#561721;}
	.st17{fill:#CCCCCC;}
	.st18{fill:#402932;}
	.st19{fill:#FBA703;}
	.st20{fill:#A50A2E;}
	.st21{fill:#FDAC03;}
	.st22{fill:#5C0416;}
	.st23{fill:#FAF8F9;}
	.st24{fill:#DF0001;}
	.st25{fill:#9495CB;}
	.st26{fill:#829CAE;}
	.st27{fill:#A97209;}
	.st28{fill:#CAC9CA;}
	.st29{fill:#6F061C;}
	.st30{fill:#A46D02;}
	.st31{fill:#F8EEEF;}
	.st32{fill:#631F2B;}
	.st33{fill:#8585B1;}
	.st34{fill:#F5E3E6;}
	.st35{fill:#8C8BBE;}
	.st36{fill:#BEB8B9;}
	.st37{fill:#F7E9EB;}
	.st38{fill:#F2E1E3;}
	.st39{fill:#F4E7E9;}
	.st40{fill:#F1E2E4;}
	.st41{fill:#EEDBDE;}
	.st42{fill:#C72B26;}
	.st43{fill:#F2CDC0;}
	.st44{fill:#CAD7F1;}
	.st45{fill:#9B0122;}
	.st46{fill:#D6D6D6;}
	.st47{fill:#79031D;}
	.st48{fill:#8D0120;}
	.st49{fill:#F5F3F1;}
	.st50{fill:#950823;}
	.st51{fill:#EB5925;}
	.st52{fill:#9A93C6;}
	.st53{fill:#CECCCD;}
	.st54{fill:#E35524;}
	.st55{fill:#E3E3E3;}
	.st56{fill:#BDB9BA;}
	.st57{fill:#5C2632;}
	.st58{fill:#2E2832;}
	.st59{fill:#9F3F51;}
	.st60{fill:#5D5360;}
	.st61{fill:#BE475C;}
	.st62{fill:#404954;}
	.st63{fill:#8F8EC2;}
	.st64{fill:#3D3F44;}
	.st65{fill:#A34053;}
	.st66{fill:#B44C5E;}
	.st67{fill:#CCABBE;}
	.st68{fill:#F8F8F8;}
	.st69{fill:#94B3C8;}
	.st70{fill:#93B1C6;}
	.st71{fill:#F2EFF0;}
	.st72{fill:#F1F1F1;}
	.st73{fill:#87A2B5;}
	.st74{fill:#FDFDFD;}
	.st75{fill:#9EBFD5;}
	.st76{fill:#92AFC4;}
	.st77{fill:#912238;}
	.st78{fill:#84A0B3;}
	.st79{fill:#92B0C5;}
	.st80{fill:#F4F3F3;}
	.st81{fill:#91AEC3;}
	.st82{fill:#9C0322;}
	.st83{fill:#5F202C;}
	.st84{fill:#738B9B;}
	.st85{fill:#5B242D;}
	.st86{fill:#849EB1;}
	.st87{fill:#640618;}
	.st88{fill:#647482;}
	.st89{fill:#768D9E;}
	.st90{fill:#9B0123;}
	.st91{fill:#B8B8B8;}
	.st92{fill:#79051C;}
	.st93{fill:#D7D7D8;}
	.st94{fill:#FEF3DE;}
	.st95{fill:#A20A25;}
	.st96{fill:#FAD69B;}
	.st97{fill:#9C0C24;}
	.st98{fill:#AB2F1D;}
	.st99{fill:#AD321D;}
	.st100{fill:#A62220;}
	.st101{fill:#FCFAF8;}
	.st102{fill:#A63F1B;}
	.st103{fill:#883417;}
	.st104{fill:#AD4461;}
	.st105{fill:#950921;}
	.st106{fill:#C38602;}
	.st107{fill:#CB4E20;}
	.st108{fill:#78111A;}
	.st109{fill:#84021E;}
	.st110{fill:#6C0219;}
	.st111{fill:#DEDDDE;}
	.st112{fill:#8D3143;}
	.st113{fill:#C07A06;}
	.st114{fill:#FDFCFC;}
	.st115{fill:#FDFCFD;}
	.st116{fill:#A60126;}
	.st117{fill:#F9F9F9;}
	.st118{fill:#A60625;}
	.st119{fill:#FBFAFB;}
	.st120{fill:#B36A01;}
	.st121{fill:#A60225;}
	.st122{fill:#DAD7D8;}
	.st123{fill:#EAEAEA;}
	.st124{fill:#630619;}
	.st125{fill:#BF4923;}
	.st126{fill:#85021D;}
	.st127{fill:#CBCCCC;}
	.st128{fill:#5A1E29;}
	.st129{fill:#78031B;}
	.st130{fill:#E6E7E7;}
	.st131{fill:#E5E5E5;}
	.st132{fill:#65071A;}
	.st133{fill:#B1B2B2;}
	.st134{fill:#586A76;}
	.st135{fill:#611F2A;}
	.st136{fill:#FDAC02;}
	.st137{fill:#850821;}
	.st138{fill:#7B757A;}
	.st139{fill:#F69F04;}
	.st140{fill:#E25723;}
	.st141{fill:#631D27;}
	.st142{fill:#EC5925;}
	.st143{fill:#F6A405;}
	.st144{fill:#F7A105;}
	.st145{fill:#BB4A6A;}
	.st146{fill:#EF5B26;}
	.st147{fill:#631D28;}
	.st148{fill:#8D3246;}
	.st149{fill:#EFE0E6;}
	.st150{fill:#A7384F;}
	.st151{fill:#EAD6DC;}
	.st152{fill:#FAF5F5;}
	.st153{fill:#DAC4D3;}
	.st154{fill:#840D1E;}
	.st155{fill:#81051D;}
	.st156{fill:#960622;}
	.st157{fill:#8687B8;}
	.st158{fill:#832637;}
	.st159{fill:#7A011C;}
	.st160{fill:#EB5826;}
	.st161{fill:#9798CF;}
	.st162{fill:#990523;}
	.st163{fill:#859FB2;}
	.st164{fill:#89031E;}
	.st165{fill:#DFDFDF;}
	.st166{fill:#88A5B9;}
	.st167{fill:#D4D4D5;}
	.st168{fill:#A00224;}
	.st169{fill:#F0F0F0;}
	.st170{fill:#EAEBEB;}
	.st171{fill:#8FACC0;}
	.st172{fill:#9EC0D7;}
	.st173{fill:#7D93A5;}
	.st174{fill:#F8A102;}
	.st175{fill:#F8A404;}
	.st176{fill:#F6A004;}
	.st177{fill:#ED5A25;}
	.st178{fill:#F7A204;}
	.st179{fill:#F3EAEF;}
	.st180{fill:#DFC4CE;}
	.st181{fill:#DD4D24;}
	.st182{fill:#E95227;}
	.st183{fill:#EADCE2;}
	.st184{fill:#D5BFCD;}
	.st185{fill:#C3524D;}
	.st186{fill:#631F2D;}
	.st187{fill:#BFBDBF;}
	.st188{fill:#E88900;}
	.st189{fill:#DF3501;}
	.st190{fill:#CF7900;}
	.st191{fill:#A7A5A6;}
	.st192{fill:#79051F;}
	.st193{fill:#C73103;}
	.st194{fill:#A84A62;}
	.st195{fill:#CC8603;}
	.st196{fill:#AB3D5C;}
	.st197{fill:#9CBCD3;}
	.st198{fill:#A70326;}
	.st199{fill:#98B7CD;}
	.st200{fill:#A4C4DA;}
	.st201{fill:#A5C4DA;}
	.st202{fill:#9CBCD2;}
	.st203{fill:#A1C2D8;}
	.st204{fill:#AB1733;}
	.st205{fill:#EDECEC;}
	.st206{fill:#A0C0D7;}
	.st207{fill:#9E1832;}
	.st208{fill:#98B8CE;}
	.st209{fill:#C57300;}
	.st210{fill:#DE5323;}
	.st211{fill:#640319;}
	.st212{fill:#910221;}
	.st213{fill:#DB8201;}
	.st214{fill:#7E021D;}
	.st215{fill:#9F798E;}
	.st216{fill:#481F2B;}
	.st217{fill:#F9F5F4;}
	.st218{fill:#F8AA26;}
	.st219{fill:#AE374D;}
	.st220{fill:#F18E00;}
	.st221{fill:#A81026;}
	.st222{fill:#AA425B;}
	.st223{fill:#A64258;}
	.st224{fill:#AA1724;}
	.st225{fill:#A71524;}
	.st226{fill:#A61225;}
	.st227{fill:#AB1B24;}
</style>
<g>
	<g>
		<path class="st0" d="M609,571.8c0,11.8,0,23.5,0.1,35.2c0,1.9-0.4,2.3-2.3,2.3c-62.7-0.1-125.5-0.1-188.2,0
			c-1.9,0-2.3-0.4-2.3-2.3c0.1-62.7,0.1-125.5,0-188.2c0-1.9,0.4-2.3,2.3-2.3c62.7,0.1,125.5,0.1,188.2,0c1.9,0,2.3,0.4,2.3,2.3
			c-0.1,23.7,0,47.5,0,71.2c-1.4,0.4-2.2-0.5-2.7-1.5c-3.5-6.6-9-9.7-16.3-10.2c-0.5-0.2-0.9-0.6-1.2-1.1
			c-12.6-26-33.1-41.9-61.6-47.4c-1.2-0.4-2.6-0.4-3.8-0.6c-1.5-0.4-3-0.7-4.3-1.4c-6.6-2.6-13.1-2.5-19.6,0.6
			c-3.2,1.5-7.1,1.2-10.3,3c-6.3,2.9-13.1,4.8-19.1,8.5c-6.4,4-12.4,8.4-17.4,14c-13.3,12.8-20.6,28.6-23.4,46.6
			c-0.2,1.5-0.6,2.9-1,4.4c-0.9,2.5,0.2,5.3-1,7.7c-5.4,3.9-7.1,9.3-5.8,15.5c1.6,7.6,1.3,15.2,1.2,22.7c0,5,0.4,10,1.2,14.9
			c1.7,10.2,7.4,16.1,17.7,17.5c6.6,0.9,12.4,3.4,18,6.8c9.3,5.8,19.7,7.5,30.5,6.9c1.3-0.1,2.3-0.9,3.5-1.2c3.1-0.5,6,0.7,9,0.8
			c6.2,0.8,12.5,0.6,18.7,0.2c12-1.5,23.3-4.9,33.8-11c3.6-2.1,6.6-4.8,10.1-7.1c1-0.4,1.9-0.7,3-0.6c9.3,2.5,18.5,2.5,27.7-0.1
			c3.3-1,6.1-2.7,8.9-4.7C605.9,572.3,607.1,570.7,609,571.8z"/>
		<path class="st1" d="M609,548.5c0,5,0,10,0,15c-5.8,10.8-15.6,14.2-27,13.9c-3.6-0.1-7.6,0.9-10.6-2.4c-0.5-1.5,0.5-2.3,1.4-3.1
			c1.1-0.8,2.2-1,3.5-0.5c11.7,5.7,27.7-2.4,29.7-15.1c0.6-3.5-0.5-6.8-2.4-9.6c-4-5.7-4.6-11.5-2.1-18.1c1.6-4.2,1.4-8.8,1.3-13.3
			c-0.2-5.6,0.3-11.2-0.5-16.8c-0.8-6.2-3.2-11-9.4-13.2c-0.7-0.6-0.9-1.4-0.5-2.3c2-1.9,4-1,5.8,0.1c4.5,2.8,7.1,7.2,7.8,12.2
			c1.7,12.2,2.1,24.4-0.9,36.5c-1,3.9-0.7,7.4,1.4,10.8C607.6,544.5,608,546.6,609,548.5z"/>
		<path class="st2" d="M609,548.5c-5.1-5.8-6.4-12.1-4.4-19.8c2.9-10.9,1.8-22.2,0.5-33.3c-0.6-4.6-3.1-8.7-7.2-11.3
			c-1.6-1-3.3-1.7-5.2-0.8c-2-1.3-2.8-3.1-2.3-5.4c7.8-0.2,13.2,3.3,16.6,10.2c0.5,0.9,1.2,1.6,2.1,2C609,509.5,609,529,609,548.5z"
			/>
		<path class="st3" d="M571.6,574.8c3.4,2.4,7.5,1.7,11.2,1.8c8.3,0.2,16-2,21.9-8.4c1.4-1.5,2.2-3.7,4.3-4.6c0,2.8,0,5.5,0,8.3
			c-1.9,0.1-3,1.7-4.3,2.7c-5.8,4.5-12.4,6.1-19.4,6.3c-4.4,0.1-8.9,0.3-13.3-0.6c-1.7-0.3-3-0.9-4.4-1.7
			C568.1,576.2,569,574.5,571.6,574.8z"/>
		<path class="st4" d="M519.7,427.1c1.1,0.8,2.8,0.2,3.8,1.4c1.7,1.4,0.6,1.8-0.8,2.1c-9.5-1.4-18.6,0-26.8,4
			c0.7-0.2,2.4-0.6,2.7,1.1c0.2,1.1-1.4,1.6-2.4,1.9c-6.1,1.9-12.2,3.5-17.9,6.7c-3.9,2.2-7.8,4.6-10.6,8.2
			c-1.1,1.4-2.5,2.9-1.9,5.4c1.8-1.6,3.2-3.7,5.4-0.4c1.2,1.9,3.7,0.4,5-1.4c2.2-3.1,4.8-5.7,7.5-8.3c2.2-2.1,4.7-3.7,7.5-4.9
			c1-0.4,2.3-1.2,3,0.1c0.6,1.1-0.6,1.7-1.4,2.3c-1,0.8-2.1,1.4-3,2.2c-1.6,1.5-4.4,1.7-5,4.3c-1,1.5-2.2,2.9-3.4,4.6
			c2.1-0.6,2-2.4,2.8-3.7c1.2-1.4,1.2-4.5,4.4-3.2c1.1,2.4,0.9,4.7-0.3,6.9c-2.2,1.3-4.2,3-6.6,4c-1.5,0.3-2.8,0.9-3.7,2.2
			c-2.5,0.3-5.1,0.4-7.5-0.1c-3.1-0.7-5.1,0.3-6.4,3c-0.8,1.6-3.2,3.3-2.1,4.8c1.2,1.7,3.3-0.3,5-0.8c0.6-0.2,1.2-0.3,1.8,0
			c0.8,1,0.3,1.8-0.2,2.7c-2.2,4.6-2.1,4.8,2.6,6.7c0.5,0.3,0.8,0.7,0.7,1.3c-0.7,1-1.9,1-2.9,1.5c1.3,0.8,2.5,0.1,3.7-0.1
			c0.7-0.2,1.4-0.3,2.1-0.2c2.1,1.5,4.1,3,6.6,3.7c0.3,0.3,0.3,0.6,0.2,0.9c-3.6,2.1-4.1,3.4-2,5.3c1.6,1.4,3.1,1.3,3.7-0.8
			c0.6-2,1.2-3.7,3.1-4.8c0.9-0.5,0.8-1.7,1.1-2.7c0.7-2.8,1.8-5.4,4.5-6.9c1.4-0.1,2.6,0.1,3.3,1.5c-3.2,4.1-2.3,8.1-0.1,12.4
			c1.5,3-0.4,6-4.9,8.3c-2.2,1.1-4.2,2.6-7.4,3.8c2,0.4,2.4,3.3,4.4,0.5c0.9-1.2,2.9,0.6,4.4,1c1.4,0.6,3.2,0.1,4.3,1.4
			c0.2,0.4,0.3,0.8,0.2,1.2c-0.6,2-2.2,1.9-3.8,2c-1.4,0.1-2.9,0-4.4,0c-2.5,0.1-4.8-0.7-6.8-2.3c-2.1-1.3-3.5-3.3-4.8-5.4
			c-1.7-4.2-4-7.9-8.7-9.4c-0.9-0.7-1.4-1.6-2.1-2.4c-3.1-4.7-7.7-8.4-9.7-14c-0.6-3.2,1.4-5.6,2.8-8.2c1.2-2.2,3.5-3.9,3-6.8
			c-1.2-2.9,0.2-5.3,1.6-7.6c0.8-1.4,2-2.5,2.7-4c4.7-4.5,10.4-7.5,16.3-10c3.4-1.4,6.4-3.3,8.9-5.9c2.1-2,5.1-2.3,7.3-4.2
			C505.7,427.2,512.6,425.4,519.7,427.1z"/>
		<path class="st5" d="M493.7,596.4c-4.6,3.1-9.7,1.8-14.5,1.3c-8.3-0.9-16.2-3.6-23.2-8.6c-4.9-3.5-10.8-4.2-16.5-5.3
			c-11.4-2.2-15.9-10-17.2-20.1c-0.9-7.2-1-14.4-0.6-21.6c0.4-6.6-2.1-12.8-1.6-19.3c0.4-4.6,2-8.4,6.6-10.4
			c1.8,1.7,1.6,3.9,0.4,5.4c-3.2,4-3.3,8.4-1.8,12.8c3,9.1,2.8,18.4,2.8,27.8c0,3.6,0.2,7.3,3,10.1c0.6,0.6,1,1.3,1.3,2.1
			c0.3,3.2,2.3,5.1,5.1,6.3c1.6,0.7,3.2,1.6,4.9,1.8c7.9,1.1,14.9,4.5,21.7,8.4c4.3,2.4,9,4.4,14.2,3.6c4.5,1,8.8,2.4,13.2,3.7
			C492.2,594.8,493.4,595,493.7,596.4z"/>
		<path class="st6" d="M522.7,430c1.3,0,1.3-0.6,0.8-1.5c1.3,0.3,2.7-0.3,3.9,0.6c-1.2,1.9-2.3,4-3.4,6c-0.3,0.4-0.6,0.8-1,1.2
			c-0.7,0.7-1.6,1.2-2.4,1.8c-1.8,1.8-4.4,2.5-5.9,4.6c0.8,1.6,2.5,2.4,3.3,3.8c3,5.1,6.2,10.1,6.3,16.3c-0.6,0.8-1.5,1-2.5,1.2
			c-3.4-1-3.3-4.9-5.7-6.7c-1.8-2.1-2.9-5-6.3-4.9c0.7,2.4,3,3.8,3.8,6.1c0.8,2.3,2.2,4.4,3,6.7c2.5,7.9,3.1,16,1.9,24.2
			c-1.8,1.4-2-0.3-2.5-1.3c-1.2-2.5-1.4-5.3-2.5-7.8c-0.5-1.1-0.9-2.3-2-3c-0.6-0.3-1.7-1-1.8,0c-0.1,3-2.8,2.7-4.4,3.7
			c-2.1,1.5-4.6,2.6-4.4,5.7c-0.3,2.6,0.4,5.2,0.7,7.8c-0.1,1.6,0.7,3.1,0.8,4.6c-0.1,1-1.2,1.4-1.5,2.3c0,0.9,1.2,1.6,0.6,2.7
			c-1.8,1.7-3.6,3-6.1,1.6c0-0.3,0-0.6,0-0.9c0.1-0.5,0.2-1.1-0.2-1.5c-0.8-1-2.8-1.3-1.8-3.3c1.7-0.9,5.6,0.1,3.6-4.1
			c-0.7-5.8-0.5-11.4,4.1-15.9c0.1-0.1,0.4,0.1,0.2-0.3c-1.1-2.2-1-2.2,0.7-3.4c1.2-0.7,2.4-1.4,3.8-1.6c0.5,0.1,0.1-0.4,0-0.3
			c-1.7,0.9-1.8-1.2-2.8-1.5c-0.5-0.5-0.9-1-1.3-1.6c-1.1-1.6-2-3.5-3.4-4.8c-1.9-1.6-2.1-3.3-0.8-5.3c-1.3-1.3-3.1-1.5-4.6-2.2
			c-0.7-0.3-1.3-0.8-1.1-1.7c0.2-0.9,1-1,1.8-0.9c2,0.1,3.9,0.6,5.7,1.2c2.3,0.8,4.7,1.7,6.7,3.1c1.5,1,3.7,2.1,3,4.2
			c-0.5,1.7-2.7,1-4.3,1.1c4.3,2.3,7.7,5.4,10.3,9.4c-0.8-10.4-4.1-16.9-12.1-23.2c0.7,2.1,0.3,3.4-1.8,2.6c-2.9-1.1-5.9-2.1-9-2.4
			c-0.7-0.1-1.6-0.2-1.6-1.2c0-0.8,0.8-1.2,1.4-1.6c3.4-2,7.1-2.2,11-1.6c-0.5-0.7-1.6-1.2-1.2-2.2c0.3-0.8,1.2-0.9,1.9-0.9
			c2.5,0,4.6,1.1,6.7,2.2c3.4,1.9,6.1,4.5,8.3,7.4c-2.2-4.8-5.5-8.8-10.7-11.1c-1.5-0.7-1.6-3.5-4.3-2.9c-0.8,0.2-0.7-1.1-0.4-1.8
			c0.6-1.6,1.8-2.7,3.3-3.5c2.6-1.3,5-2.8,7.9-3.3c1.1-0.2,2.3-0.7,3.1,0.4c0.9,1.2,0.2,2.4-0.3,3.5c-0.5,1-1.2,1.8-1.8,2.3
			c2.3-2.1,5-4.3,6.5-7.5C522.2,430.5,522.4,430.2,522.7,430z"/>
		<path class="st7" d="M523.5,435c1-2.1,1.1-4.9,4-5.9c12.6,1.7,23.8,6.8,34.1,14c11.6,8.1,20.4,18.5,26.9,31
			c0.5,0.9,1.4,1.8,1.1,3.1c-2,2.2-4.3,1-6.5,0.6c-2.1-1.2-2.5-3.6-3.8-5.3c-3.3-5.1-6.9-10-11.2-14.3c-5.4-5.7-11.7-10.2-18.6-13.9
			c-1-0.6-2-1.3-3.2-1.8c-3.5-1.5-6.9-3.1-10.6-4.1c-2.4-0.7-4.8-1.3-7.2-1.8C526.9,435.9,524.7,436.8,523.5,435z"/>
		<path class="st8" d="M427.5,504.2c1.8-12.7,5.3-24.7,12.2-35.7c3.6-5.7,7.4-11.2,12.5-15.6c2.7,1.8,1.6,4.6,2,7.1
			c-0.2,1.5-1.4,2.5-2.1,3.8c-7.2,8.8-12.1,18.7-14.8,29.7c-1,3.9-1.3,7.8-2.3,11.7c-0.7,2.3-0.2,4.7-0.5,7
			c-0.3,3.3-3.9,5.7-7.3,5.1C427.3,513,426.8,508.6,427.5,504.2z"/>
		<path class="st9" d="M565.4,579.2c-11.3,10.2-25,15.1-39.7,17.9c-1.1,0.2-2.2,0.1-3.3,0.1c-5.6,0.8-11.2,0.1-16.9,0.3
			c-1.3-0.1-2.6-0.7-4-0.8c-0.9-0.1-2.2,0.4-2.3-1.1c-0.1-1.2,1-1.6,1.9-1.9c2.7-0.9,5.6-1,8.3-1.9c0.9-0.3,1.8-0.8,2.7-1.2
			c2.4-0.9,5,0,7.4-0.9c6.8-0.6,13.4-2.1,19.8-4.4c2.4-0.9,4.9-1.8,7.2-3c3.5-1.6,6.7-3.7,9.9-5.8c1.2-0.8,2.3-1.9,4-1.8
			c1.6,0.1,3.1,0.7,4.6,1.2C567.7,576.8,567.6,577.9,565.4,579.2z"/>
		<path class="st10" d="M453.8,460c-1.2-2.2-0.2-4.9-1.6-7.1c9.4-10.2,21.1-16.8,34.1-21.3c0.7-0.2,1.4-0.5,2-0.8
			c3.1-0.7,6.1-2.4,9.4-1.7c0.1,0.1,0.2,0.2,0.3,0.2c-6.8,3.6-12.1,9.5-19.9,11.8c-2.8,0.8-5.8,2.6-8,5.1c-1,1.2-2.4,1.6-3.7,2.3
			c-2.3,3.9-6.4,6.1-9.2,9.6C456.2,458.9,455.5,460.5,453.8,460z"/>
		<path class="st11" d="M427.5,504.2c0,4.5,0,9,0,13.5c0.7,0.6,0.9,1.4,0.8,2.2c-0.7,3.7-1,7.4,1.4,10.7c0.7,2.5,1.3,5,1.9,7.5
			c0.4,9.2,0.1,18.4,0.1,27.6c0,1.4,0,2.8-1.1,3.8c-3.6-2.1-3.7-5.7-3.8-9.1c-0.3-9.9,0.6-19.8-2.8-29.4c-1.3-3.7-2.2-8.3,0.7-11.8
			c1.8-2.2,2.2-4.2,1.8-6.7C427.1,509.7,425.9,506.8,427.5,504.2z"/>
		<path class="st12" d="M512.2,591.3c-2.2,2.4-5.3,2.3-8.2,2.9c-1.5,0.3-2.9,0.5-4.4,1.4c1.4,1.8,3.7,0.1,5,1.5
			c-0.9,0.8-1.8,0.4-2.7,0.1c-2.9,0.5-5.6-0.9-8.4-0.9c-5.2-1.9-10.8-2.8-15.8-5.2c-1.8-0.2-3.7-0.3-3.1-3c2.6-1.7,5.5-0.8,8.3-0.9
			c2.6-0.1,5.2-0.2,7.7,0.2c4.2,0.8,8.4,1.8,12.6,2.1C506.2,590.6,509.6,589.3,512.2,591.3z"/>
		<path class="st13" d="M565.4,579.2c0-0.8,2.6-1.9-0.4-2.4c-1.7-0.2-3.3-1-5-1.5c-0.1-0.4-0.1-0.7,0.1-1.1c1.9-1.8,3.7-3.9,6.4-4.7
			c1.6,0.2,3.2,0.2,4.8,0.5c1.6,0.3,2.6,1,1.8,2.8c-0.5,0.6-0.9,1.2-1.4,1.9c-1.4,1.2-2.7,2.4-4.1,3.6
			C566.7,578.4,566.4,579.7,565.4,579.2z"/>
		<path class="st14" d="M497.7,429.1c-3.3-0.2-6.2,1.6-9.5,1.7c6.7-2.6,13.6-4.6,20.6-6c3.7-0.7,7.3,1.2,10.8,2.3
			C512.3,427,505,428.1,497.7,429.1z"/>
		<path class="st15" d="M582.9,477.2c2.2-0.3,4.4,1,6.6,0c0.2,0.2,0.5,0.4,0.7,0.5c0.8,1.8,1.5,3.6,2.3,5.4
			c-0.1,0.6-0.2,1.2,0.5,1.6c0.4,0.3,0.5,0.6,0.1,0.9c-2.7,1.3-4.9-0.4-7.2-1.1c-0.5-0.3-0.9-0.6-1.3-1.1c-0.7-1.2-1-2.6-1.7-3.8
			C582.8,478.9,582.2,478.1,582.9,477.2z"/>
		<path class="st16" d="M502.1,597.3c0.9,0,1.8-0.1,2.7-0.1c5.9,0,11.8,0.1,17.7,0.1C515.6,598.6,508.9,598.6,502.1,597.3z"/>
		<path class="st17" d="M593.1,485.5c0.1-0.2,0.1-0.5,0-0.7c6.5,2,9.2,5.7,9.9,12.7c1.1,9.8,2.2,19.9-0.4,29.3
			c-2.4,8.6-1,15.4,3.3,22.8c4,7-0.8,17.3-9.1,21.4c-5.5,2.7-11.4,3.5-17.4,2.9c-1.3-0.1-3.2-0.1-3.4-2.2c2.7-2.6,6.3-1.1,9.4-2.1
			c2.1-0.5,4.1-1.5,6.4-1.5c7.3,0.4,13.7-8.7,11.3-16.2c-0.8-2.7-2.4-5-3.9-7.2c-2.8-4.1-3.4-8.4-1.5-13.1
			c4.4-11.5,3.2-23.3,1.6-35.1c-0.4-2.9-1.6-5.5-4.8-6.6C593.1,488.7,592.3,487.4,593.1,485.5z"/>
		<path class="st18" d="M586,570.3c-3.2,1.3-6.7,0.7-10,1.4c-1.4-0.6-2,0.8-3,1.2c0-1.5-0.9-1.8-2.1-1.9c-1.8-0.1-3.6-0.4-5.4-0.6
			c-2.8,1.2-5.4-0.7-8.2-0.7c-1-0.2-1.9-0.5-2.8-0.9c-2.5-0.9-5.1-0.3-7.6-0.5c-5,0.1-9.7,1.6-14.1,3.7c-1.2,0.6-2.4,1.3-3.7,1.6
			c-1,0.2-2.1,0.2-1.8-1.4c7.4-5.7,16-7.7,25.2-7.2c2.5,0.2,4.9,0.8,7.3,1.5c6.7,1.9,13.6,3,20.6,2.7
			C582.2,569.1,584.3,568.7,586,570.3z"/>
		<path class="st19" d="M507,436c-1.4,1.1-2.7,2.2-3.6,4.2c1.9,0,3.6-0.9,5.5,0c-1.3,1.1-2.8,1.9,0.1,3.1c6.3,2.5,9.4,7.8,11.2,14.1
			c-4.9-5.6-9.9-11-18.2-11.6c0.6,2.1,2.8,1.9,3.7,3.8c-5.2-0.9-10.2-1.5-15,2.2c4.6,0.1,8.5,1.3,12.9,3.7c-1.2-2.1-1.9-3.2-2.6-4.4
			c9.1,2.3,15.5,16.1,15.3,27.3c-1.1,0-1-0.9-1.2-1.6c-0.7-1.7-1.7-3.3-2.7-4.8c-0.7-1.1-2.7-2.2-0.2-3.7c0.7-0.4-0.3-1-0.5-1.4
			c-0.8-1.2-2-2.2-2.7-3.4c-0.5-1,1-3.8-2.1-2.2c-1.8-0.6-3.1-2.3-5-2.8c-0.7-0.5-1.4-1.2-2.1,0c-0.1,0.1-0.3,0.2-0.4,0.2
			c-2.3-0.4-4.5-0.8-7.5-1.3c1.9,2.4,5.5,1.3,6.1,4.3c-0.8,0.7-1.7,0.4-2.5,0.1c-2.8-0.8-5.3-0.7-7.6,1.2c-1.1,0.9-2.4,1.2-3.8,0.8
			c-1.8-2.2-4.5-0.4-6.6-1.4c0.4-2.2,2.2-2.1,3.8-2.2c2-1,4.6-0.8,6.1-3c0.8-2.4,0.9-5,0.7-7.5c-0.2-1.3,0.9-1.3,1.6-1.7
			c4-1.3,8.3-2.3,8.6-7.7c0.5-2,1.8-3,3.8-3.3c-1.8,0.2-3.1,1.1-3.7,2.9c-0.4,5.6-4.5,7.1-9,8c-0.1-0.1-0.2-0.3-0.4-0.4
			c1.5-1.3,3-2.5,5.3-4.4c-7.2,2.3-11.6,6.8-15.7,11.7c-1.1,1.3-2,2.9-3.2,4.1c-2.3,2.1-5.6,0.9-6.7-2.4c-0.5,0.7-0.8,1.4-1.2,2
			c-0.6,0.7-1,2.2-2.1,1.6c-1.3-0.7-1.5-2.2-0.9-3.6c1.4-3.1,3.7-5.6,6.3-7.8c7.2-5.9,15.9-8.7,24.6-11.3c0.9-0.3,2-0.1,2.8-1.3
			c-1.4-0.1-2.7-0.2-4-0.3c8.9-5.1,18.3-7.6,28.5-5.2c0.1,0.2,0.1,0.4,0,0.7c-0.9,1-2.2,1.1-3.4,1C514.6,431.6,510.6,433.1,507,436z
			"/>
		<path class="st20" d="M502.5,471.2c0.6,0.3,0.7,0.8,0.7,1.4c-0.3,2.8-3.3,2.1-4.6,3.6c-1.2,0.6-1.9,2.3-3.6,1.6
			c-1-0.4-2-0.9-2.9-1.3c-0.6-0.9,0.3-1.6,0.6-2.4c-4.5-0.7-6.7,2.3-8.9,5.3c-0.9,1.2-0.7,2.5-0.2,3.8c0.7,1.9,0.2,2.9-2,2.4
			l-0.2-0.3c-1.2-0.9-2.3-1.9-2.8-3.3c-1.2-2.9-2.5-2.3-4-0.3c-0.4,0.2-0.9,0.5-1.3,0.7c-0.7-0.7-1.3-1.4-1.5-2.4
			c-0.3-0.2-0.6-0.5-0.9-0.7c0.2-1.5,1.5-1.4,2.5-1.8c3.4-1.3,6.5-3.1,9.2-5.5c1.2-1,2.9-2.1,2.5-3.8c-0.5-2.1-2.7-1.3-4.1-1.7
			c-2.4-2-0.2-2.3,1.1-2.9C490.2,462.8,496.8,465.9,502.5,471.2z"/>
		<path class="st21" d="M481.8,464.5c-0.5,0.3-1.2,0.6-1.4,1c-0.2,0.6,0.6,0.5,1,0.6c0.3,0.3,0.3,0.7,0.2,1.1
			c-1.5,3.4-4.2,5.6-7.6,6.7c-1.9,0.7-4.1,0.9-4.6-2c-0.8-0.5,1.9-2.4-0.9-2.2c-2,0.9-3.9,2.2-6.2,2.2c-2,0-2.9-0.7-1.7-2.7
			c1.3-2.1,2.6-4.2,3.8-6.4c0.9-1.6,2.8-2,4.1-1.7c2.2,0.5,4.4,1.3,6.4,0.1c1.5-0.9,0.9,2.7,2.5,0.9c2.1,0.4,4.8-3.2,6.2,1
			C483.7,464.5,482.5,464,481.8,464.5z"/>
		<path class="st22" d="M495.8,505.8c2.4,0.1,4.4-0.9,6.2-2.4c0.5-0.3,1-0.3,1.4,0c0.6,1.4,1.2,2.8,2.3,4c0.8,0.9,1.5,2,0.5,3.2
			c-3.5,2.3-7.8,2.2-11.5,3.8c-0.4,0.1-0.7,0.3-1.1,0.3c-8.1,1.8-16,4.2-24,6.2c-2,0.5-3.9,1.6-6.1,0.6c-0.4-0.5-0.5-1.1-0.4-1.7
			c0.7-1.7,2.2-2.2,3.9-2.5c3.9-0.6,7.7-1.8,11.5-2.9c4.5-0.7,8.2-3.1,11.8-5.6c-0.8-0.3-1.5-0.1-2.2-0.5c-0.5-0.3-0.9-0.6-0.8-1.3
			c2,0,3.9,0,5.9,0C494.4,507.3,495.5,507.4,495.8,505.8z"/>
		<path class="st23" d="M495,477.8c1.1-0.7,2.1-1.4,3.2-2.2l1.4,1.2c1.8,1.3-0.2,2-0.4,2.9c-0.1,0.5-2.6,0.5-0.2,1.6
			c0.7,0.3-0.2,1.6-0.6,2.3c-2.2,4.1-2.3,8.2-0.3,12.4c2.2,4.3,2.2,4.3-4.3,4.5c-0.6,0.6-1.4,0.5-2.1,0.8c0.6,0.9,2,1.2,2,2.5
			c-0.7,0.9-1.6,0.6-2.5,0.4c-1.2-0.5-2.5-0.9-4.2-1.5c0.7,1.1,1.1,1.8,1.7,2.8c-3.3-0.5-5.7-1.8-7.1-4.6c2.1-0.9,4.4-0.8,6.3-2.7
			c1.2-1.1,3.3-2,5-3.1c2-1.3,2.5-2.6,1.6-4.7c-0.4-0.9-0.6-1.9-1.2-2.8C491,484,492,480.8,495,477.8z"/>
		<path class="st24" d="M481.5,485.6c1.2-0.4,2.9-0.7,1.1-2.3c-1.4-1.3-0.8-2.4-0.2-3.6c2.4-4.7,5.5-6.5,11.9-6.7
			c0,1.7-2,2.1-2.4,3.6c-2,2.5-2.9,5.6-4.2,8.4c-1.3,2.7-3.1,5.7-4.9,8.3c-0.7,1.1-2.3,0.6-3.4-0.3c-1.5-1.2-2.6-2.7-2.4-4.8
			c0.1-1.6,1.4-1.8,2.7-1.9C480.4,486.2,481,485.8,481.5,485.6z"/>
		<path class="st25" d="M481.5,466.8c0-0.2,0-0.5,0-0.7c2-1,3.9-0.3,5,1.3c1.2,1.7-0.7,2.9-1.8,4c-3.9,3.8-8.4,6.6-13.7,8
			c-5.1-0.8-6-2.8-3.3-7.1c0.5-0.8,1.3-1.5,1.1-2.6c0.6-0.7,1.3-1.4,2-2.3c0.8,1.5,0.3,2.5-0.4,3.4c-0.5,1.4-1.3,2.9,0.2,4.1
			c1.2,1,2.6,0.5,3.9,0c2.8-1,4.8-3,6.8-5.1C482.1,468.9,482.1,467.9,481.5,466.8z"/>
		<path class="st26" d="M456.7,457.5c2.7-3.6,6.6-5.9,9.8-8.9c0.8,1.7-0.9,2.1-1.5,3.1c-1.6,2.6-3.6,5.1-2.1,8.4
			c-1.5,2.4-3.3,4.6-5.3,6.6c-0.6,0.3-1.1,0.4-1.6,0C454.6,463.4,455.7,460.5,456.7,457.5z"/>
		<path class="st27" d="M477,500.5c1.5,1.6,3,3.1,4.5,4.7c0.2,0.4,0.2,0.7-0.1,1c-1.5,1.3-3.1,1.4-4.9,1c-0.7-0.2-1.4-0.6-1.9-1.1
			c-0.8-2.2-3.3-2.8-4.5-4.6c1.2-0.9,2.4-1.7-0.1-2.5c-0.7-0.3-1.2-0.7-1.6-1.4c-0.5-0.8-0.7-1.7-1-2.6c-0.1-1.1-0.3-2.3,1-2.9
			C472.5,493.6,474.8,496.9,477,500.5z"/>
		<path class="st28" d="M456.7,466.7c0.3-0.2,0.5-0.5,0.8-0.7c1-0.3,1.8-0.1,2.4,0.8c-0.9,2.8-3.8,4.8-3,8.2
			c0.4,0.9,0.2,1.8,0.4,2.7c-0.2,1.2-0.8,2.1-1.5,3c-0.6,0.7-1.2,1.6-2.3,1.2c-3.6-2.4-1.5-5.9-1.6-8.9
			C452.5,470.1,454.1,468,456.7,466.7z"/>
		<path class="st29" d="M468.4,492.2c-0.8,0.9-0.3,2-0.4,3c0.4,0.6,0.3,1.2,0.3,1.8c0.2,3-0.7,3.8-3.6,2.8c-0.8-0.3-1.6-0.7-2.2-1.3
			c-0.9-1.3-0.8-2.8-0.8-4.3c0-1.4,0.6-2.6,0.7-3.9c0.5-4,0.6-4,4-1.8c0.5,0.6,1,1.2,1.5,1.9C468,491,469.6,491.3,468.4,492.2z"/>
		<path class="st30" d="M481.4,505.9c0-0.3,0-0.5,0.1-0.8c1.9,0.9,3.5,2.6,5.9,2.1c0.3,0.3,0.6,0.5,0.9,0.8c0,2.5-2.2,2.9-3.7,3.9
			c-1.5,1-3.2,1.8-5,2.3c-1.5,0.4-2.9,0.8-4.1-0.7c-0.2-1.8,2-3,1.2-5C477.6,506.5,480.2,507.3,481.4,505.9z"/>
		<path class="st31" d="M474.5,481.8c-1.2-1.9,0.3-2.1,1.5-2.7c1.2-0.6,2-0.6,2.2,0.7c0.4,2.3,3.3,3,3.1,5.6
			C478.3,485.6,476.2,484.1,474.5,481.8z"/>
		<path class="st32" d="M466.5,488.5c-1.3,1.1-1.6-1.4-3-0.7c0,1.9-0.1,4-0.8,6c-0.4,0.2-0.7,0.2-1-0.1c-0.9-1.4-0.7-2.9-0.3-4.3
			c0.7-3.1-0.1-5.6-2.6-7.6c-1.2-1-2.1-2.2-2.2-3.8c0.1-1,0.2-2,0.3-2.9C459.4,479.9,463.4,483.9,466.5,488.5z"/>
		<path class="st33" d="M468.4,492.2c-0.1-0.6-0.3-1.3-0.4-1.9c5,1.6,8,4.9,9,10.1C474.1,497.7,471.3,495,468.4,492.2z"/>
		<path class="st34" d="M486.1,489.4c1.7,0,3.1,0.1,4.4,0c0.9-0.1,1.8-0.3,2.1,0.8c0.3,0.9-0.1,1.7-0.7,2.4
			c-0.6,0.8-1.5,0.6-2.3,0.3C488.1,492.2,487.3,490.8,486.1,489.4z"/>
		<path class="st35" d="M464.9,480c-3.7,0-5.3-2-6.1-5.7C461.6,475.6,464.4,476.2,464.9,480z"/>
		<path class="st36" d="M459.9,466.8c-0.8-0.3-1.6-0.5-2.4-0.8c1.6-2.1,2.8-4.6,5.4-5.9C463.6,463.1,461,464.6,459.9,466.8z"/>
		<path class="st37" d="M484.7,453.5c-0.3,3.1-2,4.5-5.7,4.3c2.1-2.4,3.8-4.4,5.5-6.4C485,452.1,484.9,452.8,484.7,453.5z"/>
		<path class="st38" d="M482.7,495.9c1.8-0.9,3.4-1.7,4.9-2.4c0.8-0.4,1.5,0.1,1.9,0.7c0.4,0.7-0.3,1.2-0.9,1.3
			C486.8,496,485.1,498.7,482.7,495.9z"/>
		<path class="st39" d="M471.7,480.1c1.4,0.2,1.8,1.1,1.5,2.4c-2.3,0.4-4.8,1.7-6.5-1.3C468.5,480.8,470.1,480.5,471.7,480.1z"/>
		<path class="st40" d="M470.5,487.2c-4-0.5-5.3-2.9-6.6-6.1C467,482.5,468.8,484.4,470.5,487.2z"/>
		<path class="st41" d="M477.2,495.5c0.6-0.1,0.8-0.2,1-0.2c1.7,0.5,3.8,0.3,4.6,2.4c0.2,0.6,0,1.1-0.5,1.1
			C480,498.9,478.4,497.8,477.2,495.5z"/>
		<path class="st42" d="M487.5,457c-0.2,4.7-4.1,2-6.1,3C483.6,459.3,484.5,455.9,487.5,457z"/>
		<path class="st43" d="M484.7,453.5c-0.1-0.7-0.2-1.4-0.2-2.1c0.8-2.2,2.9-3.2,4.7-4.4c0,0,0,0.2,0,0.2c0.2,0.3,0.8,0.3,0.8,0.8
			c-0.6,0.4-1.2,0.8-1.7,1.2C486.1,450,485.3,451.7,484.7,453.5z"/>
		<path class="st44" d="M491.2,504.4c0.8-0.2,1.8,0.1,2.3-0.8c1-1,2-0.6,3.1-0.1c1.3,1.4-0.7,0.9-0.8,1.5
			C494.2,504.7,492.6,505.4,491.2,504.4z"/>
		<path class="st45" d="M430.6,569.5c0.1-10.8-0.4-21.6,0.2-32.4c0.1-3.2,0.7-3.6,3.2-2.1c1,0.5,2,1.1,2.1,2.4
			c-0.1,10.1-0.4,20.1,0.1,30.2c0.6,1.6,1.8,1.9,3.3,1.5c4.5-1.1,9-2.2,13.3-3.7c1.7-0.6,3-1.8,3.8-3.4c0.8-2,0.4-5.4,4.4-4
			c3.2,4.7,3.2,4.7,8.7,3c3-0.9,6-1.6,9-2.5c2.8-0.9,4.3-2.7,4.4-5.4c0.2-8.1,0.5-16.3-0.1-24.4c-0.4-5-1.4-5.4-6.3-4.2
			c-3,0.7-5.9,2.2-9.1,2c-1.6-1.3-1.5-3-1.4-4.8c9.2-2.9,18.6-5,27.9-7.7l0,0c8.6-2,16.8-5.3,25.3-7.4c7.3-1.6,14.4-4,21.6-5.7
			c0.8-0.2,1.6-0.6,2.2-1.3c0.2-0.3,0.3-0.6,0.5-1c1-6.6,6.4-9,11.4-11.6c1.2-0.6,2.6-0.7,3.8-1.4c0.5-0.3,1-0.6,1.5-0.9
			c4.1-1.8,8.4-2.6,12.9-2.4c1.4,0,2.7,0.4,4,1.1c2.5,1.8,4.4,4.1,4.9,7.3c0,1.6-0.1,3.2,0.4,4.7c0.2,6.1-3.8,8.4-9.2,10.7
			c-2.1,0.9-4,1.8-5.2,3.8c-0.7,7.3-0.2,14.7-0.3,22c0,1.1,0.1,2,1.6,2c5.3-1.2,5.3-1.2,5.3-6.5c0-1.9,0-3.7,0.1-5.6
			c0.2-2.8,1.8-4,4.4-4c2.6,0,2.8,2.1,2.8,4c0.1,1.7-0.1,3.5,0.1,5.2c0.1,1.2-0.6,3.2,1.6,3c1.9-0.2,4.5,0.1,4.5-3.2
			c0-3.6,0.5-7.3-0.1-10.9c-0.8-4.9,0.5-9.7,0.1-14.5c0-2.2,0-4.5-0.3-6.7c0.1-1.7,0.4-3.3,2.1-4.3c1.5-0.1,2.3,0.9,3.1,1.9
			c2.3,3.3,1.7,7.1,1.7,10.7c0,2.3,0.1,4.7-0.1,7c0,0.4-0.1,0.9-0.1,1.3c0.1,6.9,0.6,13.9-0.2,20.8c-1.5,2.8-4.7,2.3-7,3.3
			c-2.3,1-4.8,1.6-7.2,2.3c-2.2,0.7-4.5,1.3-6.8,1.7c-8.5,1.5-16.8,4-25,6.7c-3.8,1.2-7.6,2.5-11.5,3c-5.5,0.8-10.8,2.4-16,4.2
			c-0.5,0.3-1.1,0.5-1.7,0.5c-11.2,2.4-22.2,5.7-33.3,8.7c-4.3,1.2-8.8,2-13,3.5c-8.4,2-16.8,4.3-25,6.8c-2.2,1-4.5,1.4-6.7,2.2
			c-6.3,0.8-8.1,0-10.3-4.4C431,570.5,430.8,570,430.6,569.5z"/>
		<path class="st46" d="M431.2,571.1c2.6,3.4,6.1,4.6,10.3,3.6c1.7-0.6,3.1,0.4,4.5,0.9c2.6,0.9,5.2,2,8.1,1.8
			c1.5,0.3,2.7,1.2,3.8,2.2c3.2,2.9,7.1,4.4,11.1,6c1.9,1.3,4.5,1.5,5.7,3.9c1,0.6,2.1,1.2,3.1,1.8c-3.2,1.9-6.2,0.2-9.2-0.7
			c-6.8-2.2-12.2-7.1-19.1-9c-4-1.1-8.3-1.4-12.1-3.3C434.3,576.7,431.4,575.1,431.2,571.1z"/>
		<path class="st47" d="M506.2,510.1c0-1.4-1.2-2.1-1.9-3c-0.9-1-1.9-2-1-3.5c-0.6-1.3-2.1-1.3-3-2.1c0.3-1.1,1.1-1.7,2.2-1.8
			c1.8-1.1,2.7,0.5,3.8,1.3c3.7,2.5,6.8,1.8,8.8-2.3c0.9-1.8,1.4-3.7,2.5-5.4c0.5-0.8,0.4-1.8,0.8-2.7c0.6-8,1-15.9-1.6-23.6
			c-0.3-0.9-0.2-1.7-0.5-2.6c-1.1-2-2-4.2-3.2-6.1c-1.3-1.5-2-3.4-3.8-4.5c-0.9-0.5-0.8-1.4,0-2.1c3.4,0.5,4.9,3.4,7,5.6
			c1.2,1.4,2.1,3,3.2,4.5c0.4,0.9,0.9,1.8,0.9,2.8c-0.1,0.8,0,1.6,0.4,2.3c0.7,1.4,1.3,2.8,1.3,4.5c-1,2.1-0.1,4.1,0.4,6.1
			c0.5,2,1,4.1,0.9,6.2c-0.3,3.6,0.8,7.1,0.6,10.7c-0.1,3.7-0.2,7.4-1.1,11c-0.5,1.2-1.5,1.4-2.6,1.3
			C515.5,507.9,511.1,510.3,506.2,510.1z"/>
		<path class="st48" d="M518.2,493.7c-0.8,1.9-1.6,3.9-2.5,5.8c-2.2,4.6-6.4,5.4-10.3,2.2c-0.9-0.8-1.7-1.9-3-1.9
			c-0.6-1.5-1.7-2.7-1.4-4.5c1.5-2.1-1.4-4.2-0.1-6.3c4.5-4,6-4.2,11.1-1.4c1.3,0.7,2.6,1.3,4,1.8
			C517.6,490.4,518.3,491.8,518.2,493.7z"/>
		<path class="st49" d="M481.8,464.5c0.7-0.4,1.3-0.9,2-1.3c1.7-0.4,3.3-0.8,4.8-2.1c2.9-2.5,6.3-0.8,9.5,0.3
			c0.7,0.2,1.4,0.4,1.6,1.3c-1,0.5-2.2-0.4-3.3,0.7c2.4,2.3,4.3,5.1,6.1,7.9c-1.4,0.6-1.9-0.7-2.6-1.3
			C494.5,466,488.7,463.5,481.8,464.5z"/>
		<path class="st50" d="M519.6,466.7c-0.7-0.4-0.6-0.9-0.2-1.5c0.7-0.7,1.9-0.8,2.6-1.5c0.6-0.8,1.5-0.7,2.3-0.9
			c0-3.6-1.8-6.7-3-9.9c-0.4-1.1-1.7-1.9-0.8-3.3c1.4-0.5,2,0.6,2.6,1.5c2.9,4.2,4.7,8.9,5.2,14c0.6,3.3,1.1,6.6,0.3,10
			c-1.7,2.2-2.4,0-3.2-0.9C523.3,471.8,522,468.8,519.6,466.7z"/>
		<path class="st51" d="M509.2,463c2.4,1.5,4,3.6,4.8,6.1c-1,1-1.5-0.9-2.4,0c1.5,2.4,3.7,4.4,3.5,7.5c-3.5-4.2-7.3-8-13.1-11.2
			c2.9,0,4.8,0,7.1,0c-2.3-4.3-6.6-4.9-9.7-7c0,0,0,0.1,0,0.1c0.7-0.7,1.5-0.9,2.4-0.8c2.3,0,3.8,1.3,5.1,3
			C508.2,461,508.8,461.9,509.2,463z"/>
		<path class="st52" d="M498,496.2c-2.3-4-3.4-8-0.6-12.4c1.2-1.9-0.4-4.9,2.7-6.2c-2.4,0.6-2.5-0.4-1.9-2c1.2-1.8,3.6-1.6,5-3.1
			c1.6,0.4,2.7,2.5,4.8,1.7c-2.6,1.6-5.6,2.3-7.6,4.7c1.3,0.7,2.3-0.9,3.8-0.1C497.2,483,497.7,489.6,498,496.2z"/>
		<path class="st53" d="M520.6,437.2c0.7-0.5,1.3-0.9,2-1.4c1.2-0.4,2.2,0,2.3,1.1c0.2,4.1,3,6.3,5.6,8.8c0.1,1.2-0.7,1.8-1.7,2.2
			c-2.8,0.1-5.6,0-8.1-1.6c-1.3-2.4-0.5-5.1-0.7-7.6C520.1,438.2,520.3,437.7,520.6,437.2z"/>
		<path class="st54" d="M507,436c4.2-4.8,9.9-5.4,15.7-5.3c-1.4,5-5.7,7.2-9.8,9.5c1.1-1.9,3.5-2.9,4.1-5.2c0.2-0.7,0.8-1.4,0.3-2.1
			c-0.6-0.8-1.3-0.1-2,0C512.2,433.1,509.8,435,507,436z"/>
		<path class="st55" d="M530.4,445.8c-3.9-1.4-6.4-3.9-6.2-8.4c0-1.1-0.8-1.4-1.6-1.6c0.3-0.3,0.6-0.5,0.9-0.8
			c1.9,0.1,3.7,0,5.4,0.9c-0.7,1.7-0.2,3,1.1,4.2c1,1,2.2,1.9,2.8,3.3C532.7,445,532,445.9,530.4,445.8z"/>
		<path class="st56" d="M520.3,438.8c0.9,2.3,0.5,4.7,0.1,7c-0.4,0.5-1,0.7-1.6,0.8c-0.5,0.1-0.9,0.1-1.4,0
			c-1.4-1.3-2.9-2.6-4.3-3.8C515.9,442.1,517.7,439.6,520.3,438.8z"/>
		<path class="st57" d="M500.3,486.3c0.2-4,3.5-4.9,6.2-6.6c0.8-0.5,3.6,0.2,1.9-2.8c-0.6-1.1,2.4-1.3,3.8-0.6
			c1.2,0.6,1.7,2,2.2,3.3c-0.4,0.5-0.1,1.4-1,1.7c-4-2.2-6.8,0.5-9.7,2.5c-1,0.7-1.6,1.9-2.6,2.7
			C500.9,486.5,500.6,486.5,500.3,486.3z"/>
		<path class="st58" d="M518.9,462.3c-3-3.8-5.7-7.7-9.7-10.6c0.4-1.1,1-1.6,2.1-0.7c2.1,1.6,4.3,3.1,5.5,5.7
			C517.3,458.7,520,459.8,518.9,462.3z"/>
		<path class="st59" d="M516,463.7c2.9,6.1,3.2,12.7,3,19.3c-0.1,2.9-0.1,5.7-0.1,8.6c-1.1-0.1-1.2-0.7-0.7-1.5
			c0.4-8.6-0.1-17.1-2.3-25.5c-0.2-0.2-0.3-0.4-0.2-0.6C515.9,463.8,515.9,463.7,516,463.7z"/>
		<path class="st60" d="M518.3,490.1c0,0.6,0.2,1.2,0.7,1.5c0,0.8,0.2,1.6-0.7,2.1c-0.7-1.2-1.4-2.5-2.1-3.7
			c-1.7-2.7-3.2-5.5-2.4-8.9c0.1-0.6,0.1-1.2,0.8-1.5C516.2,482.9,516.3,486.8,518.3,490.1z"/>
		<path class="st61" d="M517.5,446.6c0.3-0.2,0.6-0.5,0.8-0.7c1,0.8,1.9,1.7,2.2,3.1c0,0.2,0,0.3,0,0.5c1.3,3.6,2.6,7.2,3.9,10.8
			c0.3,0.9,1.2,1.8-0.2,2.6C522.8,457.1,520.3,451.8,517.5,446.6z"/>
		<path class="st62" d="M518.9,462.3c0.3-2.2-2.2-3.4-2.1-5.6c2.6,1.6,2.6,5.2,5.2,6.9c0.2,0.2,1.6,0,0.4,0.8c-0.8,0.5-2,0.5-3,0.8
			C520,464.1,518.9,463.3,518.9,462.3z"/>
		<path class="st63" d="M496.5,503.4c-1,0-2,0.1-3.1,0.1c-1.5-0.3-2.6-1.2-3.6-2.9c1.5,0,2.7,0,3.9,0
			C494.6,501.6,495.6,502.5,496.5,503.4z"/>
		<path class="st64" d="M520.3,438.8c-2.4,1.4-3.8,4.5-7.2,4c2.5-1.8,5-3.7,7.4-5.5C520.5,437.7,520.4,438.2,520.3,438.8z"/>
		<path class="st65" d="M500.3,486.3c0.2,0,0.4,0,0.6,0c1,0.9,0.8,1.9,0.2,2.9c0.4,1.8,0.7,3.5,1.1,5.3c0.3,1.4-0.5,0.9-1.1,0.7
			C500.8,492.2,499.8,489.3,500.3,486.3z"/>
		<path class="st66" d="M516,463.7c0,0.3,0,0.5,0,0.8c-1.4-1.9-2.5-3.9-3-6.2C514.6,459.8,515.6,461.6,516,463.7z"/>
		<path class="st67" d="M500.2,501.5c1.1,0.6,3.3-0.5,3,2.1c-0.4-0.1-0.9-0.1-1.3-0.2C501.9,502.3,499.1,503.7,500.2,501.5z"/>
		<path class="st68" d="M568.5,457.6c4.6,4.3,8.3,9.3,11.4,14.7c0.9,2.4-0.7,3.6-2.4,4.7c-2.9,0.9-5.9,0.6-8.9,0.8
			c-3.7-2.6-5.8-6.4-8.1-10.2C562.2,463.4,564.2,459.6,568.5,457.6z"/>
		<path class="st69" d="M568.5,457.6c-3,2.9-5.3,6.3-7.6,9.8c-3.1-0.3-4.5-2.5-5.6-5.1c1.2-1.5,0.8-2.9-0.4-4.3
			c-1.8-2.2-4.1-3.6-6.2-5.3c-1.2-0.9-2.5-1.7-3.1-3.2c0.4-2.6,2.1-4.4,4.1-5.9C556.9,447.1,563.2,451.8,568.5,457.6z"/>
		<path class="st70" d="M536.4,437.7c3.5,1.1,7,2.3,10.3,4.2c-1.1,2.5-2.3,4.9-5.2,5.8c-3.3-0.7-6.4-1.8-8.4-4.8
			C533.2,440.6,534.7,439.1,536.4,437.7z"/>
		<path class="st71" d="M536.4,437.7c-0.2,2.2-2.2,3.3-3.1,5.1c0,0.7-0.2,1-0.9,0.7c-1.4-1.3-3-2.6-4.3-4c-1.2-1.4-1.7-2.8,0.8-3.6
			C531.5,436,533.9,437,536.4,437.7z"/>
		<path class="st72" d="M541.7,447.3c2-1.5,2.7-4.1,4.9-5.4c1.1,0.6,2.1,1.1,3.2,1.7c-0.7,2.3-2.8,3.8-3.9,5.9
			c-0.1,1-0.7,1.6-1.7,1.8c-1.8-0.4-2.8-1.4-3.2-3.2C541.1,447.7,541.4,447.4,541.7,447.3z"/>
		<path class="st73" d="M577.4,476.4c0.9-1.3,2.6-2.2,2.5-4.1c1,1.7,2,3.3,3,5c0.2,0.7,0.4,1.5,0.7,2.2c-0.3,2.1-1.8,1.4-3,1.3
			c-1.5-0.2-3.2-0.2-4.4-1.4C575.1,477.8,576.6,477.3,577.4,476.4z"/>
		<path class="st74" d="M434.1,505c0.6-4.1,1.1-8.2,2.4-12.1c1.7-4.1,4.7-7.3,7.3-10.8c0.6-0.8,1.4-1.5,2.5-1.3
			c2.2,2.2,3.5,5.1,5.1,7.8c0.1,2.7-0.9,5.1-2.2,7.4c-2.2,2.3-4.1,4.9-6.1,7.3c-0.6,0.8-1.3,1.3-2.2,1.6c-2.2,0.3-4.2,2-6.6,1
			C434,505.7,433.9,505.4,434.1,505z"/>
		<path class="st75" d="M446.2,480.9c-3.8,3.6-6.2,8.2-9.7,12c2.5-11.2,7.6-21.1,15.1-29.9c2.5,1.1,1.3,3.1,0.9,4.7
			c-0.8,2.8-2.6,5.3-2.7,8.4c0,0.4-0.1,0.7-0.2,1.1C448.7,478.6,448,480.2,446.2,480.9z"/>
		<path class="st76" d="M449.1,476.5c-0.6-2.4,0.6-4.4,1.5-6.5c0.9-2.2,2.6-4.3,1-6.9c0.7-1,1.4-2,2.1-3c1-0.8,1.9-1.7,2.9-2.5
			c0.9,3.1-1.3,6.1,0,9.2c-1.5,2-3,4-4.5,6C451.8,474.4,451.1,476,449.1,476.5z"/>
		<path class="st77" d="M434.1,505c0.1,0.2,0.2,0.5,0.2,0.7c1.5,2.1,0.8,4.4,0.9,6.7c0,0.8,0.1,1.6,0.1,2.3
			c-2.1,2.4-5.1,3.7-7.8,5.2c0-0.8-0.1-1.5-0.1-2.3c4.5-2,7.3-4.9,6.1-10.3C433.3,506.6,433.4,505.7,434.1,505z"/>
		<path class="st78" d="M546.9,567.3c2.7-0.1,5.5-0.6,8.1,0.7c-2.2,1.6-4.2,3.5-6,5.6c-0.3,0.1-0.7,0.2-1,0.3
			c-7.2,1-13.6,3.2-18.2,9.4c-2.5,3.3-5.7,5.8-9.9,6.9c-0.4,0.1-0.7,0-1.1,0c0,0.2,0.1,0,0.2,0c0.4,0,0.7,0.1,0.9,0.5
			c-2.5,1.1-5.2,0.2-7.7,0.7c-3-0.3-6,0-9-0.9c-0.2-0.8,0.4-1.2,1-1.3c9.8-1.5,16.8-7.6,23.5-14.1
			C534.3,572.9,540.6,569.9,546.9,567.3z"/>
		<path class="st79" d="M520,590.6c-1.1-0.1-2.1-0.2-3.9-0.4c6.6-1.2,10.9-4.3,14.2-9.3c2.7-4.1,7.8-5.1,12.1-7
			c1.8-0.8,3.8-2.1,6-0.6c0.5,1.8-0.8,2.8-1.7,3.9c-2.3,2.9-4.6,5.9-6.7,8.9C533.5,588.8,526.9,590.4,520,590.6z"/>
		<path class="st80" d="M539.9,586.2c0.4-3.9,3.9-5.9,5.6-9c0.8-1.4,1.8-2.6,2.8-3.9c0.2,0,0.4-0.1,0.6-0.1c1.6-0.5,3-0.3,4.1,1.2
			c-0.8,3.8-3.4,6.3-6.2,8.8C544.7,584.6,542.3,585.4,539.9,586.2z"/>
		<path class="st81" d="M546.8,583.1c1.9-2.8,3.9-5.6,5.8-8.5c0.8-1.4,1-3.3,3-3.9c1.9,1,3.5,2.3,4.7,4c-0.1,0.2-0.2,0.4-0.2,0.6
			C555.7,578,551.7,581.4,546.8,583.1z"/>
		<path class="st82" d="M427.6,520c1.7-2.8,4.7-3.8,7.5-5c0.8-2.5,3-2.4,5-2.7c0.6,0,1.4,0.2,1.8-0.1c4.8-3.2,10.2-1.3,15.3-1.6
			c2.3,1.9,4.1,4.2,6.2,6.3c0.7,1,0.9,2.1,0.2,3.2c0,0.5-0.1,1-0.1,1.5c0.2,0.2,0.3,0.4,0.2,0.6c0,0.2-0.1,0.3-0.1,0.3
			c-0.3,0.2-0.5,0.4-0.8,0.6c-2.3,1-4.8,1.6-4.9,4.8c-0.1,1.2,0.4,2.4-0.1,3.6c-1.5,2.6-4.1,3.4-6.9,3.7c-4.3,0.4-8.4,2.4-12.9,1.6
			c-4-0.7-6.9-3.1-9.2-6.3C425.8,527.2,425.8,523.7,427.6,520z"/>
		<path class="st83" d="M428.7,530.5c1.6,0.3,2.4,1.7,3.4,2.8c1.7,1.8,3.8,2.7,6.3,2.5c-0.6,1.5-1.5,1.5-2.7,0.8
			c-1.3-0.6-2.6-1.2-4-1.8c-0.2,0.7-0.5,1.5-0.8,2.3C429.3,535.1,429.3,532.7,428.7,530.5z"/>
		<path class="st84" d="M528,575.7c-6.5,7.1-13.7,13.2-23.8,14.2c-0.3,0-0.6,0.4-0.9,0.6c-4.1,0-8.1-1.2-12.1-2.1
			c-0.3-0.4-0.3-0.7,0.1-1.1c3-1.3,6.4-0.5,9.4-1.8c6.4-1.4,12.3-3.9,17.7-7.6c1.2-0.9,2.5-1.7,3.9-2.2
			C524.2,575.5,526.1,574.2,528,575.7z"/>
		<path class="st85" d="M491.5,587.6c-0.1,0.2-0.1,0.5-0.2,0.7c-4.6,0-9.1-0.1-13.7-0.1c-1.1,0-2.3-0.3-2.8,1.1
			c-2.3-0.7-4.3-2-6.3-3.4c0.7-0.7,1.5-0.9,2.4-0.8c6.5,1.2,13,0.9,19.5,1.5C490.9,586.9,491.2,587.2,491.5,587.6z"/>
		<path class="st86" d="M560.3,574.8c-2-0.6-3.4-2-4.5-3.7c-0.7-1.4,0.7-1.6,1.4-2.2c2.9-0.3,5.5,1.1,8.3,1.5
			C564,572.1,562.3,573.6,560.3,574.8z"/>
		<path class="st87" d="M592.3,492.2c-0.7-0.5-1.4-1-2-1.5c-1.2,0.5-2.3,0.2-3.3-0.7c-0.8-2-2-3.8-1.1-6.1c2.5,0,4.6,1.8,7.2,1.5
			c0.5,1.2,1.1,2.5,1.6,3.7c1.2,1.1,1.6,2.5,1.9,4c2.6,11.2,3.1,22.4,1.3,33.8c-0.3,1.9-0.2,4.1-2.2,5.3c-0.5,0.1-0.9-0.1-1.2-0.4
			c-0.3-5.4-0.1-10.7-0.1-16.1c0-1.6-0.3-3.2-0.4-4.8l0,0c0.9-5,0.3-10,0.3-15.1C594.3,494.6,593.6,493.1,592.3,492.2z"/>
		<path class="st88" d="M585.9,484c0.4,2,1.7,3.8,1.4,6c-1.6,1.2-3.3,1.7-5.3,0.9c-1-2.6-2.5-4.8-4.5-6.6c-0.9-2.4,0.8-2.5,2.3-2.5
			c1.9,0,3.7,0.5,5.4,1.3C585.4,483.4,585.7,483.7,585.9,484z"/>
		<path class="st89" d="M585.2,483.1c-1.7,0.8-3.2,0.1-4.8-0.3c-1.5-0.4-2.7-0.5-2.9,1.5c-1.2-0.4-2.4-0.8-3.6-1.1
			c-0.4-0.2-0.9-0.3-1.1-0.8c-0.1-1.1,0.7-1.8,1.1-2.6c0.5-0.6,1-1.3,2-1.1c2.5,0.7,5,1.9,7.7,0.7
			C584.5,480.5,584.9,481.7,585.2,483.1z"/>
		<path class="st90" d="M490.5,587.4c-7.4,0.5-14.7-0.4-22-1.4c-4.1-1.1-7.9-2.9-11-5.9c-0.8-2.6,1.4-2.4,2.8-3.1
			c2.1-0.3,3.9,0.6,5.8,1.1c3.9,1.1,7.9,0.8,11.9,0.9c1.5,0,3.3-0.4,4.3,1.4c-1.1,1.5-2.8,0.9-4.1,1.4c9.9-1.7,19.1-4.9,27-11.3
			c6.3-5,13.2-9,20.9-11.4c0.7-0.2,1.4-0.5,2.2-0.6c1-0.2,2.2-0.5,2.6,0.7c0.3,0.9-0.7,1.5-1.4,2c-5.2,3.7-10.5,7.2-14.1,10.9
			c4.5-4.2,10.7-8,17.3-11.4c4.2-2.1,8.8-2.7,13.4-3.4c1.1-0.1,2.5-0.2,2.8,1.1c0.3,1.4-1.1,1.8-2.2,2.1c-6.4,1.3-12.4,3.7-17.2,7
			c4.5-3,10.3-4.5,16.4-5.4c3.8-0.5,7.5,0,11.1,0.9c6.6,1.5,13.1,3.1,19.9,3.6c4.3,0.3,8.5-0.2,12.5-1.7c3.7-1.4,5.8-4.2,5.8-8.3
			c-0.5-4-3.5-5.8-6.7-7.5c-2-1-4.2-1.6-6.3-2.5c-0.3-0.2-0.5-0.5-0.5-0.9c0.2-1.1,0.9-2,1.7-2.7c0.3-0.1,0.7-0.2,1.1-0.2
			c2.5,0.6,4.9,1.5,7.2,2.7c5.8,2.9,9.1,7.3,8.3,14c-1.6,4.1-3.1,8.3-8.2,9.2c-2,0.4-3.7,1.6-5.8,1.5c-10,0.4-19.8-0.6-29.4-3.5
			c-8.2-2.5-16.2-0.3-23.9,3.1c-1.8,0.8-3.6,1.8-5.3,2.7c-0.8,2.6-3.6,2.4-5.3,3.9c-6.3,4.5-12.9,8.5-20.8,9.6
			C497.8,587.1,494.1,586.9,490.5,587.4z"/>
		<path class="st91" d="M591.8,568.8c3.5-2.2,6.1-5.1,7.5-9c2.4-4,1.7-7.7-0.7-11.5c-1.9-3-5.5-5-5.5-9.1c0.4-2.5,0.9-5,2.4-7.1
			c2.8-9,2.6-18.1,2-27.4c-0.4-5.2-1.8-10.3-2.8-15.4c3.8,0.7,5.3,2.9,6,8.6c1.2,9.5,1.2,19.1-0.1,28.6c-0.3,2.3-1.5,4.4-2.4,6.6
			c-1.6,3.8-0.7,7.2,1.4,10.5c0.9,1.3,1.6,2.8,2.5,4.1c5.9,8.1,0.5,18-6.6,21C594.3,569.3,593.1,569.7,591.8,568.8z"/>
		<path class="st92" d="M522,576.4c1-2.3,3.6-2.4,5.3-3.9c1.5,1.4,2.5-0.3,3.5-0.8c5.1-2.5,10.3-4.4,16.1-4.5
			c-5.6,4.3-12.3,6.3-18.9,8.4C526,575.9,524,576.2,522,576.4z"/>
		<path class="st93" d="M557.1,568.9c-0.5,0.7-0.9,1.5-1.4,2.2c-1.3,0.9-1.6,2.8-3.2,3.6c-1.2-0.5-2.5-1-3.7-1.5
			c1.4-2.5,2.8-5,6.1-5.2C555.7,568.3,556.4,568.6,557.1,568.9z"/>
		<path class="st94" d="M490,448.2c-0.3-0.3-0.5-0.6-0.8-0.8c4.1-1.6,8.6-2.7,8.9-8.3c0.7-0.2,1,0,0.7,0.7
			C498.4,445.1,496.9,446.5,490,448.2z"/>
		<path class="st95" d="M509.2,463c-1.1-0.4-1.8-1.2-2.2-2.3c0.2-0.7-0.3-1.7,0.7-1.9c1-0.2,1.5,0.7,2.1,1.3
			C511,461.3,509.7,462.1,509.2,463z"/>
		<path class="st96" d="M498.8,439.8c-0.2-0.2-0.5-0.5-0.7-0.7c1.2-2.9,4-2.8,7-4C503.1,437.7,499.8,437.2,498.8,439.8z"/>
		<path class="st97" d="M481,448.6c-1-0.2-1.6-0.7-1.6-1.5c0-1.4,1.2-1.4,2.1-1.4c0.6,0,1.4,0.1,1.3,0.9
			C482.7,447.7,481.9,448.2,481,448.6z"/>
		<path class="st98" d="M499.9,433.5c1.1-1.1,2.2-1.5,3.6-0.8c0.5,0.3,0.3,0.9-0.1,1.2C502.2,434.8,501,434.7,499.9,433.5z"/>
		<path class="st99" d="M475.6,451.2c-1.8-0.1-3.3-0.2-5.8-0.3C472.4,449.1,474,448.3,475.6,451.2z"/>
		<path class="st100" d="M492.4,441c0.3-1.6,1.3-2,2.7-1.7c0.2,0.1,0.6,0.7,0.5,0.8C494.8,441.2,493.7,441.6,492.4,441z"/>
		<path class="st6" d="M501.9,457.7c-0.6,0.8-1.5,0.9-2.4,0.8c0-0.9-0.4-2.2,0.6-2.6C501.2,455.5,501.6,456.7,501.9,457.7z"/>
		<path class="st101" d="M481.5,466.8c2,0.4,3.2,1.1,1.2,3c-2.4,2.4-4.7,4.8-7.9,6c-1.9,0.7-4,1.5-5.5-0.4c-1.3-1.6,0-3.2,1-4.7
			c-0.1,2.6,1.1,3.3,3.4,2.4C477,471.9,479.6,469.8,481.5,466.8z"/>
		<path class="st102" d="M463.6,520.1c0-1-0.2-2-0.8-2.8c-0.7-1.6-2.1-2.6-3.3-3.9c-0.7-0.9-2.1-1.6-1-3c1.5-1.3,3.4-1.7,5.2-1.7
			c4.1-0.1,8.1-0.5,12.2-0.2c1.1,1.8-0.7,1.8-1.5,2.4c-2,0.6-4.1,0.9-6.6,1.4c2.5,1.7,4.8,0,6.9,0.5c0.3,0.1,0.6,0.3,0.9,0.6
			c1.2,0.9,2.5,0.8,3.8,0.1c0.6,0.7,0.6,1.4,0,2.1c-4.2,1.2-8.4,2.8-12.8,3C465.1,518.6,464.5,519.5,463.6,520.1z"/>
		<path class="st103" d="M479.2,515.5c0-0.7,0-1.4,0-2.1c3.3-1.2,6.5-2.6,9-5.3c1.3,0,2.7-0.4,4.3,0.4
			C488.4,511.7,484.3,514.4,479.2,515.5z"/>
		<path class="st104" d="M463.3,522.2c0-0.2,0.1-0.5,0.1-0.7c9.1-2.3,18.1-4.6,27.2-6.9c1.2-0.3,2.4-0.4,3.6-0.6
			c-7.5,3.1-15.6,4.3-23.3,6.8c-1.5,0.5-3.2,0.4-4.5,1.5C465.4,523.2,464.4,523.2,463.3,522.2z"/>
		<path class="st104" d="M506.2,510.1c4.5-1.2,9-2.3,13.6-3.5c0.2,0.2,0.3,0.3,0.2,0.5c-0.1,0.2-0.2,0.2-0.2,0.2
			c-8.4,2.7-16.8,5.2-25.6,6.7C498,511.9,502.3,511.8,506.2,510.1z"/>
		<path class="st105" d="M476.3,508.8c-5.9,1.6-12.3-0.4-18,2.3c-0.3,0.4-0.6,0.4-0.8,0c-5.8,0.5-11.7,0-17.3,2.1
			c1-3.6,4.6-3,6.9-4.5c4.5-1.5,9.3-1.4,13.7-2.9c0.6-1.4,0.1-2.9,0.3-4.3c0.2-1.3,0.2-2.7,1.7-3.2c0.2,0,0.5,0.1,0.7,0.1
			c4.4,1.4,4.4,1.4,4.5-3.1c0.7,0.6,0.6,1.5,0.8,2.3c1.6,2.7-0.4,4.9-1.1,7.3c0,1.8,1.4,1.3,2.4,1.5c2,0.2,4.1-0.4,6.1,0.2
			c1.7-0.2,3.5-0.4,5.2-0.6c-0.9,1.9-3.2,1.6-4.5,2.8C476.7,509,476.5,509,476.3,508.8z"/>
		<path class="st106" d="M466.5,505c1.2-2.3,2.3-4.7,2.3-7.4c0.6,0.3,1.1,0.5,1.7,0.8c0.6,1,0.6,1.9-0.1,2.8
			c1.9,1.1,4.4,1.7,4.4,4.6C471.8,506.9,469.1,507.1,466.5,505z"/>
		<path class="st107" d="M466.5,505c2.7,0.7,5.4,1,8.2,0.8c0.6,0,1.2,0.1,1.5,0.7c-2.6,1-5.4,1-8.1,0.6
			C467.4,506.9,465.2,507.1,466.5,505z"/>
		<path class="st108" d="M470.4,501.1c0-0.9,0.1-1.9,0.1-2.8c0.1,0,0.2,0,0.4,0c1.2,0.4,3.1,0.7,2.7,2.2
			C473.2,501.9,471.5,501.2,470.4,501.1z"/>
		<path class="st109" d="M453.9,481.9c0.5-0.6,0.9-1.1,1.4-1.7c2.2,1.7,2.8,4.4,3.6,6.8c1.2,3.4,2.3,6.8,3.5,10.3
			c-1.3,3-0.3,6.2-0.9,9.2c-4.7,0.7-9.5,1.3-14.2,2.5c-0.8-0.5-1-1.3-1.1-2.2c-0.1-0.8,0-1.6,0.2-2.4c0.1-0.4,0.3-0.7,0.6-1
			c1.7-0.6,3.4-0.1,5.2-0.6c3.9-1.1,4.9-2.6,4.2-6.5c-0.6-3.4-2.1-6.4-4.3-9c-0.2-0.5-0.3-1.1-0.2-1.6
			C452.1,484.2,452.3,482.7,453.9,481.9z"/>
		<path class="st110" d="M461.9,496.7c-1.8-1-1.7-2.9-2.2-4.4c-1.5-4-3-8-4.4-12.1c0.1-1,0.7-1.7,1.3-2.3c1.4,1.2,2.4,2.8,3.9,4
			c2,1.7,2.8,4.2,2.1,6.7c-0.5,1.7-0.5,3.4-0.5,5.2C462.5,494.8,462.6,495.8,461.9,496.7z"/>
		<path class="st111" d="M453.9,481.9c-0.3,1.3-0.8,2.5-1.6,3.5c-3.3-1.9-3.4-5-3.1-8.3c0-0.2,0-0.5,0-0.7c1.2-1.1,1.6-2.9,3.1-3.8
			c0.9,0.6,0.8,1.4,0.4,2.3C451.8,477.5,452.1,479.9,453.9,481.9z"/>
		<path class="st112" d="M461.9,496.7c0-1,0.1-2,0.1-3c0.2,0,0.5,0,0.7,0c0,1.5,0,3,0.1,4.5c-1.5,2.6-0.4,5.5-0.7,8.3
			c-0.4,0.4-0.7,0.3-0.9-0.1C461.5,503.2,460.8,499.9,461.9,496.7z"/>
		<path class="st113" d="M476.3,508.8c0.2,0,0.5,0,0.7,0c2,2.3,0.4,3.4-1.5,4.5c-0.3,0-0.5,0-0.8,0c-0.9-0.8-1-1.9-0.8-3
			C474.7,509.7,475.5,509.2,476.3,508.8z"/>
		<path class="st114" d="M467.3,525.9c4-1,7.9-2.1,11.9-3c3.4-0.8,4.8,0.2,4.9,3.5c0.1,9,0.1,18,0.1,26.9c0,3.3-1.9,5.3-5,6.2
			c-3.8,1.1-7.7,2.1-11.5,3.1c-4.6,1.2-5.6,0.5-6.3-4.4c-1.2-1.3-1.2-3-1.2-4.6c0-6.2-0.1-12.4,0.1-18.7c0-3,0.4-5.9,2.9-7.9
			C464.2,526.1,465.5,525,467.3,525.9z"/>
		<path class="st74" d="M537.1,540.2c-0.9,3.1-3,4.6-6.1,5.3c-3.9,0.9-7.7,2.1-11.5,3c-3.7,0.9-5.1-0.2-5.1-4
			c-0.1-8.7,0-17.4-0.1-26.1c0-3.4,1.6-5.4,4.7-6.3c4.3-1.2,8.7-2.2,13-3.5c2.5-0.7,4.1,0,5.1,2.4c0.3,0.9,0.7,1.9,0.8,2.9
			c0.2,2.3,0.8,5.2-1.8,6.4c-2.6,1.2-5.6,3.2-8.7,0.8c-2-1.5-3.2-0.4-3.4,1.5c-0.5,4.3-0.3,8.7-0.1,13.1c0,0.8,0.4,1.5,1.4,1.4
			c0.6,0,1.2-0.3,1.6-0.9c0.5-0.7,0.3-1.5-0.4-2c-1.7-1.1-2.5-2.6-2.6-4.6c-0.2-4.7,0.6-5.9,5.2-7c0.8-0.2,1.7-0.4,2.5-0.7
			c5.8-1.5,6.3-1.1,6.4,5.1C538.1,531.4,538.1,535.8,537.1,540.2z"/>
		<path class="st115" d="M501.7,523c0.1-0.4,0.1-0.7,0.2-1.1c0.2-4.9,2.4-7,7.2-7.1c1.7,0,1.4,1,1.4,1.9c0,10,0.1,19.9,0,29.9
			c0,2.8-1.6,4.8-4.2,5.6c-4.5,1.4-9.1,2.6-13.7,3.7c-2.9,0.7-4.7-0.5-4.7-3.6c-0.1-9.8,0-19.7-0.1-29.5c0-1.6,0.4-2.6,2.1-2.8
			c1.5-0.2,2.9-0.7,4.3-1.2c2.2-0.8,2.1,0.7,2.3,2.1c1.8,6.4,0.7,12.8,1,19.3c0.1,1.4-0.6,3.7,1.2,3.7c2.2,0.1,1.6-2.4,1.7-3.9
			c0.1-4.1,0-8.2,0.1-12.3C500.7,526,500.6,524.3,501.7,523z"/>
		<path class="st74" d="M563.2,514c0.1,7,0.1,14,0.2,21c0,1.3-0.3,2.1-1.7,2.3c-2.2,0.3-4.2,1.7-6.5,1.2c-0.3-0.1-0.3-1.4-0.3-2.1
			c0-3.6,0-7.2,0-10.9c-5.5,0.6-5.5,0.6-5.5,5.7c0,0.9,0,1.7,0,2.6c0,7.9-0.2,8.1-8.7,8.6c-1.6-11-1.9-22-0.1-33c0.8-1,1-2.5,2.3-3
			c3,1.9,7,1.9,9.2,5.2c-0.7,1.3-2.7,2-1.9,4c0.3,0.7,0.9,0.8,1.5,0.6c2-0.4,2.2-2.1,2.5-3.6c0.1-0.5,0.4-0.9,0.8-1.2
			C558.2,511.1,560.8,512.3,563.2,514z"/>
		<path class="st116" d="M461.3,534.2c0.3,8,0.3,16,0,24c-4.1-0.9-2.3,3.1-3.7,4.5c-1.7-1.6-1-3.8-1-5.7c0-2.2-0.8-2.6-2.7-1.9
			c-1.7,0.6-3,1.2-4,3c-1.2,2.4-3.5,3.4-6.2,2.1c-1.2-5.9-0.7-11.8-0.4-17.8c0.1-2.7,3.5-4.2,6-3.1c5.7,2.5,7,1.6,7.2-4.9
			c0-0.8,0.2-1.6,0.6-2.3C459.2,531.4,459.9,533.6,461.3,534.2z"/>
		<path class="st117" d="M589.5,501.2c0,3.3,1,6.7-0.8,9.9c-0.8,1.5,1.2,2.2,1.1,3.7c-0.2,2.5,0,5,0,7.5c0,8.2,0,8.2-8.6,9.5
			c0-3.5,0.1-7-0.1-10.5c0-1,1-3-1.1-2.7c-1.6,0.2-4.4-0.3-4.2,2.9c0.1,2,0,4,0,6c0,6.5,0,6.5-6.4,7.6c-1.6,0.7-2-0.2-2-1.6
			c0-6.5,0-12.9,0-19.4c0-1.3,0.6-2.1,1.8-2.5c1.6-0.5,3.1-1,4.6-1.5c0.6-0.2,1.1-0.3,1.7-0.3c1.8-0.3,3.7-0.3,5.1-1.8
			C582.6,504.4,585.8,502.5,589.5,501.2z"/>
		<path class="st118" d="M540.7,509.5c0,11,0,22,0.1,33c-0.7-0.5-0.6-1.2-0.8-2c-0.2-1.1,0.7-2.8-1.1-3c-1.7-0.2-0.7,2.1-1.8,2.7
			c0-6.1,0-12.2,0-18.9c-3.9,1-7.6,1.6-10.9,3c-3,1.3-0.8,4.4-1.3,6.7c-0.4,2,0.9,1.9,2.3,1.6c0.7-0.2,1.2,0.3,1.2,1
			c0,1.3,0.6,3.1-0.5,3.9c-1.1,0.8-2.9,1.4-4.2,1.1c-1.7-0.4-0.7-2.3-0.8-3.6c-0.1-4.1,0-8.2-0.1-12.3c0-1.8-0.1-3.3,2.4-3.8
			c1.9-0.3,3.4-1,3.2,1.9c0,0.5,0.6,0.6,1.2,0.5c0.4-0.1,0.7-0.2,1.1-0.3c6.3-1.4,6.2-1.4,6.3-7.8c0-0.7,0.1-1.5,0.1-2.2
			C540.2,515,539.7,510.6,540.7,509.5z"/>
		<path class="st119" d="M444.2,560.4c2.2-1,4.9-0.8,5.5-4.7c0.2-1.6,4.7-1.9,7.4-2.2c0.8-0.1,0.6,1.2,0.6,1.8
			c0,2.5-0.1,4.9-0.1,7.4c-1.3,2.2-3.3,3.5-5.9,4.1c-3.8,0.9-7.6,2-11.5,3c-1.7,0.5-3.4,0.8-4.5-1.2c-0.8-8.8-0.2-17.7-0.3-26.6
			c2.1-1.7,4.7-0.8,7.1-1.2c1.4-0.2,1.1,1.4,1.1,2.3c0,4.7,0,9.4,0,14.1C443.7,558.4,443.1,559.6,444.2,560.4z"/>
		<path class="st120" d="M537.1,548.5c3.7-1,7.5-1.9,11.2-2.9c2.5-0.7,5.1-1.3,7.7-1.7c4.3-0.7,8.6-1.4,12.9-1.1
			c1.6,0.1,3.3-0.2,4.3,1.5c-0.6,1.2-1.8,1.2-2.9,1.3c-5.9-1-10.9,2.1-16.2,3.5c-7.2,2-14.5,3.6-21.6,5.7c-2,0.6-4.1,0.9-6.2,0
			c-1.1-0.8-0.5-1.4,0.2-2c1-0.9,2.3-1.3,3.5-2C532.3,550.2,534.6,549.3,537.1,548.5z"/>
		<path class="st121" d="M501.7,523c0.1,6.5,0.2,13,0.2,19.4c0,2.5-0.1,2.5-5.3,3.6c0-8.5,0-16.9,0-25.3
			C497.4,523.6,499.7,523,501.7,523z"/>
		<path class="st122" d="M435.8,541.8c0,9,0,17.9,0,26.9c-0.6-0.4-0.7-1-0.7-1.6c0-9.5,0-18.9,0-28.4c0-0.7,0.3-1.4,0.5-2.2
			c0.9-0.2,2,0.1,2.7-0.8c2.1,0.3,4.1,0.7,6.2-1c1.3-1,3.5,0.8,5.5-0.1c2.5-1.1,5.3-1.7,7.5-3.6c0.3,0.3,0.3,0.6,0.3,0.9
			c-0.1,0.7-0.2,1.5-0.3,2.2c-0.9,2.1-2.8,3.2-4.9,3.7c-4.3,0.9-8.5,2.7-13.1,2.5C438,540.4,436.8,540.6,435.8,541.8z"/>
		<path class="st123" d="M552,511.6c-2.7-2.3-7-1.6-9-5.1c0.5-0.4,1.2-1.2,1.4-1.1c4.7,2.3,11.1-2.3,14.8,3.7c0.3,0.5,1,0.9,1.6,0.9
			c3.2-0.1,2.7,2,2.4,4c-2.9-0.1-5.4-1.8-8.2-2.3C554,511.9,552.9,512.8,552,511.6z"/>
		<path class="st124" d="M595.5,532c0.3,2.6-1.6,4.8-1.6,7.4c-0.8,2.1,0.3,5.1-2.8,6.3c-2-1-4-1.7-6.1-2.3c-1-3.3,1.2-5.7,2.2-8.5
			c2-1.4,4.6-1.1,6.7-2.2c0.5,0,0.5-0.7,0.9-0.8C595.1,532,595.3,532,595.5,532z"/>
		<path class="st125" d="M559.5,486.3c-2.9,1.9-6.4,2.3-9.4,4.7c-2.8,2.3-5,4.4-5.6,8c-1.5-1.2-0.9-3.2-1.7-4.7
			c-0.4-1.8-2.2-3.2-1.4-5.3c5.1-1.5,10-3.6,14.7-6.1C558.2,483.2,558.9,484.7,559.5,486.3z"/>
		<path class="st126" d="M457.7,532.1c-0.1-0.3-0.2-0.6-0.3-0.9c-0.7-1.1-0.8-2.3-0.8-3.6c1-3,3.8-3.9,6.1-5.3c0.2,0,0.3,0,0.5,0
			c1.1,0,2.1,0,3.2,0c1,1,1.4,2.2,0.8,3.6c-4.4,1.1-6.1,4.1-6,8.4C459.4,534.6,458.3,533.8,457.7,532.1z"/>
		<path class="st127" d="M576.1,510.9c-0.3-0.2-0.7-0.4-1-0.5c-0.6-0.8-0.8-2.4-2.6-1.2c-1.5,1-3.4,1.9-4.8-0.4
			c1.9-3.9,6.4-3.6,9.5-5.6c3.4-2.2,4.4-4.6,4.7-8.1c1.1-1.2,2.3-1.5,3.9-1c2.3,1.8,1.6,3.9,0.3,5.9c-1.2,1.9-2.8,3.4-4.7,4.7
			C577.8,505.2,576.8,507.9,576.1,510.9z"/>
		<path class="st128" d="M473.2,565.7c8.1-3,16.7-4.6,25-7.1c6.4-1.9,12.9-3.5,19.4-5.3c0.9-0.2,1.7-0.5,2.4,0.3
			c-0.7,2.8-2.7,3.7-5.3,3.7c-1.6-0.5-3.2-0.2-4.8,0.2c-9.7,2.6-19.5,5.2-29.2,7.9c-1.3,0.4-2.6,0.9-3.5,2
			C475.2,568,474.1,567.1,473.2,565.7z"/>
		<path class="st129" d="M514.5,556.7c2.5,0.2,3.7-1.9,5.4-3.1c0.2-0.2,0.4-0.4,0.6-0.7c2.1-0.1,4-1.1,6-1.5c1.3-0.3,2.5-1.1,3.8,0
			c-1.5,1-3.1,2-4.6,3c-2.6,3-6.4,4.2-9.5,6.5c-2.1,0.8-3.7,2.9-6.3,2.8c-1.2-0.4-2-1-1.8-2.4C509.8,559.2,511.8,557.6,514.5,556.7z
			"/>
		<path class="st130" d="M567.7,508.8c2.9,1.8,4.8-1.1,7.2-1.7c0.6,1.1,0.3,2.2,0.3,3.3c-1.1,0.6-2.2,1.8-3.2,1.8
			c-4.6-0.1-4.3,2.8-4.2,5.9c0.1,4.6,0,9.2,0,13.8c0,1.3-0.4,2.9,1.6,3.2c-1,0.5-2.3,1.5-2.2-0.7
			C567.4,525.9,566.3,517.3,567.7,508.8z"/>
		<path class="st131" d="M581.2,504.3c1.1-1.3,2.3-2.5,3.4-3.8c1.6-1.8,2.6-3.6,1.1-6c1-0.9,2-0.9,2.9,0.1c1.5,2,1.1,4.3,0.9,6.6
			c-2.2,1.5-3.9,3.7-6.5,4.5c-1.5,0.5-0.6,2.3-1.7,3C579.9,507.3,580.1,505.8,581.2,504.3z"/>
		<path class="st132" d="M543.7,493.7c1.2,1.6,0.7,3.5,0.9,5.2c0,0.3-0.1,0.6-0.1,0.9c-2.3,1.8-5.1,2.2-7.9,2.5
			c-1.5-1.1-0.5-2.2,0.2-3.1c1.7-2.4,3.3-4.7,1.6-7.7c-0.3-0.5,0.3-0.9,0.8-1C541.5,490.5,541.8,493.2,543.7,493.7z"/>
		<path class="st133" d="M454.3,577.8c-4,1.5-7-1.3-10.4-2.2c-0.8-0.2-1.6-0.7-2.3-1c2-0.7,4-1.4,6.1-2.1c1.3-0.7,2.6-0.6,3.9,0.1
			C452.5,574.4,455,575.2,454.3,577.8z"/>
		<path class="st134" d="M587.2,535c0.6,3-1.7,5.3-2.1,8.1c-0.3,0.5-0.6,0.6-1,0.2c-0.2,0-0.4,0-0.6,0.1c-0.3,0.2-0.6,0.2-1,0
			c-4.6-2-4.6-2-2.1-6.2C582.6,536.5,584.9,535.7,587.2,535z"/>
		<path class="st135" d="M451.4,573.6c-1-1.5-2.5-1-3.8-1c8.4-2.8,16.9-5.3,25.6-6.9c1.5-0.1,2.3,1.8,3.9,1.4
			c2.1-0.6,3.5,0.3,4.6,2.1c-0.2,1-0.9,1.6-1.7,2.1c-0.8,0.1-1.4-0.1-2.1-0.5c-3.5-3.2-7.4-3-11.7-1.6c-2.8,1-5.7,1.4-8.5,2.4
			c-0.5,0.2-1,0.3-1.5,0.4C454.5,572.2,452.9,572.9,451.4,573.6z"/>
		<path class="st136" d="M548.4,498.9c-0.4-3.1,1.8-4.3,4.1-5c2.8-0.8,4.2,1.5,5.5,3.5C555.4,502,551.7,499.4,548.4,498.9z"/>
		<path class="st137" d="M588.7,494.7c-1-0.2-1.9-0.6-2.9-0.1c-1.3,0.2-2.6,0.4-3.8,0.6c-0.9-1.4-0.9-2.8,0.1-4.2
			c1.7-0.8,3.4-1,5.3-0.9c1.1-0.1,2,0.2,3,0.7C589.7,492,589.2,493.4,588.7,494.7z"/>
		<path class="st138" d="M580.4,537.2c0.1,0.3,0.5,0.7,0.4,0.8c-1.6,2.2-2,3.9,1.6,4.2c0.2,0,0.3,0.6,0.4,1
			c-3.6,1.5-6.9-0.7-10.4-0.9c-3-2.7-0.1-2.8,1.6-3.5C576.1,538.2,578.2,537.7,580.4,537.2z"/>
		<path class="st139" d="M574.9,493.8c-0.7-1.5-1.2-3-2-4.2c-0.7-1.1-1.7-2-2.8-3.3c3.5-0.7,5.9,0.3,7.5,3.1
			C578.2,490.6,578.2,490.6,574.9,493.8z"/>
		<path class="st140" d="M548.4,498.9c1.9,0.6,4.3-2,6,0.9c0.2,0.3,1.7-2.5,3.5-2.4c0.5,2-3.2,3.1-0.7,5.7c-2.5-1.4-4.2-2-6.7-1
			C547,503.6,548.7,500.3,548.4,498.9z"/>
		<path class="st141" d="M573.9,538.7c-0.5,1-3.5,0.6-1.6,2.9c-5.5,0.9-11.1,1.7-16.5,3c-2.5,0.3-5,0.7-7.5,1
			c6.7-2.9,13.9-4,20.9-6.1C570.7,539.1,572.2,538.4,573.9,538.7z"/>
		<path class="st142" d="M566.3,495.3c-0.7,2-4.2,1.2-4.1,4.3c-2.1-3.1-3.3-6.8-7.4-7.5c0.4-1,1.1-1.1,1.8-1.3c1.3,0.5,2.7,0,4,0.5
			c0.8,0.3,2.3,0.5,2.2,1.1C562.4,495.5,565.4,494.1,566.3,495.3z"/>
		<path class="st143" d="M566.3,495.3c-1.8-0.5-3.2,0.5-4.7,1.2c-0.7-1.1-0.1-1.7,0.3-2.2c1.4-1.5,0.5-1.9-0.9-2
			c-1.6-0.1-3.1-0.5-4.5-1.5C561.8,489.2,565.3,490.8,566.3,495.3z"/>
		<path class="st144" d="M564.6,489.3c-0.5-0.3-1.4-0.4-1.6-0.8c-0.4-0.9,0.6-0.8,1.1-1c2.9-1,5.9,0.6,8.3,4.6
			c-1,2.6-2.7,1.6-3.9,0.4C567.3,491.4,566.2,490,564.6,489.3z"/>
		<path class="st145" d="M536.2,502c2.9-0.3,5.6-1.1,8.3-2.2c-0.1,0.6-0.2,1.2-1,1.4c-7.9,2-15.7,4.7-23.8,6.1c0-0.2,0-0.5,0-0.7
			c0.8-0.2,1.7-0.1,2.3-0.8c0.2-0.3,0.4-0.5,0.7-0.7c0.5-0.2,0.9-0.3,1.4-0.5c0.7-0.2,1.3-0.5,1.9-0.7
			C529.5,503.3,532.7,501.6,536.2,502z"/>
		<path class="st146" d="M564.6,489.3c1.9-0.1,3.2,1,4.3,2.4c1.1,1.5,2.2,1.8,3.6,0.5c1.4,3.6-3.2,2.1-3.4,4.4
			C568,493.7,566.7,491.3,564.6,489.3z"/>
		<path class="st147" d="M530.3,551.5c-3.4-0.5-6.4,2.2-9.8,1.4c5.4-2.1,10.9-3.6,16.6-4.5C535.1,550.1,532.6,550.7,530.3,551.5z"/>
		<path class="st148" d="M594.9,532c-0.3,0.3,0.2,1.4-0.9,0.8c0-7.3,0-14.5,0-21.8c1.5,2.8,0.6,5.8,0.7,8.8
			C594.9,523.8,594.8,527.9,594.9,532z"/>
		<path class="st149" d="M566.8,504.2c-0.9-1.4-1.5-2.5-2.3-3.6c-0.7-1.1-0.3-2,0.6-2.5c1.2-0.8,1.8,0.4,2.3,1.1
			C568.4,500.8,567.9,502.4,566.8,504.2z"/>
		<path class="st148" d="M592.3,492.2c1.8-0.2,2,1.5,2.1,2.4c0.4,5.5,1.1,11-0.4,16.4c0-3.3-0.1-6.6,0.1-9.9
			C594.2,497.9,593.8,495,592.3,492.2z"/>
		<path class="st150" d="M573.1,482.5c0.3,0.2,0.5,0.4,0.8,0.7c-4.7-0.1-9.3,0.9-13.7,2.4c-0.4-0.8,0.1-1.3,0.6-1.8
			c1.1-0.6,1.6-1.7,2.8-2.2c2.5,0.9,5-0.2,7.5,0C571.8,481.6,572.5,481.9,573.1,482.5z"/>
		<path class="st151" d="M572.8,501.5c-0.6-1.9-3.1-2.4-2.2-4.6c0.3-0.7,1.1-1.2,1.8-0.6C574.1,497.5,574.2,499,572.8,501.5z"/>
		<path class="st152" d="M558.5,499.6c2.5,1.5,3.5,3.3,3.1,5.9C559.5,504.2,558.1,502.7,558.5,499.6z"/>
		<path class="st153" d="M577.2,498.8c-1.4-1.3-2.1-2.7-1.1-4.5c0.4-0.6,1-0.8,1.4-0.2C578.8,495.7,578.4,497.3,577.2,498.8z"/>
		<path class="st154" d="M561,484c-0.3,0.5-0.5,1.1-0.8,1.6c-0.2,0.2-0.4,0.4-0.7,0.6c-1.6-0.4-1.9-2.1-3-3c-1-0.4-1.4-1.1-0.8-2
			c0.4-0.6,1.1-0.3,1.7,0c1.2,0.7,2.4,1.4,3.4,2.3C560.8,483.7,560.9,483.8,561,484z"/>
		<path class="st155" d="M451.4,573.6c0.4-2.8,3.1-1.7,4.5-2.6c2.8,1.3,5.2,3,4.7,6.7c-1,0.8-3,0.4-3.1,2.4
			c-1.1-0.8-2.1-1.5-3.2-2.3C453.3,576.4,452.4,575,451.4,573.6z"/>
		<path class="st156" d="M543.7,493.7c-2.6,0.6-2.8-2.2-4.5-3c-0.9-0.4-2.2,0-2.9-1c-2.6-2.3-4.1-2.1-5.6,0.9
			c-1,1.9-1.3,3.9-2.1,5.9c-0.6,1.3-0.9,2.9-2.4,3.5c-1.5-0.2-2.7-0.8-3.1-2.5c0.5-4.8-0.7-9.5-0.4-14.3c-0.5-4-3.4-7.8-1.5-12.1
			c2,0.3,2,2,2.4,3.3c1.1,4.1,2.1,8.2,2.8,12.4c0.3,1.8,0.2,3.6-0.3,5.4c1-3.3,0.5-6.8,1.3-10c1.2-1.7,2,0.1,3,0.3
			c2.1-1.1,0.7-3.1,1.2-4.6c0.3-0.8,0.1-2,1.1-2.1c1.1-0.2,1.2,1,1.5,1.8c0.6,1.5,0.6,3.2,1.4,4.6c0.8,1.3,0.7,3.3,3.6,2.7
			c1.5-0.3,2.7,2.2,2.3,4.3C542.3,490.7,543,492.2,543.7,493.7z"/>
		<path class="st157" d="M525.7,487.2c-1.7-5.3-2-10.9-4.5-16c-0.2-1.6-0.9-3.1-1.7-4.5c2.9,0.5,3.4,3.4,5.2,5
			c1.2,1.2,1.5,3.1,3.2,4c0.2,0.6-0.2,1-0.5,1.4c-1.3,1.7-0.5,3.6-0.7,5.4C526.6,484.2,527.1,485.9,525.7,487.2z"/>
		<path class="st158" d="M522.7,483.3c1,5,0.7,10,0.8,15c1.7,2.6,1.1,5.1-0.7,7.4c-0.3,0.1-0.5,0.1-0.8,0.2
			c0.7-5.1,0.7-10.3,0.7-15.5C522.8,488,520.8,485.7,522.7,483.3z"/>
		<path class="st159" d="M501.1,489.2c-0.1-1-0.1-2-0.2-2.9c1.6-4.7,6.1-5.7,10-7.2c1.7-0.7,1.8,1.3,2.7,1.9c0.7,3,2.3,5.8,2.4,8.9
			c-0.8-0.1-1.9,0-2.5-0.5C509.5,486.2,505.4,485.6,501.1,489.2z"/>
		<path class="st160" d="M527.3,464.6c-0.9-5.7-2.7-10.9-6.8-15.1c0,0,0,0,0,0c0.4-2.2,2.1-1.6,3.4-1.5c1.4,0.1,2.9,0.3,4.1,1.4
			c3.4,6.4,3.6,13.2,2.5,20.2c-1.2,0.6-1.5-0.3-1.6-1.1C528.6,467.1,528.1,465.8,527.3,464.6z"/>
		<path class="st161" d="M527.3,464.6c2.8,0.8,1.4,3.8,2.9,5.3c1.3,1.2,0.9,2.9,1.1,4.4c0,0.7,0,1.5-0.1,2.2
			c-0.1,1.1-0.3,2.4-1.6,2.6c-1.6,0.2-2.5-0.8-2.5-2.4c0.3-0.3,0.6-0.5,0.9-0.8C528.1,472,528.1,468.3,527.3,464.6z"/>
		<path class="st162" d="M528,450.1c-2.5-0.4-4.9-2.3-7.5-0.6c-1-1-2-2.1-2.2-3.6c0.7-0.1,1.5-0.1,2.2-0.2c2.8,0.6,5.6,1.2,8.4,1.8
			c3.9-0.6,6.9,1.4,10,3.2c1.4,0.8,2.9,1.1,4.3,1.9c3.5,2.3,7.5,3.9,10.2,7.4c1.2,2.5,2.7,4.7,3.9,7.2c0.6,2,1.6,3.8,3,5.3
			c1.2,2.9,4.4,5.2,3,9c0.2,1.7-0.5,2.5-2.2,2.3c0,0,0,0,0,0c-1.8-1.7-2.2-4.1-3.2-6.3c-3.1-6.5-6-13.1-12.4-17.5
			c0.1,0.3,0.3,0.4,0.4,0.6c0.9,1.5,3.2,3.4,1.6,4.8c-1.7,1.5-3-1.3-4.3-2.4c-2.3-2.1-4.7-4.1-7.9-4.8c-0.9-0.4-2.2-0.8-1.9-1.9
			c0.5-1.6,2.3-1,3.6-1.3C534.8,452.1,530.5,452.7,528,450.1z"/>
		<path class="st163" d="M538.5,451.5c-3-1.9-6.3-2.9-9.6-3.9c0.5-0.6,1-1.2,1.5-1.8c0.9-0.6,1.7-1.3,2.1-2.4
			c0.3-0.2,0.6-0.5,0.9-0.7c2.5,2.1,5.4,3.3,8.4,4.5c-0.1,0.2-0.1,0.5-0.2,0.7C541,449.6,540.5,451.3,538.5,451.5z"/>
		<path class="st164" d="M563.2,481.7c-0.2-3.4-2.5-5.9-3.7-8.9c-1.2-1.7-1.8-3.7-3-5.3c-1.2-2.4-3-4.4-3.6-7.1
			c1.6-0.4,2.3,0.7,2.9,1.9c1.7,1.7,3.5,3.4,5.2,5.1c2.5,3.3,5,6.6,7.5,9.9c1.6,0.7,2.1,2.3,2.7,3.7c0.1,0.5,0,1-0.3,1.5
			c-1.3,0.1-2.7-0.2-3.9,0.5C565.3,483.7,564.2,483,563.2,481.7z"/>
		<path class="st165" d="M570.7,481c-1-1.1-1.8-2.3-2.2-3.8c2.9-1.2,5.9-0.3,8.9-0.8c-0.5,0.7-1,1.5-1.4,2.2c-0.5,0.5-1,1-1.5,1.5
			C573.3,480.9,572.1,481.7,570.7,481z"/>
		<path class="st166" d="M555.7,462.3c-1-0.6-1.9-1.3-2.9-1.9c-3-2.9-6.7-4.6-10-6.9c-0.4-1.5,0.6-1.9,1.6-2.5c0.5-0.5,1-1,1.5-1.5
			c3.8,3.3,8.7,5.4,11.2,10.2C558.2,461.6,557.5,462.1,555.7,462.3z"/>
		<path class="st167" d="M544.4,450.9c-0.5,0.8-1.1,1.7-1.6,2.5c-1.5-0.5-3.1-0.8-4.4-1.9c1-1.2,2-2.3,3.1-3.5
			C542.2,449.3,543.2,450.3,544.4,450.9z"/>
		<path class="st168" d="M452.1,486.9c4.5,2.9,5.2,7.7,5.3,12.4c0,3.8-5.4,5.8-10.1,4.2c-1.7-2.9,0.3-5.2,1.3-7.7
			c0.8-2.4,1.5-4.7,2.3-7.1C451.1,488.1,450.8,487,452.1,486.9z"/>
		<path class="st169" d="M452.1,486.9c-0.4,0.6-0.8,1.2-1.2,1.8c-2.1-2.3-3.5-5-4.7-7.9c0.7-1.5,1.6-2.8,3-3.7
			c1.1,2.7,1.1,5.9,3.1,8.3C452.2,486,452.1,486.4,452.1,486.9z"/>
		<path class="st170" d="M434.3,513.2c-0.2-2.5-0.3-5,0.1-7.4c2.4,0.1,4.3-1.7,6.8-1.4c0.4,1.8-1,2.9-1.8,4.1
			C437.7,510.1,437,512.7,434.3,513.2z"/>
		<path class="st171" d="M438.7,508c0.8-1.2,1.6-2.4,2.4-3.6c0.5-0.5,1-1,1.5-1.5c1.9-0.7,3.3-0.1,4.5,1.5c0,0.7-0.1,1.5-0.1,2.2
			C444.4,507.8,442,510.3,438.7,508z"/>
		<path class="st172" d="M447.1,504.3c-1.5-0.5-3-1-4.5-1.5c1.8-2.5,3.4-5.2,5.9-7c0.3,2.7-1.3,5.1-1.3,7.7
			C447.2,503.8,447.1,504,447.1,504.3z"/>
		<path class="st173" d="M438.7,508c3,1,5.4-1.7,8.3-1.5c0,0.8,0.1,1.5,0.1,2.3c0.2,0.2,0.2,0.4,0.1,0.5c-0.1,0.1-0.2,0.2-0.2,0.2
			c-2.2,1.5-5.1,1.4-6.9,3.6c-2-0.2-3.6,0.6-5.1,1.8c-0.9-0.3-1-1-0.7-1.8C435.7,511.4,437.2,509.7,438.7,508z"/>
		<path class="st174" d="M460,519.6c-2.2,1.2-5.9,0-5.4,4.3c-4.8-4.4-5.1-4.9-4.7-6.6c0.4-1.5,1.3-2.3,2.8-2.5
			C456.7,513.9,458.1,516.8,460,519.6z"/>
		<path class="st175" d="M442.5,524c-2.4-1.7-1.5-3.7-0.5-5.6c1.2-2.3,3.1-3.8,5.5-3.5c1.8,2.6-4.6,3.8-0.6,6.6
			C446.5,524.1,443.5,522.4,442.5,524z"/>
		<path class="st176" d="M436.5,526c-2.4-2.2-1.5-4.7-0.5-7.1c0.7-1.6,2.1-2.7,4-2.7c0.1,0,0.3,0.1,0.3,0.2c0,0.2,0,0.4,0,0.6
			c-1.1,1.2-1.7,2.7-1.5,4.3C438.9,523.4,438.1,524.9,436.5,526z"/>
		<path class="st177" d="M436.5,526c2.3-2.5,0.3-6.9,3.8-8.9c-1.4,3-0.7,6,0.8,8.9C439.4,526,437.9,526,436.5,526z"/>
		<path class="st178" d="M430.4,526.9c-1.3-2.7-1.1-5.1,1.3-7c1.1-0.9,1.8-0.8,1.8,0.9c-0.7,1-0.3,2.1-0.3,3.2
			C433.3,525.8,432.5,526.9,430.4,526.9z"/>
		<path class="st179" d="M447.8,531.2c-1.9-0.8-3.3-1.6-3.8-3.2c-0.3-0.9-0.6-2.2,0.5-2.6c1.2-0.4,2.2,0.3,2.3,1.7
			C446.9,528.4,447.1,529.6,447.8,531.2z"/>
		<path class="st180" d="M450.8,522.9c2.6,1.9,2.3,4,1.7,6.5C450.4,527.6,449.5,525.7,450.8,522.9z"/>
		<path class="st181" d="M430.4,526.9c3-1.1,1.7-4.3,3-6.2c0.2,1.3,0.6,2.6,0.7,4c0.1,0.9,0.8,2.6,0.3,2.4
			C433,526.4,431.5,529.4,430.4,526.9z"/>
		<path class="st182" d="M442.5,524c0.6-2.5,3.4-0.9,4.5-2.5c1.1,0.9,1.6,2,1.1,3.9C446.4,523.2,444.3,524.3,442.5,524z"/>
		<path class="st183" d="M440.9,531.7c-2-0.5-3.1-1.5-2.8-3.5c0.2-1,1.1-1,1.7-0.8C442,528.4,440.1,530.4,440.9,531.7z"/>
		<path class="st184" d="M436.3,532.5c-2.1-0.3-3.2-1.6-3.4-3.5c-0.1-0.6,0.5-0.9,1-0.7C435.7,529.1,436.3,530.6,436.3,532.5z"/>
		<path class="st185" d="M457.4,511c0.3,0,0.5,0,0.8,0c1.1,2.3,4.3,3.2,4.5,6.2C461,515.1,458.3,513.9,457.4,511z"/>
		<path class="st186" d="M462.8,522.3c-1.9,2-4.6,2.9-6.1,5.3C457.2,524,459.9,522.9,462.8,522.3z"/>
		<path class="st12" d="M490.5,587.4c3.5-1,7.1-1.2,10.8-1.4c-3.1,1.5-6.5,1.5-9.8,1.6C491.2,587.6,490.8,587.5,490.5,587.4z"/>
		<path class="st187" d="M570.7,481c1.1-0.7,2.4-0.8,3.7-0.8c-0.4,0.8-0.9,1.5-1.3,2.3c-0.7,0-1.5,0-2.2,0
			C570.8,482,570.8,481.5,570.7,481z"/>
		<path class="st188" d="M582.1,546.2c6,1.3,11.8,3.1,14,9.8c-0.6,5.2-4.1,7.4-8.8,8.2c-11,1.9-21.9,1.4-32.6-1.9
			c-1.7-0.5-3.6-1.1-1.8-3.6c-4.6-2.1-9.5-1.2-14.5-0.1c-2.9,0.6-2.9,0.5-3.5-1.6c4-3.2,8.9-3.4,13.6-4.3c8.9-1.6,17.9-2.9,26.7-4.7
			C577.7,547.5,579.7,545.9,582.1,546.2z"/>
		<path class="st189" d="M535.5,557.5c0.4,1.7,1.5,0.6,2.2,0.4c6.4-1.7,12.7-1.7,19.1,0.7c-0.8,2-3,0.4-4.3,1.8
			c3.4,1.7,7.1,2.4,10.6,2.9c7.9,1.2,15.9,1.2,23.8,0c4.4-0.7,8-2.7,9.3-7.4c0.3,6.5-4,9.3-8.2,10.5c-7.5,2.2-15,1-22.5-0.4
			c-4.9-1-9.6-2.7-14.6-3c-6.7-0.4-13.1,1.3-19.1,4.1c-1.5,0.7-3.1,1.5-4.8,1.9c5.9-5.9,13.4-8.4,21.3-10.3
			c-7-0.4-13.4,1.4-19.3,4.9c-5.7,3.4-11.1,7.3-16.5,11.2c4.5-6.8,11.4-10.8,18.7-15.9c-4.2,0.6-7.2,1.8-10.1,3.1
			c-5.9,2.7-11.4,6.1-16.5,10.1c-8.3,6.4-17.7,9.9-28.3,9.6c1.7-0.4,3.5-0.9,5.2-1.3c-5.2-0.6-10.5-0.1-15.6-1.4
			c-0.8-1.2-0.1-1.9,0.8-2.5c8.7,2.4,17.1,1.4,25.4-1.9c2.2,0.1,4.3,0,5.8-2.1c6.5-4,12.9-8,19.6-11.6c5.1-3,10.6-4.6,16.6-4.8
			C534.7,556.3,535.6,556.3,535.5,557.5z"/>
		<path class="st190" d="M535.5,557.5c-0.3-0.6-0.9-0.7-1.4-0.7c-2.1,0.7-2-0.4-1-1.5c0.9-1,2.4-1.2,3.7-1.6c9-2.4,18-4.5,27-6.8
			c2.1-0.6,4.4-0.8,6.3-2.1c1,0,2.1-0.1,3.1-0.1c3.1-1.8,6-0.8,8.8,0.9c0.1,0.2,0.1,0.4,0.2,0.6c-4.5,3.3-10,3.6-15.2,4.6
			c-9.5,1.8-19.1,2.8-28.5,5.2C537.2,556.3,536.5,557.1,535.5,557.5z"/>
		<path class="st191" d="M591,545.6c1.8-1.7,1.5-4.3,2.9-6.2c0.6,4.1,4.5,6,6.2,9.5c1.2,2.5,2.1,4.9,1.5,7.7
			c-0.3,1.5-1.1,2.4-2.3,3.2c0.6-6.5-2.6-10.8-8.1-13.7c-0.3-0.1-0.4-0.2-0.3-0.3C590.9,545.7,591,545.6,591,545.6z"/>
		<path class="st192" d="M581.9,545.5c-2.9-0.3-5.9-0.6-8.8-0.9c-4.1-1.3-8.3-0.6-12.5-0.3c-1.6,0.1-3.2,0.4-4.8,0.3
			c5.4-1.6,10.5-4.5,16.5-3c3.6-0.3,7,1,10.4,1.6c0.2,0.1,0.5,0.2,0.7,0.2C583.5,544.5,582.9,545.1,581.9,545.5z"/>
		<path class="st193" d="M466.5,577c-0.2,0.7-0.5,1.5-0.7,2.2c-1.7-0.5-3.5-1-5.2-1.4c-1.4-0.8-2.2-1.7-0.9-3.2
			c-1.5-0.9-2.8-1.9-3.8-3.5c0.5,0,1,0,1.5,0.1c2.4,0.3,4,2.5,6.4,2.9c1.2,0.6,2.8,0.4,3.6,1.8C467.5,576.5,466.9,576.7,466.5,577z"
			/>
		<path class="st194" d="M591,545.6c0.1,0.2,0.1,0.3,0.1,0.5c-2.4-0.9-4.7-1.9-7.1-2.8c0.3-0.1,0.7-0.1,1-0.2
			C587.2,543.7,589.4,543.9,591,545.6z"/>
		<path class="st195" d="M473.9,510.2c1.1,0.8,0.7,2,0.8,3c-1.7,0.3-3.4,0.6-5.1,0.8c-1.9,0.2-3.1-0.6-3.3-2.8
			C468.8,510.9,471.4,510.5,473.9,510.2z"/>
		<path class="st196" d="M447,509.5c0-0.3,0-0.5,0.1-0.7c4.6-1.2,9.2-2.3,14-2.4c0.3,0,0.6,0.1,0.9,0.1
			C457.2,508.2,451.9,508.1,447,509.5z"/>
		<path class="st197" d="M463.5,553.3c0-1.9,0.1-3.7,0-5.6c-0.2-2.4,1.7-2.6,3.2-2.8c2.1-0.2,1.2,1.7,1.4,2.7c0.1,0.2,0,0.5,0,0.7
			c0,8.3-0.9,7.6,7.4,5.4c1.7-0.4,2.2-1.3,2.2-2.9c0-2.4,0.1-4.7,0-7.1c-0.1-2.1,1.4-2.5,2.9-2.7c2-0.2,1.7,1.4,1.7,2.6
			c0,3.1,0,6.2,0,9.4c0,2.6-1.1,4.2-3.7,4.8c-3.7,0.9-7.5,1.8-11.2,3c-3,0.9-4.3,0.2-4-3C463.6,556.3,463.4,554.8,463.5,553.3
			C463.5,553.3,463.5,553.3,463.5,553.3z"/>
		<path class="st198" d="M475.5,542.3c0,2.1-0.3,4.3,0.1,6.3c0.5,3.1-1.3,3.8-3.7,4.3c-1.3,0.3-1.8-0.1-1.8-1.5c0-5.4,0-10.7,0-16.1
			c0-2.9,2.7-2.3,4.2-2.5c2.1-0.3,1.1,1.7,1.1,2.7C475.6,537.8,475.5,540,475.5,542.3z"/>
		<path class="st199" d="M534.8,540.4c-0.1,1.4-1,2.5-2.2,2.8c-5.2,1.4-10.3,3.6-15.9,3.7c-0.9-5.1-0.2-5.8,4.6-5.2
			c2.9-0.7,5.8-1.5,8.6-2.2c0.8-0.5,1.6-1.1,2.5-1.4C534.8,537.4,535.6,538.1,534.8,540.4z"/>
		<path class="st200" d="M534.8,540.4c-0.2-0.9,0.2-2.5-1.7-1.5c-1,0.5-2,0.8-3.1,0.6c0.1-2.2,0.1-4.5,0.2-6.7
			c0-1.6,0.2-3.2-2.3-2.3c-0.5,0.2-1.1,0-1.1-0.6c0-0.4,0.3-1.1,0.7-1.2c2.1-0.7,4.3-1.3,6.4-1.7c0.9-0.2,1.4,0.5,1.4,1.3
			C535.2,532.2,536.1,536.4,534.8,540.4z"/>
		<path class="st201" d="M521.4,541.6c-2.5,0.9-5.9,1-4.6,5.2c-1.6-4.7-0.5-9.5-0.6-14.3c0-2,2.3-1.6,3.6-1.9
			c1.8-0.3,1.4,1.3,1.4,2.3C521.3,535.9,521.3,538.8,521.4,541.6z"/>
		<path class="st202" d="M508.5,541.2c0.1,9.3,0.6,8.3-8.4,11c-2.5,0.7-5.1,1.1-7.6,1.9c-2.1,0.6-2.8-0.2-2.8-2.1
			c0-3.7,0.1-7.5,0-11.2c0-2.3,1.4-2.6,3.1-2.8c2.3-0.2,1.2,1.6,1.4,2.5c0.1,0.5,0,1,0,1.5c0,6.9,0,6.8,6.6,5.1
			c2.2-0.5,3.2-1.4,3-3.8c-0.2-2.1,0-4.2-0.1-6.4c-0.1-2.3,1.5-2.6,3.2-2.8c2.3-0.2,1.3,1.6,1.4,2.5
			C508.7,538.1,508.5,539.7,508.5,541.2z"/>
		<path class="st203" d="M561.7,527.8c0,1.7-0.2,3.5,0,5.2c0.3,2.8-1.7,3.2-3.5,3.3c-2.6,0.2-1.6-1.9-1.7-3.2
			c-0.1-1.7,0.2-3.5-0.1-5.2c-0.3-1.6,1.6-4.5-1.6-4.7c-4.6-0.2-7.3,2-7.4,5.2c0,2.7-0.2,5.5,0.1,8.2c0.3,3-1.8,3.4-3.8,3.4
			c-2.4-0.1-1.5-2.3-1.3-3.5c0.5-3.1,0.5-6.2,0.2-9.3c-0.2-2.1,0.5-3.2,2.6-3.7c4.5-1,8.9-2.3,13.3-3.6c2.2-0.7,3.3-0.5,3,2.2
			C561.5,524.1,561.7,526,561.7,527.8C561.7,527.8,561.7,527.8,561.7,527.8z"/>
		<path class="st204" d="M552,511.6c1,0.4,2.1-1,3,0.1c-0.7,1.9,1.3,5-2.5,5.4c-1,0.1-2.4,1.4-2.9,0.1c-0.5-1.4-1-3.3,0.4-4.7
			C550.5,512,551.3,511.9,552,511.6z"/>
		<path class="st205" d="M435.8,541.8c-0.2-1.7-0.1-2.6,2.3-2.4c7,0.5,13.5-1.2,19.4-5.1c0.1,0.5,0.1,1,0.2,1.5
			c0.2,4.4-2.9,7.3-7.4,6.9c-0.5-0.1-1.1-0.1-1-0.7c0.2-2.6-1.1-2.2-2.9-1.8c-2.2,0.4-2.7,1.6-2.6,3.6c0.4,5.6-0.5,11.1,0.5,16.7
			c-1.6-0.7-1-2.1-1-3.2c-0.1-5.1,0-10.1,0-15.5C440.6,542.5,438.2,543.1,435.8,541.8z"/>
		<path class="st206" d="M569.2,525.3c0-7.9,0-7.9,7.9-10c2.3-0.6,4.5-1.4,6.8-1.9c2.7-0.6,4.4,0.1,4.2,3.4c-0.2,3.1-0.2,6.2,0,9.3
			c0.2,3.1-2.2,3.2-4,3.2c-2.2,0-1.1-2.1-1.2-3.2c-0.1-2.7,0.1-5.5,0.2-8.2c0-0.6,0.3-1.5-0.3-1.7c-2.6-0.5-4.8,0.9-7.1,1.5
			c-1.5,0.4-1.9,1.4-1.9,2.8c0,3.1-0.1,6.2,0.1,9.4c0.1,2.4-1.4,3.1-3.2,3.2c-2.4,0.2-1.3-1.8-1.4-2.9
			C569,528.5,569.2,526.9,569.2,525.3z"/>
		<path class="st207" d="M581.2,504.3c0,1.5,0.1,3,0.1,4.5c-1.3,1.8-3.5,1.4-5.3,2.1C575.4,505.1,575.4,505,581.2,504.3z"/>
		<path class="st208" d="M455.9,559.1c0.2,3.3-1.1,5.1-3.9,5.9c-3.9,1-7.7,2-11.5,3.1c-2.2,0.7-3.4,0.3-3.3-2.2
			c0-3.9,0-7.7-0.1-11.6c-0.1-2.7,2.3-1.9,3.5-2.3c1.6-0.4,1.1,1.2,1.2,2c0.1,0.7,0,1.5,0,2.2c0,6.8,1.2,7.5,7.5,4.6
			c0.8-0.4,1.6-0.7,1.6-1.8c-0.1-2.8,2.1-3,3.8-2.9C456.9,556.3,455.4,558.4,455.9,559.1z"/>
		<path class="st209" d="M570,544.8c-0.8,2.6-3.3,2.4-5.2,2.9c-9.3,2.4-18.7,4.6-28.1,6.9c-1.2,0.3-2.5,0.5-3.4,1.2
			c-0.9,0.6,0.1,0.9,0.7,1c-5.7,1-11.5,2.1-16.6,5.1c-0.6-0.4-1.3-0.7-1.6-1.5c3-2.5,6.3-4.3,9.8-5.9c8.1,0.3,15.5-3.3,23.2-4.9
			c4.6-1,9.1-2.2,13.4-4.4C564.4,544.1,567.4,544.9,570,544.8z"/>
		<path class="st210" d="M535.5,457.7c5.2,0.6,7.9,4.8,12,8.2c-0.8-3.1-2.6-5-4.2-7.1c6.9,1.6,13.4,10.9,17.7,25.1
			c-2,0-3.2-1.7-5.3-2.8c0.4,1,0.6,1.6,0.8,2.1c-4.5,3.2-9.3,5.8-15,6c-0.8-1.4-1.6-2.7-2.4-4.1c-1.1,0.7,0.4,1.5-0.4,2.1
			c-4.5-2.2-4.6-6.8-6.1-11.5c-0.1,2.8,0,4.7-0.4,6.6c-0.1,0.7,0.1,3-2,1.6c0.1-1.1-0.2-2.1-0.1-3.2c0-0.5,0.2-1.1,0.4-1.6
			c0.9-2.1,0.3-4.4,0.5-6.6c0.1-1.1-0.3-2.6,1.1-2.8c1.2-0.2,1.5,1.4,2.1,2.3c1,1.8,0.7,4.1,2.2,5.6c1.1,0.2,2.2,0.4,3.2,1
			c0.8,0.8,1.2,1.9,1.7,2.9c1.8,4.2,1.9,4.3,5.6,1.3c2.3-1.9,5.3-2.2,7.6-4.3c1-0.9,1.4-1.2,0.9-2.3c-0.9-1.9-1.3-4.1-3.2-5.4
			c-1.7-1.2-0.6-3.4-1.9-4.7c-0.2,0.1,0.2,0.3,0.2,0.5c0.2,1.3,1.2,2.9-0.2,3.7c-1.2,0.7-2.2-0.8-3.1-1.6c-3.3-3.3-6.5-6.5-10.5-9
			C536,459.4,535.2,458.9,535.5,457.7z"/>
		<path class="st211" d="M481.4,569.8c-0.9-1.7-2.7-2-4.3-2.7c-1-1.6,0.5-1.7,1.2-1.9c11.1-3.1,22.3-6.1,33.4-9.1
			c0.9-0.2,2-0.3,2.7,0.6c-1.7,1.9-3.7,3.4-6,4.5c-1.1,1.9-3,2.8-4.9,3.7c-1.8,0.6-3.5,1.4-5,2.5c-0.3,0.2-0.6,0.3-0.9,0.5
			c-2.7,1.1-5.4,2.1-8,3.6c-1.2,0.9-2.7,0.5-4,0.6C484,571.8,482.1,571.8,481.4,569.8z"/>
		<path class="st212" d="M486.1,571.5c1-0.1,1.9-0.2,2.9-0.3c2.9-1.5,6.1-2.5,9.1-4l0,0c1.7-1.2,3.7-1.8,5.4-3c1.7-1,3.4-2,5.1-2.9
			c-0.1,1.2,1.2,1.5,1.6,2.4c-0.2,2.5-2.6,2.7-4.2,3.8c-1.9,1.4-4.1,2.2-6.2,3.3c-1.2,0.6-2.3,1.1-1.8,2.7c-1.4,1.5-2.4,4.5-5,1.3
			c-4.9,0.8-9.6,2.4-14.5,2.9c-3.8,0.4-7.6,0.8-11.1-1.6c-1.3-0.5-2.5-1-3.8-1.4c-0.7-3.2,1.8-3.1,3.6-3.2c3.9-0.1,7.6-0.4,11.4-1.2
			c0.5,0.3,1,0.6,1.5,0.9C482,571.7,483.9,572.6,486.1,571.5z"/>
		<path class="st213" d="M497.9,573.5c-1.4-1-2.3-1.7,0.1-2.8c4.2-2,8.4-4,12.1-7c1.9-1.1,3.6-2.7,5.9-3.2c0.9,0.1,1.6,0.4,1.6,1.5
			C510.9,565.8,504.4,569.6,497.9,573.5z"/>
		<path class="st159" d="M537,489.2c0.8,0.5,1.5,1,2.3,1.5c2.8,4.8-1.4,7.7-3,11.3c-3.3,1.5-6.9,2.1-10.4,3
			c-1.1-1.3-0.4-2.7,0.2-3.8c1.8-3,2.9-6.3,3.9-9.6C531.1,487.4,533.5,486.7,537,489.2z"/>
		<path class="st214" d="M478.5,570.3c-3.1,3-7,2-10.7,2.2c-1.7,0.1-3.9-0.6-4.3,2.2c-2.4-0.5-4.4-1.8-6-3.6
			c4.7-2.6,10.1-3.1,15.3-4.3C474.9,566.2,476.4,569.3,478.5,570.3z"/>
		<path class="st215" d="M486.1,571.5c-2.1,1.8-4.2,2.8-6.1-0.3c0-1,0.3-1.7,1.5-1.4C482.7,570.9,484.4,571.3,486.1,571.5z"/>
		<path class="st216" d="M537,489.2c-4.2-1.7-5.4-1-6.8,3.6c-1.3,4.1-2.9,8.1-4.3,12.1c-0.5,0.2-1.1,0.4-1.6,0.6
			c-0.4-2.4,0.2-4.4,2.2-5.9c1.1-3,2.1-6,3.2-9C531.2,486.4,534,485.9,537,489.2z"/>
		<path class="st47" d="M526.4,499.6c-0.7,2-1.5,3.9-2.2,5.9c-0.5,0-0.9,0.1-1.4,0.1c0.2-2.5,0.5-4.9,0.7-7.4
			C524.8,498.1,525.4,499.3,526.4,499.6z"/>
		<path class="st217" d="M531,479.7c0,0.3,0,0.6,0,0.9c-0.5,1.8-2.5-0.6-3,1.1c0.1,3.8,0.3,7.6-2.2,11.9c0-2.7,0-4.6,0-6.5
			c0-3.1,0-6.2,0-9.3c0-0.8-0.5-2.4,1.4-1.3c0.7,0.8,1.4,2.4,2.5,1.7c1.3-0.9,0.5-2.7,0.8-4.2C532.3,475.8,531.2,477.8,531,479.7z"
			/>
		<path class="st218" d="M528,481.7c-0.2-0.8-0.5-1.6-0.7-2.5c1.7-0.2,2.1,2.2,3.8,1.4c0,1.2,0.5,2.4-0.7,3.3
			C529.5,483.2,528.7,482.5,528,481.7z"/>
		<path class="st136" d="M531,479.7c-0.5-1.8,0.3-3.8-0.6-5.6c-0.1-1.4-0.1-2.8-0.2-4.2c0.1-3.5,0.7-7.1-1-10.2
			c-1.1-2,2.1-2.7,0.6-4.7c-0.9-1.3-2.6-2.7-1.8-4.9c4.1,0.9,7.9,2.1,11.3,5.8c-2.2,0.2-3.7,0.3-6.1,0.5c1.2,0.8,1.7,1.1,2.2,1.4
			c5.2,3.6,10.1,7.6,14.9,13.1c-0.4-2.8-0.7-4.6-1-6.4c3,4.8,6.6,9.2,8,15.4c-2.3-1.2-3.3,0.8-4.7,1.3c-3.5,1.3-6.3,3.3-9.2,5.3
			c-1.1,0.8-1.4-0.7-1.7-1.4c-1-2.1-1.9-4.3-2.8-6.5c-0.8-0.4-1.4-1.8-2.6-0.7c-0.1,0.5-0.2,1-0.4,2.3c-1.9-3.5-1.8-7-3.9-10
			C531,473.5,532.7,476.8,531,479.7z"/>
		<path class="st219" d="M556.5,467.5c1.8,1.3,2.5,3.3,3,5.3C557.7,471.5,557,469.5,556.5,467.5z"/>
		<path class="st220" d="M467.3,576.1c7.7,1.7,15,0.3,22.4-1.9c1-0.3,2.6-2,3.2,0.5c-1.6,2.8-4.6,2.5-7.2,3c-4.9,1-9.7,1.9-14.8,0.9
			c-1.7-0.3-2.8-1.4-4.4-1.7C466.8,576.7,467,576.4,467.3,576.1z"/>
		<path class="st221" d="M536.4,478c0-0.7-0.6-2,0.8-1.8c1.1,0.2,2.4,0.8,1.8,2.5C537.7,480,537.1,479,536.4,478z"/>
		<path class="st222" d="M498,567.2c-2.6,2.2-5.8,3.2-9.1,4C491.6,569.1,494.7,568,498,567.2z"/>
		<path class="st223" d="M503.4,564.2c-1.4,1.8-3.3,2.6-5.4,3C499.3,565.4,501.3,564.7,503.4,564.2z"/>
		<path class="st224" d="M533.2,460.8c1.7,0.5,3.5-0.9,4.3,0.8c0.4,0.8-0.6,2.4-1.7,2.6C534.1,464.4,534,462.6,533.2,460.8z"/>
		<path class="st225" d="M553.1,475.2c-0.3,1-1.1,1.3-2,1.3c-1.4,0.1-1.5-1-1.6-2c-0.1-0.8,0.3-1.2,1-1
			C551.6,473.7,552.7,474,553.1,475.2z"/>
		<path class="st226" d="M547.1,482.2c-0.6,0.9-1.5,1.1-2.5,1.1c-1-0.1-0.9-0.9-0.9-1.6c0.1-1.1,0.7-1.5,1.7-1.1
			C546.2,480.8,546.9,481.2,547.1,482.2z"/>
		<path class="st227" d="M545.1,471.6c0,0.9-0.5,1.2-1.2,1.1c-1-0.2-1.5-0.8-1.5-1.8c0-0.6,0.4-1.2,1.2-1.1
			C544.6,470,544.6,471.1,545.1,471.6z"/>
	</g>
</g>
</svg>
