<svg xmlns="http://www.w3.org/2000/svg" xmlns:xlink="http://www.w3.org/1999/xlink" viewBox="0 0 213.1 90.6"><defs><style>.cls-1{fill:url(#linear-gradient);}.cls-2{fill:url(#linear-gradient-2);}.cls-3{fill:url(#linear-gradient-3);}.cls-4{fill:url(#linear-gradient-4);}.cls-5{fill:url(#linear-gradient-5);}.cls-6{fill:url(#linear-gradient-6);}.cls-7{fill:url(#linear-gradient-7);}.cls-8{fill:url(#linear-gradient-8);}.cls-9{fill:url(#linear-gradient-9);}.cls-10{fill:url(#linear-gradient-10);}.cls-11{fill:url(#linear-gradient-11);}.cls-12{fill:url(#linear-gradient-12);}.cls-13{fill:url(#linear-gradient-13);}.cls-14{fill:url(#linear-gradient-14);}.cls-15{fill:url(#linear-gradient-15);}.cls-16{fill:url(#linear-gradient-16);}.cls-17{fill:url(#linear-gradient-17);}.cls-18{fill:url(#linear-gradient-18);}.cls-19{fill:url(#linear-gradient-19);}.cls-20{fill:url(#linear-gradient-20);}</style><linearGradient id="linear-gradient" x1="51.14" y1="91.12" x2="8.5" y2="19.28" gradientUnits="userSpaceOnUse"><stop offset="0" stop-color="#05707e"/><stop offset="0.52" stop-color="#2b9297"/><stop offset="1" stop-color="#4dbbba"/></linearGradient><linearGradient id="linear-gradient-2" x1="2.55" y1="4.17" x2="63.34" y2="25.97" xlink:href="#linear-gradient"/><linearGradient id="linear-gradient-3" x1="51.11" y1="33.77" x2="64.61" y2="33.77" xlink:href="#linear-gradient"/><linearGradient id="linear-gradient-4" x1="57.69" y1="41.27" x2="58" y2="90.48" xlink:href="#linear-gradient"/><linearGradient id="linear-gradient-5" x1="53.23" y1="64.04" x2="292.4" y2="69.12" xlink:href="#linear-gradient"/><linearGradient id="linear-gradient-6" x1="53.24" y1="63.7" x2="292.41" y2="68.77" xlink:href="#linear-gradient"/><linearGradient id="linear-gradient-7" x1="53.24" y1="63.47" x2="292.41" y2="68.55" xlink:href="#linear-gradient"/><linearGradient id="linear-gradient-8" x1="53.25" y1="63.14" x2="292.42" y2="68.21" xlink:href="#linear-gradient"/><linearGradient id="linear-gradient-9" x1="53.26" y1="62.8" x2="292.43" y2="67.88" xlink:href="#linear-gradient"/><linearGradient id="linear-gradient-10" x1="53.27" y1="62.35" x2="292.44" y2="67.42" xlink:href="#linear-gradient"/><linearGradient id="linear-gradient-11" x1="53.29" y1="61.03" x2="292.47" y2="66.1" xlink:href="#linear-gradient"/><linearGradient id="linear-gradient-12" x1="81.02" y1="28.17" x2="257.14" y2="50.08" xlink:href="#linear-gradient"/><linearGradient id="linear-gradient-13" x1="81.05" y1="27.92" x2="257.17" y2="49.83" xlink:href="#linear-gradient"/><linearGradient id="linear-gradient-14" x1="81.34" y1="25.59" x2="257.46" y2="47.49" xlink:href="#linear-gradient"/><linearGradient id="linear-gradient-15" x1="81.57" y1="23.76" x2="257.69" y2="45.66" xlink:href="#linear-gradient"/><linearGradient id="linear-gradient-16" x1="81.75" y1="22.26" x2="257.88" y2="44.17" xlink:href="#linear-gradient"/><linearGradient id="linear-gradient-17" x1="81.91" y1="21.03" x2="258.03" y2="42.93" xlink:href="#linear-gradient"/><linearGradient id="linear-gradient-18" x1="82.42" y1="16.86" x2="258.55" y2="38.77" xlink:href="#linear-gradient"/><linearGradient id="linear-gradient-19" x1="82.65" y1="15.03" x2="258.78" y2="36.94" xlink:href="#linear-gradient"/><linearGradient id="linear-gradient-20" x1="82.38" y1="17.21" x2="258.5" y2="39.12" xlink:href="#linear-gradient"/></defs><g id="Layer_2" data-name="Layer 2"><g id="Layer_1-2" data-name="Layer 1"><polygon class="cls-1" points="51.1 43.3 16 60.6 51.1 77.2 51.1 90.6 0 66.4 0 53.2 35.5 35.7 0 18.9 0 5.5 51.1 29.7 51.1 43.3"/><polygon class="cls-2" points="0 5.5 13.5 0 64.6 24.2 51.1 29.7 0 5.5"/><polygon class="cls-3" points="51.1 43.3 64.6 37.8 64.6 24.2 51.1 29.7 51.1 43.3"/><polygon class="cls-4" points="51.1 77.2 51.1 50.4 64.6 44.2 64.6 85.1 51.1 90.6 51.1 77.2"/><path class="cls-5" d="M87.9,74.5h12.9v3.8H81.2L94.4,55.2h-11V51.4h17.7Z"/><path class="cls-6" d="M109.6,51.4V78.3h-4.1V51.4Z"/><path class="cls-7" d="M120.1,51.4V74.5H128v3.8H116.1V51.4Z"/><path class="cls-8" d="M135.9,51.4V74.5h7.9v3.8H131.9V51.4Z"/><path class="cls-9" d="M151.7,51.4V78.3h-4V51.4Z"/><path class="cls-10" d="M185.5,78.8h-5.1l-2.1-2.2a13,13,0,0,1-7.5,2.2,14.3,14.3,0,0,1-9.5-3.6A13.1,13.1,0,0,1,156.8,65a13.3,13.3,0,0,1,4.3-10.2,13.9,13.9,0,0,1,18.9-.4,13.7,13.7,0,0,1,1.1,20ZM174.3,67.7l3.9,3.8a8.9,8.9,0,0,0,2.6-6.6,9.8,9.8,0,0,0-2.9-7.3,10.1,10.1,0,0,0-14.2,0,10.2,10.2,0,0,0-2.8,7.4,9.4,9.4,0,0,0,2.9,7.1,9.8,9.8,0,0,0,6.9,2.9,9.4,9.4,0,0,0,4.7-1.2l-6.3-6.1Z"/><path class="cls-11" d="M205.8,71.8H194.3l-3,6.5h-4.4l13.3-28.6,12.9,28.6h-4.5Zm-1.7-3.9-3.9-9.1L196,67.9Z"/><path class="cls-12" d="M92.3,22.3a5.4,5.4,0,0,1,1.6,4.2,4.7,4.7,0,0,1-1.7,4c-1.1.9-2.7,1.3-5,1.3H84.5v4.5H81.9V21h5.3C89.5,21,91.2,21.4,92.3,22.3Zm-1.9,6.4a3.6,3.6,0,0,0,.8-2.4,2.4,2.4,0,0,0-1-2.3,5.9,5.9,0,0,0-3.1-.7H84.5v6.2h3A4.2,4.2,0,0,0,90.4,28.7Z"/><path class="cls-13" d="M106.2,34.8a6.2,6.2,0,0,1-4.4,1.7,6.4,6.4,0,0,1-4.4-1.7,5.7,5.7,0,0,1-1.7-4.3,5.7,5.7,0,0,1,1.7-4.3,6.4,6.4,0,0,1,4.4-1.7,6.2,6.2,0,0,1,4.4,1.7,6,6,0,0,1,0,8.6Zm-7-1.5a3.4,3.4,0,0,0,2.6,1,3.6,3.6,0,0,0,2.7-1,4.4,4.4,0,0,0,0-5.6,3.6,3.6,0,0,0-2.7-1,3.4,3.4,0,0,0-2.6,1,4.1,4.1,0,0,0,0,5.6Z"/><path class="cls-14" d="M116.1,36.3h-2.8l-4.1-11.6h2.6l2.9,8.8,2.9-8.8h2.5l2.9,8.8,2.9-8.8h2.5l-4,11.6h-2.8l-2.8-7.9Z"/><path class="cls-15" d="M141.5,31.6h-9.2a2.8,2.8,0,0,0,1.2,2,3.6,3.6,0,0,0,2.5.8,3.9,3.9,0,0,0,3.3-1.4l1.4,1.6a6.6,6.6,0,0,1-4.9,1.9,5.7,5.7,0,0,1-5.9-6,6,6,0,0,1,9.9-4.6,5.1,5.1,0,0,1,1.7,4Zm-9.2-2H139a2.8,2.8,0,0,0-.9-2.2,3.6,3.6,0,0,0-2.3-.8,4.1,4.1,0,0,0-2.4.8A2.8,2.8,0,0,0,132.3,29.6Z"/><path class="cls-16" d="M150.3,27a3.2,3.2,0,0,0-2.7,1.2,4.8,4.8,0,0,0-.9,3.1v5h-2.5V24.7h2.5V27a4.6,4.6,0,0,1,1.6-1.8,3.3,3.3,0,0,1,2.1-.7V27Z"/><path class="cls-17" d="M163.8,31.6h-9.2a2.8,2.8,0,0,0,1.2,2,3.5,3.5,0,0,0,2.4.8,4,4,0,0,0,3.4-1.4l1.4,1.6a6.6,6.6,0,0,1-4.9,1.9,5.7,5.7,0,0,1-5.9-6,5.7,5.7,0,0,1,1.7-4.4,6,6,0,0,1,4.2-1.6,6.3,6.3,0,0,1,4,1.4,5.1,5.1,0,0,1,1.7,4Zm-9.2-2h6.7a2.8,2.8,0,0,0-.9-2.2,3.6,3.6,0,0,0-2.3-.8,4.1,4.1,0,0,0-2.4.8A2.8,2.8,0,0,0,154.6,29.6Z"/><path class="cls-18" d="M167.4,34.9a6.2,6.2,0,0,1-1.7-4.4,5.9,5.9,0,0,1,1.7-4.4,5.7,5.7,0,0,1,4.1-1.6,4.2,4.2,0,0,1,3.7,2V20.1h2.5V36.3h-2.5V34.6a4.5,4.5,0,0,1-4,1.9A5.2,5.2,0,0,1,167.4,34.9Zm.8-4.3a3.7,3.7,0,0,0,1.1,2.7,3.6,3.6,0,0,0,5,0,4.1,4.1,0,0,0,1-2.8,4.1,4.1,0,0,0-1-2.7,3.2,3.2,0,0,0-2.5-1.2,3.5,3.5,0,0,0-2.6,1.2A3.7,3.7,0,0,0,168.2,30.6Z"/><path class="cls-19" d="M193.5,24.5a5.4,5.4,0,0,1,4,1.6,5.8,5.8,0,0,1,1.7,4.3,6,6,0,0,1-1.7,4.4,5,5,0,0,1-3.8,1.7,5.3,5.3,0,0,1-4-1.9v1.7h-2.4V20.1h2.4v6.6A4.3,4.3,0,0,1,193.5,24.5Zm-3.8,6a4,4,0,0,0,1,2.8,3.3,3.3,0,0,0,2.4,1,3.5,3.5,0,0,0,3.6-3.8,4,4,0,0,0-1-2.8,3.6,3.6,0,0,0-2.5-1.1,3.4,3.4,0,0,0-2.5,1.1A4,4,0,0,0,189.7,30.5Z"/><path class="cls-20" d="M203.5,41a4,4,0,0,1-2.9-1.2l1.1-2a2.3,2.3,0,0,0,1.6.8,1.6,1.6,0,0,0,1.3-.6,1.9,1.9,0,0,0,.6-1.3q0-.3-4.8-12h2.7l3.5,8.6,3.4-8.6h2.7L207,38.5a3.7,3.7,0,0,1-1.4,1.8A3.5,3.5,0,0,1,203.5,41Z"/></g></g></svg>