<svg xmlns="http://www.w3.org/2000/svg" xmlns:xlink="http://www.w3.org/1999/xlink" viewBox="0 0 237.9 179.5"><defs><style>.cls-1{fill:url(#linear-gradient);}.cls-2{fill:url(#linear-gradient-2);}.cls-3{fill:url(#linear-gradient-3);}.cls-4{fill:url(#linear-gradient-4);}</style><linearGradient id="linear-gradient" x1="140.39" y1="103.71" x2="91.85" y2="21.94" gradientUnits="userSpaceOnUse"><stop offset="0" stop-color="#1d1d1b"/><stop offset="1" stop-color="#1d1d1b" stop-opacity="0.7"/></linearGradient><linearGradient id="linear-gradient-2" x1="76.61" y1="1.71" x2="145.8" y2="26.52" xlink:href="#linear-gradient"/><linearGradient id="linear-gradient-3" x1="149.87" y1="13.61" x2="147.39" y2="47.1" xlink:href="#linear-gradient"/><linearGradient id="linear-gradient-4" x1="147.84" y1="46.97" x2="148.2" y2="102.98" xlink:href="#linear-gradient"/></defs><g id="Layer_2" data-name="Layer 2"><g id="Layer_1-2" data-name="Layer 1"><polygon class="cls-1" points="140.3 49.3 100.4 68.9 140.3 87.9 140.3 103.1 82.2 75.6 82.2 60.5 122.6 40.6 82.2 21.5 82.2 6.2 140.3 33.8 140.3 49.3"/><polygon class="cls-2" points="82.2 6.2 97.6 0 155.7 27.6 140.3 33.8 82.2 6.2"/><polygon class="cls-3" points="140.3 49.3 155.7 43.1 155.7 27.6 140.3 33.8 140.3 49.3"/><polygon class="cls-4" points="140.3 87.9 140.3 57.4 155.7 50.3 155.7 96.9 140.3 103.1 140.3 87.9"/><path d="M12,171.7H35.3v6.9H0L23.8,137H3.9v-6.9H35.8Z"/><path d="M51.2,130.1v48.5H43.8V130.1Z"/><path d="M70.1,130.1v41.6H84.4v6.9H62.8V130.1Z"/><path d="M98.7,130.1v41.6h14.2v6.9H91.3V130.1Z"/><path d="M127.2,130.1v48.5h-7.3V130.1Z"/><path d="M188.2,179.5H179l-3.8-3.9a24.7,24.7,0,0,1-13.5,3.9,25.2,25.2,0,0,1-17.2-6.6,23.5,23.5,0,0,1-8.1-18.4,24,24,0,0,1,7.7-18.2,25.3,25.3,0,0,1,34.2-.9c5.9,5,8.8,11.5,8.8,19.5a23.5,23.5,0,0,1-6.9,16.7ZM168,159.4l7.1,7a16.5,16.5,0,0,0,4.6-12,17.8,17.8,0,0,0-5.2-13.1,18.2,18.2,0,0,0-25.7,0,18.6,18.6,0,0,0-5,13.3,17.2,17.2,0,0,0,5.2,12.9,17.7,17.7,0,0,0,12.4,5.1,16.7,16.7,0,0,0,8.6-2.2l-11.4-11Z"/><path d="M224.8,166.8H204l-5.4,11.8h-7.9l24-51.6,23.2,51.6h-8Zm-3-6.9-7.2-16.5-7.5,16.5Z"/></g></g></svg>