<svg xmlns="http://www.w3.org/2000/svg" xmlns:xlink="http://www.w3.org/1999/xlink" viewBox="0 0 234.8 173.2"><defs><style>.cls-1{fill:url(#linear-gradient);}.cls-2{fill:url(#linear-gradient-2);}.cls-3{fill:url(#linear-gradient-3);}.cls-4{fill:url(#linear-gradient-4);}.cls-5{fill:#fff;}</style><linearGradient id="linear-gradient" x1="137.45" y1="96.86" x2="92.12" y2="20.49" gradientUnits="userSpaceOnUse"><stop offset="0" stop-color="#fff"/><stop offset="0.22" stop-color="#fff" stop-opacity="0.96"/><stop offset="0.59" stop-color="#fff" stop-opacity="0.85"/><stop offset="1" stop-color="#fff" stop-opacity="0.7"/></linearGradient><linearGradient id="linear-gradient-2" x1="77.88" y1="1.6" x2="142.5" y2="24.76" xlink:href="#linear-gradient"/><linearGradient id="linear-gradient-3" x1="146.3" y1="12.71" x2="143.99" y2="43.99" xlink:href="#linear-gradient"/><linearGradient id="linear-gradient-4" x1="144.41" y1="43.87" x2="144.74" y2="96.18" xlink:href="#linear-gradient"/></defs><g id="Layer_2" data-name="Layer 2"><g id="Layer_1-2" data-name="Layer 1"><polygon class="cls-1" points="137.4 46 100.1 64.4 137.4 82.1 137.4 96.3 83.1 70.6 83.1 56.5 120.9 38 83.1 20.1 83.1 5.8 137.4 31.6 137.4 46"/><polygon class="cls-2" points="83.1 5.8 97.5 0 151.8 25.7 137.4 31.6 83.1 5.8"/><polygon class="cls-3" points="137.4 46 151.8 40.2 151.8 25.7 137.4 31.6 137.4 46"/><polygon class="cls-4" points="137.4 82.1 137.4 53.6 151.8 47 151.8 90.5 137.4 96.3 137.4 82.1"/><path class="cls-5" d="M11.9,165.5h23v6.8H0l23.5-41.1H3.8v-6.8H35.4Z"/><path class="cls-5" d="M50.5,124.4v47.9H43.3V124.4Z"/><path class="cls-5" d="M69.2,124.4v41.1H83.3v6.8H62V124.4Z"/><path class="cls-5" d="M97.4,124.4v41.1h14.1v6.8H90.2V124.4Z"/><path class="cls-5" d="M125.5,124.4v47.9h-7.2V124.4Z"/><path class="cls-5" d="M185.8,173.2h-9.1l-3.8-3.9a23.8,23.8,0,0,1-13.3,3.9,24.9,24.9,0,0,1-16.9-6.5,22.9,22.9,0,0,1-8-18.1,23.9,23.9,0,0,1,7.6-18.1,24.7,24.7,0,0,1,17.4-7,24.4,24.4,0,0,1,16.3,6.2q8.7,7.4,8.7,19.2a23.5,23.5,0,0,1-6.8,16.5Zm-19.9-19.9,6.9,7a16.4,16.4,0,0,0,4.6-11.9,17.8,17.8,0,0,0-5.1-12.9,18.1,18.1,0,0,0-25.4,0,18.3,18.3,0,0,0-5,13.1,17,17,0,0,0,5.2,12.7,17.4,17.4,0,0,0,12.2,5.1,17,17,0,0,0,8.5-2.1l-11.2-11Z"/><path class="cls-5" d="M221.9,160.7H201.4l-5.3,11.6h-7.8L212,121.4l22.8,50.9h-7.9Zm-2.9-6.8-7.1-16.3-7.5,16.3Z"/></g></g></svg>