<svg xmlns="http://www.w3.org/2000/svg" xmlns:xlink="http://www.w3.org/1999/xlink" viewBox="0 0 297.3 222.5"><defs><style>.cls-1{fill:url(#linear-gradient);}.cls-2{fill:url(#linear-gradient-2);}.cls-3{fill:url(#linear-gradient-3);}.cls-4{fill:url(#linear-gradient-4);}.cls-5{fill:url(#linear-gradient-5);}.cls-6{fill:url(#linear-gradient-6);}.cls-7{fill:url(#linear-gradient-7);}.cls-8{fill:url(#linear-gradient-8);}.cls-9{fill:url(#linear-gradient-9);}.cls-10{fill:url(#linear-gradient-10);}.cls-11{fill:url(#linear-gradient-11);}</style><linearGradient id="linear-gradient" x1="-63.2" y1="189.27" x2="476.33" y2="200.71" gradientUnits="userSpaceOnUse"><stop offset="0" stop-color="#05707e"/><stop offset="0.52" stop-color="#2b9297"/><stop offset="1" stop-color="#4dbbba"/></linearGradient><linearGradient id="linear-gradient-2" x1="-63.18" y1="188.48" x2="476.35" y2="199.93" xlink:href="#linear-gradient"/><linearGradient id="linear-gradient-3" x1="-63.17" y1="187.98" x2="476.36" y2="199.43" xlink:href="#linear-gradient"/><linearGradient id="linear-gradient-4" x1="-63.15" y1="187.23" x2="476.37" y2="198.67" xlink:href="#linear-gradient"/><linearGradient id="linear-gradient-5" x1="-63.14" y1="186.47" x2="476.39" y2="197.91" xlink:href="#linear-gradient"/><linearGradient id="linear-gradient-6" x1="-63.12" y1="185.44" x2="476.41" y2="196.88" xlink:href="#linear-gradient"/><linearGradient id="linear-gradient-7" x1="-63.05" y1="182.47" x2="476.47" y2="193.91" xlink:href="#linear-gradient"/><linearGradient id="linear-gradient-8" x1="175.58" y1="130.21" x2="114.65" y2="27.54" xlink:href="#linear-gradient"/><linearGradient id="linear-gradient-9" x1="106.15" y1="5.96" x2="193.02" y2="37.11" xlink:href="#linear-gradient"/><linearGradient id="linear-gradient-10" x1="175.54" y1="48.25" x2="194.83" y2="48.25" xlink:href="#linear-gradient"/><linearGradient id="linear-gradient-11" x1="184.94" y1="58.98" x2="185.39" y2="129.29" xlink:href="#linear-gradient"/></defs><g id="Layer_2" data-name="Layer 2"><g id="Layer_1-2" data-name="Layer 1"><path class="cls-1" d="M15,212.8H44.1v8.6H0l29.8-52H4.9v-8.6H44.8Z"/><path class="cls-2" d="M63.9,160.8v60.6H54.8V160.8Z"/><path class="cls-3" d="M87.7,160.8v52h17.8v8.6h-27V160.8Z"/><path class="cls-4" d="M123.3,160.8v52h17.8v8.6H114.2V160.8Z"/><path class="cls-5" d="M158.9,160.8v60.6h-9.1V160.8Z"/><path class="cls-6" d="M235.2,222.5H223.7l-4.8-4.9a29.8,29.8,0,0,1-16.8,4.9,31.2,31.2,0,0,1-21.4-8.2,29.1,29.1,0,0,1-10.2-22.9,30.3,30.3,0,0,1,9.6-22.9,31.6,31.6,0,0,1,42.8-1.1c7.3,6.2,11,14.4,11,24.4,0,7.8-2.9,14.8-8.7,20.9ZM210,197.4l8.8,8.8a20.9,20.9,0,0,0,5.8-15,22.2,22.2,0,0,0-6.5-16.4,22.8,22.8,0,0,0-32.1,0c-4.2,4.4-6.3,9.9-6.3,16.6a21.5,21.5,0,0,0,6.5,16.1,22,22,0,0,0,15.5,6.4,21.6,21.6,0,0,0,10.8-2.7l-14.3-13.8Z"/><path class="cls-7" d="M281,206.7H255l-6.7,14.7h-9.9l30-64.4,28.9,64.4h-10Zm-3.8-8.6-9-20.6-9.4,20.6Z"/><polygon class="cls-8" points="175.5 61.9 125.4 86.6 175.5 110.3 175.5 129.5 102.5 94.9 102.5 76 153.3 51 102.5 27 102.5 7.8 175.5 42.4 175.5 61.9"/><polygon class="cls-9" points="102.5 7.8 121.8 0 194.8 34.6 175.5 42.4 102.5 7.8"/><polygon class="cls-10" points="175.5 61.9 194.8 54.1 194.8 34.6 175.5 42.4 175.5 61.9"/><polygon class="cls-11" points="175.5 110.3 175.5 72 194.8 63.1 194.8 121.7 175.5 129.5 175.5 110.3"/></g></g></svg>