<svg width="273" height="111" viewBox="0 0 273 111" fill="none" xmlns="http://www.w3.org/2000/svg">
<path d="M12.8374 24.1758L20.0864 6.84212H25.4846V29.442H21.9168V10.3089L13.918 29.5627H11.3582L3.42966 10.4296V29.4511H0V6.83301H5.63832L12.8374 24.1758Z" fill="black"/>
<path d="M44.9566 25.7843C44.3443 27.0169 43.4025 28.0535 42.2369 28.7777C41.0713 29.5019 39.728 29.8851 38.3578 29.8843C33.4398 29.8843 30.0781 26.1442 30.0781 21.0011V9.57812H33.7502V20.3155C33.7502 24.0533 35.8682 26.5064 39.2299 26.5064C42.7072 26.5064 44.9475 23.9735 44.9475 20.3155V9.57812H48.5879V29.4424H44.9566V25.7843Z" fill="black"/>
<path d="M75.1518 29.4418H70.4717C65.8732 29.4418 63.5535 27.2301 63.5535 22.8067V12.8734H59.2109V9.57747H63.5535V4.56641H67.1938V9.57747H75.1518V12.8734H67.1938V21.9616C67.1938 24.8566 68.1136 26.0616 71.2714 26.0616H75.1496L75.1518 29.4418Z" fill="black"/>
<path d="M96.2375 29.8046H93.3289L84.0117 9.57812H88.0893L94.8851 24.8983L101.645 9.57812H105.403L96.2375 29.8046Z" fill="black"/>
<path d="M125.517 19.9535H109.078C109.28 23.6525 111.919 26.5589 115.799 26.5589C119.757 26.5589 121.356 24.427 121.677 23.7846H125.273C124.953 25.5135 122.432 29.9346 115.795 29.9346C109.678 29.9346 105.395 25.3495 105.395 19.5184C105.395 13.5279 109.674 9.10451 115.434 9.10451C121.238 9.0954 125.517 13.4391 125.517 19.9535ZM109.318 16.8967H121.478C120.556 13.881 118.438 12.2319 115.439 12.2319C112.238 12.2319 110.079 14.0017 109.318 16.8967Z" fill="black"/>
<path d="M132.683 29.442H129.043V9.57774H132.683V13.2358C133.243 11.7872 134.921 9.41602 139.561 9.41602H141.695V13.0741H139.481C134.403 13.0741 132.686 14.6845 132.686 18.2218L132.683 29.442Z" fill="black"/>
<path d="M149.704 20.7272C145.905 20.2716 143.225 18.4631 143.225 14.805C143.225 11.3064 146.505 9.0127 151.344 9.0127C158.024 9.0127 160.178 12.4726 160.822 14.4793H156.944C156.504 13.9554 155.023 12.1469 151.344 12.1469C148.344 12.1469 146.813 13.2311 146.813 14.6797C146.813 16.0874 147.814 16.9712 150.173 17.2536C151.733 17.4541 152.692 17.5338 154.413 17.7365C159.091 18.3378 161.091 20.3491 161.091 24.0094C161.091 27.3463 158.051 29.9999 152.451 29.9999C145.495 29.9999 143.053 25.6972 142.613 23.8887H146.494C146.693 24.531 148.292 26.7837 152.451 26.7837C155.811 26.7837 157.451 25.5765 157.451 24.0094C157.451 22.4423 156.611 21.5039 153.933 21.1941L149.704 20.7272Z" fill="black"/>
<path d="M77.8711 0H81.67V5.75133H77.8711V0ZM77.9504 9.56657H81.5884V29.4332H77.9504V9.56657Z" fill="black"/>
<path d="M53.2031 3.46875H56.8435V29.4352H53.2031V3.46875Z" fill="black"/>
<path d="M175.715 12.11L184.55 7.39505L183.066 4.55469L174.972 7.81416C174.764 7.89851 174.532 7.89851 174.324 7.81416L166.23 4.55469L164.742 7.40416L173.577 12.1191L164.742 16.8341L166.23 19.6835L174.324 16.399C174.532 16.3147 174.764 16.3147 174.972 16.399L183.066 19.6676L184.554 16.8181L175.715 12.11Z" fill="#23F7DD"/>
<path d="M231.414 74.1836H198.115C198.518 81.6388 203.867 87.4726 211.725 87.4726C219.584 87.4726 222.99 83.1788 223.637 81.8834H230.93C230.282 85.3665 225.177 94.2802 211.73 94.2802C199.333 94.2802 190.664 85.0449 190.664 73.2958C190.664 61.5468 199.333 52.3115 211.001 52.3115C222.668 52.3115 231.419 61.0622 231.419 74.1881L231.414 74.1836ZM198.599 68.0282H223.23C221.364 61.9499 217.07 58.6299 210.996 58.6299C204.515 58.6299 200.139 62.1945 198.599 68.0282Z" fill="black"/>
<path d="M249.618 75.7235C241.922 74.8313 236.492 71.1852 236.492 63.816C236.492 56.4468 243.136 52.1484 252.938 52.1484C266.467 52.1484 270.842 59.1145 272.138 63.1683H264.279C263.387 62.1129 260.388 58.4668 252.938 58.4668C246.859 58.4668 243.784 60.6545 243.784 63.5714C243.784 66.4883 245.809 68.1913 250.592 68.7574C253.753 69.1605 255.696 69.3236 259.179 69.7312C268.659 70.9451 272.708 74.9988 272.708 82.3726C272.708 89.0986 266.553 94.4432 255.207 94.4432C241.112 94.4432 236.166 85.7741 235.273 82.128H243.132C243.535 83.4234 246.778 87.9617 255.202 87.9617C262.01 87.9617 265.33 85.5295 265.33 82.3726C265.33 79.2156 263.627 77.3496 258.201 76.7019L249.613 75.7281L249.618 75.7235Z" fill="black"/>
<path d="M54.9505 93.3072H47.6719V53.6032H54.9505V60.8818C56.0692 58.0011 59.43 53.2861 68.706 53.2861H72.9726V60.5647H68.5475C58.3928 60.5647 54.955 63.9663 54.955 71.0003V93.3117L54.9505 93.3072Z" fill="black"/>
<path d="M0 47.7744H23.4166C33.3811 47.7744 38.6487 52.3128 38.6487 60.0896C38.6487 64.9496 35.1656 68.2741 31.6826 69.3249C35.9764 70.5388 39.704 74.3479 39.704 80.2632C39.704 88.2846 34.4364 93.3076 23.8242 93.3076H0.00453028V47.7744H0ZM7.45526 54.4189V66.5711H22.8504C28.2765 66.5711 30.9533 64.5465 30.9533 60.4927C30.9533 56.439 28.281 54.4144 22.8504 54.4144H7.45526V54.4189ZM7.45526 73.1341V86.6631H23.2535C29.3318 86.6631 32.0857 84.1539 32.0857 79.8556C32.0857 75.5572 29.1688 73.1295 23.2535 73.1295H7.45526V73.1341Z" fill="black"/>
<path d="M77.9531 34H85.6484V45.586H77.9531V34ZM78.1162 53.2813H85.4899V93.3069H78.1162V53.2813Z" fill="black"/>
<path d="M127.191 86.4223C126.135 88.3654 121.76 94.2807 112.606 94.2807C101.913 94.2807 92.8359 86.5038 92.8359 73.2964C92.8359 60.0889 101.908 52.312 112.606 52.312C121.679 52.312 126.135 57.7427 127.191 59.9258V41.6953H134.565V93.3069H127.191V86.4223V86.4223ZM113.983 59.1196C105.799 59.1196 100.454 65.1979 100.454 73.2964C100.454 81.3948 105.803 87.4731 113.983 87.4731C122.163 87.4731 127.349 81.3948 127.349 73.2964C127.349 65.1979 122 59.1196 113.983 59.1196Z" fill="black"/>
<path d="M176.421 86.4985C175.366 88.6046 170.991 94.3568 161.837 94.3568C151.143 94.3568 142.066 86.58 142.066 73.3725C142.066 60.165 151.139 52.3066 161.837 52.3066C170.909 52.3066 175.366 57.8143 176.421 60.0019V53.2759H183.795V91.4943C183.795 102.754 176.503 110.617 162.811 110.617C147.257 110.617 143.04 100.49 142.393 97.9757H150.495C151.062 98.9495 153.897 103.809 162.811 103.809C171.724 103.809 176.421 99.2711 176.421 91.4943V86.4985ZM163.214 59.1142C155.029 59.1142 149.685 65.2695 149.685 73.3725C149.685 81.4754 155.034 87.5493 163.214 87.5493C171.394 87.5493 176.58 81.2309 176.58 73.3725C176.58 65.5141 171.231 59.1142 163.214 59.1142V59.1142Z" fill="black"/>
</svg>
