<svg width="224" height="107" viewBox="0 0 224 107" fill="none" xmlns="http://www.w3.org/2000/svg">
<path d="M12.8374 24.1758L20.0864 6.84212H25.4846V29.442H21.9168V10.3089L13.918 29.5627H11.3582L3.42966 10.4296V29.4511H0V6.83301H5.63832L12.8374 24.1758Z" fill="black"/>
<path d="M44.9566 25.7843C44.3443 27.0169 43.4025 28.0535 42.2369 28.7777C41.0713 29.5019 39.728 29.8851 38.3578 29.8843C33.4398 29.8843 30.0781 26.1442 30.0781 21.0011V9.57812H33.7502V20.3155C33.7502 24.0533 35.8682 26.5064 39.2299 26.5064C42.7072 26.5064 44.9475 23.9735 44.9475 20.3155V9.57812H48.5879V29.4424H44.9566V25.7843Z" fill="black"/>
<path d="M75.1518 29.4418H70.4717C65.8732 29.4418 63.5535 27.2301 63.5535 22.8067V12.8734H59.2109V9.57747H63.5535V4.56641H67.1938V9.57747H75.1518V12.8734H67.1938V21.9616C67.1938 24.8566 68.1136 26.0616 71.2714 26.0616H75.1496L75.1518 29.4418Z" fill="black"/>
<path d="M96.2375 29.8046H93.3289L84.0117 9.57812H88.0893L94.8851 24.8983L101.645 9.57812H105.403L96.2375 29.8046Z" fill="black"/>
<path d="M125.517 19.9535H109.078C109.28 23.6525 111.919 26.5589 115.799 26.5589C119.757 26.5589 121.356 24.427 121.677 23.7846H125.273C124.953 25.5135 122.432 29.9346 115.795 29.9346C109.678 29.9346 105.395 25.3495 105.395 19.5184C105.395 13.5279 109.674 9.10451 115.434 9.10451C121.238 9.0954 125.517 13.4391 125.517 19.9535ZM109.318 16.8967H121.478C120.556 13.881 118.438 12.2319 115.439 12.2319C112.238 12.2319 110.079 14.0017 109.318 16.8967Z" fill="black"/>
<path d="M132.683 29.442H129.043V9.57774H132.683V13.2358C133.243 11.7872 134.921 9.41602 139.561 9.41602H141.695V13.0741H139.481C134.403 13.0741 132.686 14.6845 132.686 18.2218L132.683 29.442Z" fill="black"/>
<path d="M149.704 20.7272C145.905 20.2716 143.225 18.4631 143.225 14.805C143.225 11.3064 146.505 9.0127 151.344 9.0127C158.024 9.0127 160.178 12.4726 160.822 14.4793H156.944C156.504 13.9554 155.023 12.1469 151.344 12.1469C148.344 12.1469 146.813 13.2311 146.813 14.6797C146.813 16.0874 147.814 16.9712 150.173 17.2536C151.733 17.4541 152.692 17.5338 154.413 17.7365C159.091 18.3378 161.091 20.3491 161.091 24.0094C161.091 27.3463 158.051 29.9999 152.451 29.9999C145.495 29.9999 143.053 25.6972 142.613 23.8887H146.494C146.693 24.531 148.292 26.7837 152.451 26.7837C155.811 26.7837 157.451 25.5765 157.451 24.0094C157.451 22.4423 156.611 21.5039 153.933 21.1941L149.704 20.7272Z" fill="black"/>
<path d="M77.8711 0H81.67V5.75133H77.8711V0ZM77.9504 9.56657H81.5884V29.4332H77.9504V9.56657Z" fill="black"/>
<path d="M53.2031 3.46875H56.8435V29.4352H53.2031V3.46875Z" fill="black"/>
<path d="M175.715 12.11L184.55 7.39505L183.066 4.55469L174.972 7.81416C174.764 7.89851 174.532 7.89851 174.324 7.81416L166.23 4.55469L164.742 7.40416L173.577 12.1191L164.742 16.8341L166.23 19.6835L174.324 16.399C174.532 16.3147 174.764 16.3147 174.972 16.399L183.066 19.6676L184.554 16.8181L175.715 12.11Z" fill="#23F7DD"/>
<path d="M0.396484 90.9998H21.0685C32.0885 90.9998 38.9285 85.0718 38.9285 75.4198C38.9285 68.1238 34.9005 63.7918 29.6565 61.8918C33.0765 60.3718 36.4965 56.4198 36.4965 51.4798C36.4965 42.7398 30.0365 37.7998 20.0805 37.7998H0.396484V90.9998ZM8.22448 59.3078V44.4118H19.6245C25.6285 44.4118 28.8205 46.9958 28.8205 51.8598C28.8205 56.7998 25.6285 59.3078 19.7005 59.3078H8.22448ZM8.22448 84.0078V66.2238H20.0045C27.4525 66.2238 31.1005 69.3398 31.1005 75.1158C31.1005 80.8918 27.4525 84.0078 20.0045 84.0078H8.22448Z" fill="black"/>
<path d="M79.8307 52.6958H72.4587V73.4438C72.4587 80.1318 68.2027 84.9958 62.1987 84.9958C56.8027 84.9958 53.2307 80.8918 53.2307 74.8118V52.6958H45.8587V76.2558C45.8587 85.3758 51.4827 91.6078 60.1467 91.6078C65.8467 91.6078 70.4067 89.0238 72.4587 84.2358V90.9998H79.8307V52.6958Z" fill="black"/>
<path d="M119.981 52.6958H112.381L102.273 81.4238L92.2407 52.6958H84.6407L98.8527 91.3798L93.6847 106.504H100.753L106.529 89.6318L119.981 52.6958Z" fill="black"/>
</svg>
