<svg width="225" height="91" viewBox="0 0 225 91" fill="none" xmlns="http://www.w3.org/2000/svg">
<path d="M13.8374 24.1758L21.0864 6.84212H26.4846V29.442H22.9168V10.3089L14.918 29.5627H12.3582L4.42966 10.4296V29.4511H1V6.83301H6.63832L13.8374 24.1758Z" fill="black"/>
<path d="M45.9566 25.7843C45.3443 27.0169 44.4025 28.0535 43.2369 28.7777C42.0713 29.5019 40.728 29.8851 39.3578 29.8843C34.4398 29.8843 31.0781 26.1442 31.0781 21.0011V9.57812H34.7502V20.3155C34.7502 24.0533 36.8682 26.5064 40.2299 26.5064C43.7072 26.5064 45.9475 23.9735 45.9475 20.3155V9.57812H49.5879V29.4424H45.9566V25.7843Z" fill="black"/>
<path d="M76.1518 29.4418H71.4717C66.8732 29.4418 64.5535 27.2301 64.5535 22.8067V12.8734H60.2109V9.57747H64.5535V4.56641H68.1938V9.57747H76.1518V12.8734H68.1938V21.9616C68.1938 24.8566 69.1136 26.0616 72.2714 26.0616H76.1496L76.1518 29.4418Z" fill="black"/>
<path d="M97.2375 29.8046H94.3289L85.0117 9.57812H89.0893L95.8851 24.8983L102.645 9.57812H106.403L97.2375 29.8046Z" fill="black"/>
<path d="M126.517 19.9535H110.078C110.28 23.6525 112.919 26.5589 116.799 26.5589C120.757 26.5589 122.356 24.427 122.677 23.7846H126.273C125.953 25.5135 123.432 29.9346 116.795 29.9346C110.678 29.9346 106.395 25.3495 106.395 19.5184C106.395 13.5279 110.674 9.10451 116.434 9.10451C122.238 9.0954 126.517 13.4391 126.517 19.9535ZM110.318 16.8967H122.478C121.556 13.881 119.438 12.2319 116.439 12.2319C113.238 12.2319 111.079 14.0017 110.318 16.8967Z" fill="black"/>
<path d="M133.683 29.442H130.043V9.57774H133.683V13.2358C134.243 11.7872 135.921 9.41602 140.561 9.41602H142.695V13.0741H140.481C135.403 13.0741 133.686 14.6845 133.686 18.2218L133.683 29.442Z" fill="black"/>
<path d="M150.704 20.7272C146.905 20.2716 144.225 18.4631 144.225 14.805C144.225 11.3064 147.505 9.0127 152.344 9.0127C159.024 9.0127 161.178 12.4726 161.822 14.4793H157.944C157.504 13.9554 156.023 12.1469 152.344 12.1469C149.344 12.1469 147.813 13.2311 147.813 14.6797C147.813 16.0874 148.814 16.9712 151.173 17.2536C152.733 17.4541 153.692 17.5338 155.413 17.7365C160.091 18.3378 162.091 20.3491 162.091 24.0094C162.091 27.3463 159.051 29.9999 153.451 29.9999C146.495 29.9999 144.053 25.6972 143.613 23.8887H147.494C147.693 24.531 149.292 26.7837 153.451 26.7837C156.811 26.7837 158.451 25.5765 158.451 24.0094C158.451 22.4423 157.611 21.5039 154.933 21.1941L150.704 20.7272Z" fill="black"/>
<path d="M78.8711 0H82.67V5.75133H78.8711V0ZM78.9504 9.56657H82.5884V29.4332H78.9504V9.56657Z" fill="black"/>
<path d="M54.2031 3.46875H57.8435V29.4352H54.2031V3.46875Z" fill="black"/>
<path d="M176.715 12.11L185.55 7.39505L184.066 4.55469L175.972 7.81416C175.764 7.89851 175.532 7.89851 175.324 7.81416L167.23 4.55469L165.742 7.40416L174.577 12.1191L165.742 16.8341L167.23 19.6835L175.324 16.399C175.532 16.3147 175.764 16.3147 175.972 16.399L184.066 19.6676L185.554 16.8181L176.715 12.11Z" fill="#23F7DD"/>
<path d="M34.4139 55.6471L22.4283 90.2563H16.1161L0.851562 44.138H8.92387L19.7927 78.3411L31.4611 43.8916H37.8537L49.6026 78.583L60.5473 44.138H67.82L52.9575 90.2609H46.3236L34.4184 55.6516L34.4139 55.6471Z" fill="black"/>
<path d="M85.8838 64.7105H99.3883C99.3883 58.5088 94.7513 55.1592 88.2828 55.1592C81.8142 55.1592 79.0936 58.9149 78.4548 60.2201H71.1018C72.1426 55.4056 77.414 48.6289 88.2828 48.6289C99.7904 48.6289 106.344 55.2414 106.344 64.6284V79.5646C106.344 82.4213 107.304 83.4846 109.86 83.7265V90.4211C104.186 90.2568 100.751 88.1348 99.71 84.1372C97.7935 87.1582 93.639 90.9139 86.6031 90.9139C77.2531 90.9139 69.9805 85.6066 69.9805 77.2829C69.9805 68.9591 75.9755 64.7105 85.8838 64.7105V64.7105ZM99.3883 74.7501V70.5883H86.2055C80.7733 70.5883 77.2531 72.7924 77.2531 77.2829C77.2531 81.7733 81.5685 84.7122 87.2419 84.7122C93.6345 84.7122 99.3883 81.5269 99.3883 74.7547V74.7501Z" fill="black"/>
<path d="M116.855 38H124.128V90.0143H116.855V38Z" fill="black"/>
<path d="M133.941 38H141.214V90.0143H133.941V38Z" fill="black"/>
<path d="M188.664 70.7518H155.821C156.219 78.2632 161.495 84.141 169.245 84.141C176.996 84.141 180.351 79.8148 180.994 78.5097H188.186C187.548 82.019 182.513 90.9998 169.25 90.9998C157.023 90.9998 148.473 81.695 148.473 69.8573C148.473 58.0197 157.023 48.7148 168.531 48.7148C180.038 48.7148 188.669 57.5314 188.669 70.7563L188.664 70.7518ZM156.299 64.55H180.592C178.756 58.4259 174.521 55.0809 168.526 55.0809C162.133 55.0809 157.818 58.6723 156.299 64.55V64.55Z" fill="black"/>
<path d="M224.997 90.0139H215.647C206.458 90.0139 201.821 85.5235 201.821 76.5426V56.3812H190.152V49.6866H201.821V40.1992H209.093V49.6866H224.997V56.3812H209.093V74.8313C209.093 80.709 210.929 83.1596 217.246 83.1596H224.997V90.0185V90.0139Z" fill="black"/>
</svg>
