<svg width="3800" height="1250" viewBox="0 0 3800 1250" fill="none" xmlns="http://www.w3.org/2000/svg">
<path d="M869.822 518.661C870.625 518.659 871.395 518.977 871.963 519.543C872.531 520.11 872.851 520.879 872.851 521.682V647.195C872.851 706.681 835.57 736 786.41 736C737.258 736 699.97 706.681 699.97 647.195V521.63C699.968 520.825 700.287 520.053 700.857 519.484C701.427 518.916 702.201 518.598 703.006 518.602H732.203C733.871 518.602 735.224 519.955 735.224 521.623V644.985C735.224 686.496 756.919 702.96 786.565 702.96C816.219 702.96 837.663 686.496 837.663 644.985V521.63C837.661 520.828 837.978 520.058 838.545 519.49C839.112 518.922 839.882 518.602 840.684 518.602L869.822 518.661ZM1381.58 625.471C1381.28 688.308 1333.31 735.941 1270.7 735.941C1208.1 735.941 1159.82 688.316 1159.82 625.471C1159.82 562.626 1208.1 515 1270.69 515C1333.3 515 1381.27 562.626 1381.57 625.471H1381.58ZM1194.65 625.471C1194.65 670.009 1227.33 702.96 1270.7 702.96C1314.07 702.96 1346.42 670.009 1346.42 625.463C1346.42 580.932 1313.74 547.981 1270.7 547.981C1227.66 547.981 1194.65 580.932 1194.65 625.471ZM1684.99 732.28H1654.71C1653.74 732.25 1652.84 731.758 1652.29 730.956C1651.75 730.154 1651.62 729.14 1651.95 728.228L1731.93 521.807C1732.6 520.088 1734.25 518.956 1736.09 518.956H1773.92C1775.76 518.948 1777.41 520.081 1778.07 521.799L1858.11 728.339C1858.44 729.251 1858.31 730.267 1857.77 731.07C1857.22 731.872 1856.32 732.364 1855.35 732.39H1825.01C1823.77 732.374 1822.67 731.607 1822.22 730.453L1757.71 560.504C1757.23 559.407 1756.14 558.699 1754.94 558.699C1753.74 558.699 1752.65 559.407 1752.17 560.504L1687.66 730.453C1687.2 731.522 1686.16 732.23 1684.99 732.272V732.28ZM474.215 732.28H443.928C442.96 732.248 442.066 731.754 441.522 730.953C440.978 730.152 440.851 729.139 441.179 728.228L521.164 521.807C521.818 520.085 523.471 518.95 525.313 518.956H563.139C564.981 518.956 566.625 520.09 567.288 521.799L647.214 728.339C647.546 729.251 647.419 730.267 646.873 731.07C646.327 731.872 645.428 732.364 644.458 732.39H614.17C612.933 732.374 611.83 731.607 611.385 730.453L546.905 560.379C546.42 559.281 545.334 558.574 544.134 558.574C542.934 558.574 541.847 559.281 541.363 560.379L476.853 730.328C476.431 731.437 475.4 732.197 474.215 732.272V732.28ZM1596.1 727.469L1536.11 650.915C1569.97 644.506 1589.77 621.655 1589.77 586.619C1589.77 546.375 1563.54 518.963 1517.09 518.963H1433.49C1431.03 518.963 1429.04 520.955 1429.04 523.413C1429.04 530.967 1432.05 538.211 1437.39 543.551C1442.74 548.891 1449.99 551.889 1457.54 551.885H1513.54C1541.59 551.885 1555 566.198 1555 586.921C1555 607.651 1541.88 622.266 1513.54 622.266H1433.49C1431.03 622.266 1429.04 624.254 1429.04 626.708V729.311C1429.04 730.983 1430.4 732.339 1432.07 732.339H1460.6C1462.27 732.339 1463.62 730.987 1463.62 729.318V652.705H1496.58L1548.68 720.626C1554.28 727.952 1562.98 732.25 1572.21 732.25H1593.89C1594.98 732.162 1595.93 731.493 1596.39 730.501C1596.85 729.51 1596.74 728.348 1596.1 727.462V727.469ZM1111.72 727.469L1051.73 650.915C1085.59 644.506 1105.43 621.655 1105.43 586.619C1105.43 546.375 1079.19 518.963 1032.74 518.963H949.114C946.656 518.963 944.663 520.955 944.663 523.413C944.684 539.135 957.432 551.873 973.16 551.885H1029.17C1057.24 551.885 1070.65 566.198 1070.65 586.921C1070.65 607.651 1057.54 622.266 1029.17 622.266H949.114C946.659 622.266 944.667 624.254 944.663 626.708V729.311C944.663 730.983 946.019 732.339 947.692 732.339H976.255C977.924 732.339 979.276 730.987 979.276 729.318V652.705H1012.2L1064.3 720.626C1069.92 727.94 1078.61 732.235 1087.83 732.25H1109.51C1110.6 732.162 1111.56 731.493 1112.02 730.501C1112.47 729.51 1112.36 728.348 1111.72 727.462V727.469Z" fill="white"/>
<path d="M2033 611.825C2034.34 613.428 2037.45 612.55 2037.45 610.465V552.656C2037.45 551.552 2038.35 550.656 2039.45 550.656H2057.02C2058.12 550.656 2059.02 551.552 2059.02 552.656V731C2059.02 732.105 2058.12 733 2057.02 733H2039.45C2038.35 733 2037.45 732.105 2037.45 731V724.211C2037.45 722.146 2034.43 721.278 2033.12 722.868C2030.26 726.325 2026.9 729.155 2023.04 731.359C2017.1 734.719 2010.23 736.398 2002.41 736.398C1986.55 736.398 1974.05 730.266 1964.91 718C1955.85 705.656 1951.32 688.664 1951.32 667.023C1951.32 645.695 1955.89 628.977 1965.03 616.867C1974.17 604.68 1986.63 598.586 2002.41 598.586C2010.3 598.586 2017.26 600.305 2023.27 603.742C2027.02 605.832 2030.26 608.526 2033 611.825ZM1974.05 667.492C1974.05 684.211 1976.71 696.828 1982.02 705.344C1987.34 713.859 1995.19 718.117 2005.58 718.117C2015.97 718.117 2023.86 713.82 2029.25 705.227C2034.72 696.633 2037.45 684.055 2037.45 667.492C2037.45 650.852 2034.72 638.273 2029.25 629.758C2023.86 621.164 2015.97 616.867 2005.58 616.867C1995.19 616.867 1987.34 621.125 1982.02 629.641C1976.71 638.156 1974.05 650.773 1974.05 667.492Z" fill="#5DEB5A"/>
<path d="M2212.77 656.594V665.141C2212.77 666.245 2211.87 667.141 2210.77 667.141H2120.07C2119.68 667.141 2119.37 667.455 2119.37 667.844C2118.74 685.734 2122.14 698.586 2129.56 706.398C2137.06 714.211 2147.61 718.117 2161.2 718.117C2168.08 718.117 2175.27 717.023 2182.77 714.836C2189.4 712.902 2196.42 710.083 2203.85 706.378C2205.19 705.707 2206.79 706.675 2206.79 708.178V724.978C2206.79 725.79 2206.3 726.522 2205.54 726.824C2197.78 729.931 2190.27 732.263 2183 733.82C2175.42 735.539 2168.08 736.398 2160.97 736.398C2140.58 736.398 2124.64 730.305 2113.16 718.117C2101.67 705.852 2095.93 688.977 2095.93 667.492C2095.93 646.555 2101.55 629.836 2112.8 617.336C2124.05 604.836 2139.05 598.586 2157.8 598.586C2174.52 598.586 2187.69 604.25 2197.3 615.578C2206.98 626.906 2212.14 640.578 2212.77 656.594ZM2188.99 650.269C2190.17 650.267 2191.1 649.24 2190.93 648.069C2189.71 639.935 2186.48 632.854 2181.24 626.828C2175.62 620.188 2167.49 616.867 2156.87 616.867C2146.48 616.867 2137.92 620.305 2131.2 627.18C2125.05 633.478 2121.45 640.498 2120.41 648.24C2120.25 649.393 2121.18 650.381 2122.34 650.379L2188.99 650.269Z" fill="#5DEB5A"/>
<path d="M2238.79 604.42C2238.33 603.118 2239.3 601.75 2240.68 601.75H2258.8C2259.65 601.75 2260.41 602.291 2260.69 603.096L2296.43 706.448C2297.05 708.242 2299.58 708.243 2300.2 706.449L2336.05 603.095C2336.33 602.29 2337.09 601.75 2337.94 601.75H2356.07C2357.45 601.75 2358.41 603.118 2357.95 604.42L2312.73 731.67C2312.45 732.467 2311.69 733 2310.85 733H2285.9C2285.05 733 2284.3 732.467 2284.01 731.67L2238.79 604.42Z" fill="#5DEB5A"/>
<path d="M2501.98 656.594V665.141C2501.98 666.245 2501.09 667.141 2499.98 667.141H2409.29C2408.9 667.141 2408.59 667.455 2408.59 667.844C2407.96 685.734 2411.36 698.586 2418.78 706.398C2426.28 714.211 2436.83 718.117 2450.42 718.117C2457.3 718.117 2464.48 717.023 2471.98 714.836C2478.61 712.902 2485.64 710.083 2493.07 706.378C2494.41 705.707 2496.01 706.675 2496.01 708.178V724.978C2496.01 725.79 2495.52 726.522 2494.76 726.824C2487 729.931 2479.49 732.263 2472.22 733.82C2464.64 735.539 2457.3 736.398 2450.19 736.398C2429.8 736.398 2413.86 730.305 2402.38 718.117C2390.89 705.852 2385.15 688.977 2385.15 667.492C2385.15 646.555 2390.77 629.836 2402.02 617.336C2413.27 604.836 2428.27 598.586 2447.02 598.586C2463.74 598.586 2476.91 604.25 2486.52 615.578C2496.2 626.906 2501.36 640.578 2501.98 656.594ZM2478.21 650.269C2479.39 650.267 2480.32 649.24 2480.14 648.069C2478.93 639.935 2475.7 632.854 2470.46 626.828C2464.84 620.188 2456.71 616.867 2446.09 616.867C2435.7 616.867 2427.14 620.305 2420.42 627.18C2414.27 633.478 2410.67 640.498 2409.63 648.24C2409.47 649.393 2410.4 650.381 2411.56 650.379L2478.21 650.269Z" fill="#5DEB5A"/>
<path d="M2599.6 685.539C2599.6 695.227 2601.36 702.531 2604.88 707.453C2608.47 712.375 2613.74 714.836 2620.7 714.836H2643.89C2645 714.836 2645.89 715.731 2645.89 716.836V731C2645.89 732.105 2645 733 2643.89 733H2618.59C2605.7 733 2595.7 728.898 2588.59 720.695C2581.55 712.414 2578.04 700.695 2578.04 685.539V568.828C2578.04 567.724 2577.14 566.828 2576.04 566.828H2545.47C2544.36 566.828 2543.47 565.933 2543.47 564.828V551.953C2543.47 550.849 2544.36 549.953 2545.47 549.953H2597.6C2598.71 549.953 2599.6 550.849 2599.6 551.953V685.539Z" fill="#5DEB5A"/>
<path d="M2732.14 616.867C2721.2 616.867 2712.92 621.125 2707.3 629.641C2701.67 638.156 2698.86 650.773 2698.86 667.492C2698.86 684.133 2701.67 696.75 2707.3 705.344C2712.92 713.859 2721.2 718.117 2732.14 718.117C2743.16 718.117 2751.48 713.859 2757.1 705.344C2762.73 696.75 2765.54 684.133 2765.54 667.492C2765.54 650.773 2762.73 638.156 2757.1 629.641C2751.48 621.125 2743.16 616.867 2732.14 616.867ZM2732.14 598.586C2750.34 598.586 2764.25 604.484 2773.86 616.281C2783.55 628.078 2788.39 645.148 2788.39 667.492C2788.39 689.914 2783.59 707.023 2773.98 718.82C2764.37 730.539 2750.42 736.398 2732.14 736.398C2713.94 736.398 2700.03 730.539 2690.42 718.82C2680.81 707.023 2676.01 689.914 2676.01 667.492C2676.01 645.148 2680.81 628.078 2690.42 616.281C2700.03 604.484 2713.94 598.586 2732.14 598.586Z" fill="#5DEB5A"/>
<path d="M2852.94 723.173C2851.62 721.562 2848.51 722.435 2848.51 724.519V780.922C2848.51 782.026 2847.61 782.922 2846.51 782.922H2828.83C2827.72 782.922 2826.83 782.026 2826.83 780.922V603.75C2826.83 602.645 2827.72 601.75 2828.83 601.75H2846.51C2847.61 601.75 2848.51 602.645 2848.51 603.75V610.773C2848.51 612.838 2851.53 613.705 2852.84 612.115C2855.68 608.684 2859 605.893 2862.8 603.742C2868.82 600.305 2875.73 598.586 2883.55 598.586C2899.41 598.586 2911.83 604.719 2920.81 616.984C2929.88 629.25 2934.41 646.242 2934.41 667.961C2934.41 689.289 2929.88 706.047 2920.81 718.234C2911.75 730.344 2899.33 736.398 2883.55 736.398C2875.58 736.398 2868.59 734.719 2862.57 731.359C2858.88 729.22 2855.67 726.492 2852.94 723.173ZM2911.79 667.492C2911.79 650.773 2909.13 638.156 2903.82 629.641C2898.59 621.125 2890.77 616.867 2880.38 616.867C2869.91 616.867 2861.98 621.164 2856.59 629.758C2851.2 638.273 2848.51 650.852 2848.51 667.492C2848.51 684.055 2851.2 696.633 2856.59 705.227C2861.98 713.82 2869.91 718.117 2880.38 718.117C2890.77 718.117 2898.59 713.859 2903.82 705.344C2909.13 696.828 2911.79 684.211 2911.79 667.492Z" fill="#5DEB5A"/>
<path d="M3080.42 656.594V665.141C3080.42 666.245 3079.53 667.141 3078.42 667.141H2987.73C2987.34 667.141 2987.02 667.455 2987.02 667.844C2986.4 685.734 2989.8 698.586 2997.22 706.398C3004.72 714.211 3015.27 718.117 3028.86 718.117C3035.73 718.117 3042.92 717.023 3050.42 714.836C3057.05 712.902 3064.08 710.083 3071.5 706.378C3072.85 705.707 3074.45 706.675 3074.45 708.178V724.978C3074.45 725.79 3073.95 726.522 3073.2 726.824C3065.44 729.931 3057.92 732.263 3050.66 733.82C3043.08 735.539 3035.73 736.398 3028.62 736.398C3008.23 736.398 2992.3 730.305 2980.81 718.117C2969.33 705.852 2963.59 688.977 2963.59 667.492C2963.59 646.555 2969.21 629.836 2980.46 617.336C2991.71 604.836 3006.71 598.586 3025.46 598.586C3042.18 598.586 3055.34 604.25 3064.95 615.578C3074.64 626.906 3079.8 640.578 3080.42 656.594ZM3056.65 650.269C3057.83 650.267 3058.76 649.24 3058.58 648.069C3057.36 639.935 3054.14 632.854 3048.9 626.828C3043.27 620.188 3035.15 616.867 3024.52 616.867C3014.13 616.867 3005.58 620.305 2998.86 627.18C2992.7 633.478 2989.11 640.498 2988.07 648.24C2987.91 649.393 2988.84 650.381 2990 650.379L3056.65 650.269Z" fill="#5DEB5A"/>
<path d="M3229.13 624.725C3229.13 626.39 3227.2 627.344 3225.82 626.414C3222.28 624.033 3218.7 622.218 3215.07 620.969C3210.3 619.328 3205.07 618.508 3199.37 618.508C3185.93 618.508 3175.66 622.727 3168.55 631.164C3161.44 639.602 3157.88 651.789 3157.88 667.727V731C3157.88 732.105 3156.99 733 3155.88 733H3138.2C3137.1 733 3136.2 732.105 3136.2 731V603.75C3136.2 602.645 3137.1 601.75 3138.2 601.75H3155.88C3156.99 601.75 3157.88 602.645 3157.88 603.75V616.693C3157.88 618.908 3161.52 619.728 3162.73 617.876C3165.88 613.092 3169.77 609.162 3174.41 606.086C3181.91 601.086 3190.77 598.586 3201.01 598.586C3206.32 598.586 3211.28 599.25 3215.89 600.578C3220.17 601.812 3224.29 603.688 3228.24 606.204C3228.8 606.564 3229.13 607.191 3229.13 607.859V624.725Z" fill="#5DEB5A"/>
<path d="M3351.17 605.818C3351.93 606.117 3352.41 606.849 3352.41 607.659V623.935C3352.41 625.478 3350.74 626.445 3349.38 625.719C3344.2 622.961 3339.01 620.83 3333.78 619.328C3327.53 617.531 3321.16 616.633 3314.68 616.633C3304.91 616.633 3297.61 618.234 3292.77 621.438C3288 624.562 3285.62 629.367 3285.62 635.852C3285.62 641.711 3287.41 646.086 3291.01 648.977C3294.6 651.867 3303.55 654.68 3317.84 657.414L3326.52 659.055C3337.22 661.086 3345.3 665.148 3350.77 671.242C3356.32 677.336 3359.09 685.266 3359.09 695.031C3359.09 708 3354.48 718.156 3345.27 725.5C3336.05 732.766 3323.23 736.398 3306.83 736.398C3300.34 736.398 3293.55 735.695 3286.44 734.289C3279.72 733.035 3272.49 731.153 3264.73 728.645C3263.91 728.379 3263.35 727.612 3263.35 726.749V709.208C3263.35 707.711 3264.94 706.743 3266.28 707.4C3273.27 710.818 3279.99 713.453 3286.44 715.305C3293.78 717.336 3300.73 718.352 3307.3 718.352C3316.83 718.352 3324.21 716.438 3329.45 712.609C3334.68 708.703 3337.3 703.273 3337.3 696.32C3337.3 686.32 3327.73 679.406 3308.59 675.578L3307.65 675.344L3299.56 673.703C3287.14 671.281 3278.08 667.219 3272.38 661.516C3266.67 655.734 3263.82 647.883 3263.82 637.961C3263.82 625.383 3268.08 615.695 3276.59 608.898C3285.11 602.023 3297.26 598.586 3313.04 598.586C3320.07 598.586 3326.83 599.25 3333.31 600.578C3339.37 601.746 3345.32 603.492 3351.17 605.818Z" fill="#5DEB5A"/>
</svg>
