<?xml version="1.0" encoding="utf-8"?>
<!-- Generator: Adobe Illustrator 16.0.0, SVG Export Plug-In . SVG Version: 6.00 Build 0)  -->
<!DOCTYPE svg PUBLIC "-//W3C//DTD SVG 1.1//EN" "http://www.w3.org/Graphics/SVG/1.1/DTD/svg11.dtd">
<svg version="1.1" id="Layer_1" xmlns="http://www.w3.org/2000/svg" xmlns:xlink="http://www.w3.org/1999/xlink" x="0px" y="0px"
	 width="500px" height="500px" viewBox="0 0 500 500" enable-background="new 0 0 500 500" xml:space="preserve">
<circle fill="#238BCA" cx="154.952" cy="81.047" r="27.972"/>
<circle fill="#238BCA" cx="84.875" cy="154.815" r="27.972"/>
<circle fill="#238BCA" cx="56.908" cy="250.708" r="27.972"/>
<circle fill="#238BCA" cx="84.875" cy="346.605" r="27.972"/>
<circle fill="#238BCA" cx="154.952" cy="420.367" r="27.972"/>
<path fill="#28377B" d="M394.158,221.246c8.601-0.063,15.833,6.428,16.699,14.98c0.472,4.864,0.722,9.785,0.722,14.771
	c0,91.26-74.257,165.504-165.519,165.486c-13.063,0-25.063,8.692-28.541,21.282c-5.542,20.056,9.396,38.202,28.575,38.202
	c124.038,0,224.967-100.923,224.967-224.972c0-124.051-100.922-224.968-224.967-224.968c-18.964,0-33.785,17.748-28.755,37.535
	c3.322,13.064,15.945,21.893,29.428,21.95c43.03,0.173,82.125,16.989,111.497,44.167c8.583,10.828,8.724,27.242-0.508,38.221
	c-10.522,12.503-33.292,12.849-45.789,2.316c-0.205-0.104-0.42-0.191-0.645-0.259c-23.53-19.161-54.286-27.03-84.129-21.528
	c-41.604,7.432-75.472,40.539-83.383,82.044c-12.688,66.574,38,124.775,102.284,124.775c41.081-0.005,78.322-24.144,95.099-61.643
	c2.05-4.628-0.04-10.039-4.668-12.089c-1.157-0.513-2.408-0.78-3.674-0.783h-85.505c-12.995,0-25.531-7.659-29.461-20.05
	c-6.516-20.537,8.643-39.413,28.209-39.413L394.158,221.246z"/>
</svg>
