<?xml version="1.0" encoding="utf-8"?>
<!-- Generator: Adobe Illustrator 27.5.0, SVG Export Plug-In . SVG Version: 6.00 Build 0)  -->
<svg version="1.1" id="Layer_1" xmlns="http://www.w3.org/2000/svg" xmlns:xlink="http://www.w3.org/1999/xlink" x="0px" y="0px"
	 viewBox="0 0 500 500" style="enable-background:new 0 0 500 500;" xml:space="preserve">
<style type="text/css">
	.st0{fill:url(#Path_6310-2_00000137098431075855803940000005511852772023882140_);}
	.st1{fill:#99D4C0;}
</style>
<g id="logo" transform="translate(-64.228 -26.317)">
	<g id="icon" transform="translate(-63 -44)">
		<g id="Group_6837" transform="translate(136.911 77)">
			<g transform="matrix(1, 0, 0, 1, -9.68, -6.68)">
				
					<radialGradient id="Path_6310-2_00000173121074844530049120000018389402242832602267_" cx="9.6637" cy="502.7224" r="6.718" gradientTransform="matrix(17.6468 30.5652 31.2087 -18.0184 -15611.1846 9004.3408)" gradientUnits="userSpaceOnUse">
					<stop  offset="0" style="stop-color:#979797"/>
					<stop  offset="1" style="stop-color:#CFD9EF"/>
				</radialGradient>
				<path id="Path_6310-2" style="fill:url(#Path_6310-2_00000173121074844530049120000018389402242832602267_);" d="M149.91,167.76
					c-41.81,42.49-45.14,94.17-10,155.04c22.61,39.17,52.96,61.17,91.04,66l0.06,110.12c-79.24-6.47-140.87-47.82-184.87-124.04
					C8.25,309.24-2.31,245.11,14.47,182.49C31.2,119.89,73.04,66.98,130.1,36.28C184.99,2.48,251.27-7.51,313.68,8.62
					c63.11,16.49,116.44,58.65,147.05,116.25c33.04,53.58,41.37,118.8,22.87,178.96c-18.44,61.16-60.31,112.55-116.49,142.95
					c-14.16,8.07-29.01,14.87-44.37,20.32L149.91,167.76z M228.39,120.34L345.28,322.8c21.67-17.79,35.79-43.13,39.52-70.91
					c2.73-25.69-2.92-51.58-16.13-73.78c-13.18-25.04-34.51-44.84-60.46-56.13c-25.58-9.97-53.86-10.55-79.83-1.65L228.39,120.34z"
					/>
			</g>
			<g transform="matrix(1, 0, 0, 1, -9.68, -6.68)">
				<path id="Path_6313-2" class="st1" d="M149.91,167.76L89.47,64.57c12.67-10.63,26.27-20.1,40.63-28.3
					C184.99,2.48,251.27-7.51,313.68,8.62c63.11,16.49,116.44,58.65,147.05,116.25c33.04,53.58,41.37,118.8,22.87,178.96
					c-18.44,61.16-60.31,112.55-116.49,142.95c-14.16,8.07-29.01,14.87-44.37,20.32L149.91,167.76z M228.39,120.34L345.28,322.8
					c21.67-17.79,35.79-43.13,39.52-70.91c2.73-25.69-2.92-51.58-16.13-73.78c-13.18-25.04-34.51-44.84-60.46-56.13
					c-25.58-9.97-53.86-10.55-79.83-1.65L228.39,120.34z"/>
			</g>
		</g>
	</g>
</g>
</svg>
