<?xml version="1.0" encoding="utf-8"?>
<!-- Generator: Adobe Illustrator 27.5.0, SVG Export Plug-In . SVG Version: 6.00 Build 0)  -->
<svg version="1.1" id="Calque_1" xmlns="http://www.w3.org/2000/svg" xmlns:xlink="http://www.w3.org/1999/xlink" x="0px" y="0px"
	 viewBox="0 0 500 500" style="enable-background:new 0 0 500 500;" xml:space="preserve">
<style type="text/css">
	.st0{fill:#FFFFFF;}
	.st1{fill:#1F2944;}
</style>
<circle class="st0" cx="250" cy="250" r="250"/>
<path class="st1" d="M112.9,110.7v278.6h274.1V110.7H112.9z M208.8,143h25.6v26.7h-25.6V143z M144.1,143h26.7v26.7h-26.7V143z
	 M169.8,207.6v26.7H143v-26.7H169.8z M163.1,354.7h-11.1v-10h10v10H163.1z M170.9,301.3h-26.7v-25.6h26.7V301.3z M227.7,354.7h-10
	v-10h10V354.7z M227.7,292.3h-10v-10h10V292.3z M235.5,235.5h-26.7v-26.7h26.7V235.5z M292.3,354.7h-10v-10h10V354.7z M292.3,292.3
	h-10v-10h10V292.3z M292.3,226.6h-10v-10h10V226.6z M301.3,169.8h-26.7V143h26.7L301.3,169.8z M358.1,354.7h-10v-10h10V354.7z
	 M358.1,292.3h-10v-10h10V292.3z M358.1,226.6h-10v-10h10V226.6z M358.1,162h-10v-10h10V162z"/>
</svg>
