<?xml version="1.0" encoding="utf-8"?>
<!-- Generator: Adobe Illustrator 22.0.1, SVG Export Plug-In . SVG Version: 6.00 Build 0)  -->
<svg version="1.1" id="Layer_1" xmlns="http://www.w3.org/2000/svg" xmlns:xlink="http://www.w3.org/1999/xlink" x="0px" y="0px"
	 viewBox="0 0 48 48" style="enable-background:new 0 0 48 48;" xml:space="preserve">
<style type="text/css">
	.st0{fill:#671CC1;}
	.st1{display:none;fill:#FFFFFF;}
	.st2{fill:#FFFFFF;}
</style>
<path class="st0" d="M24,0L24,0c13.3,0,24,10.7,24,24l0,0c0,13.3-10.7,24-24,24l0,0C10.7,48,0,37.3,0,24l0,0C0,10.7,10.7,0,24,0z"/>
<path class="st1" d="M31.3,23.7c0.6-0.6,0.6-1.6,0-2.3l-5.5-5.7c-0.6-0.6-1.5-0.6-2.2,0l-5.4,5.8c-0.6,0.6-0.6,1.6,0,2.3l0.9,1v8.8
	l-0.9,1c-0.6,0.6-0.6,1.6,0,2.3l5.5,5.7c0.6,0.6,1.6,0.6,2.2,0l5.5-5.7c0.6-0.6,0.6-1.6,0-2.3l-0.9-1v-8.8L31.3,23.7z M29.4,34.1
	l0.2,0.1l1.1,1.1c0.3,0.3,0.3,0.6,0,0.9l-5.5,5.6c-0.3,0.3-0.6,0.3-0.8,0L18.7,36c-0.3-0.3-0.3-0.6,0-0.9l1.1-1.1L20,34v-9.6
	l-0.2-0.1l-1.1-1.1c-0.3-0.3-0.3-0.6,0-0.9l5.4-5.6c0.3-0.3,0.6-0.3,0.8,0l5.5,5.7c0.3,0.3,0.3,0.6,0,0.9l-1.1,1.1h-0.1V34.1z
	 M24.7,21.7l-2.1,2.2c-0.3,0.3-0.4,0.7-0.4,1.1v8.4c0,0.4,0.2,0.8,0.4,1.1l2.1,2.2l2.1-2.2c0.3-0.3,0.4-0.7,0.4-1.1V25
	c0-0.4-0.2-0.8-0.4-1.1L24.7,21.7z M26.3,33.4c0,0.2-0.1,0.3-0.2,0.4l-1.4,1.5l-1.4-1.5c-0.1-0.1-0.2-0.3-0.2-0.4V25
	c0-0.2,0.1-0.3,0.2-0.4l1.4-1.5l1.4,1.5c0.1,0.1,0.2,0.3,0.2,0.4V33.4z M36.6,13.3l-7.6-7.9c-0.6-0.6-1.5-0.6-2.1,0L25.3,7L26,7.7
	l1.5-1.6c0.3-0.2,0.6-0.2,0.8,0l7.6,7.9c0.2,0.3,0.2,0.6,0,0.8l-1.9,2c-0.3,0.2-0.6,0.2-0.8,0L22.2,5.5c-0.6-0.6-1.5-0.6-2.1,0
	l-7.6,7.9c-0.6,0.6-0.6,1.6,0,2.2l1.9,2c0.6,0.6,1.5,0.6,2.1,0l7.2-7.5L23,9.4l-7.2,7.5c-0.3,0.2-0.6,0.2-0.8,0l-2-2
	c-0.3-0.3-0.3-0.6,0-0.8l7.7-7.9C21,6,21.3,6,21.5,6.1l11.1,11.4c0.6,0.6,1.5,0.6,2.1,0l1.9-2C37.1,14.9,37.1,13.9,36.6,13.3z"/>
<g>
	<path class="st2" d="M29.8,23l1.2-1.2c0.5-0.4,0.5-1.2,0-1.6l-6.2-6.1c-0.5-0.4-1.2-0.4-1.7,0L17,20.2c-0.5,0.4-0.5,1.2,0,1.6
		l1.2,1.2v4.8V33L17,34.2c-0.5,0.4-0.5,1.2,0,1.6l6.2,6.1c0.5,0.4,1.2,0.4,1.7,0l6.2-6.1c0.5-0.4,0.5-1.2,0-1.6L29.8,33v-5.1V23z
		 M26.3,27.9v4.6c0,0.3-0.1,0.6-0.3,0.8l-2,2l-2-2c-0.2-0.2-0.3-0.5-0.3-0.8v-4.6v-4.4c0-0.3,0.1-0.6,0.3-0.8l2-2l2,2
		c0.2,0.2,0.3,0.5,0.3,0.8V27.9z"/>
	<path class="st2" d="M37.5,11.6l-5.6-5.5c-0.5-0.4-1.2-0.4-1.7,0l-0.7,0.7C29.2,7,29,7.1,28.6,7.1H24h-4.6c-0.3,0-0.6-0.1-0.8-0.3
		l-0.7-0.7c-0.5-0.4-1.2-0.4-1.7,0l-5.6,5.5c-0.5,0.4-0.5,1.2,0,1.6l2.1,2.1c0.5,0.4,1.2,0.4,1.7,0l4.5-4.5c0.2-0.2,0.5-0.3,0.8-0.3
		H24h4.4c0.3,0,0.6,0.1,0.8,0.3l4.5,4.5c0.5,0.4,1.2,0.4,1.7,0l2.1-2.1C37.9,12.8,37.9,12.1,37.5,11.6z"/>
</g>
</svg>
