<?xml version="1.0" encoding="utf-8"?>
<!-- Generator: Adobe Illustrator 22.0.1, SVG Export Plug-In . SVG Version: 6.00 Build 0)  -->
<svg version="1.1" id="Layer_1" xmlns="http://www.w3.org/2000/svg" xmlns:xlink="http://www.w3.org/1999/xlink" x="0px" y="0px"
	 viewBox="0 0 400 400" style="enable-background:new 0 0 400 400;" xml:space="preserve">
<style type="text/css">
	.st0{fill:#F7183A;}
	.st1{fill:#FEFAFC;stroke:#FFFFFF;stroke-width:10;stroke-miterlimit:10;}
</style>
<g>
	<path class="st0" d="M340,339.9c-76.8,76.8-203.1,76.8-279.9,0s-76.8-203.1,0-279.9s203.1-76.8,279.9,0S416.6,263.2,340,339.9z"/>
	<g>
		<path class="st1" d="M334,124.9c0,49.2,0,97.5,0.2,145.6c0,4.7-1.4,7.4-5.5,9.5c-3.8,1.9-7.3,4.3-11.1,6.5
			c-10.3,6-20.6,11.9-30.9,17.9c-5.5,3.2-11.1,6.2-16.6,9.3c-16.8,9.7-33.4,19.3-50,29c-5.7,3.3-11.6,6.6-17.4,10
			c-1.6,0.9-3,1.1-4.7,0c-3.2-2.1-6.3-4-9.7-5.9s-6.8-3.6-10.3-5.5c-4-2.1-8.1-4.1-11.9-6.3c-5.4-3.2-10.4-6.6-15.8-9.7
			c-4.7-2.8-9.8-5.2-14.6-7.9c-5.5-3.2-10.8-6.6-16.3-9.8c-5.5-3.3-11.1-6.5-16.6-9.7c-4.3-2.4-8.9-4.6-13.1-7.1
			c-4.6-2.7-9-5.5-13.5-8.2c-2.4-1.4-4.6-3-7.1-4.3c-2.1-1.1-2.7-2.7-2.7-4.9c0-7.9,0-15.7,0-23.6c0-37.7,0-75.3,0-113
			c0-3.8-0.6-7.6-0.5-11.4c0-2.8,2.2-4.4,4.4-5.7c6.6-3.8,13.6-7.4,20.3-11.2c5.7-3.3,11.1-7,16.8-10.3c3.2-1.9,6.5-3.5,9.7-5.2
			c4-2.4,7.9-4.9,11.9-7.1c7.3-4.1,14.7-8.2,22-12.3c4-2.2,7.6-4.7,11.4-7c3-1.7,6.2-3.2,9.2-4.9c5.2-3,10.1-6.2,15.4-9.2
			c3-1.7,6-3.3,9.2-4.9c2.8-1.4,5.4-1.4,8.4,0.3c8.9,5.4,17.9,10.3,26.9,15.4c11.2,6.5,22.5,13,33.7,19.5c4.3,2.5,8.5,4.9,13,7.4
			c7,4,13.8,7.9,20.7,12c4.1,2.4,8.2,4.7,12.3,7.1c6,3.5,12,7.1,18,10.6c0.8,0.5,1.6,0.8,2.2,1.3C333.4,121.9,334.3,123.7,334,124.9
			z M261.5,159.9c-0.5-0.9-0.6-1.6-1.1-2.2c-5.5-9.2-10.9-18.4-16.5-27.7c-3.6-6.2-7.4-12.5-11.1-18.7c-4-6.6-7.8-13.3-11.7-19.8
			c-5.5-9.3-11.2-18.5-16.8-27.9c-1.4-2.4-3-4.7-4.1-7.3c-0.8-1.9-1.7-2.2-3.3-1.3c-3.8,2.1-7.4,4.3-11.2,6.5
			c-10.1,5.9-20.4,11.9-30.6,17.7c-9.3,5.4-18.5,10.8-27.9,16.1c-7.9,4.6-15.8,9.2-23.7,13.6c-7,4-13.9,7.9-20.9,12
			c-1.3,0.8-2.7,1.6-4,2.5c-0.3,0.3-0.6,1.6-0.3,1.7c1.6,1.1,3.2,2.2,4.9,3.2c2.7,1.4,5.5,2.5,8.1,4.1c6.8,3.8,13.5,7.8,20.3,11.7
			c7.3,4.3,14.6,8.4,21.8,12.7c3.2,1.9,6.3,4,9.7,5.9c4.1,2.4,8.2,4.6,12.3,7.1c2.4,1.4,4.7,3.2,7.1,4.4c2.8,1.6,5.7,2.8,8.5,4.4
			c3.2,1.9,6.2,4.1,9.3,6c2.4,1.4,5.1,2.2,7.4,3.6c3.6,2.1,7.3,4.4,10.9,6.6c0.6,0.3,1.6,0.3,2.2,0c1.6-0.8,2.8-2.1,4.4-2.8
			c4.1-2.4,8.2-4.6,12.2-7c14.1-8.1,28-16,42.1-24.1C260.6,160.7,261,160.4,261.5,159.9z M327,271c0-46.9,0-93.4,0-140.7
			c-2.4,1.4-4.1,2.5-6,3.6c-10,5.9-20.1,11.6-30.1,17.4c-15.5,9-31,17.9-46.5,26.8c-12.8,7.4-25.5,14.9-38.5,22.3
			c-1.7,0.9-2.2,1.9-2.2,3.6c0,20.9,0,41.8,0,62.7c0,1.3-0.2,2.7-0.3,4.1C244.7,271,285.7,271,327,271z M196.6,200.9
			c-2.1-0.8-3.5-1.3-4.7-2.1c-5.2-3-10.4-6.2-15.7-9.2c-7.4-4.4-15-8.7-22.6-13c-1.3-0.8-2.7-1.4-4-2.2c-3.6-2.2-7.1-4.3-10.8-6.5
			c-1.1-0.6-2.2-0.9-2.8,0.6c-0.2,0.6-0.8,1.1-1.1,1.6c-9.7,16.5-19.2,32.9-28.8,49.4c-10.1,17.3-20.3,34.5-30.4,51.6
			c-0.8,1.4-0.6,2.2,0.8,3c7.6,4.3,15,8.5,22.5,12.8c4.7,2.7,9.5,5.4,14.1,8.1c11.7,6.8,23.4,13.5,35.1,20.3
			c13.9,8.1,27.9,16.3,41.9,24.5c2.1,1.3,4.1,2.5,6.3,3.8C196.6,296.1,196.6,248.3,196.6,200.9z M73.5,259.8c0.3,0,0.6,0,0.8,0
			c3.2-5.5,6.3-11.2,9.5-16.8c3.6-6.5,7.6-12.8,11.2-19.2c2.7-4.4,5.2-8.9,7.8-13.3c3-4.9,6-9.7,8.9-14.7
			c3.5-5.9,6.8-11.9,10.1-17.7c2.4-4.3,4.9-8.4,7.4-12.5c0.9-1.6,0.6-2.8-0.9-3.5c-3.5-1.4-6-4.4-9.8-5.7c-2.4-0.8-4.3-2.7-6.5-4
			c-6.6-3.8-13.5-7.4-20.1-11.4c-4.7-2.7-9.2-5.7-13.9-8.4c-1.4-0.8-2.8-1.4-4.7-2.2C73.5,173.7,73.5,216.8,73.5,259.8z
			 M203.6,343.9c9.5-5.5,18.8-10.9,28.2-16.3c9.3-5.4,18.5-10.8,27.9-16.1c9.3-5.4,18.7-10.8,28.2-16.1c9.3-5.4,18.5-10.6,27.7-16
			c-0.2-0.3-0.2-0.6-0.3-0.9c-37.2,0-74.4,0-111.6,0C203.6,300,203.6,321.7,203.6,343.9z M267.8,156.1c0.3-0.2,1.1-0.5,1.9-0.9
			c17.3-9.8,34.5-19.6,51.9-29.4c1.3-0.6,1.7-1.4,0-2.2c-1.1-0.5-2.2-1.3-3.3-1.9c-12.8-7.4-25.6-14.9-38.3-22.2
			c-21.8-12.7-43.7-25.3-65.5-38.1c-0.9-0.5-1.9-0.8-3.5-1.3C230.2,92.3,249,124.1,267.8,156.1z"/>
	</g>
</g>
</svg>
