<?xml version="1.0" encoding="utf-8"?>
<!-- Generator: Adobe Illustrator 27.5.0, SVG Export Plug-In . SVG Version: 6.00 Build 0)  -->
<svg version="1.1" id="Layer_1" xmlns="http://www.w3.org/2000/svg" xmlns:xlink="http://www.w3.org/1999/xlink" x="0px" y="0px"
	 viewBox="0 0 500 500" style="enable-background:new 0 0 500 500;" xml:space="preserve">
<style type="text/css">
	.st0{fill:#FFFFFF;}
	.st1{fill:#1F439A;}
</style>
<circle class="st0" cx="250" cy="250" r="250"/>
<g id="Layer_2_1_">
	<g id="Layer_1-2">
		<path class="st1" d="M163.5,248.7c-0.8,14.2,10.1,26.3,24.3,27.2c0.5,0,1,0,1.5,0c14.3,0,25.8-11.5,25.7-25.8
			c0-14.3-11.5-25.8-25.8-25.7C175.6,224.3,164.3,235,163.5,248.7z"/>
		<path class="st1" d="M67.4,242.1c-4.6-0.3-8.6,3.3-8.8,7.9c-0.2,4.6,3.3,8.6,7.9,8.8c4.6,0.3,8.5-3.3,8.8-7.9
			C75.5,246.3,72,242.4,67.4,242.1L67.4,242.1z"/>
		<path class="st1" d="M161.9,99.1c4.1-2,5.7-7.1,3.7-11.2c-2-4.1-7.1-5.7-11.2-3.7c-4.1,2-5.7,7-3.7,11.1
			C152.7,99.5,157.7,101.2,161.9,99.1C161.8,99.1,161.9,99.1,161.9,99.1z"/>
		<path class="st1" d="M188,144.7c6.3-3.2,8.9-10.9,5.7-17.3c-3.2-6.3-10.9-8.9-17.3-5.7s-8.9,10.9-5.7,17.3
			C174,145.3,181.7,147.9,188,144.7z"/>
		<path class="st1" d="M100,176c4.9,3.2,11.4,1.8,14.7-3.1c3.2-4.9,1.8-11.4-3.1-14.7c-4.9-3.2-11.4-1.8-14.7,3.1l0,0
			C93.7,166.2,95.1,172.9,100,176z"/>
		<path class="st1" d="M115.7,237.5c-7.1-0.4-13.2,5-13.6,12.1s5,13.2,12.1,13.6s13.2-5,13.6-12.1l0,0
			C128.2,244,122.8,237.9,115.7,237.5z"/>
		<path class="st1" d="M101.5,324c-5.2,2.7-7.3,9-4.7,14.3c2.7,5.2,9,7.3,14.3,4.7c5.2-2.7,7.3-9,4.7-14.3l0,0
			C113.1,323.4,106.7,321.3,101.5,324L101.5,324z"/>
		<path class="st1" d="M151.5,210.8c7,4.6,16.4,2.7,20.9-4.4c4.6-7,2.7-16.4-4.4-20.9c-7-4.6-16.4-2.7-20.9,4.4
			C142.5,196.9,144.5,206.2,151.5,210.8L151.5,210.8z"/>
		<path class="st1" d="M310.2,143.7c5.9,3.9,14,2.2,17.9-3.7s2.2-14-3.7-17.9s-14-2.2-17.9,3.7l0,0
			C302.6,131.8,304.2,139.8,310.2,143.7L310.2,143.7z"/>
		<path class="st1" d="M336.6,98.2c3.9,2.6,9,1.4,11.5-2.4c2.6-3.9,1.4-9-2.4-11.5c-3.9-2.6-9-1.4-11.5,2.3
			C331.7,90.5,332.8,95.7,336.6,98.2L336.6,98.2z"/>
		<path class="st1" d="M312.2,224.1c-14.2-0.8-26.4,10.1-27.2,24.3c-0.8,14.2,10.1,26.4,24.3,27.2c0.5,0,1,0,1.4,0
			c14.2,0,25.7-11.5,25.7-25.8C336.6,236.2,325.9,224.8,312.2,224.1L312.2,224.1z"/>
		<path class="st1" d="M196.5,209c4.4,8.7,13.3,14.2,23.1,14.2c14.2,0,25.7-11.5,25.7-25.8c0-4-0.9-8-2.8-11.6
			c-6.4-12.8-21.9-17.9-34.6-11.4C195.2,180.8,190.1,196.3,196.5,209L196.5,209z"/>
		<path class="st1" d="M398.5,176c5.2-2.7,7.2-9.1,4.6-14.3c-2.7-5.2-9.1-7.2-14.3-4.6c-5.2,2.7-7.2,9-4.7,14.2
			C386.9,176.6,393.2,178.7,398.5,176L398.5,176z"/>
		<path class="st1" d="M333.2,184.2c-7.5,3.8-10.5,12.9-6.7,20.3c3.8,7.5,12.9,10.5,20.3,6.7c7.5-3.8,10.5-12.9,6.7-20.3
			C349.7,183.5,340.7,180.5,333.2,184.2z"/>
		<path class="st1" d="M249,94.4c5.8,0.3,10.8-4.2,11.2-10s-4.2-10.8-10-11.2c-5.8-0.3-10.8,4.1-11.2,9.9
			C238.7,89,243.2,94,249,94.4L249,94.4z"/>
		<path class="st1" d="M248.9,161c8.4,0.5,15.5-5.9,15.9-14.3c0.5-8.4-5.9-15.5-14.3-15.9c-8.4-0.5-15.5,5.9-15.9,14.3
			C234.2,153.5,240.5,160.6,248.9,161L248.9,161z"/>
		<path class="st1" d="M166.8,315.8c7.5-3.8,10.5-12.9,6.7-20.3c-3.8-7.5-12.9-10.5-20.3-6.7s-10.5,12.9-6.7,20.3
			C150.3,316.5,159.4,319.6,166.8,315.8z"/>
		<path class="st1" d="M258.7,183.2c-7.8,11.9-4.5,27.9,7.5,35.6c11.9,7.8,27.9,4.5,35.6-7.5c7.8-11.9,4.5-27.9-7.5-35.6
			c-4.2-2.8-9.1-4.2-14.1-4.2C271.5,171.5,263.5,175.9,258.7,183.2z"/>
		<path class="st1" d="M303.5,291c-6.4-12.8-21.9-17.9-34.6-11.4c-12.8,6.4-17.9,21.9-11.4,34.6c6.4,12.8,21.9,17.9,34.6,11.4l0,0
			c12.7-6.3,17.9-21.6,11.5-34.4C303.6,291.1,303.6,291.1,303.5,291z"/>
		<path class="st1" d="M348.5,289.2c-7-4.6-16.4-2.7-20.9,4.4c-4.6,7-2.7,16.4,4.4,20.9c7,4.6,16.4,2.7,20.9-4.4
			C357.5,303.1,355.6,293.7,348.5,289.2L348.5,289.2z"/>
		<path class="st1" d="M397.9,250.5c0.4-7.1-5-13.2-12.1-13.6c-7.1-0.4-13.2,5-13.6,12.1c-0.4,7.1,5,13.2,12.1,13.6l0,0
			C391.4,263,397.5,257.5,397.9,250.5z"/>
		<path class="st1" d="M433.6,241.3c-4.6-0.3-8.6,3.3-8.8,7.9c-0.2,4.6,3.3,8.6,7.9,8.8c4.6,0.3,8.5-3.3,8.8-7.9
			C441.6,245.5,438.2,241.6,433.6,241.3z"/>
		<path class="st1" d="M400,324c-4.9-3.2-11.4-1.8-14.7,3.1c-3.2,4.9-1.8,11.4,3.1,14.7c4.9,3.2,11.4,1.8,14.7-3.1
			C406.3,333.8,404.9,327.1,400,324L400,324z"/>
		<path class="st1" d="M163.3,401.8c-3.9-2.6-9-1.4-11.5,2.3c-2.6,3.9-1.4,9,2.3,11.5c3.9,2.6,9,1.4,11.5-2.3l0,0
			C168.3,409.5,167.2,404.3,163.3,401.8z"/>
		<path class="st1" d="M338.1,400.9c-4.1,2-5.7,7.1-3.7,11.2c2,4.1,7.1,5.7,11.2,3.7c4.1-2,5.7-7,3.7-11.1
			C347.3,400.5,342.3,398.8,338.1,400.9C338.2,400.9,338.1,400.9,338.1,400.9z"/>
		<path class="st1" d="M241.3,316.8c7.8-11.9,4.5-27.9-7.5-35.7c-11.9-7.8-27.9-4.5-35.7,7.5c-7.9,11.9-4.5,27.9,7.5,35.7
			c4.2,2.8,9.1,4.2,14.1,4.2C228.5,328.6,236.5,324.2,241.3,316.8z"/>
		<path class="st1" d="M189.8,356.3c-5.9-3.9-14-2.2-17.9,3.7c-3.9,5.9-2.2,14,3.7,17.9c5.9,3.9,14,2.2,17.9-3.7l0,0
			C197.4,368.3,195.8,360.2,189.8,356.3z"/>
		<path class="st1" d="M249.9,405.6c-5.8-0.3-10.8,4.2-11.2,10c-0.4,5.8,4.2,10.8,10,11.2c5.8,0.3,10.8-4.1,11.2-9.9
			C260.2,411,255.7,406,249.9,405.6L249.9,405.6z"/>
		<path class="st1" d="M250,339c-8.4-0.5-15.5,5.9-15.9,14.3c-0.5,8.4,5.9,15.5,14.3,15.9c8.4,0.4,15.5-5.9,15.9-14.3
			C264.8,346.6,258.4,339.4,250,339L250,339z"/>
		<path class="st1" d="M312,355.3c-6.3,3.3-8.9,11-5.6,17.4c3.3,6.3,11,8.9,17.4,5.6c6.3-3.2,8.9-10.9,5.7-17.3
			C326.2,354.7,318.4,352,312,355.3L312,355.3z"/>
	</g>
</g>
</svg>
