<?xml version="1.0" encoding="utf-8"?>
<!-- Generator: Adobe Illustrator 27.5.0, SVG Export Plug-In . SVG Version: 6.00 Build 0)  -->
<svg version="1.1" id="Layer_1" xmlns="http://www.w3.org/2000/svg" xmlns:xlink="http://www.w3.org/1999/xlink" x="0px" y="0px"
	 viewBox="0 0 500 500" style="enable-background:new 0 0 500 500;" xml:space="preserve">
<style type="text/css">
	.st0{fill:#1D5D73;}
	.st1{fill:#6CC49B;}
</style>
<g>
	<path class="st0" d="M250.34,59.39c3.63-3.3,7.36-6.49,10.85-9.92c4.41-4.32,8.7-8.78,12.92-13.29
		c7.08-7.56,15.96-11.82,26.07-11.76c9.94,0.06,19.36,2.98,26.72,10.56c8.96,9.24,18.11,18.29,27.11,27.49
		c5.92,6.05,11.62,12.31,17.58,18.3c4.2,4.22,8.76,8.07,13.01,12.24c7,6.87,13.94,13.81,20.8,20.82
		c5.61,5.74,10.95,11.76,16.64,17.42c7.51,7.47,15.31,14.64,22.84,22.08c4.51,4.45,8.67,9.24,13.14,13.73
		c4.1,4.11,8.46,7.96,12.59,12.03c7.16,7.06,14.65,13.84,21.2,21.44c5.68,6.59,8.99,14.28,8.01,23.74
		c-0.36,3.52-1.05,7.08-1.39,10.62c-0.59,6.18-4.41,10.96-8.65,15.21c-25.66,25.72-51.39,51.37-77.09,77.05
		c-34.75,34.71-69.51,69.41-104.24,104.14c-9.61,9.61-19.07,19.38-28.71,28.98c-5.77,5.75-11.87,10.94-20.21,12.84
		c-14.3,3.26-26.38-0.41-36.35-11.03c-2.38-2.54-4.37-5.45-6.53-8.19c-0.97-4.6-2.02-9.19-2.9-13.81
		c-1.17-6.17,1.28-11.64,3.66-17.05c1.11-2.51,2.37-5.14,4.22-7.1c8.41-8.87,17.06-17.51,25.59-26.27c1.12-1.15,2.05-2.5,3.06-3.75
		c0.66-0.48,1.4-0.89,1.97-1.46c15.34-15.37,30.67-30.75,45.97-46.16c3.71-3.74,7.33-7.57,11.05-11.42
		c-0.6-0.71-0.95-1.21-1.38-1.64c-17.74-17.78-35.47-35.58-53.28-53.29c-1.14-1.14-2.91-1.65-4.38-2.45
		c-0.25-0.97-0.21-2.2-0.8-2.86c-2.35-2.57-4.91-4.95-7.38-7.42c-13.29-13.24-26.56-26.48-39.87-39.7
		c-0.99-0.99-2.19-1.77-3.29-2.65c-8.1-8.28-16.07-16.71-24.35-24.81c-8.31-8.13-13.76-17.34-12.8-29.41
		c0.33-4.13,0.8-8.26,1.21-12.38c2.25-2.94,4.5-5.88,6.76-8.82c0.25-0.33,0.53-0.63,0.82-0.93c8.52-8.62,17.04-17.24,25.56-25.86
		c1.26-1.27,2.34-1.19,3.66,0.1c5.74,5.65,11.65,11.12,17.33,16.82c8.41,8.44,16.63,17.07,25.03,25.52
		c7.79,7.83,15.73,15.5,23.58,23.28c9.14,9.06,18.21,18.18,27.37,27.21c2.9,2.85,6.01,5.48,9.03,8.2c0.29,0.5,0.48,1.1,0.88,1.49
		c8.1,8.13,16.24,16.22,24.35,24.34c10.77,10.78,21.53,21.58,32.31,32.36c0.47,0.47,1.11,0.79,1.26,0.89
		c17.33-17.1,34.46-34,51.3-50.61c-4.79-4.98-9.21-9.72-13.77-14.31c-18.78-18.9-37.59-37.77-56.46-56.58
		c-0.99-0.99-2.6-1.36-3.92-2.01c-1.03-1.73-1.8-3.71-3.15-5.14c-4.81-5.08-9.78-10-14.75-14.92
		c-22.56-22.38-45.16-44.73-67.65-67.17C251.36,62.99,251.05,61,250.34,59.39z"/>
	<path class="st1" d="M250.3,385.93c-1.02,1.26-1.94,2.6-3.06,3.75c-8.53,8.76-17.18,17.4-25.59,26.27
		c-1.85,1.95-3.11,4.59-4.22,7.1c-2.39,5.4-4.83,10.88-3.66,17.05c0.88,4.62,1.93,9.21,2.9,13.81c-3.36-2.67-6.99-5.05-10.02-8.06
		c-10.23-10.15-20.19-20.55-30.35-30.77c-7.37-7.42-14.96-14.64-22.33-22.06c-11.08-11.17-22-22.48-33.07-33.65
		c-6.5-6.56-13.17-12.96-19.74-19.46c-5.64-5.57-11.24-11.17-16.86-16.76c-11-10.94-22.01-21.88-33-32.83
		c-13.85-13.8-27.81-27.48-41.46-41.47c-4.7-4.82-7.4-10.99-8.9-17.62c-3.4-14.99,2.77-26.37,13.17-36.49
		c14.24-13.87,28.15-28.07,42.23-42.1c18.75-18.69,37.55-37.32,56.27-56.04c20.46-20.47,40.81-41.05,61.27-61.52
		c5.52-5.52,12.09-8.82,20.04-9.85c15.11-1.96,26.53,4.26,36.43,14.88c5.72,6.14,11.78,11.97,17.72,17.9
		c0.61,0.61,1.51,0.93,2.28,1.39c0.71,1.6,1.02,3.6,2.18,4.75c22.49,22.45,45.09,44.79,67.65,67.17c4.96,4.93,9.94,9.85,14.75,14.92
		c1.35,1.43,2.11,3.41,3.15,5.14c-0.19,0.84-0.6,1.7-0.53,2.52c0.31,3.83,0.89,7.64,1.11,11.48c0.57,10.08-3.5,18.28-10.59,25.18
		c-8.65,8.42-17.3,16.84-25.95,25.25c-3.02-2.73-6.13-5.35-9.03-8.2c-9.17-9.03-18.24-18.15-27.37-27.21
		c-7.84-7.78-15.79-15.45-23.58-23.28c-8.4-8.45-16.62-17.08-25.03-25.52c-5.68-5.7-11.59-11.18-17.33-16.82
		c-1.32-1.29-2.4-1.37-3.66-0.1c-8.52,8.62-17.04,17.23-25.56,25.86c-0.29,0.29-0.57,0.6-0.82,0.93c-2.26,2.94-4.5,5.88-6.76,8.82
		c-2.22,2.07-4.5,4.09-6.66,6.23c-9.49,9.43-18.93,18.91-28.42,28.33c-7.81,7.76-15.68,15.46-23.51,23.2
		c-4.46,4.41-8.88,8.86-13.3,13.31c-1.64,1.65-2.34,3.35-0.34,5.32c4.08,4.01,8.09,8.09,12.16,12.12
		c6.27,6.22,12.55,12.44,18.84,18.63c5.43,5.34,10.85,10.7,16.41,15.9c0.66,0.62,2.69,0.83,3.24,0.32
		c4.46-4.11,8.77-8.4,13.04-12.71c13.69-13.83,27.35-27.7,41.05-41.51c0.99-1,2.28-1.69,3.43-2.53c1.1,0.88,2.3,1.67,3.29,2.65
		c13.31,13.22,26.58,26.46,39.87,39.7c2.47,2.46,5.03,4.84,7.38,7.42c0.6,0.65,0.55,1.89,0.8,2.86c-1.5,1.06-3.18,1.94-4.48,3.22
		c-17.83,17.54-35.6,35.14-53.43,52.68c-1.32,1.3-0.79,1.83,0.28,2.89c17.1,16.98,34.15,34.01,51.21,51.03
		C246.01,381.5,248.15,383.73,250.3,385.93z"/>
</g>
</svg>
