<?xml version="1.0" encoding="utf-8"?>
<!-- Generator: Adobe Illustrator 27.5.0, SVG Export Plug-In . SVG Version: 6.00 Build 0)  -->
<svg version="1.1" id="Layer_1" xmlns="http://www.w3.org/2000/svg" xmlns:xlink="http://www.w3.org/1999/xlink" x="0px" y="0px"
	 viewBox="0 0 500 500" style="enable-background:new 0 0 500 500;" xml:space="preserve">
<style type="text/css">
	.st0{fill:#FFFFFF;}
	.st1{fill:#3CBCA1;}
	.st2{fill:#3FADE2;}
</style>
<circle class="st0" cx="250" cy="250" r="250"/>
<path class="st1" d="M208.2,190.2h113.3c13.2,0,26,2.1,37.9,6.1c0.5-64.4-51.9-116.4-116.9-116.4H128.9c-17.5,0-31.8,14.4-31.8,31.9
	v167.1c0,17.7,14.4,31.9,31.9,31.9h47.1v-88.7C176.1,204.4,190.5,190.2,208.2,190.2z"/>
<path class="st2" d="M359.3,196.3c0,1.4,0,2.8,0,4C356.6,261.7,306,310.7,244,310.7h-67.7v78.4c0,17.7,14.4,31.9,31.9,31.9H323
	c62.1,0,112.7-48.9,115.3-110.4C440.5,257.5,406.8,212.3,359.3,196.3L359.3,196.3z"/>
</svg>
