<?xml version="1.0" encoding="utf-8"?>
<!-- Generator: Adobe Illustrator 22.0.1, SVG Export Plug-In . SVG Version: 6.00 Build 0)  -->
<svg version="1.1" id="Layer_1" xmlns="http://www.w3.org/2000/svg" xmlns:xlink="http://www.w3.org/1999/xlink" x="0px" y="0px"
	 viewBox="0 0 1024 1024" style="enable-background:new 0 0 1024 1024;" xml:space="preserve">
<style type="text/css">
	.st0{fill:#F0F0F8;}
	.st1{fill:#FEB830;}
	.st2{fill:#FEFEFE;}
	.st3{fill:#FCBF44;}
	.st4{fill:#253A45;}
	.st5{fill:#FDF0D7;}
</style>
<g>
	<path class="st0" d="M1016,463.3c0,33,0,65.9,0,98.9c-2.8,0.3-3,2.3-3.2,4.5c-0.8,15.4-3.6,30.5-6.7,45.4
		c-13,63.3-36.9,122.2-72.5,176.1c-30.1,45.6-66.9,85-109.6,119.2c-49.8,39.8-105.3,68.3-165.9,87.1c-14.9,4.6-29.8,9.3-45.6,10.4
		c8.5-23.2,17-46.4,25.4-69.7c32.5-10.8,63.9-23.7,93.7-40.8c50.8-29.3,94.4-66.7,129.9-113.3c38.8-50.8,65.9-107.3,80.2-169.8
		c7.1-31,11-62.4,11.4-94.3c0.3-26.1-1.9-51.9-6.2-77.7c-6.5-39.3-18.1-77-34.8-113.1c-8-17.3-17.8-33.6-26.8-50.4
		c8.6-22.9,17.2-45.8,25.9-68.6c2.3,0.3,3.8,1.8,5,3.5c6.6,9.4,13.5,18.6,19.6,28.2c26,40.9,46.4,84.4,59.8,131.2
		c8.2,28.8,14.5,57.9,17.1,87.8C1013,460.4,1012.7,462.9,1016,463.3z"/>
	<path class="st0" d="M8,562.2c0-33,0-65.9,0-98.9c2.2-0.3,3.2-1.6,3.1-3.8c-0.3-4.7,1-9.3,1.5-13.9c3.4-30.3,10.5-59.8,19.7-88.8
		c12.5-39.1,29.5-76.2,51.6-110.9c8.5-13.3,16.4-27.1,27.6-38.6c9.1,22.6,17.8,45.3,25.6,68.4c-0.1,2.7-0.8,5.2-2.2,7.4
		c-13.9,23-25.8,47.1-35.4,72.2C82.7,399.4,73.6,445,71,491.7c-1.5,27.8,0.3,55.7,4.3,83.4c7,48.2,21.1,94.1,43.4,137.2
		c27.8,53.8,64.6,100.7,111.7,139.3c46.2,37.8,97.6,65.7,154.7,82.9c0.1,0.8,0.2,1.5,1.2,1.4l-0.1-0.1c-0.8,3.3,1.1,6,2.2,8.9
		c7.3,20,14.8,39.9,22.2,59.9c-2.6-0.1-5.3,0.2-7.8-0.3c-84.9-19.2-160.3-57.4-225.3-115.2c-32-28.5-60.6-60.3-84.4-96.3
		c-20.5-31-37.8-63.7-51.3-98.4c-14.5-37.6-24.6-76.2-29.7-116.2C11.6,573.2,14.5,566.2,8,562.2z"/>
	<path class="st0" d="M284.4,62.8c25.3-14.1,52.4-24.1,80-32.8c23.8-7.5,48.2-12.4,72.8-16.6c6.6-1.1,13.4-1.5,20.1-2.2
		c2.5-0.3,5.5,0.7,6.1-3.2c33,0,65.9,0,98.9,0c4.4,6,11.3,3.6,16.9,4.4c35.4,4.8,69.8,13.2,103.4,25.2c16.7,6,33,12.8,48.9,20.5
		c2.5,1.2,5.5,2,6.7,5c-8.6,18.3-14.5,37.8-22.3,56.4c-3.2-1.1-6.6-1.9-9.5-3.4c-30.1-15.5-61.9-26.1-94.8-33.8
		c-31-7.3-62.4-11-94.2-11.5c-23.5-0.4-46.8,1.4-70,4.8c-36.7,5.5-72.2,15.5-106.5,29.7c-11.1,4.6-21.1,11.6-33,14.3
		c-1-2.3-2.1-4.7-3.1-7C297.7,96,293.3,78.5,284.4,62.8z"/>
	<path class="st1" d="M474.3,1016c-10.3-3.7-21.4-2.5-31.9-4.7c-10.6-2.2-21.7-2-31.7-6.6c-7.4-20-14.8-39.9-22.2-59.9
		c-1.1-2.9-3-5.6-2.2-8.9c4.3-0.3,8.2,1.4,12.2,2.5c53,13.8,106.7,18,161.3,12.2c26.5-2.9,52.4-8.7,78.2-15.2
		c-8.5,23.2-17,46.4-25.4,69.7c-14,4.9-28.9,5.5-43.4,7.9c-7,1.2-14.3,0.1-21.1,3.1C523.5,1016,498.9,1016,474.3,1016z"/>
	<path class="st2" d="M638,935.4c-25.8,6.5-51.6,12.3-78.2,15.2c-54.6,5.9-108.3,1.6-161.3-12.2c-4-1-7.9-2.8-12.2-2.5
		c0,0,0.1,0.1,0.1,0.1c-0.4-0.5-0.8-0.9-1.2-1.4c-57.2-17.2-108.5-45.1-154.7-82.9c-47.2-38.6-83.9-85.5-111.7-139.3
		c-22.3-43.1-36.5-89.1-43.4-137.2c-4-27.7-5.9-55.5-4.3-83.4c2.5-46.8,11.7-92.3,28.5-136.2c9.6-25.2,21.5-49.2,35.4-72.2
		c1.4-2.3,2-4.8,2.2-7.4c4.1,0.6,4.3-3.2,5.7-5.3c40.9-61.9,93.9-110.7,158.9-146.4c2.2-1.2,5-1.8,6.1-4.6
		c11.9-2.6,21.9-9.7,33-14.3c34.4-14.1,69.8-24.2,106.5-29.7c23.2-3.5,46.5-5.2,70-4.8c31.8,0.5,63.3,4.2,94.2,11.5
		c32.8,7.7,64.7,18.3,94.8,33.8c3,1.5,6.4,2.3,9.5,3.4c1.1,2.4,3.5,3,5.5,4.1c21,11.4,41.1,24.3,60,39c20.8,16.2,40,33.9,57.8,53.3
		c17.1,18.8,31.7,39.4,46.4,60c8.9,16.8,18.8,33.1,26.8,50.4c16.7,36.2,28.3,73.8,34.8,113.1c4.3,25.8,6.5,51.6,6.2,77.7
		c-0.4,31.8-4.3,63.2-11.4,94.3c-14.3,62.5-41.4,119-80.2,169.8c-35.6,46.5-79.1,84-129.9,113.3C701.9,911.7,670.4,924.6,638,935.4z
		 M389.4,311.5c-0.2-1.5,0-3.2-0.5-4.6c-6.5-17.3-13.5-34.5-19.5-52c-10.3-30-35.7-54.4-76.1-50.7c-20.3,1.9-36.2,11.1-48.2,27
		c-17.9,23.6-17.2,48.9-6.9,75.5c18.6,48.1,36.4,96.6,54.6,144.9c16.8,44.7,33.8,89.2,50.3,134c6.9,18.6,14.7,36.8,20.2,55.8
		c-5.7,7.7-13.7,6.6-21.4,4.9c-9.2-2-18.3-4.4-27.2-7c-5.5-1.6-8.5-1.4-10.9,5c-5.9,15.3-12.5,30.3-19.5,45.2
		c-2.7,5.8-1.6,7.6,4.5,9c29.9,7.2,59.7,15,89.6,22.2c5.5,1.3,6.7,3.2,5.2,8.8c-6.4,23.9-12.1,48-18.2,72c-1.2,4.6-1.1,6.9,4.4,8.1
		c13.2,2.9,26.4,6.3,39.4,9.9c5,1.4,6.9,0,7.8-5.1c1.2-6.6,3.5-13,5.3-19.6c8.5,24.6,16.4,49.5,27.9,72.9
		c12.3,25.2,33.8,37.9,61.6,38.1c28.1,0.2,49.9-12.5,62.5-37.9c12.3-24.7,20-51.4,30-77.2c3.2-8.2,7.3-16.1,8.4-25
		c2-0.4,4.1-0.8,6.1-1c36.7-4.3,65.1-21.3,82.5-54.6c10-19.2,16.4-39.6,17.6-61.2c1.7-29.8-11.1-53-33.9-71.2
		c1.2-8.8,6.8-16.1,7.9-25c15.9-11.7,26.6-26.9,32.1-46c4.9-16.8,6.2-33.8,3.7-51.2c2.2-1.3,2.7-3.7,3.5-5.9
		c5.2-13.9,10.5-27.8,15.7-41.7c14.1-37.6,28.7-75,41.9-112.9c9.3-26.7,2.5-50.9-17-71.3c-15.4-16-34.6-21.1-56.3-19.7
		c-23.1,1.4-40.2,12.9-52.2,31.3c-9.8,15.1-14.4,32.9-20.3,49.8c-14.2-3.5-28.5-6.7-42.6-10.5c-5.1-1.4-6.6-0.3-7.7,4.8
		c-5.5,23.4-11.5,46.6-17.2,70c-1.1,4.7-2.7,6.3-7.9,4.8c-9.5-2.8-19.2-5-28.9-6.9c-4.8-0.9-5.8-2.4-4.5-7.2
		c6.1-23.2,11.6-46.6,17.7-69.8c1.4-5.2,0.9-7.7-5.1-9c-12.5-2.6-24.9-5.7-37.2-9.2c-5.7-1.6-8-0.9-9.5,5.5
		c-5.5,23.9-11.7,47.6-17.8,71.4c-0.7,2.7-0.3,6.3-5.6,4.9C448.1,326.3,418.7,318.9,389.4,311.5z"/>
	<path class="st3" d="M885.5,276c-14.7-20.6-29.3-41.3-46.4-60c-17.8-19.5-37-37.2-57.8-53.3c-18.9-14.7-39-27.6-60-39
		c-2-1.1-4.5-1.7-5.5-4.1c7.9-18.6,13.7-38.1,22.3-56.4c10.6,1.8,18.9,8.4,27.8,13.5c18.1,10.6,35.6,22.2,52.3,35
		c32.8,25.2,62.1,54.1,88,86.4c2.2,2.8,5.2,5.3,5.1,9.4C902.7,230.2,894.1,253.1,885.5,276z"/>
	<path class="st1" d="M307.7,119.5c-1.1,2.8-3.8,3.4-6.1,4.6c-65,35.7-118,84.5-158.9,146.4c-1.4,2.1-1.6,5.9-5.7,5.3
		c-7.8-23.1-16.5-45.8-25.6-68.4c2.4-6.3,7.2-10.8,11.3-15.7c43.1-52.2,94.5-94.2,154.4-125.8c2.3-1.2,4.7-2.1,7.1-3.1
		c8.9,15.7,13.4,33.2,20.3,49.7C305.6,114.8,306.7,117.2,307.7,119.5z"/>
	<path class="st1" d="M385.2,934.6c0.4,0.5,0.8,0.9,1.2,1.4C385.5,936,385.3,935.3,385.2,934.6z"/>
	<path class="st4" d="M422,794.9c-1.8,6.5-4.1,12.9-5.3,19.6c-0.9,5.1-2.8,6.5-7.8,5.1c-13.1-3.5-26.2-7-39.4-9.9
		c-5.5-1.2-5.6-3.5-4.4-8.1c6.2-24,11.9-48.1,18.2-72c1.5-5.6,0.4-7.5-5.2-8.8c-29.9-7.2-59.7-15-89.6-22.2c-6.1-1.5-7.2-3.2-4.5-9
		c6.9-14.9,13.6-29.9,19.5-45.2c2.4-6.3,5.5-6.6,10.9-5c9,2.7,18.1,5.1,27.2,7c7.7,1.7,15.7,2.7,21.4-4.9c3.7-3,4.7-7.4,5.8-11.7
		c13.5-54,27.1-108,40.4-162.2c5.1-20.9,11.4-41.6,15-62.9c2.9-8.9-0.2-16-6.3-22.3c-3.8-4.7-9.1-6.9-14.7-8.4
		c-11.1-3-22.2-5.7-33.4-8.3c-4.2-1-6.1-2-4.5-7.2c3.7-12.2,6.3-24.8,9.4-37.2c2.9-11.5,2.9-11.5,14.6-9.8
		c29.3,7.4,58.7,14.8,87.9,22.5c5.3,1.4,4.9-2.2,5.6-4.9c6-23.8,12.2-47.5,17.8-71.4c1.5-6.4,3.8-7.1,9.5-5.5
		c12.3,3.5,24.7,6.7,37.2,9.2c6,1.2,6.5,3.7,5.1,9c-6,23.2-11.6,46.6-17.7,69.8c-1.3,4.8-0.3,6.3,4.5,7.2c9.7,1.8,19.4,4.1,28.9,6.9
		c5.2,1.5,6.8-0.1,7.9-4.8c5.6-23.3,11.7-46.6,17.2-70c1.2-5,2.6-6.2,7.7-4.8c14.1,3.9,28.4,7.1,42.6,10.5c4.4,2.1,1.7,5.5,1,8.1
		c-5.6,23.3-11.3,46.6-17.5,69.7c-1.7,6.3-0.1,8.6,5.7,10.6c14.9,4.9,29.1,11.4,42.6,19.2c25.2,14.5,44.9,33.7,52.7,62.8
		c2.5,17.3,1.2,34.3-3.7,51.2c-5.5,19-16.2,34.3-32.1,46c-9,4.6-17.9,9.1-28.8,11.6c7.5,4.8,14.2,9.1,20.9,13.3
		c22.8,18.3,35.6,41.4,33.9,71.2c-1.2,21.7-7.6,42.1-17.6,61.2c-17.4,33.3-45.8,50.3-82.5,54.6c-2.1,0.2-4.1,0.7-6.1,1
		c-26.2,1.4-52.1-1.5-77.9-6.2c-4.7-0.9-6.1,0.1-7.3,4.8c-5.9,24.6-12.3,49-18.2,73.6c-1.1,4.7-2.6,5.9-7.4,4.6
		c-12.6-3.5-25.2-6.8-37.9-9.4c-6.4-1.3-7.7-3.5-6-9.9c6.3-23.1,11.9-46.5,17.6-69.7c0.7-2.9,3-6.5-2.8-7.8
		c-10.9-2.5-21.8-5.4-32.5-8.4c-3-0.9-4.2-0.2-4.9,2.8C430.8,758.4,426.4,776.7,422,794.9z M554.3,521.8c13.3,2.3,26.5,2,39.5-1.3
		c17.4-4.5,28.8-15.1,33-32.9c4.3-18-0.6-33-14.2-45.3c-7-6.3-14.9-11.4-23.7-14.8c-20.8-10.4-43.4-14.5-65.8-19.9
		c-3.5-0.8-4.1,0.7-4.7,3.3c-7.8,31.4-15.7,62.8-23.5,94.2c-0.8,3.1-0.1,4.7,3.4,5.5C516.9,515.1,535.1,520.7,554.3,521.8z
		 M534,574.9c-15.8-5.7-32.3-8.9-48.7-12.3c-4-1.9-4.8,0.7-5.6,3.8c-8.5,34.2-17.1,68.3-25.6,102.5c-1,3.9-0.6,6,4.1,7.1
		c13.8,3,27.3,7.1,41.1,9.9c23.4,4.8,46.9,8.1,70.8,3.6c19.9-3.8,34.9-13.8,40.5-34.4c5.8-21.3-1-38.6-17.7-52.2
		C575.6,588.6,555.4,580.4,534,574.9z"/>
	<path class="st5" d="M389.4,311.5c-11.6-1.7-11.7-1.7-14.6,9.8c-3.1,12.4-5.8,24.9-9.4,37.2c-1.6,5.2,0.3,6.2,4.5,7.2
		c11.2,2.6,22.3,5.3,33.4,8.3c5.5,1.5,10.9,3.7,14.7,8.4c0.3,7.9,5.8,14.4,6.3,22.3c-3.6,21.3-9.9,42-15,62.9
		c-13.2,54.1-26.9,108.1-40.4,162.2c-1.1,4.3-2.1,8.6-5.8,11.7c-5.5-19.1-13.4-37.3-20.2-55.8c-16.5-44.8-33.5-89.3-50.3-134
		c-18.2-48.3-36-96.8-54.6-144.9c-10.3-26.6-10.9-51.9,6.9-75.5c12-15.9,27.9-25.2,48.2-27c40.4-3.7,65.8,20.7,76.1,50.7
		c6,17.5,13,34.7,19.5,52C389.4,308.3,389.2,309.9,389.4,311.5z"/>
	<path class="st5" d="M728.3,455.6c-7.8-29.1-27.5-48.3-52.7-62.8c-13.6-7.8-27.8-14.3-42.6-19.2c-5.9-1.9-7.4-4.3-5.7-10.6
		c6.2-23.1,11.8-46.4,17.5-69.7c0.6-2.6,3.4-5.9-1-8.1c5.9-17,10.5-34.8,20.3-49.8c12-18.4,29.1-29.9,52.2-31.3
		c21.7-1.3,41,3.7,56.3,19.7c19.5,20.4,26.2,44.6,17,71.3c-13.2,37.9-27.8,75.3-41.9,112.9c-5.2,13.9-10.5,27.8-15.7,41.7
		C731.1,452,730.5,454.3,728.3,455.6z"/>
	<path class="st5" d="M422,794.9c4.4-18.2,8.8-36.5,13.1-54.7c0.7-3,1.8-3.6,4.9-2.8c10.8,3,21.6,5.9,32.5,8.4
		c5.8,1.3,3.5,4.9,2.8,7.8c-5.7,23.3-11.3,46.6-17.6,69.7c-1.7,6.5-0.4,8.6,6,9.9c12.7,2.6,25.4,6,37.9,9.4c4.8,1.3,6.3,0,7.4-4.6
		c5.9-24.6,12.4-49,18.2-73.6c1.1-4.7,2.5-5.6,7.3-4.8c25.7,4.7,51.6,7.6,77.9,6.2c-1.1,8.9-5.3,16.8-8.4,25
		c-9.9,25.7-17.7,52.4-30,77.2c-12.6,25.4-34.4,38.1-62.5,37.9c-27.8-0.2-49.3-12.9-61.6-38.1C438.4,844.4,430.5,819.5,422,794.9z"
		/>
	<path class="st5" d="M684.7,577.7c-6.7-4.3-13.4-8.6-20.9-13.3c10.8-2.5,19.8-7,28.8-11.6C691.5,561.6,685.9,569,684.7,577.7z"/>
	<path class="st5" d="M534,574.9c21.4,5.5,41.6,13.7,58.9,27.8c16.7,13.7,23.6,31,17.7,52.2c-5.6,20.6-20.6,30.6-40.5,34.4
		c-23.8,4.5-47.4,1.2-70.8-3.6c-13.8-2.8-27.3-6.9-41.1-9.9c-4.7-1-5.1-3.2-4.1-7.1c8.6-34.1,17.1-68.3,25.6-102.5
		c0.8-3,1.5-5.7,5.6-3.8c-0.3,4.2,2.3,7.5,3.6,11.1c6.5,18.2,13.4,36.2,20.1,54.3c0.6,1.6,0.8,4.1,3,4c2.2-0.1,2.3-2.5,3-4.1
		c1.2-3.2,2.4-6.3,3.5-9.6C523.4,603.7,530.1,589.8,534,574.9z"/>
	<path class="st2" d="M554.3,521.8c-19.2-1.1-37.4-6.7-55.9-11.3c-3.5-0.9-4.2-2.4-3.4-5.5c7.9-31.4,15.7-62.8,23.5-94.2
		c0.6-2.5,1.3-4.1,4.7-3.3c22.3,5.4,45,9.5,65.8,19.9C579.1,459.6,566.2,490.5,554.3,521.8z"/>
	<path class="st5" d="M554.3,521.8c11.9-31.3,24.8-62.3,34.7-94.4c8.9,3.4,16.7,8.5,23.7,14.8c13.6,12.3,18.5,27.3,14.2,45.3
		c-4.3,17.8-15.6,28.5-33,32.9C580.8,523.8,567.6,524.2,554.3,521.8z"/>
	<path class="st2" d="M534,574.9c-3.9,14.9-10.6,28.8-15.5,43.4c-1.1,3.2-2.3,6.4-3.5,9.6c-0.6,1.6-0.8,4.1-3,4.1
		c-2.2,0.1-2.4-2.4-3-4c-6.8-18.1-13.6-36.1-20.1-54.3c-1.3-3.6-3.9-6.9-3.6-11.1C501.7,566,518.2,569.2,534,574.9z"/>
	<path class="st0" d="M424.3,404.7c-0.5-7.9-6-14.3-6.3-22.3C424.1,388.7,427.3,395.8,424.3,404.7z"/>
</g>
</svg>
