<?xml version="1.0" encoding="utf-8"?>
<!-- Generator: Adobe Illustrator 27.5.0, SVG Export Plug-In . SVG Version: 6.00 Build 0)  -->
<svg version="1.1" id="Layer_1" xmlns="http://www.w3.org/2000/svg" xmlns:xlink="http://www.w3.org/1999/xlink" x="0px" y="0px"
	 viewBox="0 0 500 500" style="enable-background:new 0 0 500 500;" xml:space="preserve">
<style type="text/css">
	.st0{fill:#010101;}
	.st1{fill:#8CC641;}
	.st2{fill:#131526;}
</style>
<g>
	<path class="st0" d="M1258.62,17.15c86.78,0.3,154.77,25.69,212.07,77.59c57.22,51.84,90.16,116.88,97.12,193.79
		c7.96,88.02-17.28,166.18-77.07,231.62c-54.6,59.76-123.2,92.2-204.17,97.4c-81.04,5.21-152.58-19.68-213.75-72.18
		c-61.47-52.76-96.6-120.5-103.58-201.4c-7.52-87.15,18.42-164.41,77.26-228.89C1105.51,50.45,1179.88,17.6,1258.62,17.15z
		 M1101.55,354.78c0.06-0.14,0.22-0.31,0.18-0.42c-0.1-0.27-0.28-0.52-0.44-0.78c0.01-23.05,0.01-46.09,0.02-69.14
		c0.21-0.32,0.43-0.64,0.64-0.95c2.15-0.12,4.3-0.33,6.44-0.33c36.11-0.02,72.22-0.03,108.33-0.01c15.64,0.01,31.28,0.11,46.91,0.17
		c0.34-0.52,0.69-1.04,1.03-1.56c-0.01-16.15-0.03-32.31-0.04-48.46c-0.23-0.59-0.47-1.17-0.7-1.76
		c-61.28,0.02-122.57,0.2-183.85-0.04c-16.77-0.07-30.48,14.13-30.37,30.04c0.28,38.13,0,76.27,0.19,114.41
		c0.02,4.52,0.62,9.47,2.53,13.47c5.45,11.42,14.68,17.35,27.75,17.33c50.96-0.09,101.91,0.03,152.87,0.07
		c0.3-0.02,0.6-0.04,0.9-0.06c1.25-0.38,2.49-0.83,3.77-1.13c17.08-4.01,27.1-16.46,27.15-33.87c0.04-14-0.11-28,0.04-42
		c0.12-10.96-4.46-19.98-11.8-27.44c-6.06-6.16-14.15-8.55-22.82-8.55c-32.33-0.02-64.66-0.02-97,0.02c-1.6,0-3.2,0.49-4.8,0.75
		c-0.06,0.28-0.12,0.56-0.18,0.83c0.04,16.42,0.09,32.85,0.13,49.27c0.22,0.26,0.44,0.51,0.66,0.77c26.15-0.02,52.3-0.04,78.46-0.06
		c6.52,0,6.53,0,6.43,6.71c-0.01,0.83-0.12,1.66-0.18,2.48c-1.58,0.22-3.17,0.45-4.75,0.67c-34.7,0-69.4,0-104.1,0.01
		c-1.06-0.11-2.12-0.21-3.18-0.32C1101.78,354.92,1101.55,354.78,1101.55,354.78z M1349.07,287.44c1.29-0.23,2.59-0.47,3.88-0.7
		c43.71-0.01,87.41-0.01,131.12-0.02c0.96,0.01,1.91,0.02,2.87,0.02c0.34-0.09,0.68-0.18,1.02-0.28c0.14-0.05,0.39-0.1,0.39-0.16
		c0.01-0.24-0.06-0.48-0.1-0.71c0.01-18.73,0.03-37.46,0.04-56.2c0.09-0.1,0.28-0.26,0.26-0.3c-0.13-0.21-0.31-0.4-0.47-0.59
		c-1.39-0.19-2.79-0.37-4.18-0.56c-0.28,0-0.55,0-0.83,0c-1.99,0.08-3.98,0.23-5.98,0.23c-48.47,0.01-96.95,0.46-145.42-0.18
		c-23.42-0.31-41.95,17.65-41.67,41.68c0.5,43.64,0.14,87.29,0.14,130.93c0,1.77,0,3.54,0,5.37c19.87,0,39.09,0,58.75,0
		c0-20.25,0-40.16,0-60.51c2.23,0,4.02,0,5.82,0c42.64,0,85.29,0.01,127.93-0.04c1.87,0,3.74-0.62,5.61-0.95
		c0.11-0.09,0.32-0.2,0.3-0.25c-0.06-0.23-0.18-0.44-0.28-0.66c-0.01-15.7-0.02-31.4-0.02-47.1c0.1-0.08,0.3-0.2,0.29-0.25
		c-0.06-0.22-0.19-0.43-0.29-0.64c0-1.05,0-2.1,0-3.14c-0.11-0.61-0.22-1.22-0.33-1.83c-44.36-0.03-88.72-0.05-133.09-0.08
		c-1.33,0-2.84,0.37-3.93-0.14C1350.05,289.95,1349.67,288.46,1349.07,287.44z"/>
	<path class="st1" d="M1128.49,294.55c1.6-0.26,3.2-0.75,4.8-0.75c32.33-0.04,64.66-0.04,97-0.02c8.67,0,16.76,2.4,22.82,8.55
		c7.34,7.46,11.92,16.48,11.8,27.44c-0.15,14,0,28-0.04,42c-0.05,17.41-10.06,29.86-27.15,33.87c-1.27,0.3-2.51,0.75-3.77,1.13
		c-0.31-0.18-0.62-0.16-0.9,0.06c-50.96-0.04-101.92-0.16-152.87-0.07c-13.06,0.02-22.29-5.91-27.75-17.33
		c-1.91-4-2.51-8.95-2.53-13.47c-0.19-38.14,0.09-76.27-0.19-114.41c-0.12-15.91,13.59-30.11,30.37-30.04
		c61.28,0.24,122.57,0.06,183.85,0.04c0.23,0.59,0.47,1.17,0.7,1.76c0.01,16.15,0.03,32.31,0.04,48.46
		c-0.34,0.52-0.69,1.04-1.03,1.56c-15.64-0.06-31.28-0.16-46.91-0.17c-36.11-0.03-72.22-0.01-108.33,0.01
		c-2.15,0-4.3,0.22-6.44,0.33c-0.21,0.32-0.43,0.64-0.64,0.95c-0.01,23.05-0.01,46.09-0.02,69.13c-0.05,0.14-0.17,0.31-0.14,0.43
		c0.09,0.27,0.26,0.51,0.39,0.77c0,0,0.22,0.14,0.23,0.14c1.06,0.11,2.12,0.21,3.18,0.32c34.7,0,69.4,0,104.1-0.01
		c1.58-0.22,3.17-0.45,4.75-0.67c0.06-0.83,0.17-1.65,0.18-2.48c0.09-6.71,0.09-6.72-6.43-6.71c-26.15,0.02-52.3,0.04-78.46,0.06
		c-0.22-0.26-0.44-0.51-0.66-0.77c-0.04-16.42-0.09-32.85-0.13-49.27C1128.59,295.16,1128.65,294.88,1128.49,294.55z"/>
	<path class="st1" d="M1483.91,227.96c1.39,0.19,2.79,0.37,4.18,0.56c-0.01,0.32,0.06,0.61,0.21,0.89
		c-0.01,18.73-0.03,37.46-0.04,56.2c-0.19,0.26-0.29,0.55-0.3,0.87c-0.34,0.09-0.68,0.18-1.02,0.28c-0.96-0.01-1.91-0.02-2.87-0.02
		c-43.71,0.01-87.41,0.01-131.12,0.02c-1.29,0.23-2.59,0.47-3.88,0.7c0.6,1.02,0.97,2.51,1.85,2.93c1.09,0.52,2.6,0.14,3.93,0.14
		c44.36,0.03,88.72,0.06,133.09,0.08c0.11,0.61,0.22,1.22,0.33,1.83c0,1.05,0,2.1,0,3.14c-0.2,0.29-0.21,0.59,0,0.89
		c0.01,15.7,0.02,31.4,0.02,47.1c-0.17,0.3-0.18,0.61-0.02,0.92c-1.87,0.33-3.74,0.95-5.61,0.95c-42.64,0.05-85.29,0.04-127.93,0.04
		c-1.8,0-3.6,0-5.82,0c0,20.35,0,40.26,0,60.51c-19.66,0-38.88,0-58.75,0c0-1.83,0-3.6,0-5.37c0-43.64,0.37-87.29-0.14-130.93
		c-0.28-24.03,18.25-41.99,41.67-41.68c48.47,0.65,96.95,0.2,145.42,0.18c1.99,0,3.98-0.15,5.98-0.23c0,0,0.41,0.19,0.41,0.19
		L1483.91,227.96z M1300.9,399.05c13.06,0.01,26.13,0.02,39.19,0.02c0.32-0.16,0.64-0.32,0.95-0.49c0.09-0.86,0.19-1.72,0.28-2.59
		c0.05-0.46,0.1-0.91,0.14-1.37c-0.01-16.44-0.02-32.88-0.02-49.32c0-1.87,0.01-3.73,0.01-5.6c0.19-0.45,0.38-0.9,0.56-1.35
		c0.32,0.05,0.62,0,0.9-0.17c9.14,0.06,18.28,0.18,27.42,0.17c36.57-0.03,73.14-0.1,109.71-0.16c0.26-0.22,0.52-0.44,0.77-0.66
		c0.02-13.02,0.03-26.05,0.05-39.07c-0.28-0.25-0.56-0.5-0.83-0.75c-2-0.06-3.99-0.16-5.99-0.16c-42.49-0.01-84.97-0.01-127.46-0.01
		c-1.77,0-3.53,0-5.29,0c0-6.33,0-12.06,0-18.27c46.71,0,93.09,0,139.42,0c0-14.89,0-29.29,0-43.95c-2.34,0-4.32,0-6.31,0
		c-47.65,0-95.3,0-142.95,0c-1.5,0-3,0.01-4.5,0.04c-11.92,0.23-27.97,10.55-29.32,28.3c-0.63,8.28-0.38,16.64-0.38,24.97
		c0.02,34.98,0.1,69.97,0.16,104.95c-0.21,0.27-0.21,0.53,0,0.8c0.01,1.05,0.02,2.11,0.03,3.16c0.21,0.42,0.41,0.84,0.62,1.26
		c0.68,0.07,1.36,0.15,2.04,0.22l0.4,0.16L1300.9,399.05z"/>
	<path class="st2" d="M1213.8,354.56c-1.58,0.22-3.17,0.45-4.75,0.67C1210.64,355.01,1212.22,354.78,1213.8,354.56z"/>
	<path class="st2" d="M1349.07,287.44c1.29-0.23,2.59-0.47,3.88-0.7C1351.66,286.98,1350.37,287.21,1349.07,287.44z"/>
	<path class="st2" d="M1104.95,355.24c-1.06-0.11-2.12-0.22-3.18-0.32C1102.84,355.02,1103.9,355.13,1104.95,355.24z"/>
	<path class="st2" d="M1484.07,286.72c0.96,0.01,1.92,0.02,2.87,0.02C1485.99,286.74,1485.03,286.73,1484.07,286.72z"/>
	<path class="st2" d="M1263.64,283.33c0.34-0.52,0.69-1.04,1.03-1.56C1264.33,282.29,1263.98,282.81,1263.64,283.33z"/>
	<path class="st2" d="M1488.27,292.42c-0.11-0.61-0.22-1.22-0.33-1.83C1488.05,291.2,1488.16,291.81,1488.27,292.42z"/>
	<path class="st2" d="M1264.63,233.31c-0.23-0.59-0.47-1.17-0.7-1.76C1264.16,232.14,1264.39,232.72,1264.63,233.31z"/>
	<path class="st2" d="M1488.3,229.41c-0.15-0.28-0.22-0.57-0.21-0.89c0.16,0.19,0.34,0.38,0.47,0.59
		C1488.58,229.14,1488.39,229.3,1488.3,229.41z"/>
	<path class="st2" d="M1101.31,284.45c0.21-0.32,0.43-0.64,0.64-0.95C1101.74,283.81,1101.52,284.13,1101.31,284.45z"/>
	<path class="st2" d="M1487.97,286.47c0.01-0.32,0.11-0.61,0.3-0.87c0.04,0.24,0.1,0.48,0.1,0.71
		C1488.36,286.37,1488.1,286.42,1487.97,286.47z"/>
	<path class="st2" d="M1233.05,406.84c0.29-0.22,0.59-0.24,0.9-0.06C1233.65,406.79,1233.35,406.81,1233.05,406.84z"/>
	<path class="st2" d="M1483.91,227.96l-0.41,0.18c0,0-0.41-0.18-0.41-0.19C1483.36,227.96,1483.64,227.96,1483.91,227.96z"/>
	<path class="st2" d="M1101.55,354.78c-0.14-0.25-0.3-0.5-0.39-0.77c-0.04-0.11,0.09-0.28,0.14-0.43c0.15,0.26,0.33,0.5,0.44,0.78
		C1101.77,354.46,1101.62,354.64,1101.55,354.78z"/>
	<path class="st2" d="M1128.44,344.66c0.22,0.26,0.44,0.51,0.66,0.77C1128.88,345.17,1128.66,344.91,1128.44,344.66z"/>
	<path class="st2" d="M1488.27,344.47c-0.15-0.31-0.15-0.62,0.02-0.92c0.1,0.22,0.23,0.43,0.28,0.66
		C1488.59,344.27,1488.37,344.38,1488.27,344.47z"/>
	<path class="st2" d="M1488.26,296.45c-0.2-0.3-0.2-0.59,0-0.89c0.1,0.21,0.23,0.42,0.29,0.64
		C1488.57,296.26,1488.37,296.37,1488.26,296.45z"/>
	<path class="st2" d="M1128.49,294.55c0.17,0.32,0.11,0.6-0.17,0.83C1128.37,295.11,1128.43,294.83,1128.49,294.55z"/>
	<path class="st0" d="M1340.09,399.07c-13.06-0.01-26.13-0.02-39.19-0.02c-0.27,0-0.53,0-0.8,0c-0.68-0.07-1.36-0.15-2.04-0.22
		c-0.21-0.42-0.41-0.84-0.62-1.26c-0.01-1.05-0.02-2.11-0.03-3.16c0.09-0.08,0.27-0.18,0.25-0.22c-0.05-0.2-0.17-0.39-0.26-0.58
		c-0.06-34.98-0.14-69.97-0.16-104.95c-0.01-8.33-0.25-16.68,0.38-24.97c1.35-17.75,17.41-28.07,29.32-28.3
		c1.5-0.03,3-0.04,4.5-0.04c47.65,0,95.3,0,142.95,0c1.98,0,3.97,0,6.31,0c0,14.66,0,29.06,0,43.95c-46.32,0-92.71,0-139.42,0
		c0,6.21,0,11.94,0,18.27c1.76,0,3.53,0,5.29,0c42.49,0,84.97,0,127.46,0.01c2,0,3.99,0.1,5.99,0.16c0.28,0.25,0.56,0.5,0.83,0.75
		c-0.02,13.02-0.03,26.05-0.05,39.07c-0.26,0.22-0.52,0.44-0.77,0.66c-36.57,0.06-73.14,0.13-109.71,0.16
		c-9.14,0.01-18.28-0.11-27.42-0.17c-0.3,0.06-0.6,0.11-0.9,0.17c-0.19,0.45-0.38,0.9-0.56,1.35c0,1.86-0.01,3.73-0.01,5.6
		c0.01,16.44,0.02,32.88,0.03,49.31c-0.05,0.46-0.1,0.91-0.14,1.37c-0.09,0.86-0.19,1.72-0.28,2.58
		C1340.72,398.75,1340.41,398.91,1340.09,399.07z"/>
	<path class="st2" d="M1341.44,345.32c0-1.87,0.01-3.73,0.01-5.6C1341.45,341.59,1341.44,343.45,1341.44,345.32z"/>
	<path class="st2" d="M1297.45,397.57c0.21,0.42,0.41,0.84,0.62,1.26C1297.86,398.41,1297.65,397.99,1297.45,397.57z"/>
	<path class="st2" d="M1340.09,399.07c0.32-0.16,0.64-0.32,0.95-0.49C1340.72,398.75,1340.41,398.91,1340.09,399.07z"/>
	<path class="st2" d="M1300.1,399.05c0.27,0,0.53,0,0.8,0c0,0-0.4,0.16-0.4,0.16L1300.1,399.05z"/>
	<path class="st2" d="M1341.32,396c0.05-0.46,0.1-0.91,0.14-1.37C1341.42,395.09,1341.37,395.54,1341.32,396z"/>
	<path class="st2" d="M1297.41,393.61c0.09,0.19,0.2,0.38,0.26,0.58c0.01,0.05-0.16,0.15-0.25,0.22
		C1297.2,394.14,1297.2,393.87,1297.41,393.61z"/>
	<path class="st2" d="M1480.04,338.21c0.26-0.22,0.52-0.44,0.77-0.66C1480.56,337.77,1480.3,337.99,1480.04,338.21z"/>
	<path class="st2" d="M1342.01,338.37c0.3-0.06,0.6-0.11,0.9-0.17C1342.63,338.36,1342.33,338.42,1342.01,338.37z"/>
	<path class="st2" d="M1480.87,298.48c-0.28-0.25-0.56-0.5-0.83-0.75C1480.31,297.98,1480.59,298.23,1480.87,298.48z"/>
</g>
<g>
	<path class="st0" d="M241.63,0c72.18,0.25,128.74,21.37,176.4,64.54c47.6,43.12,75,97.22,80.78,161.2
		c6.62,73.22-14.37,138.23-64.11,192.67c-45.41,49.71-102.48,76.69-169.83,81.02c-67.41,4.33-126.92-16.37-177.8-60.04
		C35.94,395.51,6.72,339.16,0.91,271.87c-6.25-72.49,15.32-136.76,64.27-190.39C114.27,27.7,176.13,0.38,241.63,0z M110.97,280.85
		c0.05-0.12,0.18-0.26,0.15-0.35c-0.08-0.23-0.24-0.43-0.36-0.65c0-19.17,0.01-38.34,0.01-57.51c0.18-0.26,0.35-0.53,0.53-0.79
		c1.79-0.1,3.57-0.28,5.36-0.28c30.04-0.02,60.07-0.03,90.11-0.01c13.01,0.01,26.02,0.09,39.02,0.14c0.29-0.43,0.57-0.86,0.86-1.3
		c-0.01-13.44-0.02-26.88-0.03-40.31c-0.19-0.49-0.39-0.97-0.58-1.46c-50.98,0.02-101.95,0.17-152.93-0.03
		c-13.95-0.06-25.36,11.75-25.26,24.99c0.23,31.72,0,63.45,0.16,95.17c0.02,3.76,0.52,7.88,2.11,11.21
		c4.54,9.5,12.21,14.43,23.08,14.41c42.39-0.07,84.77,0.03,127.16,0.06c0.25-0.02,0.5-0.04,0.75-0.05c1.04-0.32,2.07-0.69,3.13-0.94
		c14.21-3.34,22.54-13.69,22.58-28.17c0.03-11.65-0.09-23.29,0.04-34.94c0.1-9.12-3.71-16.62-9.82-22.83
		c-5.04-5.12-11.77-7.11-18.98-7.12c-26.89-0.01-53.79-0.02-80.68,0.02c-1.33,0-2.66,0.41-4,0.62c-0.05,0.23-0.1,0.46-0.15,0.69
		c0.04,13.66,0.07,27.32,0.11,40.98c0.18,0.21,0.36,0.43,0.55,0.64c21.75-0.02,43.51-0.04,65.26-0.05c5.42,0,5.43,0,5.35,5.58
		c-0.01,0.69-0.1,1.38-0.15,2.07c-1.32,0.19-2.63,0.37-3.95,0.56c-28.86,0-57.73,0-86.59,0c-0.88-0.09-1.76-0.18-2.64-0.27
		C111.16,280.96,110.97,280.85,110.97,280.85z M316.87,224.84c1.08-0.19,2.15-0.39,3.23-0.58c36.35-0.01,72.71-0.01,109.06-0.02
		c0.8,0.01,1.59,0.01,2.39,0.02c0.28-0.08,0.57-0.15,0.85-0.23c0.11-0.04,0.33-0.08,0.33-0.13c0.01-0.2-0.05-0.4-0.08-0.59
		c0.01-15.58,0.02-31.16,0.03-46.75c0.08-0.09,0.23-0.22,0.21-0.25c-0.11-0.18-0.25-0.33-0.39-0.49c-1.16-0.16-2.32-0.31-3.48-0.47
		c-0.23,0-0.46,0-0.69,0c-1.66,0.07-3.31,0.19-4.97,0.19c-40.32,0.01-80.65,0.38-120.96-0.15c-19.48-0.26-34.89,14.68-34.66,34.67
		c0.42,36.3,0.12,72.61,0.11,108.91c0,1.47,0,2.94,0,4.47c16.53,0,32.51,0,48.87,0c0-16.85,0-33.41,0-50.33c1.85,0,3.35,0,4.84,0
		c35.47,0,70.94,0.01,106.42-0.04c1.56,0,3.11-0.52,4.67-0.79c0.09-0.07,0.26-0.16,0.25-0.21c-0.05-0.19-0.15-0.37-0.24-0.55
		c-0.01-13.06-0.01-26.12-0.02-39.18c0.09-0.07,0.25-0.16,0.24-0.21c-0.05-0.18-0.15-0.35-0.24-0.53c0-0.87,0-1.74,0-2.62
		c-0.09-0.51-0.18-1.01-0.27-1.52c-36.9-0.02-73.8-0.05-110.7-0.07c-1.11,0-2.36,0.31-3.27-0.12
		C317.68,226.92,317.36,225.68,316.87,224.84z"/>
	<path class="st1" d="M133.38,230.75c1.33-0.22,2.66-0.62,4-0.62c26.89-0.04,53.79-0.03,80.68-0.02c7.21,0,13.94,1.99,18.98,7.12
		c6.11,6.2,9.92,13.71,9.82,22.83c-0.13,11.64,0,23.29-0.04,34.94c-0.04,14.49-8.37,24.84-22.58,28.17
		c-1.06,0.25-2.09,0.62-3.13,0.94c-0.26-0.15-0.51-0.13-0.75,0.05c-42.39-0.03-84.77-0.13-127.16-0.06
		c-10.87,0.02-18.54-4.91-23.08-14.41c-1.59-3.33-2.09-7.44-2.11-11.21c-0.16-31.72,0.07-63.45-0.16-95.17
		c-0.1-13.24,11.31-25.05,25.26-24.99c50.98,0.2,101.95,0.05,152.93,0.03c0.19,0.49,0.39,0.97,0.58,1.46
		c0.01,13.44,0.02,26.88,0.03,40.31c-0.29,0.43-0.57,0.86-0.86,1.3c-13.01-0.05-26.02-0.13-39.02-0.14
		c-30.04-0.02-60.07-0.01-90.11,0.01c-1.79,0-3.57,0.18-5.36,0.28c-0.18,0.26-0.35,0.53-0.53,0.79c0,19.17-0.01,38.34-0.01,57.51
		c-0.04,0.12-0.14,0.26-0.11,0.35c0.08,0.22,0.21,0.43,0.33,0.64c0,0,0.19,0.12,0.19,0.11c0.88,0.09,1.76,0.18,2.64,0.27
		c28.86,0,57.73,0,86.59,0c1.32-0.19,2.63-0.37,3.95-0.56c0.05-0.69,0.14-1.38,0.15-2.07c0.08-5.58,0.07-5.59-5.35-5.58
		c-21.75,0.01-43.51,0.03-65.26,0.05c-0.18-0.21-0.36-0.43-0.55-0.64c-0.04-13.66-0.07-27.32-0.11-40.98
		C133.47,231.25,133.52,231.02,133.38,230.75z"/>
	<path class="st1" d="M429.03,175.36c1.16,0.16,2.32,0.31,3.48,0.47c-0.01,0.26,0.05,0.51,0.17,0.74
		c-0.01,15.58-0.02,31.16-0.03,46.74c-0.16,0.22-0.24,0.46-0.25,0.72c-0.28,0.08-0.57,0.15-0.85,0.23c-0.8-0.01-1.59-0.01-2.39-0.02
		c-36.35,0.01-72.71,0.01-109.06,0.02c-1.08,0.19-2.15,0.39-3.23,0.58c0.5,0.85,0.81,2.09,1.54,2.43c0.91,0.43,2.16,0.12,3.27,0.12
		c36.9,0.02,73.8,0.05,110.7,0.07c0.09,0.51,0.18,1.01,0.27,1.52c0,0.87,0,1.74,0,2.61c-0.17,0.25-0.17,0.49,0,0.74
		c0.01,13.06,0.01,26.12,0.02,39.18c-0.14,0.25-0.15,0.51-0.02,0.76c-1.56,0.28-3.11,0.79-4.67,0.79
		c-35.47,0.05-70.94,0.04-106.42,0.04c-1.5,0-2.99,0-4.84,0c0,16.93,0,33.49,0,50.33c-16.35,0-32.34,0-48.87,0c0-1.52,0-3,0-4.47
		c0-36.3,0.3-72.61-0.11-108.91c-0.23-19.99,15.18-34.93,34.66-34.67c40.31,0.54,80.64,0.16,120.96,0.15c1.66,0,3.31-0.12,4.97-0.19
		c0,0,0.34,0.15,0.34,0.15L429.03,175.36z M276.79,317.67c10.87,0.01,21.73,0.01,32.6,0.02c0.26-0.13,0.53-0.27,0.79-0.4
		c0.08-0.72,0.16-1.43,0.23-2.15c0.04-0.38,0.08-0.76,0.12-1.14c-0.01-13.67-0.01-27.35-0.02-41.02c0-1.55,0-3.1,0.01-4.65
		c0.16-0.38,0.31-0.75,0.47-1.13c0.27,0.04,0.52,0,0.75-0.14c7.6,0.05,15.2,0.15,22.81,0.14c30.42-0.03,60.84-0.09,91.26-0.13
		c0.21-0.18,0.43-0.37,0.64-0.55c0.01-10.83,0.03-21.67,0.04-32.5c-0.23-0.21-0.46-0.41-0.69-0.62c-1.66-0.05-3.32-0.13-4.98-0.13
		c-35.34-0.01-70.68-0.01-106.02-0.01c-1.47,0-2.94,0-4.4,0c0-5.27,0-10.04,0-15.2c38.85,0,77.44,0,115.97,0
		c0-12.39,0-24.37,0-36.56c-1.95,0-3.6,0-5.25,0c-39.64,0-79.27,0-118.91,0c-1.25,0-2.49,0.01-3.74,0.04
		c-9.91,0.19-23.27,8.78-24.39,23.54c-0.52,6.89-0.32,13.84-0.31,20.77c0.02,29.1,0.09,58.2,0.13,87.3c-0.18,0.22-0.17,0.44,0,0.67
		c0.01,0.88,0.02,1.75,0.02,2.63c0.17,0.35,0.34,0.7,0.51,1.05c0.56,0.06,1.13,0.12,1.69,0.18l0.33,0.13L276.79,317.67z"/>
	<path class="st2" d="M204.35,280.66c-1.32,0.19-2.63,0.37-3.95,0.56C201.71,281.04,203.03,280.85,204.35,280.66z"/>
	<path class="st2" d="M316.87,224.84c1.08-0.19,2.15-0.39,3.23-0.58C319.02,224.45,317.94,224.64,316.87,224.84z"/>
	<path class="st2" d="M113.8,281.23c-0.88-0.09-1.76-0.18-2.64-0.27C112.04,281.05,112.92,281.14,113.8,281.23z"/>
	<path class="st2" d="M429.16,224.24c0.8,0.01,1.59,0.01,2.39,0.02C430.75,224.25,429.96,224.24,429.16,224.24z"/>
	<path class="st2" d="M245.8,221.41c0.29-0.43,0.57-0.87,0.86-1.3C246.37,220.55,246.09,220.98,245.8,221.41z"/>
	<path class="st2" d="M432.65,228.98c-0.09-0.51-0.18-1.01-0.27-1.52C432.47,227.96,432.56,228.47,432.65,228.98z"/>
	<path class="st2" d="M246.62,179.81c-0.19-0.49-0.39-0.97-0.58-1.46C246.23,178.83,246.43,179.32,246.62,179.81z"/>
	<path class="st2" d="M432.68,176.56c-0.13-0.23-0.18-0.48-0.17-0.74c0.13,0.16,0.28,0.31,0.39,0.49
		C432.91,176.34,432.76,176.48,432.68,176.56z"/>
	<path class="st2" d="M110.77,222.35c0.18-0.26,0.36-0.53,0.53-0.79C111.13,221.82,110.95,222.08,110.77,222.35z"/>
	<path class="st2" d="M432.4,224.03c0.01-0.27,0.09-0.51,0.25-0.72c0.03,0.2,0.09,0.4,0.08,0.59
		C432.72,223.95,432.51,223.99,432.4,224.03z"/>
	<path class="st2" d="M220.36,324.15c0.24-0.18,0.49-0.2,0.75-0.05C220.86,324.11,220.61,324.13,220.36,324.15z"/>
	<path class="st2" d="M429.03,175.36l-0.34,0.15c0,0-0.34-0.15-0.34-0.15C428.57,175.36,428.8,175.36,429.03,175.36z"/>
	<path class="st2" d="M110.97,280.85c-0.11-0.21-0.25-0.42-0.33-0.64c-0.03-0.1,0.07-0.24,0.11-0.35c0.13,0.21,0.28,0.42,0.36,0.65
		C111.15,280.59,111.03,280.73,110.97,280.85z"/>
	<path class="st2" d="M133.34,272.43c0.18,0.21,0.37,0.43,0.55,0.64C133.71,272.85,133.52,272.64,133.34,272.43z"/>
	<path class="st2" d="M432.65,272.27c-0.13-0.26-0.12-0.51,0.02-0.76c0.08,0.18,0.19,0.36,0.24,0.55
		C432.91,272.11,432.74,272.2,432.65,272.27z"/>
	<path class="st2" d="M432.65,232.33c-0.17-0.25-0.17-0.49,0-0.74c0.08,0.18,0.19,0.35,0.24,0.53
		C432.9,232.17,432.73,232.26,432.65,232.33z"/>
	<path class="st2" d="M133.38,230.75c0.14,0.27,0.09,0.5-0.15,0.69C133.28,231.21,133.33,230.98,133.38,230.75z"/>
	<path class="st0" d="M309.39,317.69c-10.87-0.01-21.73-0.01-32.6-0.02c-0.22,0-0.44,0-0.67,0c-0.56-0.06-1.13-0.12-1.69-0.18
		c-0.17-0.35-0.34-0.7-0.51-1.05c-0.01-0.88-0.02-1.75-0.02-2.63c0.07-0.06,0.22-0.15,0.21-0.19c-0.05-0.17-0.14-0.32-0.21-0.48
		c-0.05-29.1-0.12-58.2-0.13-87.3c0-6.93-0.21-13.88,0.31-20.77c1.12-14.77,14.48-23.35,24.39-23.54c1.25-0.02,2.49-0.04,3.74-0.04
		c39.64,0,79.27,0,118.91,0c1.65,0,3.3,0,5.25,0c0,12.19,0,24.17,0,36.56c-38.53,0-77.12,0-115.97,0c0,5.16,0,9.93,0,15.2
		c1.47,0,2.93,0,4.4,0c35.34,0,70.68,0,106.02,0.01c1.66,0,3.32,0.09,4.98,0.13c0.23,0.21,0.46,0.41,0.69,0.62
		c-0.01,10.83-0.03,21.67-0.04,32.5c-0.21,0.18-0.43,0.37-0.64,0.55c-30.42,0.05-60.84,0.11-91.26,0.13
		c-7.6,0.01-15.2-0.09-22.81-0.14c-0.25,0.05-0.5,0.09-0.75,0.14c-0.16,0.38-0.31,0.75-0.47,1.12c0,1.55,0,3.1-0.01,4.66
		c0.01,13.67,0.01,27.35,0.02,41.02c-0.04,0.38-0.08,0.76-0.12,1.14c-0.08,0.72-0.16,1.43-0.23,2.15
		C309.92,317.42,309.66,317.56,309.39,317.69z"/>
	<path class="st2" d="M310.52,272.98c0-1.55,0-3.1,0.01-4.66C310.52,269.88,310.52,271.43,310.52,272.98z"/>
	<path class="st2" d="M273.92,316.44c0.17,0.35,0.34,0.7,0.51,1.05C274.26,317.14,274.09,316.79,273.92,316.44z"/>
	<path class="st2" d="M309.39,317.69c0.26-0.14,0.53-0.27,0.79-0.4C309.92,317.42,309.66,317.56,309.39,317.69z"/>
	<path class="st2" d="M276.13,317.67c0.22,0,0.44,0,0.67,0c0,0-0.33,0.13-0.33,0.13L276.13,317.67z"/>
	<path class="st2" d="M310.42,315.14c0.04-0.38,0.08-0.76,0.12-1.14C310.5,314.38,310.46,314.76,310.42,315.14z"/>
	<path class="st2" d="M273.9,313.14c0.08,0.16,0.17,0.31,0.21,0.48c0.01,0.04-0.14,0.12-0.21,0.19
		C273.72,313.59,273.72,313.37,273.9,313.14z"/>
	<path class="st2" d="M425.81,267.07c0.21-0.18,0.43-0.37,0.64-0.55C426.24,266.7,426.02,266.88,425.81,267.07z"/>
	<path class="st2" d="M310.99,267.2c0.25-0.05,0.5-0.09,0.75-0.14C311.51,267.19,311.26,267.24,310.99,267.2z"/>
	<path class="st2" d="M426.49,234.01c-0.23-0.21-0.46-0.41-0.69-0.62C426.03,233.6,426.26,233.81,426.49,234.01z"/>
</g>
</svg>
