<?xml version="1.0" encoding="utf-8"?>
<!-- Generator: Adobe Illustrator 21.0.0, SVG Export Plug-In . SVG Version: 6.00 Build 0)  -->
<svg version="1.1" id="Layer_1" xmlns="http://www.w3.org/2000/svg" xmlns:xlink="http://www.w3.org/1999/xlink" x="0px" y="0px"
	 viewBox="0 0 1000.2 1000.1" style="enable-background:new 0 0 1000.2 1000.1;" xml:space="preserve">
<style type="text/css">
	.st0{fill:#E1AA4C;}
	.st1{fill:#FFFFFF;}
</style>
<g>
	<g>
		<g>
			<path id="SVGID_1_" class="st0" d="M500,0c276.1,0,500,223.9,500,500s-223.9,500-500,500S0,776.1,0,500S223.9,0,500,0L500,0z"/>
		</g>
	</g>
</g>
<path class="st1" d="M507.9,200l-195.8,58.5c-6.6,2-10.3,8.8-8.3,15.3c1.6,5.3,6.6,8.7,11.9,8.7c1.2,0,2.4-0.2,3.6-0.5l188.6-56.3
	L697,282c1.2,0.4,2.4,0.5,3.6,0.5c5.4,0,10.3-3.4,11.9-8.7c2-6.5-1.7-13.4-8.3-15.3L507.9,200L507.9,200z M237.9,282.3
	c-0.3,0-0.6,0-1,0c-5.4,0.4-10.6,4.3-11.7,10.5c-2.1,11.8-16.6,103.4,11.1,212.4c27.8,109.5,98.4,236.4,266.1,317.1l5.5,2.6l5.5-2.6
	C681,741.7,751.7,614.7,779.7,505.3c27.9-109,13.4-200.6,11.4-212.4c-1.1-6.2-6.3-10.1-11.7-10.5c-0.3,0-0.6,0-1,0
	c-4.7,0-9.2,2.5-11.5,6.9L653.2,508h-290L249.4,289.3C247.1,284.8,242.6,282.3,237.9,282.3L237.9,282.3z M478.5,782
	c-134.9-76.8-193.6-186.8-218-282.8c-16.9-66.5-17.3-126.3-14.9-163.5l98.8,190.1L478.5,782L478.5,782z M537.3,782l134.5-256.1
	l98.8-190c2.3,37.2,1.8,97-15.2,163.4C731,595.2,672.2,705.2,537.3,782L537.3,782z M640.3,532.6l-132.4,252L376,532.6H640.3
	L640.3,532.6z"/>
</svg>
