<?xml version="1.0" encoding="utf-8"?>
<!-- Generator: Adobe Illustrator 27.5.0, SVG Export Plug-In . SVG Version: 6.00 Build 0)  -->
<svg version="1.1" id="katman_1" xmlns="http://www.w3.org/2000/svg" xmlns:xlink="http://www.w3.org/1999/xlink" x="0px" y="0px"
	 viewBox="0 0 500 500" style="enable-background:new 0 0 500 500;" xml:space="preserve">
<style type="text/css">
	.st0{fill:#FFFFFF;}
	.st1{fill:#1E284B;}
	.st2{fill:#FBC506;}
</style>
<circle class="st0" cx="249" cy="250.5" r="250"/>
<path class="st1" d="M370.2,107.4L370.2,107.4c-1.2,0-2.2,0.3-3.3,0.8l0,0c0,0-17.6,10.1-25.2,14.2c-6.2,3.4-6.5,7.5-6.5,8.9
	s0.5,5.5,6.5,8.9c7.5,4.1,25.2,14.2,25.2,14.2l0,0c0.9,0.6,2.1,0.8,3.3,0.8c1.7,0,3.4-0.7,4.5-1.9s1.9-2.8,1.9-4.5
	c0-1.2-0.3-2.2-0.8-3.3c-0.6-0.9-1.4-1.7-2.3-2.3l0,0l-21.7-11.9l21.7-11.9l0,0c0.9-0.6,1.7-1.4,2.3-2.3c0.6-0.9,0.8-2.1,0.8-3.3
	c0-1.7-0.7-3.4-1.9-4.5C373.5,108.1,371.9,107.4,370.2,107.4L370.2,107.4z M222.4,110.8c-2.9,0-5.8,0.6-8.5,1.6
	c-2.7,1-5.1,2.8-7.2,4.8c-2.1,2.1-3.7,4.5-4.8,7.2c-1.2,2.7-1.6,5.6-1.6,8.5s0.6,5.8,1.6,8.5c1.2,2.7,2.8,5.1,4.8,7.2
	c2.1,2.1,4.5,3.7,7.2,4.8c2.7,1.2,5.6,1.6,8.5,1.6c2.9,0,5.8-0.6,8.5-1.6c2.7-1.2,5.1-2.8,7.2-4.8c2.1-2,3.7-4.5,4.8-7.2
	c1.2-2.7,1.6-5.6,1.6-8.5c0-5.8-2.3-11.5-6.5-15.7C233.9,113.1,228.2,110.8,222.4,110.8z M450.4,184.8c-2.8,0-5.5,0.7-7.9,1.9
	c-2.4,1.3-4.7,3-6.3,5.2l0,0l-35.2,49.5h0.1c-2.2,3-3.5,6.8-3.5,10.5s1.3,7.5,3.5,10.5h-0.1l35.2,49.5l0,0c1.6,2.2,3.8,4.1,6.3,5.2
	c2.4,1.3,5.2,1.9,7.9,1.9c2.3,0,4.7-0.5,6.8-1.4c2.2-0.9,4.1-2.2,5.8-3.8c1.6-1.6,2.9-3.6,3.8-5.8s1.4-4.4,1.4-6.8
	c0-3.6-1.2-7.2-3.3-10.3l0,0l-27.9-39.2l27.9-39.2l0,0c2.1-3,3.3-6.5,3.3-10.3c0-2.3-0.5-4.7-1.4-6.8c-0.9-2.2-2.2-4.1-3.8-5.8
	c-1.6-1.6-3.6-2.9-5.8-3.8C455,185.3,452.7,184.8,450.4,184.8L450.4,184.8z M199.2,346.3c-4.9,0-9,4.2-9,9.3c0,3.6,2,6.9,5,8.4
	c51.8,32.5,97.2,29.5,97.2,29.5s45.5,2.9,97.2-29.5c3-1.6,5-4.8,5-8.4c0-5.1-4-9.3-9-9.3c-1.9,0-3.7,0.6-5.2,1.7l-0.8,0.5
	c0,0-38.8,27.3-87.3,26.5c-48.5,0.8-87.3-26.5-87.3-26.5l-0.8-0.5C202.9,347,201,346.3,199.2,346.3z"/>
<path class="st2" d="M320.6,184c-1.6,0-3.3,0.1-4.9,0.2c-0.9,0.1-1.7,0.2-2.7,0.3c-1,0.1-2.1,0.2-3,0.5c-0.8,0.1-1.6,0.3-2.4,0.6
	c-1,0.2-2.1,0.5-3.1,0.8c-0.7,0.2-1.5,0.5-2.2,0.7c-1,0.3-2.2,0.7-3.3,1.2c-0.7,0.2-1.4,0.6-2,0.9c-1,0.5-2.1,1-3.1,1.5
	c-0.6,0.3-1.2,0.7-1.9,1c-1,0.6-2.1,1.3-3.1,2c-0.6,0.3-1,0.7-1.6,1.2c-1,0.7-2.1,1.5-3,2.3c-0.5,0.3-0.9,0.8-1.4,1.2
	c-1,0.8-2,1.7-2.9,2.7c-0.3,0.3-0.8,0.8-1.2,1.2c-0.9,1-1.9,2-2.7,3c-0.3,0.5-0.7,0.8-0.9,1.3c-0.8,1-1.6,2.2-2.4,3.4
	c-0.2,0.5-0.6,0.8-0.8,1.3c-0.7,1.2-1.5,2.4-2.1,3.7c-0.2,0.5-0.5,0.8-0.6,1.3c-0.6,1.3-1.3,2.6-1.7,4c-0.1,0.5-0.3,0.8-0.5,1.3
	c-0.5,1.4-0.9,2.8-1.4,4.2c-0.1,0.5-0.2,0.8-0.3,1.3c-0.3,1.4-0.7,2.9-0.9,4.3c-0.1,0.5-0.1,0.8-0.2,1.3c-0.2,1.5-0.5,2.9-0.6,4.4
	c-0.1,0.9-0.1,1.9-0.1,2.8l0,0v0.3c0,0.3,0,0.8,0,1.2c0,0.1,0,0.3,0,0.5l0,0l0,0V302l0,0c0,4.5,1.9,8.9,5.1,12.1
	c3.3,3.3,7.6,5,12.1,5s9-1.7,12.1-5c3.3-3.3,5.1-7.6,5.1-12.1l0,0v-0.2v-61.9c0.3-5,2.2-9.7,5.5-13.5c3.3-3.7,7.6-6.4,12.5-7.5h0.1
	c0.6-0.1,1.2-0.2,1.7-0.2c0.2,0,0.3-0.1,0.6-0.1c0.5,0,0.9-0.1,1.4-0.1c0.3,0,0.7,0,0.9,0l0,0c0.3,0,0.7,0,1.2,0s0.8,0,1.3,0.1
	c0.2,0,0.5,0.1,0.7,0.1c0.6,0.1,1,0.1,1.6,0.2c0.1,0,0.1,0,0.2,0c0.7,0.1,1.4,0.3,2,0.6c4.4,1.4,8.3,4.1,11.1,7.7s4.5,8,4.8,12.7
	v61.9v0.2l0,0c0,4.5,1.9,8.9,5.1,12.1c3.3,3.3,7.6,5,12.1,5s9-1.7,12.1-5c3.3-3.3,5.1-7.6,5.1-12.1l0,0v-60.1l0,0l0,0
	c0-0.1,0-0.3,0-0.5c0-0.3,0-0.8,0-1.2v-0.3l0,0c0-0.9-0.1-1.9-0.1-2.8c-0.1-1.5-0.3-3-0.6-4.4c0-0.5-0.1-0.8-0.2-1.3
	c-0.2-1.5-0.6-2.9-0.9-4.3c-0.1-0.5-0.2-0.8-0.3-1.3c-0.5-1.4-0.8-2.8-1.4-4.2c-0.1-0.5-0.3-0.8-0.5-1.3c-0.6-1.4-1.2-2.7-1.7-4
	c-0.2-0.5-0.3-0.8-0.6-1.3c-0.7-1.3-1.4-2.6-2.1-3.7c-0.2-0.5-0.5-0.8-0.8-1.3c-0.8-1.2-1.6-2.3-2.4-3.4c-0.3-0.5-0.7-0.8-0.9-1.3
	c-0.8-1-1.7-2.1-2.7-3c-0.3-0.5-0.7-0.8-1.2-1.2c-0.9-0.9-1.9-1.9-2.9-2.7c-0.5-0.3-0.9-0.8-1.4-1.2c-1-0.8-2-1.6-3-2.3
	c-0.5-0.3-1-0.8-1.5-1.2c-1-0.7-2.1-1.3-3.1-2c-0.6-0.3-1.2-0.7-1.7-1c-1-0.6-2.1-1-3.3-1.5c-0.7-0.3-1.4-0.6-2-0.9
	c-1-0.5-2.1-0.8-3.3-1.2c-0.7-0.2-1.5-0.5-2.2-0.7c-1-0.3-2.1-0.6-3.1-0.8c-0.8-0.2-1.6-0.3-2.4-0.6c-1-0.2-2.1-0.3-3-0.5
	c-0.9-0.1-1.7-0.2-2.7-0.3C323.9,184.1,322.3,184.1,320.6,184L320.6,184L320.6,184z M47.2,185.2c-4.5,0-9,1.9-12.2,5.1
	c-3.3,3.3-5.1,7.7-5.1,12.2c0,1.3,0.1,2.6,0.5,3.8l0,0l24.6,100.2l0,0c1,3.6,3.1,6.9,6.2,9.2s6.8,3.6,10.5,3.6
	c3.7,0,7.2-1.2,10.3-3.4c2.9-2.2,5.1-5.2,6.3-8.7v0.1l18.3-52.3l18.3,52.3v-0.1c1.2,3.5,3.3,6.5,6.3,8.7c2.9,2.2,6.5,3.4,10.3,3.4
	c3.8,0,7.5-1.3,10.5-3.6c3-2.3,5.2-5.6,6.2-9.2l0,0l24.6-100.2l0,0c0.2-1.3,0.5-2.6,0.5-3.8c0-4.5-1.9-9-5.1-12.2
	c-3.3-3.3-7.7-5.1-12.2-5.1c-4.1,0-8,1.5-11.2,4.2c-3.1,2.7-5.2,6.4-5.8,10.5l0,0l-10.1,41.4l-15.6-44.5l0,0c0,0,0,0,0-0.1
	c-0.1-0.5-0.3-0.8-0.6-1.3c0-0.1-0.1-0.2-0.1-0.3c-0.2-0.5-0.5-0.8-0.7-1.2c0-0.1-0.1-0.2-0.1-0.3c-0.2-0.3-0.5-0.8-0.8-1.2
	c-0.1-0.1-0.1-0.2-0.2-0.3c-0.2-0.3-0.6-0.7-0.8-1c-0.1-0.1-0.2-0.2-0.2-0.3c-0.3-0.3-0.6-0.6-0.9-0.9c-0.1-0.1-0.2-0.2-0.3-0.3
	c-0.3-0.2-0.7-0.6-0.9-0.8c-0.1-0.1-0.2-0.2-0.3-0.3c-0.3-0.2-0.7-0.5-1-0.7c-0.1-0.1-0.3-0.2-0.5-0.2c-0.3-0.2-0.7-0.3-1-0.6
	c-0.1-0.1-0.3-0.1-0.6-0.2c-0.3-0.1-0.7-0.2-1-0.3c-0.2-0.1-0.5-0.1-0.6-0.2c-0.3-0.1-0.7-0.2-1-0.2c-0.2-0.1-0.5-0.1-0.7-0.1
	c-0.3-0.1-0.7-0.1-1-0.2c-0.2,0-0.5-0.1-0.7-0.1c-0.3,0-0.6,0-0.9-0.1c-0.3,0-0.7,0-1,0l0,0c-0.3,0-0.7,0-1,0c-0.3,0-0.6,0-0.9,0.1
	c-0.2,0-0.5,0.1-0.8,0.1c-0.3,0-0.6,0.1-0.9,0.1c-0.2,0-0.5,0.1-0.7,0.2c-0.3,0.1-0.7,0.2-1,0.2c-0.2,0.1-0.5,0.1-0.6,0.2
	c-0.3,0.1-0.7,0.2-1,0.3c-0.2,0.1-0.3,0.1-0.6,0.2c-0.3,0.1-0.7,0.3-1,0.6c-0.1,0.1-0.3,0.2-0.5,0.3c-0.3,0.2-0.7,0.5-0.9,0.7
	c-0.1,0.1-0.2,0.2-0.3,0.3c-0.3,0.2-0.7,0.5-0.9,0.8c-0.1,0.1-0.2,0.2-0.3,0.3c-0.3,0.2-0.6,0.6-0.9,0.9c-0.1,0.1-0.2,0.2-0.2,0.3
	c-0.3,0.3-0.6,0.7-0.8,1c-0.1,0.1-0.1,0.2-0.2,0.3c-0.2,0.3-0.5,0.7-0.7,1.2c-0.1,0.1-0.1,0.2-0.2,0.3c-0.2,0.3-0.5,0.8-0.7,1.2
	c0,0.1-0.1,0.2-0.1,0.3c-0.2,0.5-0.3,0.8-0.6,1.3c0,0,0,0,0,0.1h-0.1l-15.6,44.5L64.2,200l0,0c-0.7-4.1-2.7-7.8-5.8-10.5
	C55.3,186.7,51.2,185.2,47.2,185.2L47.2,185.2z M223.1,185.2c-4.5,0-8.9,1.7-12.1,5c-3.3,3.1-5.1,7.6-5.1,12l0,0v0.2v99.4v1.2l0,0
	c0.3,4.4,2.2,8.5,5.5,11.4c3.3,3,7.5,4.7,11.8,4.7c4.4,0,8.6-1.6,11.8-4.7c3.3-3,5.1-7.1,5.5-11.4h0.1v-1.2v-99.4v-0.2l0,0
	c-0.1-4.5-2-8.9-5.1-12.1C231.9,187.1,227.6,185.2,223.1,185.2L223.1,185.2z"/>
</svg>
