<?xml version="1.0" encoding="utf-8"?>
<!-- Generator: Adobe Illustrator 27.5.0, SVG Export Plug-In . SVG Version: 6.00 Build 0)  -->
<svg version="1.1" id="Layer_1" xmlns="http://www.w3.org/2000/svg" xmlns:xlink="http://www.w3.org/1999/xlink" x="0px" y="0px"
	 viewBox="0 0 500 500" style="enable-background:new 0 0 500 500;" xml:space="preserve">
<style type="text/css">
	.st0{fill:#FFFFFF;}
	.st1{fill:#020041;}
</style>
<circle class="st0" cx="250" cy="250" r="250"/>
<g>
	<path class="st1" d="M251.6,10.8c19,32.1,37.3,64.6,56.1,96.8c2.7,4.2,3.5,9.2,3.4,14.1c0,38.7,0,77.3,0,116
		c-25.8-9.1-54.5-10.7-80.7-2.2c-14,4.3-26.7,11.9-38.6,20.2c0-45.5,0-91,0-136.5c0-3.3,0.1-6.8,2.2-9.6
		C213.2,76.8,232.4,43.9,251.6,10.8z"/>
	<path class="st1" d="M41.9,371.6c35.2-60.7,70.5-121.4,106-182.1c0.7,60.8,0.3,121.5,0.2,182.3C112.7,371.5,77.3,371.8,41.9,371.6"
		/>
	<path class="st1" d="M354.4,189.8c35.9,60.4,70.3,121.7,105.6,182.5c-35.2,0.1-70.5-0.2-105.7,0C354.2,311.5,354,250.7,354.4,189.8
		"/>
	<path class="st1" d="M252.8,270.7c19.8-3.4,40.4,1.1,57.6,11.2c0.5,30.1-0.4,60.2,0.8,90.2c-38.4,0.1-76.7-0.1-115.1-0.3
		c-4-15.9-5.9-32.8-1.4-48.8C201.8,296.4,225.5,274.9,252.8,270.7"/>
</g>
</svg>
