<?xml version="1.0" encoding="utf-8"?>
<!-- Generator: Adobe Illustrator 27.5.0, SVG Export Plug-In . SVG Version: 6.00 Build 0)  -->
<svg version="1.1" id="Layer_1" xmlns:xodm="http://www.corel.com/coreldraw/odm/2003"
	 xmlns="http://www.w3.org/2000/svg" xmlns:xlink="http://www.w3.org/1999/xlink" x="0px" y="0px" viewBox="0 0 500 500"
	 style="enable-background:new 0 0 500 500;" xml:space="preserve">
<style type="text/css">
	.st0{fill:#22F6DC;}
</style>
<circle cx="250" cy="250" r="250"/>
<path class="st0" d="M234.4,250.7c-0.5-0.5-0.8-1.1-1.3-1.4c-9.8-5.4-19.7-10.8-29.5-16.1c-13.6-7.4-27.2-14.7-40.9-22
	c-7.7-4.1-15.4-8.2-23.1-12.3c-7.4-3.9-14.7-7.9-22.2-11.7c-1.8-0.9-1.9-1.9-1-3.6c5.2-9.9,10.4-19.9,15.6-29.8
	c0.3-0.6,0.6-1.2,0.9-1.8c2.5-5.3,2.4-5.2,7.7-3.1c20.9,8.4,41.8,16.8,62.6,25.2c13.4,5.4,26.7,10.9,40,16.5c4.8,2,9.2,1.5,13.9-0.5
	c18.6-7.8,37.3-15.1,56-22.7c16.9-6.8,33.8-13.7,51-20.6c1.4,2.5,2.9,5.1,4.3,7.8c4.9,9.4,9.8,18.9,14.8,28.3
	c1.3,2.4,0.8,3.4-1.5,4.6c-19.9,10.5-39.8,21.2-59.6,31.8c-18,9.6-36,19.3-54,29c-1,0.5-1.9,1.1-3.4,2c2,1,3.4,1.8,4.9,2.6
	c18.2,9.7,36.4,19.4,54.5,29.1c16,8.6,32,17.1,48,25.7c3.4,1.8,6.9,3.7,10.4,5.3c1.6,0.8,2.1,1.6,1.1,3.3
	c-6.5,12.2-12.9,24.5-19.5,37c-5.8-2.4-11.7-5-17.7-7.4c-25-10.1-50-20.1-75-30.2c-5.4-2.2-10.7-4.4-16-6.6c-3.8-1.6-7.4-1.6-11.3,0
	c-25.3,10.4-50.7,20.6-76,30.9c-9.8,4-19.7,8-29.5,12.2c-2.5,1.1-3.7,0.6-4.9-1.7c-5.8-11.2-11.6-22.5-17.5-33.6
	c-1.1-2.1-0.2-3.1,1.5-4c12.4-6.6,24.8-13.2,37.2-19.8c14.9-8,29.8-16,44.7-24c9.7-5.2,19.4-10.5,29.1-15.7
	C230.5,252.3,232.3,251.6,234.4,250.7z"/>
</svg>
