<?xml version="1.0" encoding="utf-8"?>
<!-- Generator: Adobe Illustrator 27.5.0, SVG Export Plug-In . SVG Version: 6.00 Build 0)  -->
<svg version="1.1" id="katman_1" xmlns="http://www.w3.org/2000/svg" xmlns:xlink="http://www.w3.org/1999/xlink" x="0px" y="0px"
	 viewBox="0 0 500 500" style="enable-background:new 0 0 500 500;" xml:space="preserve">
<style type="text/css">
	.st0{fill:#FFFFFF;}
	.st1{fill:url(#SVGID_1_);}
</style>
<circle class="st0" cx="249" cy="250.5" r="250"/>
<linearGradient id="SVGID_1_" gradientUnits="userSpaceOnUse" x1="578.4924" y1="501.0346" x2="112.7183" y2="184.7325" gradientTransform="matrix(1 0 0 1 -120.9449 -120.6378)">
	<stop  offset="0" style="stop-color:#454D9C"/>
	<stop  offset="0.5" style="stop-color:#47B8EA"/>
	<stop  offset="1" style="stop-color:#82C28A"/>
</linearGradient>
<path class="st1" d="M445.2,187.9L296,446.3c-4.7,7.8-10.9,14.4-18.7,18.7c-7.8,4.7-16.7,7-25.6,7c-8.9,0-17.9-2.3-25.6-7
	c-7.8-4.7-14.4-10.9-18.7-18.7l-26-45.1v-0.4c0,0,0-0.4,0.4-0.4h0.4c0,0,0.4,0,0.4,0.4c4.7,4.7,10.5,8.2,16.7,10.1
	c6.2,1.9,12.8,2.7,19.4,1.9s12.8-3.1,18.3-7c5.4-3.5,10.1-8.5,13.2-14l124.7-216.4c3.1-5.8,5.1-12,5.8-18.7
	c0.4-6.6-0.8-13.2-3.1-19.4c-2.7-6.2-6.6-11.7-11.3-15.9c-5.1-4.3-10.9-7.4-17.1-9.3h-0.4v-0.4v-0.4h0.4h52.8c8.9,0,17.9,2.3,25.6,7
	c7.8,4.7,14.4,10.9,18.7,18.7c4.7,7.8,7,16.7,7,25.6C451.8,171.2,449.5,179.8,445.2,187.9z M268.4,110.6h-51.7h-0.4v0.4v0.4
	c0,0,0,0,0.4,0c3.5,1.2,6.6,3.5,9.3,6.2c2.7,2.7,4.7,5.8,5.8,9.3c1.2,3.5,1.6,7.4,1.6,10.9c-0.4,3.9-1.6,7.4-3.5,10.5l-75.4,130.2
	c-1.9,3.5-4.7,6.2-7.8,8.2c-3.1,2.3-6.6,3.5-10.5,4.3s-7.8,0.4-11.3-0.8c-3.5-1.2-7-3.1-10.1-5.4c0,0-0.4,0-0.4-0.4h-0.4
	c0,0,0,0.4-0.4,0.4v0.4l26.4,45.8c3.1,5.1,7.4,9.3,12.4,12.4c5.1,3.1,10.9,4.7,17.1,4.7c5.8,0,11.7-1.6,17.1-4.7s9.3-7.4,12.4-12.4
	L298,161.5c3.1-5.1,4.7-10.9,4.7-17.1c0-5.8-1.6-11.7-4.7-17.1c-3.1-5.1-7.4-9.3-12.4-12.4C280.5,112.2,274.6,110.6,268.4,110.6z
	 M89.3,110.6c-8.9,0-17.5,2.7-24.9,7.4c-7.4,5.1-13.2,12-16.3,20.2c-3.5,8.2-4.3,17.1-2.7,25.6c1.6,8.5,5.8,16.7,12,22.9
	c6.2,6.2,14.4,10.5,22.9,12c8.5,1.6,17.5,0.8,25.6-2.7s15.2-8.9,20.2-16.3c5.1-7.4,7.4-15.9,7.4-24.9c0-5.8-1.2-11.7-3.5-17.1
	c-2.3-5.4-5.4-10.5-9.7-14.4c-4.3-4.3-8.9-7.4-14.4-9.7C101,111.8,95.1,110.6,89.3,110.6z"/>
</svg>
