<?xml version="1.0" encoding="utf-8"?>
<!-- Generator: Adobe Illustrator 27.5.0, SVG Export Plug-In . SVG Version: 6.00 Build 0)  -->
<svg version="1.1" id="Layer_1" xmlns="http://www.w3.org/2000/svg" xmlns:xlink="http://www.w3.org/1999/xlink" x="0px" y="0px"
	 viewBox="0 0 500 500" style="enable-background:new 0 0 500 500;" xml:space="preserve">
<style type="text/css">
	.st0{fill:#FFFFFF;}
</style>
<g id="Layer_2_00000000189134919106841610000013661203385933826463_">
</g>
<circle class="st0" cx="250.8" cy="250" r="250"/>
<g id="Layer_1-2_00000075855790519271012080000006857509610004124564_">
	<g id="Layer_1-2_00000146470877349772260210000003682561261859088042_">
		<path d="M325.2,108.7c11,0,20-9.1,20-20.3s-9-20.3-20-20.3c-11,0.1-20,9.1-20,20.3S314.2,108.7,325.2,108.7z M331.1,161.5
			c9.4-0.1,17-7.8,16.9-17.2l0,0c0-9.5-7.6-17.2-16.9-17.2c-9.4,0-16.9,7.7-16.9,17.2S321.7,161.5,331.1,161.5z M377.6,168.2
			c9.3,0,16.9-7.7,16.9-17.1c0-9.5-7.6-17.1-16.9-17.1s-16.9,7.7-16.9,17.1C360.7,160.5,368.3,168.2,377.6,168.2z M372,213.3
			c8,0,14.4-6.6,14.4-14.6c0-8.1-6.5-14.6-14.4-14.6c-8,0-14.4,6.6-14.4,14.6C357.5,206.7,364,213.3,372,213.3z M409.2,227.9
			c8,0,14.5-6.6,14.5-14.7c0-8.1-6.5-14.7-14.5-14.7c-8.1,0.1-14.6,6.7-14.5,14.7l0,0l0,0C394.6,221.3,401.2,227.9,409.2,227.9z
			 M325.2,207.2c8.2,0,14.8-6.8,14.8-15l0,0l0,0v0c0-8.3-6.6-15-14.8-15c-8.2,0-14.8,6.7-14.8,15C310.4,200.4,317,207.2,325.2,207.2
			z M311.8,243.1c6.9,0,12.4-5.6,12.4-12.6c0.1-6.9-5.5-12.5-12.4-12.6h0c-6.9,0-12.4,5.6-12.4,12.6S304.9,243.1,311.8,243.1z
			 M358.3,249.4c6.8,0,12.3-5.6,12.3-12.5l0,0l0,0v0c0-6.9-5.5-12.5-12.3-12.5S346,230,346,236.9c-0.1,6.8,5.4,12.4,12.2,12.5l0,0
			H358.3L358.3,249.4z M395.5,264c6.9,0,12.4-5.6,12.4-12.6c0-7-5.5-12.6-12.4-12.6c-6.9,0-12.4,5.6-12.4,12.6
			C383,258.3,388.5,263.9,395.5,264L395.5,264z M377.1,291.2c5.8,0,10.5-4.8,10.5-10.6s-4.7-10.6-10.5-10.6s-10.5,4.8-10.5,10.6
			S371.3,291.2,377.1,291.2z M339.8,276.9c5.9,0,10.7-4.9,10.7-10.9s-4.8-10.9-10.7-10.9c-5.9,0-10.7,4.9-10.7,10.9
			C329.1,272,334,276.9,339.8,276.9z M293.4,270.2c6-0.1,10.7-5,10.6-11c-0.1-5.8-4.8-10.5-10.6-10.6h0c-6,0.1-10.7,5-10.6,11
			C282.8,265.4,287.5,270.1,293.4,270.2L293.4,270.2z M319.2,295.8c5.1,0,9.3-4.2,9.3-9.4c0-5.1-4.1-9.3-9.2-9.4h-0.1
			c-5.1,0-9.3,4.2-9.3,9.4C309.9,291.6,314,295.8,319.2,295.8L319.2,295.8z M356.5,310.4c5.1,0,9.4-4.2,9.4-9.5
			c0-5.2-4.2-9.5-9.4-9.5c-5.2,0-9.5,4.2-9.5,9.5C347,306.2,351.3,310.4,356.5,310.4z M335.5,321.3c4.1,0,7.4-3.4,7.4-7.5
			c0-4.1-3.3-7.4-7.4-7.5c-4.1,0-7.4,3.4-7.4,7.5C328.1,318,331.4,321.3,335.5,321.3z M315.6,327.2c3.7,0,6.7-3,6.7-6.7l0,0v0
			c0-3.8-3-6.8-6.7-6.8c-3.7,0-6.7,3-6.7,6.7l0,0v0c-0.1,3.7,2.9,6.7,6.5,6.8H315.6z M298.2,307.8c4.4,0,7.9-3.6,7.9-8
			c0-4.4-3.6-8-7.9-8c-4.4,0-7.9,3.6-7.9,8C290.2,304.1,293.8,307.7,298.2,307.8z M272.6,289.3c5.1,0,9.3-4.2,9.3-9.4
			c0-5.2-4.1-9.4-9.3-9.4c-5.1,0-9.3,4.2-9.3,9.4C263.4,285.1,267.5,289.3,272.6,289.3z M348.4,406.5c11,0,19.9-9.1,19.9-20.2
			c0-11.1-8.9-20.2-19.9-20.2s-19.9,9.1-19.9,20.2C328.5,397.4,337.4,406.5,348.4,406.5L348.4,406.5z M297.9,380.9
			c9.1,0,16.6-7.5,16.6-16.8c0-9.3-7.4-16.8-16.6-16.8c-9.1,0-16.6,7.5-16.6,16.8C281.3,373.4,288.7,380.9,297.9,380.9z M269,417.9
			c9.3,0,16.7-7.6,16.7-17c0-9.4-7.5-17-16.7-17s-16.7,7.6-16.7,17C252.2,410.3,259.7,417.9,269,417.9L269,417.9z M260.3,349.8
			c8.1-0.1,14.5-6.6,14.5-14.7l0,0l0,0c0.1-8.1-6.4-14.6-14.5-14.7l0,0l0,0c-8.1,0.1-14.5,6.6-14.5,14.7l0,0l0,0
			C245.9,343.2,252.4,349.8,260.3,349.8L260.3,349.8z M231.5,387.3c8,0,14.4-6.6,14.4-14.6s-6.5-14.6-14.4-14.6s-14.4,6.6-14.4,14.6
			C217,380.6,223.5,387.2,231.5,387.3L231.5,387.3z M200.5,412.7c8,0,14.4-6.6,14.4-14.6c0-8.1-6.5-14.6-14.4-14.6
			c-8,0-14.4,6.6-14.4,14.6C186.1,406.2,192.6,412.7,200.5,412.7L200.5,412.7z M174.7,379.6c6.8-0.1,12.3-5.6,12.3-12.5
			c0-6.9-5.5-12.5-12.3-12.5c-6.9,0.1-12.4,5.8-12.3,12.6C162.5,374.1,168,379.5,174.7,379.6z M205.8,354c6.8,0,12.3-5.6,12.3-12.5
			c0-6.9-5.5-12.5-12.3-12.5c-6.9,0.1-12.4,5.7-12.3,12.6C193.6,348.5,199,353.9,205.8,354L205.8,354z M234.8,316.6
			c6.8,0,12.3-5.6,12.3-12.5l0,0l0,0v0c0-6.9-5.5-12.5-12.3-12.5c-6.8,0-12.3,5.6-12.3,12.5l0,0l0,0v0
			C222.5,311,228,316.6,234.8,316.6z M190.4,321.7c5.9,0,10.7-4.8,10.7-10.8s-4.8-10.8-10.7-10.8s-10.7,4.8-10.7,10.8
			S184.5,321.7,190.4,321.7z M159.5,347.2c5.9,0,10.6-4.8,10.6-10.7l0,0l0,0v0c0.1-5.9-4.7-10.7-10.5-10.7h-0.1
			c-5.9,0-10.6,4.8-10.6,10.7l0,0l0,0v0C148.9,342.3,153.6,347.1,159.5,347.2L159.5,347.2L159.5,347.2z M152.4,317.3
			c5.1,0,9.2-4.2,9.1-9.3c0-5.1-4.1-9.3-9.1-9.3c-5,0-9.1,4.2-9.1,9.3C143.2,313.2,147.3,317.3,152.4,317.3z M152.1,291.2
			c4.4,0,7.9-3.6,7.8-8l0,0l0,0c0-4.4-3.5-8-7.8-8s-7.8,3.6-7.8,8C144.3,287.6,147.8,291.2,152.1,291.2z M156.4,269.4
			c3.7,0,6.7-3.1,6.7-6.8c0-3.7-3-6.8-6.7-6.8c-3.7,0-6.7,3.1-6.7,6.8C149.8,266.4,152.7,269.4,156.4,269.4z M183.1,265.8
			c4.4,0,7.9-3.6,7.9-8c0-4.4-3.6-8-7.9-8c-4.4,0-7.9,3.6-7.9,8C175.1,262.1,178.7,265.7,183.1,265.8z M212.4,254.4
			c5.1,0,9.3-4.2,9.3-9.4c0-5.1-4.1-9.3-9.2-9.4h-0.1c-5.1,0-9.3,4.2-9.3,9.4C203.1,250.1,207.2,254.3,212.4,254.4L212.4,254.4
			L212.4,254.4z M219.3,284c5.8,0,10.5-4.7,10.5-10.5s-4.7-10.5-10.5-10.5c-5.8,0-10.5,4.7-10.5,10.5
			C208.8,279.4,213.5,284,219.3,284L219.3,284z M183.5,291.9c5.1,0,9.1-4.2,9.1-9.3s-4.1-9.3-9.1-9.3c-5.1,0-9.2,4.2-9.1,9.3l0,0v0
			c-0.1,5.1,4,9.2,9,9.3l0,0H183.5L183.5,291.9z M82.3,278.1c10.9,0,19.8-9,19.8-20.1S93.2,238,82.3,238s-19.8,9-19.8,20.1
			C62.5,269.2,71.4,278.1,82.3,278.1L82.3,278.1z M127.3,242.3c9.4,0,17-7.7,17-17.2s-7.6-17.2-17-17.2c-9.4,0.1-17,7.8-17,17.2v0
			C110.3,234.6,117.9,242.3,127.3,242.3L127.3,242.3z M109.7,198c9.4,0,16.9-7.7,16.9-17.1c0-9.5-7.6-17.1-16.9-17.1
			c-9.4,0.1-16.9,7.7-16.9,17.1l0,0v0C92.8,190.3,100.3,198,109.7,198L109.7,198z M153.1,177.1c8,0,14.5-6.6,14.5-14.7
			c0-8.1-6.5-14.7-14.5-14.7c-8,0-14.5,6.6-14.5,14.7C138.6,170.5,145.1,177.1,153.1,177.1L153.1,177.1z M170.9,221.2
			c8,0,14.5-6.6,14.5-14.7s-6.5-14.7-14.5-14.7s-14.5,6.6-14.5,14.7S162.8,221.2,170.9,221.2z M210.3,212.1
			c6.9-0.1,12.4-5.7,12.4-12.6l0,0c0.1-6.8-5.3-12.4-12.2-12.5s-12.4,5.3-12.5,12.2c0,0.1,0,0.3,0,0.4l0,0
			C197.9,206.4,203.4,212,210.3,212.1L210.3,212.1z M244.5,212.2c5.9,0,10.7-4.8,10.7-10.8c0-6-4.8-10.8-10.7-10.8
			c-6,0-10.8,4.8-10.8,10.8C233.7,207.3,238.5,212.2,244.5,212.2L244.5,212.2z M272.6,218.7c4.9,0,9-4.1,9-9.1s-4-9.1-9-9.1
			c-5,0-9,4.1-9,9.1C263.7,214.5,267.7,218.7,272.6,218.7z M276.3,185.4c4.4,0,7.9-3.6,7.8-7.9c0-4.4-3.5-7.9-7.8-7.9
			c-4.3,0-7.8,3.6-7.8,7.9C268.5,181.9,272,185.4,276.3,185.4z M254.6,174.6c5,0,9-4.1,9-9.1s-4.1-9-9.1-9c-5,0-9,4.1-9,9.1
			C245.6,170.5,249.6,174.6,254.6,174.6L254.6,174.6z M226.8,168c5.9,0,10.6-4.8,10.6-10.7c0-6-4.7-10.7-10.6-10.7
			c-5.9,0-10.6,4.8-10.6,10.7C216.1,163.1,220.9,167.9,226.8,168L226.8,168L226.8,168z M192.7,168c6.9,0,12.4-5.6,12.4-12.6
			s-5.5-12.6-12.4-12.6c-6.9,0-12.4,5.6-12.4,12.6C180.3,162.4,185.8,168,192.7,168z M146.9,136.6c7.8,0,14-6.4,14-14.2
			s-6.3-14.2-14-14.2c-7.8,0-14,6.4-14,14.2S139.1,136.6,146.9,136.6z M186.3,128c6.9,0,12.4-5.6,12.4-12.6
			c0-6.9-5.5-12.6-12.4-12.6c-6.9,0-12.4,5.6-12.4,12.6C173.9,122.4,179.5,128,186.3,128z M220.4,128.1c5.9,0,10.7-4.8,10.7-10.8
			s-4.8-10.8-10.7-10.8c-5.9,0-10.7,4.9-10.7,10.8l0,0l0,0v0C209.7,123.3,214.5,128.1,220.4,128.1z M248.4,134.6c5,0,9-4.1,9-9.1
			c0-5-4-9.1-9-9.1c-5,0-9.1,4.1-9.1,9.1S243.4,134.6,248.4,134.6z M269.9,145.8c4.5,0,8.1-3.7,8-8.1c0-4.5-3.6-8.1-8-8.1
			c-4.4,0-8,3.7-8,8.1S265.5,145.8,269.9,145.8z M285.7,158.6c3.7,0,6.6-3,6.6-6.7l0,0l0,0v0c0-3.7-2.9-6.7-6.6-6.7l0,0h0
			c-3.7,0-6.6,3-6.6,6.7l0,0l0,0v0c-0.1,3.6,2.9,6.6,6.5,6.7l0,0H285.7L285.7,158.6z"/>
	</g>
</g>
</svg>
