<?xml version="1.0" encoding="utf-8"?>
<!-- Generator: Adobe Illustrator 27.5.0, SVG Export Plug-In . SVG Version: 6.00 Build 0)  -->
<svg version="1.1" id="Layer_1" xmlns="http://www.w3.org/2000/svg" xmlns:xlink="http://www.w3.org/1999/xlink" x="0px" y="0px"
	 viewBox="0 0 500 500" style="enable-background:new 0 0 500 500;" xml:space="preserve">
<style type="text/css">
	.st0{fill:#FEFEFE;}
	.st1{fill:#FDFDFD;}
</style>
<g>
	<g>
		<path d="M501,250c0,138.6-112.4,251-251,251C111.4,501-1,388.6-1,250S111.4-1,250-1C388.6-1,501,111.4,501,250"/>
	</g>
	<g>
		<path class="st0" d="M357.5,157.4c0.1,4.8-3.2,8.3-6.7,11.7c-41.8,41.8-83.5,83.5-125.3,125.3c-18.6,18.6-37.1,37.1-55.7,55.7
			c-2.9,2.9-5.6,5.9-9.8,6.9c-6.3,1.4-11.6-0.5-15.1-6c-3.7-5.8-3.3-11.8,1.4-16.7c10.1-10.6,20.5-20.9,30.9-31.2
			c51.2-51.2,102.5-102.4,153.6-153.7c5.2-5.2,10.8-8.8,18.1-5.7C354.6,146.1,357.6,150.6,357.5,157.4"/>
	</g>
	<g>
		<path class="st1" d="M241.8,163.4c0.3,3.8-1.9,7.2-4.8,10.1c-21,21.1-42,42.2-63.2,63.2c-6.8,6.8-14.9,6.8-20.7,0.7
			c-5.7-5.9-5.6-13.6,0.9-20.2c21.1-21.4,42.5-42.5,63.7-63.8c4.6-4.6,10.1-5.9,16-3.2C238.7,152.6,241.8,156.9,241.8,163.4"/>
	</g>
	<g>
		<path class="st1" d="M350.2,270.5c-0.1,5.2-2.1,8.6-5.1,11.6c-21.1,21.1-42,42.2-63.2,63.1c-6.8,6.7-14.9,6.6-20.7,0.5
			c-5.6-5.9-5.3-13.7,1.2-20.2c21-21.1,42.1-42.1,63.2-63.2c4.8-4.8,10.3-6.5,16.5-3.6C347.3,261.1,350,265.6,350.2,270.5"/>
	</g>
</g>
</svg>
