<?xml version="1.0" encoding="utf-8"?>
<!-- Generator: Adobe Illustrator 27.5.0, SVG Export Plug-In . SVG Version: 6.00 Build 0)  -->
<svg version="1.1" id="图层_1" xmlns="http://www.w3.org/2000/svg" xmlns:xlink="http://www.w3.org/1999/xlink" x="0px" y="0px"
	 viewBox="0 0 500 500" style="enable-background:new 0 0 500 500;" xml:space="preserve">
<style type="text/css">
	.st0{fill:#B9A6FF;}
	.st1{fill:#957BD9;}
	.st2{fill:#6481F8;}
	.st3{fill:#7DA2F5;}
	.st4{fill:#CAB7FF;}
</style>
<polygon class="st0" points="244.5,381.5 193.7,353.2 244.5,426.4 "/>
<path class="st1" d="M332.2,273.9c0,0-81.9,48-82.2,48c-0.3,0-82.2-48-82.2-48l-52,23.5l134,74.8l134-74.8L332.2,273.9z"/>
<polygon class="st2" points="255.4,426.4 306.2,353.2 255.4,381.5 "/>
<polygon class="st3" points="255.4,490.4 378.4,313 327.9,341.1 255.4,445.7 "/>
<polygon class="st2" points="255.4,76.2 255.4,306.7 367.1,240.4 "/>
<polygon class="st4" points="121.6,313 244.5,490.4 244.5,445.7 172.1,341.1 "/>
<polygon class="st0" points="244.5,76.2 132.7,240.4 244.5,306.7 "/>
<polygon class="st3" points="255.4,56.7 376.5,234.7 399.4,221.2 255.4,9.6 "/>
<polygon class="st4" points="244.5,9.6 100.6,221.2 123.4,234.7 244.5,56.7 "/>
</svg>
