<svg width="310" height="110" viewBox="0 0 310 110" fill="none" xmlns="http://www.w3.org/2000/svg">
<path d="M12.8374 24.1758L20.0864 6.84212H25.4846V29.442H21.9168V10.3089L13.918 29.5627H11.3582L3.42966 10.4296V29.4511H0V6.83301H5.63832L12.8374 24.1758Z" fill="white"/>
<path d="M44.9566 25.7843C44.3443 27.0169 43.4025 28.0535 42.2369 28.7777C41.0713 29.5019 39.728 29.8851 38.3578 29.8843C33.4398 29.8843 30.0781 26.1442 30.0781 21.0011V9.57812H33.7502V20.3155C33.7502 24.0533 35.8682 26.5064 39.2299 26.5064C42.7072 26.5064 44.9475 23.9735 44.9475 20.3155V9.57812H48.5879V29.4424H44.9566V25.7843Z" fill="white"/>
<path d="M75.1518 29.4418H70.4717C65.8732 29.4418 63.5535 27.2301 63.5535 22.8067V12.8734H59.2109V9.57747H63.5535V4.56641H67.1938V9.57747H75.1518V12.8734H67.1938V21.9616C67.1938 24.8566 68.1136 26.0616 71.2714 26.0616H75.1496L75.1518 29.4418Z" fill="white"/>
<path d="M96.2375 29.8046H93.3289L84.0117 9.57812H88.0893L94.8851 24.8983L101.645 9.57812H105.403L96.2375 29.8046Z" fill="white"/>
<path d="M125.517 19.9535H109.078C109.28 23.6525 111.919 26.5589 115.799 26.5589C119.757 26.5589 121.356 24.427 121.677 23.7846H125.273C124.953 25.5135 122.432 29.9346 115.795 29.9346C109.678 29.9346 105.395 25.3495 105.395 19.5184C105.395 13.5279 109.674 9.10451 115.434 9.10451C121.238 9.0954 125.517 13.4391 125.517 19.9535ZM109.318 16.8967H121.478C120.556 13.881 118.438 12.2319 115.439 12.2319C112.238 12.2319 110.079 14.0017 109.318 16.8967Z" fill="white"/>
<path d="M132.683 29.442H129.043V9.57774H132.683V13.2358C133.243 11.7872 134.921 9.41602 139.561 9.41602H141.695V13.0741H139.481C134.403 13.0741 132.686 14.6845 132.686 18.2218L132.683 29.442Z" fill="white"/>
<path d="M149.704 20.7272C145.905 20.2716 143.225 18.4631 143.225 14.805C143.225 11.3064 146.505 9.0127 151.344 9.0127C158.024 9.0127 160.178 12.4726 160.822 14.4793H156.944C156.504 13.9554 155.023 12.1469 151.344 12.1469C148.344 12.1469 146.813 13.2311 146.813 14.6797C146.813 16.0874 147.814 16.9712 150.173 17.2536C151.733 17.4541 152.692 17.5338 154.413 17.7365C159.091 18.3378 161.091 20.3491 161.091 24.0094C161.091 27.3463 158.051 29.9999 152.451 29.9999C145.495 29.9999 143.053 25.6972 142.613 23.8887H146.494C146.693 24.531 148.292 26.7837 152.451 26.7837C155.811 26.7837 157.451 25.5765 157.451 24.0094C157.451 22.4423 156.611 21.5039 153.933 21.1941L149.704 20.7272Z" fill="white"/>
<path d="M77.8711 0H81.67V5.75133H77.8711V0ZM77.9504 9.56657H81.5884V29.4332H77.9504V9.56657Z" fill="white"/>
<path d="M53.2031 3.46875H56.8435V29.4352H53.2031V3.46875Z" fill="white"/>
<path d="M175.715 12.11L184.55 7.39505L183.066 4.55469L174.972 7.81416C174.764 7.89851 174.532 7.89851 174.324 7.81416L166.23 4.55469L164.742 7.40416L173.577 12.1191L164.742 16.8341L166.23 19.6835L174.324 16.399C174.532 16.3147 174.764 16.3147 174.972 16.399L183.066 19.6676L184.554 16.8181L175.715 12.11Z" fill="#23F7DD"/>
<path d="M0 52.2471H36.6887V59.0455H7.53552V70.509H24.978V77.3899H7.53552V91.3942H39.312V98.2751H0V52.2471Z" fill="white"/>
<path d="M65.759 83.1214L52.0842 98.2703H43.0746L61.2542 78.1267L42.9922 57.8184H52.6565L65.9238 72.8024L79.4337 57.8184H88.5258L70.4286 77.8841L88.5258 98.2749H79.3513L65.759 83.126V83.1214Z" fill="white"/>
<path d="M143.148 38H150.602V98.2704H143.148V38V38Z" fill="white"/>
<path d="M200.617 78.0452C200.617 90.0856 191.364 99.2555 179.324 99.2555C167.284 99.2555 158.031 90.0856 158.031 78.0452C158.031 66.0049 167.201 56.835 179.324 56.835C191.447 56.835 200.617 66.0049 200.617 78.0452V78.0452ZM192.921 78.0452C192.921 69.9374 187.436 63.7158 179.328 63.7158C171.221 63.7158 165.736 70.1022 165.736 78.0452C165.736 85.9882 171.221 92.3746 179.328 92.3746C187.436 92.3746 192.921 86.153 192.921 78.0452Z" fill="white"/>
<path d="M276.904 78.9464H243.246C243.653 86.4819 249.06 92.3785 257.003 92.3785C264.946 92.3785 268.384 88.0385 269.043 86.7292H276.414C275.759 90.2497 270.6 99.2594 257.007 99.2594C244.477 99.2594 235.715 89.9247 235.715 78.0491C235.715 66.1736 244.477 56.8389 256.27 56.8389C268.064 56.8389 276.908 65.6837 276.908 78.951L276.904 78.9464ZM243.736 72.7248H268.631C266.75 66.581 262.41 63.2253 256.266 63.2253C249.715 63.2253 245.292 66.8282 243.736 72.7248Z" fill="white"/>
<path d="M100.757 110H93.3867V57.8192H100.757V64.7779C101.659 62.7315 106.407 56.835 115.499 56.835C126.308 56.835 135.4 64.6955 135.4 78.0452C135.4 91.3949 126.308 99.2554 115.499 99.2554C106.654 99.2554 101.659 93.6885 100.757 91.7199V109.996V110ZM114.19 92.3792C122.38 92.3792 127.782 86.153 127.782 78.0498C127.782 69.9466 122.375 63.7204 114.19 63.7204C106.004 63.7204 100.597 69.942 100.597 78.0498C100.597 86.1576 106.004 92.3792 114.19 92.3792Z" fill="white"/>
<path d="M215.365 98.2708H208.008V57.8143H215.461V65.2674C216.592 62.3558 219.893 57.4893 229.268 57.4893H233.581V64.8462H229.108C218.844 64.8462 215.369 68.6094 215.369 75.7237V98.2754L215.365 98.2708Z" fill="white"/>
<path d="M291.427 98.2708H284.07V57.8143H291.523V65.2674C292.654 62.3558 295.955 57.4893 305.331 57.4893H309.643V64.8462H305.171C294.907 64.8462 291.432 68.6094 291.432 75.7237V98.2754L291.427 98.2708Z" fill="white"/>
</svg>
