<svg width="224" height="107" viewBox="0 0 224 107" fill="none" xmlns="http://www.w3.org/2000/svg">
<path d="M12.8374 24.1758L20.0864 6.84212H25.4846V29.442H21.9168V10.3089L13.918 29.5627H11.3582L3.42966 10.4296V29.4511H0V6.83301H5.63832L12.8374 24.1758Z" fill="white"/>
<path d="M44.9566 25.7843C44.3443 27.0169 43.4025 28.0535 42.2369 28.7777C41.0713 29.5019 39.728 29.8851 38.3578 29.8843C33.4398 29.8843 30.0781 26.1442 30.0781 21.0011V9.57812H33.7502V20.3155C33.7502 24.0533 35.8682 26.5064 39.2299 26.5064C42.7072 26.5064 44.9475 23.9735 44.9475 20.3155V9.57812H48.5879V29.4424H44.9566V25.7843Z" fill="white"/>
<path d="M75.1518 29.4418H70.4717C65.8732 29.4418 63.5535 27.2301 63.5535 22.8067V12.8734H59.2109V9.57747H63.5535V4.56641H67.1938V9.57747H75.1518V12.8734H67.1938V21.9616C67.1938 24.8566 68.1136 26.0616 71.2714 26.0616H75.1496L75.1518 29.4418Z" fill="white"/>
<path d="M96.2375 29.8046H93.3289L84.0117 9.57812H88.0893L94.8851 24.8983L101.645 9.57812H105.403L96.2375 29.8046Z" fill="white"/>
<path d="M125.517 19.9535H109.078C109.28 23.6525 111.919 26.5589 115.799 26.5589C119.757 26.5589 121.356 24.427 121.677 23.7846H125.273C124.953 25.5135 122.432 29.9346 115.795 29.9346C109.678 29.9346 105.395 25.3495 105.395 19.5184C105.395 13.5279 109.674 9.10451 115.434 9.10451C121.238 9.0954 125.517 13.4391 125.517 19.9535ZM109.318 16.8967H121.478C120.556 13.881 118.438 12.2319 115.439 12.2319C112.238 12.2319 110.079 14.0017 109.318 16.8967Z" fill="white"/>
<path d="M132.683 29.442H129.043V9.57774H132.683V13.2358C133.243 11.7872 134.921 9.41602 139.561 9.41602H141.695V13.0741H139.481C134.403 13.0741 132.686 14.6845 132.686 18.2218L132.683 29.442Z" fill="white"/>
<path d="M149.704 20.7272C145.905 20.2716 143.225 18.4631 143.225 14.805C143.225 11.3064 146.505 9.0127 151.344 9.0127C158.024 9.0127 160.178 12.4726 160.822 14.4793H156.944C156.504 13.9554 155.023 12.1469 151.344 12.1469C148.344 12.1469 146.813 13.2311 146.813 14.6797C146.813 16.0874 147.814 16.9712 150.173 17.2536C151.733 17.4541 152.692 17.5338 154.413 17.7365C159.091 18.3378 161.091 20.3491 161.091 24.0094C161.091 27.3463 158.051 29.9999 152.451 29.9999C145.495 29.9999 143.053 25.6972 142.613 23.8887H146.494C146.693 24.531 148.292 26.7837 152.451 26.7837C155.811 26.7837 157.451 25.5765 157.451 24.0094C157.451 22.4423 156.611 21.5039 153.933 21.1941L149.704 20.7272Z" fill="white"/>
<path d="M77.8711 0H81.67V5.75133H77.8711V0ZM77.9504 9.56657H81.5884V29.4332H77.9504V9.56657Z" fill="white"/>
<path d="M53.2031 3.46875H56.8435V29.4352H53.2031V3.46875Z" fill="white"/>
<path d="M175.715 12.11L184.55 7.39505L183.066 4.55469L174.972 7.81416C174.764 7.89851 174.532 7.89851 174.324 7.81416L166.23 4.55469L164.742 7.40416L173.577 12.1191L164.742 16.8341L166.23 19.6835L174.324 16.399C174.532 16.3147 174.764 16.3147 174.972 16.399L183.066 19.6676L184.554 16.8181L175.715 12.11Z" fill="#23F7DD"/>
<path d="M30.248 65.7678C34.96 63.4118 38.076 59.4598 38.076 53.7598C38.076 44.2598 31.54 37.7998 20.824 37.7998H0V90.9998H7.904V70.0238H21.204C25.764 70.0238 28.88 73.3678 29.26 78.0798L30.324 90.9998H38L36.936 77.3958C36.632 72.2278 34.124 68.0478 30.248 65.7678ZM7.904 44.6398H20.596C27.512 44.6398 30.172 48.8958 30.172 53.7598C30.172 58.5478 27.512 63.0318 20.596 63.0318H7.904V44.6398Z" fill="white"/>
<path d="M73.4902 78.5358C72.4262 82.8678 68.7782 85.2998 63.1542 85.2998C56.4662 85.2998 51.7542 80.3598 51.1462 73.1398H80.4062C80.4822 72.4558 80.5582 71.2398 80.5582 70.2518C80.5582 60.5238 74.2502 52.0878 62.3942 52.0878C50.6142 52.0878 43.9262 60.9038 43.9262 71.6198C43.9262 82.2598 51.2982 91.6078 63.1542 91.6078C72.5782 91.6078 79.4942 86.4398 80.8622 78.5358H73.4902ZM62.3942 58.0158C68.7022 58.0158 72.6542 61.8918 73.1102 67.7438H51.3742C52.5142 61.3598 56.3902 58.0158 62.3942 58.0158Z" fill="white"/>
<path d="M87.6838 106.504H95.0558V85.6038C97.2598 89.2518 101.82 91.6078 106.912 91.6078C118.54 91.6078 125.456 83.2478 125.456 71.8478C125.456 60.4478 118.844 52.0878 107.292 52.0878C101.972 52.0878 97.3358 54.5958 95.0558 58.3958V52.6958H87.6838V106.504ZM106.228 85.1478C99.0838 85.1478 94.4478 79.8278 94.4478 71.8478C94.4478 63.8678 99.0838 58.5478 106.228 58.5478C113.296 58.5478 118.008 63.8678 118.008 71.8478C118.008 79.8278 113.296 85.1478 106.228 85.1478Z" fill="white"/>
<path d="M149.447 91.6078C160.923 91.6078 169.131 83.3238 169.131 71.8478C169.131 60.3718 160.923 52.0878 149.447 52.0878C137.971 52.0878 129.687 60.3718 129.687 71.8478C129.687 83.3238 137.971 91.6078 149.447 91.6078ZM149.447 85.1478C142.151 85.1478 137.211 79.6758 137.211 71.8478C137.211 64.0198 142.151 58.5478 149.447 58.5478C156.667 58.5478 161.607 64.0198 161.607 71.8478C161.607 79.6758 156.667 85.1478 149.447 85.1478Z" fill="white"/>
<path d="M200.441 40.6878V78.4598C200.441 86.2878 205.381 90.9998 213.133 90.9998H219.137V84.6158H213.741C210.017 84.6158 207.813 82.3358 207.813 78.2318V59.0798H219.137V52.6958H207.813V40.6878H200.441ZM197.021 59.0798V52.6958H193.145C187.749 52.6958 184.709 54.9758 182.961 60.0678V52.6958H175.589V90.9998H182.961V73.6718C182.961 65.3118 185.241 59.0798 192.233 59.0798H197.021Z" fill="white"/>
</svg>
