<?xml version="1.0" encoding="utf-8"?>
<!-- Generator: Adobe Illustrator 16.0.0, SVG Export Plug-In . SVG Version: 6.00 Build 0)  -->
<!DOCTYPE svg PUBLIC "-//W3C//DTD SVG 1.1//EN" "http://www.w3.org/Graphics/SVG/1.1/DTD/svg11.dtd">
<svg version="1.1" id="Layer_1" xmlns="http://www.w3.org/2000/svg" xmlns:xlink="http://www.w3.org/1999/xlink" x="0px" y="0px"
	 width="500px" height="500px" viewBox="0 0 500 500" enable-background="new 0 0 500 500" xml:space="preserve">
<g>
	<path fill-rule="evenodd" clip-rule="evenodd" fill="#DC3735" d="M16.668,285.846c0-23.896,0-47.793,0-71.691
		c4.738,0.129,3.278-3.83,3.736-6.12C40.244,108.717,111.21,37.752,210.53,17.91c2.291-0.459,6.25,1,6.12-3.737
		c23.269,0,46.536,0,69.805,0c0.839,4.604,4.853,3.178,7.537,3.66c97.181,17.447,173.228,93.492,190.671,190.671
		c0.483,2.685-0.944,6.7,3.66,7.539c0,23.267,0,46.536,0,69.804c-5.297,0.635-3.47,5.188-4.009,8
		c-18.506,96.28-94.019,171.028-190.304,188.319c-2.689,0.483-6.709-0.941-7.556,3.662c-23.27,0-46.536,0-69.805,0
		c0.129-4.739-3.83-3.277-6.12-3.735c-99.32-19.844-170.286-90.809-190.125-190.125C19.946,289.677,21.406,285.718,16.668,285.846z
		 M139.41,172.518c0,4.715,0.167,9.437-0.038,14.143c-0.339,7.79,3.296,17.752-1.38,22.786c-4.758,5.122-14.839,1.03-22.559,1.67
		c-0.936,0.08-1.907,0.144-2.824-0.008c-7.154-1.192-7.22,3.21-7.279,8.452c-0.059,5.107,0.352,8.409,6.913,7.854
		c6.866-0.58,13.829,0.106,20.729-0.208c4.727-0.216,6.73,1.026,6.559,6.227c-0.371,11.302-0.343,22.633-0.021,33.938
		c0.147,5.193-1.235,7.382-6.805,7.042c-7.201-0.441-14.453,0.015-21.679-0.148c-3.826-0.084-5.458,1.011-5.714,5.262
		c-0.443,7.348,0.37,12.224,9.787,10.771c5.525-0.852,11.313,0.158,16.941-0.242c5.662-0.403,7.655,1.413,7.51,7.354
		c-0.397,16.334-0.139,32.684-0.139,49.026c-0.001,20.218,0.001,19.943,20.229,20.036c6.569,0.03,8.608-1.868,8.482-8.461
		c-0.385-20.109,0.035-40.231-0.251-60.341c-0.08-5.643,1.466-7.868,7.386-7.639c10.355,0.401,20.74,0.165,31.11,0.083
		c3.439-0.028,5.588,0.649,6.975,4.539c7.755,21.779,16.291,43.285,23.729,65.168c2.63,7.732,7.133,8.834,14.073,8.544
		c7.241-0.302,13.711,0.785,16.92-8.842c7.23-21.675,16.129-42.79,23.451-64.437c1.616-4.776,3.847-4.903,7.284-4.922
		c10.371-0.055,20.757,0.286,31.11-0.138c6.136-0.252,7.293,2.396,7.201,7.817c-0.281,16.023-0.103,32.056-0.103,48.085
		c-0.001,20.824-0.001,20.557,20.775,20.546c6.243-0.004,8.042-1.796,7.928-7.958c-0.357-19.168,0.483-38.37-0.386-57.504
		c-0.439-9.61,2.84-12.03,11.58-10.997c5.579,0.661,11.32-0.172,16.954,0.208c6.734,0.455,5.646-4.049,5.687-8.04
		c0.039-4.072,0.898-8.348-5.764-7.969c-7.205,0.413-14.464-0.146-21.677,0.171c-4.755,0.21-6.767-1.094-6.623-6.253
		c0.32-11.619,0.359-23.262-0.026-34.877c-0.18-5.418,2.256-6.195,6.74-6.039c7.22,0.252,14.479-0.283,21.678,0.164
		c6.838,0.427,5.708-4.05,5.642-7.998c-0.066-3.83,1.44-8.6-5.425-8.314c-6.902,0.29-13.858-0.348-20.732,0.183
		c-6.207,0.48-8.029-1.573-7.917-7.799c0.373-20.423-0.206-40.864,0.327-61.28c0.189-7.318-2.176-9.236-9.059-8.787
		c-8.45,0.553-16.98,0.44-25.444,0.021c-5.284-0.261-7.705,1.612-9.477,6.62c-7.646,21.613-15.923,43.003-23.564,64.618
		c-1.787,5.053-4.33,6.648-9.544,6.592c-23.886-0.251-47.776-0.321-71.658,0.035c-6.083,0.091-8.817-1.991-10.79-7.624
		c-7.47-21.342-15.483-42.493-23.164-63.761c-1.366-3.781-2.603-6.659-7.633-6.471c-10.044,0.372-20.114,0.262-30.167,0.044
		c-4.514-0.098-6.04,1.592-5.944,6.058C139.559,150.515,139.401,161.519,139.41,172.518z"/>
	<path fill-rule="evenodd" clip-rule="evenodd" fill="#FFFEFE" d="M488.323,216.042c-4.604-0.838-3.177-4.854-3.66-7.539
		C467.22,111.325,391.173,35.28,293.992,17.833c-2.685-0.481-6.698,0.945-7.537-3.66c65.089,0,130.177,0.091,195.265-0.158
		c5.629-0.021,6.783,1.133,6.762,6.762C488.232,85.865,488.323,150.953,488.323,216.042z"/>
	<path fill-rule="evenodd" clip-rule="evenodd" fill="#FFFEFE" d="M286.455,485.827c0.847-4.604,4.866-3.179,7.556-3.662
		c96.285-17.291,171.798-92.039,190.304-188.319c0.539-2.812-1.288-7.365,4.009-8c0,64.46-0.091,128.921,0.158,193.378
		c0.021,5.629-1.133,6.785-6.762,6.763C416.632,485.736,351.544,485.827,286.455,485.827z"/>
	<path fill-rule="evenodd" clip-rule="evenodd" fill="#FFFEFE" d="M216.65,14.173c0.129,4.737-3.83,3.278-6.12,3.737
		C111.21,37.752,40.244,108.717,20.404,208.034c-0.458,2.29,1.002,6.249-3.736,6.12c0-64.307,0.091-128.616-0.153-192.923
		c-0.023-5.883,1.328-7.233,7.212-7.211C88.034,14.266,152.342,14.173,216.65,14.173z"/>
	<path fill-rule="evenodd" clip-rule="evenodd" fill="#FFFEFE" d="M16.668,285.846c4.738-0.128,3.278,3.831,3.736,6.121
		c19.84,99.316,90.806,170.281,190.125,190.125c2.291,0.458,6.25-1.004,6.12,3.735c-64.308,0-128.616-0.092-192.922,0.153
		c-5.884,0.021-7.235-1.328-7.212-7.211C16.76,414.462,16.668,350.152,16.668,285.846z"/>
	<path fill-rule="evenodd" clip-rule="evenodd" fill="#FDF9F9" d="M139.405,172.518c-0.004-10.999,0.153-22.003-0.081-32.999
		c-0.095-4.466,1.431-6.155,5.944-6.058c10.052,0.217,20.123,0.328,30.167-0.044c5.03-0.188,6.268,2.69,7.633,6.471
		c7.681,21.269,15.694,42.419,23.164,63.761c1.972,5.633,4.707,7.715,10.79,7.624c23.882-0.355,47.772-0.286,71.658-0.035
		c5.214,0.056,7.757-1.539,9.544-6.592c7.642-21.615,15.918-43.005,23.564-64.618c1.771-5.008,4.192-6.881,9.477-6.62
		c8.464,0.42,16.994,0.532,25.444-0.021c6.883-0.449,9.248,1.469,9.059,8.787c-0.533,20.416,0.046,40.857-0.327,61.28
		c-0.112,6.226,1.71,8.28,7.917,7.799c6.874-0.53,13.83,0.107,20.732-0.183c6.865-0.286,5.358,4.485,5.425,8.314
		c0.066,3.948,1.196,8.425-5.642,7.998c-7.199-0.447-14.458,0.088-21.678-0.164c-4.484-0.156-6.92,0.62-6.74,6.039
		c0.386,11.615,0.347,23.258,0.026,34.877c-0.144,5.159,1.868,6.463,6.623,6.253c7.213-0.317,14.472,0.242,21.677-0.171
		c6.662-0.379,5.803,3.896,5.764,7.969c-0.041,3.991,1.048,8.495-5.687,8.04c-5.634-0.38-11.375,0.453-16.954-0.208
		c-8.74-1.033-12.02,1.387-11.58,10.997c0.869,19.134,0.028,38.336,0.386,57.504c0.114,6.162-1.685,7.954-7.928,7.958
		c-20.776,0.011-20.776,0.278-20.775-20.546c0-16.029-0.179-32.062,0.103-48.085c0.092-5.422-1.065-8.069-7.201-7.817
		c-10.354,0.424-20.739,0.083-31.11,0.138c-3.438,0.019-5.668,0.146-7.284,4.922c-7.322,21.646-16.221,42.762-23.451,64.437
		c-3.209,9.627-9.679,8.54-16.92,8.842c-6.94,0.29-11.443-0.812-14.073-8.544c-7.438-21.883-15.973-43.389-23.729-65.168
		c-1.386-3.89-3.536-4.567-6.975-4.539c-10.37,0.082-20.755,0.318-31.11-0.083c-5.92-0.229-7.466,1.996-7.386,7.639
		c0.286,20.109-0.134,40.231,0.251,60.341c0.126,6.593-1.913,8.491-8.482,8.461c-20.229-0.093-20.23,0.182-20.229-20.036
		c0-16.343-0.258-32.692,0.139-49.026c0.145-5.941-1.848-7.758-7.51-7.354c-5.628,0.4-11.416-0.609-16.941,0.242
		c-9.417,1.452-10.229-3.424-9.787-10.771c0.256-4.251,1.888-5.346,5.714-5.262c7.226,0.163,14.478-0.293,21.679,0.148
		c5.57,0.34,6.952-1.849,6.805-7.042c-0.322-11.305-0.35-22.635,0.021-33.938c0.171-5.201-1.833-6.443-6.559-6.227
		c-6.899,0.314-13.863-0.373-20.729,0.208c-6.561,0.555-6.972-2.747-6.913-7.854c0.059-5.242,0.125-9.645,7.279-8.452
		c0.917,0.152,1.889,0.088,2.824,0.008c7.719-0.64,17.8,3.452,22.559-1.67c4.676-5.034,1.041-14.996,1.38-22.786
		C139.577,181.955,139.41,177.233,139.405,172.518z M252.514,227.286c-7.829,0-15.659,0-23.489,0
		c-14.055,0-14.046-0.004-9.037,13.426c3.936,10.556,5.175,23.906,12.492,30.928c7.944,7.624,21.977,1.527,33.285,2.654
		c0.619,0.062,1.265-0.072,1.876,0.016c3.883,0.567,5.523-1.615,6.717-4.934c4.349-12.073,8.774-24.121,13.38-36.099
		c1.732-4.502,0.829-6.185-4.217-6.063C273.189,227.466,262.851,227.291,252.514,227.286z M337.011,251.561
		c0-5.008,0.339-10.048-0.12-15.014c-0.313-3.389,2.646-9.789-4.25-8.959c-6.393,0.768-15.379-5.54-18.822,6.017
		c-2.672,8.974-6.402,17.633-9.615,26.449c-5.193,14.248-5.18,14.253,9.877,14.25C337.008,274.299,337.008,274.299,337.011,251.561z
		 M167.986,249.84c0,5.625,0.25,11.267-0.072,16.873c-0.306,5.343,0.955,8.101,7.152,7.715c8.095-0.506,16.25-0.246,24.37-0.055
		c4.224,0.101,6.607-0.256,4.542-5.547c-4.772-12.218-9.056-24.624-13.707-36.891c-0.815-2.148-1.651-4.188-4.928-4.754
		c-14.541-2.515-17.36-0.386-17.36,14.219C167.984,244.213,167.983,247.026,167.986,249.84z M252.375,328.773
		c2.973-7.965,5.144-13.651,7.226-19.37c7.3-20.069,7.288-20.073-14.193-19.265c-0.624,0.023-1.251,0.035-1.875,0.008
		c-3.649-0.16-5.357,1.017-3.836,4.981C243.675,305.499,247.537,315.916,252.375,328.773z M170.07,176.534
		c-0.69,0.301-1.38,0.603-2.07,0.905c0,9.676-0.135,19.354,0.043,29.028c0.142,7.72,6.246,3.894,9.837,4.598
		c2.127,0.416,4.77,0.001,3.512-3.485C177.653,197.22,173.849,186.882,170.07,176.534z M336.996,177.102
		c-0.698-0.15-1.398-0.305-2.1-0.457c-3.436,9.286-6.949,18.546-10.246,27.883c-0.655,1.849-2.921,4.785-0.525,5.756
		c2.969,1.201,6.693,0.813,10.067,0.648c3.09-0.153,2.79-2.818,2.796-4.982C337.008,196.335,336.996,186.719,336.996,177.102z"/>
	<path fill-rule="evenodd" clip-rule="evenodd" fill="#DC3735" d="M252.514,227.287c10.337,0.004,20.676,0.179,31.007-0.072
		c5.046-0.122,5.949,1.561,4.217,6.063c-4.605,11.978-9.031,24.025-13.38,36.099c-1.193,3.318-2.834,5.501-6.717,4.934
		c-0.611-0.088-1.257,0.046-1.876-0.016c-11.309-1.127-25.341,4.97-33.285-2.654c-7.317-7.022-8.557-20.372-12.492-30.928
		c-5.009-13.43-5.018-13.426,9.037-13.426C236.854,227.286,244.685,227.286,252.514,227.287z"/>
	<path fill-rule="evenodd" clip-rule="evenodd" fill="#DC3735" d="M337.008,251.561c0,22.738,0,22.738-22.928,22.743
		c-15.057,0.003-15.07-0.002-9.877-14.25c3.213-8.815,6.943-17.475,9.615-26.449c3.443-11.557,12.43-5.25,18.822-6.017
		c6.896-0.83,3.937,5.57,4.25,8.959C337.35,241.512,337.011,246.553,337.008,251.561z"/>
	<path fill-rule="evenodd" clip-rule="evenodd" fill="#DC3735" d="M167.985,249.84c-0.002-2.813,0-5.626-0.002-8.439
		c0-14.605,2.819-16.733,17.36-14.219c3.277,0.566,4.113,2.605,4.928,4.754c4.651,12.267,8.934,24.673,13.707,36.891
		c2.065,5.291-0.318,5.647-4.542,5.547c-8.121-0.191-16.275-0.451-24.37,0.055c-6.197,0.386-7.458-2.372-7.152-7.715
		C168.236,261.106,167.986,255.465,167.985,249.84z"/>
	<path fill-rule="evenodd" clip-rule="evenodd" fill="#DC3735" d="M252.375,328.773c-4.838-12.857-8.7-23.274-12.679-33.646
		c-1.521-3.965,0.187-5.142,3.836-4.981c0.624,0.027,1.251,0.016,1.875-0.008c21.481-0.809,21.493-0.805,14.193,19.265
		C257.519,315.122,255.348,320.809,252.375,328.773z"/>
	<path fill-rule="evenodd" clip-rule="evenodd" fill="#DC3735" d="M170.07,176.534c3.779,10.348,7.583,20.686,11.323,31.046
		c1.258,3.486-1.385,3.901-3.512,3.485c-3.592-0.704-9.696,3.122-9.837-4.598c-0.179-9.674-0.043-19.353-0.043-29.028
		C168.689,177.137,169.379,176.835,170.07,176.534z"/>
	<path fill-rule="evenodd" clip-rule="evenodd" fill="#DC3735" d="M336.996,177.102c0,9.617,0.012,19.233-0.008,28.848
		c-0.006,2.165,0.294,4.83-2.796,4.982c-3.374,0.165-7.099,0.553-10.067-0.648c-2.396-0.971-0.13-3.907,0.525-5.756
		c3.297-9.337,6.811-18.598,10.246-27.883C335.598,176.797,336.298,176.952,336.996,177.102z"/>
</g>
</svg>
