<?xml version="1.0" encoding="utf-8"?>
<!-- Generator: Adobe Illustrator 16.0.0, SVG Export Plug-In . SVG Version: 6.00 Build 0)  -->
<!DOCTYPE svg PUBLIC "-//W3C//DTD SVG 1.1//EN" "http://www.w3.org/Graphics/SVG/1.1/DTD/svg11.dtd">
<svg version="1.1" id="Layer_1" xmlns="http://www.w3.org/2000/svg" xmlns:xlink="http://www.w3.org/1999/xlink" x="0px" y="0px"
	 width="500px" height="500px" viewBox="0 0 500 500" enable-background="new 0 0 500 500" xml:space="preserve">
<g>
	<path fill="#DC3735" d="M14.172,289.018c0-23.895,0-47.791,0-71.69c4.738,0.129,3.277-3.83,3.736-6.12
		c19.84-99.318,90.806-170.283,190.125-190.125c2.291-0.459,6.25,1,6.121-3.737c23.269,0,46.535,0,69.804,0
		c0.84,4.604,4.854,3.178,7.537,3.66c97.182,17.447,173.229,93.492,190.672,190.671c0.48,2.685-0.945,6.7,3.66,7.539
		c0,23.267,0,46.537,0,69.804c-5.297,0.635-3.473,5.189-4.01,8c-18.508,96.279-94.02,171.027-190.305,188.318
		c-2.689,0.484-6.709-0.941-7.557,3.662c-23.271,0-46.536,0-69.804,0c0.129-4.738-3.83-3.277-6.121-3.734
		c-99.319-19.844-170.285-90.809-190.125-190.125C17.45,292.85,18.911,288.891,14.172,289.018z M136.915,175.69
		c0,4.715,0.167,9.437-0.038,14.143c-0.339,7.79,3.296,17.752-1.38,22.786c-4.758,5.122-14.84,1.03-22.559,1.67
		c-0.937,0.08-1.908,0.144-2.824-0.008c-7.154-1.192-7.221,3.21-7.279,8.452c-0.059,5.107,0.352,8.409,6.913,7.854
		c6.866-0.58,13.829,0.106,20.729-0.208c4.727-0.216,6.729,1.026,6.559,6.227c-0.371,11.302-0.344,22.632-0.021,33.938
		c0.147,5.191-1.234,7.381-6.805,7.041c-7.201-0.441-14.453,0.016-21.68-0.148c-3.825-0.084-5.457,1.012-5.713,5.262
		c-0.443,7.35,0.369,12.227,9.787,10.771c5.524-0.852,11.313,0.158,16.94-0.242c5.662-0.402,7.655,1.414,7.51,7.355
		c-0.397,16.334-0.139,32.684-0.139,49.025c-0.001,20.217,0.001,19.941,20.229,20.035c6.568,0.029,8.607-1.867,8.481-8.461
		c-0.386-20.109,0.035-40.23-0.251-60.342c-0.08-5.645,1.466-7.867,7.386-7.639c10.354,0.4,20.74,0.164,31.11,0.082
		c3.439-0.027,5.588,0.648,6.975,4.539c7.756,21.779,16.291,43.285,23.729,65.168c2.631,7.732,7.134,8.834,14.074,8.545
		c7.24-0.303,13.71,0.783,16.919-8.844c7.23-21.674,16.129-42.789,23.451-64.436c1.615-4.777,3.846-4.904,7.283-4.922
		c10.371-0.057,20.758,0.285,31.111-0.139c6.135-0.252,7.293,2.396,7.201,7.816c-0.281,16.023-0.105,32.057-0.105,48.084
		c0,20.824,0,20.559,20.775,20.547c6.244-0.004,8.043-1.797,7.928-7.957c-0.357-19.168,0.484-38.371-0.385-57.506
		c-0.439-9.609,2.84-12.029,11.58-10.996c5.578,0.66,11.318-0.172,16.953,0.209c6.732,0.453,5.646-4.051,5.688-8.041
		c0.039-4.072,0.898-8.348-5.764-7.969c-7.205,0.412-14.465-0.146-21.68,0.17c-4.754,0.211-6.766-1.094-6.621-6.252
		c0.318-11.619,0.357-23.262-0.025-34.877c-0.18-5.418,2.256-6.195,6.74-6.04c7.219,0.252,14.479-0.283,21.678,0.164
		c6.838,0.427,5.707-4.05,5.641-7.998c-0.064-3.83,1.441-8.6-5.424-8.314c-6.902,0.29-13.857-0.348-20.73,0.183
		c-6.207,0.48-8.029-1.573-7.918-7.799c0.373-20.423-0.205-40.864,0.326-61.28c0.189-7.318-2.176-9.236-9.059-8.787
		c-8.451,0.553-16.98,0.44-25.445,0.021c-5.281-0.261-7.703,1.612-9.477,6.62c-7.646,21.613-15.922,43.003-23.563,64.618
		c-1.787,5.053-4.33,6.648-9.545,6.592c-23.887-0.251-47.775-0.321-71.658,0.035c-6.084,0.091-8.817-1.991-10.791-7.624
		c-7.469-21.342-15.482-42.493-23.164-63.761c-1.365-3.781-2.603-6.659-7.633-6.471c-10.043,0.372-20.113,0.262-30.166,0.044
		c-4.515-0.098-6.041,1.592-5.944,6.058C137.063,153.688,136.905,164.691,136.915,175.69z"/>
	<path fill="#FDF9F9" d="M136.909,175.69c-0.004-10.999,0.154-22.003-0.08-32.999c-0.096-4.466,1.431-6.155,5.943-6.058
		c10.053,0.217,20.123,0.328,30.168-0.044c5.029-0.188,6.268,2.69,7.633,6.471c7.681,21.269,15.693,42.419,23.164,63.761
		c1.972,5.633,4.707,7.715,10.789,7.624c23.883-0.355,47.773-0.286,71.658-0.035c5.215,0.056,7.758-1.539,9.545-6.592
		c7.643-21.615,15.918-43.005,23.564-64.618c1.77-5.008,4.191-6.881,9.477-6.62c8.463,0.42,16.994,0.532,25.443-0.021
		c6.883-0.449,9.248,1.469,9.059,8.787c-0.531,20.416,0.049,40.857-0.324,61.28c-0.113,6.226,1.709,8.28,7.916,7.799
		c6.875-0.53,13.828,0.107,20.73-0.183c6.865-0.286,5.359,4.485,5.426,8.314c0.066,3.948,1.195,8.425-5.643,7.998
		c-7.199-0.447-14.457,0.088-21.678-0.164c-4.484-0.156-6.92,0.62-6.74,6.04c0.387,11.615,0.348,23.258,0.025,34.877
		c-0.145,5.158,1.867,6.463,6.623,6.252c7.215-0.316,14.473,0.242,21.678-0.17c6.662-0.379,5.803,3.895,5.764,7.969
		c-0.041,3.99,1.049,8.494-5.686,8.039c-5.637-0.379-11.375,0.453-16.955-0.207c-8.74-1.033-12.021,1.387-11.58,10.996
		c0.869,19.135,0.027,38.336,0.387,57.504c0.113,6.162-1.686,7.955-7.928,7.959c-20.777,0.01-20.777,0.277-20.775-20.547
		c0-16.029-0.18-32.061,0.104-48.084c0.092-5.422-1.064-8.07-7.201-7.818c-10.354,0.426-20.738,0.084-31.109,0.141
		c-3.439,0.02-5.668,0.145-7.283,4.922c-7.322,21.645-16.223,42.762-23.451,64.438c-3.209,9.627-9.68,8.539-16.919,8.842
		c-6.94,0.291-11.443-0.813-14.074-8.543c-7.438-21.885-15.973-43.391-23.729-65.168c-1.386-3.891-3.536-4.568-6.975-4.539
		c-10.37,0.082-20.755,0.316-31.11-0.084c-5.92-0.229-7.466,1.996-7.386,7.639c0.286,20.109-0.134,40.23,0.251,60.342
		c0.126,6.592-1.913,8.49-8.482,8.461c-20.229-0.094-20.229,0.184-20.229-20.037c0-16.342-0.258-32.689,0.139-49.023
		c0.145-5.941-1.848-7.758-7.51-7.355c-5.628,0.4-11.416-0.607-16.941,0.242c-9.416,1.451-10.229-3.424-9.787-10.771
		c0.256-4.252,1.889-5.346,5.715-5.262c7.226,0.162,14.478-0.293,21.679,0.146c5.569,0.34,6.952-1.85,6.805-7.041
		c-0.321-11.305-0.35-22.635,0.021-33.938c0.172-5.201-1.832-6.443-6.559-6.227c-6.898,0.314-13.863-0.373-20.729,0.208
		c-6.561,0.555-6.973-2.747-6.913-7.854c0.06-5.242,0.125-9.645,7.278-8.452c0.918,0.152,1.89,0.088,2.824,0.008
		c7.719-0.64,17.801,3.452,22.56-1.67c4.676-5.034,1.04-14.996,1.38-22.786C137.082,185.127,136.915,180.405,136.909,175.69z
		 M250.018,230.458c-7.828,0-15.658,0-23.488,0c-14.055,0-14.047-0.004-9.037,13.426c3.936,10.555,5.175,23.906,12.492,30.928
		c7.943,7.623,21.976,1.527,33.285,2.654c0.619,0.061,1.266-0.072,1.875,0.016c3.883,0.566,5.523-1.615,6.717-4.934
		c4.352-12.074,8.775-24.121,13.383-36.1c1.73-4.502,0.826-6.185-4.219-6.063C270.693,230.638,260.355,230.463,250.018,230.458z
		 M334.516,254.732c0-5.006,0.338-10.046-0.121-15.014c-0.313-3.389,2.646-9.789-4.25-8.958c-6.393,0.768-15.379-5.54-18.82,6.017
		c-2.672,8.975-6.402,17.633-9.615,26.449c-5.191,14.248-5.182,14.252,9.877,14.25C334.512,277.471,334.512,277.471,334.516,254.732
		z M165.491,253.012c0,5.625,0.25,11.268-0.072,16.873c-0.307,5.344,0.955,8.102,7.152,7.715c8.095-0.506,16.25-0.246,24.369-0.055
		c4.225,0.102,6.607-0.256,4.543-5.547c-4.772-12.219-9.057-24.623-13.707-36.891c-0.815-2.148-1.651-4.188-4.929-4.754
		c-14.541-2.515-17.36-0.386-17.36,14.219C165.489,247.385,165.487,250.198,165.491,253.012z M249.879,331.945
		c2.972-7.965,5.144-13.65,7.226-19.371c7.299-20.068,7.287-20.072-14.192-19.264c-0.624,0.021-1.251,0.033-1.875,0.008
		c-3.649-0.16-5.357,1.018-3.836,4.98C241.179,308.672,245.042,319.088,249.879,331.945z M167.575,179.707
		c-0.69,0.301-1.381,0.603-2.07,0.905c0,9.676-0.135,19.354,0.043,29.028c0.143,7.72,6.246,3.894,9.837,4.598
		c2.127,0.416,4.771,0.001,3.513-3.485C175.157,200.393,171.354,190.054,167.575,179.707z M334.5,180.274
		c-0.697-0.15-1.398-0.305-2.1-0.457c-3.438,9.286-6.949,18.546-10.246,27.883c-0.654,1.849-2.922,4.785-0.525,5.756
		c2.969,1.201,6.693,0.813,10.068,0.648c3.09-0.153,2.789-2.818,2.795-4.982C334.512,199.507,334.5,189.891,334.5,180.274z"/>
	<path fill="#DC3735" d="M250.018,230.459c10.337,0.004,20.675,0.179,31.007-0.072c5.045-0.122,5.949,1.561,4.219,6.063
		c-4.605,11.978-9.031,24.024-13.383,36.099c-1.191,3.318-2.834,5.502-6.717,4.934c-0.611-0.088-1.256,0.047-1.875-0.016
		c-11.309-1.127-25.341,4.971-33.285-2.654c-7.317-7.02-8.558-20.371-12.492-30.928c-5.01-13.429-5.018-13.425,9.037-13.425
		C234.358,230.458,242.19,230.458,250.018,230.459z"/>
	<path fill="#DC3735" d="M334.512,254.732c0,22.738,0,22.738-22.928,22.744c-15.057,0.002-15.07-0.002-9.877-14.25
		c3.213-8.814,6.941-17.475,9.615-26.449c3.441-11.557,12.43-5.25,18.82-6.017c6.896-0.83,3.939,5.57,4.25,8.958
		C334.854,244.685,334.516,249.725,334.512,254.732z"/>
	<path fill="#DC3735" d="M165.489,253.012c-0.002-2.813,0-5.625-0.002-8.438c0-14.605,2.819-16.733,17.36-14.219
		c3.277,0.565,4.113,2.604,4.929,4.754c4.65,12.267,8.934,24.673,13.707,36.892c2.064,5.291-0.318,5.646-4.543,5.547
		c-8.121-0.191-16.274-0.451-24.369,0.055c-6.197,0.385-7.459-2.373-7.152-7.715C165.741,264.277,165.491,258.637,165.489,253.012z"
		/>
	<path fill="#DC3735" d="M249.879,331.945c-4.838-12.857-8.7-23.273-12.68-33.646c-1.521-3.965,0.188-5.143,3.837-4.98
		c0.624,0.027,1.251,0.018,1.875-0.008c21.481-0.809,21.493-0.805,14.192,19.264C255.023,318.295,252.852,323.98,249.879,331.945z"
		/>
	<path fill="#DC3735" d="M167.575,179.707c3.779,10.348,7.582,20.686,11.322,31.046c1.258,3.486-1.385,3.901-3.512,3.485
		c-3.592-0.704-9.695,3.122-9.837-4.598c-0.179-9.674-0.043-19.353-0.043-29.028C166.194,180.31,166.883,180.007,167.575,179.707z"
		/>
	<path fill="#DC3735" d="M334.5,180.274c0,9.617,0.012,19.233-0.008,28.848c-0.006,2.165,0.295,4.83-2.795,4.982
		c-3.375,0.165-7.102,0.553-10.068-0.648c-2.395-0.971-0.129-3.907,0.525-5.756c3.297-9.337,6.811-18.598,10.246-27.883
		C333.102,179.969,333.803,180.125,334.5,180.274z"/>
</g>
</svg>
