<?xml version="1.0" encoding="utf-8"?>
<!-- Generator: Adobe Illustrator 16.0.0, SVG Export Plug-In . SVG Version: 6.00 Build 0)  -->
<!DOCTYPE svg PUBLIC "-//W3C//DTD SVG 1.1//EN" "http://www.w3.org/Graphics/SVG/1.1/DTD/svg11.dtd">
<svg version="1.1" id="Layer_1" xmlns="http://www.w3.org/2000/svg" xmlns:xlink="http://www.w3.org/1999/xlink" x="0px" y="0px"
	 width="500px" height="500px" viewBox="0 0 500 500" enable-background="new 0 0 500 500" xml:space="preserve">
<g>
	<path fill="#FAE071" d="M282.982,364.439l-3.502,0.182c0,0-3.513,0-3.513-0.01c-0.017-77.773-0.017-155.528-0.017-233.284
		c-3.835-0.055-7.672-0.108-11.508-0.161c0,76.835,0,153.665,0,230.501c-4.195-0.063-8.392-0.118-12.596-0.181
		c0-77.314,0-154.629,0-231.935c-4.242,0.09-8.49,0.181-12.741,0.28c0,77.845,0,155.699,0,233.553
		c-3.453-0.044-6.9-0.078-10.354-0.126c0-77.323,0-154.655,0-231.977c-3.414,0.027-6.82,0.054-10.232,0.081
		c0,77.745,0,155.5,0,233.257h-3.507c0,0-3.503-0.183-3.512-0.19c-0.008-77.71-0.008-155.421-0.008-233.121
		c-3.566-0.038-7.133-0.073-10.702-0.108c0,77.053,0,154.105,0,231.158c-9.562-65.652-9.458-131.217-9.648-196.774
		c-0.035-13.315,3.333-32.683-14.881-33.106c-18.242-0.413-20.709,18.025-20.82,33.818c-0.41,56.66-0.896,113.321-1.353,169.971
		c-2.431,0.188-4.771-0.189-7.031-1.145c-0.005-55.301-0.005-110.6-0.005-165.901c-10.597,18.197-8.841,36.529-10.985,54.392
		c-3.681,30.63,11.868,63.43-10.078,91.971c0,0-0.353-4.078-0.356-4.114c-0.005-40.705-0.005-81.375-0.005-134.55
		c-16.904,45.216,4.749,82.222-18.147,113.267C76.804,257.143,75.628,215.349,82.859,176.3
		c10.615-57.325,41.821-103.577,98.22-127.779c16.53-7.095,30.937-17.179,41.949,12.523c8.692,23.447,40.227,22.339,47.863,0.972
		c11.984-33.511,27.938-19.941,45.306-12.208c73.073,32.521,107.07,111.141,85.536,197.873
		c-3.595,14.495-9.763,28.361-14.749,42.514c-23.267-30.603-0.036-68.787-20.023-113.616c0,55.625,0,98.177,0,140.728l0.34-0.315
		c-16.133-13.199-8.317-31.378-8.894-47.287c-1.206-33.231-0.369-66.536-0.369-99.813c-3.539,0.098-7.078,0.198-10.615,0.296
		c0,54.985,0,109.961,0,164.946c-2.252,0.945-4.591,1.314-7.023,1.107c-0.009-61.612-0.009-123.214-0.009-184.817
		c-3.845-0.017-7.697-0.036-11.552-0.054c0,61.307,0,122.613,0,183.926c-2.664-0.072-5.331-0.135-7.996-0.197
		c0-70.111,0-140.222,0-210.325c-3.763-0.242-7.517-0.476-11.271-0.72c-15.584,74.703,0.793,152.404-16.764,227.324
		c0-73.173,0-146.335,0-219.5c-3.277,0-6.556,0-9.824,0C282.982,209.398,282.982,286.92,282.982,364.439z"/>
	<path fill="#ED95BF" d="M218.523,364.621c0-77.756,0-155.512,0-233.257c3.412-0.027,6.818-0.054,10.232-0.081
		c0,77.322,0,154.652,0,231.977c3.453,0.047,6.901,0.082,10.354,0.127c0-77.854,0-155.708,0-233.554
		c4.251-0.099,8.499-0.189,12.741-0.28c0,77.305,0,154.62,0,231.933c4.205,0.063,8.399,0.117,12.596,0.182
		c0-76.837,0-153.666,0-230.501c3.836,0.052,7.673,0.106,11.508,0.161c0,77.756,0,155.511,0.017,233.283
		c-0.79,21.178-1.366,42.354-2.446,63.504c-0.849,16.349-9.979,24.785-26.272,24.785c-16.293,0-25.432-8.438-26.27-24.785
		C219.9,406.965,219.319,385.788,218.523,364.621z"/>
	<path fill="#ED95BF" d="M154.091,336.268c0.456-56.648,0.942-113.31,1.353-169.97c0.111-15.793,2.578-34.231,20.82-33.818
		c18.214,0.423,14.846,19.791,14.881,33.106c0.19,65.557,0.086,131.122,9.648,196.775c0-77.055,0-154.106,0-231.159
		c3.569,0.036,7.136,0.071,10.702,0.108c0,77.7,0,155.411,0.008,233.122c-0.693,15.287-2.534,30.621-1.788,45.826
		c0.807,16.423-5.793,27.831-21.019,30.561c-19.164,3.438-28.573-12.171-30.706-26.67
		C154.227,388.553,155.137,362.271,154.091,336.268z M171.892,159.158c-1.405,0.017-2.809,0.044-4.214,0.063
		c0,58.478,0,116.956,0,175.435c1.405-0.02,2.809-0.045,4.214-0.063C171.892,276.113,171.892,217.636,171.892,159.158z"/>
	<path fill="#ED95BF" d="M282.982,364.439c0-77.521,0-155.042,0-232.563c3.27,0,6.547,0,9.824,0c0,73.165,0,146.327,0,219.5
		c17.557-74.92,1.18-152.621,16.764-227.324c3.756,0.244,7.51,0.478,11.271,0.72c0,70.103,0,140.212,0,210.326
		c2.665,0.063,5.332,0.125,7.996,0.196c0-61.313,0-122.619,0-183.926c3.854,0.019,7.707,0.038,11.552,0.054
		c0,61.604,0,123.205,0.009,184.816c-0.737,21.17-2.143,42.336-2.033,63.483c0.105,21.61-7.779,34.817-31.027,35.675
		c-27.316,1.008-21.268-19.105-22.275-34.756C284.271,388.58,283.677,376.505,282.982,364.439z"/>
	<path fill="#ED95BF" d="M125.993,315.586c21.945-28.541,6.396-61.341,10.078-91.971c2.144-17.863,0.388-36.195,10.985-54.392
		c0,55.301,0,110.601,0.005,165.901c0.009,23.903,0.009,47.801,0.009,71.694C134.284,376.91,138.287,344.721,125.993,315.586z"/>
	<path fill="#ED95BF" d="M347.423,335.133c0-54.984,0-109.961,0-164.946c3.537-0.099,7.076-0.198,10.615-0.296
		c0,33.276-0.837,66.581,0.369,99.813c0.575,15.909-7.239,34.088,8.894,47.287c-9.372,29.173-8.309,59.784-16.619,90.137
		C349.593,383.132,348.503,359.128,347.423,335.133z"/>
	<path fill="#ED95BF" d="M366.961,317.307c0-42.551,0-85.103,0-140.728c19.987,44.83-3.242,83.015,20.023,113.616
		C379.854,298.895,379.35,312.497,366.961,317.307z"/>
	<path fill="#ED95BF" d="M107.484,290.188c22.896-31.045,1.244-68.049,18.147-113.266c0,53.175,0,93.846,0.005,134.551
		C119.586,304.404,113.536,297.291,107.484,290.188z"/>
	<path fill="#FAE071" d="M171.892,159.158c0,58.478,0,116.955,0,175.435c-1.405,0.019-2.809,0.046-4.214,0.063
		c0-58.479,0-116.957,0-175.435C169.083,159.202,170.487,159.175,171.892,159.158z"/>
</g>
</svg>
