<?xml version="1.0" encoding="utf-8"?>
<!-- Generator: Adobe Illustrator 16.0.0, SVG Export Plug-In . SVG Version: 6.00 Build 0)  -->
<!DOCTYPE svg PUBLIC "-//W3C//DTD SVG 1.1//EN" "http://www.w3.org/Graphics/SVG/1.1/DTD/svg11.dtd">
<svg version="1.1" id="Layer_1" xmlns="http://www.w3.org/2000/svg" xmlns:xlink="http://www.w3.org/1999/xlink" x="0px" y="0px"
	 width="500px" height="500px" viewBox="0 0 500 500" enable-background="new 0 0 500 500" xml:space="preserve">
<g>
	<path fill-rule="evenodd" clip-rule="evenodd" fill="#FFFFFD" d="M246.689,473.755c-68.977,0-137.97-0.956-206.912,0.602
		c-19.784,0.452-23.773-3.78-23.611-23.582c1.116-137.943,1.588-275.915-0.32-413.832c-0.347-25.138,8.909-24.58,27.334-24.499
		c136.414,0.604,272.838,0.946,409.242-0.315c21.662-0.207,26.164,4.168,25.966,25.921c-1.279,136.405-1.583,272.836,0.18,409.231
		c0.325,25.887-9.263,27.157-29.559,26.85C381.583,473.124,314.126,473.755,246.689,473.755z M366.961,317.306
		c12.389-4.809,12.893-18.412,20.042-27.1c4.969-14.163,11.137-28.029,14.73-42.524c21.535-86.732-12.462-165.352-85.536-197.873
		c-17.368-7.733-33.32-21.303-45.306,12.208c-7.636,21.367-39.17,22.475-47.862-0.972c-11.012-29.702-25.419-19.618-41.949-12.523
		c-56.399,24.202-87.605,70.454-98.22,127.779c-7.231,39.048-6.055,80.842,24.624,113.887c6.051,7.104,12.102,14.218,18.156,21.32
		l0.353,4.078c12.294,29.135,8.291,61.324,21.076,91.232c0-23.894,0-47.79,0-71.686c2.251,0.945,4.591,1.324,7.022,1.135
		c1.045,26.004,0.136,52.285,3.9,77.88c2.133,14.499,11.542,30.108,30.706,26.67c15.225-2.729,21.826-14.137,21.019-30.56
		c-0.746-15.206,1.095-30.539,1.796-45.818l3.503,0.182h3.507c0.796,21.167,1.377,42.344,2.457,63.493
		c0.838,16.349,9.977,24.785,26.27,24.785c16.295,0,25.425-8.437,26.272-24.785c1.08-21.149,1.656-42.326,2.447-63.493h3.513
		l3.501-0.182c0.694,12.065,1.288,24.141,2.08,36.203c1.009,15.649-5.041,35.763,22.275,34.756
		c23.248-0.857,31.134-14.064,31.027-35.675c-0.108-21.148,1.296-42.314,2.033-63.475c2.434,0.198,4.772-0.171,7.024-1.116
		c1.08,23.995,2.17,47.999,3.259,71.994c8.311-30.353,7.247-60.964,16.619-90.137L366.961,317.306z"/>
	<path fill-rule="evenodd" clip-rule="evenodd" fill="#FAE071" d="M282.982,364.439l-3.501,0.182c0,0-3.513,0-3.513-0.01
		c-0.017-77.773-0.017-155.528-0.017-233.284c-3.835-0.055-7.672-0.108-11.507-0.161c0,76.835,0,153.665,0,230.501
		c-4.196-0.064-8.392-0.118-12.596-0.181c0-77.314,0-154.629,0-231.934c-4.242,0.09-8.49,0.181-12.741,0.28
		c0,77.845,0,155.699,0,233.553c-3.453-0.044-6.9-0.079-10.354-0.126c0-77.323,0-154.655,0-231.977
		c-3.414,0.027-6.82,0.054-10.232,0.081c0,77.745,0,155.501,0,233.257h-3.507c0,0-3.503-0.182-3.512-0.19
		c-0.008-77.71-0.008-155.421-0.008-233.121c-3.566-0.038-7.133-0.073-10.702-0.108c0,77.053,0,154.105,0,231.159
		c-9.562-65.653-9.458-131.218-9.648-196.775c-0.035-13.315,3.333-32.683-14.881-33.106c-18.242-0.413-20.709,18.025-20.82,33.818
		c-0.41,56.66-0.896,113.321-1.353,169.97c-2.431,0.189-4.771-0.189-7.031-1.144c-0.005-55.3-0.005-110.6-0.005-165.901
		c-10.597,18.197-8.841,36.529-10.985,54.392c-3.681,30.63,11.868,63.43-10.078,91.971c0,0-0.353-4.078-0.356-4.114
		c-0.005-40.705-0.005-81.375-0.005-134.55c-16.904,45.216,4.749,82.221-18.147,113.266
		c-30.679-33.045-31.855-74.838-24.624-113.887c10.615-57.325,41.821-103.577,98.22-127.779
		c16.53-7.095,30.937-17.179,41.949,12.523c8.692,23.447,40.227,22.339,47.862,0.972c11.985-33.511,27.938-19.941,45.306-12.208
		c73.074,32.521,107.071,111.141,85.536,197.873c-3.594,14.495-9.762,28.361-14.749,42.514
		c-23.266-30.602-0.036-68.787-20.023-113.616c0,55.625,0,98.177,0,140.727l0.34-0.315c-16.133-13.199-8.318-31.377-8.894-47.287
		c-1.206-33.231-0.369-66.536-0.369-99.813c-3.539,0.098-7.078,0.198-10.615,0.296c0,54.985,0,109.961,0,164.946
		c-2.252,0.945-4.591,1.314-7.024,1.107c-0.008-61.612-0.008-123.214-0.008-184.817c-3.845-0.017-7.698-0.036-11.552-0.054
		c0,61.307,0,122.613,0,183.926c-2.664-0.072-5.331-0.135-7.996-0.197c0-70.112,0-140.222,0-210.325
		c-3.763-0.242-7.517-0.476-11.272-0.72c-15.584,74.703,0.793,152.404-16.764,227.324c0-73.173,0-146.335,0-219.5
		c-3.277,0-6.555,0-9.824,0C282.982,209.398,282.982,286.92,282.982,364.439z"/>
	<path fill-rule="evenodd" clip-rule="evenodd" fill="#ED95BF" d="M218.523,364.621c0-77.756,0-155.512,0-233.257
		c3.412-0.027,6.818-0.054,10.232-0.081c0,77.322,0,154.653,0,231.977c3.453,0.047,6.901,0.082,10.354,0.126
		c0-77.854,0-155.708,0-233.553c4.251-0.099,8.499-0.189,12.741-0.28c0,77.305,0,154.62,0,231.934
		c4.204,0.063,8.399,0.116,12.596,0.181c0-76.837,0-153.666,0-230.501c3.835,0.052,7.672,0.106,11.507,0.161
		c0,77.756,0,155.511,0.017,233.284c-0.791,21.177-1.367,42.354-2.447,63.503c-0.848,16.349-9.978,24.785-26.272,24.785
		c-16.293,0-25.432-8.437-26.27-24.785C219.9,406.965,219.319,385.788,218.523,364.621z"/>
	<path fill-rule="evenodd" clip-rule="evenodd" fill="#ED95BF" d="M154.091,336.268c0.456-56.649,0.942-113.31,1.353-169.97
		c0.111-15.793,2.578-34.231,20.82-33.818c18.214,0.423,14.846,19.791,14.881,33.106c0.19,65.557,0.086,131.122,9.648,196.775
		c0-77.054,0-154.106,0-231.159c3.569,0.036,7.136,0.071,10.702,0.108c0,77.7,0,155.411,0.008,233.121
		c-0.693,15.288-2.534,30.621-1.788,45.827c0.807,16.423-5.793,27.831-21.019,30.56c-19.164,3.438-28.573-12.171-30.706-26.67
		C154.227,388.553,155.137,362.271,154.091,336.268z M171.892,159.158c-1.405,0.017-2.809,0.044-4.214,0.063
		c0,58.478,0,116.956,0,175.435c1.405-0.019,2.809-0.045,4.214-0.063C171.892,276.113,171.892,217.636,171.892,159.158z"/>
	<path fill-rule="evenodd" clip-rule="evenodd" fill="#ED95BF" d="M282.982,364.439c0-77.52,0-155.042,0-232.563
		c3.27,0,6.547,0,9.824,0c0,73.165,0,146.327,0,219.5c17.557-74.92,1.18-152.621,16.764-227.324c3.756,0.244,7.51,0.478,11.272,0.72
		c0,70.103,0,140.213,0,210.325c2.665,0.063,5.332,0.125,7.996,0.197c0-61.313,0-122.619,0-183.926
		c3.854,0.019,7.707,0.038,11.552,0.054c0,61.604,0,123.205,0.008,184.817c-0.737,21.169-2.142,42.335-2.033,63.483
		c0.106,21.61-7.779,34.817-31.027,35.675c-27.316,1.007-21.267-19.106-22.275-34.756
		C284.271,388.58,283.677,376.505,282.982,364.439z"/>
	<path fill-rule="evenodd" clip-rule="evenodd" fill="#ED95BF" d="M125.993,315.586c21.945-28.541,6.396-61.341,10.078-91.971
		c2.144-17.863,0.388-36.195,10.985-54.392c0,55.301,0,110.601,0.005,165.901c0.009,23.904,0.009,47.801,0.009,71.694
		C134.284,376.91,138.287,344.721,125.993,315.586z"/>
	<path fill-rule="evenodd" clip-rule="evenodd" fill="#ED95BF" d="M347.423,335.133c0-54.984,0-109.961,0-164.946
		c3.537-0.099,7.076-0.198,10.615-0.296c0,33.276-0.837,66.581,0.369,99.813c0.575,15.91-7.239,34.088,8.894,47.287
		c-9.372,29.173-8.309,59.784-16.619,90.137C349.593,383.132,348.503,359.128,347.423,335.133z"/>
	<path fill-rule="evenodd" clip-rule="evenodd" fill="#ED95BF" d="M366.961,317.306c0-42.55,0-85.102,0-140.727
		c19.987,44.83-3.242,83.015,20.023,113.616C379.854,298.894,379.35,312.497,366.961,317.306z"/>
	<path fill-rule="evenodd" clip-rule="evenodd" fill="#ED95BF" d="M107.484,290.188c22.896-31.045,1.244-68.05,18.147-113.266
		c0,53.175,0,93.845,0.005,134.55C119.586,304.405,113.536,297.291,107.484,290.188z"/>
	<path fill-rule="evenodd" clip-rule="evenodd" fill="#FAE071" d="M171.892,159.158c0,58.478,0,116.955,0,175.435
		c-1.405,0.019-2.809,0.045-4.214,0.063c0-58.479,0-116.957,0-175.435C169.083,159.202,170.487,159.175,171.892,159.158z"/>
</g>
</svg>
