<?xml version="1.0" encoding="utf-8"?>
<!-- Generator: Adobe Illustrator 25.4.1, SVG Export Plug-In . SVG Version: 6.00 Build 0)  -->
<svg version="1.0" id="katman_1" xmlns="http://www.w3.org/2000/svg" xmlns:xlink="http://www.w3.org/1999/xlink" x="0px" y="0px"
	 viewBox="0 0 1700 1200" style="enable-background:new 0 0 1700 1200;" xml:space="preserve">
<style type="text/css">
	.st0{fill:#25245C;}
	.st1{fill-rule:evenodd;clip-rule:evenodd;fill:url(#Symbol_00000107576895346617641540000002610502249649218183_);}
</style>
<g id="Logo">
	<g transform="translate(-50.000000, -152.000000)">
		<g transform="translate(50.000000, 152.000000)">
			<g id="Text" transform="translate(84.905660, 22.588235)">
				<path id="KronaOne" class="st0" d="M610.5,682.9c13,0,24.4-1.4,34-4.3s17.6-7,23.9-12.3c6.3-5.4,11-11.8,14.1-19.4
					s4.6-16,4.6-25.3c0-11.1-2.2-21.1-6.7-29.8c-4.5-8.7-11.3-15.9-20.5-21.3c8-9.6,11.9-20.8,11.9-33.6c0-7.8-1.5-15.1-4.6-21.8
					s-7.8-12.5-14.2-17.4c-6.4-4.9-14.3-8.7-24-11.5s-20.9-4.2-33.9-4.2l0,0H489.1v201H610.5z M620.9,559.4
					c-3.3-0.3-6.7-0.4-10.2-0.4l0,0h-81.3v-41.3h66.9c10.8,0,19.1,2,24.7,6c5.6,4,8.5,9.6,8.5,16.9
					C629.4,547.7,626.6,554,620.9,559.4z M611.5,647.4h-82.1v-54.3h82.1c10.8,0,19.1,2.4,24.7,7.2c5.6,4.8,8.5,11.5,8.5,20.1
					s-2.8,15.2-8.5,19.9C630.6,645,622.3,647.4,611.5,647.4L611.5,647.4z M728.7,510.5c3.8,0,7.2-0.5,10.2-1.6
					c3-1.1,5.6-2.5,7.7-4.4c2.1-1.8,3.7-4,4.9-6.4c1.1-2.4,1.7-5,1.7-7.8c0-2.8-0.6-5.5-1.7-7.9c-1.1-2.4-2.8-4.6-4.9-6.4
					c-2.1-1.8-4.7-3.2-7.7-4.3c-3-1.1-6.4-1.6-10.2-1.6c-3.7,0-7.1,0.5-10.1,1.6c-3,1.1-5.6,2.5-7.7,4.3s-3.7,3.9-4.9,6.4
					c-1.1,2.4-1.7,5.1-1.7,7.9c0,2.7,0.6,5.3,1.7,7.8c1.1,2.4,2.8,4.6,4.9,6.4c2.1,1.8,4.7,3.3,7.7,4.4
					C721.6,509.9,725,510.5,728.7,510.5z M747.5,682.9V531.2h-37.6v151.7H747.5z M941.9,682.9v-35.7H826.4V481.9h-40.3v201H941.9z
					 M981.7,510.5c3.8,0,7.2-0.5,10.2-1.6c3-1.1,5.6-2.5,7.7-4.4c2.1-1.8,3.7-4,4.9-6.4c1.1-2.4,1.7-5,1.7-7.8
					c0-2.8-0.6-5.5-1.7-7.9c-1.1-2.4-2.8-4.6-4.9-6.4c-2.1-1.8-4.7-3.2-7.7-4.3c-3-1.1-6.4-1.6-10.2-1.6c-3.7,0-7.1,0.5-10.1,1.6
					c-3,1.1-5.6,2.5-7.7,4.3c-2.1,1.8-3.7,3.9-4.9,6.4c-1.1,2.4-1.7,5.1-1.7,7.9c0,2.7,0.6,5.3,1.7,7.8c1.1,2.4,2.8,4.6,4.9,6.4
					c2.1,1.8,4.7,3.3,7.7,4.4C974.6,509.9,978,510.5,981.7,510.5z M1000.5,682.9V531.2h-37.6v151.7H1000.5z M1072,682.9v-90.3
					c6.9-9.3,15.8-16.4,26.8-21.5c11-5.1,23.7-8.4,38.2-9.8l0,0l-11.1-34.8c-9.2,2.4-18.3,5.9-27.6,10.4s-18,9.9-26.3,16.2l0,0
					v-21.9h-37.6v151.7H1072z M1214.4,685.6c6.9,0,13.5-0.4,19.8-1.4c6.2-0.9,12.1-2.1,17.5-3.7s10.4-3.3,15.1-5.4s8.9-4.2,12.8-6.6
					l0,0v14.3h37.6v-66.1c0-29.9-6.8-52.1-20.5-66.6c-13.6-14.5-34.5-21.7-62.5-21.7c-6.4,0-12.9,0.3-19.7,1s-13.6,1.7-20.3,2.9
					c-6.8,1.2-13.4,2.7-19.9,4.4s-12.6,3.6-18.2,5.7l0,0l11.4,31.2c4.6-2.1,9.5-4,14.8-5.5s10.7-2.8,16.1-3.9
					c5.4-1,10.7-1.8,15.8-2.3c5.1-0.5,9.7-0.8,14-0.8c7.8,0,14.8,0.8,20.9,2.4s11.4,3.9,15.8,6.9c4.4,3,7.8,6.5,10.2,10.5
					c2.5,4.1,3.9,8.5,4.3,13.3c-10.8-2.8-21.4-4.9-31.6-6.3c-10.2-1.4-19.9-2.1-29.2-2.1c-12.5,0-23.4,1.2-32.7,3.5
					c-9.4,2.4-17.2,5.7-23.4,10c-6.3,4.3-11,9.5-14.1,15.5c-3.1,6-4.7,12.6-4.7,19.9c0,7.2,1.5,13.9,4.5,20c3,6.1,7.5,11.5,13.4,16
					c5.9,4.5,13.3,8.1,22.2,10.7C1192.4,684.3,1202.7,685.6,1214.4,685.6z M1217.7,652.8c-6.2,0-11.5-0.5-15.8-1.6
					c-4.4-1.1-7.9-2.5-10.7-4.2s-4.8-3.8-6.1-6c-1.3-2.3-1.9-4.7-1.9-7.1c0-2.3,0.6-4.5,1.8-6.7c1.2-2.1,3.2-4,6.1-5.6
					s6.7-2.9,11.3-3.8c4.7-0.9,10.5-1.4,17.5-1.4c3.4,0,7.4,0.1,11.9,0.4s9.4,0.7,14.5,1.4c5.1,0.6,10.5,1.5,16.1,2.6
					c5.6,1.1,11.3,2.5,17.1,4.1l0,0v6.7c-2.9,2.7-6.5,5.4-10.8,8c-4.3,2.6-9.2,4.8-14.5,6.8c-5.3,2-11.1,3.6-17.3,4.8
					S1224.3,652.8,1217.7,652.8z"/>
				<path id="_xAE_" class="st0" d="M1371.1,685.6c4.3,0,8.3-0.8,12-2.3c3.7-1.6,6.8-3.7,9.5-6.4c2.7-2.7,4.8-5.9,6.3-9.5
					c1.5-3.6,2.2-7.5,2.2-11.7s-0.7-8.1-2.2-11.7c-1.5-3.6-3.6-6.8-6.3-9.5c-2.7-2.7-5.9-4.9-9.5-6.4c-3.7-1.6-7.7-2.3-12-2.3
					c-4.3,0-8.3,0.8-12,2.3c-3.7,1.6-6.8,3.7-9.5,6.4c-2.7,2.7-4.8,5.9-6.3,9.5c-1.5,3.6-2.2,7.5-2.2,11.7s0.7,8.1,2.2,11.7
					c1.5,3.6,3.6,6.8,6.3,9.5c2.7,2.7,5.9,4.9,9.5,6.4C1362.8,684.8,1366.8,685.6,1371.1,685.6z M1371.1,680.2
					c-4.9,0-9.1-1-12.7-3.1c-3.6-2-6.4-4.9-8.3-8.6c-2-3.7-2.9-8-2.9-12.9s1-9.2,2.9-12.9c2-3.7,4.7-6.5,8.3-8.6
					c3.6-2,7.8-3.1,12.7-3.1c4.9,0,9.2,1,12.8,3.1c3.6,2,6.3,4.9,8.3,8.6c2,3.7,2.9,8,2.9,12.9s-1,9.2-2.9,12.9
					c-2,3.7-4.7,6.5-8.3,8.6C1380.3,679.2,1376,680.2,1371.1,680.2z M1364.2,671.4v-11.7h7.1l7.1,11.7h8.7l-7.6-12
					c2.4-0.5,4.1-1.6,5.4-3.3c1.2-1.7,1.8-3.8,1.8-6.2c0-2.8-0.8-5.2-2.5-7.1c-1.7-1.9-4.2-2.8-7.6-2.8l0,0h-19.6v31.4H1364.2z
					 M1374.9,653.9h-10.7v-8.1h10.7c1.5,0,2.6,0.3,3.2,1c0.6,0.6,0.9,1.7,0.9,3.1c0,1.4-0.3,2.4-0.9,3.1
					C1377.5,653.5,1376.4,653.9,1374.9,653.9L1374.9,653.9z"/>
			</g>
			
				<linearGradient id="Symbol_00000049210428496174677900000014856016293259037829_" gradientUnits="userSpaceOnUse" x1="-2.1167" y1="1199.8544" x2="-0.6428" y2="1195.6147" gradientTransform="matrix(56.6038 0 0 -96 398.3962 115591)">
				<stop  offset="0" style="stop-color:#BAE1EB"/>
				<stop  offset="0.5482" style="stop-color:#6061E6"/>
				<stop  offset="1" style="stop-color:#006BFF"/>
			</linearGradient>
			
				<path id="Symbol" style="fill-rule:evenodd;clip-rule:evenodd;fill:url(#Symbol_00000049210428496174677900000014856016293259037829_);" d="
				M214,396.9l46.5,12.5v344.9c89.7-12.2,136.7-67,145.8-169.6l0.3-3.1l-100.2-27.5v-47.9L454,546.7l0,23.5l0,0.7
				c-0.2,8-1,15.7-1.8,23.1c-11.9,110.8-64.7,165.2-125.7,190.2c-38.9,13.8-76.4,20.3-112.5,19.6V396.9z M306.4,421.6l108.9,29.2
				v48.4l-108.9-30.8V421.6z"/>
		</g>
	</g>
</g>
</svg>
