<?xml version="1.0" encoding="utf-8"?>
<!-- Generator: Adobe Illustrator 16.0.0, SVG Export Plug-In . SVG Version: 6.00 Build 0)  -->
<!DOCTYPE svg PUBLIC "-//W3C//DTD SVG 1.1//EN" "http://www.w3.org/Graphics/SVG/1.1/DTD/svg11.dtd">
<svg version="1.1" id="Layer_1" xmlns="http://www.w3.org/2000/svg" xmlns:xlink="http://www.w3.org/1999/xlink" x="0px" y="0px"
	 width="500px" height="500px" viewBox="0 0 500 500" enable-background="new 0 0 500 500" xml:space="preserve">
<g>
	<path fill="#676BB1" d="M297.897,486.041c-35.117,0-70.252,0-105.377,0c-87-34.346-147.617-95.07-182.018-182.02
		c0-38.318,0-76.639,0-114.958C47.094,99.673,107.653,35.533,202.101,7.047c31.936,0,63.859,0,95.798,0
		c97.249,30.479,161.08,94.385,191.599,191.596c0,35.129,0,70.25,0,105.376C452.916,393.422,392.312,457.523,297.897,486.041z
		 M168.159,179.589c30.815,9.298,60.146-16.503,66.987,19.076c2.775,14.407-4.036,36.027,11.728,39.899
		c18.395,4.519,19.947-20.534,29.039-32.36c7.701-10,12.705-22.021,19.487-32.79c13.706-21.769,3.724-27.636-17.409-27.513
		c-44.567,0.263-89.143,0.496-133.703-0.112c-27.289-0.375-34.771,7.783-19.584,33.259
		c36.666,61.501,72.461,123.536,107.707,185.872c12.557,22.209,21.629,24.043,34.896,0.494
		c33.604-59.604,69.023-118.186,102.15-178.042c6.166-11.132,29.104-26.306,6.053-38.666c-19.384-10.384-30.554,8.281-39.609,24.287
		c-22.715,40.172-46.234,79.874-69.041,119.999c-10.05,17.654-19.386,25.699-32.441,2.33
		C215.108,260.744,195.11,226.562,168.159,179.589z"/>
	<path fill="#F3F3F9" d="M168.159,179.589c26.951,46.974,46.949,81.157,66.258,115.735c13.057,23.369,22.393,15.322,32.44-2.33
		c22.808-40.125,46.327-79.83,69.042-120.001c9.058-16.006,20.228-34.67,39.609-24.287c23.051,12.36,0.113,27.534-6.053,38.666
		c-33.127,59.856-68.547,118.438-102.15,178.042c-13.268,23.547-22.34,21.713-34.896-0.496
		c-35.246-62.336-71.039-124.369-107.707-185.871c-15.188-25.476-7.705-33.634,19.584-33.259
		c44.561,0.608,89.133,0.375,133.703,0.112c21.133-0.123,31.115,5.745,17.409,27.513c-6.782,10.769-11.786,22.79-19.487,32.79
		c-9.092,11.826-10.646,36.879-29.039,32.36c-15.764-3.873-8.951-25.493-11.728-39.899
		C228.305,163.085,198.975,188.887,168.159,179.589z"/>
</g>
</svg>
