<?xml version="1.0" encoding="utf-8"?>
<!-- Generator: Adobe Illustrator 16.0.0, SVG Export Plug-In . SVG Version: 6.00 Build 0)  -->
<!DOCTYPE svg PUBLIC "-//W3C//DTD SVG 1.1//EN" "http://www.w3.org/Graphics/SVG/1.1/DTD/svg11.dtd">
<svg version="1.1" id="Layer_1" xmlns="http://www.w3.org/2000/svg" xmlns:xlink="http://www.w3.org/1999/xlink" x="0px" y="0px"
	 width="500px" height="500px" viewBox="0 0 500 500" enable-background="new 0 0 500 500" xml:space="preserve">
<g>
	<path fill-rule="evenodd" clip-rule="evenodd" fill="#676BB1" d="M296.299,489.319c-35.118,0-70.252,0-105.377,0
		c-87-34.343-147.617-95.069-182.017-182.018c0-38.319,0-76.639,0-114.957c36.59-89.391,97.15-153.531,191.597-182.017
		c31.935,0,63.86,0,95.798,0c97.249,30.479,161.08,94.385,191.597,191.596c0,35.129,0,70.25,0,105.377
		C451.317,396.701,390.713,460.803,296.299,489.319z M166.56,182.868c30.816,9.298,60.146-16.503,66.988,19.076
		c2.775,14.407-4.036,36.027,11.728,39.899c18.394,4.519,19.946-20.534,29.038-32.36c7.701-10,12.706-22.021,19.488-32.79
		c13.706-21.769,3.723-27.636-17.41-27.513c-44.568,0.263-89.142,0.496-133.702-0.112c-27.29-0.375-34.772,7.783-19.585,33.259
		c36.667,61.501,72.461,123.536,107.708,185.871c12.556,22.209,21.629,24.043,34.896,0.496
		c33.604-59.604,69.023-118.186,102.15-178.042c6.166-11.132,29.104-26.306,6.053-38.666c-19.384-10.384-30.554,8.281-39.609,24.287
		c-22.715,40.172-46.235,79.876-69.042,120.001c-10.049,17.653-19.385,25.699-32.441,2.33
		C213.51,264.024,193.512,229.841,166.56,182.868z"/>
	<path fill-rule="evenodd" clip-rule="evenodd" fill="#FAFAFD" d="M487.896,201.924c-30.517-97.211-94.348-161.117-191.597-191.596
		c57.48,0,114.978,0.842,172.419-0.524c16.681-0.402,20.095,3.021,19.702,19.692C487.055,86.947,487.896,144.446,487.896,201.924z"
		/>
	<path fill-rule="evenodd" clip-rule="evenodd" fill="#FAFAFD" d="M200.501,10.328C106.054,38.814,45.494,102.954,8.904,192.345
		c0-53.598,0.894-107.222-0.5-160.781C7.937,13.592,12.6,9.449,30.259,9.851C86.979,11.133,143.752,10.328,200.501,10.328z"/>
	<path fill-rule="evenodd" clip-rule="evenodd" fill="#FAFAFD" d="M296.299,489.319c94.414-28.517,155.019-92.618,191.597-182.018
		c0,54.29-0.878,108.596,0.524,162.849c0.43,16.681-3.021,20.093-19.702,19.691C411.276,488.478,353.779,489.319,296.299,489.319z"
		/>
	<path fill-rule="evenodd" clip-rule="evenodd" fill="#FAFAFD" d="M8.904,307.302c34.4,86.948,95.018,147.675,182.017,182.018
		c-54.284,0-108.596-0.879-162.843,0.522c-16.68,0.433-20.133-3.011-19.697-19.691C9.784,415.897,8.904,361.592,8.904,307.302z"/>
	<path fill-rule="evenodd" clip-rule="evenodd" fill="#F3F3F9" d="M166.56,182.868c26.952,46.974,46.95,81.157,66.258,115.735
		c13.057,23.369,22.393,15.323,32.441-2.33c22.807-40.125,46.327-79.829,69.042-120.001c9.056-16.006,20.226-34.67,39.609-24.287
		c23.051,12.36,0.113,27.534-6.053,38.666c-33.127,59.856-68.546,118.438-102.15,178.042c-13.267,23.547-22.34,21.713-34.896-0.496
		c-35.246-62.335-71.04-124.369-107.708-185.871c-15.188-25.476-7.705-33.634,19.585-33.259c44.56,0.608,89.133,0.375,133.702,0.112
		c21.133-0.123,31.116,5.745,17.41,27.513c-6.782,10.769-11.787,22.79-19.488,32.79c-9.092,11.826-10.645,36.879-29.038,32.36
		c-15.764-3.873-8.952-25.493-11.728-39.899C226.706,166.364,197.376,192.166,166.56,182.868z"/>
</g>
</svg>
