<?xml version="1.0" encoding="utf-8"?>
<!-- Generator: Adobe Illustrator 16.0.0, SVG Export Plug-In . SVG Version: 6.00 Build 0)  -->
<!DOCTYPE svg PUBLIC "-//W3C//DTD SVG 1.1//EN" "http://www.w3.org/Graphics/SVG/1.1/DTD/svg11.dtd">
<svg version="1.1" id="Layer_1" xmlns="http://www.w3.org/2000/svg" xmlns:xlink="http://www.w3.org/1999/xlink" x="0px" y="0px"
	 width="500px" height="500px" viewBox="0 0 500 500" enable-background="new 0 0 500 500" xml:space="preserve">
<g>
	<path fill-rule="evenodd" clip-rule="evenodd" fill="#908F8F" d="M234.835,499.313c0.02-1.977-1.49-1.643-2.659-1.705
		c-21.269-1.133-41.854-5.691-61.922-12.617c-27.583-9.52-52.646-23.617-75.281-42.041c-23.212-18.893-42.429-41.256-57.601-67.004
		C21.749,349.43,11.518,320.93,6.567,290.48c-2.771-17.037-3.803-34.125-3.174-51.324c1.354-36.985,10.58-71.949,27.752-104.726
		c30.007-57.277,75.74-96.705,136.206-119.19C200.083,3.069,234.077-1.17,268.707,1.415c54.147,4.042,102.208,23.693,143.462,59.182
		c42.971,36.966,70.499,83.369,81.721,138.873c10.262,50.76,5.015,100.231-15.243,148.091
		c-8.208,19.391-18.606,37.463-31.397,54.047c-16.744,21.709-36.502,40.322-59.542,55.424
		c-14.868,9.746-30.322,18.238-46.935,24.564c-20.088,7.65-40.693,13.201-62.174,15.223c-3.023,0.285-6.02,0.82-9.074,0.801
		c-1.12-0.006-2.323,0.037-2.244,1.693C256.465,499.313,245.649,499.313,234.835,499.313z M250.646,492.863
		c134.713,0.178,244.368-108.826,244.692-243.239C495.666,114.27,386.556,4.44,251.524,4.202
		C116.426,3.963,6.931,113.042,6.679,248.117C6.426,383.219,115.544,492.684,250.646,492.863z"/>
	<path fill-rule="evenodd" clip-rule="evenodd" fill="#FDFEFF" d="M250.646,492.863C115.544,492.684,6.426,383.219,6.679,248.117
		C6.931,113.042,116.426,3.963,251.524,4.202C386.556,4.44,495.666,114.27,495.339,249.625
		C495.015,384.037,385.359,493.041,250.646,492.863z M211.225,91.317c-10.085,4.09-18.975,9.945-27.167,17.156
		c-13.172,11.597-22.252,25.836-28.201,42.113c-4.668,12.768-5.916,26.122-5.045,39.651c1.398,21.694,9.49,40.675,23.223,57.436
		c1.889,2.305,5.111,3.981,4.908,7.698c-6.973,7.207-12.885,15.145-17.325,24.195c-16.29,33.203-15.124,66.018,3.554,97.637
		c13.404,22.691,33.307,37.92,59.096,44.635c34.49,8.98,65.567,2.014,92.831-20.953c12.685-10.686,21.748-24.084,27.569-39.641
		c1.303-1.529,1.637-3.48,2.264-5.291c4.857-14.041,5.296-28.578,3.817-43.09c-2.297-22.57-12.352-41.668-27.844-58.035
		c0.053-1.174,0.69-2.014,1.409-2.908c5.779-7.19,11.301-14.421,15.859-22.627c11.497-20.693,13.048-42.614,9.657-65.161
		c-2.45-16.294-10.105-30.581-20.231-43.518c-10.538-13.461-23.79-23.358-39.456-30.103c-15.998-6.889-32.771-8.804-49.919-7.114
		c-7.192,0.709-14.594,1.282-21.229,4.807c-2.002,0.367-3.909,0.999-5.686,2.003C212.282,89.954,211.634,90.409,211.225,91.317z"/>
	<path fill-rule="evenodd" clip-rule="evenodd" fill="#4C3695" d="M344.667,361.244c-5.821,15.557-14.885,28.955-27.569,39.641
		c-27.264,22.967-58.341,29.934-92.831,20.953c-25.789-6.715-45.691-21.943-59.096-44.635
		c-18.678-31.619-19.844-64.434-3.554-97.637c4.44-9.051,10.353-16.988,17.325-24.195c3.27-0.639,4.183,3.023,6.736,3.693
		c0.172,1.709,1.566,2.561,2.617,3.611c20.369,20.389,40.763,40.756,61.137,61.141c1.287,1.287,2.833,1.922,4.458,2.707
		c5.585,2.693,12.358,2.857,17.121,6.656c3.759,2.998,9.202,1.84,12.029,6.061c7.146-0.615,12.236,4.469,18.23,6.916
		c3.404,1.391,6.242,3.293,10.034,1.936c0.917-0.328,2.088-0.336,2.386,0.92c1.279,5.379,5.798,6.188,9.899,5.883
		c3.598-0.266,4.658,1.027,5.42,3.893c0.25,0.939,0.745,2.744,2.038,1.957c2.021-1.232,4.622,2.979,6.232-0.932
		c0.256-0.621,1.708,0.26,2.18,1.23c0.465,0.955-0.262,2.252,1.452,3.451C341.186,362.207,342.409,360.928,344.667,361.244z
		 M325.234,357.439c-0.23-0.172-0.539-0.402-0.849-0.633c-0.141,0.203-0.434,0.453-0.39,0.602c0.103,0.342,0.31,0.82,0.581,0.906
		C325.04,358.461,325.264,358.066,325.234,357.439z"/>
	<path fill-rule="evenodd" clip-rule="evenodd" fill="#59499E" d="M344.667,361.244c-2.258-0.316-3.481,0.963-3.754,3.25
		c-1.714-1.199-0.987-2.496-1.452-3.451c-0.472-0.971-1.924-1.852-2.18-1.23c-1.61,3.91-4.212-0.301-6.232,0.932
		c-1.293,0.787-1.788-1.018-2.038-1.957c-0.762-2.865-1.822-4.158-5.42-3.893c-4.102,0.305-8.62-0.504-9.899-5.883
		c-0.298-1.256-1.469-1.248-2.386-0.92c-3.792,1.357-6.63-0.545-10.034-1.936c-5.994-2.447-11.084-7.531-18.23-6.916
		c-2.827-4.221-8.271-3.063-12.029-6.061c-4.763-3.799-11.536-3.963-17.121-6.656c-1.625-0.785-3.171-1.42-4.458-2.707
		c-20.374-20.385-40.768-40.752-61.137-61.141c-1.051-1.051-2.445-1.902-2.617-3.613c5.43-5.242,10.248-11.036,15.994-16.036
		c6.825-5.938,12.707-12.959,19.023-19.485c1.492-1.541,3.064-3.227,4.549-4.502c3.489-2.996,5.463-7.487,9.902-9.553
		c1.764-0.821,3.366-2.593,4.36-4.324c1.576-2.744,3.862-4.458,6.245-6.385c3.652-2.954,7.836-5.708,9.049-10.803
		c1.379,0.442,2.308,1.478,3.29,2.458c7.844,7.827,15.686,15.655,23.548,23.463c13.748,13.651,27.51,27.288,41.265,40.932
		c15.492,16.367,25.547,35.465,27.844,58.035c1.479,14.512,1.04,29.049-3.817,43.09C346.304,357.764,345.97,359.715,344.667,361.244
		z"/>
	<path fill-rule="evenodd" clip-rule="evenodd" fill="#A98CC1" d="M322.904,254.828c-13.755-13.644-27.517-27.281-41.265-40.932
		c-7.862-7.808-15.704-15.636-23.548-23.463c-0.982-0.98-1.911-2.017-3.29-2.457c-1.381-2.368-4.218-3.749-4.896-6.514
		c-2.302-9.394-5.478-18.454-9.515-27.245c-2.279-4.96-3.859-10.218-5.978-15.266c-1.782-4.244-2.894-8.998-4.343-13.502
		c-1.953-6.074-4.459-11.97-6.439-18.035c-2.049-6.268-4.328-12.51-4.637-19.21c6.635-3.525,14.036-4.098,21.229-4.807
		c17.147-1.69,33.921,0.225,49.919,7.114c15.666,6.745,28.918,16.642,39.456,30.103c10.126,12.937,17.781,27.223,20.231,43.518
		c3.391,22.547,1.84,44.468-9.657,65.161c-4.559,8.206-10.08,15.438-15.859,22.627C323.595,252.814,322.957,253.654,322.904,254.828
		z"/>
	<path fill-rule="evenodd" clip-rule="evenodd" fill="#7760A9" d="M218.995,88.204c0.309,6.7,2.588,12.943,4.637,19.21
		c1.98,6.065,4.486,11.961,6.439,18.035c1.449,4.505,2.561,9.258,4.343,13.502c2.118,5.048,3.698,10.305,5.978,15.266
		c4.037,8.791,7.213,17.851,9.515,27.245c0.678,2.765,3.515,4.146,4.896,6.514c-1.213,5.093-5.396,7.848-9.049,10.802
		c-2.383,1.927-4.669,3.641-6.245,6.385c-0.994,1.73-2.597,3.502-4.36,4.324c-4.439,2.066-6.413,6.557-9.902,9.553
		c-1.484,1.275-3.057,2.961-4.549,4.502c-6.316,6.526-12.198,13.547-19.023,19.485c-5.746,5-10.564,10.793-15.994,16.036
		c-2.554-0.668-3.467-4.33-6.736-3.691c0.203-3.717-3.02-5.393-4.908-7.698c-13.732-16.761-21.824-35.742-23.223-57.436
		c-0.871-13.529,0.377-26.883,5.045-39.651c5.949-16.276,15.029-30.516,28.201-42.113c8.192-7.211,17.082-13.066,27.168-17.154
		c1.154,0.486,1.805,0.033,2.084-1.112C215.086,89.203,216.993,88.571,218.995,88.204z"/>
	<path fill-rule="evenodd" clip-rule="evenodd" fill="#A98CC1" d="M213.31,90.208c-0.279,1.145-0.93,1.598-2.084,1.112
		C211.634,90.409,212.282,89.954,213.31,90.208z"/>
	<path fill-rule="evenodd" clip-rule="evenodd" fill="#59499E" d="M325.234,357.439c0.029,0.627-0.194,1.021-0.657,0.875
		c-0.271-0.086-0.479-0.564-0.581-0.906c-0.044-0.148,0.249-0.398,0.39-0.602C324.695,357.037,325.004,357.268,325.234,357.439z"/>
</g>
</svg>
