<?xml version="1.0" encoding="utf-8"?>
<!-- Generator: Adobe Illustrator 16.0.0, SVG Export Plug-In . SVG Version: 6.00 Build 0)  -->
<!DOCTYPE svg PUBLIC "-//W3C//DTD SVG 1.1//EN" "http://www.w3.org/Graphics/SVG/1.1/DTD/svg11.dtd">
<svg version="1.1" id="Layer_1" xmlns="http://www.w3.org/2000/svg" xmlns:xlink="http://www.w3.org/1999/xlink" x="0px" y="0px"
	 width="500px" height="500px" viewBox="0 0 500 500" enable-background="new 0 0 500 500" xml:space="preserve">
<g>
	<path fill-rule="evenodd" clip-rule="evenodd" fill="#585BA8" d="M33.202,462.993c0-140.123,0.134-280.243-0.282-420.366
		c-0.03-10.074,2.026-12.134,12.101-12.104c136.182,0.422,272.364,0.422,408.549,0c10.071-0.03,12.132,2.03,12.097,12.104
		c-0.418,136.182-0.418,272.365,0,408.55c0.035,10.069-2.025,12.132-12.097,12.097C313.449,462.854,173.324,462.993,33.202,462.993z
		 M259.256,351.673c1.759,14.695,15.655,17.938,24.641,25.672c4.287,3.689,8.889,10.71,15.518,6.876
		c5.456-3.145,2.42-10.33,2.79-15.718c1.545-22.654-4.39-46.168,7.913-67.566c7.605-7.714,16.556-12.97,26.942-16.308
		c13.854-4.458,27.49-9.63,41.167-14.631c6.319-2.302,13.066-4.309,14.544-12.359c1.62-8.889-4.555-13.124-10.491-17.516
		c-36.537-27.028-73.035-54.115-109.654-81.032c-3.848-2.827-7.352-8.522-12.935-5.902c-5.771,2.705-3.093,9.006-3.106,13.657
		c-0.172,56.15-0.104,112.301-0.068,168.451C256.516,340.896,256.18,346.576,259.256,351.673z M238.83,138.936
		c-3.699-14.878-18.563-18.135-28.188-26.825c-2.991-2.699-6.371-7.574-11.307-4.679c-4.513,2.648-2.823,8.004-3.051,12.335
		c-1.159,22.133,3.058,44.609-4.274,66.348c-7.736,10.857-17.749,18.104-30.797,21.889c-12.9,3.741-25.445,8.78-38.01,13.592
		c-7.163,2.737-15.973,4.173-17.428,13.78c-1.443,9.513,6.042,13.594,12.368,18.292c35.828,26.599,71.6,53.28,107.411,79.905
		c3.761,2.795,6.138,9.171,12.051,6.836c6.949-2.748,4.359-9.652,4.373-14.859c0.186-55.642,0.144-111.284,0.15-166.926
		C242.127,151.885,242.447,145.077,238.83,138.936z"/>
	<path fill-rule="evenodd" clip-rule="evenodd" fill="#F7F7F9" d="M238.83,138.936c3.617,6.141,3.297,12.949,3.297,19.688
		c-0.007,55.642,0.035,111.284-0.15,166.926c-0.014,5.207,2.576,12.111-4.373,14.859c-5.913,2.335-8.29-4.041-12.051-6.836
		c-35.811-26.625-71.583-53.307-107.411-79.905c-6.326-4.698-13.811-8.779-12.368-18.292c1.455-9.606,10.266-11.042,17.428-13.78
		c12.565-4.812,25.11-9.851,38.01-13.592c13.048-3.785,23.061-11.032,30.793-21.889c6.353,1.172,15.26,5.702,18.275-1.433
		C217.445,167.75,239.051,160.104,238.83,138.936z"/>
	<path fill-rule="evenodd" clip-rule="evenodd" fill="#F7F7F9" d="M259.256,351.673c-3.076-5.097-2.74-10.777-2.74-16.375
		c-0.035-56.15-0.104-112.301,0.068-168.451c0.014-4.651-2.664-10.953,3.106-13.657c5.583-2.62,9.087,3.075,12.935,5.902
		c36.619,26.917,73.117,54.004,109.654,81.032c5.937,4.392,12.111,8.626,10.491,17.516c-1.478,8.051-8.225,10.058-14.544,12.359
		c-13.677,5.001-27.313,10.173-41.167,14.631c-10.387,3.338-19.337,8.594-26.942,16.308c-11.953-1.099-20.835,3.386-28.604,12.833
		C271.992,325.337,263.569,337.208,259.256,351.673z"/>
	<path fill-rule="evenodd" clip-rule="evenodd" fill="#EBE6F1" d="M259.256,351.673c4.313-14.465,12.736-26.336,22.258-37.903
		c7.769-9.447,16.65-13.932,28.604-12.833c-12.303,21.398-6.368,44.912-7.913,67.566c-0.37,5.388,2.666,12.573-2.79,15.718
		c-6.629,3.834-11.23-3.187-15.518-6.876C274.911,369.61,261.015,366.368,259.256,351.673z"/>
	<path fill-rule="evenodd" clip-rule="evenodd" fill="#EBE6F1" d="M238.83,138.936c0.221,21.168-21.385,28.813-28.549,45.747
		c-3.016,7.135-11.923,2.604-18.275,1.433c7.336-21.738,3.119-44.214,4.278-66.348c0.228-4.331-1.462-9.687,3.051-12.335
		c4.936-2.895,8.315,1.98,11.307,4.679C220.267,120.801,235.131,124.058,238.83,138.936z"/>
</g>
</svg>
