<?xml version="1.0" encoding="utf-8"?>
<!-- Generator: Adobe Illustrator 16.0.0, SVG Export Plug-In . SVG Version: 6.00 Build 0)  -->
<!DOCTYPE svg PUBLIC "-//W3C//DTD SVG 1.1//EN" "http://www.w3.org/Graphics/SVG/1.1/DTD/svg11.dtd">
<svg version="1.1" id="Layer_1" xmlns="http://www.w3.org/2000/svg" xmlns:xlink="http://www.w3.org/1999/xlink" x="0px" y="0px"
	 width="500px" height="500px" viewBox="0 0 500 500" enable-background="new 0 0 500 500" xml:space="preserve">
<g>
	<path fill-rule="evenodd" clip-rule="evenodd" fill="#FFFFFF" d="M-0.11,494.152c0-160.07,0.056-320.141-0.192-480.211
		C-0.313,7.09,1.042,5.734,7.894,5.746c161.403,0.247,322.809,0.247,484.212,0c6.851-0.012,8.208,1.342,8.196,8.195
		c-0.249,157.403-0.249,314.805,0,472.208c0.012,6.851-1.343,8.207-8.196,8.195C328.034,494.098,163.962,494.152-0.11,494.152z
		 M386.589,319.888c-5.469-10.551-10.8-21.175-16.426-31.639c-20.58-38.245-41.259-76.436-61.898-114.646
		c-8.619-16.45-16.383-33.423-26.059-49.225c-14.628-23.89-49.354-24.167-64.367-0.516c-11.345,17.874-21.002,36.817-29.744,56.158
		c-7.721,13.941-15.631,27.779-23.126,41.84c-17.358,32.563-34.516,65.231-51.756,97.857c-2.507,4.296-5.132,8.525-7.501,12.895
		c-10.211,18.833-7.777,36.78,6.673,49.83c14.706,13.286,33.286,13.708,51.213,0.987c19.319-13.705,38.493-27.616,57.833-41.29
		c21.175-14.973,36.337-14.765,57.478,0.407c19.484,13.982,38.919,28.039,58.541,41.831c16.84,11.835,34.852,11.034,49.553-1.774
		c14.239-12.404,17.273-30.092,8.05-48.09C392.489,329.508,389.426,324.756,386.589,319.888z"/>
	<path fill-rule="evenodd" clip-rule="evenodd" fill="#F15A49" d="M308.265,173.603c20.64,38.21,41.318,76.401,61.898,114.646
		c5.626,10.464,10.957,21.088,16.426,31.639c-14.557,3.723-29.453,1.146-44.134,1.701c-38.04,1.434-76.182,1.025-114.259,0.219
		c-15.756-0.332-31.895-1.376-47.261-0.524c-16.46,0.912-32.853-3.013-49.248,0.485c-5.934,1.266-12.643,1.497-18.475-2.051
		c17.241-32.626,34.398-65.294,51.756-97.857c7.496-14.061,15.406-27.899,23.126-41.838c2.983-0.073,4.663,2.105,6.726,3.748
		c26.253,20.878,54.249,26.436,85.634,11.394C291.567,189.838,299.533,181.467,308.265,173.603z M241.184,250.09
		c28.192-0.313,48.9-11.505,66.183-29.89c4.06-4.323,0.433-5.275-3.1-6.169c-11.577-2.938-23.397-0.333-35.124-1.782
		c-18.514-2.288-36.977,2.538-55.572,1.851c-8.124-0.301-16.108-2.569-24.472-0.264c-5.402,1.489-6.212,3.288-2.923,7.229
		C201.12,238.98,220.276,248.655,241.184,250.09z M227.45,272.303c0.001,0.582,0.003,1.165,0.003,1.747
		c-6.31,0-12.624-0.109-18.929,0.043c-3.468,0.085-8.118-1.362-9.498,3.174c-1.324,4.345,3.565,5.129,6.046,6.711
		c30.866,19.677,57.674,13.997,85.011-1.376c2.611-1.467,4.768-4.013,3.166-7.477c-1.313-2.838-3.962-2.893-6.796-2.877
		C266.787,272.353,247.118,272.303,227.45,272.303z"/>
	<path fill-rule="evenodd" clip-rule="evenodd" fill="#F04C4B" d="M113.212,319.718c5.832,3.548,12.541,3.316,18.475,2.051
		c16.395-3.498,32.788,0.427,49.248-0.485c15.366-0.852,31.505,0.192,47.261,0.524c38.077,0.807,76.219,1.215,114.259-0.219
		c14.681-0.556,29.577,2.021,44.134-1.701c2.837,4.868,5.9,9.62,8.463,14.626c9.224,17.998,6.189,35.686-8.05,48.09
		c-14.701,12.809-32.713,13.609-49.553,1.774c-19.622-13.792-39.057-27.849-58.541-41.831c-21.141-15.172-36.303-15.38-57.478-0.407
		c-19.34,13.674-38.514,27.585-57.833,41.29c-17.928,12.721-36.508,12.299-51.213-0.987c-14.45-13.05-16.884-30.997-6.673-49.83
		C108.081,328.243,110.706,324.014,113.212,319.718z"/>
	<path fill-rule="evenodd" clip-rule="evenodd" fill="#F04C4B" d="M308.265,173.603c-8.731,7.864-16.697,16.235-27.81,21.561
		c-31.385,15.042-59.381,9.484-85.634-11.394c-2.063-1.643-3.743-3.821-6.726-3.748c8.742-19.342,18.399-38.286,29.744-56.16
		c15.013-23.65,49.739-23.374,64.367,0.516C291.882,140.18,299.646,157.153,308.265,173.603z"/>
	<path fill-rule="evenodd" clip-rule="evenodd" fill="#F04C4B" d="M241.184,250.09c-20.907-1.435-40.064-11.11-55.009-29.024
		c-3.289-3.941-2.479-5.74,2.923-7.229c8.364-2.306,16.348-0.038,24.472,0.264c18.596,0.687,37.059-4.139,55.572-1.851
		c11.727,1.449,23.547-1.156,35.124,1.782c3.532,0.895,7.159,1.847,3.1,6.169C290.084,238.584,269.376,249.777,241.184,250.09z"/>
	<path fill-rule="evenodd" clip-rule="evenodd" fill="#F04C4B" d="M227.45,272.303c19.668,0,39.337,0.05,59.004-0.055
		c2.834-0.016,5.482,0.039,6.796,2.877c1.602,3.464-0.555,6.01-3.166,7.477c-27.337,15.373-54.146,21.053-85.011,1.376
		c-2.481-1.582-7.371-2.366-6.046-6.711c1.38-4.536,6.029-3.089,9.498-3.174c6.305-0.152,12.62-0.043,18.929-0.043
		C227.453,273.468,227.451,272.885,227.45,272.303z"/>
</g>
</svg>
