<?xml version="1.0" encoding="utf-8"?>
<!-- Generator: Adobe Illustrator 16.0.0, SVG Export Plug-In . SVG Version: 6.00 Build 0)  -->
<!DOCTYPE svg PUBLIC "-//W3C//DTD SVG 1.1//EN" "http://www.w3.org/Graphics/SVG/1.1/DTD/svg11.dtd">
<svg version="1.1" id="Layer_1" xmlns="http://www.w3.org/2000/svg" xmlns:xlink="http://www.w3.org/1999/xlink" x="0px" y="0px"
	 width="500px" height="500px" viewBox="0 0 500 500" enable-background="new 0 0 500 500" xml:space="preserve">
<g>
	<path fill-rule="evenodd" clip-rule="evenodd" fill="#FFFFFF" d="M251.551,498.174c-78.081,0-156.163-0.079-234.243,0.163
		c-5.776,0.017-6.943-1.165-6.936-6.938c0.199-156.809,0.199-313.616,0-470.425c-0.007-5.774,1.161-6.942,6.935-6.935
		c156.809,0.199,313.616,0.199,470.425,0c5.773-0.007,6.942,1.161,6.935,6.935c-0.198,156.809-0.198,313.616,0,470.425
		c0.008,5.773-1.159,6.955-6.935,6.938C409.006,498.095,330.276,498.174,251.551,498.174z M276.82,107.259
		c0.247-0.989-0.095-1.367-1.097-1.068c-0.616-0.384-1.232-0.768-1.848-1.151c-0.451-2.316-1.639-3.513-4.134-2.725
		c-1.763-1.089-3.524-2.18-5.288-3.269c-0.854-3.216-2.723-5.091-6.272-4.74c-0.67-1.654-1.995-2.463-3.656-2.837
		c-2.237-5.246-6.274-8.046-11.866-8.736c-3.145-2.278-6.288-4.554-9.432-6.833c-0.393-2.215-1.525-3.529-3.962-3.255l-0.417-0.361
		c-0.034-1-0.463-1.501-1.521-1.208c-1.451-0.883-2.901-1.764-4.353-2.647c0.012-1.004-0.452-1.414-1.449-1.157
		c-0.59-0.354-1.179-0.707-1.769-1.059c-4.998-8.696-12.493-15.442-22.43-12.85c-11.065,2.885-20.855,10.577-25.92,20.87
		c-5.755,11.695-8.751,24.743-12.975,37.194c-4.845,14.289-7.888,29.579-15.066,42.584c-8.292,15.02-19.791,28.386-30.726,41.796
		c-11.295,13.852-20.561,27.853-16.888,47.026c2.048,10.697,3.458,21.537,4.649,32.37c1.51,13.727,2.149,27.288-1.417,41.111
		c-3.189,12.368-10.375,23.609-10.346,36.831c-0.035,1.836-0.07,3.672-0.105,5.506c-1.481,4.936,1.756,8.723,3.585,12.587
		c6.363,13.451,9.713,28.284,18.574,40.578c-0.155,0.448-0.09,0.862,0.195,1.242c3.234,15.17,11.169,28.545,16.435,42.941
		c1.201,3.282,4.091,3.734,7.221,3.044c56.072,0.133,112.144,0.303,168.218,0.365c11.585,0.013,23.171-0.377,34.756-0.581
		c15.223-4.295,28.062-12.646,39.55-23.274c0.428-0.395,0.552-1.147,0.751-1.754c3.285-10.054,6.696-20.068,9.81-30.175
		c8.314-26.983,17.24-53.76,27.365-80.119c2.104-5.479,1.961-10.401-0.471-15.772c-6.333-14.007-11.959-28.373-18.219-42.355
		c-5.276-11.786-8.423-24.945-17.471-34.938c-0.295-1.067-0.59-2.136-0.885-3.204c-4.877-16.93-11.736-33.013-20.697-48.181
		c-0.847-1.433-2.479-1.948-4.226-1.548c-0.448-0.482-0.988-0.804-1.624-0.97c-4.016-5.171-10.137-5.302-15.774-6.6
		c-1.196-0.377-2.394-0.753-3.592-1.129c-2.821-4.351-7.15-5.125-11.857-5.001c-1.165-0.297-2.329-0.594-3.494-0.892
		c-2.19-3.791-6.006-5.601-9.507-7.793c-0.426-1.106-0.85-2.214-1.276-3.32c-2.787-12.076-10.376-22.009-15.095-33.245
		c-1.33-3.168-4.219-7.314-9.236-7.18l-0.42-0.363c-0.012-2.473-1.066-3.732-3.688-3.172L276.82,107.259z"/>
	<path fill-rule="evenodd" clip-rule="evenodd" fill="#60CBED" d="M254.525,91.47c1.661,0.374,2.986,1.184,3.656,2.834
		c0.72,3.386,2.622,5.222,6.272,4.743c1.764,1.089,3.525,2.18,5.288,3.263c0.518,2.206,1.986,2.981,4.134,2.73
		c0.615,0.384,1.231,0.768,1.846,1.146c0.251,0.469,0.618,0.828,1.099,1.074c0,0,0.641,0.586,0.641,0.583
		c0.384,2.038,1.543,3.178,3.688,3.176c0,0,0.42,0.363,0.416,0.361c5.188,7.581,9.676,15.514,13.854,23.739
		c2.917,5.749,4.311,12.854,10.481,16.688c0.427,1.106,0.851,2.214,1.274,3.32c0.079,6.369,3.697,8.418,9.509,7.793
		c1.165,0.298,2.329,0.595,3.494,0.89c2.424,5.284,7.808,3.563,11.857,5.003c1.198,0.376,2.396,0.752,3.592,1.125
		c4.314,4.454,9.154,7.654,15.774,6.604c0.636,0.166,1.176,0.487,1.624,0.966c5.199,9.859,10.088,19.818,14.406,30.158
		c2.773,6.639,3.604,14.948,10.517,19.574c0.295,1.068,0.59,2.137,0.885,3.206c1.305,9.512,5.422,18.163,8.375,27.163
		c4.927,15.011,12.712,28.827,18.683,43.428c3.864,9.447,5.286,18.824,2.479,27.541c-9.205,28.576-19.681,56.744-29.869,84.997
		c-4.234,11.745-3.643,26.495-19.483,31.298c-4.5,1.364-8.193,4.895-13.349,5.072c-5.423,0.187-7.882,3.675-8.15,8.887
		c-11.585,0.204-23.171,0.594-34.756,0.581c-56.074-0.063-112.146-0.232-168.218-0.363c-5.687-9.154-9.567-19.174-14.142-28.87
		c-2.755-5.844-3.305-13.14-9.515-17.117c-0.285-0.38-0.35-0.794-0.192-1.246c0.545-6.8-3.205-12.403-5.693-18.146
		c-5.125-11.822-7.697-24.904-16.469-35.015c0.035-1.834,0.07-3.67,0.103-5.506c3.968-0.643,4.641-3.533,5.392-6.938
		c1.588-7.186,3.378-14.373,5.77-21.324c1.543-4.483,0.736-10.179,4.847-13.325c4.896-3.745,8.898,1.288,13.294,2.515
		c0.903,0.251,2.018,0.378,2.868,0.083c10.006-3.467,19.525,0.565,29.257,1.675c10.949,1.248,22.585,2.01,30.684-6.77
		c8.387-9.092,15.146-19.691,23.871-28.607c15.04-15.37,26.109-34.126,41.994-48.825c8.863-8.201,14.311-17.78,8.705-30.589
		c-1.329-3.036-0.976-6.993-0.766-10.488c1.067-17.729-1.819-35.289-2.108-52.956c-0.073-4.567-1.792-8.666-4.226-12.602
		c-12.054-19.497-23.955-39.089-35.894-58.62c2.695-2.701,5.046,0.868,7.433-0.161c0.59,0.352,1.179,0.705,1.768,1.053
		c0.483,0.386,0.967,0.773,1.45,1.163c1.451,0.883,2.901,1.764,4.352,2.641c0.507,0.401,1.015,0.807,1.522,1.214
		c0,0,0.417,0.361,0.416,0.357c0.15,2.507,1.481,3.583,3.963,3.259c3.144,2.278,6.287,4.555,9.433,6.829
		C244.578,88.405,248.941,90.765,254.525,91.47z"/>
	<path fill-rule="evenodd" clip-rule="evenodd" fill="#7FD2ED" d="M219.757,66.214c-2.387,1.029-4.737-2.541-7.433,0.161
		c11.938,19.531,23.84,39.123,35.894,58.62c2.434,3.936,4.152,8.035,4.226,12.602c0.289,17.667,3.176,35.227,2.108,52.956
		c-0.21,3.495-0.563,7.452,0.766,10.488c5.605,12.809,0.158,22.388-8.705,30.589c-15.885,14.699-26.954,33.455-41.994,48.825
		c-8.725,8.916-15.484,19.516-23.871,28.607c-8.099,8.779-19.734,8.018-30.684,6.77c-9.731-1.109-19.25-5.142-29.257-1.675
		c-0.851,0.295-1.965,0.168-2.868-0.083c-4.396-1.227-8.397-6.26-13.294-2.515c-4.111,3.146-3.304,8.842-4.847,13.325
		c-2.391,6.951-4.182,14.139-5.77,21.324c-0.751,3.405-1.424,6.296-5.392,6.938c-0.027-13.222,7.159-24.463,10.348-36.831
		c3.566-13.823,2.927-27.385,1.417-41.111c-1.191-10.833-2.601-21.673-4.649-32.37c-3.672-19.174,5.593-33.175,16.888-47.026
		c10.935-13.41,22.434-26.776,30.726-41.796c7.179-13.006,10.222-28.296,15.066-42.584c4.224-12.451,7.22-25.5,12.975-37.194
		c5.064-10.292,14.854-17.985,25.92-20.87C207.264,50.772,214.759,57.518,219.757,66.214z"/>
	<path fill-rule="evenodd" clip-rule="evenodd" fill="#7FD2ED" d="M337.518,458.83c0.269-5.212,2.728-8.7,8.15-8.887
		c5.155-0.178,8.849-3.708,13.349-5.072c15.841-4.803,15.249-19.553,19.483-31.298c10.188-28.253,20.664-56.421,29.869-84.997
		c2.808-8.717,1.386-18.094-2.479-27.541c-5.971-14.601-13.756-28.417-18.683-43.428c-2.953-9-7.07-17.651-8.375-27.163
		c9.048,9.99,12.194,23.149,17.471,34.936c6.26,13.982,11.886,28.349,18.219,42.355c2.432,5.371,2.575,10.294,0.471,15.772
		c-10.125,26.359-19.051,53.136-27.365,80.119c-3.113,10.106-6.524,20.121-9.81,30.175c-0.199,0.606-0.323,1.359-0.751,1.754
		C365.579,446.185,352.74,454.535,337.518,458.83z"/>
	<path fill-rule="evenodd" clip-rule="evenodd" fill="#7FD2ED" d="M377.948,227.238c-6.913-4.626-7.743-12.936-10.517-19.574
		c-4.318-10.34-9.207-20.299-14.406-30.158c1.747-0.396,3.379,0.119,4.226,1.552C366.212,194.226,373.071,210.309,377.948,227.238z"
		/>
	<path fill-rule="evenodd" clip-rule="evenodd" fill="#7FD2ED" d="M88.533,358.653c8.772,10.11,11.343,23.192,16.469,35.015
		c2.489,5.743,6.239,11.347,5.693,18.146c-8.864-12.29-12.214-27.123-18.577-40.574C90.29,367.376,87.052,363.589,88.533,358.653z"
		/>
	<path fill-rule="evenodd" clip-rule="evenodd" fill="#7FD2ED" d="M110.887,413.061c6.21,3.978,6.759,11.273,9.515,17.117
		c4.574,9.696,8.455,19.716,14.142,28.87c-3.13,0.688-6.021,0.236-7.221-3.046C122.056,441.605,114.122,428.23,110.887,413.061z"/>
	<path fill-rule="evenodd" clip-rule="evenodd" fill="#7FD2ED" d="M305.9,151.806c-6.171-3.834-7.564-10.938-10.481-16.688
		c-4.178-8.226-8.666-16.158-13.854-23.739c5.021-0.132,7.91,4.014,9.24,7.182C295.524,129.796,303.113,139.729,305.9,151.806z"/>
	<path fill-rule="evenodd" clip-rule="evenodd" fill="#7FD2ED" d="M351.401,176.54c-6.62,1.051-11.46-2.149-15.774-6.604
		C341.265,171.238,347.386,171.369,351.401,176.54z"/>
	<path fill-rule="evenodd" clip-rule="evenodd" fill="#7FD2ED" d="M254.525,91.47c-5.584-0.705-9.947-3.064-11.865-8.74
		C248.251,83.423,252.288,86.224,254.525,91.47z"/>
	<path fill-rule="evenodd" clip-rule="evenodd" fill="#7FD2ED" d="M316.684,162.919c-5.812,0.625-9.43-1.424-9.509-7.793
		C310.678,157.318,314.493,159.128,316.684,162.919z"/>
	<path fill-rule="evenodd" clip-rule="evenodd" fill="#7FD2ED" d="M332.035,168.812c-4.05-1.44-9.434,0.281-11.857-5.003
		C324.885,163.687,329.214,164.461,332.035,168.812z"/>
	<path fill-rule="evenodd" clip-rule="evenodd" fill="#7FD2ED" d="M264.454,99.047c-3.65,0.479-5.553-1.357-6.272-4.743
		C261.731,93.956,263.6,95.831,264.454,99.047z"/>
	<path fill-rule="evenodd" clip-rule="evenodd" fill="#7FD2ED" d="M233.228,75.901c-2.481,0.324-3.813-0.752-3.963-3.259
		C231.702,72.372,232.835,73.686,233.228,75.901z"/>
	<path fill-rule="evenodd" clip-rule="evenodd" fill="#7FD2ED" d="M273.876,105.04c-2.147,0.251-3.616-0.524-4.134-2.73
		C272.237,101.527,273.425,102.724,273.876,105.04z"/>
	<path fill-rule="evenodd" clip-rule="evenodd" fill="#7FD2ED" d="M281.149,111.018c-2.146,0.002-3.305-1.138-3.688-3.176
		C280.083,107.286,281.138,108.545,281.149,111.018z"/>
	<path fill-rule="evenodd" clip-rule="evenodd" fill="#7FD2ED" d="M222.975,68.43c-0.483-0.39-0.967-0.777-1.45-1.163
		C222.522,67.016,222.986,67.426,222.975,68.43z"/>
	<path fill-rule="evenodd" clip-rule="evenodd" fill="#7FD2ED" d="M228.849,72.285c-0.508-0.407-1.016-0.813-1.522-1.214
		C228.386,70.783,228.814,71.284,228.849,72.285z"/>
	<path fill-rule="evenodd" clip-rule="evenodd" fill="#7FD2ED" d="M276.82,107.259c-0.48-0.246-0.848-0.605-1.099-1.074
		C276.726,105.893,277.067,106.271,276.82,107.259z"/>
</g>
</svg>
