<?xml version="1.0" encoding="utf-8"?>
<!-- Generator: Adobe Illustrator 16.0.0, SVG Export Plug-In . SVG Version: 6.00 Build 0)  -->
<!DOCTYPE svg PUBLIC "-//W3C//DTD SVG 1.1//EN" "http://www.w3.org/Graphics/SVG/1.1/DTD/svg11.dtd">
<svg version="1.1" id="Layer_1" xmlns="http://www.w3.org/2000/svg" xmlns:xlink="http://www.w3.org/1999/xlink" x="0px" y="0px"
	 width="500px" height="500px" viewBox="0 0 500 500" enable-background="new 0 0 500 500" xml:space="preserve">
<g>
	<path fill="#FFFFFF" d="M251.551,498.174c-78.081,0-156.163-0.079-234.243,0.163c-5.776,0.017-6.943-1.165-6.936-6.938
		c0.199-156.81,0.199-313.616,0-470.425c-0.007-5.774,1.161-6.942,6.935-6.935c156.809,0.199,313.616,0.199,470.425,0
		c5.772-0.007,6.941,1.161,6.935,6.935c-0.198,156.809-0.198,313.616,0,470.425c0.008,5.772-1.159,6.954-6.935,6.938
		C409.006,498.095,330.276,498.174,251.551,498.174z M276.82,107.259c0.246-0.989-0.096-1.367-1.098-1.068
		c-0.615-0.384-1.231-0.768-1.848-1.151c-0.451-2.316-1.639-3.513-4.134-2.725c-1.763-1.089-3.524-2.18-5.288-3.269
		c-0.854-3.216-2.723-5.091-6.271-4.74c-0.67-1.654-1.996-2.463-3.656-2.837c-2.237-5.246-6.274-8.046-11.866-8.736
		c-3.145-2.278-6.288-4.554-9.432-6.833c-0.393-2.215-1.525-3.529-3.962-3.255l-0.417-0.361c-0.034-1-0.463-1.501-1.521-1.208
		c-1.451-0.883-2.901-1.764-4.353-2.647c0.012-1.004-0.452-1.414-1.449-1.157c-0.59-0.354-1.179-0.707-1.769-1.059
		c-4.998-8.696-12.493-15.442-22.43-12.85c-11.065,2.885-20.855,10.577-25.92,20.87c-5.755,11.695-8.751,24.743-12.975,37.194
		c-4.845,14.289-7.888,29.579-15.066,42.584c-8.292,15.02-19.791,28.386-30.726,41.796c-11.295,13.852-20.561,27.853-16.888,47.026
		c2.048,10.697,3.458,21.537,4.649,32.37c1.51,13.727,2.149,27.288-1.417,41.111c-3.189,12.367-10.375,23.608-10.346,36.83
		c-0.035,1.836-0.07,3.672-0.105,5.506c-1.481,4.937,1.756,8.724,3.585,12.588c6.363,13.451,9.713,28.284,18.574,40.578
		c-0.155,0.447-0.09,0.861,0.195,1.241c3.234,15.171,11.169,28.546,16.435,42.941c1.201,3.282,4.091,3.734,7.221,3.044
		c56.072,0.133,112.144,0.303,168.218,0.365c11.585,0.013,23.171-0.377,34.756-0.581c15.224-4.295,28.063-12.646,39.551-23.274
		c0.428-0.395,0.552-1.146,0.751-1.754c3.284-10.054,6.695-20.067,9.81-30.175c8.314-26.983,17.24-53.76,27.365-80.119
		c2.104-5.479,1.961-10.401-0.471-15.772c-6.334-14.006-11.959-28.373-18.22-42.354c-5.275-11.786-8.423-24.945-17.471-34.938
		c-0.295-1.067-0.59-2.136-0.885-3.204c-4.877-16.93-11.736-33.013-20.697-48.181c-0.847-1.433-2.479-1.948-4.226-1.548
		c-0.448-0.482-0.988-0.804-1.624-0.97c-4.017-5.171-10.138-5.302-15.774-6.6c-1.196-0.377-2.394-0.753-3.592-1.129
		c-2.821-4.351-7.15-5.125-11.857-5.001c-1.165-0.297-2.329-0.594-3.494-0.892c-2.189-3.791-6.006-5.601-9.507-7.793
		c-0.426-1.106-0.85-2.214-1.276-3.32c-2.787-12.076-10.375-22.009-15.094-33.245c-1.33-3.168-4.22-7.314-9.236-7.18l-0.42-0.363
		c-0.012-2.473-1.066-3.732-3.688-3.172L276.82,107.259z"/>
	<path fill="#60CBED" d="M254.525,91.47c1.66,0.374,2.985,1.184,3.656,2.834c0.719,3.386,2.621,5.222,6.271,4.743
		c1.764,1.089,3.525,2.18,5.288,3.263c0.518,2.206,1.985,2.981,4.134,2.73c0.615,0.384,1.23,0.768,1.846,1.146
		c0.252,0.469,0.618,0.828,1.1,1.074c0,0,0.641,0.586,0.641,0.583c0.385,2.038,1.543,3.178,3.688,3.176c0,0,0.42,0.363,0.416,0.361
		c5.188,7.581,9.677,15.514,13.854,23.739c2.917,5.749,4.312,12.854,10.481,16.688c0.427,1.106,0.851,2.214,1.273,3.32
		c0.079,6.369,3.697,8.418,9.509,7.793c1.165,0.298,2.329,0.595,3.494,0.89c2.424,5.284,7.809,3.563,11.857,5.003
		c1.198,0.376,2.396,0.752,3.592,1.125c4.313,4.454,9.154,7.654,15.774,6.604c0.636,0.166,1.176,0.487,1.623,0.966
		c5.199,9.859,10.089,19.818,14.406,30.158c2.773,6.639,3.604,14.948,10.518,19.574c0.295,1.068,0.59,2.137,0.885,3.206
		c1.305,9.512,5.422,18.163,8.375,27.163c4.927,15.011,12.712,28.826,18.683,43.428c3.864,9.447,5.286,18.824,2.479,27.541
		c-9.205,28.576-19.682,56.744-29.869,84.997c-4.234,11.745-3.643,26.495-19.483,31.298c-4.5,1.364-8.192,4.895-13.349,5.072
		c-5.423,0.187-7.882,3.675-8.15,8.887c-11.585,0.204-23.171,0.594-34.756,0.581c-56.074-0.063-112.146-0.232-168.218-0.363
		c-5.687-9.153-9.567-19.174-14.142-28.87c-2.755-5.844-3.305-13.14-9.515-17.116c-0.285-0.381-0.35-0.794-0.192-1.246
		c0.545-6.801-3.205-12.403-5.693-18.146c-5.125-11.821-7.697-24.903-16.469-35.015c0.035-1.834,0.07-3.67,0.103-5.506
		c3.968-0.644,4.641-3.533,5.392-6.938c1.588-7.187,3.378-14.373,5.77-21.323c1.543-4.483,0.736-10.18,4.847-13.326
		c4.896-3.744,8.898,1.289,13.294,2.516c0.903,0.251,2.018,0.378,2.868,0.083c10.006-3.468,19.525,0.565,29.257,1.675
		c10.949,1.248,22.585,2.01,30.684-6.77c8.387-9.092,15.146-19.691,23.871-28.607c15.04-15.37,26.109-34.126,41.994-48.825
		c8.864-8.201,14.311-17.78,8.706-30.589c-1.33-3.036-0.977-6.993-0.767-10.488c1.067-17.729-1.819-35.289-2.108-52.956
		c-0.072-4.567-1.791-8.666-4.226-12.602c-12.054-19.497-23.955-39.089-35.894-58.62c2.695-2.701,5.046,0.868,7.433-0.161
		c0.59,0.352,1.179,0.705,1.768,1.053c0.483,0.386,0.967,0.773,1.45,1.163c1.451,0.883,2.901,1.764,4.352,2.641
		c0.507,0.401,1.015,0.807,1.522,1.214c0,0,0.417,0.361,0.416,0.357c0.15,2.507,1.481,3.583,3.963,3.259
		c3.144,2.278,6.287,4.555,9.433,6.829C244.578,88.405,248.941,90.765,254.525,91.47z"/>
	<path fill="#7FD2ED" d="M219.757,66.214c-2.387,1.029-4.737-2.541-7.433,0.161c11.938,19.531,23.84,39.123,35.894,58.62
		c2.435,3.936,4.152,8.035,4.226,12.602c0.289,17.667,3.177,35.227,2.108,52.956c-0.21,3.495-0.563,7.452,0.767,10.488
		c5.604,12.809,0.158,22.388-8.706,30.589c-15.885,14.699-26.954,33.455-41.994,48.825c-8.725,8.916-15.484,19.516-23.871,28.607
		c-8.099,8.778-19.734,8.018-30.684,6.77c-9.731-1.109-19.25-5.143-29.257-1.675c-0.851,0.295-1.965,0.168-2.868-0.083
		c-4.396-1.227-8.397-6.26-13.294-2.516c-4.111,3.146-3.304,8.842-4.847,13.325c-2.391,6.951-4.182,14.14-5.77,21.324
		c-0.751,3.405-1.424,6.296-5.392,6.938c-0.027-13.223,7.159-24.463,10.348-36.832c3.566-13.822,2.927-27.385,1.417-41.11
		c-1.191-10.833-2.601-21.673-4.649-32.37c-3.672-19.174,5.593-33.175,16.888-47.026c10.935-13.41,22.434-26.776,30.726-41.796
		c7.179-13.006,10.222-28.296,15.066-42.584c4.224-12.451,7.22-25.5,12.975-37.194c5.064-10.292,14.854-17.985,25.92-20.87
		C207.264,50.772,214.759,57.518,219.757,66.214z"/>
	<path fill="#7FD2ED" d="M337.518,458.83c0.27-5.212,2.729-8.7,8.15-8.887c5.155-0.179,8.849-3.708,13.349-5.072
		c15.842-4.803,15.249-19.553,19.483-31.298c10.188-28.253,20.664-56.421,29.869-84.997c2.808-8.717,1.386-18.094-2.479-27.541
		c-5.971-14.602-13.756-28.417-18.683-43.428c-2.953-9-7.07-17.651-8.375-27.164c9.048,9.99,12.194,23.149,17.471,34.936
		c6.26,13.981,11.887,28.349,18.219,42.354c2.433,5.371,2.575,10.295,0.472,15.772c-10.125,26.359-19.051,53.136-27.365,80.119
		c-3.113,10.106-6.524,20.121-9.81,30.175c-0.199,0.606-0.323,1.359-0.751,1.754C365.579,446.185,352.74,454.535,337.518,458.83z"/>
	<path fill="#7FD2ED" d="M377.948,227.238c-6.913-4.626-7.743-12.936-10.518-19.574c-4.317-10.34-9.207-20.299-14.405-30.158
		c1.747-0.396,3.379,0.119,4.226,1.552C366.212,194.226,373.071,210.309,377.948,227.238z"/>
	<path fill="#7FD2ED" d="M88.533,358.652c8.772,10.111,11.343,23.193,16.469,35.016c2.489,5.743,6.239,11.347,5.693,18.146
		c-8.864-12.29-12.214-27.123-18.577-40.574C90.29,367.376,87.052,363.589,88.533,358.652z"/>
	<path fill="#7FD2ED" d="M110.887,413.061c6.21,3.979,6.759,11.273,9.515,17.117c4.574,9.696,8.455,19.716,14.142,28.87
		c-3.13,0.688-6.021,0.236-7.221-3.046C122.056,441.605,114.122,428.23,110.887,413.061z"/>
	<path fill="#7FD2ED" d="M305.9,151.806c-6.172-3.834-7.564-10.938-10.481-16.688c-4.178-8.226-8.666-16.158-13.854-23.739
		c5.021-0.132,7.91,4.014,9.24,7.182C295.523,129.796,303.113,139.729,305.9,151.806z"/>
	<path fill="#7FD2ED" d="M351.401,176.54c-6.62,1.051-11.46-2.149-15.774-6.604C341.265,171.238,347.386,171.369,351.401,176.54z"/>
	<path fill="#7FD2ED" d="M254.525,91.47c-5.584-0.705-9.947-3.063-11.865-8.74C248.251,83.423,252.288,86.224,254.525,91.47z"/>
	<path fill="#7FD2ED" d="M316.684,162.919c-5.812,0.625-9.43-1.424-9.509-7.793C310.678,157.318,314.493,159.128,316.684,162.919z"
		/>
	<path fill="#7FD2ED" d="M332.035,168.812c-4.05-1.44-9.435,0.281-11.857-5.003C324.885,163.687,329.214,164.461,332.035,168.812z"
		/>
	<path fill="#7FD2ED" d="M264.454,99.047c-3.649,0.479-5.554-1.357-6.272-4.743C261.73,93.956,263.6,95.831,264.454,99.047z"/>
	<path fill="#7FD2ED" d="M233.228,75.901c-2.481,0.324-3.813-0.752-3.963-3.259C231.702,72.372,232.835,73.686,233.228,75.901z"/>
	<path fill="#7FD2ED" d="M273.876,105.04c-2.147,0.251-3.616-0.524-4.134-2.73C272.236,101.527,273.425,102.724,273.876,105.04z"/>
	<path fill="#7FD2ED" d="M281.148,111.018c-2.146,0.002-3.305-1.138-3.688-3.176C280.083,107.286,281.139,108.545,281.148,111.018z"
		/>
	<path fill="#7FD2ED" d="M222.975,68.43c-0.483-0.39-0.967-0.777-1.45-1.163C222.522,67.016,222.986,67.426,222.975,68.43z"/>
	<path fill="#7FD2ED" d="M228.849,72.285c-0.508-0.407-1.016-0.813-1.522-1.214C228.386,70.783,228.814,71.284,228.849,72.285z"/>
	<path fill="#7FD2ED" d="M276.82,107.259c-0.48-0.246-0.848-0.605-1.1-1.074C276.727,105.893,277.066,106.271,276.82,107.259z"/>
</g>
</svg>
