<?xml version="1.0" encoding="UTF-8"?><svg xmlns="http://www.w3.org/2000/svg" viewBox="0 0 806 850"><defs><style>.d{fill:none;}.e{fill:#101820;}.f{fill:#5deb5a;}</style></defs><g id="a"/><g id="b"><g id="c"><g><g><path class="f" d="M402.91,206.69c15.12,0,28.71,8.4,35.47,21.92l111.52,223.04c6.19,12.38,5.54,26.8-1.73,38.58-7.28,11.78-19.89,18.81-33.73,18.81h-223.04c-13.84,0-26.45-7.03-33.73-18.81-7.28-11.78-7.93-26.2-1.74-38.58l111.52-223.04c6.76-13.52,20.35-21.92,35.47-21.92m0-27.26c-25.35,0-48.51,14.32-59.85,36.99l-111.52,223.04c-10.37,20.74-9.26,45.38,2.93,65.1,12.19,19.73,33.73,31.74,56.92,31.74h223.04c23.19,0,44.73-12.01,56.92-31.74,12.19-19.73,13.3-44.36,2.93-65.1l-111.52-223.04c-11.33-22.67-34.5-36.99-59.85-36.99h0Z"/><g><path class="e" d="M314.66,603.02c.51,0,.93,.42,.93,.93v39.27c0,18.62-11.65,27.78-27.02,27.78s-27.02-9.17-27.02-27.78v-39.27c0-.51,.42-.93,.93-.93h9.13c.51,0,.93,.42,.93,.93v38.6c0,12.99,6.78,18.14,16.04,18.14s16.04-5.16,16.04-18.14v-38.6c0-.51,.42-.93,.93-.93h9.13Z"/><path class="e" d="M474.64,636.44c-.1,19.67-15.09,34.56-34.66,34.56s-34.66-14.89-34.66-34.56,15.09-34.56,34.66-34.56,34.56,14.9,34.66,34.56Zm-58.43,0c0,13.94,10.22,24.25,23.77,24.25s23.68-10.31,23.68-24.25-10.22-24.25-23.68-24.25-23.77,10.31-23.77,24.25Z"/><path class="e" d="M571.95,669.85h-9.45c-.65,0-1.1-.65-.86-1.26l25.01-64.6c.21-.54,.72-.89,1.3-.89h11.82c.57,0,1.09,.35,1.3,.89l25.01,64.6c.24,.61-.21,1.26-.86,1.26h-9.45c-.39,0-.73-.24-.87-.6l-20.17-53.18c-.3-.8-1.43-.8-1.73,0l-20.17,53.18c-.14,.36-.48,.6-.87,.6Z"/><path class="e" d="M190.06,669.85h-9.45c-.65,0-1.1-.65-.86-1.26l25.01-64.6c.21-.54,.72-.89,1.3-.89h11.82c.57,0,1.09,.35,1.3,.89l25.01,64.6c.24,.61-.21,1.26-.86,1.26h-9.45c-.39,0-.73-.24-.87-.6l-20.17-53.18c-.3-.8-1.43-.8-1.73,0l-20.17,53.18c-.14,.36-.48,.6-.87,.6Z"/><path class="e" d="M545.38,668.36l-18.76-23.96c10.58-2,16.78-9.15,16.78-20.12,0-12.59-8.2-21.17-22.69-21.17h-26.17c-.77,0-1.39,.62-1.39,1.39h0c0,4.92,3.99,8.91,8.91,8.91h17.51c8.77,0,12.97,4.48,12.97,10.97s-4.1,11.06-12.97,11.06h-25.02c-.77,0-1.39,.62-1.39,1.39v32.1c0,.51,.42,.93,.93,.93h8.92c.51,0,.93-.42,.93-.93v-23.96h10.3l16.29,21.25c1.75,2.29,4.47,3.63,7.36,3.63h6.78c.77,0,1.21-.89,.73-1.5Z"/><path class="e" d="M390.28,668.36l-18.76-23.96c10.58-2,16.78-9.15,16.78-20.12,0-12.59-8.2-21.17-22.69-21.17h-26.17c-.77,0-1.39,.62-1.39,1.39h0c0,4.92,3.99,8.91,8.91,8.91h17.51c8.77,0,12.97,4.48,12.97,10.97s-4.1,11.06-12.97,11.06h-25.02c-.77,0-1.39,.62-1.39,1.39v32.1c0,.51,.42,.93,.93,.93h8.92c.51,0,.93-.42,.93-.93v-23.96h10.3l16.29,21.25c1.75,2.29,4.47,3.63,7.36,3.63h6.78c.77,0,1.21-.89,.73-1.5Z"/></g></g><rect class="d" width="806" height="850"/></g></g></g></svg>