<?xml version="1.0" encoding="utf-8"?>
<!-- Generator: Adobe Illustrator 27.5.0, SVG Export Plug-In . SVG Version: 6.00 Build 0)  -->
<svg version="1.1" id="Layer_1" xmlns="http://www.w3.org/2000/svg" xmlns:xlink="http://www.w3.org/1999/xlink" x="0px" y="0px"
	 viewBox="0 0 500 500" style="enable-background:new 0 0 500 500;" xml:space="preserve">
<style type="text/css">
	.st0{fill:none;}
	.st1{fill:#36312A;}
	.st2{fill:#818181;}
</style>
<rect x="-1082.84" y="-1083.05" class="st0" width="2666.67" height="2666.67"/>
<g id="g151" transform="translate(1219.2998,1044.2271)">
	<path id="path153" class="st1" d="M-719.3-777.94c0,35.13-7.29,68.71-20.45,99.1c-4.19,9.7-8.97,19.07-14.3,28.05
		c-1.86,3.13-3.77,6.21-5.76,9.25c-17.97,27.52-41.18,51.24-68.26,69.81c-2.93,1.99-5.89,3.93-8.91,5.8l-0.01,0.02
		c-2.67,1.68-5.39,3.3-8.14,4.87c-4.38,2.51-9.13,3.82-13.84,4.01c-16.6-0.24-29.98-13.75-29.98-30.43v-10.16
		c2.35-6.64,6.98-12.49,13.57-16.26c17.76-10.17,33.75-23.18,47.31-38.39c2.72-3.03,5.32-6.15,7.83-9.35
		c8.95-11.43,16.6-23.92,22.75-37.23c4.22-9.1,7.71-18.59,10.44-28.41c4.47-16.11,6.86-33.08,6.88-50.69
		c-0.01-19.63-2.98-38.46-8.49-56.19c-5.51-17.73-13.57-34.33-23.76-49.42c-20.37-30.17-49.28-54.15-83.14-68.48
		c-22.59-9.55-47.37-14.82-73.53-14.83c-19.63,0.01-38.46,2.98-56.19,8.49c-17.71,5.51-34.33,13.57-49.42,23.76
		c-30.16,20.37-54.15,49.28-68.47,83.14c-4.07,9.64-7.38,19.7-9.83,30.1c-3.27,13.91-5.01,28.45-5.01,43.43
		c0,28.75,6.37,55.82,17.79,80.15c7.14,15.22,0.59,33.34-14.63,40.48c-15.22,7.14-33.35,0.61-40.49-14.61
		c-11.81-25.14-19.54-52.61-22.36-81.45c-0.79-8.09-1.19-16.29-1.19-24.58c0-21.86,2.81-43.12,8.12-63.38
		c0.95-3.67,1.99-7.31,3.1-10.9c7.3-23.49,17.98-45.48,31.45-65.41c26.92-39.85,65.01-71.48,109.87-90.48
		c29.91-12.65,62.84-19.64,97.25-19.64c25.81,0,50.78,3.93,74.27,11.24c23.49,7.31,45.48,17.98,65.41,31.45
		c39.85,26.92,71.48,65.01,90.47,109.87C-726.29-845.28-719.3-812.34-719.3-777.94"/>
</g>
<g id="g159" transform="translate(1123.8103,1073.3628)">
	<path id="path161" class="st1" d="M-732.58-840.26v223.67c0,8.41-3.4,16.02-8.91,21.53l-0.01,0.02c-2.67,1.68-5.39,3.3-8.14,4.87
		c-4.38,2.51-9.13,3.82-13.84,4.01c-16.6-0.24-29.98-13.75-29.98-30.43v-223.67c0-16.81,13.63-30.44,30.44-30.44
		C-746.2-870.7-732.58-857.07-732.58-840.26"/>
</g>
<g id="g163" transform="translate(1026.7239,876.9902)">
	<path id="path165" class="st1" d="M-746.08-420.21v-154.85c0-16.81-13.63-30.44-30.44-30.44c-16.81,0-30.44,13.63-30.44,30.44
		v154.85c0,16.81,13.63,30.44,30.44,30.44C-759.71-389.77-746.08-403.39-746.08-420.21"/>
</g>
<g id="g167" transform="translate(929.6271,876.9902)">
	<path id="path169" class="st1" d="M-759.58-420.21v-86.04c0-16.81-13.63-30.44-30.44-30.44c-16.81,0-30.44,13.63-30.44,30.44v86.04
		c0,16.81,13.63,30.44,30.44,30.44C-773.21-389.77-759.58-403.39-759.58-420.21"/>
</g>
<g id="g171" transform="translate(1052.8811,1124.1904)">
	<path id="path173" class="st2" d="M-742.44-948.98c0-0.15-0.01-0.3-0.01-0.45c-0.03-0.3-0.04-0.58-0.07-0.88
		c-0.06-0.48-0.12-0.96-0.21-1.44c-0.1-0.5-0.24-0.99-0.39-1.48c-0.03-0.12-0.07-0.24-0.12-0.34c-0.03-0.1-0.07-0.21-0.1-0.31
		c-0.28-0.85-0.65-1.65-1.08-2.44c-0.03-0.07-0.06-0.13-0.1-0.21c-0.04-0.07-0.1-0.16-0.16-0.25c-1.91-3.25-4.92-5.88-8.46-7.23
		c-5.21-2.11-11.46-1.44-16.18,1.74c-4.77,3.12-7.87,8.73-7.75,14.55c0.05,5.76,3.39,11.6,8.79,14.05c0.25,0.12,0.58,0.07,0.79-0.13
		c0.28-0.28,0.28-0.73,0-1.01c-3.62-3.62-5.52-9.07-4.35-14.09c1.1-5.03,5.32-9.22,10.41-10.2c2.54-0.5,5.24-0.25,7.65,0.74
		c2.41,1.03,4.53,2.72,6.04,4.89c3.07,4.32,3.4,10.35,1.17,15.21l0.01,0.1l0.12-0.01c1.71-1.75,2.95-3.95,3.55-6.31
		c0.19-0.73,0.31-1.47,0.4-2.23c0-0.01,0.01-0.03,0.01-0.04c0-0.09,0-0.18,0.01-0.27c0.03-0.36,0.07-0.71,0.07-1.08
		C-742.41-948.41-742.43-948.7-742.44-948.98"/>
</g>
<g id="g175" transform="translate(983.2292,1142.48)">
	<path id="path177" class="st2" d="M-752.13-988.11c-0.13-0.25-0.28-0.49-0.43-0.73c-0.01-0.03-0.04-0.06-0.06-0.09
		c-0.16-0.27-0.36-0.52-0.55-0.77c0-0.01-0.01-0.03-0.01-0.04c-1.93-2.51-4.84-4.28-7.99-4.78c-3.79-0.59-7.9,0.48-10.81,3.1
		c-2.93,2.58-4.65,6.62-4.23,10.62c0.33,3.97,2.91,7.85,6.79,9.33c0.22,0.09,0.5,0.04,0.7-0.13c0.28-0.25,0.31-0.68,0.07-0.96
		c-2.23-2.58-3.3-6.15-2.52-9.41c0.71-3.28,3.49-6,6.8-6.65c3.3-0.71,6.99,0.76,8.98,3.62c2.08,2.82,2.42,6.73,1.23,10.08l0.03,0.13
		h0.18c0.89-0.82,1.65-1.8,2.2-2.88c0.52-1.08,0.86-2.26,1.02-3.46C-750.45-983.55-750.97-986-752.13-988.11"/>
</g>
<g id="g179" transform="translate(938.3195,1094.8462)">
	<path id="path181" class="st2" d="M-758.37-886.21c-0.43-1.87-1.19-3.64-2.12-5.3c-0.28-0.52-0.61-1.01-0.95-1.49
		c-0.06-0.09-0.12-0.18-0.19-0.25c-0.06-0.07-0.12-0.16-0.18-0.24c-0.07-0.13-0.18-0.25-0.27-0.37c-0.12-0.13-0.22-0.27-0.34-0.4
		c-0.45-0.54-0.92-1.05-1.42-1.53c-0.13-0.13-0.25-0.27-0.39-0.39c-0.04-0.04-0.09-0.08-0.13-0.12c-2.9-2.6-6.56-4.36-10.44-4.92
		c-5.91-0.83-12.22,0.98-16.66,5.11c-2.21,2.05-4.01,4.57-5.09,7.41c-1.13,2.84-1.54,5.92-1.32,8.97c0.13,1.54,0.5,3.01,0.96,4.47
		c0.46,1.45,1.16,2.88,2,4.14c1.66,2.58,4.07,4.72,6.83,6.1c0.25,0.13,0.58,0.07,0.79-0.13c0.25-0.28,0.24-0.7-0.03-0.95
		c-2.26-2.14-3.98-4.84-4.93-7.78c-0.94-2.95-1.14-6.15-0.46-9.15c0.31-1.5,0.92-2.93,1.66-4.31c0.71-1.31,1.72-2.6,2.79-3.68
		c1.1-1.04,2.39-2,3.73-2.7c1.37-0.7,2.88-1.22,4.38-1.53c1.51-0.28,3.1-0.36,4.63-0.22c1.53,0.16,3.09,0.58,4.51,1.16
		c2.88,1.22,5.43,3.27,7.23,5.85c3.62,5.21,3.94,12.41,1.16,18.17l0.03,0.13h0.16c1.29-1.42,2.36-3.04,3.12-4.81
		c0.73-1.77,1.19-3.65,1.37-5.55C-757.82-882.43-757.97-884.34-758.37-886.21"/>
</g>
<g id="g183" transform="translate(889.643,1041.5156)">
	<path id="path185" class="st2" d="M-765.14-772.14c-0.46-1.78-1.53-3.39-2.94-4.54c-0.19-0.15-0.37-0.3-0.57-0.42
		c-0.09-0.06-0.16-0.12-0.25-0.16c-0.08-0.04-0.16-0.1-0.24-0.15c-0.03-0.03-0.07-0.06-0.1-0.08c-0.06-0.03-0.12-0.06-0.16-0.09
		c-2.11-1.2-4.68-1.57-7.05-1.02c-2.9,0.67-5.55,2.67-6.86,5.45c-1.34,2.75-1.37,6.19,0.21,8.97c1.49,2.75,4.65,4.78,8.02,4.34
		c0.21-0.03,0.4-0.15,0.52-0.36c0.21-0.34,0.09-0.77-0.25-0.98l-0.01-0.01c-1.94-1.17-3.47-3.07-3.82-5.29
		c-0.39-2.18,0.52-4.54,2.36-5.84c1.81-1.34,4.45-1.43,6.49-0.25c2.05,1.16,3.42,3.4,3.82,5.78v0.01l0.06,0.09l0.19-0.04
		C-764.8-768.38-764.7-770.36-765.14-772.14"/>
</g>
</svg>
