<?xml version="1.0" encoding="UTF-8" standalone="no"?>
<!-- Created with Inkscape (http://www.inkscape.org/) -->

<svg
   version="1.1"
   id="svg91"
   xml:space="preserve"
   width="1391.5408"
   height="700.75586"
   viewBox="0 0 1391.5407 700.75585"
   xmlns="http://www.w3.org/2000/svg"
   xmlns:svg="http://www.w3.org/2000/svg"><defs
     id="defs95"><clipPath
       clipPathUnits="userSpaceOnUse"
       id="clipPath105"><path
         d="M 0,2000 H 2000 V 0 H 0 Z"
         id="path103" /></clipPath></defs><g
     id="g97"
     transform="matrix(1.3333333,0,0,-1.3333333,-637.56305,1684.7108)"><g
       id="g99"><g
         id="g101"
         clip-path="url(#clipPath105)"><g
           id="g107"
           transform="translate(556.9523,808.8096)"><path
             d="m 0,0 v -70.074 h -14.332 v 40.303 c 0,0.929 0.023,1.94 0.072,3.03 0.048,1.09 0.136,2.196 0.264,3.318 l -18.613,-36.022 c -0.577,-1.123 -1.355,-1.973 -2.332,-2.549 -0.979,-0.577 -2.092,-0.865 -3.343,-0.865 h -2.212 c -1.251,0 -2.365,0.288 -3.343,0.865 -0.978,0.576 -1.755,1.426 -2.333,2.549 l -18.612,36.119 c 0.096,-1.154 0.176,-2.284 0.24,-3.39 0.064,-1.107 0.097,-2.126 0.097,-3.055 V -70.074 H -78.78 V 0 h 12.409 c 0.705,0 1.322,-0.016 1.851,-0.048 0.529,-0.032 1.002,-0.128 1.419,-0.288 0.416,-0.161 0.794,-0.409 1.13,-0.746 0.337,-0.336 0.665,-0.81 0.986,-1.418 l 18.036,-35.543 c 0.641,-1.219 1.258,-2.485 1.852,-3.8 0.593,-1.314 1.161,-2.661 1.707,-4.039 0.545,1.41 1.114,2.789 1.707,4.136 0.593,1.347 1.227,2.628 1.9,3.848 L -17.795,-2.5 c 0.32,0.608 0.649,1.082 0.986,1.418 0.336,0.337 0.713,0.585 1.13,0.746 0.416,0.16 0.89,0.256 1.419,0.288 0.529,0.032 1.145,0.048 1.851,0.048 z"
             style="fill:#35302a;fill-opacity:1;fill-rule:nonzero;stroke:none"
             id="path109" /></g><path
           d="m 609.76,738.735 h -16.352 v 70.074 h 16.352 z"
           style="fill:#35302a;fill-opacity:1;fill-rule:nonzero;stroke:none"
           id="path111" /><g
           id="g113"
           transform="translate(724.9948,808.8096)"><path
             d="m 0,0 v -70.074 h -14.332 v 40.303 c 0,0.929 0.023,1.94 0.072,3.03 0.048,1.09 0.136,2.196 0.264,3.318 l -18.613,-36.022 c -0.577,-1.123 -1.355,-1.973 -2.332,-2.549 -0.979,-0.577 -2.092,-0.865 -3.343,-0.865 h -2.212 c -1.251,0 -2.365,0.288 -3.343,0.865 -0.978,0.576 -1.755,1.426 -2.333,2.549 l -18.612,36.119 c 0.096,-1.154 0.176,-2.284 0.24,-3.39 0.064,-1.107 0.096,-2.126 0.096,-3.055 V -70.074 H -78.78 V 0 h 12.409 c 0.704,0 1.322,-0.016 1.851,-0.048 0.529,-0.032 1.002,-0.128 1.419,-0.288 0.416,-0.161 0.794,-0.409 1.13,-0.746 0.337,-0.336 0.665,-0.81 0.986,-1.418 l 18.036,-35.543 c 0.641,-1.219 1.258,-2.485 1.852,-3.8 0.593,-1.314 1.161,-2.661 1.707,-4.039 0.545,1.41 1.114,2.789 1.707,4.136 0.593,1.347 1.227,2.628 1.9,3.848 L -17.795,-2.5 c 0.32,0.608 0.649,1.082 0.986,1.418 0.336,0.337 0.713,0.585 1.13,0.746 0.416,0.16 0.89,0.256 1.419,0.288 0.529,0.032 1.145,0.048 1.851,0.048 z"
             style="fill:#35302a;fill-opacity:1;fill-rule:nonzero;stroke:none"
             id="path115" /></g><g
           id="g117"
           transform="translate(798.4831,765.5234)"><path
             d="m 0,0 -6.493,19.19 c -0.481,1.218 -0.994,2.654 -1.539,4.305 -0.545,1.651 -1.09,3.44 -1.635,5.362 -0.481,-1.956 -0.994,-3.767 -1.539,-5.434 -0.546,-1.667 -1.058,-3.11 -1.539,-4.328 L -19.19,0 Z M 25.827,-26.788 H 13.226 c -1.411,0 -2.549,0.328 -3.414,0.985 -0.866,0.657 -1.524,1.499 -1.972,2.527 l -4.137,12.215 h -26.644 l -4.136,-12.215 c -0.354,-0.9 -0.986,-1.708 -1.9,-2.43 -0.914,-0.721 -2.044,-1.082 -3.391,-1.082 h -12.697 l 27.126,70.074 h 16.641 z"
             style="fill:#35302a;fill-opacity:1;fill-rule:nonzero;stroke:none"
             id="path119" /></g><g
           id="g121"
           transform="translate(891.4509,794.5742)"><path
             d="m 0,0 c -0.481,-0.771 -0.986,-1.347 -1.515,-1.731 -0.529,-0.385 -1.211,-0.579 -2.044,-0.579 -0.738,0 -1.532,0.233 -2.381,0.699 -0.85,0.464 -1.811,0.985 -2.885,1.563 -1.075,0.576 -2.301,1.098 -3.68,1.562 -1.379,0.465 -2.95,0.698 -4.713,0.698 -3.046,0 -5.314,-0.65 -6.805,-1.948 -1.491,-1.298 -2.237,-3.054 -2.237,-5.267 0,-1.411 0.449,-2.581 1.347,-3.51 0.897,-0.93 2.075,-1.732 3.535,-2.406 1.458,-0.673 3.126,-1.29 5.002,-1.852 1.876,-0.56 3.791,-1.186 5.747,-1.875 1.955,-0.689 3.872,-1.499 5.747,-2.428 1.876,-0.931 3.543,-2.116 5.002,-3.56 1.459,-1.442 2.637,-3.197 3.535,-5.266 0.898,-2.068 1.347,-4.562 1.347,-7.478 0,-3.239 -0.562,-6.269 -1.683,-9.091 -1.123,-2.822 -2.75,-5.282 -4.882,-7.383 -2.133,-2.1 -4.761,-3.751 -7.888,-4.953 -3.126,-1.202 -6.677,-1.803 -10.653,-1.803 -2.18,0 -4.401,0.224 -6.661,0.672 -2.26,0.449 -4.449,1.082 -6.565,1.901 -2.116,0.817 -4.104,1.787 -5.964,2.91 -1.86,1.121 -3.479,2.371 -4.857,3.751 l 4.809,7.599 c 0.385,0.545 0.89,1.002 1.515,1.371 0.626,0.368 1.306,0.552 2.044,0.552 0.962,0 1.932,-0.304 2.91,-0.914 0.978,-0.609 2.084,-1.282 3.319,-2.019 1.233,-0.737 2.652,-1.411 4.256,-2.021 1.603,-0.608 3.494,-0.913 5.675,-0.913 2.95,0 5.242,0.649 6.878,1.948 1.635,1.298 2.453,3.358 2.453,6.18 0,1.635 -0.45,2.966 -1.347,3.991 -0.898,1.027 -2.076,1.876 -3.535,2.549 -1.46,0.674 -3.119,1.268 -4.978,1.78 -1.86,0.513 -3.768,1.083 -5.723,1.709 -1.956,0.624 -3.864,1.393 -5.723,2.307 -1.86,0.914 -3.52,2.116 -4.978,3.608 -1.46,1.491 -2.638,3.349 -3.535,5.579 -0.898,2.227 -1.347,4.977 -1.347,8.248 0,2.629 0.529,5.194 1.587,7.695 1.058,2.501 2.613,4.729 4.665,6.686 2.052,1.955 4.569,3.518 7.551,4.689 2.982,1.17 6.397,1.755 10.245,1.755 2.147,0 4.24,-0.168 6.276,-0.505 2.036,-0.336 3.968,-0.834 5.796,-1.491 1.827,-0.657 3.534,-1.443 5.121,-2.357 C 1.371,9.738 2.79,8.705 4.04,7.551 Z"
             style="fill:#35302a;fill-opacity:1;fill-rule:nonzero;stroke:none"
             id="path123" /></g><g
           id="g125"
           transform="translate(990.3798,796.3047)"><path
             d="M 0,0 V -17.746 H 23.951 V -30.3 H 0 V -57.569 H -16.352 V 12.505 H 28.761 V 0 Z"
             style="fill:#35302a;fill-opacity:1;fill-rule:nonzero;stroke:none"
             id="path127" /></g><path
           d="m 1067.765,738.735 h -16.352 v 70.074 h 16.352 z"
           style="fill:#35302a;fill-opacity:1;fill-rule:nonzero;stroke:none"
           id="path129" /><g
           id="g131"
           transform="translate(1165.3972,808.8096)"><path
             d="m 0,0 v -70.074 h -8.465 c -1.251,0 -2.301,0.2 -3.15,0.601 -0.85,0.4 -1.692,1.098 -2.525,2.091 l -33.041,41.795 c 0.127,-1.25 0.216,-2.461 0.264,-3.63 0.048,-1.172 0.072,-2.269 0.072,-3.295 V -70.074 H -61.177 V 0 h 8.561 c 0.705,0 1.298,-0.032 1.779,-0.096 0.481,-0.064 0.914,-0.184 1.299,-0.361 0.384,-0.177 0.753,-0.425 1.106,-0.745 0.352,-0.32 0.753,-0.754 1.202,-1.298 l 33.331,-42.084 c -0.162,1.347 -0.274,2.652 -0.338,3.92 -0.064,1.267 -0.096,2.46 -0.096,3.583 V 0 Z"
             style="fill:#35302a;fill-opacity:1;fill-rule:nonzero;stroke:none"
             id="path133" /></g><g
           id="g135"
           transform="translate(1238.8857,765.5234)"><path
             d="m 0,0 -6.493,19.19 c -0.481,1.218 -0.995,2.654 -1.539,4.305 -0.546,1.651 -1.09,3.44 -1.635,5.362 -0.481,-1.956 -0.995,-3.767 -1.539,-5.434 -0.546,-1.667 -1.058,-3.11 -1.54,-4.328 L -19.19,0 Z M 25.827,-26.788 H 13.226 c -1.411,0 -2.549,0.328 -3.415,0.985 -0.866,0.657 -1.523,1.499 -1.971,2.527 l -4.137,12.215 h -26.645 l -4.136,-12.215 c -0.353,-0.9 -0.986,-1.708 -1.9,-2.43 -0.914,-0.721 -2.044,-1.082 -3.39,-1.082 h -12.697 l 27.125,70.074 h 16.641 z"
             style="fill:#35302a;fill-opacity:1;fill-rule:nonzero;stroke:none"
             id="path137" /></g><g
           id="g139"
           transform="translate(1354.3145,808.8096)"><path
             d="m 0,0 v -70.074 h -8.465 c -1.25,0 -2.301,0.2 -3.15,0.601 -0.85,0.4 -1.692,1.098 -2.525,2.091 l -33.042,41.795 c 0.128,-1.25 0.217,-2.461 0.265,-3.63 0.048,-1.172 0.072,-2.269 0.072,-3.295 V -70.074 H -61.177 V 0 h 8.561 c 0.704,0 1.298,-0.032 1.78,-0.096 0.481,-0.064 0.913,-0.184 1.298,-0.361 0.385,-0.177 0.753,-0.425 1.106,-0.745 0.352,-0.32 0.753,-0.754 1.203,-1.298 l 33.33,-42.084 c -0.162,1.347 -0.273,2.652 -0.337,3.92 -0.065,1.267 -0.097,2.46 -0.097,3.583 V 0 Z"
             style="fill:#35302a;fill-opacity:1;fill-rule:nonzero;stroke:none"
             id="path141" /></g><g
           id="g143"
           transform="translate(1437.999,756.8672)"><path
             d="m 0,0 c 0.385,0 0.77,-0.072 1.155,-0.217 0.384,-0.144 0.753,-0.392 1.106,-0.745 l 6.445,-6.782 c -2.822,-3.688 -6.357,-6.468 -10.606,-8.344 -4.248,-1.876 -9.274,-2.813 -15.077,-2.813 -5.323,0 -10.093,0.905 -14.309,2.717 -4.216,1.811 -7.791,4.312 -10.725,7.502 -2.934,3.191 -5.187,6.974 -6.758,11.351 -1.571,4.377 -2.356,9.13 -2.356,14.261 0,5.225 0.849,10.028 2.549,14.404 1.699,4.377 4.088,8.151 7.166,11.326 3.078,3.174 6.765,5.644 11.062,7.406 4.296,1.764 9.026,2.646 14.188,2.646 2.629,0 5.106,-0.233 7.431,-0.697 2.324,-0.465 4.497,-1.106 6.517,-1.924 2.02,-0.818 3.879,-1.804 5.579,-2.958 1.699,-1.154 3.205,-2.404 4.521,-3.751 L 2.405,36.023 C 2.052,35.573 1.636,35.165 1.155,34.797 0.673,34.428 0,34.244 -0.866,34.244 c -0.577,0 -1.122,0.127 -1.635,0.385 -0.513,0.256 -1.058,0.568 -1.635,0.937 -0.577,0.369 -1.211,0.77 -1.9,1.203 -0.69,0.432 -1.507,0.834 -2.452,1.202 -0.947,0.368 -2.053,0.681 -3.319,0.938 -1.267,0.256 -2.75,0.385 -4.449,0.385 -2.693,0 -5.155,-0.497 -7.383,-1.491 -2.229,-0.994 -4.153,-2.446 -5.771,-4.353 -1.619,-1.908 -2.87,-4.249 -3.752,-7.021 -0.881,-2.775 -1.322,-5.941 -1.322,-9.499 0,-3.591 0.488,-6.782 1.467,-9.572 0.977,-2.789 2.309,-5.138 3.992,-7.046 1.683,-1.907 3.647,-3.359 5.892,-4.353 2.243,-0.993 4.648,-1.49 7.214,-1.49 1.474,0 2.821,0.072 4.04,0.217 1.218,0.144 2.356,0.384 3.414,0.72 1.058,0.338 2.052,0.786 2.982,1.347 0.93,0.56 1.876,1.275 2.838,2.142 0.385,0.319 0.801,0.584 1.25,0.793 C -0.946,-0.104 -0.48,0 0,0"
             style="fill:#35302a;fill-opacity:1;fill-rule:nonzero;stroke:none"
             id="path145" /></g><g
           id="g147"
           transform="translate(1493.0669,796.3047)"><path
             d="M 0,0 V -16.353 H 22.027 V -28.375 H 0 v -16.69 H 28.761 V -57.569 H -16.353 V 12.505 H 28.761 V 0 Z"
             style="fill:#35302a;fill-opacity:1;fill-rule:nonzero;stroke:none"
             id="path149" /></g><g
           id="g151"
           transform="translate(1219.2998,1044.2271)"><path
             d="m 0,0 c 0,-30.844 -6.401,-60.318 -17.951,-87.003 -3.676,-8.513 -7.874,-16.739 -12.553,-24.625 -1.63,-2.75 -3.312,-5.45 -5.058,-8.122 -15.774,-24.156 -36.149,-44.987 -59.928,-61.283 -2.568,-1.746 -5.175,-3.454 -7.821,-5.096 l -0.013,-0.014 c -2.347,-1.473 -4.732,-2.894 -7.144,-4.275 -3.845,-2.204 -8.017,-3.351 -12.15,-3.52 -14.574,0.208 -26.319,12.071 -26.319,26.711 v 8.917 c 2.059,5.827 6.127,10.963 11.915,14.274 15.591,8.93 29.631,20.349 41.532,33.699 2.386,2.659 4.667,5.396 6.871,8.212 7.86,10.038 14.574,21.001 19.971,32.681 3.702,7.991 6.766,16.321 9.164,24.939 3.924,14.144 6.023,29.044 6.036,44.505 -0.013,17.233 -2.62,33.763 -7.457,49.329 -4.836,15.565 -11.915,30.139 -20.857,43.383 -17.886,26.49 -43.267,47.543 -72.989,60.123 -19.828,8.382 -41.585,13.01 -64.555,13.023 -17.234,-0.013 -33.764,-2.62 -49.329,-7.457 -15.552,-4.836 -30.139,-11.915 -43.384,-20.857 -26.476,-17.886 -47.543,-43.267 -60.109,-72.989 -3.573,-8.461 -6.479,-17.299 -8.63,-26.425 -2.868,-12.214 -4.394,-24.977 -4.394,-38.13 0,-25.238 5.593,-49.003 15.618,-70.369 6.27,-13.362 0.521,-29.266 -12.841,-35.537 -13.362,-6.27 -29.279,-0.534 -35.549,12.828 -10.364,22.071 -17.156,46.187 -19.633,71.503 -0.691,7.105 -1.043,14.301 -1.043,21.575 0,19.189 2.464,37.856 7.131,55.638 0.835,3.22 1.747,6.414 2.725,9.569 6.413,20.623 15.787,39.929 27.61,57.423 23.635,34.989 57.072,62.756 96.454,79.43 26.255,11.106 55.169,17.246 85.374,17.246 22.657,0 44.583,-3.454 65.206,-9.868 20.623,-6.414 39.93,-15.787 57.424,-27.611 34.989,-23.634 62.756,-57.072 79.429,-96.454 C -6.14,59.119 0,30.205 0,0"
             style="fill:#35302a;fill-opacity:1;fill-rule:nonzero;stroke:none"
             id="path153" /></g><g
           id="g155"
           transform="translate(1165.8562,1044.2236)"><path
             d="m 0,0 c -0.013,-15.461 -2.112,-30.361 -6.036,-44.505 -2.398,-8.617 -5.462,-16.947 -9.164,-24.938 2.881,12.214 4.393,24.964 4.406,38.117 -0.013,17.234 -2.62,33.764 -7.457,49.329 -4.836,15.565 -11.915,30.14 -20.857,43.384 -17.886,26.489 -43.267,47.543 -72.989,60.122 -19.828,8.383 -41.586,13.011 -64.555,13.024 -17.234,-0.013 -33.764,-2.621 -49.329,-7.457 -15.552,-4.836 -30.139,-11.915 -43.384,-20.858 -25.016,-16.895 -45.196,-40.477 -57.945,-68.088 2.151,9.126 5.057,17.964 8.63,26.425 12.566,29.722 33.633,55.103 60.109,72.989 13.245,8.943 27.832,16.021 43.384,20.858 15.565,4.836 32.095,7.443 49.329,7.456 22.969,-0.013 44.727,-4.641 64.555,-13.023 29.722,-12.58 55.103,-33.633 72.989,-60.122 C -19.372,79.468 -12.293,64.894 -7.457,49.329 -2.62,33.764 -0.013,17.234 0,0"
             style="fill:#808080;fill-opacity:1;fill-rule:nonzero;stroke:none"
             id="path157" /></g><g
           id="g159"
           transform="translate(1123.8103,1073.3628)"><path
             d="m 0,0 v -196.363 c 0,-7.379 -2.985,-14.066 -7.822,-18.902 l -0.012,-0.014 c -2.347,-1.472 -4.733,-2.893 -7.145,-4.275 -3.845,-2.203 -8.017,-3.351 -12.149,-3.52 -14.574,0.208 -26.32,12.072 -26.32,26.711 V 0 c 0,14.757 11.967,26.724 26.724,26.724 C -11.954,26.724 0,14.757 0,0"
             style="fill:#35302a;fill-opacity:1;fill-rule:nonzero;stroke:none"
             id="path161" /></g><g
           id="g163"
           transform="translate(1026.7239,876.9902)"><path
             d="m 0,0 v 135.948 c 0,14.76 -11.965,26.724 -26.724,26.724 -14.76,0 -26.724,-11.964 -26.724,-26.724 V 0 c 0,-14.76 11.964,-26.725 26.724,-26.725 C -11.965,-26.725 0,-14.76 0,0"
             style="fill:#35302a;fill-opacity:1;fill-rule:nonzero;stroke:none"
             id="path165" /></g><g
           id="g167"
           transform="translate(929.6271,876.9902)"><path
             d="m 0,0 v 75.533 c 0,14.759 -11.965,26.724 -26.724,26.724 -14.76,0 -26.724,-11.965 -26.724,-26.724 V 0 c 0,-14.76 11.964,-26.725 26.724,-26.725 C -11.965,-26.725 0,-14.76 0,0"
             style="fill:#35302a;fill-opacity:1;fill-rule:nonzero;stroke:none"
             id="path169" /></g><g
           id="g171"
           transform="translate(1052.8811,1124.1904)"><path
             d="M 0,0 C 0,0.13 -0.013,0.261 -0.013,0.391 -0.039,0.652 -0.052,0.899 -0.078,1.16 -0.13,1.577 -0.182,2.007 -0.261,2.425 -0.352,2.868 -0.469,3.298 -0.6,3.728 -0.626,3.833 -0.665,3.937 -0.704,4.028 -0.73,4.119 -0.769,4.21 -0.795,4.302 -1.043,5.045 -1.369,5.749 -1.747,6.44 c -0.026,0.065 -0.052,0.117 -0.091,0.182 -0.039,0.065 -0.091,0.144 -0.144,0.222 -1.681,2.855 -4.315,5.162 -7.43,6.348 -4.576,1.851 -10.064,1.265 -14.209,-1.525 -4.185,-2.737 -6.91,-7.665 -6.806,-12.775 0.04,-5.058 2.973,-10.182 7.718,-12.332 0.222,-0.104 0.508,-0.065 0.691,0.117 0.248,0.248 0.248,0.639 0,0.886 -3.181,3.181 -4.85,7.965 -3.82,12.372 0.965,4.419 4.667,8.095 9.139,8.956 2.229,0.443 4.601,0.221 6.713,-0.652 2.112,-0.9 3.976,-2.386 5.306,-4.289 2.698,-3.794 2.985,-9.086 1.03,-13.349 l 0.013,-0.091 0.104,0.012 c 1.499,1.539 2.594,3.468 3.116,5.541 0.169,0.639 0.273,1.291 0.352,1.956 0,0.012 0.013,0.025 0.013,0.039 0,0.078 0,0.156 0.013,0.234 0.026,0.313 0.065,0.626 0.065,0.952 C 0.026,-0.508 0.013,-0.248 0,0"
             style="fill:#808080;fill-opacity:1;fill-rule:nonzero;stroke:none"
             id="path173" /></g><g
           id="g175"
           transform="translate(983.2292,1142.48)"><path
             d="m 0,0 c -0.117,0.222 -0.248,0.43 -0.378,0.639 -0.013,0.026 -0.039,0.052 -0.052,0.078 -0.143,0.235 -0.313,0.456 -0.483,0.678 0,0.013 -0.013,0.026 -0.013,0.039 -1.694,2.203 -4.25,3.754 -7.013,4.198 -3.324,0.521 -6.935,-0.418 -9.49,-2.725 -2.569,-2.268 -4.081,-5.814 -3.716,-9.321 0.287,-3.481 2.556,-6.896 5.958,-8.187 0.196,-0.078 0.443,-0.039 0.613,0.118 0.247,0.221 0.273,0.6 0.065,0.847 -1.956,2.268 -2.894,5.397 -2.216,8.265 0.625,2.881 3.063,5.267 5.97,5.84 2.894,0.626 6.14,-0.665 7.887,-3.18 1.825,-2.477 2.125,-5.906 1.082,-8.852 l 0.026,-0.117 h 0.156 c 0.782,0.717 1.448,1.577 1.93,2.529 C 0.782,-8.2 1.082,-7.17 1.225,-6.114 1.473,-4.002 1.017,-1.851 0,0"
             style="fill:#808080;fill-opacity:1;fill-rule:nonzero;stroke:none"
             id="path177" /></g><g
           id="g179"
           transform="translate(938.3195,1094.8462)"><path
             d="M 0,0 C -0.378,1.643 -1.042,3.194 -1.864,4.654 -2.112,5.11 -2.398,5.54 -2.698,5.958 -2.75,6.036 -2.802,6.114 -2.868,6.179 -2.92,6.244 -2.972,6.322 -3.024,6.388 c -0.065,0.117 -0.157,0.221 -0.235,0.325 -0.104,0.118 -0.195,0.235 -0.3,0.352 -0.391,0.47 -0.808,0.926 -1.251,1.343 -0.117,0.117 -0.222,0.235 -0.339,0.339 -0.039,0.039 -0.078,0.066 -0.117,0.105 -2.542,2.281 -5.762,3.832 -9.165,4.315 -5.188,0.729 -10.728,-0.861 -14.626,-4.485 -1.943,-1.799 -3.52,-4.015 -4.471,-6.505 -0.992,-2.49 -1.356,-5.201 -1.161,-7.874 0.117,-1.356 0.443,-2.646 0.847,-3.924 0.404,-1.277 1.017,-2.529 1.76,-3.637 1.461,-2.268 3.572,-4.145 5.997,-5.358 0.222,-0.117 0.508,-0.065 0.691,0.117 0.222,0.249 0.208,0.613 -0.026,0.835 -1.982,1.877 -3.494,4.25 -4.328,6.831 -0.822,2.594 -1.004,5.397 -0.404,8.03 0.273,1.317 0.808,2.568 1.46,3.781 0.626,1.147 1.512,2.281 2.451,3.232 0.964,0.913 2.098,1.76 3.272,2.373 1.199,0.613 2.529,1.069 3.845,1.343 1.33,0.247 2.725,0.313 4.068,0.196 1.342,-0.144 2.711,-0.509 3.963,-1.018 2.529,-1.068 4.771,-2.867 6.348,-5.136 3.181,-4.575 3.455,-10.898 1.017,-15.956 l 0.026,-0.117 h 0.143 c 1.134,1.251 2.073,2.672 2.738,4.224 0.639,1.551 1.043,3.206 1.199,4.875 C 0.483,-3.324 0.352,-1.643 0,0"
             style="fill:#808080;fill-opacity:1;fill-rule:nonzero;stroke:none"
             id="path181" /></g><g
           id="g183"
           transform="translate(889.643,1041.5156)"><path
             d="m 0,0 c -0.404,1.564 -1.343,2.972 -2.581,3.989 -0.17,0.13 -0.326,0.261 -0.496,0.365 -0.078,0.052 -0.143,0.104 -0.221,0.143 -0.066,0.039 -0.144,0.091 -0.209,0.13 -0.026,0.027 -0.065,0.053 -0.091,0.066 -0.052,0.026 -0.104,0.052 -0.143,0.078 -1.852,1.056 -4.107,1.382 -6.193,0.899 -2.542,-0.586 -4.875,-2.346 -6.022,-4.784 -1.174,-2.411 -1.2,-5.436 0.182,-7.874 1.304,-2.411 4.081,-4.197 7.04,-3.806 0.182,0.026 0.352,0.13 0.456,0.313 0.183,0.299 0.078,0.678 -0.222,0.86 l -0.013,0.013 c -1.707,1.03 -3.05,2.699 -3.35,4.641 -0.339,1.916 0.457,3.989 2.073,5.123 1.59,1.174 3.911,1.252 5.696,0.222 1.8,-1.017 2.999,-2.985 3.351,-5.071 v -0.013 l 0.052,-0.079 0.17,0.039 C 0.3,-3.298 0.391,-1.564 0,0"
             style="fill:#808080;fill-opacity:1;fill-rule:nonzero;stroke:none"
             id="path185" /></g></g></g></g></svg>
