<?xml version="1.0" encoding="UTF-8"?>
<svg xmlns:xodm="http://www.corel.com/coreldraw/odm/2003" xmlns="http://www.w3.org/2000/svg" xmlns:xlink="http://www.w3.org/1999/xlink" version="1.1" id="Layer_1" x="0px" y="0px" viewBox="0 0 2500 2500" style="enable-background:new 0 0 2500 2500;" xml:space="preserve">
<style type="text/css">
	.st0{fill:#2C3851;}
	.st1{fill:#FFFFFF;}
</style>
<g id="Layer_x0020_1">
	<g id="_2806196576240">
		<circle class="st0" cx="1250" cy="1250" r="1250"></circle>
		<g>
			<path class="st1" d="M1250,2099c-138,0-268-54-366-152l-382-382c-202-202-202-530,0-732l191-191c98-98,228-152,366-152h382     c138,0,268,54,366,152l191,191c202,202,202,530,0,732l-382,382C1518,2045,1388,2099,1250,2099z M1059,696c-83,0-162,32-221,91     L647,978c-122,122-122,320,0,441l382,382c59,59,137,91,221,91c83,0,162-32,221-91l382-382c122-122,122-320,0-441l-191-191     c-59-59-137-91-221-91H1059z"></path>
			<path class="st1" d="M1250,1824c-79,0-154-31-210-87l-318-318c-56-56-87-131-87-210s31-154,87-210l159-159c56-56,131-87,210-87     h318c79,0,154,31,210,87l159,159c56,56,87,131,87,210s-31,154-87,210l-318,318C1404,1793,1329,1824,1250,1824z M1091,956     c-25,0-48,10-66,27l-159,159c-18,18-27,41-27,66s10,49,27,66l318,318c36,36,97,36,133,0l318-318c18-18,27-41,27-66s-10-49-27-66     l-159-159c-18-18-41-27-66-27h-318l0,0H1091z"></path>
			<polygon class="st1" points="1250,1572 901,1223 1120,1005 1380,1005 1599,1223    "></polygon>
		</g>
	</g>
</g>
</svg>
