<?xml version="1.0" encoding="utf-8"?>
<!-- Generator: Adobe Illustrator 26.0.3, SVG Export Plug-In . SVG Version: 6.00 Build 0)  -->
<svg version="1.0" id="katman_1" xmlns="http://www.w3.org/2000/svg" xmlns:xlink="http://www.w3.org/1999/xlink" x="0px" y="0px"
	 viewBox="0 0 800 600" style="enable-background:new 0 0 800 600;" xml:space="preserve">
<style type="text/css">
	.st0{clip-path:url(#SVGID_00000080911548650521800120000005783415383360680629_);}
	.st1{fill:#DEDEDE;}
	.st2{fill:#1E4480;}
	.st3{fill:#152E51;}
</style>
<g>
	<defs>
		<rect id="SVGID_1_" x="69.7" y="228.7" width="648.3" height="172.7"/>
	</defs>
	<clipPath id="SVGID_00000051367222386384281850000000219410134249860482_">
		<use xlink:href="#SVGID_1_"  style="overflow:visible;"/>
	</clipPath>
	<g style="clip-path:url(#SVGID_00000051367222386384281850000000219410134249860482_);">
		<path class="st1" d="M207.8,297.7c0,17.1-6.4,33.7-17.9,46.4s-27.3,20.7-44.4,22.4c0.8-9.8-2.2-19.6-8.5-27.2
			c-6.3-7.6-15.2-12.5-25-13.7V234c10.5-4.4,21.9-6.2,33.3-5.1c11.3,1.1,22.2,4.9,31.7,11.2c9.5,6.3,17.3,14.9,22.6,24.9
			C205,275.1,207.8,286.3,207.8,297.7L207.8,297.7z"/>
		<path class="st2" d="M69.9,367.7c-0.7-5.8,0-11.6,2-17.1c2-5.5,5.1-10.4,9.3-14.5c6.3,9.5,14.9,17.2,24.9,22.6
			c10,5.4,21.3,8.1,32.6,8.1c2.3,0,4.5-0.1,6.8-0.3c-0.8,9.4-5,18.2-11.9,24.7c-6.9,6.5-15.9,10.1-25.4,10.3
			c-9.4,0.1-18.6-3.2-25.7-9.5C75.5,385.7,71,377.1,69.9,367.7L69.9,367.7z"/>
		<path class="st3" d="M112,234.1v91.5c9.8,1.1,18.8,6,25,13.7c6.3,7.6,9.3,17.4,8.5,27.2c-2.2,0.2-4.5,0.3-6.8,0.3
			c-11.4,0-22.6-2.8-32.6-8.1c-10-5.4-18.6-13.1-24.9-22.6c6-5.8,13.8-9.5,22.1-10.4l0,0v-87.3C106,236.8,108.9,235.3,112,234.1
			L112,234.1z"/>
		<path class="st1" d="M69.7,297.7c0-12,3.1-23.7,9-34.1c5.9-10.4,14.4-19.1,24.7-25.2v87.2c-8.3,0.9-16.1,4.6-22.2,10.5
			C73.6,324.7,69.6,311.4,69.7,297.7L69.7,297.7z"/>
		<path class="st2" d="M286.3,311.9h-16.8v24.2H262v-59.5h24.6c4.1,0.1,8,1.8,11,4.6c1.7,1.6,3.1,3.5,4,5.6c0.9,2.2,1.3,4.5,1.2,6.8
			c0,2.6-0.4,5.2-1.2,7.7c-0.6,1.9-1.6,3.7-3,5.3c-1.2,1.3-2.6,2.3-4.1,3.2c-1.4,0.7-2.8,1.3-4.3,1.7
			C288.9,311.7,287.6,311.9,286.3,311.9z M269.5,305.2h16.9c2.3-0.1,4.5-1,6.1-2.7c1.9-1.9,3-4.8,3-8.8c0.1-1.4-0.2-2.7-0.7-4
			c-0.5-1.3-1.2-2.5-2.2-3.5c-0.7-0.9-1.6-1.6-2.7-2.1c-1-0.5-2.1-0.8-3.3-0.9h-17.2V305.2z"/>
		<path class="st2" d="M351.9,308.7v15c0,3.8,2.3,5.8,6.8,5.8h21.9v6.7h-23.1c-4.5-0.1-7.8-1-9.9-2.6s-3.1-4.6-3.1-8.7v-48.2h36.2
			v6.6h-28.8v18.9h26.9v6.6H351.9z"/>
		<path class="st2" d="M461.9,323.3v-46.7h7.4v59.5H461c-3.6-7.1-6.6-12.8-8.9-17c-2.3-4.2-5.3-9.4-8.9-15.6
			c-3.6-6.2-7.4-12.1-11.3-17.8v50.4h-7.4v-59.5h9.8c5.6,7.9,10.4,15.3,14.4,22.2C452.6,305.6,457,313.8,461.9,323.3z"/>
		<path class="st2" d="M536,336.1h-19.7v-59.5H536c3.6-0.1,7.1,0.6,10.5,2c3.3,1.4,6.3,3.4,8.8,6c5.3,5.3,8,12.6,8,22
			c0,9.4-2.7,16.7-8,21.9c-2.6,2.5-5.6,4.5-8.9,5.8S539.5,336.2,536,336.1L536,336.1z M523.7,329.5h8.5c7.6,0,13.4-1.9,17.3-5.8
			c3.9-3.8,5.9-9.6,5.9-17.3c0-15.6-7.7-23.3-23.2-23.3h-8.5L523.7,329.5z"/>
		<path class="st2" d="M614,276.6v47.1c0,3.8,2.3,5.8,6.8,5.8h22.6v6.7h-23.9c-4.6-0.1-7.8-1-9.9-2.6c-2-1.7-3.1-4.6-3.1-8.7v-48.2
			H614z"/>
		<path class="st2" d="M689.3,308.7v15c0,3.8,2.3,5.8,6.8,5.8H718v6.7h-23.2c-4.6-0.1-7.8-1-9.9-2.6s-3.1-4.6-3.1-8.7v-48.2H718v6.6
			h-28.8v18.9H716v6.6H689.3z"/>
	</g>
</g>
</svg>
