<?xml version="1.0" encoding="utf-8"?>
<!-- Generator: Adobe Illustrator 16.0.0, SVG Export Plug-In . SVG Version: 6.00 Build 0)  -->
<!DOCTYPE svg PUBLIC "-//W3C//DTD SVG 1.1//EN" "http://www.w3.org/Graphics/SVG/1.1/DTD/svg11.dtd">
<svg version="1.1" id="Layer_1" xmlns="http://www.w3.org/2000/svg" xmlns:xlink="http://www.w3.org/1999/xlink" x="0px" y="0px"
	 width="500px" height="500px" viewBox="0 0 500 500" enable-background="new 0 0 500 500" xml:space="preserve">
<g>
	<path fill-rule="evenodd" clip-rule="evenodd" fill="#416CB4" d="M251.582,432.16c-20.368,0-40.881-1.543-61.072,0.35
		c-32.969,3.088-52.85-11.906-67.736-39.896c-20.356-38.277-43.056-75.303-64.542-112.984
		c-11.394-19.982-11.241-40.083,0.359-60.113c24.129-41.664,48.121-83.409,72.218-125.094c9.953-17.218,24.392-26.719,44.835-26.641
		c47.126,0.175,94.302,1.372,141.36-0.422c30.091-1.145,48.453,11.528,62.226,36.859c20.902,38.443,43.201,76.136,65.339,113.894
		c12.202,20.82,12.928,41.276,0.771,62.179c-24.605,42.311-49.111,84.68-73.784,126.953c-9.619,16.479-24.142,24.861-43.293,24.902
		C302.702,432.195,277.142,432.158,251.582,432.16z"/>
	<path fill-rule="evenodd" clip-rule="evenodd" fill="#FFFFFF" d="M207.895,273.855c9.033-8.932,19.373-14.619,18.668-29.469
		c-0.508-10.688,11.85-19.38,23.364-19.744c12.427-0.396,23.86,8.507,25.984,20.234c2.272,12.558-3.345,27.312-14.223,28.158
		c-23.267,1.814-34.211,19.576-48.731,32.813c-13.566,12.369-26.49,25.445-39.553,38.359c-3.942,3.896-8.653,6.439-11.87,0.871
		c-11.663-20.182-27.273-37.996-33.052-61.699c-11.422-46.829-1.711-88.234,31.539-122.568
		c33.131-34.207,73.871-46.462,121.196-35.945c54.199,12.047,90.89,57.621,97.615,108.441
		c7.336,55.445-21.71,107.892-72.436,132.701c-14.732,7.201-30.448,11.523-47.134,12.234c-7.531,0.318-9.815-1.854-9.478-9.299
		c0.416-9.164-1.756-17.535,12.894-18.221c42.857-1.994,78.355-37.158,87.634-73.693c11.57-45.566-4.485-86.458-42.808-113.079
		c-38.075-26.448-93.104-20.87-127.391,12.912c-33.946,33.446-39.905,87.563-14.226,126.247c3.528,5.316,4.595,7.051,10.719,1.703
		c9.587-8.367,10.422-14.463,4.644-26.5c-14.152-29.483-3.531-67.918,21.767-88.961c22.591-18.795,62.036-22.013,86.685-7.076
		c30.621,18.555,44.738,51.105,36.761,84.768c-7.624,32.166-32.07,54.4-64.697,58.525c-4.697,0.592-12.358,2.889-10.819-5.719
		c1.184-6.588-7.264-17.576,7.199-19.58c21.033-2.908,38.492-18.615,43.709-38.988c4.69-18.32-3.726-40.841-19.849-53.105
		c-17.569-13.364-37.311-14.167-57.094-2.326C202.261,219.409,194.542,248.731,207.895,273.855z"/>
</g>
</svg>
