<?xml version="1.0" encoding="utf-8"?>
<!-- Generator: Adobe Illustrator 16.0.0, SVG Export Plug-In . SVG Version: 6.00 Build 0)  -->
<!DOCTYPE svg PUBLIC "-//W3C//DTD SVG 1.1//EN" "http://www.w3.org/Graphics/SVG/1.1/DTD/svg11.dtd">
<svg version="1.1" id="Layer_1" xmlns="http://www.w3.org/2000/svg" xmlns:xlink="http://www.w3.org/1999/xlink" x="0px" y="0px"
	 width="500px" height="500px" viewBox="0 0 500 500" enable-background="new 0 0 500 500" xml:space="preserve">
<linearGradient id="SVGID_1_" gradientUnits="userSpaceOnUse" x1="270.3936" y1="-76.2373" x2="469.6283" y2="278.8191" gradientTransform="matrix(1 0 0 -1 -56 356)">
	<stop  offset="0" style="stop-color:#E9632C"/>
	<stop  offset="0.05" style="stop-color:#DB7334"/>
	<stop  offset="0.26" style="stop-color:#A7BD5D"/>
	<stop  offset="0.36" style="stop-color:#96CC6E"/>
	<stop  offset="0.41" style="stop-color:#8AC977"/>
	<stop  offset="0.59" style="stop-color:#6AC395"/>
	<stop  offset="0.75" style="stop-color:#50C0AC"/>
	<stop  offset="0.89" style="stop-color:#3EBFBB"/>
	<stop  offset="1" style="stop-color:#39BFC1"/>
</linearGradient>
<path fill="url(#SVGID_1_)" d="M234.94,305.902h41.727c9.608,0,17.397-7.575,17.397-16.911s-7.789-16.911-17.397-16.911H234.94
	c-9.608,0-17.406,7.575-17.406,16.911S225.333,305.902,234.94,305.902z M393.456,379.39c-28.683,18.3-65.641,27.937-106.866,27.937
	H234.94c-9.608,0-17.406,7.575-17.406,16.911s7.798,16.911,17.406,16.911h51.649c48.027,0,91.602-11.585,125.968-33.492
	c8.019-5.098,10.268-15.607,4.997-23.398c-5.269-7.818-16.052-9.994-24.07-4.868H393.456z M342.736,262.328
	c-7.304-5.599-18.559-4.396-24.415,2.649l-0.056,0.058c-2.851,3.508-4.184,7.904-3.695,12.371c0.486,4.54,2.777,8.521,6.386,11.371
	c3.137,2.434,6.888,3.722,10.927,3.722c5.284,0,10.238-2.291,13.56-6.356c0,0,0-0.058,0.086-0.058
	c5.899-7.288,4.667-17.928-2.792-23.727V262.328z M234.94,212.348h41.727c0.085,0,0.144,0,0.229,0h10.096
	c11.827,0,21.007,1.217,25.86,3.372c4.524,2.242,5.929,3.178,8.362,9.614c2.307,7.183,8.993,11.908,16.64,11.908h0.086
	c1.719,0,3.408-0.272,5.084-0.745c4.453-1.353,8.075-4.339,10.236-8.319c2.148-3.974,2.579-8.507,1.246-12.844
	c-4.109-13.733-14.676-25.504-27.678-30.644c-12.173-4.997-25.146-6.08-40.725-6.158h-9.18c-0.085,0-0.143,0-0.228,0h-41.734
	c-9.609,0-17.392,7.568-17.392,16.911c0,9.336,7.783,16.904,17.392,16.904H234.94z M234.94,144.739h51.134
	c17.526,0,33.292,2.24,46.911,6.687c1.846,0.608,3.693,0.889,5.555,0.889c7.274,0,14.033-4.482,16.482-11.549
	c3.078-8.843-1.848-18.429-10.982-21.415c-17.184-5.612-36.687-8.456-57.966-8.456H234.94c-9.608,0-17.406,7.568-17.406,16.911
	c0,9.336,7.798,16.904,17.406,16.904V144.739z M459.065,334.684c-7.702-4.997-18.93-2.835-23.984,4.626
	c-0.085,0-0.085,0.043-0.143,0.129c-5.298,7.703-3.078,18.271,4.854,23.397c2.851,1.919,6.2,2.863,9.608,2.863
	c5.856,0,11.256-2.863,14.52-7.575c5.299-7.773,3.138-18.257-4.854-23.412V334.684z M475.219,145.512
	c-14.62-28.402-35.627-51.386-62.547-68.489c-0.059-0.029-0.085-0.087-0.144-0.116c-34.481-22.016-78.17-33.622-126.425-33.622
	h-51.141c-9.609,0-17.392,7.568-17.392,16.911c0,9.336,7.783,16.904,17.392,16.904h51.141c41.453,0,78.585,9.701,107.353,28.043
	c0.028,0,0.056,0,0.085,0.058c0,0,0.028,0.029,0.058,0.058c44.805,28.868,68.66,76.2,68.89,136.978
	c0,15.365-1.604,30.158-4.812,44.105c-0.974,4.381-0.143,8.919,2.349,12.714c2.521,3.838,6.358,6.487,10.869,7.417
	c1.244,0.288,2.506,0.431,3.751,0.431h0.059c8.019,0,15.177-5.557,16.911-13.189l0.056-0.056
	c3.695-16.225,5.585-33.551,5.585-51.393c0.058-35.641-7.317-68.16-22.066-96.755H475.219z M407.044,205.882
	c-4.611,0.559-8.705,2.85-11.627,6.358c-2.835,3.593-4.096,7.981-3.552,12.515c0.688,5.607,1.061,11.491,1.061,17.513
	c0,24.071-5.442,44.104-16.009,59.512c-10.096,14.763-24.431,24.957-43.76,31.302c-0.087,0-0.145,0.056-0.229,0.086
	c-13.475,4.366-29.055,6.586-46.338,6.586H234.94c-9.608,0-17.406,7.562-17.406,16.896c0,9.337,7.798,16.926,17.406,16.926h51.649
	c21.107,0,40.438-2.835,57.479-8.391h0.114c0.2-0.129,0.486-0.187,0.716-0.259c25.86-8.549,46.967-23.884,61-44.39
	c14.478-21.164,21.794-47.453,21.794-78.298c0-7.288-0.43-14.613-1.317-21.571c-1.116-9.2-9.808-15.888-19.331-14.813V205.882z
	 M387.713,185.327c3.896,0,7.504-1.219,10.568-3.51c3.751-2.763,6.129-6.764,6.686-11.217c0.617-4.477-0.615-8.865-3.407-12.431
	c0,0,0-0.085-0.057-0.085c-5.629-7.152-16.969-8.592-24.358-3.123c-3.693,2.764-6.071,6.773-6.687,11.219
	c-0.572,4.475,0.615,8.921,3.466,12.516c3.336,4.201,8.319,6.63,13.76,6.63H387.713z"/>
<linearGradient id="SVGID_2_" gradientUnits="userSpaceOnUse" x1="52.0757" y1="-69.0801" x2="257.279" y2="296.6616" gradientTransform="matrix(1 0 0 -1 -56 356)">
	<stop  offset="0" style="stop-color:#E9632C"/>
	<stop  offset="0.05" style="stop-color:#DB7334"/>
	<stop  offset="0.26" style="stop-color:#A7BD5D"/>
	<stop  offset="0.36" style="stop-color:#96CC6E"/>
	<stop  offset="0.41" style="stop-color:#8AC977"/>
	<stop  offset="0.59" style="stop-color:#6AC395"/>
	<stop  offset="0.75" style="stop-color:#50C0AC"/>
	<stop  offset="0.89" style="stop-color:#3EBFBB"/>
	<stop  offset="1" style="stop-color:#39BFC1"/>
</linearGradient>
<path fill="url(#SVGID_2_)" d="M11.659,289.005c0,9.338,7.847,16.927,17.456,16.927c9.608,0,17.397-7.589,17.397-16.927v-93.597
	c0-9.345-7.79-16.911-17.397-16.911h-0.144c-9.609,0.029-17.312,7.597-17.312,16.911c0,0.493,0,0.996,0.057,1.489v90.562
	c-0.057,0.517-0.057,1.003-0.057,1.52V289.005z M98.763,218.971c-9.608,0-17.397,7.66-17.397,16.967
	c0,9.309,7.79,16.824,17.397,16.824c9.609,0,17.398-7.573,17.398-16.824C116.162,226.68,108.373,218.971,98.763,218.971z
	 M116.162,127.877c0-4.475-1.818-8.727-5.09-11.905c-3.265-3.229-7.646-4.948-12.308-4.948H28.971
	c-9.609,0-17.398,7.575-17.398,16.831c0,9.251,7.789,16.962,17.398,16.962c0.057,0,0.057-0.085,0.144-0.085h52.222v30.228
	c0,9.336,7.789,16.911,17.399,16.911c9.608,0,17.397-7.575,17.397-16.911v-47.083H116.162z M168.384,43.501H28.971
	c-9.609,0-17.398,7.568-17.398,16.911c0,9.337,7.789,16.903,17.398,16.903h122.016V407.11H28.971
	c-9.609,0-17.398,7.562-17.398,16.897s7.789,16.911,17.398,16.911h139.413c9.608,0,17.399-7.575,17.399-16.911V60.412
	C185.783,51.069,177.992,43.501,168.384,43.501z M28.971,373.417h69.765c4.66,0,9.042-1.761,12.307-4.938
	c3.272-3.18,5.09-7.433,5.09-11.973v-59.754c0-9.35-7.789-16.912-17.397-16.912c-9.61,0-17.312,7.563-17.399,16.827v42.943H28.971
	c-9.609,0-17.398,7.56-17.398,16.896C11.573,365.844,19.362,373.417,28.971,373.417z"/>
</svg>
