<?xml version="1.0" encoding="utf-8"?>
<!-- Generator: Adobe Illustrator 16.0.0, SVG Export Plug-In . SVG Version: 6.00 Build 0)  -->
<!DOCTYPE svg PUBLIC "-//W3C//DTD SVG 1.1//EN" "http://www.w3.org/Graphics/SVG/1.1/DTD/svg11.dtd">
<svg version="1.1" id="Layer_1" xmlns="http://www.w3.org/2000/svg" xmlns:xlink="http://www.w3.org/1999/xlink" x="0px" y="0px"
	 width="800px" height="2000px" viewBox="0 0 800 2000" enable-background="new 0 0 800 2000" xml:space="preserve">
<title>harmony-one-logo</title>
<path fill="#5294FF" d="M219.834,860.516h360.297c20.495,0,32.32,23.246,20.293,39.822l-171.477,235.777
	c-12.063,16.575-0.223,39.81,20.277,39.81h151.107c8.02,0,15.554-3.835,20.277-10.339l169.57-233.163c6.4-8.793,6.4-20.704,0-29.497
	L641.504,698.521c-4.704-6.506-12.252-10.339-20.259-10.339H178.751c-8.036,0-15.567,3.833-20.277,10.339L9.803,902.926
	c-6.404,8.792-6.404,20.704,0,29.497l369.903,508.635c10.011,13.761,30.556,13.761,40.553,0l75.544-103.887
	c6.408-8.791,6.408-20.704,0-29.494L199.575,900.338C187.529,883.761,199.353,860.516,219.834,860.516z"/>
</svg>
