<svg class="token-bitmarket-bmk" viewBox="0 0 500 500" xmlns="http://www.w3.org/2000/svg">
	<g transform="translate(0,500) scale(0.1,-0.1)">
		<path d="M2336.6,4997.2c-238.2-21-504.5-78-695.6-148.1c-141.1-52-381.3-173.1-505.5-254.1c-292.3-190.1-571.5-474.2-755.7-767.3 c-72.1-114.1-183.2-341.1-231.2-470.2c-51-140.1-100.1-335.1-126.1-500.2c-30-199.1-30-521.2,0-720.3 c42-272.1,113.1-497.2,232.2-740.3C378.8,1142.5,505,963.4,705.1,757.3c215.2-221.1,416.4-368.2,685.6-501.2 				C1641,133.1,1873.2,60,2139.4,21c186.2-28,538.5-28,724.7,0c266.2,39,498.4,112,748.7,235.1c269.2,133.1,470.4,280.1,685.6,501.2 				c200.2,206.1,326.3,385.2,450.4,639.3c119.1,243.1,192.2,477.2,230.2,738.3c28,186.1,28,538.2,0,724.3 c-38,261.1-111.1,495.2-230.2,738.3c-124.1,254.1-250.2,433.2-450.4,639.3C4083.2,4458,3882,4605,3612.8,4738.1 c-250.2,123.1-480.4,196.1-748.7,236.1C2738,4992.2,2435.7,5006.2,2336.6,4997.2z" />
		<circle fill="#f60" cx="2555" cy="3125" r="1695"/>
		<g fill="#fff">
			<polygon points="3100,3145 3100,2810 3005,2810 2910,2810 2910,3145 2910,3480 3005,3480 3100,3480" />
			<polygon points="3700,3400 3700,3320 3620,3320 3540,3320 3540,3065 3540,2810 3445,2810 3350,2810 3350,3065 3350,3320 3270,3320 3190,3320 3190,3400 3190,3480 3445,3480 3700,3480" />
			<path d="M1190,1178c29-101,55-188,59-195c3-7,31,76,61,182l55,195h103h102v-275V810h-70h-70l-1,193v192l-40-140 c-22-77-46-164-55-193l-15-53l-71,3l-72,3l-51,180c-28,99-53,186-56,193c-2,6-2-76-1-183l4-195h-66h-66v275v275h98h99L1190,1178z" />
			<path d="M2920,1243v-116l71,104c39,57,77,110,83,117c9,9,36,12,89,10l77-3l-85-119l-84-119l16-31c9-17,32-60,53-96 c20-36,51-91,69-122l32-58h-84h-85l-52,103c-29,56-54,103-55,105c-2,2-12-3-24-10c-19-11-21-22-21-105v-93h-75h-75v275v275h75h75 V1243z" />
			<polygon points="3630,1300 3630,1240 3540,1240 3450,1240 3450,1200 3450,1160 3530,1160 3610,1160 3610,1100 3610,1040 3530,1040 3450,1040 3450,985 3450,930 3540,930 3630,930 3630,870 3630,810 3465,810 3300,810 3300,1085 3300,1360 3465,1360 3630,1360" />
			<polygon points="4100,1300 4100,1240 4035,1240 3970,1240 3970,1025 3970,810 3895,810 3820,810 3820,1025 3820,1240 3750,1240 3680,1240 3680,1300 3680,1360 3890,1360 4100,1360" />
			<path d="M2149,4064l31-6v-107v-106l50-1h50v46c0,26,3,75,6,109l7,61h68h69v-114v-113l48-6c103-12,198-60,240-122 c65-95,42-264-43-320l-30-19l56-28c118-59,154-186,102-352c-33-104-129-164-300-187c-48-6-91-16-95-23c-4-6-8-57-8-113v-103h-70 					h-70v115v115h-50h-50v-110v-110h-77h-76l6,115l6,115h-139c-116,0-140,3-140,15s9,64,25,141c4,19,11,21,66,20c47-1,63,3,73,16 c13,18,26,288,26,541c0,147-7,157-105,157h-65v80v80l140-6l140-7v116v117h39C2100,4070,2132,4067,2149,4064z M2180,3562 c0-66-3-128-7-137c-5-16,4-17,103-13c87,3,117,8,150,25c48,26,69,67,61,120c-12,73-74,105-229,119l-78,6V3562z M2170,3117v-145 l43-6c59-9,199,9,251,33c54,23,79,59,79,111c0,5-26,88-91,118c-48,22-75,27-169,30l-113,5V3117z" />
			<path d="M2093,1096c48-145,87-269,87-275c0-7-27-11-79-11h-79l-12,50l-12,50h-94c-69,0-94-3-94-12c0-7-5-30-11-50 l-10-38h-79c-44,0-80,3-80,7s39,128,87,275l87,268h101h101L2093,1096z M1880,1162c-12-53-25-103-27-109c-4-10,10-13,51-13 					c31,0,56,3,56,6c0,8-51,208-54,211C1905,1258,1893,1216,1880,1162z" />
			<path d="M2577,1331c49-28,73-71,73-131c0-53-22-101-60-129l-30-22l80-119l80-120h-84h-85l-58,100 c-78,135-93,135-93,0V810h-75h-75v276v276l143-4C2521,1355,2539,1353,2577,1331z M2400,1184v-67l37,6c91,15,82,127-9,127 C2400,1250,2400,1250,2400,1184z" />
		</g>
	</g>
</svg>