<?xml version="1.0" encoding="utf-8"?>
<!-- Generator: Adobe Illustrator 25.4.1, SVG Export Plug-In . SVG Version: 6.00 Build 0)  -->
<svg version="1.0" id="Layer_1" xmlns="http://www.w3.org/2000/svg" xmlns:xlink="http://www.w3.org/1999/xlink" x="0px" y="0px"
	 viewBox="0 0 835 719" style="enable-background:new 0 0 835 719;" xml:space="preserve">
<style type="text/css">
	
		.st0{clip-path:url(#SVGID_00000142169891785260299270000000121302481183502722_);fill:url(#SVGID_00000132768115252991415130000018365073937251258278_);}
	.st1{fill:#3A3A3F;}
	.st2{fill:none;}
</style>
<g>
	<g>
		<g>
			<defs>
				<path id="SVGID_1_" d="M111.8,398.6c0-8.8,7.2-16,16-16s16,7.2,16,16s-7.2,16-16,16C118.9,414.6,111.8,407.4,111.8,398.6
					 M72.1,377.7c0-0.1,0-0.2,0-0.3c0-0.1,0-0.3,0-0.4v-32c0-5.7,4.7-10.4,10.4-10.4c5.7,0,10.4,4.7,10.4,10.4v4.7
					c9.8-6.9,21.7-11,34.6-11c33.1,0,60,26.8,60,59.8s-26.9,59.8-60,59.8c-23.4,0-43.7-13.4-53.6-33c-0.7-1-1.2-2-1.5-3.2
					c-0.3-0.9-0.4-1.8-0.4-2.8c0-5.8,4.7-10.5,10.5-10.5c4,0,7.4,2.2,9.2,5.4c0.2,0.4,0.4,0.9,0.6,1.3c6.4,12.9,19.7,21.9,35.1,21.9
					c21.6,0,39.1-17.4,39.1-39s-17.5-39-39.1-39c-15.4,0-28.8,8.9-35.1,21.9c-0.2,0.5-0.4,0.9-0.6,1.3c-1.8,3.2-5.3,5.4-9.2,5.4
					C76.8,388.2,72.1,383.5,72.1,377.7 M122.2,304H66c-18.7,0-34.1,15.3-34.1,34.1v58.8c0,0.5,0,1,0,1.5s0,1,0,1.6c0,53,43,96,96,96
					s96-43,96-96c0-45-30.9-82.7-72.6-93.1c-9.6-2.3-19.6-2.8-25.1-2.9c-0.8,0-1.6,0-2.2,0C122.9,304,122.2,304,122.2,304"/>
			</defs>
			<clipPath id="SVGID_00000157289789470016383150000013578266340801118141_">
				<use xlink:href="#SVGID_1_"  style="overflow:visible;"/>
			</clipPath>
			
				<linearGradient id="SVGID_00000178168743684197853960000004033319321304070558_" gradientUnits="userSpaceOnUse" x1="-302.6943" y1="-72.5851" x2="-300.2939" y2="-72.5851" gradientTransform="matrix(64.1116 64.1116 -64.1116 64.1116 14794.623 24373.7637)">
				<stop  offset="0" style="stop-color:#6D47FE"/>
				<stop  offset="0.3703" style="stop-color:#4943FB"/>
				<stop  offset="0.691" style="stop-color:#17A4FB"/>
				<stop  offset="0.9964" style="stop-color:#00CCB8"/>
				<stop  offset="1" style="stop-color:#00CCB8"/>
			</linearGradient>
			
				<polygon style="clip-path:url(#SVGID_00000157289789470016383150000013578266340801118141_);fill:url(#SVGID_00000178168743684197853960000004033319321304070558_);" points="
				127.9,208 320,400 127.9,592 -64.1,400 			"/>
		</g>
	</g>
	<path class="st1" d="M450,340c34.8,0,60.1,25,60.1,60s-25.3,60-60.1,60c-34.6,0-59.9-25-59.9-60S415.4,340,450,340 M450,362
		c-21.2,0-34.8,16.4-34.8,38.1c0,21.6,13.6,38.1,34.8,38.1c21.2,0,35-16.5,35-38.1C485,378.3,471.2,362,450,362"/>
	<path class="st1" d="M348.3,398.2c10.9-2.3,19.9-12.4,19.9-27.5c0-16-11.2-30.6-33.2-30.6h-53.4c-5.3,0-9.6,4.3-9.6,9.6v100.8
		c0,5.3,4.3,9.6,9.6,9.6h55.3c21.9,0,33.5-14.4,33.5-32.4C370.4,412.6,360.5,400.1,348.3,398.2 M296.5,361.8h33.1
		c8.3,0,13.5,5.8,13.5,13.1c0,7.7-5.2,13.3-13.5,13.3h-33.1V361.8z M330.5,438.3h-34V410h34c9.7,0,14.9,6.5,14.9,14
		C345.3,432.7,339.8,438.3,330.5,438.3"/>
	<path class="st1" d="M723.9,346.1l-0.1-0.3c-1.5-3.4-4.9-5.8-8.8-5.8h-9.2h-0.2h-9.2c-3.9,0-7.3,2.4-8.8,5.8l-0.1,0.3L643.3,460
		h21.4c4,0,7.4-2.4,8.8-5.8l0.1-0.2l5.4-14.7h26.6h0.2h26.6l5.4,14.7l0.1,0.2c1.5,3.4,4.9,5.8,8.8,5.8h21.4L723.9,346.1z
		 M705.8,417.2h-0.2h-19.8l19.8-54.6l19.8,54.6H705.8z"/>
	<path class="st1" d="M609.1,419.1c12.2-3.1,24.7-16.8,24.7-38c0-22.3-14.4-41.1-37.8-41.1h-53.3c-5,0-9,4.3-9,9.6v100.8
		c0,5.3,4,9.6,9,9.6h15v-38.2h27.2l19.1,32.3l0.9,1.7c1.6,2.5,4.4,4.2,7.5,4.2h22.3L609.1,419.1z M557.6,399.8v-37.9h34.8
		c9.6,0,16.9,8.9,16.9,19s-7.3,19-16.9,19h-34.8V399.8z"/>
</g>
<rect x="12.8" y="281.4" class="st2" width="774.5" height="237.2"/>
</svg>
