<svg width="212" height="28" viewBox="0 0 212 28" fill="none" xmlns="http://www.w3.org/2000/svg">
<path d="M12.6211 4.01442L13.2773 10.4995L15.7065 3.10693L12.6211 4.01442Z" fill="#C9CED6"/>
<path d="M8.6272 0L12.6201 4.01388L15.7056 3.1064L8.6272 0Z" fill="#E1E4E8"/>
<path d="M11.7476 10.0452L13.2763 10.4989L12.6201 4.01388L8.6272 0L11.7476 10.0452Z" fill="#F1F2F4"/>
<path d="M5.36115 0.677246L8.99808 12.8376L5.28436 19.183L0 7.23907L5.36115 0.677246Z" fill="#C9CED6"/>
<path d="M19.4833 2.82715L23.0225 8.27905L16.5793 11.4343L19.4833 2.82715Z" fill="#F1F2F4"/>
<path d="M27.0018 0.886719L23.0228 8.27924L19.4836 2.82734L27.0018 0.886719Z" fill="#F7F8F9"/>
<path d="M30.6793 9.00523L23.0215 8.27924L27.0005 0.886719L30.6793 9.00523Z" fill="#E1E4E8"/>
<path d="M26.435 14.7918C26.2815 14.5195 23.0215 8.27881 23.0215 8.27881L30.7002 8.97688L26.435 14.7918Z" fill="#C9CED6"/>
<path d="M16.5793 11.4341L26.4361 14.7918L23.0225 8.27881L16.5793 11.4341Z" fill="#E1E4E8"/>
<path d="M12.4949 13.4722L17.5 27.3427L24.0688 17.5419L12.4949 13.4722Z" fill="#A83C3B"/>
<path d="M13.9893 27.9999L5.28442 19.1833L8.99814 12.8379L13.9893 27.9999Z" fill="#C73C38"/>
<path d="M16.8997 17.7304L17.5 27.3427L12.4949 13.4722L16.8997 17.7304Z" fill="#F1F2F4"/>
<path d="M24.0688 17.5419L16.8997 17.7304L12.4949 13.4722L24.0688 17.5419Z" fill="#E1E4E8"/>
<path d="M17.5007 27.3433L16.9004 17.731L24.0695 17.5425L17.5007 27.3433Z" fill="#C9CED6"/>
<path d="M0 7.23907L8.99808 12.8376L5.36115 0.677246L0 7.23907Z" fill="#E1E4E8"/>
<path d="M8.99814 12.8379L5.28442 19.1833L11.4902 20.4049L8.99814 12.8379Z" fill="#DB4545"/>
<path d="M13.9893 27.9999L5.28442 19.1833L8.99814 12.8379L13.9893 27.9999Z" fill="#C9CED6"/>
<path d="M8.99814 12.8379L5.28442 19.1833L11.4902 20.4049L8.99814 12.8379Z" fill="#E1E4E8"/>
<path d="M176.935 5.96464L173.857 22.7176H176.649L177.159 19.004L179.609 20.8818L180.781 22.7037H183.574L180.488 5.95068L176.935 5.96464ZM177.557 16.4911L178.701 9.30826H178.743L180.412 18.9342L177.557 16.4911Z" fill="white"/>
<path d="M53.8565 5.95068H50.9806L47.972 12.1423H47.9301V5.95068H45.0542V22.6897H47.9301V16.7563L48.9493 14.9065H48.9911L51.3366 22.6897H54.2544L50.7432 12.1912L53.8565 5.95068Z" fill="white"/>
<path d="M86.9853 10.8998C86.9853 9.15003 86.5874 7.88658 85.7917 7.10943C84.9959 6.34158 83.7743 5.95068 82.12 5.95068H78.0923V22.7036H80.9612V15.8279C81.4576 15.8333 81.9539 15.8123 82.4481 15.7651L84.4863 22.6897H87.4041L84.968 15.109C86.3175 14.4947 86.99 13.0916 86.9853 10.8998ZM83.6417 12.9171C83.421 13.1235 83.1582 13.2796 82.8714 13.3748C82.5846 13.47 82.2807 13.502 81.9804 13.4686H80.9612V8.31704H81.9804C82.2807 8.28366 82.5846 8.31566 82.8714 8.41085C83.1582 8.50604 83.421 8.66216 83.6417 8.86849C84.0196 9.47454 84.1843 10.1895 84.1094 10.8998C84.1827 11.6056 84.0181 12.3156 83.6417 12.9171Z" fill="white"/>
<path d="M100.109 5.95068H95.8438V22.7036H100.109C103.129 22.7036 104.641 21.0214 104.646 17.6568V11.0254C104.646 7.64692 103.134 5.95534 100.109 5.95068ZM101.77 18.0058C101.837 18.6519 101.677 19.3011 101.316 19.8417C101.099 20.0331 100.843 20.1773 100.567 20.265C100.291 20.3527 99.9992 20.3821 99.7109 20.3513H98.7197V8.31704H99.7109C99.9992 8.2862 100.291 8.31557 100.567 8.40328C100.843 8.491 101.099 8.63515 101.316 8.82661C101.677 9.36715 101.837 10.0164 101.77 10.6625V18.0058Z" fill="white"/>
<path d="M116.869 5.95068H113.993V22.6897H116.869V5.95068Z" fill="white"/>
<path d="M128.17 5.95068L125.092 22.7036H127.884L128.393 18.9901L130.885 20.8818L132.058 22.7036H134.85L131.758 5.95068H128.17ZM128.791 16.4771L129.929 9.28731H129.978L131.639 18.9203L128.791 16.4771Z" fill="white"/>
<path d="M63.657 5.95068L60.5786 22.7036H63.3708L63.8803 18.9901L66.3724 20.8818L67.5451 22.7036H70.3372L67.224 5.95068H63.657ZM64.2782 16.4771L65.423 9.28731H65.4649L67.1332 18.9203L64.2782 16.4771Z" fill="white"/>
<path d="M209.324 5.9786V15.7023H209.261C209.185 15.5487 209.094 15.3952 209.031 15.2346C207.872 12.2237 206.709 9.21518 205.541 6.20896C205.499 6.09727 205.352 5.95068 205.255 5.95068C204.473 5.95068 203.684 5.95068 202.888 5.95068V22.7037H205.562V13.0707C205.651 13.1043 205.724 13.1721 205.764 13.2592C206.974 16.3166 208.184 19.374 209.394 22.4314C209.443 22.5361 209.534 22.7106 209.61 22.7106C210.406 22.7106 211.202 22.7106 211.991 22.7106V5.95766L209.324 5.9786Z" fill="white"/>
<path d="M163.868 13.0567H160.657V5.96464H158.102V22.7176H160.692V15.2974H163.896V22.7037H166.464V5.95068H163.868V13.0567Z" fill="white"/>
<path d="M147.554 17.327C147.554 17.7179 147.554 18.0739 147.554 18.4369C147.514 18.8466 147.312 19.2236 146.995 19.4852C146.677 19.7469 146.268 19.8719 145.858 19.833C144.867 19.6375 144.462 19.3793 144.462 18.0669C144.42 15.2748 144.462 12.4338 144.462 9.61368C144.447 9.2408 144.514 8.86915 144.658 8.52474C144.811 8.18013 145.073 7.89557 145.404 7.71501C145.65 7.61182 145.917 7.57313 146.181 7.60263C146.445 7.63213 146.698 7.72883 146.914 7.88352C147.13 8.03821 147.303 8.24573 147.417 8.48628C147.53 8.72684 147.58 8.99241 147.561 9.25768C147.561 9.54387 147.561 9.82309 147.561 10.1163H150.256C150.256 9.63462 150.256 9.1809 150.256 8.72019C150.234 8.24162 150.116 7.77238 149.908 7.34058C149.701 6.90878 149.408 6.5233 149.048 6.20724C148.396 5.65927 147.608 5.29793 146.768 5.16152C145.927 5.02511 145.065 5.11872 144.274 5.43242C143.577 5.69009 142.972 6.14861 142.536 6.74999C142.1 7.35138 141.852 8.0686 141.823 8.81093C141.865 12.1615 141.823 15.5051 141.823 18.8557C141.832 19.3628 141.964 19.8601 142.207 20.3051C142.45 20.7501 142.798 21.1294 143.22 21.4106C144.216 22.1045 145.439 22.3916 146.64 22.2133C147.634 22.143 148.566 21.7021 149.251 20.9778C149.68 20.4896 149.991 19.9081 150.157 19.2793C150.323 18.6504 150.34 17.9916 150.207 17.3549L147.554 17.327Z" fill="white"/>
<path d="M191.531 22.7036H194.065V5.95068H191.531V22.7036Z" fill="white"/>
</svg>
