<?xml version="1.0" encoding="utf-8"?>
<!-- Generator: Adobe Illustrator 22.0.1, SVG Export Plug-In . SVG Version: 6.00 Build 0)  -->
<svg version="1.1" id="Layer_1" xmlns="http://www.w3.org/2000/svg" xmlns:xlink="http://www.w3.org/1999/xlink" x="0px" y="0px"
	 viewBox="0 0 1024 1024" style="enable-background:new 0 0 1024 1024;" xml:space="preserve">
<style type="text/css">
	.st0{fill:#141936;}
	.st1{fill:#FCFCFD;}
	.st2{fill:#4AA5D7;}
</style>
<g>
	<path class="st0" d="M289.4,584.5c-0.6,0-1.1,0-1.7,0c0-61.5,0-123,0-184.4c0-29.4,12.4-51.3,39.9-63c26.7-11.3,49.8-4.5,70.9,14.4
		c54.3,48.9,107.2,99.6,164.2,145.3c43.3,34.8,17.8,94.1-22.2,107.2c-29.4,9.6-61.6-0.2-79.4-25.8c-16-22.9-15.8-49.7-0.9-69.6
		c9.5-12.6,33.4-19.4,28.9-35.3c-3.8-13.5-22.9-22.7-35.3-33.8c-6.8-6.1-13.7-12-20.4-18.3c-4.5-4.2-8.8-7.9-14.7-2.4
		c-23.5,22.1-49.7,41.7-59.2,75.1c-19.9,69.6,9.5,146.1,71.5,183.9c62.5,38.1,142.3,29.3,196.3-18.7c57.9-51.5,77-172.4-2.7-229.7
		c-52.9-38-97.3-87.8-145.8-132c-13.5-12.3-26.9-25.1-42.3-34.7c-52.4-32.6-107-33.3-160.7-4c-55.3,30.2-80.8,79.3-81.1,141.5
		c-0.5,77.3-0.3,154.5-0.1,231.8c0.1,27.4-0.6,54.9,2.3,82.1c4,37,33.5,65.2,69.7,71.4c15.9,2.7,23.6,0.4,23.2-19.3
		C288.5,705.9,289.4,645.2,289.4,584.5z M741.3,765c-0.5,20.9,8,23.8,24.9,20.6c41.2-7.6,69.7-42.2,70.3-87.3
		c1.2-82.2,1.8-164.3,2.6-246.5c0.3-32.3,2.3-64.8-5.5-96.6c-25.5-104.2-168.4-164.2-266.8-68.8c-28.9,28-29.5,27.3-0.6,53.4
		c6.8,6.1,14.2,11.7,20.3,18.4c14.1,15.7,26.1,18.4,41.3-0.2c19.5-23.9,45.2-33.5,75.6-21.3c29.3,11.8,41.5,34.1,41.3,72.2
		c-0.2,57.3-0.1,114.5-0.1,171.8 M1010.7,512c0,275.4-223.3,498.7-498.7,498.7S13.3,787.4,13.3,512S236.6,13.3,512,13.3
		S1010.7,236.6,1010.7,512z"/>
	<path class="st1" d="M289.4,584.5c0,60.6-0.9,121.3,0.5,181.9c0.5,19.7-7.2,22.1-23.2,19.3c-36.2-6.2-65.7-34.4-69.7-71.4
		c-2.9-27.1-2.2-54.7-2.3-82.1c-0.2-77.3-0.4-154.5,0.1-231.8c0.4-62.2,25.8-111.3,81.1-141.5c53.7-29.3,108.3-28.7,160.7,4
		c15.3,9.6,28.8,22.4,42.3,34.7c48.5,44.2,92.9,94,145.8,132c79.7,57.3,60.6,178.2,2.7,229.7c-54,48-133.8,56.8-196.3,18.7
		c-62-37.8-91.4-114.3-71.5-183.9c9.5-33.4,35.7-53,59.2-75.1c5.9-5.6,10.2-1.8,14.7,2.4c6.7,6.2,13.6,12.2,20.4,18.3
		c12.4,11.1,31.5,20.3,35.3,33.8c4.4,15.9-19.4,22.7-28.9,35.3c-14.9,19.9-15,46.7,0.9,69.6c17.8,25.6,50,35.4,79.4,25.8
		c40-13.1,65.5-72.4,22.2-107.2c-56.9-45.7-109.8-96.4-164.2-145.3c-21.1-19-44.3-25.8-70.9-14.4c-27.5,11.7-39.9,33.6-39.9,63"/>
	<path class="st2" d="M744.5,580.7c0-57.3-0.2-114.5,0.1-171.8c0.2-38.1-12-60.4-41.3-72.2c-30.4-12.2-56-2.6-75.6,21.3
		c-15.2,18.6-27.2,15.8-41.3,0.2c-6.1-6.7-13.5-12.3-20.3-18.4c-28.9-26-28.3-25.4,0.6-53.4c98.4-95.4,241.3-35.4,266.8,68.8
		c7.8,31.8,5.8,64.3,5.5,96.6c-0.8,82.2-1.4,164.3-2.6,246.5c-0.7,45.2-29.2,79.7-70.3,87.3c-16.9,3.1-25.4,0.3-24.9-20.6"/>
</g>
</svg>
