<?xml version="1.0" encoding="utf-8"?>
<!-- Generator: Adobe Illustrator 26.0.3, SVG Export Plug-In . SVG Version: 6.00 Build 0)  -->
<svg version="1.0" id="katman_1" xmlns="http://www.w3.org/2000/svg" xmlns:xlink="http://www.w3.org/1999/xlink" x="0px" y="0px"
	 viewBox="0 0 800 600" style="enable-background:new 0 0 800 600;" xml:space="preserve">
<style type="text/css">
	.st0{fill:#1D1D1B;}
	.st1{fill:url(#SVGID_1_);}
	.st2{fill:#69F5FD;}
	.st3{fill:url(#SVGID_00000004530606492856091290000013409899794095979179_);}
	.st4{fill:url(#SVGID_00000160895918879232500090000005770639911609067425_);}
	.st5{fill:url(#SVGID_00000096744370725223368830000018184842486522817712_);}
	.st6{fill:url(#SVGID_00000077283938925569459950000006621570853904063418_);}
</style>
<path class="st0" d="M386.3,335.8c-9.1,9.1-20.2,13.6-33.4,13.6c-13.2,0-24.3-4.5-33.5-13.6c-9.1-9.2-13.6-20.4-13.6-33.5
	c0-13.2,4.5-24.3,13.6-33.4c9.2-9.2,20.4-13.8,33.5-13.8c13.2,0,24.3,4.6,33.4,13.8c9.2,9.1,13.8,20.2,13.8,33.4
	C400.1,315.5,395.5,326.6,386.3,335.8z M329.9,325.7c6.2,6.2,13.9,9.2,23,9.2s16.7-3.1,22.9-9.2c6.2-6.2,9.4-14,9.4-23.4
	c0-9.4-3.1-17.1-9.4-23.3c-6.2-6.2-13.8-9.4-22.9-9.4s-16.8,3.1-23,9.4c-6.2,6.2-9.2,13.9-9.2,23.3
	C320.7,311.7,323.8,319.5,329.9,325.7z"/>
<path class="st0" d="M465.6,347.8l-19.2-33.1h-17.7v33.1h-14.9v-91h36.4c8.1,0,15,2.9,20.7,8.6c5.7,5.6,8.6,12.5,8.6,20.7
	c0,5.8-1.7,11.1-5.1,16c-3.3,4.8-7.6,8.2-13,10.4l20.7,35.3H465.6z M428.7,270.9v30.4h21.4c4,0,7.4-1.5,10.1-4.4
	c2.8-2.9,4.2-6.5,4.2-10.8c0-4.2-1.4-7.8-4.2-10.8c-2.8-2.9-6.1-4.4-10.1-4.4H428.7z"/>
<path class="st0" d="M493.4,256.8h14.9v91h-14.9V256.8z"/>
<path class="st0" d="M602.6,335.8c-9.1,9.1-20.2,13.6-33.4,13.6s-24.3-4.5-33.5-13.6c-9.1-9.2-13.6-20.4-13.6-33.5
	c0-13.2,4.5-24.3,13.6-33.4c9.2-9.2,20.4-13.8,33.5-13.8s24.3,4.6,33.4,13.8c9.2,9.1,13.8,20.2,13.8,33.4
	C616.3,315.5,611.7,326.6,602.6,335.8z M546.2,325.7c6.2,6.2,13.9,9.2,23,9.2c9.1,0,16.7-3.1,22.9-9.2c6.2-6.2,9.4-14,9.4-23.4
	c0-9.4-3.1-17.1-9.4-23.3c-6.2-6.2-13.8-9.4-22.9-9.4c-9.1,0-16.8,3.1-23,9.4c-6.2,6.2-9.2,13.9-9.2,23.3
	C536.9,311.7,540,319.5,546.2,325.7z"/>
<path class="st0" d="M684.5,256.8h14.9v91h-11.7l-42.9-61.7v61.7H630v-91h11.7l42.9,61.7V256.8z"/>
<linearGradient id="SVGID_1_" gradientUnits="userSpaceOnUse" x1="254.0544" y1="373.2364" x2="252.0505" y2="353.0627" gradientTransform="matrix(1 0 0 -1 -20.9449 604.3622)">
	<stop  offset="0" style="stop-color:#FE37AF"/>
	<stop  offset="1" style="stop-color:#FE079C"/>
</linearGradient>
<path class="st1" d="M231.8,257.8c7.4,0,13.4-6,13.4-13.4c0-7.4-6-13.4-13.4-13.4c-7.4,0-13.4,6-13.4,13.4
	C218.4,251.8,224.4,257.8,231.8,257.8z"/>
<path class="st2" d="M166.8,235.4c-13.1,0-25.9,3.9-36.8,11.2c-10.9,7.3-19.4,17.6-24.4,29.7c-5,12.1-6.3,25.4-3.8,38.3
	c2.6,12.8,8.9,24.6,18.1,33.9c9.3,9.3,21.1,15.6,33.9,18.1c12.8,2.6,26.2,1.2,38.3-3.8c12.1-5,22.4-13.5,29.7-24.4
	c4.2-6.3-3.7-21.8-1.9-29c1.3-5.3,13-2.2,13-7.7c0-17.6-7-34.4-19.4-46.8C201.2,242.4,184.3,235.4,166.8,235.4z M166.6,338
	c-7.3,0-14.5-2.2-20.6-6.2c-6.1-4.1-10.9-9.9-13.7-16.6c-2.8-6.8-3.5-14.2-2.1-21.4c1.4-7.2,5-13.8,10.2-19
	c5.2-5.2,11.8-8.7,19-10.2c7.2-1.4,14.7-0.7,21.4,2.1c6.8,2.8,12.6,7.6,16.6,13.7c4.1,6.1,6.2,13.3,6.2,20.6
	c0,9.8-3.9,19.3-10.9,26.2C185.9,334.1,176.5,338,166.6,338L166.6,338z"/>
<linearGradient id="SVGID_00000144305278495753783640000014965689546950932909_" gradientUnits="userSpaceOnUse" x1="223.2496" y1="334.2668" x2="124.678" y2="289.5303" gradientTransform="matrix(1 0 0 -1 -20.9449 604.3622)">
	<stop  offset="0" style="stop-color:#09EFFB"/>
	<stop  offset="1" style="stop-color:#FE37AF"/>
</linearGradient>
<path style="fill:url(#SVGID_00000144305278495753783640000014965689546950932909_);" d="M152,240.6c-5.2,0-10.4,0.7-15.5,2.1
	c-12.3,6.3-22.3,16.3-28.6,28.6c-6.3,12.3-8.6,26.3-6.6,39.9c7.9,19.4,27.6,33.2,50.7,33.2c14.4,0.1,28.2-5.4,38.6-15.4
	c-7,5.9-15.9,9-25,8.8c-9.1-0.3-17.9-3.9-24.5-10.2c-6.6-6.3-10.7-14.8-11.4-23.9c-0.7-9.1,1.9-18.2,7.5-25.4
	c5.5-7.3,13.6-12.2,22.5-13.9c9-1.7,18.3,0,26.1,4.7c7.8,4.7,13.6,12.2,16.3,20.9c2.7,8.7,2,18.2-1.8,26.4c4-7.3,6.1-15.6,6.1-23.9
	C206.4,263.9,182,240.6,152,240.6z"/>
<linearGradient id="SVGID_00000090278228566759382620000014944506892588241043_" gradientUnits="userSpaceOnUse" x1="273.5474" y1="339.8985" x2="229.9484" y2="287.2006" gradientTransform="matrix(1 0 0 -1 -20.9449 604.3622)">
	<stop  offset="0" style="stop-color:#891AEA"/>
	<stop  offset="1" style="stop-color:#A047EE"/>
</linearGradient>
<path style="fill:url(#SVGID_00000090278228566759382620000014944506892588241043_);" d="M250.3,291.9c1.8-1.4,3.3-3.2,4.3-5.3
	c1-2.1,1.4-4.4,1.2-6.7c-0.2-2.3-0.9-4.5-2.2-6.4c-1.2-1.9-3-3.5-5-4.6c-1.2-0.6-2.4-1.1-3.7-1.4c-1.3-0.3-6-1.1-13.6,2.8
	c-5.1,2.6-8.6,5.9-11.9,9.5c-5.9,6.3-11,13.1-15.3,20.5c-0.3,0.4-0.5,0.8-0.8,1.3c-0.5,0.9-0.9,1.9-1.2,2.9v0.1
	c-1.3,10.9,2.2,19.7,7.2,21.1c5.5,1.6,13.8-5.7,17.3-12.3c1.4-2.7,2-5.2,4.9-8.5c1.9-2.2,3.9-3.6,7.2-5.9c2.7-1.9,5.5-3.7,8.4-5.3
	c0.6-0.2,1.1-0.5,1.6-0.8C249.3,292.6,249.8,292.3,250.3,291.9L250.3,291.9z"/>
<linearGradient id="SVGID_00000174579176741421658130000003368736259436637110_" gradientUnits="userSpaceOnUse" x1="242.1061" y1="325.5748" x2="234.1445" y2="278.1848" gradientTransform="matrix(1 0 0 -1 -20.9449 604.3622)">
	<stop  offset="0" style="stop-color:#FE37AF"/>
	<stop  offset="1" style="stop-color:#FE079C"/>
</linearGradient>
<path style="fill:url(#SVGID_00000174579176741421658130000003368736259436637110_);" d="M234.2,297c1.1-2.4,1.5-5.1,1.1-7.7
	c-0.4-2.6-1.5-5-3.2-7c-1.7-2-4-3.4-6.5-4.2c-2.5-0.7-5.2-0.7-7.7,0c-1.3,0.4-5.8,1.9-10.6,9c-3.2,4.8-4.7,9.3-6,14
	c-2.2,8.3-3.4,16.8-3.7,25.4c-0.1,0.5-0.1,1-0.1,1.5c0,1,0.1,2.1,0.4,3.1v0.1c2.1,6.1,7.5,10.3,13.4,10.6c7.6,0.3,13-6.2,14.6-11.1
	c0.3-1,0.5-3.7,0.9-9.1c0.5-6.2,0.3-7,0.6-9.2c0.7-4.4,2.4-8.6,4.9-12.2c0.4-0.5,0.7-0.9,1.1-1.4C233.6,298.2,233.9,297.6,234.2,297
	z"/>
<linearGradient id="SVGID_00000002374663015649817760000015027966872715055522_" gradientUnits="userSpaceOnUse" x1="243.8914" y1="291.2302" x2="155.1768" y2="263.1752" gradientTransform="matrix(1 0 0 -1 -20.9449 604.3622)">
	<stop  offset="0" style="stop-color:#891AEA"/>
	<stop  offset="1" style="stop-color:#FE079C"/>
</linearGradient>
<path style="fill:url(#SVGID_00000002374663015649817760000015027966872715055522_);" d="M225.6,331.7c0.5-1.5,0.8-3.1,0.8-4.6
	c-0.1-3.3-1.2-6.6-3.3-9.2c-2.1-2.6-5-4.4-8.3-5.2c-3.3-0.7-6.7-0.4-9.7,1.1c-3,1.4-5.5,3.8-7,6.8c-2.4,3.7-5.4,7-8.9,9.7
	c-0.2,0.2-0.5,0.5-0.7,0.8c-5.5,5.4-11.3,7.7-16,9.6c-8.4,3.3-38.8,6.2-56.2-9.1c-6.9-6.8-14.8-20.3-14.8-20.3
	c2.3,15.7,10.2,30.1,22.2,40.4c12,10.4,27.4,16.1,43.3,16.1c9.8,0,19.7-3,19.7-3c12.4-3.9,23.5-11.3,31.7-21.5
	c1.9-2.4,3.6-4.9,5.2-7.5c0.9-1.2,1.7-2.6,2.2-4.1L225.6,331.7z"/>
</svg>
