<?xml version="1.0" encoding="utf-8"?>
<!-- Generator: Adobe Illustrator 16.0.0, SVG Export Plug-In . SVG Version: 6.00 Build 0)  -->
<!DOCTYPE svg PUBLIC "-//W3C//DTD SVG 1.1//EN" "http://www.w3.org/Graphics/SVG/1.1/DTD/svg11.dtd">
<svg version="1.1" id="Layer_1" xmlns="http://www.w3.org/2000/svg" xmlns:xlink="http://www.w3.org/1999/xlink" x="0px" y="0px"
	 width="500px" height="500px" viewBox="0 0 500 500" enable-background="new 0 0 500 500" xml:space="preserve">
<path fill="#EC2227" d="M172.897,252.252v-62.216h50.474c18.372,0,36.29,9.684,36.29,31.029c0,21.352-18.145,31.187-36.29,31.187
	H172.897z M249.141,443.848c-24.549,0.083-48.866-4.728-71.535-14.139c-22.672-9.41-43.245-23.243-60.518-40.682h55.809v-79.214
	h31.792l52.686,79.214h83.866l-61.604-89.585c30.497-12.732,53.906-37.66,53.906-78.146c0-69.306-51.085-93.855-110.326-93.855
	H117.088c21.518-21.648,48.042-37.653,77.227-46.595c29.182-8.946,60.118-10.554,90.072-4.683
	c29.953,5.871,57.994,19.039,81.641,38.338c23.647,19.299,42.172,44.128,53.93,72.3c11.749,28.166,16.379,58.797,13.468,89.179
	c-2.911,30.386-13.275,59.579-30.169,85.006c-16.895,25.42-39.796,46.281-66.676,60.735
	C309.695,436.174,279.667,443.774,249.141,443.848L249.141,443.848z M63.182,258.654c-0.145-40.381,12.952-79.697,37.283-111.925
	v223.088C76.293,337.801,63.204,298.771,63.182,258.654L63.182,258.654z M249.141,29.926c-45.24,0-89.459,13.413-127.074,38.545
	C84.45,93.608,55.133,129.328,37.822,171.125C20.511,212.92,15.98,258.908,24.808,303.276
	c8.823,44.368,30.609,85.125,62.595,117.111c31.99,31.987,72.748,53.771,117.116,62.604c44.368,8.82,90.352,4.287,132.151-13.016
	c41.8-17.321,77.515-46.633,102.653-84.248c25.128-37.615,38.545-81.835,38.545-127.074c0-60.663-24.094-118.838-66.995-161.736
	C367.979,54.024,309.807,29.926,249.141,29.926L249.141,29.926z"/>
</svg>
