<?xml version="1.0" encoding="utf-8"?>
<!-- Generator: Adobe Illustrator 16.0.0, SVG Export Plug-In . SVG Version: 6.00 Build 0)  -->
<!DOCTYPE svg PUBLIC "-//W3C//DTD SVG 1.1//EN" "http://www.w3.org/Graphics/SVG/1.1/DTD/svg11.dtd">
<svg version="1.1" id="Layer_1" xmlns="http://www.w3.org/2000/svg" xmlns:xlink="http://www.w3.org/1999/xlink" x="0px" y="0px"
	 width="800px" height="2000px" viewBox="0 0 800 2000" enable-background="new 0 0 800 2000" xml:space="preserve">
<path fill="#AF145B" d="M362.666,1080.379c-3.863,0-6.953,0-10.816-3.863l-57.174-57.179c-1.547-1.539-2.316-2.316-2.316-3.863
	c-0.773-0.77-1.547-3.862-0.773-6.949c0-1.546,0.773-2.316,1.543-3.093c0.773-0.77,1.547-1.547,2.32-2.316
	c1.543-1.547,2.316-3.094,3.089-3.863c13.906-13.137,27.043-26.27,40.948-38.633c30.906-30.132,61.812-60.264,92.717-90.4
	c0-1.543,2.316-10.816,9.273-13.133c2.316-0.773,5.41-0.773,6.957-0.773c3.863,0,6.949,0,10.813,3.863l60.264,57.176
	c2.324,3.09,4.641,6.952,3.863,10.815c-0.77,3.863-4.633,6.184-6.18,6.957c-6.949,3.863-28.589,25.495-69.537,68.761
	c-24.727,23.955-48.675,47.904-73.4,71.084c-0.77,0.777-1.543,3.094-3.863,4.641C368.076,1080.379,365.76,1080.379,362.666,1080.379
	z"/>
<linearGradient id="SVGID_1_" gradientUnits="userSpaceOnUse" x1="169" y1="1767.6143" x2="453.3301" y2="1767.6143" gradientTransform="matrix(1 0 0 -1 94 2605)">
	<stop  offset="0" style="stop-color:#CB0766"/>
	<stop  offset="1" style="stop-color:#E04391"/>
</linearGradient>
<path fill="url(#SVGID_1_)" d="M518.74,803.002L401.302,689.426c-17.77-13.91-39.405-24.726-64.128-24.726
	c-24.726,0-49.447,10.816-67.221,28.589C263,697.153,263,700.243,263,704.105c0,3.863,0,6.953,3.863,10.816l159.938,152.98
	c3.863,3.863,6.949,3.863,6.949,6.957c35.546,39.402,39.409,95.807,6.957,135.212l78.033-74.947
	c17.777-13.906,28.59-39.405,28.59-64.128C547.33,846.271,536.518,820.775,518.74,803.002z"/>
<linearGradient id="SVGID_2_" gradientUnits="userSpaceOnUse" x1="173.1802" y1="1487.1484" x2="424.3555" y2="1487.1484" gradientTransform="matrix(1 0 0 -1 94 2605)">
	<stop  offset="0" style="stop-color:#CB0766"/>
	<stop  offset="1" style="stop-color:#E04391"/>
</linearGradient>
<path fill="url(#SVGID_2_)" d="M380.442,1059.516c-35.538-39.409-39.401-95.807-3.862-135.212l-78.034,74.948
	c-17.773,17.769-28.589,42.494-28.589,67.213c0,24.733,10.816,49.452,28.589,67.229l170.75,173.844
	c3.863,3.863,6.957,3.863,10.82,3.863s6.949,0,10.813-3.863c17.776-17.776,28.589-42.495,28.589-67.229
	c0-24.719-10.813-49.444-28.589-67.213l-106.623-106.631C383.536,1062.602,380.442,1062.602,380.442,1059.516z"/>
</svg>
