<?xml version="1.0" encoding="utf-8"?>
<!-- Generator: Adobe Illustrator 16.0.0, SVG Export Plug-In . SVG Version: 6.00 Build 0)  -->
<!DOCTYPE svg PUBLIC "-//W3C//DTD SVG 1.1//EN" "http://www.w3.org/Graphics/SVG/1.1/DTD/svg11.dtd">
<svg version="1.1" id="Layer_1" xmlns="http://www.w3.org/2000/svg" xmlns:xlink="http://www.w3.org/1999/xlink" x="0px" y="0px"
	 width="576px" height="108px" viewBox="0 0 576 108" enable-background="new 0 0 576 108" xml:space="preserve">
<path fill="#04795B" d="M247.573,47.447c0-3.263,1.075-6.239,2.927-8.599l19.638,19.675c-2.392,1.861-5.362,2.934-8.58,2.934
	C253.799,61.463,247.53,55.18,247.573,47.447z M305.992,61.42c7.715,0.043,13.984-6.24,13.984-14.01
	c0-3.226-1.074-6.202-2.926-8.599l-19.639,19.675C299.76,60.342,302.73,61.42,305.992,61.42z M321.176,34.763
	c2.889,3.474,4.621,7.852,4.621,12.728c0,10.953-8.871,19.837-19.805,19.837c-4.828,0-9.239-1.736-12.706-4.627l-9.53,9.547
	l-9.53-9.547c-3.466,2.896-7.84,4.627-12.705,4.627c-10.935,0-19.806-8.885-19.806-19.837c0-4.838,1.733-9.259,4.623-12.728
	l-4.455-4.464l-4.25-4.259c-4.957,8.182-7.802,17.733-7.802,27.982c0,29.843,24.136,53.978,53.883,53.978
	c29.746,0,53.883-24.178,53.883-53.978c0.08-10.292-2.765-19.838-7.717-27.982L321.176,34.763z M322.741,16.738
	C312.963,6.451,299.102,0,283.75,0c-15.346,0-29.168,6.45-38.985,16.737c-1.318,1.407-2.598,2.895-3.796,4.421l42.744,42.82
	l42.743-42.857C325.382,19.633,324.102,18.102,322.741,16.738z M283.75,53.979l-33.126-33.188
	c8.828-8.885,20.502-13.767,33.126-13.767c12.625,0,24.341,4.875,33.126,13.761L283.75,53.979z"/>
</svg>
