<svg width="127" height="117" viewBox="0 0 127 117" fill="none" xmlns="http://www.w3.org/2000/svg">
<path d="M0.495117 30.7335L22.3415 79.9446L58.6924 116.151L22.5139 3.84375L0.495117 30.7335Z" fill="#E2E4E8"/>
<path d="M35.9707 0.855957L48.5519 40.2235L56.4177 43.0379L65.6828 13.5139L35.9707 0.855957Z" fill="#E2E4E8"/>
<path d="M126.506 37.936L109.03 62.3648L69.0049 47.7795L80.3658 12.6268L111.298 4.71729L126.506 37.936Z" fill="#E2E4E8"/>
<path d="M100.813 73.9693L72.3278 113.337L53.9766 56.9165L100.813 73.9693Z" fill="#E2E4E8"/>
<path d="M52.2256 17.3754L56.4171 43.0313L65.6823 13.5073L52.2256 17.3754Z" fill="#CACED6"/>
<path d="M48.5586 40.2235L56.4243 43.0379L52.2262 17.3753L35.9707 0.855957L48.5586 40.2235Z" fill="#F2F3F4"/>
<path d="M38.5969 53.5817L22.3415 79.9445L0.495117 30.7334L38.5969 53.5817Z" fill="#CACED6"/>
<path d="M80.3658 12.6338L94.8703 35.1286L69.0049 47.7798L80.3658 12.6338Z" fill="#F2F3F4"/>
<path d="M111.299 4.72412L94.8708 35.1285L80.3662 12.6336L111.299 4.72412Z" fill="#F7F8F9"/>
<path d="M109.031 62.365L94.8711 35.1284L126.507 37.9428L109.031 62.365Z" fill="#CACED6"/>
<path d="M73.3757 78.711L72.3278 113.33L53.9766 56.9165L73.3757 78.711Z" fill="#F2F3F4"/>
<path d="M72.3281 113.337L73.376 78.7176L100.813 73.9692L72.3281 113.337Z" fill="#CACED6"/>
<path d="M58.6927 116.144L22.3418 79.938L48.5588 84.8598L58.6927 116.144Z" fill="#CACED6"/>
<path d="M22.5139 3.84375L0.495117 30.7335L38.5969 53.5817L22.5139 3.84375Z" fill="#E2E4E8"/>
<path d="M48.5588 84.8662L22.3418 79.9444L38.5973 53.5815L48.5588 84.8662Z" fill="#E2E4E8"/>
<path d="M94.8704 35.1284L109.03 62.365L69.0049 47.7797L94.8704 35.1284Z" fill="#E2E4E8"/>
<path d="M111.299 4.72412L126.507 37.9361L94.8711 35.1285L111.299 4.72412Z" fill="#E2E4E8"/>
<path d="M100.813 73.9693L73.3757 78.7111L53.9766 56.9165L100.813 73.9693Z" fill="#E2E4E8"/>
<path d="M65.6828 13.5072L52.2262 17.3753L35.9707 0.855957L65.6828 13.5072Z" fill="#E2E4E8"/>
</svg>
