<?xml version="1.0" encoding="utf-8"?>
<!-- Generator: Adobe Illustrator 26.0.3, SVG Export Plug-In . SVG Version: 6.00 Build 0)  -->
<svg version="1.0" id="katman_1" xmlns="http://www.w3.org/2000/svg" xmlns:xlink="http://www.w3.org/1999/xlink" x="0px" y="0px"
	 viewBox="0 0 800 600" style="enable-background:new 0 0 800 600;" xml:space="preserve">
<style type="text/css">
	.st0{fill:#1969FF;}
	.st1{fill:#FFFFFF;}
</style>
<g id="Symbols">
	<g id="_x26AA__xFE0F_-Desktop-HD_x2F_Multichain-Crypto-Wallet" transform="translate(-228.000000, -246.000000)">
		<g id="Group-4" transform="translate(120.724102, 0.000000)">
			<g id="Block_00000096056513969603974320000007256614496843805622_" transform="translate(100.000000, 242.000000)">
				<g id="Icons_x2F_icon-24_x2F_more" transform="translate(8.000000, 4.000000)">
					<circle id="Oval_00000099643216143620465070000011285885921772465810_" class="st0" cx="399.1" cy="299.6" r="232.8"/>
					<path id="Shape" class="st1" d="M385,140.8c7.8-4.1,19.8-4.1,27.6,0l80,42.2c4.7,2.5,7.3,6.2,7.8,10h0.1v212
						c-0.1,4.2-2.7,8.3-7.9,11l-80,42.2c-7.8,4.1-19.8,4.1-27.6,0l-80-42.2c-5.1-2.7-7.6-6.9-7.7-11c0-0.4,0-0.8,0-1.1l0-209.5
						c0-0.3,0-0.6,0-0.9l0-0.5h0c0.4-3.9,2.8-7.5,7.7-10L385,140.8z M487.8,311l-75.2,39.8c-7.8,4.1-19.7,4.1-27.6,0L310,311v93.4
						l75,39.5c4.4,2.4,9,4.7,13.5,4.8l0.3,0c4.5,0,8.8-2.3,13.2-4.4l75.7-40.2V311z M284.7,400.5c0,8.1,0.9,13.5,2.8,17.2
						c1.5,3.1,3.9,5.5,8.1,8.4l0.2,0.2c0.9,0.6,1.9,1.3,3.2,2.1l1.5,0.9l4.5,2.7l-6.5,10.8l-5-3.1l-0.8-0.5
						c-1.5-0.9-2.7-1.7-3.8-2.5c-12-8.2-16.5-17.1-16.6-35.7l0-0.6H284.7z M392.7,254.6c-0.6,0.2-1.1,0.4-1.6,0.7l-79.9,42.3
						c-0.1,0-0.2,0.1-0.2,0.1l-0.1,0l0.1,0.1l0.2,0.1l79.9,42.3c0.5,0.3,1,0.5,1.6,0.7V254.6z M405.5,254.6V341
						c0.6-0.2,1.1-0.4,1.6-0.7l79.9-42.3c0.1,0,0.2-0.1,0.2-0.1l0.1,0l-0.1-0.1l-0.2-0.1l-79.9-42.3
						C406.6,255,406.1,254.8,405.5,254.6z M487.8,208.2l-71.8,37.7l71.8,37.7V208.2z M310,208.2v75.5l71.8-37.7L310,208.2z
						 M407,152.1c-4.2-2.2-11.7-2.2-15.8,0l-80,42.3c-0.1,0-0.2,0.1-0.2,0.1l-0.1,0l0.1,0.1l0.2,0.1l80,42.3
						c4.2,2.2,11.7,2.2,15.8,0l80-42.3c0.1,0,0.2-0.1,0.2-0.1l0.1,0l-0.1-0.1l-0.2-0.1L407,152.1z M499.7,156.4l5,3.1l0.8,0.5
						c1.5,0.9,2.7,1.7,3.8,2.5c12,8.2,16.5,17.1,16.6,35.7l0,0.6h-12.5c0-8.1-0.9-13.5-2.8-17.2c-1.5-3.1-3.9-5.5-8.1-8.4l-0.2-0.2
						c-0.9-0.6-1.9-1.3-3.2-2.1l-1.5-0.9l-4.5-2.7L499.7,156.4z"/>
				</g>
			</g>
		</g>
	</g>
</g>
</svg>
