<svg width="699" height="178" viewBox="0 0 699 178" fill="none" xmlns="http://www.w3.org/2000/svg">
<g clip-path="url(#clip0_4978_230307)">
<path d="M235.412 104.301H250.728C250.728 109.484 253.32 112.861 263.119 112.861C272.013 112.861 275.168 110.269 275.168 106.213C275.168 104.188 274.154 102.611 271.228 101.939C268.298 101.263 263.795 100.812 258.274 100.357C250.281 99.6812 244.084 98.4458 240.708 96.0795C237.553 93.8259 235.412 89.7735 235.412 85.1577C235.412 73.109 247.798 66.4609 263.228 66.4609C281.474 66.4609 289.808 73.4471 289.808 86.397H274.717C274.604 80.5378 271.904 77.4995 263.457 77.4995C255.799 77.4995 252.418 80.0871 252.418 83.9181C252.418 86.2803 253.32 88.0832 256.475 88.8719C259.288 89.5481 264.242 89.9988 270.214 90.5622C277.083 91.2383 281.924 91.9143 286.089 94.2807C289.695 96.3049 292.287 100.474 292.287 105.315C292.287 117.026 282.262 123.899 263.228 123.899C243.634 123.899 235.412 115.565 235.412 104.301H235.412Z" fill="black"/>
<path d="M304.559 103.854V80.658H296.338V67.3658H302.982C305.574 67.3658 306.475 65.9051 306.813 62.5246L307.602 54.7539H321.679V67.3658H339.47V80.658H321.679V102.952C321.679 108.699 324.379 110.498 331.135 110.498C333.502 110.498 336.995 110.16 338.907 109.709V122.659C337.442 122.997 332.713 123.903 328.097 123.903C310.753 123.903 304.559 116.244 304.559 103.854V103.854Z" fill="black"/>
<path fill-rule="evenodd" clip-rule="evenodd" d="M344.422 107.005C344.422 97.8823 350.953 91.2384 365.706 91.2384H383.835V87.5239C383.835 80.7632 380.008 78.0589 372.125 78.0589C365.706 78.0589 361.988 80.7632 361.988 85.2662C361.988 85.6044 361.988 86.5099 362.101 87.6326H346.337C346.221 86.7351 346.108 85.4957 346.108 84.3689C346.108 73.109 356.02 66.4609 372.914 66.4609C390.592 66.4609 400.955 74.3446 400.955 89.2101V122.994H383.835C384.174 120.181 384.624 115.11 384.624 111.734H384.512C382.821 119.617 376.515 123.899 366.382 123.899C353.428 123.899 344.422 118.265 344.422 107.005V107.005ZM383.836 101.603V100.477H367.284C362.665 100.477 359.852 102.613 359.852 105.768C359.852 110.046 363.566 112.3 369.759 112.3C378.657 112.3 383.836 108.36 383.836 101.603V101.603Z" fill="black"/>
<path d="M408.945 67.3624H426.061L425.385 83.2422H425.61C427.976 72.6543 433.944 66.4609 444.87 66.4609C456.243 66.4609 462.891 73.781 462.891 88.196C462.891 91.3511 462.553 96.3049 462.327 99.2345H446.786C447.007 96.5302 447.124 93.7172 447.124 92.027C447.124 83.9182 443.856 80.6544 438.451 80.6544C431.131 80.6544 426.061 86.6185 426.061 99.0051V122.994H408.945L408.945 67.3624Z" fill="black"/>
<path fill-rule="evenodd" clip-rule="evenodd" d="M529.221 127.616C529.221 140.341 517.845 147.101 498.588 147.101C478.994 147.101 467.393 141.693 467.393 132.457C467.393 126.602 471.224 122.996 477.417 122.32V122.211C474.037 120.07 472.234 117.028 472.234 113.088C472.234 107.797 474.938 104.529 479.107 102.613V102.5C473.248 99.1242 469.984 93.607 469.984 86.3995C469.984 73.8963 479.671 66.4633 495.997 66.4633C502.528 66.4633 507.937 67.59 512.102 69.8436L512.215 69.6183C509.961 67.59 508.951 65.3365 508.951 63.3083C508.951 58.6963 513.567 55.9922 520.662 55.9922C523.704 55.9922 525.281 56.2175 526.855 56.5555V67.3647C525.841 67.1394 524.714 67.0267 523.475 67.0267C519.873 67.0267 518.183 68.6041 518.183 71.1917C518.183 72.5439 518.633 74.2342 519.422 76.2624C521.225 79.0752 522.123 82.4557 522.123 86.3995C522.123 98.8989 512.44 106.215 495.997 106.215C492.621 106.215 489.582 105.881 486.761 105.317C486.315 105.994 485.751 107.346 485.751 108.919C485.751 111.398 487.776 112.863 491.156 112.863H509.176C521.789 112.863 529.221 118.38 529.221 127.616L529.221 127.616ZM512.103 129.983C512.103 126.94 509.854 125.25 504.896 125.25H491.721C487.101 125.25 484.4 127.165 484.4 130.321C484.4 134.486 489.584 136.735 498.364 136.735C507.037 136.735 512.103 134.373 512.103 129.983ZM486.084 86.3965C486.084 92.0263 489.802 95.4027 495.996 95.4027C502.306 95.4027 506.02 92.0263 506.02 86.3965C506.02 80.6539 502.306 77.2734 495.996 77.2734C489.802 77.2734 486.084 80.6539 486.084 86.3965Z" fill="black"/>
<path fill-rule="evenodd" clip-rule="evenodd" d="M533.047 107.005C533.047 97.8823 539.578 91.2384 554.331 91.2384H572.46V87.5239C572.46 80.7632 568.633 78.0589 560.75 78.0589C554.331 78.0589 550.617 80.7632 550.617 85.2662C550.617 85.6044 550.617 86.5099 550.725 87.6326H534.962C534.85 86.7351 534.733 85.4957 534.733 84.3689C534.733 73.109 544.645 66.4609 561.539 66.4609C579.217 66.4609 589.58 74.3446 589.58 89.2101V122.994H572.46C572.799 120.181 573.253 115.11 573.253 111.734H573.136C571.446 119.617 565.14 123.899 555.007 123.899C542.057 123.899 533.047 118.265 533.047 107.005V107.005ZM572.461 101.603V100.477H555.91C551.29 100.477 548.477 102.613 548.477 105.768C548.477 110.046 552.191 112.3 558.384 112.3C567.282 112.3 572.461 108.36 572.461 101.603V101.603Z" fill="black"/>
<path d="M602.302 103.854V80.658H594.08V67.3658H600.728C603.316 67.3658 604.217 65.9051 604.555 62.5246L605.344 54.7539H619.421V67.3658H637.216V80.658H619.421V102.952C619.421 108.699 622.125 110.498 628.882 110.498C631.248 110.498 634.737 110.16 636.648 109.709V122.659C635.188 122.997 630.455 123.903 625.839 123.903C608.495 123.903 602.302 116.244 602.302 103.854V103.854Z" fill="black"/>
<path fill-rule="evenodd" clip-rule="evenodd" d="M697.799 98.4457H658.269C659.058 107.565 663.673 111.508 671.332 111.508C677.976 111.508 682.254 109.146 682.708 103.738H697.799C697.461 116.462 686.874 123.899 670.994 123.899C652.526 123.899 641.037 113.42 641.037 95.7415C641.037 77.3827 652.526 66.4609 671.332 66.4609C686.874 66.4609 697.799 75.3586 697.799 93.6045V98.4457ZM682.709 88.4253C682.709 82.1193 678.428 78.8555 671.333 78.8555C664.125 78.8555 660.073 82.0066 658.721 89.3267H682.709V88.4253Z" fill="black"/>
<g clip-path="url(#clip1_4978_230307)">
<g clip-path="url(#clip2_4978_230307)">
<path d="M106.075 8.00144L110.759 18.9721C119.952 40.5125 137.11 57.67 158.65 66.8631L169.621 71.5467C172.492 72.7709 174.823 74.5269 176.622 76.6182C171.159 37.4453 140.177 6.4592 101.004 1C103.091 2.79491 104.851 5.13013 106.075 8.00144H106.075Z" fill="#999999"/>
<path d="M7.62253 71.5467L18.5933 66.8631C40.1337 57.67 57.2911 40.5125 66.4886 18.9721L71.1679 8.00144C72.3964 5.13013 74.1525 2.79491 76.2392 1C37.0664 6.4592 6.08452 37.4453 0.621094 76.6182C2.42039 74.5269 4.75139 72.771 7.62253 71.5467Z" fill="#999999"/>
<path d="M169.621 106.45L158.65 111.134C137.109 120.327 119.952 137.489 110.759 159.029L106.075 169.996C104.851 172.867 103.091 175.202 101.004 177.001C140.177 171.538 171.159 140.552 176.622 101.379C174.823 103.47 172.492 105.226 169.621 106.45H169.621Z" fill="#999999"/>
<path d="M71.1679 169.996L66.4886 159.029C57.2912 137.489 40.1337 120.327 18.5933 111.134L7.62253 106.45C4.75139 105.226 2.42039 103.47 0.621094 101.379C6.08452 140.552 37.0664 171.538 76.2392 177.001C74.1525 175.202 72.3964 172.867 71.1679 169.996Z" fill="#999999"/>
</g>
<path d="M48.7065 80.3947L54.1134 78.0856C64.7269 73.5542 73.1836 65.1021 77.7149 54.4885L80.0196 49.0816C83.2525 41.5093 93.9877 41.5093 97.2205 49.0816L99.5251 54.4885C104.056 65.1021 112.513 73.5543 123.127 78.0856L128.533 80.3947C136.106 83.6274 136.106 94.3585 128.533 97.5915L123.127 99.9005C112.513 104.432 104.056 112.884 99.5251 123.502L97.2205 128.904C93.9877 136.477 83.2525 136.477 80.0196 128.904L77.7149 123.502C73.1836 112.884 64.7269 104.432 54.1134 99.9005L48.7065 97.5915C41.1343 94.3585 41.1343 83.6274 48.7065 80.3947Z" fill="black"/>
</g>
</g>
<defs>
<clipPath id="clip0_4978_230307">
<rect width="697.176" height="176" fill="white" transform="translate(0.621094 1)"/>
</clipPath>
<clipPath id="clip1_4978_230307">
<rect width="176.001" height="176" fill="white" transform="translate(0.621094 1)"/>
</clipPath>
<clipPath id="clip2_4978_230307">
<rect width="176.001" height="176" fill="white" transform="translate(0.621094 1)"/>
</clipPath>
</defs>
</svg>
