<svg class="token-wrappedbtc-wbtc" viewBox="0 0 250 250" xmlns="http://www.w3.org/2000/svg">
	<g transform="translate(30, 30)">
		<path fill="#E6E6E6" d="M95,221C26.1,221-30,164.9-30,96C-30,27.1,26.1-29,95-29S220,27.1,220,96 C220,164.9,163.9,221,95,221" />
		<path fill="#5A5564" d="M173.9,23.5l-7,7c15.8,17.3,25.5,40.3,25.5,65.6c0,25.2-9.6,48.3-25.5,65.6l7,6.9 c17.6-19.1,28.3-44.6,28.3-72.5C202.2,68.1,191.4,42.6,173.9,23.5" />
		<path fill="#5A5564" d="M29.4,24.1C46.7,8.3,69.8-1.4,95-1.4c25.2,0,48.3,9.7,65.6,25.5l6.9-7 C148.4-0.4,122.9-11.2,95-11.2c-27.9,0-53.4,10.8-72.5,28.3L29.4,24.1z" />
		<path fill="#5A5564" d="M23.1,161.6C7.3,144.3-2.4,121.2-2.4,96c0-25.2,9.7-48.3,25.5-65.6l-6.9-6.9 C-1.4,42.6-12.2,68.1-12.2,96s10.8,53.4,28.3,72.5L23.1,161.6z" />
		<path fill="#5A5564" d="M160.6,167.9c-17.3,15.8-40.3,25.5-65.6,25.5c-25.2,0-48.3-9.7-65.6-25.5l-7,6.9 c19.1,17.6,44.6,28.3,72.5,28.3c27.9,0,53.4-10.8,72.5-28.3L160.6,167.9z" />
		<path fill="#5A5564" d="M173.9,23.5l-7,7c15.8,17.3,25.5,40.3,25.5,65.6c0,25.2-9.6,48.3-25.5,65.6l7,6.9 c17.6-19.1,28.3-44.6,28.3-72.5C202.2,68.1,191.4,42.6,173.9,23.5" />
		<path fill="#5A5564" d="M23.1,161.6C7.3,144.3-2.4,121.2-2.4,96c0-25.2,9.7-48.3,25.5-65.6l-6.9-6.9 C-1.4,42.6-12.2,68.1-12.2,96s10.8,53.4,28.3,72.5L23.1,161.6z" />
		<path fill="#5A5564" d="M160.6,167.9c-17.3,15.8-40.3,25.5-65.6,25.5c-25.2,0-48.3-9.7-65.6-25.5l-7,6.9 c19.1,17.6,44.6,28.3,72.5,28.3c27.9,0,53.4-10.8,72.5-28.3L160.6,167.9z" />
		<path fill="#F09242" d="M115.8,78.5c0,13.7-21.5,12.1-28.3,12.1l0-24.1C94.4,66.4,115.8,64.3,115.8,78.5 M121.4,116.1 c0,15-25.7,13.3-33.9,13.3l0-26.6C95.7,102.8,121.4,100.4,121.4,116.1 M138.4,73.1C137,58.8,124.6,54,109,52.6l0-19.9l-12.1,0 		l0,19.3c-3.2,0-6.4,0.1-9.7,0.1l0-19.5l-12.1,0l0,19.9c-2.6,0-5.2,0.1-7.7,0.1v-0.1l-16.7,0l0,12.9c0,0,8.9-0.2,8.8,0 		c4.9,0,6.5,2.8,7,5.3l0,22.6v0.1l0,31.7c-0.2,1.5-1.1,4-4.5,4c0.2,0.1-8.8,0-8.8,0l-2.4,14.4l15.7,0c2.9,0,5.8,0.1,8.6,0.1l0,20.1 		l12.1,0l0-19.9c3.2,0.1,6.4,0.1,9.7,0.1l0,19.8l12.1,0l0-20.1c20.3-1.2,34.6-6.3,36.3-25.4c1.4-15.4-5.8-22.2-17.3-25 C135,89.9,139.4,83.6,138.4,73.1" />
		<path fill="#282138" d="M95-19.2C31.5-19.2-20.2,32.5-20.2,96S31.5,211.2,95,211.2S210.2,159.5,210.2,96 S158.5-19.2,95-19.2 M95,221C26.1,221-30,164.9-30,96C-30,27.1,26.1-29,95-29S220,27.1,220,96C220,164.9,163.9,221,95,221" />
	</g>
</svg>