<?xml version="1.0" encoding="utf-8"?>
<!-- Generator: Adobe Illustrator 16.0.0, SVG Export Plug-In . SVG Version: 6.00 Build 0)  -->
<!DOCTYPE svg PUBLIC "-//W3C//DTD SVG 1.1//EN" "http://www.w3.org/Graphics/SVG/1.1/DTD/svg11.dtd">
<svg version="1.1" id="Layer_1" xmlns="http://www.w3.org/2000/svg" xmlns:xlink="http://www.w3.org/1999/xlink" x="0px" y="0px"
	 width="500px" height="500px" viewBox="0 0 500 500" enable-background="new 0 0 500 500" xml:space="preserve">
<g>
	<path fill-rule="evenodd" clip-rule="evenodd" fill="#171717" d="M450,250c0,65.333-0.034,130.667,0.097,196
		c0.007,3.425-0.673,4.098-4.097,4.095c-130.667-0.112-261.333-0.112-392,0c-3.424,0.003-4.098-0.671-4.095-4.095
		c0.112-130.667,0.112-261.333,0-392c-0.003-3.424,0.671-4.098,4.095-4.095c130.667,0.112,261.333,0.112,392,0
		c3.424-0.003,4.104,0.67,4.097,4.095C449.966,119.333,450,184.667,450,250z M230.159,325.537
		c-4.368-9.576-8.776-19.045-12.978-28.604c-0.938-2.135-2.504-1.805-4.092-1.914c-31.946-2.199-54.33-30.361-49.192-61.902
		c4.651-28.554,32.14-47.651,61.97-43.052c27.434,4.229,47.17,31,43.401,58.863c-0.223,1.638-0.392,3.182,0.391,4.85
		c5.629,11.996,11.141,24.047,16.733,36.174c19.213-23.434,23.861-67.17-0.791-100.042c-25.808-34.412-73.507-45.074-110.899-24.746
		c-38.103,20.715-55.179,64.815-40.638,104.953C148.222,309.191,190.284,333.578,230.159,325.537z M363.004,278.985
		c0-14.655-0.059-29.312,0.054-43.967c0.021-2.705-0.565-3.796-3.54-3.748c-10.49,0.169-20.984,0.138-31.476,0.011
		c-2.838-0.034-3.656,0.895-3.647,3.741c0.086,29.478,0.072,58.956-0.038,88.435c-0.011,2.884,0.891,3.643,3.682,3.603
		c10.324-0.148,20.654-0.202,30.975,0.027c3.328,0.074,4.103-0.928,4.065-4.135C362.907,308.299,363.003,293.642,363.004,278.985z
		 M286.361,327.026c0.116-0.984,0.201-1.173,0.145-1.298c-7.796-17.266-15.63-34.515-23.375-51.802
		c-1.102-2.459-2.891-2.726-5.23-2.705c-10.493,0.093-20.988,0.117-31.481,0.01c-3.155-0.032-4.721,0.074-2.911,3.976
		c7.628,16.435,14.99,32.992,22.413,49.521c0.7,1.559,1.71,2.315,3.436,2.312C261.668,327.016,273.978,327.026,286.361,327.026z
		 M363.029,191.62c0-1.995-0.14-4.003,0.03-5.984c0.321-3.748-1.135-3.7-4.006-2.374c-6.627,3.061-13.373,5.865-20.083,8.747
		c-14.886,6.394-14.726,6.387-14.766,22.792c-0.012,4.69,1.741,4.468,4.964,3.058c7.754-3.393,15.504-6.798,23.316-10.05
		C362.979,203.44,363.171,203.247,363.029,191.62z"/>
	<path fill-rule="evenodd" clip-rule="evenodd" fill="#FDFEFF" d="M230.159,325.537c-39.875,8.041-81.938-16.346-96.094-55.421
		c-14.541-40.138,2.535-84.238,40.638-104.953c37.392-20.328,85.092-9.666,110.899,24.746
		c24.652,32.872,20.004,76.608,0.791,100.042c-5.593-12.127-11.104-24.178-16.733-36.174c-0.782-1.668-0.613-3.212-0.391-4.85
		c3.769-27.863-15.968-54.635-43.401-58.863c-29.831-4.6-57.319,14.498-61.97,43.052c-5.138,31.541,17.246,59.703,49.192,61.902
		c1.587,0.109,3.154-0.221,4.092,1.914C221.383,306.492,225.792,315.961,230.159,325.537z"/>
	<path fill-rule="evenodd" clip-rule="evenodd" fill="#FDFEFF" d="M363.004,278.985c-0.001,14.656-0.097,29.313,0.074,43.967
		c0.037,3.207-0.737,4.209-4.065,4.135c-10.32-0.229-20.65-0.176-30.975-0.027c-2.791,0.04-3.692-0.719-3.682-3.603
		c0.11-29.479,0.124-58.957,0.038-88.435c-0.009-2.847,0.81-3.775,3.647-3.741c10.491,0.127,20.985,0.158,31.476-0.011
		c2.975-0.048,3.561,1.043,3.54,3.748C362.945,249.674,363.004,264.33,363.004,278.985z"/>
	<path fill-rule="evenodd" clip-rule="evenodd" fill="#22ADE0" d="M286.361,327.026c-12.384,0-24.693-0.011-37.004,0.014
		c-1.726,0.004-2.735-0.753-3.436-2.312c-7.423-16.529-14.785-33.087-22.413-49.521c-1.811-3.901-0.245-4.008,2.911-3.976
		c10.493,0.107,20.988,0.083,31.481-0.01c2.34-0.021,4.129,0.246,5.23,2.705c7.745,17.287,15.579,34.536,23.375,51.802
		C286.563,325.854,286.478,326.042,286.361,327.026z"/>
	<path fill-rule="evenodd" clip-rule="evenodd" fill="#22ADE0" d="M363.029,191.62c0.142,11.627-0.05,11.82-10.544,16.188
		c-7.813,3.252-15.563,6.657-23.316,10.05c-3.223,1.41-4.976,1.633-4.964-3.058c0.04-16.405-0.12-16.398,14.766-22.792
		c6.71-2.882,13.456-5.687,20.083-8.747c2.871-1.326,4.327-1.374,4.006,2.374C362.89,187.617,363.029,189.625,363.029,191.62z"/>
</g>
</svg>
