<?xml version="1.0" encoding="utf-8"?>
<!-- Generator: Adobe Illustrator 16.0.0, SVG Export Plug-In . SVG Version: 6.00 Build 0)  -->
<!DOCTYPE svg PUBLIC "-//W3C//DTD SVG 1.1//EN" "http://www.w3.org/Graphics/SVG/1.1/DTD/svg11.dtd">
<svg version="1.1" id="Layer_1" xmlns="http://www.w3.org/2000/svg" xmlns:xlink="http://www.w3.org/1999/xlink" x="0px" y="0px"
	 width="500px" height="500px" viewBox="0 0 500 500" enable-background="new 0 0 500 500" xml:space="preserve">
<g>
	<path fill="#F15A49" d="M308.265,173.603c20.641,38.21,41.318,76.401,61.898,114.646c5.626,10.464,10.957,21.088,16.426,31.64
		c-14.557,3.723-29.453,1.146-44.134,1.7c-38.04,1.435-76.182,1.024-114.259,0.22c-15.756-0.332-31.895-1.377-47.261-0.524
		c-16.46,0.911-32.853-3.013-49.248,0.485c-5.934,1.266-12.643,1.496-18.475-2.052c17.241-32.626,34.398-65.294,51.756-97.857
		c7.496-14.061,15.406-27.899,23.126-41.838c2.983-0.073,4.663,2.105,6.726,3.748c26.253,20.878,54.249,26.436,85.634,11.394
		C291.566,189.838,299.533,181.467,308.265,173.603z M241.184,250.09c28.192-0.313,48.9-11.505,66.183-29.89
		c4.06-4.323,0.433-5.275-3.1-6.169c-11.578-2.938-23.397-0.333-35.125-1.782c-18.514-2.288-36.977,2.538-55.572,1.851
		c-8.124-0.301-16.108-2.569-24.472-0.264c-5.402,1.489-6.212,3.288-2.923,7.229C201.12,238.98,220.276,248.655,241.184,250.09z
		 M227.45,272.303c0.001,0.582,0.003,1.165,0.003,1.747c-6.31,0-12.624-0.108-18.929,0.043c-3.468,0.085-8.118-1.362-9.498,3.175
		c-1.324,4.344,3.565,5.129,6.046,6.711c30.866,19.677,57.674,13.996,85.011-1.377c2.61-1.467,4.769-4.013,3.166-7.477
		c-1.313-2.838-3.962-2.893-6.796-2.877C266.787,272.354,247.118,272.303,227.45,272.303z"/>
	<path fill="#F04C4B" d="M113.212,319.718c5.832,3.548,12.541,3.316,18.475,2.052c16.395-3.498,32.788,0.426,49.248-0.485
		c15.366-0.853,31.505,0.192,47.261,0.524c38.078,0.807,76.219,1.215,114.259-0.22c14.681-0.556,29.577,2.021,44.134-1.7
		c2.837,4.867,5.9,9.619,8.463,14.625c9.225,17.998,6.189,35.687-8.05,48.09c-14.701,12.81-32.713,13.609-49.553,1.774
		c-19.622-13.792-39.057-27.849-58.541-41.831c-21.141-15.172-36.303-15.38-57.478-0.406c-19.34,13.674-38.514,27.584-57.833,41.289
		c-17.928,12.722-36.508,12.299-51.213-0.986c-14.45-13.051-16.884-30.998-6.673-49.83
		C108.081,328.243,110.706,324.014,113.212,319.718z"/>
	<path fill="#F04C4B" d="M308.265,173.603c-8.73,7.864-16.696,16.235-27.81,21.561c-31.385,15.042-59.381,9.484-85.634-11.394
		c-2.063-1.643-3.743-3.821-6.726-3.748c8.742-19.342,18.399-38.286,29.744-56.16c15.013-23.65,49.739-23.374,64.367,0.516
		C291.882,140.18,299.646,157.153,308.265,173.603z"/>
	<path fill="#F04C4B" d="M241.184,250.09c-20.907-1.435-40.064-11.11-55.009-29.024c-3.289-3.941-2.479-5.74,2.923-7.229
		c8.364-2.306,16.348-0.038,24.472,0.264c18.596,0.687,37.059-4.139,55.573-1.851c11.727,1.449,23.547-1.156,35.123,1.782
		c3.532,0.895,7.159,1.847,3.101,6.169C290.084,238.584,269.376,249.777,241.184,250.09z"/>
	<path fill="#F04C4B" d="M227.45,272.303c19.668,0,39.337,0.051,59.004-0.055c2.834-0.016,5.481,0.039,6.796,2.877
		c1.602,3.464-0.555,6.01-3.166,7.477c-27.337,15.373-54.146,21.054-85.011,1.377c-2.481-1.582-7.371-2.367-6.046-6.711
		c1.38-4.537,6.029-3.09,9.498-3.175c6.305-0.151,12.62-0.043,18.929-0.043C227.453,273.468,227.451,272.885,227.45,272.303z"/>
</g>
</svg>
