<svg width="699" height="178" viewBox="0 0 699 178" fill="none" xmlns="http://www.w3.org/2000/svg">
<g clip-path="url(#clip0_4978_230280)">
<path d="M235.412 104.301H250.728C250.728 109.484 253.32 112.861 263.119 112.861C272.013 112.861 275.168 110.269 275.168 106.213C275.168 104.188 274.154 102.611 271.228 101.939C268.298 101.263 263.795 100.812 258.274 100.357C250.281 99.6812 244.084 98.4458 240.708 96.0795C237.553 93.8259 235.412 89.7735 235.412 85.1577C235.412 73.109 247.798 66.4609 263.228 66.4609C281.474 66.4609 289.808 73.4471 289.808 86.397H274.717C274.604 80.5378 271.904 77.4995 263.457 77.4995C255.799 77.4995 252.418 80.0871 252.418 83.9181C252.418 86.2803 253.32 88.0832 256.475 88.8719C259.288 89.5481 264.242 89.9988 270.214 90.5622C277.083 91.2383 281.924 91.9143 286.089 94.2807C289.695 96.3049 292.287 100.474 292.287 105.315C292.287 117.026 282.262 123.899 263.228 123.899C243.634 123.899 235.412 115.565 235.412 104.301H235.412Z" fill="#F2F2F2"/>
<path d="M304.559 103.854V80.658H296.338V67.3658H302.982C305.574 67.3658 306.475 65.9051 306.813 62.5246L307.602 54.7539H321.679V67.3658H339.47V80.658H321.679V102.952C321.679 108.699 324.379 110.498 331.135 110.498C333.502 110.498 336.995 110.16 338.907 109.709V122.659C337.442 122.997 332.713 123.903 328.097 123.903C310.753 123.903 304.559 116.244 304.559 103.854V103.854Z" fill="#F2F2F2"/>
<path fill-rule="evenodd" clip-rule="evenodd" d="M344.421 107.005C344.421 97.8823 350.952 91.2384 365.705 91.2384H383.834V87.5239C383.834 80.7632 380.007 78.0589 372.124 78.0589C365.705 78.0589 361.987 80.7632 361.987 85.2662C361.987 85.6044 361.987 86.5099 362.1 87.6326H346.336C346.22 86.7351 346.107 85.4957 346.107 84.3689C346.107 73.109 356.019 66.4609 372.913 66.4609C390.591 66.4609 400.954 74.3446 400.954 89.2101V122.994H383.834C384.173 120.181 384.623 115.11 384.623 111.734H384.511C382.82 119.617 376.514 123.899 366.381 123.899C353.427 123.899 344.421 118.265 344.421 107.005V107.005ZM383.835 101.603V100.477H367.283C362.664 100.477 359.851 102.613 359.851 105.768C359.851 110.046 363.565 112.3 369.758 112.3C378.656 112.3 383.835 108.36 383.835 101.603V101.603Z" fill="#F2F2F2"/>
<path d="M408.944 67.3624H426.06L425.384 83.2422H425.609C427.975 72.6543 433.943 66.4609 444.869 66.4609C456.242 66.4609 462.89 73.781 462.89 88.196C462.89 91.3511 462.552 96.3049 462.326 99.2345H446.785C447.006 96.5302 447.123 93.7172 447.123 92.027C447.123 83.9182 443.855 80.6544 438.45 80.6544C431.13 80.6544 426.06 86.6185 426.06 99.0051V122.994H408.944L408.944 67.3624Z" fill="#F2F2F2"/>
<path fill-rule="evenodd" clip-rule="evenodd" d="M529.221 127.616C529.221 140.341 517.845 147.101 498.588 147.101C478.994 147.101 467.393 141.693 467.393 132.457C467.393 126.602 471.224 122.996 477.417 122.32V122.211C474.037 120.07 472.234 117.028 472.234 113.088C472.234 107.797 474.938 104.529 479.107 102.613V102.5C473.248 99.1242 469.984 93.607 469.984 86.3995C469.984 73.8963 479.671 66.4633 495.997 66.4633C502.528 66.4633 507.937 67.59 512.102 69.8436L512.215 69.6183C509.961 67.59 508.951 65.3365 508.951 63.3083C508.951 58.6963 513.567 55.9922 520.662 55.9922C523.704 55.9922 525.281 56.2175 526.855 56.5555V67.3647C525.841 67.1394 524.714 67.0267 523.475 67.0267C519.873 67.0267 518.183 68.6041 518.183 71.1917C518.183 72.5439 518.633 74.2342 519.422 76.2624C521.225 79.0752 522.123 82.4557 522.123 86.3995C522.123 98.8989 512.44 106.215 495.997 106.215C492.621 106.215 489.582 105.881 486.761 105.317C486.315 105.994 485.751 107.346 485.751 108.919C485.751 111.398 487.776 112.863 491.156 112.863H509.176C521.789 112.863 529.221 118.38 529.221 127.616L529.221 127.616ZM512.103 129.983C512.103 126.94 509.854 125.25 504.896 125.25H491.721C487.101 125.25 484.4 127.165 484.4 130.321C484.4 134.486 489.584 136.735 498.364 136.735C507.037 136.735 512.103 134.373 512.103 129.983ZM486.084 86.3965C486.084 92.0263 489.802 95.4027 495.996 95.4027C502.306 95.4027 506.02 92.0263 506.02 86.3965C506.02 80.6539 502.306 77.2734 495.996 77.2734C489.802 77.2734 486.084 80.6539 486.084 86.3965Z" fill="#F2F2F2"/>
<path fill-rule="evenodd" clip-rule="evenodd" d="M533.048 107.005C533.048 97.8823 539.579 91.2384 554.332 91.2384H572.461V87.5239C572.461 80.7632 568.634 78.0589 560.751 78.0589C554.332 78.0589 550.618 80.7632 550.618 85.2662C550.618 85.6044 550.618 86.5099 550.726 87.6326H534.963C534.851 86.7351 534.734 85.4957 534.734 84.3689C534.734 73.109 544.646 66.4609 561.54 66.4609C579.218 66.4609 589.581 74.3446 589.581 89.2101V122.994H572.461C572.8 120.181 573.254 115.11 573.254 111.734H573.137C571.447 119.617 565.141 123.899 555.008 123.899C542.058 123.899 533.048 118.265 533.048 107.005V107.005ZM572.462 101.603V100.477H555.911C551.291 100.477 548.478 102.613 548.478 105.768C548.478 110.046 552.192 112.3 558.385 112.3C567.283 112.3 572.462 108.36 572.462 101.603V101.603Z" fill="#F2F2F2"/>
<path d="M602.302 103.854V80.658H594.08V67.3658H600.728C603.316 67.3658 604.217 65.9051 604.555 62.5246L605.344 54.7539H619.421V67.3658H637.216V80.658H619.421V102.952C619.421 108.699 622.125 110.498 628.882 110.498C631.248 110.498 634.737 110.16 636.648 109.709V122.659C635.188 122.997 630.455 123.903 625.839 123.903C608.495 123.903 602.302 116.244 602.302 103.854V103.854Z" fill="#F2F2F2"/>
<path fill-rule="evenodd" clip-rule="evenodd" d="M697.799 98.4457H658.269C659.058 107.565 663.673 111.508 671.332 111.508C677.976 111.508 682.254 109.146 682.708 103.738H697.799C697.461 116.462 686.874 123.899 670.994 123.899C652.526 123.899 641.037 113.42 641.037 95.7415C641.037 77.3827 652.526 66.4609 671.332 66.4609C686.874 66.4609 697.799 75.3586 697.799 93.6045V98.4457ZM682.709 88.4253C682.709 82.1193 678.428 78.8555 671.333 78.8555C664.125 78.8555 660.073 82.0066 658.721 89.3267H682.709V88.4253Z" fill="#F2F2F2"/>
<g clip-path="url(#clip1_4978_230280)">
<g clip-path="url(#clip2_4978_230280)">
<path d="M106.077 8.00144L110.761 18.9721C119.954 40.5125 137.111 57.67 158.652 66.8631L169.623 71.5467C172.494 72.7709 174.825 74.5269 176.624 76.6182C171.16 37.4453 140.179 6.4592 101.006 1C103.093 2.79491 104.853 5.13013 106.077 8.00144H106.077Z" fill="#999999"/>
<path d="M7.62546 71.5467L18.5962 66.8631C40.1367 57.67 57.2941 40.5125 66.4915 18.9721L71.1708 8.00144C72.3993 5.13013 74.1554 2.79491 76.2421 1C37.0694 6.4592 6.08745 37.4453 0.624023 76.6182C2.42332 74.5269 4.75431 72.771 7.62546 71.5467Z" fill="#999999"/>
<path d="M169.623 106.45L158.652 111.134C137.111 120.327 119.954 137.489 110.761 159.029L106.077 169.996C104.853 172.867 103.093 175.202 101.006 177.001C140.179 171.538 171.16 140.552 176.624 101.379C174.825 103.47 172.494 105.226 169.623 106.45H169.623Z" fill="#999999"/>
<path d="M71.1708 169.996L66.4915 159.029C57.2941 137.489 40.1367 120.327 18.5962 111.134L7.62546 106.45C4.75431 105.226 2.42332 103.47 0.624023 101.379C6.08745 140.552 37.0694 171.538 76.2421 177.001C74.1554 175.202 72.3993 172.867 71.1708 169.996Z" fill="#999999"/>
</g>
<path d="M48.7085 80.3947L54.1153 78.0856C64.7289 73.5542 73.1855 65.1021 77.7168 54.4885L80.0216 49.0816C83.2544 41.5093 93.9897 41.5093 97.2225 49.0816L99.5271 54.4885C104.058 65.1021 112.515 73.5543 123.129 78.0856L128.535 80.3947C136.108 83.6274 136.108 94.3585 128.535 97.5915L123.129 99.9005C112.515 104.432 104.058 112.884 99.5271 123.502L97.2225 128.904C93.9897 136.477 83.2544 136.477 80.0216 128.904L77.7168 123.502C73.1855 112.884 64.7289 104.432 54.1153 99.9005L48.7085 97.5915C41.1362 94.3585 41.1362 83.6274 48.7085 80.3947Z" fill="#F2F2F2"/>
</g>
</g>
<defs>
<clipPath id="clip0_4978_230280">
<rect width="697.176" height="176" fill="white" transform="translate(0.621094 1)"/>
</clipPath>
<clipPath id="clip1_4978_230280">
<rect width="176.001" height="176" fill="white" transform="translate(0.62207 1)"/>
</clipPath>
<clipPath id="clip2_4978_230280">
<rect width="176.001" height="176" fill="white" transform="translate(0.623047 1)"/>
</clipPath>
</defs>
</svg>
