<svg width="433" height="72" viewBox="0 0 433 72" fill="none" xmlns="http://www.w3.org/2000/svg">
<path d="M55.7656 6.34961H93.8266V13.376H63.583V25.2238H81.6778V32.3353H63.583V46.8091H96.5479V53.9206H55.7656V6.34961Z" fill="white"/>
<path d="M123.985 38.2597L109.799 53.9164H100.453L119.312 33.0976L100.367 12.1084H110.393L124.156 27.5948L138.172 12.1084H147.604L128.83 32.8468L147.604 53.9211H138.086L123.985 38.2644V38.2597Z" fill="white"/>
<path d="M169.822 18.1973C162.09 18.1973 156.566 24.7978 156.566 33.0071C156.566 41.2163 162.09 47.8168 169.903 47.8168C178.399 47.8168 181.543 42.314 182.222 40.8756H189.869C189.446 43.8376 184.939 54.9236 169.903 54.9236C157.925 54.9236 148.578 45.3611 148.578 33.0023C148.578 20.6435 157.839 11.0811 169.817 11.0811C185.024 11.0811 189.185 22.0015 189.864 25.129H182.046C181.367 23.7758 178.223 18.1878 169.812 18.1878L169.822 18.1973Z" fill="white"/>
<path d="M260.673 27.6798H275.03C275.03 21.2497 270.101 17.7767 263.224 17.7767C256.347 17.7767 253.454 21.6708 252.775 23.024H244.958C246.064 18.0322 251.668 11.0059 263.224 11.0059C275.458 11.0059 282.425 17.8619 282.425 27.5947V43.0858C282.425 46.0477 283.446 47.1502 286.163 47.4009V54.3421C280.131 54.1718 276.479 51.9716 275.372 47.8268C273.335 50.9591 268.918 54.8531 261.438 54.8531C251.497 54.8531 243.766 49.3503 243.766 40.72C243.766 32.0896 250.139 27.6846 260.673 27.6846V27.6798ZM275.03 38.0893V33.7741H261.015C255.24 33.7741 251.497 36.0594 251.497 40.7153C251.497 45.3711 256.085 48.4182 262.117 48.4182C268.913 48.4182 275.03 45.1156 275.03 38.094V38.0893Z" fill="white"/>
<path d="M300.646 53.9159H292.914V12.1079H300.646V19.8109C302.261 16.4278 307.1 11.1758 314.918 11.1758C325.537 11.1758 332.841 19.0491 332.841 29.8796V53.9159H325.024V31.318C325.024 23.4447 320.265 18.2826 313.046 18.2826C305.827 18.2826 300.641 23.7002 300.641 31.318V53.9159H300.646Z" fill="white"/>
<path d="M432.847 33.9444H397.93C398.352 41.7325 403.961 47.8267 412.201 47.8267C420.442 47.8267 424.008 43.3412 424.692 41.988H432.339C431.659 45.6266 426.307 54.9382 412.206 54.9382C399.207 54.9382 390.117 45.2906 390.117 33.017C390.117 20.7433 399.207 11.0957 411.442 11.0957C423.676 11.0957 432.851 20.2371 432.851 33.9491L432.847 33.9444ZM398.438 27.5142H424.265C422.313 21.1644 417.81 17.6962 411.437 17.6962C404.641 17.6962 400.053 21.4199 398.438 27.5142Z" fill="white"/>
<path d="M375.656 46.8093C374.55 49.0095 369.962 55.0185 360.364 55.0185C349.15 55.0185 339.633 46.8945 339.633 33.0973C339.633 19.3001 349.146 11.0908 360.364 11.0908C369.876 11.0908 374.55 16.8444 375.656 19.1297V12.1034H383.388V52.0235C383.388 63.7861 375.742 72.0001 361.385 72.0001C345.076 72.0001 340.654 61.4203 339.975 58.7943H348.471C349.065 59.8116 352.038 64.8885 361.385 64.8885C370.731 64.8885 375.656 60.1475 375.656 52.0235V46.8046V46.8093ZM361.807 18.2023C353.225 18.2023 347.621 24.6325 347.621 33.0973C347.621 41.562 353.23 47.907 361.807 47.907C370.385 47.907 375.823 41.3065 375.823 33.0973C375.823 24.888 370.214 18.2023 361.807 18.2023Z" fill="white"/>
<path d="M204.841 53.916H197.109V0H204.841V19.8063C206.456 16.4185 211.296 11.1712 219.113 11.1712C229.732 11.1712 237.037 19.0398 237.037 29.875V53.9113H229.219V31.3134C229.219 23.4448 224.461 18.278 217.242 18.278C210.023 18.278 204.837 23.6956 204.837 31.3134V53.9113L204.841 53.916Z" fill="white"/>
<path d="M23.0009 18.0834L41.5327 8.28914L38.4171 2.36523L21.4479 9.15501C21.0109 9.33008 20.5265 9.33008 20.0896 9.15501L3.11555 2.36523L0 8.28914L18.5318 18.0834L0 27.873L3.11555 33.7969L20.0848 27.0071C20.5218 26.8321 21.0062 26.8321 21.4431 27.0071L38.4124 33.7969L41.5279 27.873L22.9961 18.0787L23.0009 18.0834Z" fill="#A932E0"/>
</svg>
