<svg width="282" height="62" viewBox="0 0 282 62" fill="none" xmlns="http://www.w3.org/2000/svg">
<path d="M53.3604 14.166H92.6595V21.1677H61.1882V33.0003H79.45V40.0021H61.1882V61.0026H53.3604V14.166Z" fill="white"/>
<path d="M111.024 35.1666H125.245C125.245 28.8357 120.362 25.4163 113.551 25.4163C106.739 25.4163 103.874 29.2503 103.201 30.5826H95.4581C96.5542 25.6679 102.105 18.75 113.551 18.75C125.669 18.75 132.57 25.5002 132.57 35.0827V50.33C132.57 53.2462 133.581 54.3316 136.272 54.5785V61.4126C130.298 61.2449 126.68 59.0786 125.584 54.9978C123.566 58.0817 119.191 61.9157 111.782 61.9157C101.936 61.9157 94.2773 56.4978 94.2773 48.0007C94.2773 39.5036 100.59 35.1666 111.024 35.1666ZM125.245 45.4153V41.1667H111.363C105.643 41.1667 101.936 43.4168 101.936 48.0007C101.936 52.5847 106.48 55.5848 112.454 55.5848C119.186 55.5848 125.245 52.3331 125.245 45.4199V45.4153Z" fill="white"/>
<path d="M151.005 60.9987H143.432V7.91504H151.005V26.8332C151.932 24.7509 156.81 18.8346 166.153 18.8346C177.26 18.8346 186.602 26.8332 186.602 40.4174C186.602 54.0016 177.26 62.0002 166.153 62.0002C157.065 62.0002 151.932 56.3355 151.005 54.3324V60.9987ZM164.808 54.9985C173.224 54.9985 178.775 48.6676 178.775 40.4174C178.775 32.1672 173.219 25.8363 164.808 25.8363C156.397 25.8363 150.841 32.088 150.841 40.4174C150.841 48.7468 156.397 54.9985 164.808 54.9985Z" fill="white"/>
<path d="M225.851 0H233.843V11.9164H225.851V0ZM226.02 19.8312H233.678V60.9984H226.02V19.8312Z" fill="white"/>
<path d="M262.144 25.8316C254.485 25.8316 249.014 32.3302 249.014 40.4127C249.014 48.4952 254.485 54.9938 262.224 54.9938C270.639 54.9938 273.754 49.576 274.426 48.1598H282C281.581 51.076 277.117 61.9909 262.224 61.9909C250.359 61.9909 241.102 52.576 241.102 40.408C241.102 28.24 250.275 18.8252 262.139 18.8252C277.202 18.8252 281.323 29.577 281.995 32.6563H274.252C273.58 31.324 270.465 25.8223 262.134 25.8223L262.144 25.8316Z" fill="white"/>
<path d="M22.7826 25.7197L41.1385 16.0766L38.0525 10.2441L21.2443 16.9291C20.8115 17.1015 20.3317 17.1015 19.8989 16.9291L3.08598 10.2488L0 16.0766L18.3559 25.7197L0 35.3628L3.08598 41.1952L19.8942 34.5103C20.327 34.3379 20.8068 34.3379 21.2396 34.5103L38.0478 41.1952L41.1338 35.3628L22.7779 25.7197H22.7826Z" fill="#23F7DD"/>
<path d="M201.952 60.6628H194.393V19.831H201.952V27.3172C203.114 24.3544 206.605 19.5049 216.239 19.5049H220.67V26.9911H216.074C205.527 26.9911 201.957 30.4896 201.957 37.7243V60.6721L201.952 60.6628Z" fill="white"/>
</svg>
