<svg width="453" height="73" viewBox="0 0 453 73" fill="none" xmlns="http://www.w3.org/2000/svg">
<path d="M273.754 72.4602H265.75L273.244 56.1371L253.969 15.3174H262.83L277.372 47.0944L291.914 15.3174H300.001L273.745 72.4555L273.754 72.4602Z" fill="white"/>
<path d="M23.2949 20.8706L42.0635 10.9831L38.9081 5L21.7172 11.8577C21.2747 12.0345 20.784 12.0345 20.3415 11.8577L3.15536 5L0 10.9831L18.7686 20.8754L0 30.7629L3.15536 36.746L20.3415 29.8884C20.784 29.7115 21.2747 29.7115 21.7172 29.8884L38.9033 36.746L42.0587 30.7629L23.29 20.8706H23.2949Z" fill="#6932D4"/>
<path d="M80.7696 45.8998L96.3307 8.96875H107.937V57.1228H100.286V16.3406L83.0908 57.3815H77.5882L60.5661 16.5945V57.1228H53.1748V8.96875H65.295L80.7696 45.8998V45.8998Z" fill="white"/>
<path d="M157.936 36.3488C157.936 48.7384 148.452 58.1742 136.111 58.1742C123.769 58.1742 114.285 48.7384 114.285 36.3488C114.285 23.9593 123.684 14.5234 136.111 14.5234C148.537 14.5234 157.936 23.9593 157.936 36.3488ZM150.048 36.3488C150.048 28.0059 144.426 21.6039 136.115 21.6039C127.805 21.6039 122.183 28.1755 122.183 36.3488C122.183 44.5222 127.805 51.0938 136.115 51.0938C144.426 51.0938 150.048 44.6918 150.048 36.3488Z" fill="white"/>
<path d="M172.765 56.5869H165.08V15.4408H172.765V23.0218C174.369 19.6923 179.179 14.5234 186.949 14.5234C197.503 14.5234 204.763 22.2721 204.763 32.9312V56.5869H196.993V34.3468C196.993 26.5981 192.264 21.5177 185.089 21.5177C177.914 21.5177 172.76 26.8496 172.76 34.3468V56.5869H172.765Z" fill="white"/>
<path d="M252.377 37.2722H218.656C219.064 45.0262 224.481 51.0938 232.439 51.0938C240.396 51.0938 243.841 46.6279 244.501 45.2806H251.886C251.23 48.9033 246.061 58.1742 232.443 58.1742C219.89 58.1742 211.111 48.5688 211.111 36.3488C211.111 24.1289 219.89 14.5234 231.705 14.5234C243.52 14.5234 252.381 23.6248 252.381 37.2769L252.377 37.2722ZM219.147 30.8701H244.089C242.204 24.5481 237.856 21.0951 231.7 21.0951C225.137 21.0951 220.706 24.8025 219.147 30.8701V30.8701Z" fill="white"/>
<path d="M324.71 58.0003H333.074V33.3101H355.512V25.9111H333.074V9.10245H360.82V1.70343H324.71V58.0003Z" fill="white"/>
<path d="M368.271 0.49707V10.3088H376.957V0.49707H368.271ZM368.753 58.0003H376.555V17.4666H368.753V58.0003Z" fill="white"/>
<path d="M402.349 16.8232C392.778 16.8232 385.54 22.7746 384.897 30.7366H392.135C392.376 26.6349 396.478 23.0963 402.108 23.0963C408.381 23.0963 411.919 26.4741 411.919 31.3799C411.919 32.8276 411.035 33.7927 409.185 33.7927H400.74C391.17 33.7927 384.977 38.6181 384.977 46.4193C384.977 53.6574 390.446 58.6437 398.73 58.6437C404.842 58.6437 409.989 55.7485 411.919 51.4056V58.0003H419.72V31.8625C419.72 22.855 412.804 16.8232 402.349 16.8232ZM400.258 52.4511C395.754 52.4511 392.698 49.9579 392.698 46.2584C392.698 41.9959 396.156 39.2615 401.464 39.2615H411.919V40.2266C411.919 47.706 407.657 52.4511 400.258 52.4511Z" fill="white"/>
<path d="M433.029 4.75955V17.4666H424.746V24.2222H433.029V44.7304C433.029 53.014 438.257 58.0003 446.46 58.0003H452.814V51.2447H447.104C443.163 51.2447 440.83 48.832 440.83 44.4891V24.2222H452.814V17.4666H440.83V4.75955H433.029Z" fill="white"/>
</svg>
