<svg width="568" height="74" viewBox="0 0 568 74" fill="none" xmlns="http://www.w3.org/2000/svg">
<path d="M273.754 71.4602H265.75L273.244 55.1371L253.969 14.3174H262.83L277.372 46.0944L291.914 14.3174H300.001L273.745 71.4555L273.754 71.4602Z" fill="white"/>
<path d="M23.2949 19.8706L42.0635 9.98315L38.9081 4L21.7172 10.8577C21.2747 11.0345 20.784 11.0345 20.3415 10.8577L3.15536 4L0 9.98315L18.7686 19.8754L0 29.7629L3.15536 35.746L20.3415 28.8884C20.784 28.7115 21.2747 28.7115 21.7172 28.8884L38.9033 35.746L42.0587 29.7629L23.29 19.8706H23.2949Z" fill="#6932D4"/>
<path d="M80.7696 44.8998L96.3307 7.96875H107.937V56.1228H100.286V15.3406L83.0908 56.3815H77.5882L60.5661 15.5945V56.1228H53.1748V7.96875H65.295L80.7696 44.8998Z" fill="white"/>
<path d="M157.936 35.3488C157.936 47.7384 148.452 57.1742 136.111 57.1742C123.769 57.1742 114.285 47.7384 114.285 35.3488C114.285 22.9593 123.684 13.5234 136.111 13.5234C148.537 13.5234 157.936 22.9593 157.936 35.3488ZM150.048 35.3488C150.048 27.0059 144.426 20.6039 136.115 20.6039C127.805 20.6039 122.183 27.1755 122.183 35.3488C122.183 43.5222 127.805 50.0938 136.115 50.0938C144.426 50.0938 150.048 43.6918 150.048 35.3488Z" fill="white"/>
<path d="M172.765 55.5869H165.08V14.4408H172.765V22.0218C174.369 18.6923 179.179 13.5234 186.949 13.5234C197.503 13.5234 204.763 21.2721 204.763 31.9312V55.5869H196.993V33.3468C196.993 25.5981 192.264 20.5177 185.089 20.5177C177.914 20.5177 172.76 25.8496 172.76 33.3468V55.5869H172.765Z" fill="white"/>
<path d="M252.377 36.2722H218.656C219.064 44.0262 224.481 50.0938 232.439 50.0938C240.396 50.0938 243.841 45.6279 244.501 44.2806H251.886C251.23 47.9033 246.061 57.1742 232.443 57.1742C219.89 57.1742 211.111 47.5688 211.111 35.3488C211.111 23.1289 219.89 13.5234 231.705 13.5234C243.52 13.5234 252.381 22.6248 252.381 36.2769L252.377 36.2722ZM219.147 29.8701H244.089C242.204 23.5481 237.856 20.0951 231.7 20.0951C225.137 20.0951 220.706 23.8025 219.147 29.8701Z" fill="white"/>
<path d="M349.642 57.6433C362.67 57.6433 372.724 49.9225 373.93 38.9044H365.485C364.601 45.4992 357.925 50.2442 349.561 50.2442C338.624 50.2442 330.742 42.7648 330.742 28.8514C330.742 14.938 338.624 7.45859 349.561 7.45859C357.765 7.45859 364.359 12.2036 365.324 18.7984H374.091C372.563 7.78028 362.429 0.0595703 349.642 0.0595703C335.326 0.0595703 322.137 9.54962 322.137 28.8514C322.137 48.1532 335.165 57.6433 349.642 57.6433Z" fill="white"/>
<path d="M405.04 23.2217V16.4661H400.134C394.424 16.4661 391.207 18.8788 389.357 24.2672V16.4661H381.556V56.9999H389.357V38.6632C389.357 29.8165 391.77 23.2217 399.169 23.2217H405.04Z" fill="white"/>
<path d="M444.775 16.4661H436.732L426.036 46.8664L415.42 16.4661H407.378L422.417 57.402L416.948 73.4064H424.427L430.54 55.5522L444.775 16.4661Z" fill="white"/>
<path d="M451.072 73.4064H458.873V51.2898C461.206 55.1501 466.031 57.6433 471.42 57.6433C483.725 57.6433 491.043 48.7966 491.043 36.733C491.043 24.6694 484.046 15.8227 471.822 15.8227C466.192 15.8227 461.286 18.4767 458.873 22.4979V16.4661H451.072V73.4064ZM470.696 50.8072C463.136 50.8072 458.23 45.1775 458.23 36.733C458.23 28.2884 463.136 22.6588 470.696 22.6588C478.175 22.6588 483.162 28.2884 483.162 36.733C483.162 45.1775 478.175 50.8072 470.696 50.8072Z" fill="white"/>
<path d="M502.773 3.75908V16.4661H494.489V23.2217H502.773V43.7299C502.773 52.0136 508 56.9999 516.203 56.9999H522.557V50.2442H516.847C512.906 50.2442 510.574 47.8315 510.574 43.4886V23.2217H522.557V16.4661H510.574V3.75908H502.773Z" fill="white"/>
<path d="M546.845 57.6433C558.989 57.6433 567.675 48.877 567.675 36.733C567.675 24.5889 558.989 15.8227 546.845 15.8227C534.701 15.8227 525.935 24.5889 525.935 36.733C525.935 48.877 534.701 57.6433 546.845 57.6433ZM546.845 50.8072C539.124 50.8072 533.897 45.0167 533.897 36.733C533.897 28.4493 539.124 22.6588 546.845 22.6588C554.485 22.6588 559.713 28.4493 559.713 36.733C559.713 45.0167 554.485 50.8072 546.845 50.8072Z" fill="white"/>
</svg>
