<svg width="282" height="55" viewBox="0 0 282 55" fill="none" xmlns="http://www.w3.org/2000/svg">
<path d="M53.3144 6.97168H79.2374C89.9674 6.97168 95.8027 12.0153 95.8027 21.0965C95.8027 30.1778 89.9674 35.3905 79.2374 35.3905H61.2947V54.2252H53.3096V6.97168H53.3144ZM61.2995 14.1163V28.2412H79.0694C84.8183 28.2412 87.568 25.4679 87.568 21.1764C87.568 16.8849 84.9095 14.1116 79.0694 14.1116H61.2995V14.1163Z" fill="white"/>
<path d="M144.477 32.9222C144.477 45.4548 134.741 54.9997 122.071 54.9997C109.402 54.9997 99.666 45.4548 99.666 32.9222C99.666 20.3896 109.315 10.8447 122.071 10.8447C134.828 10.8447 144.477 20.3896 144.477 32.9222ZM136.379 32.9222C136.379 24.4829 130.603 18.0069 122.076 18.0069C113.55 18.0069 107.774 24.6545 107.774 32.9222C107.774 41.1899 113.545 47.8375 122.076 47.8375C130.608 47.8375 136.379 41.3615 136.379 32.9222Z" fill="white"/>
<path d="M241.773 27.6385H256.163C256.163 21.1625 251.222 17.6648 244.329 17.6648C237.437 17.6648 234.538 21.5866 233.857 22.9495H226.022C227.131 17.9221 232.748 10.8457 244.329 10.8457C256.591 10.8457 263.574 17.7506 263.574 27.5527V43.1494C263.574 46.1325 264.598 47.2428 267.32 47.4953V54.486C261.275 54.3144 257.615 52.0986 256.505 47.9242C254.463 51.0788 250.036 55.0006 242.539 55.0006C232.577 55.0006 224.827 49.4586 224.827 40.7668C224.827 32.075 231.215 27.6385 241.773 27.6385ZM256.163 38.1221V33.7762H242.116C236.327 33.7762 232.577 36.0778 232.577 40.7668C232.577 45.4558 237.175 48.5246 243.22 48.5246C250.032 48.5246 256.163 45.1985 256.163 38.1268V38.1221Z" fill="white"/>
<path d="M274.274 0H282V54.2254H274.274V0Z" fill="white"/>
<path d="M219.419 54.2209H209.468C199.688 54.2209 194.753 49.5428 194.753 40.1865V19.1825H182.334V12.2082H194.753V2.32422H202.493V12.2082H219.419V19.1825H202.493V38.4037C202.493 44.5271 204.447 47.0801 211.17 47.0801H219.419V54.2256V54.2209Z" fill="white"/>
<path d="M159.209 54.2258H151.43V11.9549H159.209V19.641C160.405 16.5991 163.997 11.6201 173.911 11.6201H178.471V19.3062H173.741C162.888 19.3062 159.214 22.8981 159.214 30.3258V54.2258H159.209Z" fill="white"/>
<path d="M23.1049 18.5939L41.7205 8.93852L38.5909 3.09863L21.5449 9.79211C21.106 9.9647 20.6193 9.9647 20.1804 9.79211L3.12964 3.09863L0 8.93852L18.6156 18.5939L0 28.2447L3.12964 34.0845L20.1757 27.3911C20.6146 27.2185 21.1012 27.2185 21.5401 27.3911L38.5861 34.0845L41.7158 28.2447L23.1002 18.5893L23.1049 18.5939Z" fill="#23F7DD"/>
</svg>
