<svg width="401" height="79" viewBox="0 0 401 79" fill="none" xmlns="http://www.w3.org/2000/svg">
<path d="M61.9397 26.2043C61.9397 29.602 64.8414 31.5952 70.149 32.2581L78.7708 33.1713C87.3927 34.0844 94.6888 37.4822 94.6888 47.351C94.6888 55.3099 88.3058 61.5307 75.285 61.5307C60.359 61.5307 54.5555 53.9842 52.5669 47.2675H60.7762C62.1019 50.5865 66.0837 54.814 75.285 54.814C82.9149 54.814 86.892 51.8288 86.892 47.7635C86.892 42.8732 83.244 41.2971 78.1868 40.7177C74.9512 40.3051 72.7958 40.1383 69.4815 39.8045C60.6093 38.8914 54.1429 34.5804 54.1429 26.3711C54.1429 18.1618 61.439 13.2715 72.3832 13.2715C86.7298 13.2715 92.0327 20.1551 93.6087 26.1255H85.6498C84.324 23.474 80.5091 20.0716 72.3832 20.0716C65.4162 20.0716 61.935 22.4774 61.935 26.2089L61.9397 26.2043Z" fill="white"/>
<path d="M192.041 40.2161C192.041 52.4072 182.673 61.6919 170.482 61.6919C158.291 61.6919 148.923 52.4072 148.923 40.2161C148.923 28.0249 158.208 18.7402 170.482 18.7402C182.757 18.7402 192.041 28.0249 192.041 40.2161ZM184.249 40.2161C184.249 32.0068 178.691 25.7072 170.487 25.7072C162.282 25.7072 156.724 32.1736 156.724 40.2161C156.724 48.2585 162.277 54.7249 170.487 54.7249C178.696 54.7249 184.249 48.4254 184.249 40.2161Z" fill="white"/>
<path d="M253.32 0H261.196V11.8574H253.32V0ZM253.487 19.7329H261.034V60.696H253.487V19.7329Z" fill="white"/>
<path d="M328.997 60.6956H321.45V7.86133H328.997V27.279C330.573 23.9647 335.296 18.8194 342.926 18.8194C353.291 18.8194 360.42 26.5327 360.42 37.1432V60.691H352.79V38.5523C352.79 30.839 348.145 25.7818 341.1 25.7818C334.054 25.7818 328.992 31.0893 328.992 38.5523V60.691L328.997 60.6956Z" fill="white"/>
<path d="M235.78 7.86133H243.326V60.6956H235.78V7.86133Z" fill="white"/>
<path d="M229.837 60.6958H220.135C210.6 60.6958 205.789 56.1345 205.789 47.012V26.5328H193.681V19.7327H205.789V10.0957H213.335V19.7327H229.837V26.5328H213.335V45.2738C213.335 51.2442 215.24 53.7334 221.795 53.7334H229.837V60.7004V60.6958Z" fill="white"/>
<path d="M400.287 60.6958H390.585C381.05 60.6958 376.238 56.1345 376.238 47.012V26.5328H364.13V19.7327H376.238V10.0957H383.784V19.7327H400.287V26.5328H383.784V45.2738C383.784 51.2442 385.69 53.7334 392.244 53.7334H400.287V60.7004V60.6958Z" fill="white"/>
<path d="M109.006 72.5672H101.543V19.7329H109.006V26.7788C109.92 24.7067 114.727 18.7363 123.932 18.7363C134.877 18.7363 144.083 26.6953 144.083 40.2121C144.083 53.729 134.877 61.688 123.932 61.688C114.977 61.688 109.92 56.0513 109.006 54.0581V72.5626V72.5672ZM122.607 54.7256C130.899 54.7256 136.369 48.4214 136.369 40.2168C136.369 32.0121 130.895 25.708 122.607 25.708C114.319 25.708 108.844 32.0075 108.844 40.2168C108.844 48.4261 114.319 54.7256 122.607 54.7256Z" fill="white"/>
<path d="M303.717 53.729C302.637 55.8844 298.159 61.7714 288.791 61.7714C277.847 61.7714 268.558 53.8124 268.558 40.2956C268.558 26.7788 277.842 18.7363 288.791 18.7363C298.076 18.7363 302.637 24.373 303.717 26.6119V19.7283H311.264V58.8418C311.264 70.3654 303.801 78.4125 289.788 78.4125C273.87 78.4125 269.554 68.0477 268.891 65.4751H277.184C277.764 66.4717 280.665 71.4455 289.788 71.4455C298.91 71.4455 303.717 66.8008 303.717 58.8418V53.729ZM290.2 25.7033C281.824 25.7033 276.354 32.0028 276.354 40.2956C276.354 48.5883 281.829 54.8044 290.2 54.8044C298.572 54.8044 303.879 48.338 303.879 40.2956C303.879 32.2532 298.405 25.7033 290.2 25.7033Z" fill="white"/>
<path d="M22.4493 25.5873L40.5366 15.992L37.4958 10.1885L20.9335 16.8403C20.507 17.0118 20.0342 17.0118 19.6078 16.8403L3.04082 10.1931L0 15.9966L18.0873 25.5919L0 35.1826L3.04082 40.9861L19.6031 34.3343C20.0296 34.1628 20.5024 34.1628 20.9288 34.3343L37.4911 40.9861L40.532 35.1826L22.4446 25.5873H22.4493Z" fill="#FBCA1C"/>
</svg>
