<svg width="288" height="55" viewBox="0 0 288 55" fill="none" xmlns="http://www.w3.org/2000/svg">
<path d="M88.1541 18.3124L75.5861 54.2276H68.9672L52.9609 6.36901H61.4255L72.8224 41.8628L85.0578 6.11328H91.761L104.081 42.1138L115.557 6.36901H123.183L107.599 54.2324H100.642L88.1588 18.3171L88.1541 18.3124Z" fill="white"/>
<path d="M142.126 27.7178H156.287C156.287 21.282 151.425 17.806 144.642 17.806C137.859 17.806 135.006 21.7035 134.336 23.0579H126.626C127.717 18.0618 133.245 11.0293 144.642 11.0293C156.709 11.0293 163.58 17.8913 163.58 27.6325V43.1324C163.58 46.0969 164.587 47.2003 167.267 47.4513V54.3985C161.318 54.228 157.716 52.0259 156.624 47.8775C154.615 51.0125 150.258 54.91 142.88 54.91C133.076 54.91 125.45 49.4024 125.45 40.7645C125.45 32.1267 131.737 27.7178 142.126 27.7178ZM156.287 38.1362V33.8173H142.464C136.767 33.8173 133.076 36.1046 133.076 40.7645C133.076 45.4244 137.601 48.4742 143.55 48.4742C150.254 48.4742 156.287 45.1687 156.287 38.141V38.1362Z" fill="white"/>
<path d="M174.603 0H182.229V53.9771H174.603V0Z" fill="white"/>
<path d="M192.516 0H200.142V53.9771H192.516V0Z" fill="white"/>
<path d="M249.898 33.9877H215.459C215.875 41.7826 221.408 47.8821 229.535 47.8821C237.662 47.8821 241.18 43.3927 241.855 42.0383H249.396C248.726 45.68 243.447 54.9998 229.54 54.9998C216.719 54.9998 207.753 45.3438 207.753 33.0595C207.753 20.7752 216.719 11.1191 228.785 11.1191C240.852 11.1191 249.902 20.2684 249.902 33.9924L249.898 33.9877ZM215.96 27.5519H241.433C239.508 21.1966 235.067 17.7254 228.781 17.7254C222.078 17.7254 217.552 21.4524 215.96 27.5519Z" fill="white"/>
<path d="M288 53.9767H278.196C268.561 53.9767 263.698 49.3168 263.698 39.9971V19.0749H251.463V12.1277H263.698V2.28223H271.324V12.1277H288V19.0749H271.324V38.2212C271.324 44.3207 273.25 46.8638 279.873 46.8638H288V53.9815V53.9767Z" fill="white"/>
<path d="M22.6861 18.2973L40.9642 8.49448L37.8913 2.56543L21.1543 9.36111C20.7233 9.53633 20.2455 9.53633 19.8146 9.36111L3.0729 2.57017L0 8.49448L18.2781 18.2973L0 28.1001L3.0729 34.0292L19.8099 27.2335C20.2409 27.0583 20.7187 27.0583 21.1496 27.2335L37.8866 34.0292L40.9595 28.1001L22.6814 18.2973H22.6861Z" fill="#1E65E7"/>
</svg>
