<svg width="309" height="54" viewBox="0 0 309 54" fill="none" xmlns="http://www.w3.org/2000/svg">
<path d="M85.4414 18.6066L72.8591 53.2345H66.2327L50.2129 7.09129H58.687L70.0969 41.3129L82.3415 6.84473H89.0524L101.386 41.5549L112.876 7.09129H120.51L104.908 53.2391H97.9439L85.4461 18.6111L85.4414 18.6066Z" fill="white"/>
<path d="M165.315 32.704C165.315 44.7883 155.916 53.9998 143.685 53.9998C131.454 53.9998 122.055 44.7929 122.055 32.704C122.055 20.6151 131.37 11.4082 143.685 11.4082C156 11.4082 165.315 20.6197 165.315 32.704ZM157.497 32.704C157.497 24.5635 151.921 18.3168 143.689 18.3168C135.458 18.3168 129.882 24.729 129.882 32.704C129.882 40.679 135.453 47.0912 143.689 47.0912C151.926 47.0912 157.497 40.8445 157.497 32.704Z" fill="white"/>
<path d="M204.713 0H212.438V53.2394H204.713V0Z" fill="white"/>
<path d="M255.778 45.9669C254.684 47.9532 250.148 54 240.658 54C229.572 54 220.162 46.0502 220.162 32.5491C220.162 19.0479 229.567 11.0982 240.658 11.0982C250.063 11.0982 254.684 16.6496 255.778 18.8812V0H263.422V53.0092H255.778V45.9715V45.9669ZM242.086 18.0571C233.601 18.0571 228.06 24.2706 228.06 32.5491C228.06 40.8276 233.605 47.0411 242.086 47.0411C250.566 47.0411 255.942 40.8276 255.942 32.5491C255.942 24.2706 250.397 18.0571 242.086 18.0571Z" fill="white"/>
<path d="M285.173 34.8119C277.232 33.8973 271.628 30.1601 271.628 22.6067C271.628 15.0532 278.484 10.6475 288.598 10.6475C302.559 10.6475 307.074 17.7877 308.411 21.9428H300.302C299.381 20.8611 296.287 17.1238 288.598 17.1238C282.326 17.1238 279.153 19.3662 279.153 22.356C279.153 25.3458 281.242 27.0914 286.177 27.6717C289.44 28.0849 291.445 28.252 295.039 28.6698C304.822 29.914 309 34.0691 309 41.6272C309 48.5214 302.648 53.9996 290.94 53.9996C276.395 53.9996 271.291 45.1137 270.375 41.3765H278.484C278.9 42.7043 282.247 47.3561 290.94 47.3561C297.965 47.3561 301.391 44.863 301.391 41.6272C301.391 38.3913 299.634 36.4786 294.034 35.8147L285.173 34.8166V34.8119Z" fill="white"/>
<path d="M180.596 53.2394H173.04V12.4917H180.596V19.9008C181.757 16.9685 185.246 12.1689 194.876 12.1689H199.305V19.578H194.711C184.17 19.578 180.601 23.0405 180.601 30.2006V53.2394H180.596Z" fill="white"/>
<path d="M22.674 18.2555L40.9425 8.7757L37.8712 3.04199L21.1431 9.61377C20.7124 9.78322 20.2348 9.78322 19.8041 9.61377L3.07127 3.04199L0 8.7757L18.2685 18.2555L0 27.7308L3.07127 33.4645L19.7994 26.8927C20.2301 26.7233 20.7077 26.7233 21.1384 26.8927L37.8665 33.4645L40.9378 27.7308L22.6694 18.251L22.674 18.2555Z" fill="#23F7DD"/>
</svg>
