<?xml version="1.0" encoding="utf-8"?>
<!-- Generator: Adobe Illustrator 16.0.0, SVG Export Plug-In . SVG Version: 6.00 Build 0)  -->
<!DOCTYPE svg PUBLIC "-//W3C//DTD SVG 1.1//EN" "http://www.w3.org/Graphics/SVG/1.1/DTD/svg11.dtd">
<svg version="1.1" id="Layer_1" xmlns="http://www.w3.org/2000/svg" xmlns:xlink="http://www.w3.org/1999/xlink" x="0px" y="0px"
	 width="800px" height="2000px" viewBox="0 0 800 2000" enable-background="new 0 0 800 2000" xml:space="preserve">
<path fill="#0B1014" d="M661.094,1085.362c-4.37-35.506-10.616-76.011-18.74-120.369c-11.138-61.33-23.948-120.369-32.28-155.249
	c-0.208-1.04-0.414-2.187-0.414-3.436c-0.314-82.778-31.866-134.842-42.279-152.022c-5.408-8.848-12.805-16.347-21.338-21.551
	c-106.002-64.453-255.732-19.992-327.58,16.452c-20.511,10.411-33.839,31.861-34.776,55.809l-1.353,34.361
	c-1.148,0.52-2.188,1.042-3.333,1.564c-16.659,8.536-27.488,24.779-29.05,43.42l-28.635,348.396
	c-1.041,12.079,1.147,23.947,6.248,34.052c2.918,5.724,6.144,11.453,9.685,16.975c6.04,9.577,15.099,22.072,26.551,32.795
	l-3.226,82.262c-1.148,29.984,17.596,57.473,45.502,66.636c72.677,23.952,146.604,31.235,209.806,31.235
	c74.244,0,133.596-10.094,158.688-15.193l1.459-0.319c21.343-4.372,40.712-9.371,57.479-14.887c0.309,0,0.521-0.214,0.723-0.214
	c1.15-0.414,2.188-0.83,3.439-1.352c24.469-9.993,39.775-34.154,39.152-61.428c-0.835-33.224-3.961-121.103-15.935-218.249
	L661.094,1085.362z"/>
<path fill="#00FFA3" d="M512.324,1179.148c-19.515-63.5-66.263-88.407-122.194-88.623c14.129-12.311,61.829-32.551,139.748-14.782
	c0.364-1.751,0.51-4.151,0.215-6.773c-58.258-21.63-114.476-7.283-135.374,2.622c-3.496,1.671-7.721,0.219-9.394-3.352
	c-1.676-3.567-0.219-7.719,3.349-9.395c21.993-10.485,76.392-24.538,134.866-6.989c-2.837-3.786-6.844-7.429-12.231-10.489
	c-18.134-10.121-79.669-13.107-108.07-13.322c-11.288-1.676-29.419-12.525-12.016-42.166
	c21.773-37.067,82.578-45.514,106.395-39.105c17.403,4.66,26.943,20.172,34.151,31.822c2.696,4.37,5.027,8.156,7.358,10.705
	c6.479,7.064,14.201,9.54,19.369-5.535c-8.083-44.349-16.968-84.908-22.281-107.484c-0.514-2.258-0.805-4.662-0.805-6.99
	c-0.216-48.646-16.822-79.814-26.652-95.98c-2.041-3.351-4.804-6.263-8.154-8.376c-66.853-40.635-165.746-10.048-209.657,12.233
	c-8.229,4.152-13.036,12.746-13.399,21.994l-1.603,40.781c-4.005-1.093-8.374-0.801-12.524,1.383
	c-5.39,2.768-9.031,8.156-9.539,14.2l-20.027,243.663c-0.365,4.518,0.292,9.104,2.331,13.111
	c5.607,11.141,15.292,25.703,27.671,34.662c0,0,0.147,0.07,0.22,0.145l-2.621,67.363c-0.438,12.016,6.699,23.082,18.06,26.794
	c87.239,28.769,184.092,23.45,247.522,10.639c-1.456-17.772-5.462-42.75-14.712-72.899V1179.148z M300.486,883.855
	c1.021-53.161,37.357-85.566,90.153-96.2c52.8-10.632,107.558,6.118,126.496,31.606c15.218,20.389,15.363,47.043,13.542,57.893
	c-11.576-4.515-37.648-12.523-49.304-8.01c-11.646,4.516,1.461,41.219,9.47,58.986c-24.393-7.138-36.628-51.267-39.689-72.459
	c-0.726-11.068-8.519-33.135-34.297-32.842c-25.78,0.291-38.889,28.691-42.165,42.818l-74.206,18.134V883.855z"/>
</svg>
