<svg width="441" height="132" viewBox="0 0 441 132" fill="none" xmlns="http://www.w3.org/2000/svg">
<path d="M88.9261 79.9236C88.2059 74.0769 87.1772 67.4071 85.8398 60.103C84.0052 50.004 81.8962 40.2823 80.5246 34.5384C80.4903 34.367 80.456 34.1783 80.456 33.9726C80.4045 20.3416 75.2093 11.7687 73.4948 8.93958C72.6032 7.48218 71.3858 6.24768 69.9798 5.39038C52.5253 -5.22293 27.8695 2.09837 16.0388 8.09943C12.6611 9.81402 10.4664 13.3461 10.3121 17.2896L10.0892 22.9478C9.9006 23.0335 9.72914 23.1192 9.54053 23.205C6.79719 24.6109 5.01401 27.2857 4.75682 30.3548L0.0417006 87.725C-0.129758 89.7139 0.230303 91.6686 1.07045 93.3317C1.55054 94.2747 2.08206 95.2178 2.66502 96.1265C3.65948 97.7039 5.15118 99.7614 7.03723 101.527L6.50571 115.073C6.3171 120.011 9.40336 124.537 13.9985 126.046C25.9663 129.99 38.1399 131.19 48.5475 131.19C60.7725 131.19 70.5457 129.527 74.6778 128.687L74.9179 128.635C78.4328 127.915 81.6219 127.092 84.3824 126.183C84.4338 126.183 84.4681 126.149 84.5024 126.149C84.691 126.08 84.8625 126.012 85.0682 125.926C89.0975 124.28 91.618 120.302 91.5151 115.81C91.3779 110.34 90.8635 95.8693 88.8918 79.8722L88.9261 79.9236Z" fill="#0B1014"/>
<path fill-rule="evenodd" clip-rule="evenodd" d="M70.3228 106.929C65.7277 91.9777 54.72 86.1137 41.552 86.0623C44.8783 83.1646 56.1089 78.3981 74.455 82.5817C74.5407 82.1702 74.575 81.6044 74.5064 80.9871C60.7897 75.8948 47.553 79.2725 42.6322 81.6044C41.8092 81.9987 40.8147 81.6558 40.4203 80.8157C40.026 79.9755 40.3689 78.9982 41.2091 78.6038C46.3871 76.1348 59.1951 72.8257 72.9633 76.9578C72.2946 76.0663 71.3516 75.209 70.0828 74.4888C65.8134 72.1055 51.3251 71.4026 44.6382 71.3511C41.9806 70.9568 37.7113 68.402 41.8092 61.4237C46.9358 52.6964 61.2526 50.7075 66.8593 52.2163C70.9572 53.3136 73.2033 56.9657 74.9008 59.7091C75.5352 60.7378 76.0838 61.6294 76.6325 62.2295C78.1585 63.8927 79.976 64.4756 81.1933 60.9264C79.2901 50.4846 77.1983 40.9343 75.9467 35.6191C75.8266 35.0875 75.7581 34.5217 75.7581 33.9731C75.7066 22.5196 71.7973 15.1812 69.4827 11.3748C69.0026 10.5861 68.351 9.90022 67.5623 9.40299C51.8224 -0.164425 28.5382 7.03685 18.1993 12.2835C16.2618 13.2608 15.1301 15.284 15.0444 17.4616L14.6672 27.0633C13.7242 26.8061 12.6954 26.8747 11.7181 27.389C10.4493 28.0406 9.59202 29.3094 9.472 30.7325L4.75687 88.1027C4.67114 89.1657 4.82546 90.2459 5.30554 91.1889C6.62577 93.8123 8.90618 97.2414 11.821 99.3504C11.821 99.3504 11.8553 99.3675 11.8724 99.3847L11.2552 115.245C11.1523 118.074 12.8326 120.68 15.5074 121.554C36.0481 128.327 58.8522 127.075 73.7863 124.058C73.4434 119.874 72.5003 113.993 70.3228 106.895V106.929ZM20.4454 37.4022C20.6854 24.8857 29.2412 17.2558 41.672 14.7525C54.1028 12.2492 66.9965 16.1928 71.4544 22.1938C75.0379 26.9947 75.0722 33.2701 74.6436 35.8248C71.9174 34.7618 65.7791 32.8757 63.0358 33.9388C60.2925 35.0018 63.3787 43.6434 65.2648 47.827C59.5209 46.1467 56.6404 35.7562 55.9202 30.7668C55.7488 28.1606 53.9142 22.9654 47.8445 23.034C41.7749 23.1026 38.6886 29.7895 37.917 33.1158L20.4454 37.3851V37.4022Z" fill="#00FFA3"/>
<path d="M116.771 101.682V29.5322H143.982C151.474 29.5322 157.132 31.2811 160.99 34.796C164.831 38.2938 166.768 42.7003 166.768 47.9812C166.768 52.5763 165.534 56.2627 163.065 59.006C160.596 61.6808 157.595 63.4983 154.098 64.4756C156.841 65.0242 159.293 66.1216 161.419 67.7676C163.614 69.4136 165.328 71.4711 166.58 73.9573C167.814 76.4263 168.432 79.1182 168.432 81.9987C168.432 85.7022 167.506 89.08 165.654 92.0976C163.871 95.0467 161.213 97.3957 157.715 99.1103C154.218 100.825 149.914 101.682 144.839 101.682H116.805H116.771ZM127.693 60.4634H142.644C146.828 60.4634 150.034 59.5033 152.229 57.5829C154.423 55.594 155.521 52.8849 155.521 49.4386C155.521 45.9923 154.423 43.3861 152.229 41.3972C150.103 39.4083 146.828 38.4138 142.438 38.4138H127.693V60.4634ZM127.693 92.7149H143.364C147.754 92.7149 151.166 91.6861 153.566 89.6286C156.035 87.5711 157.27 84.6735 157.27 80.9699C157.27 77.2664 156.001 74.3345 153.463 72.2084C150.926 70.0137 147.479 68.9164 143.159 68.9164H127.693V92.732V92.7149Z" fill="#E4FFF5"/>
<path d="M193.156 102.917C188.835 102.917 185.252 102.197 182.44 100.756C179.628 99.3162 177.536 97.4302 176.147 95.0812C174.776 92.6808 174.09 90.0575 174.09 87.2455C174.09 82.2904 176.01 78.3811 179.868 75.5006C183.709 72.6201 189.213 71.1798 196.362 71.1798H209.753V70.2539C209.753 66.2761 208.656 63.2756 206.461 61.2866C204.335 59.2977 201.558 58.3033 198.111 58.3033C195.094 58.3033 192.436 59.0577 190.173 60.5665C187.978 62.0068 186.641 64.1672 186.161 67.0648H175.239C175.582 63.3613 176.816 60.1893 178.942 57.5831C181.137 54.9084 183.897 52.8851 187.189 51.4963C190.55 50.0561 194.236 49.3359 198.214 49.3359C205.364 49.3359 210.885 51.222 214.811 55.0112C218.721 58.7147 220.692 63.8071 220.692 70.2711V101.7H211.211L210.285 92.938C208.845 95.7499 206.753 98.1332 203.992 100.054C201.249 101.974 197.631 102.934 193.173 102.934L193.156 102.917ZM195.316 94.0525C198.266 94.0525 200.752 93.3666 202.741 91.995C204.798 90.5547 206.376 88.6686 207.49 86.3196C208.656 83.9878 209.376 81.3988 209.65 78.5868H197.494C193.173 78.5868 190.07 79.3413 188.218 80.8501C186.435 82.359 185.543 84.245 185.543 86.5254C185.543 88.8058 186.401 90.709 188.115 92.0978C189.898 93.4009 192.299 94.0525 195.334 94.0525H195.316Z" fill="#E4FFF5"/>
<path d="M249.686 102.917C243.222 102.917 237.907 101.339 233.706 98.1675C229.522 95.0126 227.105 90.8119 226.488 85.5995H237.512C238.061 87.9314 239.364 89.9546 241.422 91.6863C243.479 93.3323 246.188 94.1553 249.566 94.1553C252.944 94.1553 255.276 93.4695 256.784 92.0978C258.293 90.7262 259.048 89.1487 259.048 87.3484C259.048 84.7422 257.985 82.9933 255.859 82.0846C253.801 81.1244 250.903 80.2671 247.2 79.5127C244.319 78.8955 241.422 78.0725 238.541 77.0437C235.729 76.015 233.346 74.5747 231.426 72.7229C229.574 70.8026 228.648 68.2307 228.648 64.9902C228.648 60.5322 230.363 56.8115 233.809 53.8625C237.238 50.8448 242.056 49.3359 248.246 49.3359C253.955 49.3359 258.55 50.7076 262.048 53.451C265.615 56.1943 267.724 60.0864 268.341 65.093H257.83C257.487 62.8983 256.459 61.1838 254.744 59.9321C253.098 58.6976 250.869 58.0803 248.04 58.0803C245.211 58.0803 243.153 58.6633 241.645 59.8292C240.136 60.9266 239.381 62.3668 239.381 64.15C239.381 65.9332 240.41 67.3391 242.468 68.3679C244.594 69.3966 247.371 70.3225 250.818 71.1455C254.247 71.8999 257.419 72.7915 260.299 73.8203C263.248 74.7805 265.632 76.2207 267.415 78.1411C269.198 80.0614 270.09 82.8905 270.09 86.594C270.158 91.2577 268.341 95.1498 264.62 98.2361C260.985 101.322 255.996 102.865 249.669 102.865L249.686 102.917Z" fill="#E4FFF5"/>
<path d="M297.42 101.682C292.396 101.682 288.419 100.482 285.47 98.0816C282.52 95.6125 281.046 91.2403 281.046 84.9992V59.7433H272.284V50.5703H281.046L282.383 37.5908H291.968V50.5703H306.405V59.7433H291.968V84.9992C291.968 87.8112 292.551 89.7829 293.717 90.8803C294.951 91.909 297.043 92.4234 300.009 92.4234H305.89V101.699H297.437L297.42 101.682Z" fill="#E4FFF5"/>
<path d="M319.727 40.8827C317.67 40.8827 315.955 40.2655 314.566 39.031C313.263 37.7279 312.612 36.1161 312.612 34.1787C312.612 32.2412 313.263 30.6809 314.566 29.4292C315.938 28.1262 317.652 27.4746 319.727 27.4746C321.802 27.4746 323.465 28.1262 324.785 29.4292C326.157 30.6637 326.843 32.2412 326.843 34.1787C326.843 36.1161 326.157 37.7107 324.785 39.031C323.482 40.2655 321.802 40.8827 319.727 40.8827ZM314.258 101.682V50.5701H325.18V101.682H314.258Z" fill="#E4FFF5"/>
<path d="M359.385 102.917C354.516 102.917 350.11 101.82 346.2 99.6249C342.36 97.3616 339.29 94.2239 337.027 90.2461C334.764 86.1996 333.632 81.4845 333.632 76.1178C333.632 70.7512 334.764 66.0875 337.027 62.1096C339.359 58.0632 342.497 54.9255 346.406 52.7308C350.315 50.4676 354.687 49.3359 359.488 49.3359C364.289 49.3359 368.73 50.4676 372.571 52.7308C376.48 54.9255 379.583 58.0632 381.847 62.1096C384.178 66.0875 385.344 70.7683 385.344 76.1178C385.344 81.4674 384.178 86.1825 381.847 90.2461C379.583 94.2239 376.48 97.3616 372.571 99.6249C368.661 101.82 364.255 102.917 359.385 102.917ZM359.385 93.5381C361.992 93.5381 364.409 92.8865 366.604 91.5834C368.867 90.2803 370.685 88.36 372.073 85.8053C373.445 83.1991 374.131 79.9585 374.131 76.1178C374.131 72.2772 373.445 69.0709 372.073 66.5333C370.77 63.9271 368.987 61.9725 366.707 60.6522C364.512 59.3491 362.112 58.6976 359.488 58.6976C356.865 58.6976 354.43 59.3491 352.167 60.6522C349.972 61.9553 348.189 63.91 346.8 66.5333C345.429 69.0709 344.743 72.2772 344.743 76.1178C344.743 79.9585 345.429 83.1991 346.8 85.8053C348.172 88.3429 349.955 90.2632 352.167 91.5834C354.362 92.8865 356.762 93.5381 359.385 93.5381Z" fill="#E4FFF5"/>
<path d="M393.06 101.682V50.5704H402.747L403.57 59.5378C405.148 56.3829 407.445 53.8968 410.48 52.1136C413.567 50.2618 417.116 49.3359 421.094 49.3359C427.283 49.3359 432.118 51.2563 435.633 55.1141C439.2 58.9548 441 64.6987 441 72.3286V101.7H430.181V73.4602C430.181 63.567 426.117 58.6119 418.024 58.6119C413.961 58.6119 410.6 60.0521 407.926 62.9326C405.319 65.8132 404.016 69.9453 404.016 75.2948V101.682H393.094H393.06Z" fill="#E4FFF5"/>
</svg>
