<?xml version="1.0" encoding="utf-8"?>
<!-- Generator: Adobe Illustrator 26.3.1, SVG Export Plug-In . SVG Version: 6.00 Build 0)  -->
<svg version="1.0" id="b" xmlns="http://www.w3.org/2000/svg" xmlns:xlink="http://www.w3.org/1999/xlink" x="0px" y="0px"
	 viewBox="0 0 38 38" style="enable-background:new 0 0 38 38;" xml:space="preserve">
<style type="text/css">
	.st0{fill:url(#SVGID_1_);}
	.st1{fill:#FFFFFF;}
</style>
<g id="c">
	<g>
		<g id="d">
			
				<linearGradient id="SVGID_1_" gradientUnits="userSpaceOnUse" x1="3040.5811" y1="-6828.5918" x2="3040.5452" y2="-6828.562" gradientTransform="matrix(776 0 0 776 -2359457.75 5298994.5)">
				<stop  offset="0" style="stop-color:#B6509E"/>
				<stop  offset="1" style="stop-color:#2EBAC6"/>
			</linearGradient>
			<circle class="st0" cx="19" cy="19" r="19"/>
			<path class="st1" d="M27.3,26.6L20.9,11c-0.4-0.8-0.9-1.2-1.6-1.2h-0.6c-0.7,0-1.2,0.4-1.6,1.2l-2.8,6.8h-2.1
				c-0.6,0-1.1,0.5-1.2,1.2v0c0,0.6,0.5,1.1,1.2,1.2h1.1l-2.7,6.4c0,0.1-0.1,0.3-0.1,0.4c0,0.4,0.1,0.6,0.3,0.9s0.5,0.3,0.9,0.3
				c0.2,0,0.5-0.1,0.7-0.2c0.2-0.1,0.3-0.3,0.5-0.6l2.9-7.3h2c0.6,0,1.1-0.5,1.2-1.2v0c0-0.6-0.5-1.1-1.2-1.2h-1.1l2.2-5.6l6.1,15.2
				c0.1,0.2,0.3,0.4,0.5,0.6c0.2,0.1,0.4,0.2,0.7,0.2c0.4,0,0.6-0.1,0.9-0.3s0.3-0.5,0.3-0.9C27.4,26.9,27.4,26.7,27.3,26.6
				L27.3,26.6z"/>
		</g>
		<circle cx="32.3" cy="32.2" r="5.7"/>
		<g>
			<path class="st1" d="M32.7,31.6l2.2-2.2l-0.8-0.8l-1.8,1.8l-1.8-1.8l-0.8,0.8l2.2,2.2c0.1,0.1,0.3,0.2,0.4,0.2
				S32.6,31.8,32.7,31.6L32.7,31.6z"/>
			<path class="st1" d="M35.9,34l-1.8-1.8l1.8-1.8l-0.8-0.8l-2.2,2.2c-0.2,0.2-0.2,0.6,0,0.8l2.2,2.2L35.9,34L35.9,34z"/>
			<path class="st1" d="M32.3,34.1l1.8,1.8l0.8-0.8l-2.2-2.2c-0.2-0.2-0.6-0.2-0.8,0L29.6,35l0.8,0.8L32.3,34.1L32.3,34.1L32.3,34.1
				z"/>
			<path class="st1" d="M31.7,32.6c0.1-0.1,0.2-0.3,0.2-0.4s-0.1-0.3-0.2-0.4l-2.2-2.2l-0.8,0.8l1.8,1.8L28.6,34l0.8,0.8L31.7,32.6
				L31.7,32.6z"/>
		</g>
	</g>
</g>
</svg>
