<?xml version="1.0" encoding="UTF-8"?>
<svg id="b" data-name="Layer 2" xmlns="http://www.w3.org/2000/svg" width="46.018" height="43.858" xmlns:xlink="http://www.w3.org/1999/xlink" viewBox="0 0 46.018 43.858">
  <defs>
    <clipPath id="d">
      <path d="M22.75,3.492h0c10.493,0,19,8.507,19,19h0c0,10.493-8.507,19-19,19h0c-10.493,0-19-8.507-19-19h0C3.75,11.999,12.257,3.492,22.75,3.492Z" fill="none"/>
    </clipPath>
    <radialGradient id="e" data-name="Adsız degrade 2" cx="4428.815" cy="7064.53" fx="4428.815" fy="7064.53" r=".259" gradientTransform="translate(-583335.018 -365687.594) rotate(90) scale(82.576 -82.576)" gradientUnits="userSpaceOnUse">
      <stop offset=".167" stop-color="#073183"/>
      <stop offset="1" stop-color="#0054f9"/>
    </radialGradient>
    <linearGradient id="f" data-name="Adsız degrade 4" x1="122.02" y1="13714.707" x2="165.564" y2="13669.005" gradientTransform="translate(-120.945 13713.939) scale(1 -1)" gradientUnits="userSpaceOnUse">
      <stop offset=".206" stop-color="#89d0ff"/>
      <stop offset=".398" stop-color="#ebbf9a"/>
      <stop offset=".602" stop-color="#eb8280"/>
      <stop offset=".841" stop-color="#a281ff"/>
    </linearGradient>
    <linearGradient id="g" data-name="Adsız degrade 3" x1="123.72" y1="13712.751" x2="163.863" y2="13670.447" gradientTransform="translate(-120.945 13713.939) scale(1 -1)" gradientUnits="userSpaceOnUse">
      <stop offset=".206" stop-color="#89d0ff"/>
      <stop offset=".398" stop-color="#ebbf9a"/>
      <stop offset=".602" stop-color="#eb80da"/>
      <stop offset=".841" stop-color="#a281ff"/>
    </linearGradient>
    <linearGradient id="h" data-name="Adsız degrade 4" x1="125.428" y1="13711.053" x2="162.168" y2="13672.148" xlink:href="#f"/>
    <linearGradient id="i" data-name="Adsız degrade 5" x1="127.135" y1="13709.351" x2="160.466" y2="13673.853" gradientTransform="translate(-120.945 13713.939) scale(1 -1)" gradientUnits="userSpaceOnUse">
      <stop offset=".206" stop-color="#89d0ff"/>
      <stop offset=".398" stop-color="#ebbf9a"/>
      <stop offset=".602" stop-color="#eb80e7"/>
      <stop offset=".841" stop-color="#a281ff"/>
    </linearGradient>
    <linearGradient id="j" data-name="Adsız degrade 6" x1="128.838" y1="13707.651" x2="158.766" y2="13675.565" gradientTransform="translate(-120.945 13713.939) scale(1 -1)" gradientUnits="userSpaceOnUse">
      <stop offset=".206" stop-color="#89d0ff"/>
      <stop offset=".398" stop-color="#ebbf9a"/>
      <stop offset=".602" stop-color="#eb80d3"/>
      <stop offset=".841" stop-color="#a281ff"/>
    </linearGradient>
    <linearGradient id="k" data-name="Adsız degrade 7" x1="130.547" y1="13705.957" x2="157.07" y2="13677.27" gradientTransform="translate(-120.945 13713.939) scale(1 -1)" gradientUnits="userSpaceOnUse">
      <stop offset=".206" stop-color="#89d0ff"/>
      <stop offset=".398" stop-color="#ebbf9a"/>
      <stop offset=".602" stop-color="#a280eb"/>
      <stop offset=".841" stop-color="#a281ff"/>
    </linearGradient>
    <filter id="l" data-name="drop-shadow-1" filterUnits="userSpaceOnUse">
      <feOffset dx="0" dy="0"/>
      <feGaussianBlur result="m" stdDeviation=".077"/>
      <feFlood flood-color="#000" flood-opacity=".13"/>
      <feComposite in2="m" operator="in"/>
      <feComposite in="SourceGraphic"/>
    </filter>
    <filter id="n" data-name="drop-shadow-2" filterUnits="userSpaceOnUse">
      <feOffset dx="0" dy="0"/>
      <feGaussianBlur result="o" stdDeviation=".077"/>
      <feFlood flood-color="#000" flood-opacity=".13"/>
      <feComposite in2="o" operator="in"/>
      <feComposite in="SourceGraphic"/>
    </filter>
    <filter id="p" data-name="drop-shadow-3" filterUnits="userSpaceOnUse">
      <feOffset dx="0" dy="0"/>
      <feGaussianBlur result="q" stdDeviation=".077"/>
      <feFlood flood-color="#000" flood-opacity=".13"/>
      <feComposite in2="q" operator="in"/>
      <feComposite in="SourceGraphic"/>
    </filter>
    <filter id="r" data-name="drop-shadow-4" filterUnits="userSpaceOnUse">
      <feOffset dx="0" dy="0"/>
      <feGaussianBlur result="s" stdDeviation=".077"/>
      <feFlood flood-color="#000" flood-opacity=".13"/>
      <feComposite in2="s" operator="in"/>
      <feComposite in="SourceGraphic"/>
    </filter>
  </defs>
  <g id="c" data-name="Layer 1">
    <g>
      <g clip-path="url(#d)">
        <g>
          <path d="M22.75,3.492h0c10.493,0,19,8.507,19,19h0c0,10.493-8.507,19-19,19h0c-10.493,0-19-8.507-19-19h0C3.75,11.999,12.257,3.492,22.75,3.492Z" fill="url(#e)"/>
          <g>
            <path d="M35.671,16.561c-.08,.465-.173,.691-.282,.952h0c-.118,.284-.251,.605-.372,1.242-.048,.255-.072,.442-.093,.607v.01l-.003,.01c-.034,.264-.056,.442-.163,.759-.087,.259-.233,.69-.583,1.155-.283,.376-.757,1.005-1.39,1.081-.055,.004-.17,.009-.217-.015-1.795-.916-3.336-1.594-3.87-1.746-.621-.176-.541-1.529-.471-2.723,.032-.534,.061-1.038,.036-1.47-.087-1.507-.354-3.157-1.667-3.962-.784-.48-1.795-.621-2.761-.623,.179-.085,.379-.201,.596-.328l.007-.004c.569-.329,1.275-.738,1.976-.81,.229-.023,.455-.049,.677-.074,1.414-.16,2.636-.298,3.925,.144,.584,.2,1.783,.869,2.092,1.49,.218,.438,.585,.78,1.319,1.462,.382,.355,.633,.562,.817,.713l.009,.007c.259,.213,.309,.257,.386,.414,.238,.484,.151,.999,.031,1.711Z" fill="#fff"/>
            <path d="M29.106,22.746c.103,.035,.142,.161,.083,.252-.187,.288-.4,.675-.653,1.145-.123,.23-.24,.447-.338,.616-.348,.597-.376,1.1-.398,1.503-.024,.422-.045,.616-.297,.784-.208,.14-.421,.186-1.899,.411-.258,.04-.372,.09-.473,.134l-.049,.021c-.102,.042-.204-.046-.199-.157,.011-.206,.017-.46,.018-.774v-.064c.008-.29-.004-.525-.015-.714-.019-.377-.022-.536,.079-.7,.123-.198,.22-.259,.378-.359,.221-.139,.524-.33,.973-.946,.238-.326,.291-.503,.324-.656,.014-.063,.019-.087,.203-.226,.194-.147,.785-.595,1.542-.468,.2,.034,.453,.107,.722,.199h0Z" fill="#fff"/>
            <path d="M23.263,29.57c-.032,.042-.07,.061-.124,.064-.154,.006-.263-.032-.335-.118-.152-.185-.132-.558-.096-.776l.625-.167c.049,.331,.072,.813-.07,.997Z" fill="#fff"/>
            <path d="M23.314,27.316c-.01,.091-.022,.194-.021,.301,0,.04,.001,.08,.002,.119,.001,.102,.005,.264-.009,.338-.195,.071-.362,.071-.581,.067-.003-.063,0-.158,.003-.222,.001-.049,.004-.098,.004-.145,0-.052,0-.103,0-.154,0-.12-.002-.317,.027-.375,.059-.008,.119-.021,.184-.036,.129-.028,.298-.063,.405-.047-.002,.042-.008,.104-.015,.153Z" fill="#fff"/>
            <path d="M22.158,29.378c-.03,.32-.129,.716-.43,.777-.135,.028-.2-.013-.242-.052-.203-.188-.235-.756-.207-1.162,.135,.002,.312-.028,.522-.069,.128-.025,.255-.054,.357-.077,.012,.151,.02,.365,0,.583Z" fill="#fff"/>
            <path d="M22.016,28.228l-.678,.238c.034-.263,.08-.633,.096-.879,.012-.173,.059-.226,.072-.238,.004-.004,.014-.012,.039-.012h.012l.014,.003,.428-.023c.018,.201,.018,.643,.016,.912Z" fill="#fff"/>
            <path d="M20.921,28.017c-.038,.102-.083,.391-.112,.594l-.849-.026c.048-.263,.114-.53,.187-.744,.074-.212,.153-.371,.226-.415,.085-.051,.273-.063,.388,.036,.187,.159,.238,.341,.16,.555Z" fill="#fff"/>
            <path d="M20.604,30.616c-.066,.09-.139,.136-.229,.145-.092,.01-.164-.01-.222-.064-.267-.246-.245-1.052-.235-1.44,.352-.08,.732-.149,.912-.159,.027,.325,.035,1.162-.226,1.518Z" fill="#fff"/>
            <path d="M19.496,28.563c-.041,.111-.081,.215-.112,.307-.099,.031-.401,.004-.709-.064l.212-1.336c.348-.092,.752-.122,.85-.019,.129,.137-.13,.82-.241,1.111Z" fill="#fff"/>
            <path d="M19.111,30.82c-.165,.203-.412,.298-.756,.294-.238-.004-.324-.095-.366-.162-.191-.303-.004-1.017,.184-1.473l1.15,.069c.012,.08,.021,.178,.026,.284,.013,.324-.028,.729-.237,.989Z" fill="#fff"/>
            <path d="M28.616,21.123c-1.035-.293-.946-1.807-.86-3.27,.031-.518,.059-1.007,.036-1.408-.079-1.37-.31-2.861-1.411-3.536-1.185-.725-3.123-.559-4.319-.407h-.005c-.438,.134-.848,.22-1.166,.203-.706-.037-1.255-.334-1.738-.594-.377-.204-.706-.381-1.016-.381-.016,0-.034,0-.05,0-.927,.06-1.353,.287-1.74,.632-.097,.086-.216,.336-.605,1.456-.196,.566-.232,.876-.269,1.177-.033,.275-.066,.558-.212,.98-.102,.291-.177,.542-.25,.784-.192,.643-.343,1.15-.798,1.752-.053,.071-.12,.176-.196,.296-.103,.163-.231,.365-.4,.599-.119,.165-.392,.782-.377,.97,.022,.299,.12,.485,.231,.702,.111,.214,.237,.456,.26,.79l.004,.054c.041,.53-.035,.796-1.044,1.697-.645,.577-1.103,1.133-1.412,1.541-.027,.036,.008,.089,.053,.086,.01-.001,.021-.002,.031-.002,.019-.001,.039-.002,.058-.002,.019,0,.039,0,.058,.001,.019,0,.038,.002,.057,.005,.244,.028,.482,.131,.653,.309,.03,.031,.076,.039,.116,.023,.164-.068,.345-.057,.517-.041,.205,.019,.412,.079,.553,.206,.054,.048,.128,.074,.199,.06,.161-.033,.328-.027,.483,.029,.115,.043,.214,.108,.295,.19,.076,.077,.206,.092,.3,.039,.038-.021,.078-.04,.122-.055,.219-.074,.461-.032,.674,.044,.105,.038,.215,.071,.309,.134,.156,.104,.257,.251,.325,.416,.052,.127,.226,.171,.338,.09,.134-.096,.245-.109,.356-.059,.046,.021,.082,.047,.11,.079,.08,.092,.208,.184,.327,.156,.331-.078,.731-.026,1.025,.131,.108,.057,.215,.144,.293,.275h.001l.009-.058c.004-.026,.023-.048,.048-.056l.071-.022c.168-.053,1.023-.3,1.356,.05,.014,.014,.039,.016,.053,0,.045-.05,.082-.077,.106-.09,.217-.131,.588-.14,.836,.072,.05,.042,.13,.027,.168-.026,.023-.033,.049-.061,.079-.086,.087-.075,.197-.111,.319-.103l.47-.025c.118-.007,.485-.031,.601-.056l.027-.005c.049-.007,.107-.02,.168-.033,.228-.05,.487-.106,.699-.007,.204,.094,.178,.327,.154,.532-.01,.083-.02,.17-.019,.253,.001,.038,.002,.077,.003,.117,.003,.177,.007,.34-.028,.465h0l.022,.098c.022,.095,.124,.149,.208,.098,.159-.098,.322-.222,.374-.295,.005-.007,.009-.014,.011-.022,.007-.02,.02-.061,.034-.143,.029-.175,.062-.529,.065-1.25,0-.038,0-.065,0-.078,.006-.267-.004-.482-.015-.672-.019-.391-.035-.698,.159-1.011,.189-.304,.372-.42,.548-.531,.205-.128,.436-.274,.825-.808,.191-.263,.215-.369,.233-.454,.042-.198,.108-.318,.403-.541,.24-.181,.97-.735,1.955-.569,.323,.055,.847,.227,1.363,.431h.001c.019,.006,.038,.012,.055,.021l.025,.012c.447,.178,.881,.377,1.169,.538,.082,.046,.186,.019,.246-.054,.089-.108,.185-.174,.289-.236,.041-.025,.073-.044,.104-.071,.097-.082,.096-.255-.017-.313-1.375-.706-2.664-1.101-3.093-1.223h0Zm-9.866,.319c-.32,1.402-2.491,2.942-3.478,2.942h-.019c-.016,0-.033-.002-.051-.005-.019-.003-.039-.007-.06-.013l-.033-.01c-.179-.056-.427-.194-.615-.379-.129-.127-.231-.276-.263-.438l-.018-.085c-.053-.238-.12-.536,.091-1.023,.029-.065,.055-.126,.079-.182,.007-.019,.016-.037,.023-.055,.022-.053,.042-.101,.06-.145,.03-.074,.054-.137,.074-.191l.022-.059c.06-.169,.068-.232,.076-.297,.007-.051,.015-.114,.036-.203,.062-.263,.094-.486,.122-.684,.05-.357,.094-.665,.287-.948,.033-.048,.069-.092,.11-.131,.014-.013,.028-.026,.042-.039,.015-.013,.03-.024,.044-.035,.047-.033,.097-.062,.151-.086,.019-.008,.037-.016,.056-.023,.038-.014,.078-.026,.12-.037,.177-.043,.385-.05,.625-.019,.262,.021,.505,.071,.72,.131,.18,.05,.34,.108,.476,.162,.014,.005,.028,.01,.041,.016,.026,.01,.051,.021,.076,.032,.037,.016,.071,.031,.103,.044,.042,.019,.081,.037,.115,.052l.032,.015c.151,.069,.282,.145,.393,.224,.055,.04,.106,.081,.152,.122,.016,.013,.031,.028,.044,.042,.015,.014,.029,.028,.042,.042,.417,.439,.397,.947,.325,1.26Zm1.006-5.312l-.042,.254c-.097,.573-.321,1.358-1.145,1.56-.793,.194-.981,.235-1.546,.261-.013,.001-.026,.001-.039,.001-.412,0-1.205-.26-1.346-.906-.09-.416,.094-.717,.396-1.217,.05-.082,.105-.171,.163-.27,.4-.673,.557-1.16,.683-1.551,.123-.382,.226-.697,.489-.959,.061-.061,.13-.118,.21-.173,.051-.035,.105-.066,.161-.095,.075-.037,.154-.07,.236-.096,.184-.059,.382-.088,.58-.088,.385,0,.769,.111,1.043,.331,.123,.099,.299,.296,.4,.879,.052,.3-.037,.851-.243,2.07Zm5.882,1.63c-.284,.487-.439,.755-.684,.957-.487,.4-1.054,.501-1.521,.501-.336,0-.621-.052-.789-.082-.483-.088-1.382-.252-1.681-.961-.059-.14-.059-.229-.059-.342,0-.112,0-.299-.052-.746l-.003-.03c-.024-.202-.05-.431,.007-.724l.007-.035c.169-.862,.215-.993,.253-1.067,.088-.169,.296-.236,.465-.149,.164,.085,.232,.284,.155,.451-.017,.049-.065,.232-.196,.899l-.007,.035c-.037,.188-.021,.331,0,.511l.003,.031c.056,.485,.056,.705,.056,.824,0,.021,0,.044,0,.058l.004,.017c.05,.119,.157,.213,.289,.286,.114,.064,.236-.048,.212-.176-.143-.747-.128-1.604,.155-2.139,.095-.182,.271-.479,.438-.757v-.002l.003-.002,.05-.084,.041-.069c.074-.122,.143-.234,.198-.323l.022-.037,.016-.025,.032-.053,.013-.021,.005-.008,.015-.024,.019-.031v-.002l.004-.005v-.002c.042-.06,.083-.118,.123-.173,.09-.125-.015-.284-.156-.221-.241,.109-.403,.232-.439,.261-.149,.119-.366,.094-.484-.055-.118-.149-.094-.367,.056-.486,.178-.14,1.119-.826,2.246-.504,.812,.231,1.238,.851,1.398,1.085,.129,.189,.525,.764,.513,1.567-.009,.612-.265,1.053-.73,1.853h0Z" fill="#fff"/>
            <path d="M18.319,13.56c-.058,.14-.127,.313-.201,.501-.173,.435-.37,.929-.464,1.107-.163,.309-.29,.504-.391,.661-.116,.18-.208,.323-.278,.522-.122,.348-.144,.737-.065,1.161-.216-.024-.569-.173-.609-.36-.03-.14,.057-.292,.312-.712,.051-.084,.106-.175,.166-.276,.439-.739,.616-1.289,.747-1.691,.141-.437,.207-.621,.432-.774,.1-.07,.223-.114,.35-.138Z" fill="#fff"/>
            <path d="M17.89,29.06c-.239,.489-.537,.939-.722,1.163-.154-.415-.421-1.367-.35-2.133,.002-.022,.004-.044,.008-.065,.028-.236,.091-.453,.203-.627,.074-.114,.278-.184,.51-.184,.171,0,.357,.038,.518,.123h.001c.086,.046,.203,.139,.215,.409,.018,.365-.156,.855-.382,1.314Z" fill="#fff"/>
            <path d="M30.995,23.585c.019,.015,.03,.037,.02,.059-.071,.144-.157,.244-.258,.363-.122,.145-.262,.31-.392,.567-.185,.364-.244,.697-.275,1.547-.037,1,.002,1.561,.031,1.971,.028,.395,.045,.634-.026,1.019-.142,.778-.475,1.293-.896,1.945-.527,.815-1.073,1.658-1.976,1.927-.084,.026-.087,.026-.322,.027-.205,0-.546,0-1.191,.025-1.18,.043-1.772,.064-2.278,.161-.531,.103-.808,.216-1.077,.324-.242,.098-.472,.191-.911,.282-.262,.053-.653,.111-1.987,.112-1.386,.003-2.223,.003-3.328-.123-1.516-.173-2.277-.26-2.782-.53-1.192-.636-1.695-1.78-2.528-3.674l-.004-.01c-.01-.024,.018-.046,.041-.033,.039,.025,.081,.045,.124,.059,.036,.013,.074,.023,.113,.029,.076,.013,.156,.014,.236,0,.014-.003,.027-.006,.039-.011l.007-.003c.014-.007,.032-.001,.038,.013,.053,.146,.137,.276,.278,.351,.142,.074,.302,.08,.46,.078,.162-.003,.326-.012,.487-.031,.086-.009,.173,.033,.206,.112,.148,.359,.331,.619,.607,.657,.015,.002,.034,.004,.059,.004,.054,0,.133-.013,.24-.077,.133-.078,.333-.029,.434,.088,.059,.069,.125,.122,.182,.168,.284,.291,.973,.431,1.552,.431,.316,0,.599-.041,.766-.123,.238-.116,.238-.293,.227-.365-.02-.129-.039-.256-.054-.383-.002-.015,.021-.021,.027-.007,.035,.075,.077,.17,.19,.188,.012,.001,.026,.004,.041,.004,.161,0,.412,.052,.456,.208,.022,.079,.053,.153,.096,.221,.097,.153,.294,.336,.685,.343h.03c.449,0,.795-.147,1.029-.437,.015-.019,.03-.038,.044-.058,.084-.118,.333-.123,.44-.025,.12,.111,.271,.169,.44,.169,.027,0,.054-.001,.083-.004,.201-.021,.375-.128,.505-.309,.085-.119,.147-.264,.192-.422,.013-.047,.077-.06,.113-.028,.086,.079,.224,.163,.422,.163,.048,0,.101-.005,.156-.017,.39-.078,.584-.401,.676-.765,.003-.012,.021-.016,.029-.006,.099,.12,.281,.259,.598,.259,.016,0,.033,0,.05,0,.168-.008,.309-.081,.412-.213,.12-.156,.17-.385,.183-.618,.005-.086,.06-.161,.139-.195,.33-.144,.719-.436,.835-.636l.002-.004c.036-.063,.092-.114,.163-.128,.245-.048,.355-.095,.455-.139,.084-.037,.151-.066,.34-.095,1.499-.229,1.792-.279,2.116-.495,.485-.324,.51-.769,.534-1.2,.021-.364,.044-.778,.327-1.263,.103-.177,.222-.398,.348-.632,.216-.4,.515-.957,.735-1.262,.05-.069,.141-.091,.22-.058,.508,.217,.938,.432,1.031,.507h0Z" fill="#fff"/>
            <path d="M16.438,28.043c-.059,.518-.096,1.211-.012,2.113,.024,.254,.057,.519,.098,.786-.071,.039-.283,.093-.66,.087-.542-.011-1.07-.147-1.228-.318l-.025-.022c-.132-.106-.218-.176-.231-.365-.004-.064,.023-.127,.082-.217,.032-.05,.075-.108,.128-.18,.091-.122,.204-.275,.32-.471,.339-.573,.468-.75,.631-.974,.013-.018,.027-.036,.041-.055,.096-.132,.209-.29,.379-.549,.127-.192,.232-.343,.319-.461,.145-.197,.24-.304,.3-.362-.009,.089-.029,.215-.048,.33-.029,.178-.065,.396-.094,.658h0Z" fill="#fff"/>
            <path d="M16.189,19.987l-.01,.014c-.071,.098-.151,.208-.247,.423-.259,.574-.263,.9-.267,1.161-.003,.137-.004,.246-.041,.374-.026,.084-.068,.18-.116,.291-.152,.349-.351,.806-.262,1.422-.123-.059-.312-.195-.338-.267-.006-.034-.014-.067-.021-.1-.043-.192-.071-.317,.051-.598,.321-.741,.361-.916,.386-1.118,.005-.044,.01-.078,.023-.134,.068-.292,.103-.542,.132-.743,.043-.305,.072-.507,.175-.658,.037-.056,.144-.085,.295-.085,.06,0,.128,.004,.202,.015h.017l.023,.004Z" fill="#fff"/>
            <path d="M15.766,27.291c-.017-.178-.048-.355-.113-.523-.004-.008-.024-.051-.028-.059-.012-.021-.025-.041-.038-.063h-.001v-.003l-.022-.023c-.01-.01-.022-.021-.033-.03l-.006-.005c-.005-.004-.013-.01-.021-.015l-.04-.022-.023-.01h0l-.006-.003-.004-.002h-.004v-.002l-.01-.003c-.103-.038-.208-.079-.318-.096h-.006c-.012,0-.038-.003-.039-.003-.015,0-.03,0-.045,0h-.035l-.004,.003h-.001c-.025,.007-.05,.014-.075,.021-.01,.005-.022,.01-.032,.017-.009,.005-.018,.012-.027,.016l-.003,.002-.002,.002-.036,.034-.023,.027-.003,.004h-.001l-.002,.003h-.001l-.008,.014c-.041,.065-.083,.129-.127,.192-.1,.152-.202,.304-.305,.455-.094,.136-.189,.273-.282,.409-.052,.076-.104,.152-.156,.228l-.026,.039c.061,.012,.123,.024,.185,.035,.139,.025,.277,.05,.418,.069,.29,.039,.585,.058,.879,.047,.014,0,.028,0,.041,.002,.071-.101,.154-.221,.26-.382,.059-.09,.115-.173,.168-.25-.024-.037-.039-.081-.044-.127h0Z" fill="#fff"/>
            <path d="M14.733,28.49c-.025,.224-.275,.802-.666,1.354-.327,.461-.525,.572-.565,.576-.158-.022-.313-.412-.437-.799-.05-.157-.094-.313-.132-.445-.085-.295-.1-.689-.085-.937,.33,.183,.908,.232,1.721,.235h.002c.054,.006,.107,.012,.16,.016Z" fill="#fff"/>
            <path d="M14.155,26.65h0l-.011,.017c-.14,.205-.28,.41-.421,.614-.073,.105-.145,.211-.217,.317-.039,.058-.092,.121-.138,.189-.116-.027-.231-.054-.346-.086-.094-.027-.186-.056-.277-.092-.018-.006-.036-.014-.052-.022-.015-.03-.036-.058-.062-.078v-.003c.034-.067,.068-.135,.101-.202,.063-.123,.125-.246,.195-.365,.124-.215,.274-.433,.484-.572,.01-.008,.022-.015,.033-.022,.081-.051,.163-.087,.263-.1,.012-.001,.082,0,.115,.002h.014l.014,.005c.025,.008,.049,.013,.074,.021l.025,.012c.021,.013,.043,.025,.063,.041-.032-.025,.045,.055,.045,.049,.062,.086,.081,.158,.098,.274Z" fill="#fff"/>
            <path d="M13.049,26.066c-.259,.213-.447,.496-.603,.79-.088,.163-.167,.33-.25,.496-.008,.017-.017,.033-.027,.05-.078-.017-.156-.039-.233-.064-.081-.026-.162-.056-.24-.092-.036-.017-.071-.034-.107-.053,.077-.147,.17-.288,.258-.424,.124-.193,.259-.383,.405-.562,.055-.068,.113-.142,.19-.187,.079-.046,.174-.036,.264-.03,.096,.006,.198,.008,.289,.045,.019,.008,.039,.02,.054,.031Z" fill="#fff"/>
            <path d="M12.638,29.535c-.013,.011-.024,.023-.034,.036l-.024,.006c-.062,.006-.125,.011-.188,.015-.12,.008-.242,.013-.364,.009-.068-.003-.129-.013-.157-.056-.045-.068-.058-.186-.074-.276-.079-.441-.09-.901-.034-1.348,.231,.083,.468,.147,.711,.187-.052,.403,.037,.994,.089,1.175,.024,.084,.049,.169,.074,.253Z" fill="#fff"/>
            <path d="M11.896,25.919c-.204,.251-.39,.518-.557,.794-.067,.113-.144,.229-.2,.349-.081-.023-.154-.055-.231-.103-.059-.037-.117-.077-.173-.12-.014-.012-.053-.042-.077-.061l-.017-.012c.019-.053,.053-.112,.072-.151,.043-.094,.09-.186,.14-.275,.095-.168,.201-.332,.321-.483,.045-.056,.087-.127,.156-.148,.063-.018,.147-.01,.198,0,.151,.029,.269,.098,.368,.212h0Z" fill="#fff"/>
            <path d="M10.322,27.012c.003-.013,.02-.015,.028-.004,.053,.074,.127,.139,.205,.2,.035,.027,.07,.054,.106,.079,.006,.004,.008,.011,.007,.017-.082,.341-.139,.703-.141,1.06,0,.02-.03,.024-.034,.005-.102-.426-.234-1.107-.17-1.357Z" fill="#fff"/>
            <path d="M11.323,27.769c-.041,.305-.061,.611-.048,.918,.006,.169,.025,.336,.047,.503v.003h0c-.036-.008-.074-.009-.113-.003,.008-.002-.012-.001-.021-.001h-.003l-.017-.002c-.043-.01-.046-.015-.08-.036-.044-.028-.09-.08-.121-.133-.082-.142-.1-.315-.107-.476-.012-.316,.015-.631,.074-.941,.05,.021,.094,.039,.167,.071,.072,.032,.147,.063,.22,.096h0Z" fill="#fff"/>
          </g>
          <g opacity=".8">
            <path d="M19.387,43.726c-1.392,0-2.711-.088-3.819-.174l-.305-.024-.305-.042c-.133-.019-.315-.038-.49-.057-1.065-.116-3.047-.332-5.234-1.359l-.34-.16-.317-.178c-4.204-2.356-5.777-5.903-6.625-7.809-.054-.121-.119-.269-.181-.404-.428-.875-.698-1.664-.927-2.387l-.051-.162-.042-.157C.14,28.645-.014,26.772,.266,24.92c.28-1.86,.969-3.551,2.166-5.322l.62-1.013c.126-.205,.215-.43,.263-.665,.473-2.344,1.547-4.005,2.074-4.799,.145-.96,.385-1.904,.715-2.817l.049-.138,.053-.135c.008-.024,.02-.057,.04-.118,.237-.714,.792-2.384,2.215-4.138l.534-.647,.544-.492c1.398-1.271,3.064-2.211,4.875-2.752,1.011-.301,2.053-.486,3.105-.549l.102-.008,.153-.007c.182-.008,.364-.013,.541-.013,.657-.001,1.313,.054,1.96,.165,.405,.068,.82,.021,1.199-.137,1.123-.468,2.302-.785,3.508-.942,.101-.014,.189-.025,.258-.034,.19-.024,.493-.059,.858-.094,.637-.061,1.614-.133,2.672-.133,2.068,0,3.847,.268,5.441,.819l.135,.047,.132,.05c3.516,1.329,5.306,3.185,6.593,4.822l.061,.078,.177,.158c1.163,.91,2.152,2.022,2.919,3.283l.24,.395,.203,.414c1.72,3.511,1.173,6.752,.967,7.97l-.011,.065c-.148,.898-.384,1.78-.704,2.633-.118,.822-.311,1.631-.578,2.418-.457,1.398-1.13,2.715-1.996,3.903-.499,.705-1.061,1.362-1.682,1.964-.219,.212-.361,.491-.404,.793-.027,.186-.057,.37-.092,.552-.504,2.704-1.687,4.586-2.17,5.336l-1.46,2.096c-1.758,2.19-3.843,3.634-6.367,4.41l-.612,.192-.66,.115c-.755,.133-1.521,.2-2.288,.198-.106,0-.212,0-.33-.003h-.034l-.13,.008-.14,.005h-.004c-.292,.01-.582,.058-.862,.142-1.63,.499-3.474,.733-5.729,.733h0Z" fill="none" stroke="url(#f)" stroke-miterlimit="10" stroke-width=".263"/>
            <path d="M19.387,42.286c-1.333,0-2.612-.085-3.687-.17l-.255-.02-.255-.035c-.159-.022-.353-.042-.54-.064-1.035-.113-2.765-.301-4.696-1.206l-.284-.133-.264-.148c-3.71-2.081-5.082-5.17-5.903-7.017-.059-.132-.13-.293-.197-.44-.382-.784-.633-1.508-.844-2.174l-.042-.134-.037-.131c-.543-1.929-.683-3.575-.441-5.181,.242-1.606,.852-3.09,1.916-4.655l.795-1.298c.141-.23,.237-.484,.285-.75,.396-2.205,1.437-3.769,1.911-4.481l.06-.09,.022-.036c.01-.022,.019-.042,.028-.065,.029-.094,.057-.185,.085-.271,.125-.905,.344-1.794,.656-2.652l.042-.115,.045-.116c.014-.037,.028-.077,.068-.197,.225-.679,.695-2.09,1.922-3.604l.445-.539,.452-.409c1.212-1.102,2.657-1.917,4.227-2.386,.891-.265,1.81-.426,2.738-.481l.085-.007,.127-.006c.155-.007,.31-.011,.46-.011,.666-.001,1.33-.193,1.982-.059,.503,.104,1.026,.048,1.496-.159,.878-.387,2.06-.542,3.414-.711,.096-.014,.18-.025,.246-.033,.178-.023,.462-.056,.807-.089,.599-.057,1.52-.127,2.511-.127,1.876,0,3.474,.237,4.886,.726l.113,.039,.11,.042c3.117,1.178,4.657,2.754,5.857,4.282,.067,.085,.135,.172,.161,.202l.028,.025,.227,.203,.031,.031c1.037,.794,1.917,1.774,2.595,2.891l.2,.329,.17,.345c1.479,3.02,1.016,5.767,.818,6.94l-.011,.062c-.14,.852-.37,1.688-.686,2.492-.099,.783-.277,1.553-.531,2.3-.404,1.237-.999,2.402-1.765,3.454-.519,.737-1.118,1.414-1.787,2.017-.311,.279-.507,.663-.55,1.078-.032,.306-.076,.603-.131,.895-.445,2.387-1.484,4.038-1.959,4.777l-1.182,1.719c-1.571,2.019-3.433,3.339-5.688,4.034l-.509,.16-.552,.095c-.659,.116-1.327,.174-1.996,.173-.097,0-.197,0-.304-.003h-.093s-.021,0-.065,.003l-.117,.007-.118,.004-.235,.009c-.31,.011-.618,.064-.914,.159-1.502,.48-3.237,.706-5.382,.706h0Z" fill="none" stroke="url(#g)" stroke-miterlimit="10" stroke-width=".263"/>
            <path d="M19.387,40.587c-1.274,0-2.513-.083-3.556-.164l-.203-.016-.203-.028c-.184-.026-.391-.048-.591-.07-.989-.108-2.483-.27-4.157-1.056l-.227-.107-.212-.119c-3.217-1.803-4.399-4.464-5.181-6.225-.067-.151-.142-.321-.212-.478-.34-.691-.566-1.35-.76-1.96l-.034-.107-.03-.105c-.475-1.688-.601-3.108-.396-4.466,.208-1.378,.749-2.662,1.702-4.042l.113-.164,.123-.158c.077-.099,.152-.196,.225-.291l.478-.877c.157-.287,.263-.598,.313-.921,.304-1.967,1.252-3.389,1.689-4.044l.002-.003c.025-.037,.057-.085,.074-.111l.093-.149c.037-.08,.085-.186,.127-.297,.042-.133,.093-.297,.148-.467,.104-.838,.302-1.662,.592-2.455l.033-.093,.036-.093c.031-.078,.053-.145,.097-.278,.209-.629,.597-1.796,1.63-3.07l.357-.432,.361-.326c1.026-.933,2.249-1.623,3.578-2.02,.771-.229,1.566-.368,2.37-.414l.068-.005,.103-.005c.127-.006,.255-.009,.382-.009,.691,0,1.378,.087,2.047,.26,.579,.146,1.19,.082,1.726-.182,.857-.416,2.002-.857,3.345-1.022,.092-.013,.17-.023,.233-.031,.167-.021,.433-.052,.755-.085,.562-.054,1.426-.118,2.35-.118,1.684,0,3.1,.207,4.331,.632l.09,.031,.088,.033c2.862,1.082,4.144,2.499,5.12,3.742,.215,.274,.248,.316,.396,.448l.182,.162,.071,.073c.471,.365,1.434,1.116,2.277,2.505l.16,.263,.135,.276c1.239,2.529,.854,4.813,.668,5.91l-.01,.061c-.133,.805-.357,1.592-.668,2.346l-.008,.069c-.082,.721-.242,1.431-.475,2.119-.351,1.076-.869,2.09-1.535,3.005-.558,.799-1.228,1.514-1.99,2.121-.181,.144-.33,.325-.435,.531-.106,.206-.166,.432-.177,.663-.021,.454-.073,.906-.156,1.352-.385,2.07-1.288,3.505-1.75,4.221l-.916,1.354c-1.381,1.844-3.019,3.038-4.998,3.645l-.407,.127-.44,.077c-.563,.1-1.134,.149-1.706,.148-.089,0-.179,0-.277-.003h-.12c-.017,0-.067,0-.17,.006l-.093,.006-.09,.003-.472,.018c-.331,.011-.658,.07-.972,.175-1.375,.463-2.998,.681-5.039,.681h0Z" fill="none" stroke="url(#h)" stroke-miterlimit="10" stroke-width=".246"/>
            <path d="M19.386,38.889c-1.217,0-2.415-.08-3.424-.159l-.152-.012-.152-.021c-.209-.029-.428-.053-.641-.076-.93-.102-2.201-.239-3.619-.905l-.17-.08-.158-.089c-2.725-1.529-3.727-3.784-4.459-5.432-.076-.17-.155-.349-.233-.52-.311-.626-.51-1.227-.674-1.741l-.025-.08-.022-.078c-.797-2.831-.497-4.817,1.068-7.083l.085-.123,.092-.118c.104-.133,.201-.261,.297-.382,.144-.189,.29-.382,.45-.58,.099-.124,.179-.261,.237-.409l.18-.459c.076-.195,.124-.4,.142-.609,.156-1.816,1.039-3.14,1.477-3.796l.003-.003c.032-.048,.08-.121,.096-.146l.102-.164,.031-.042c.054-.11,.161-.342,.255-.586,.051-.166,.13-.422,.209-.654,0-.009,0-.019,.003-.029,.084-.761,.259-1.509,.522-2.228l.025-.07,.027-.07c.048-.121,.081-.222,.127-.362,.187-.561,.499-1.501,1.337-2.534l.268-.324,.269-.243c1.978-1.795,4.191-1.95,4.931-1.999l.051-.004,.078-.004c.101-.005,.201-.007,.3-.007,.878,.003,1.747,.181,2.556,.523,.143,.06,.298,.087,.453,.079,.155-.007,.306-.049,.443-.122h.004c.752-.436,2.13-1.227,3.886-1.438,.085-.013,.163-.023,.22-.03,.155-.02,.401-.048,.705-.078,.525-.05,1.331-.11,2.188-.11,1.492,0,2.727,.177,3.775,.539l.068,.023,.066,.025c2.453,.927,3.511,2.09,4.384,3.202,.235,.297,.34,.435,.603,.667l.137,.122,.11,.113,.085,.067c.416,.322,1.189,.921,1.875,2.05l.12,.197,.101,.207c.998,2.038,.686,3.887,.518,4.881l-.01,.059c-.118,.722-.324,1.428-.612,2.1l-.024,.058-.011,.057c-.013,.068-.021,.123-.03,.192l-.01,.078c-.068,.609-.202,1.209-.4,1.789-.297,.915-.737,1.778-1.304,2.556-.56,.796-1.189,1.444-1.894,1.957-.31,.226-.563,.521-.739,.862-.176,.341-.271,.717-.276,1.101-.006,.478-.053,.955-.14,1.425-.325,1.753-1.073,2.941-1.539,3.664l-.666,.998c-1.192,1.666-2.599,2.73-4.292,3.248l-.09,.028c-.144,.045-.29,.081-.439,.106l-.107,.019c-.467,.083-.941,.124-1.415,.123-.08,0-.162,0-.25-.002h-.147c-.033,0-.121,0-.279,.01l-.07,.004-.068,.003c-.227,.009-.51,.018-.761,.029-.345,.014-.686,.081-1.011,.198-1.219,.435-2.71,.642-4.643,.642h0Z" fill="none" stroke="url(#i)" stroke-miterlimit="10" stroke-width=".23"/>
            <g>
              <path d="M19.387,37.19c-1.16,0-2.315-.078-3.293-.154l-.102-.008-.101-.014c-.234-.032-.467-.058-.692-.082-.854-.093-1.918-.209-3.08-.754l-.114-.054-.105-.059c-2.232-1.251-3.066-3.13-3.737-4.64-.082-.186-.17-.378-.255-.565-.263-.524-.441-1.061-.587-1.521l-.017-.053-.015-.052c-.657-2.336-.44-3.818,.831-5.658l.056-.082,.062-.079c.111-.142,.212-.274,.309-.402,.332-.435,.651-.854,1.127-1.363,.105-.112,.167-.256,.177-.409l.036-.55-.014-.18,.006-.187c.05-1.507,.807-2.641,1.212-3.25,.047-.07,.096-.143,.124-.189l.068-.109,.063-.085c.076-.124,.274-.545,.425-.949,.052-.17,.152-.494,.24-.751,.026-.082,.028-.102,.05-.278,.069-.636,.215-1.261,.436-1.862l.017-.047,.018-.047c.063-.161,.107-.292,.157-.444,.16-.482,.401-1.207,1.044-2l.179-.217,.177-.161c1.386-1.258,2.895-1.496,3.914-1.565l.034-.003h.053c.074-.003,.147-.005,.22-.005,.87,0,1.911,.417,2.457,.67,.131,.06,.272,.094,.416,.099,.144,.005,.287-.018,.422-.069,.34-.123,.671-.269,.992-.437,.695-.403,1.848-1.07,3.281-1.237,.079-.012,.15-.021,.209-.028,.144-.018,.371-.042,.653-.072,.488-.047,1.236-.102,2.026-.102,1.299,0,2.353,.146,3.221,.446l.045,.016,.043,.017c2.049,.774,2.864,1.664,3.649,2.662,.255,.322,.435,.552,.809,.887l.091,.081,.085,.085c.077,.076,.159,.145,.246,.208,.352,.272,.941,.728,1.464,1.589l.08,.132,.068,.138c.757,1.546,.514,2.988,.369,3.85l-.01,.059c-.097,.595-.266,1.175-.505,1.729v.004c-.066,.143-.112,.295-.135,.451-.02,.109-.033,.196-.045,.293l-.01,.079c-.055,.497-.163,.987-.324,1.46-.242,.755-.605,1.466-1.074,2.106-.692,.987-1.492,1.682-2.456,2.123-.234,.107-.434,.276-.578,.49-.144,.213-.226,.462-.237,.72-.005,.105-.006,.192-.003,.24,.048,.743,.101,1.584-.064,2.451-.265,1.434-.873,2.398-1.329,3.106,0,0-2.094,2.915-4,3.497l-.205,.064-.22,.039c-.371,.066-.747,.098-1.124,.097-.071,0-.144,0-.223-.002h-.174c-.075,0-.197,0-.386,.013l-.046,.003h-.046c-.729,.026-1.418,.051-1.61,.088-.103,.016-.202,.045-.297,.087-1.079,.473-2.493,.694-4.444,.694h0Z" fill="none" stroke="url(#j)" stroke-miterlimit="10" stroke-width=".214"/>
              <path d="M19.386,35.492c-1.102,0-2.216-.075-3.162-.149l-.051-.004-.051-.007c-.259-.036-.504-.063-.742-.088-.804-.087-1.636-.178-2.543-.603l-.057-.027-.053-.029c-1.741-.977-2.388-2.435-3.015-3.848-.089-.2-.181-.408-.276-.614-.212-.42-.363-.87-.498-1.296l-.009-.026-.008-.027c-.523-1.859-.39-2.808,.595-4.232l.028-.042,.031-.039c.115-.147,.22-.285,.321-.418,.473-.62,.882-1.157,1.798-2.003l.003-.003c.067-.064,.114-.146,.136-.237s.016-.185-.015-.273l-.165-.471c-.033-.148-.056-.299-.07-.451v-.005l-.01-.127,.003-.093c.034-1.023,.572-1.829,.927-2.363,.056-.085,.109-.163,.15-.229l.034-.054,.038-.051c.189-.255,.496-.96,.657-1.397,.042-.135,.151-.496,.242-.758,.064-.197,.106-.401,.124-.607,.053-.511,.171-1.014,.349-1.496l.009-.024,.009-.023c.079-.202,.134-.367,.187-.528,.142-.428,.303-.913,.751-1.465l.09-.109,.088-.079c.984-.894,2.063-1.074,2.896-1.13h.045c.047,0,.093-.003,.14-.003,.81,0,1.432,.332,1.844,.552l.096,.051,.014,.008c.113,.061,.212,.115,.304,.16,.256,.128,.55,.159,.827,.085,.564-.152,1.444-.485,2.036-.811l.012-.007c.623-.361,1.56-.905,2.659-1.025,.069-.011,.135-.019,.198-.027,.127-.016,.34-.042,.599-.066,.452-.042,1.142-.095,1.865-.095,1.107,0,1.979,.116,2.665,.352l.022,.008,.023,.009c1.644,.621,2.244,1.271,2.912,2.123,.272,.346,.529,.673,1.016,1.107l.045,.042,.042,.042c.132,.133,.274,.255,.425,.366,.292,.226,.693,.536,1.052,1.128l.04,.066,.034,.069c.517,1.055,.345,2.075,.219,2.82l-.01,.059c-.075,.47-.21,.928-.4,1.364-.111,.251-.19,.515-.235,.786-.03,.157-.047,.28-.062,.394l-.01,.081c-.041,.385-.124,.764-.248,1.13-.188,.595-.473,1.154-.843,1.656-.624,.896-1.316,1.448-2.236,1.741-.44,.139-.82,.426-1.073,.813l-.073,.112-.081,.092c-.233,.266-.168,1.296-.127,1.911,.043,.675,.088,1.372-.038,2.029-.207,1.123-.688,1.881-1.119,2.548,0,0-1.599,2.307-3.042,2.745l-.105,.033-.11,.019c-.275,.049-.554,.073-.833,.072h-.397c-.098,0-.255,0-.493,.017h-.046c-.968,.035-1.552,.056-1.874,.119-.217,.039-.429,.102-.632,.189-.864,.383-2.071,.562-3.792,.562h0Z" fill="none" stroke="url(#k)" stroke-miterlimit="10" stroke-width=".214"/>
            </g>
          </g>
        </g>
      </g>
      <g>
        <circle cx="36.044" cy="35.786" r="5.706" fill="#fff" stroke="#000" stroke-miterlimit="10" stroke-width=".5"/>
        <g>
          <path d="M36.468,35.213l2.227-2.215-.845-.84-1.805,1.795-1.805-1.795-.845,.84,2.227,2.215c.117,.116,.27,.174,.422,.174s.306-.058,.422-.174Z" filter="url(#l)"/>
          <path d="M39.692,37.579l-1.805-1.795,1.805-1.795-.845-.84-2.227,2.215c-.233,.232-.233,.608,0,.84l2.227,2.215,.845-.84h0Z" filter="url(#n)"/>
          <path d="M36.042,37.619l1.805,1.795,.845-.84-2.227-2.215c-.233-.232-.612-.232-.845,0l-2.227,2.215,.845,.84,1.805-1.795h0Z" filter="url(#p)"/>
          <path d="M35.468,36.207c.112-.111,.175-.263,.175-.42s-.063-.309-.175-.42l-2.227-2.215-.845,.84,1.805,1.795-1.805,1.795,.845,.84,2.227-2.215h0Z" filter="url(#r)"/>
        </g>
      </g>
    </g>
  </g>
</svg>