<?xml version="1.0" encoding="UTF-8"?>
<svg id="b" data-name="Layer 2" xmlns="http://www.w3.org/2000/svg" width="38" height="38" xmlns:xlink="http://www.w3.org/1999/xlink" viewBox="0 0 38 38">
  <defs>
    <filter id="f" data-name="drop-shadow-1" filterUnits="userSpaceOnUse">
      <feOffset dx="0" dy="0"/>
      <feGaussianBlur result="g" stdDeviation=".077"/>
      <feFlood flood-color="#000" flood-opacity=".13"/>
      <feComposite in2="g" operator="in"/>
      <feComposite in="SourceGraphic"/>
    </filter>
    <filter id="h" data-name="drop-shadow-2" filterUnits="userSpaceOnUse">
      <feOffset dx="0" dy="0"/>
      <feGaussianBlur result="i" stdDeviation=".077"/>
      <feFlood flood-color="#000" flood-opacity=".13"/>
      <feComposite in2="i" operator="in"/>
      <feComposite in="SourceGraphic"/>
    </filter>
    <filter id="j" data-name="drop-shadow-3" filterUnits="userSpaceOnUse">
      <feOffset dx="0" dy="0"/>
      <feGaussianBlur result="k" stdDeviation=".077"/>
      <feFlood flood-color="#000" flood-opacity=".13"/>
      <feComposite in2="k" operator="in"/>
      <feComposite in="SourceGraphic"/>
    </filter>
    <filter id="l" data-name="drop-shadow-4" filterUnits="userSpaceOnUse">
      <feOffset dx="0" dy="0"/>
      <feGaussianBlur result="m" stdDeviation=".077"/>
      <feFlood flood-color="#000" flood-opacity=".13"/>
      <feComposite in2="m" operator="in"/>
      <feComposite in="SourceGraphic"/>
    </filter>
  </defs>
  <g id="c" data-name="Layer 1">
    <g>
      <g>
        <path id="d" data-name="SVGID" d="M19,0c10.492,0,19,8.508,19,19s-8.508,19-19,19S0,29.492,0,19,8.508,0,19,0h0Z" fill="#0055d5" fill-rule="evenodd"/>
        <path id="e" data-name="SVGID" d="M10.336,12.57s-2.044-1.634-2.185,2.402c-.141,3.127-.137,9.2,1.311,12.069,.612,1.079,1.429,.749,2.949-.327,1.322-.977,6.107-5.385,8.132-7.319s6.133-7.482,6.988-3.713c.338,1.585,.756,2.93,.437,6.445-.099,1.083-.562,1.904-2.675,.437-1.596-1.026-3.112-2.128-3.112-2.128,0,0-.293-.524-.984,.327-.543,.68-.817,.847,.053,1.364,.874,.517,5.293,3.564,6.988,4.039,1.398,.407,2.196,.399,2.238-2.348-.008-2.181-.133-8.425-.927-11.085-.6-1.657-1.482-2.409-3.386-.547s-7.908,7.684-11.191,10.321c-2.177,1.634-3.108,3.108-3.929,.384-.578-2.063-1.326-8.485,1.037-7.262,1.478,.707,2.215,.703,1.638,1.148-.578,.441-2.238,1.965-2.238,1.965,0,0-.513,.414-.274,1.311,.239,.627,.239,.939,1.528-.274s2.238-2.128,2.238-2.128c0,0,.205-.323,.817,.274s.711,.764,.711,.764c0,0,.163,.445,.817-.327,.657-.771,1.079-1.243-.163-1.965-1.239-.73-6.817-3.827-6.817-3.827h0Z" fill="#fff" fill-rule="evenodd"/>
      </g>
      <circle cx="32.292" cy="32.221" r="5.706"/>
      <g>
        <path d="M32.716,31.648l2.227-2.215-.845-.84-1.805,1.795-1.805-1.795-.845,.84,2.227,2.215c.117,.116,.27,.174,.422,.174s.306-.058,.422-.174Z" fill="#fff" filter="url(#f)"/>
        <path d="M35.94,34.014l-1.805-1.795,1.805-1.795-.845-.84-2.227,2.215c-.233,.232-.233,.608,0,.84l2.227,2.215,.845-.84h0Z" fill="#fff" filter="url(#h)"/>
        <path d="M32.29,34.054l1.805,1.795,.845-.84-2.227-2.215c-.233-.232-.612-.232-.845,0l-2.227,2.215,.845,.84,1.805-1.795h0Z" fill="#fff" filter="url(#j)"/>
        <path d="M31.716,32.643c.112-.111,.175-.263,.175-.42s-.063-.309-.175-.42l-2.227-2.215-.845,.84,1.805,1.795-1.805,1.795,.845,.84,2.227-2.215h0Z" fill="#fff" filter="url(#l)"/>
      </g>
    </g>
  </g>
</svg>