<?xml version="1.0" encoding="UTF-8"?>
<svg id="b" data-name="Layer 2" xmlns="http://www.w3.org/2000/svg" width="38.248" height="38.178" xmlns:xlink="http://www.w3.org/1999/xlink" viewBox="0 0 38.248 38.178">
  <defs>
    <filter id="e" data-name="drop-shadow-1" filterUnits="userSpaceOnUse">
      <feOffset dx="0" dy="0"/>
      <feGaussianBlur result="f" stdDeviation=".077"/>
      <feFlood flood-color="#000" flood-opacity=".13"/>
      <feComposite in2="f" operator="in"/>
      <feComposite in="SourceGraphic"/>
    </filter>
    <filter id="g" data-name="drop-shadow-2" filterUnits="userSpaceOnUse">
      <feOffset dx="0" dy="0"/>
      <feGaussianBlur result="h" stdDeviation=".077"/>
      <feFlood flood-color="#000" flood-opacity=".13"/>
      <feComposite in2="h" operator="in"/>
      <feComposite in="SourceGraphic"/>
    </filter>
    <filter id="i" data-name="drop-shadow-3" filterUnits="userSpaceOnUse">
      <feOffset dx="0" dy="0"/>
      <feGaussianBlur result="j" stdDeviation=".077"/>
      <feFlood flood-color="#000" flood-opacity=".13"/>
      <feComposite in2="j" operator="in"/>
      <feComposite in="SourceGraphic"/>
    </filter>
    <filter id="k" data-name="drop-shadow-4" filterUnits="userSpaceOnUse">
      <feOffset dx="0" dy="0"/>
      <feGaussianBlur result="l" stdDeviation=".077"/>
      <feFlood flood-color="#000" flood-opacity=".13"/>
      <feComposite in2="l" operator="in"/>
      <feComposite in="SourceGraphic"/>
    </filter>
  </defs>
  <g id="c" data-name="Layer 1">
    <g>
      <g id="d" data-name="Layer_1">
        <path d="M19,0c10.494,0,19,8.507,19,19s-8.506,19-19,19S0,29.494,0,19,8.507,0,19,0Z" fill="#f5ac37"/>
        <path d="M19.7,20.342h7.22c.154,0,.227,0,.238-.202,.059-.734,.059-1.473,0-2.208,0-.143-.071-.202-.226-.202H12.563c-.178,0-.226,.059-.226,.226v2.114q0,.273,.285,.273h7.078Zm6.651-5.082c.021-.054,.021-.113,0-.166-.121-.262-.263-.513-.429-.748-.25-.402-.544-.772-.879-1.105-.158-.201-.341-.381-.546-.534-1.028-.875-2.25-1.494-3.563-1.805-.663-.149-1.34-.22-2.019-.214h-6.377c-.178,0-.202,.071-.202,.226v4.215c0,.178,0,.226,.226,.226h13.703s.119-.024,.143-.095h-.057Zm0,7.552c-.202-.022-.405-.022-.607,0H12.575c-.178,0-.238,0-.238,.238v4.121c0,.19,0,.238,.238,.238h6.08c.291,.022,.581,.002,.866-.059,.882-.063,1.75-.255,2.578-.57,.301-.104,.592-.24,.866-.404h.083c1.425-.741,2.583-1.906,3.313-3.335,0,0,.083-.18-.01-.227v-.002Zm-16.4,6.733v-6.566c0-.155,0-.178-.19-.178h-2.577c-.143,0-.202,0-.202-.19v-2.256h2.755c.154,0,.214,0,.214-.202v-2.232c0-.143,0-.178-.19-.178h-2.577c-.143,0-.202,0-.202-.19v-2.09c0-.131,0-.166,.19-.166h2.553c.178,0,.226,0,.226-.226v-6.401c0-.19,0-.238,.238-.238h8.906c.646,.026,1.288,.097,1.924,.214,1.309,.242,2.567,.71,3.717,1.377,.763,.449,1.465,.991,2.09,1.615,.47,.488,.894,1.017,1.271,1.579,.374,.57,.684,1.18,.928,1.817,.03,.166,.189,.278,.355,.25h2.126q.273,0,.285,.262v1.948c0,.19-.071,.238-.262,.238h-1.639c-.166,0-.214,0-.202,.214,.065,.723,.065,1.449,0,2.173,0,.202,0,.226,.227,.226h1.875c.083,.107,0,.214,0,.321,.012,.138,.012,.277,0,.415v1.437c0,.202-.059,.262-.238,.262h-2.244c-.156-.03-.309,.07-.345,.226-.534,1.389-1.389,2.635-2.494,3.634-.404,.363-.828,.705-1.271,1.021-.475,.274-.938,.558-1.425,.784-.897,.404-1.837,.701-2.803,.89-.917,.164-1.846,.239-2.779,.226H9.948v-.012l.003-.003Z" fill="#fefefd"/>
      </g>
      <circle cx="32.292" cy="32.221" r="5.706" fill="#fff" stroke="#000" stroke-miterlimit="10" stroke-width=".5"/>
      <g>
        <path d="M32.716,31.648l2.227-2.215-.845-.84-1.805,1.795-1.805-1.795-.845,.84,2.227,2.215c.117,.116,.27,.174,.422,.174s.306-.058,.422-.174Z" filter="url(#e)"/>
        <path d="M35.94,34.014l-1.805-1.795,1.805-1.795-.845-.84-2.227,2.215c-.233,.232-.233,.608,0,.84l2.227,2.215,.845-.84h0Z" filter="url(#g)"/>
        <path d="M32.29,34.054l1.805,1.795,.845-.84-2.227-2.215c-.233-.232-.612-.232-.845,0l-2.227,2.215,.845,.84,1.805-1.795h0Z" filter="url(#i)"/>
        <path d="M31.716,32.643c.112-.111,.175-.263,.175-.42s-.063-.309-.175-.42l-2.227-2.215-.845,.84,1.805,1.795-1.805,1.795,.845,.84,2.227-2.215h0Z" filter="url(#k)"/>
      </g>
    </g>
  </g>
</svg>