<?xml version="1.0" encoding="UTF-8"?>
<svg id="b" data-name="Layer 2" xmlns="http://www.w3.org/2000/svg" width="38.25" height="38.323" xmlns:xlink="http://www.w3.org/1999/xlink" viewBox="0 0 38.25 38.323">
  <defs>
    <filter id="d" data-name="drop-shadow-1" filterUnits="userSpaceOnUse">
      <feOffset dx="0" dy="0"/>
      <feGaussianBlur result="e" stdDeviation=".077"/>
      <feFlood flood-color="#000" flood-opacity=".13"/>
      <feComposite in2="e" operator="in"/>
      <feComposite in="SourceGraphic"/>
    </filter>
    <filter id="f" data-name="drop-shadow-2" filterUnits="userSpaceOnUse">
      <feOffset dx="0" dy="0"/>
      <feGaussianBlur result="g" stdDeviation=".077"/>
      <feFlood flood-color="#000" flood-opacity=".13"/>
      <feComposite in2="g" operator="in"/>
      <feComposite in="SourceGraphic"/>
    </filter>
    <filter id="h" data-name="drop-shadow-3" filterUnits="userSpaceOnUse">
      <feOffset dx="0" dy="0"/>
      <feGaussianBlur result="i" stdDeviation=".077"/>
      <feFlood flood-color="#000" flood-opacity=".13"/>
      <feComposite in2="i" operator="in"/>
      <feComposite in="SourceGraphic"/>
    </filter>
    <filter id="j" data-name="drop-shadow-4" filterUnits="userSpaceOnUse">
      <feOffset dx="0" dy="0"/>
      <feGaussianBlur result="k" stdDeviation=".077"/>
      <feFlood flood-color="#000" flood-opacity=".13"/>
      <feComposite in2="k" operator="in"/>
      <feComposite in="SourceGraphic"/>
    </filter>
  </defs>
  <g id="c" data-name="Layer 1">
    <g>
      <g>
        <circle cx="32.294" cy="32.367" r="5.706" fill="#fff" stroke="#000" stroke-miterlimit="10" stroke-width=".5"/>
        <g>
          <path d="M32.718,31.794l2.227-2.215-.845-.84-1.805,1.795-1.805-1.795-.845,.84,2.227,2.215c.117,.116,.27,.174,.422,.174s.306-.058,.422-.174Z" filter="url(#d)"/>
          <path d="M35.942,34.16l-1.805-1.795,1.805-1.795-.845-.84-2.227,2.215c-.233,.232-.233,.608,0,.84l2.227,2.215,.845-.84h0Z" filter="url(#f)"/>
          <path d="M32.292,34.2l1.805,1.795,.845-.84-2.227-2.215c-.233-.232-.612-.232-.845,0l-2.227,2.215,.845,.84,1.805-1.795h0Z" filter="url(#h)"/>
          <path d="M31.718,32.789c.112-.111,.175-.263,.175-.42s-.063-.309-.175-.42l-2.227-2.215-.845,.84,1.805,1.795-1.805,1.795,.845,.84,2.227-2.215h0Z" filter="url(#j)"/>
        </g>
      </g>
      <g>
        <path id="l" data-name="path0" d="M18.204,12.123c-.507,.083-.935,.19-1.311,.329-.277,.102-.345,.131-.722,.302-.248,.112-.927,.512-1.089,.64-.055,.044-.158,.123-.228,.175-.142,.106-.431,.366-.638,.573-.875,.875-1.406,1.772-1.789,3.019l-.14,.456-1.517,.019-1.517,.019v2.395l1.452,.01,1.452,.01,.025,.18c.436,3.153,2.667,5.534,5.805,6.193,.585,.123,2.206,.155,2.822,.056,2.213-.356,3.796-1.231,4.707-2.6,.265-.399,.312-.317-.46-.807-.35-.222-.901-.574-1.225-.781-.688-.441-.641-.429-.811-.199-1.387,1.885-4.879,2.112-6.518,.422-.553-.57-.926-1.287-1.109-2.131-.035-.163-.056-.305-.045-.316s2.938-.019,6.506-.019h6.487l.401-1.196c.22-.658,.391-1.205,.38-1.216-.011-.011-.691-.02-1.511-.02-1.688,0-1.538,.033-1.611-.361-.407-2.199-2.157-4.146-4.392-4.889-.966-.321-2.38-.43-3.402-.263m1.483,2.588c1.576,.193,2.72,1.182,3.016,2.608,.03,.143,.046,.273,.037,.289-.034,.057-7.272,.034-7.272-.023,0-.082,.132-.443,.274-.749,.701-1.511,2.231-2.335,3.946-2.125" fill="#042b33" fill-rule="evenodd"/>
        <g>
          <path d="M34.457,19c0,.019-.002,.037-.002,.056h3.542c0-.019,.002-.037,.002-.056C37.998,8.507,29.492,0,18.998,0V3.542c8.538,0,15.458,6.921,15.458,15.458Z" fill="#042b33"/>
          <path d="M3.543,19.056H.001c.03,10.468,8.523,18.944,18.997,18.944v-3.542c-8.518,0-15.425-6.891-15.456-15.403Z" fill="#042b33"/>
        </g>
      </g>
    </g>
  </g>
</svg>