<?xml version="1.0" encoding="UTF-8"?>
<svg id="b" data-name="Layer 2" xmlns="http://www.w3.org/2000/svg" width="38" height="38.014" xmlns:xlink="http://www.w3.org/1999/xlink" viewBox="0 0 38 38.014">
  <defs>
    <filter id="g" data-name="drop-shadow-1" filterUnits="userSpaceOnUse">
      <feOffset dx="0" dy="0"/>
      <feGaussianBlur result="h" stdDeviation=".077"/>
      <feFlood flood-color="#000" flood-opacity=".13"/>
      <feComposite in2="h" operator="in"/>
      <feComposite in="SourceGraphic"/>
    </filter>
    <filter id="i" data-name="drop-shadow-2" filterUnits="userSpaceOnUse">
      <feOffset dx="0" dy="0"/>
      <feGaussianBlur result="j" stdDeviation=".077"/>
      <feFlood flood-color="#000" flood-opacity=".13"/>
      <feComposite in2="j" operator="in"/>
      <feComposite in="SourceGraphic"/>
    </filter>
    <filter id="k" data-name="drop-shadow-3" filterUnits="userSpaceOnUse">
      <feOffset dx="0" dy="0"/>
      <feGaussianBlur result="l" stdDeviation=".077"/>
      <feFlood flood-color="#000" flood-opacity=".13"/>
      <feComposite in2="l" operator="in"/>
      <feComposite in="SourceGraphic"/>
    </filter>
    <filter id="m" data-name="drop-shadow-4" filterUnits="userSpaceOnUse">
      <feOffset dx="0" dy="0"/>
      <feGaussianBlur result="n" stdDeviation=".077"/>
      <feFlood flood-color="#000" flood-opacity=".13"/>
      <feComposite in2="n" operator="in"/>
      <feComposite in="SourceGraphic"/>
    </filter>
  </defs>
  <g id="c" data-name="Layer 1">
    <g>
      <g id="d" data-name="svgg">
        <path id="e" data-name="path0" d="M18.892,1.963c-.045,.141-.095,.291-.112,.333-.017,.042-.06,.17-.096,.285-.036,.115-.079,.243-.096,.285-.017,.042-.053,.153-.08,.247-.081,.28-.029,.266-.991,.266-.478,0-.87,.015-.87,.033s.227,.198,.504,.399c1.029,.748,.971,.641,.713,1.298-.123,.314-.331,1.033-.306,1.058,.024,.025,.385-.204,.626-.397,.597-.478,.886-.639,.953-.529,.013,.021,.258,.204,.544,.407,.287,.203,.564,.409,.616,.457,.257,.237,.243,.156-.209-1.207-.14-.423-.143-.416,.238-.688,.617-.441,1.036-.764,1.036-.798,0-.019-.379-.034-.846-.034-.465,0-.866-.013-.89-.029-.043-.027-.546-1.497-.546-1.595,0-.149-.117-.021-.19,.207m-7.468,1.846c-.034,.089-.062,.191-.062,.225s-.017,.074-.038,.087c-.021,.013-.038,.056-.038,.096s-.024,.129-.054,.197c-.03,.069-.1,.279-.157,.467-.17,.563-.065,.513-1.083,.513-.481,0-.874,.013-.874,.029,0,.016,.165,.148,.366,.295s.524,.383,.718,.525l.352,.259-.18,.54c-.099,.297-.211,.642-.248,.768-.037,.125-.083,.247-.101,.271-.018,.023-.023,.069-.011,.101,.022,.056,.275-.113,1.249-.836,.123-.092,.235-.162,.249-.156,.023,.01,.22,.154,1.018,.743,.534,.394,.535,.445-.026-1.229-.069-.207-.052-.227,.598-.696,.35-.253,.68-.494,.732-.536l.095-.076h-.898c-1.062-.002-.92,.089-1.193-.764-.117-.365-.229-.693-.249-.73-.02-.036-.036-.099-.036-.14,0-.14-.066-.116-.128,.047m14.962,.221c-.067,.217-.136,.429-.153,.471-.017,.042-.087,.25-.154,.463-.148,.469-.049,.431-1.113,.431h-.878l.377,.279c.208,.154,.543,.401,.746,.55l.368,.271-.039,.125c-.021,.069-.053,.176-.071,.239-.017,.063-.119,.376-.225,.696-.223,.671-.212,.616-.127,.616,.055,0,.228-.116,.45-.299,.023-.019,.168-.124,.323-.234,.155-.11,.36-.257,.456-.326l.174-.126,.244,.17c.134,.093,.321,.227,.415,.297,.884,.656,.887,.657,.708,.119-.281-.842-.415-1.274-.4-1.286,.065-.053,.941-.694,1.147-.839,.358-.253,.363-.251-.617-.251s-.917,.017-.993-.284c-.016-.063-.063-.209-.104-.324-.041-.115-.129-.38-.196-.589q-.2-.63-.341-.167m5.621,5.233c-.031,.037-.087,.171-.126,.296-.038,.125-.082,.262-.098,.304-.064,.17-.198,.578-.226,.686-.016,.064-.054,.166-.084,.228l-.054,.112-.865,.01c-.476,.006-.865,.025-.865,.044s.124,.124,.276,.234c.865,.63,1.093,.809,1.093,.859,0,.054-.103,.384-.367,1.172-.199,.595-.192,.604,.215,.297,.652-.491,1.062-.772,1.125-.772,.037,0,.364,.214,.728,.475,.81,.583,.814,.584,.661,.152-.022-.063-.101-.302-.174-.532-.074-.23-.161-.499-.194-.597-.083-.247-.046-.283,1.078-1.076,.148-.104,.261-.203,.251-.219s-.389-.029-.843-.03-.849-.016-.879-.035c-.03-.019-.177-.404-.326-.856-.246-.747-.276-.816-.327-.754m-26.083,.026c0,.032-.024,.115-.054,.183-.03,.069-.084,.228-.12,.353-.037,.125-.079,.254-.094,.285-.016,.031-.049,.134-.075,.228-.17,.621-.074,.57-1.082,.57-.91,0-.949,.007-.777,.128,1.404,.991,1.346,.933,1.237,1.23-.029,.079-.116,.349-.194,.6-.078,.251-.155,.483-.171,.515-.166,.333-.069,.367,.293,.103,.151-.11,.45-.327,.664-.483,.432-.315,.463-.322,.667-.158,.079,.063,.383,.285,.676,.494,.621,.443,.625,.441,.427-.156-.44-1.323-.445-1.144,.04-1.493,.203-.146,.395-.287,.427-.312,.031-.025,.173-.13,.314-.232,.333-.24,.344-.236-.622-.236-.987,0-.877,.066-1.116-.67-.101-.311-.214-.66-.252-.775-.064-.196-.188-.311-.188-.175m12.492,2.342c-.266,.028-.631,.092-1.084,.189-1.394,.3-3.134,1.456-3.974,2.641-.042,.059-.097,.13-.124,.157-.026,.028-.048,.067-.048,.088s-.013,.043-.03,.05c-.165,.07-.717,1.236-.961,2.028-.064,.209-.124,.401-.132,.427-.012,.036-.366,.049-1.528,.057l-1.513,.01v2.472l1.451,.01,1.451,.01,.041,.192c.023,.105,.041,.225,.041,.265,0,.108,.167,.815,.229,.968,.017,.042,.039,.11,.05,.152,.125,.484,.825,1.842,1.049,2.034,.012,.01,.073,.087,.135,.171,.479,.644,1.249,1.32,2.029,1.779,.252,.148,.927,.483,.975,.483,.015,0,.081,.024,.147,.053,.195,.086,.504,.181,.937,.288,1.408,.35,3.657,.179,5.001-.38,.063-.026,.174-.072,.247-.103,.974-.407,1.837-1.056,2.407-1.812,.416-.552,.422-.588,.122-.793-.167-.114-1.747-1.127-1.913-1.227-.035-.021-.137-.086-.227-.145l-.163-.107-.103,.124c-.593,.712-1.157,1.118-1.91,1.373-2.59,.878-5.053-.258-5.704-2.633-.026-.094-.062-.221-.081-.281-.018-.061-.034-.176-.034-.257v-.146h12.959l.061-.094c.034-.052,.061-.115,.061-.142s.041-.16,.09-.296c.108-.296,.632-1.887,.632-1.918,0-.012-.687-.026-1.527-.031l-1.527-.01-.07-.304c-.434-1.89-1.387-3.288-2.923-4.289-.352-.229-1.058-.598-1.146-.598-.03,0-.071-.014-.091-.032-.077-.068-.825-.273-1.348-.369-.381-.07-1.522-.103-1.958-.057m1.155,2.704c1.261,.205,2.192,.835,2.686,1.819,.073,.145,.132,.288,.132,.318s.012,.066,.027,.081c.047,.047,.121,.378,.123,.546l.002,.162h-3.613c-4.138,0-3.682,.05-3.531-.39,.319-.926,.974-1.708,1.781-2.129,.285-.149,.447-.209,.894-.335,.369-.104,1.084-.139,1.498-.071m-15.633,2.418c-.01,.018-.125,.366-.256,.774-.131,.408-.251,.767-.267,.799-.024,.048-.169,.059-.89,.067-1.019,.012-1.031,.019-.564,.348,1.146,.807,1.085,.731,.939,1.177-.491,1.5-.498,1.423,.094,.996,.22-.158,.446-.322,.502-.364,.364-.269,.459-.328,.504-.31,.028,.011,.293,.196,.591,.412,.775,.563,.791,.574,.833,.548,.025-.015,.018-.081-.018-.184-.221-.637-.472-1.457-.457-1.495,.01-.025,.134-.128,.277-.229,.563-.397,1.115-.82,1.115-.854,0-.021-.358-.036-.889-.036h-.889l-.095-.276c-.052-.152-.168-.507-.258-.789-.154-.486-.234-.657-.274-.584m30.057,.042c-.019,.037-.064,.169-.1,.295-.036,.125-.08,.262-.097,.304-.017,.042-.06,.17-.096,.285-.036,.115-.078,.243-.093,.285s-.053,.153-.084,.247l-.056,.171-.901,.019c-1.072,.023-1.058-.041-.137,.625,.459,.332,.662,.501,.653,.543-.01,.05-.285,.906-.462,1.439-.103,.31-.031,.274,.982-.487,.216-.162,.41-.295,.43-.295,.048,0,.363,.216,.907,.623,.471,.352,.588,.399,.548,.224-.024-.108-.206-.679-.381-1.198-.127-.376-.166-.318,.58-.864,.927-.679,.939-.61-.109-.61-1.009,0-.948,.016-1.035-.285-.036-.125-.079-.254-.095-.285-.016-.031-.059-.16-.096-.285-.037-.125-.08-.262-.097-.304-.016-.042-.061-.174-.099-.295-.073-.231-.105-.261-.161-.152m-1.994,7.491c-.036,.04-.066,.1-.066,.135s-.024,.118-.053,.187c-.029,.069-.117,.33-.194,.581-.077,.251-.155,.491-.172,.532-.017,.042-.04,.106-.052,.143-.019,.061-.097,.067-.916,.067-.963,0-.976,.003-.733,.177,.597,.428,1.173,.85,1.217,.891,.049,.046-.022,.356-.159,.7-.163,.409-.337,1.046-.285,1.046,.023,0,1.049-.724,1.081-.762,.01-.013,.075-.055,.143-.095,.068-.04,.124-.085,.124-.102,0-.016,.033-.03,.074-.03,.075,0,.182,.072,.991,.662,.568,.415,.589,.399,.34-.262-.13-.347-.34-1.078-.322-1.123,.012-.031,.264-.227,.559-.436,.295-.209,.556-.398,.579-.419,.023-.021,.089-.069,.146-.105,.199-.128,.127-.141-.761-.142-1.009,0-.919,.034-1.053-.399-.128-.412-.209-.658-.249-.761-.017-.042-.062-.184-.102-.317-.069-.232-.074-.238-.137-.168m-26.127,.209c-.039,.131-.084,.272-.1,.313-.017,.042-.105,.307-.196,.589l-.166,.513-.887,.01c-.682,.008-.884,.021-.872,.057,.008,.026,.313,.265,.678,.531,.715,.522,.74,.553,.632,.798-.03,.069-.093,.253-.14,.41-.047,.157-.135,.438-.196,.625-.13,.399-.106,.465,.107,.295,.356-.283,1.216-.881,1.268-.88,.031,0,.216,.119,.41,.264,.544,.407,.987,.723,1.012,.723,.061,0-.121-.695-.284-1.084-.259-.618-.278-.579,.561-1.184,.362-.262,.659-.492,.659-.511,0-.021-.371-.035-.891-.035h-.891l-.024-.086c-.013-.047-.038-.12-.055-.162-.017-.042-.095-.281-.174-.532-.32-1.023-.335-1.045-.45-.656m5.563,5.336c-.04,.104-.066,.182-.211,.643-.033,.105-.074,.224-.091,.266s-.06,.179-.096,.304c-.123,.429-.045,.399-1.027,.399-1.024,0-1.009-.016-.39,.418,.253,.178,.479,.34,.502,.361,.023,.021,.116,.089,.208,.151,.091,.062,.174,.134,.184,.159,.02,.052-.17,.697-.221,.753-.018,.02-.033,.062-.033,.093s-.053,.225-.117,.431c-.064,.206-.111,.391-.104,.412,.007,.021,.292-.163,.633-.41,.876-.633,.871-.631,.995-.469,.01,.014,.233,.177,.494,.362,.261,.185,.549,.396,.639,.468,.231,.185,.239,.141,.062-.334-.027-.073-.068-.193-.09-.266-.022-.073-.1-.314-.173-.536q-.167-.504,.028-.643c.089-.063,.193-.138,.231-.167,.038-.029,.273-.196,.521-.371,.609-.428,.623-.413-.398-.413-.936,0-.972-.009-.972-.253,0-.046-.017-.095-.038-.108s-.038-.056-.038-.096-.024-.129-.053-.197c-.029-.069-.116-.322-.194-.562-.162-.505-.19-.549-.249-.396m15.047-.06c-.13,.393-.232,.711-.362,1.127-.188,.599-.079,.546-1.113,.546-.575,0-.832,.013-.823,.041,.007,.022,.313,.259,.678,.527,.792,.579,.753,.48,.492,1.258-.046,.136-.098,.277-.117,.313-.018,.036-.034,.091-.034,.122s-.023,.112-.052,.181c-.199,.476-.178,.478,.418,.036,.273-.202,.601-.441,.728-.53l.231-.162,.229,.162c.126,.089,.448,.32,.715,.513,.467,.338,.644,.407,.515,.2-.026-.041-.047-.1-.047-.131s-.024-.112-.053-.181c-.029-.069-.136-.38-.237-.691l-.183-.566,.084-.056c.046-.031,.225-.161,.398-.289,.173-.129,.443-.326,.6-.439,.157-.113,.297-.224,.312-.247,.019-.029-.231-.047-.848-.06-.992-.022-.899,.014-1.025-.398-.045-.147-.095-.302-.112-.343-.066-.167-.229-.697-.23-.746-.001-.092-.144-.251-.165-.185m-7.532,2.063c-.033,.11-.221,.688-.361,1.109-.187,.56-.094,.515-1.074,.516-.454,0-.834,.015-.844,.032-.011,.017,.137,.141,.327,.276,.191,.134,.366,.263,.388,.285,.023,.023,.17,.132,.326,.243,.381,.271,.372,.249,.248,.571-.028,.073-.089,.261-.135,.418-.046,.157-.125,.406-.175,.554-.131,.388-.079,.559,.099,.322,.01-.014,.233-.178,.494-.364,.261-.186,.524-.377,.583-.425,.157-.127,.218-.111,.567,.142,.173,.126,.477,.347,.675,.491,.426,.31,.486,.3,.345-.055-.108-.272-.42-1.279-.418-1.354,.001-.073,.095-.157,.461-.414,.253-.178,.491-.349,.529-.38,.038-.031,.139-.105,.224-.164,.235-.164,.179-.178-.714-.178-.935,0-.884,.013-.976-.266-.038-.115-.082-.243-.097-.285-.048-.126-.137-.399-.251-.77-.099-.323-.182-.436-.221-.304" fill="#f9d23c" fill-rule="evenodd"/>
        <path id="f" data-name="path1" d="M16.724,.021c-.265,.011-.369,.03-.392,.07-.023,.041-.108,.056-.333,.056-.176,0-.302,.016-.302,.038,0,.021-.101,.038-.228,.038s-.228,.017-.228,.038c0,.021-.095,.038-.21,.038-.152,0-.216,.016-.232,.057-.015,.04-.078,.057-.208,.057-.102,0-.186,.017-.186,.038s-.077,.038-.171,.038c-.127,0-.171,.015-.171,.057,0,.043-.046,.057-.19,.057-.105,0-.19,.017-.19,.038s-.06,.038-.133,.038-.133,.017-.133,.038-.06,.038-.133,.038c-.093,0-.133,.017-.133,.057s-.04,.057-.133,.057c-.073,0-.133,.017-.133,.038s-.068,.038-.152,.038c-.11,0-.152,.016-.152,.057,0,.04-.04,.057-.133,.057-.073,0-.133,.017-.133,.038s-.06,.038-.133,.038-.133,.017-.133,.038-.043,.038-.095,.038c-.059,0-.095,.022-.095,.057,0,.04-.04,.057-.133,.057-.073,0-.133,.017-.133,.038s-.043,.038-.095,.038-.095,.015-.095,.034c0,.019-.043,.045-.095,.058-.052,.013-.095,.041-.095,.061s-.051,.037-.114,.037-.114,.017-.114,.038-.043,.038-.095,.038c-.059,0-.095,.022-.095,.057s-.036,.057-.095,.057c-.052,0-.095,.017-.095,.038s-.043,.038-.095,.038-.095,.015-.095,.034c0,.019-.043,.045-.095,.058-.052,.013-.095,.041-.095,.061s-.033,.037-.074,.037-.084,.017-.097,.038c-.013,.021-.057,.038-.097,.038s-.074,.026-.074,.057-.026,.057-.057,.057-.057,.017-.057,.038-.043,.038-.095,.038-.095,.017-.095,.038-.034,.038-.076,.038c-.042,0-.076,.025-.076,.057,0,.033-.034,.057-.081,.057-.045,0-.121,.043-.169,.095-.048,.052-.115,.095-.147,.095s-.059,.017-.059,.038-.039,.038-.086,.038-.118,.043-.157,.095c-.039,.052-.103,.095-.142,.095s-.071,.017-.071,.038-.026,.038-.057,.038-.057,.026-.057,.057c0,.032-.034,.057-.076,.057-.042,0-.076,.017-.076,.038s-.026,.038-.057,.038-.057,.017-.057,.038-.028,.038-.062,.038c-.067,0-.28,.202-.28,.266,0,.021-.043,.038-.095,.038s-.095,.017-.095,.038-.018,.038-.041,.038c-.053,0-.149,.097-.149,.149,0,.022-.036,.041-.079,.041s-.137,.06-.208,.133c-.071,.073-.148,.133-.17,.133s-.119,.077-.214,.171c-.095,.094-.189,.171-.207,.171-.019,0-.034,.018-.034,.041,0,.058-.099,.149-.163,.149-.03,0-.087,.043-.126,.095s-.086,.095-.103,.095c-.045,0-.14,.101-.14,.149,0,.022-.018,.041-.041,.041-.044,0-.149,.094-.149,.133,0,.032-.101,.133-.133,.133-.039,0-.133,.105-.133,.149,0,.022-.018,.041-.041,.041-.044,0-.149,.094-.149,.133,0,.032-.101,.133-.133,.133-.039,0-.133,.105-.133,.149,0,.022-.018,.041-.041,.041-.048,0-.149,.095-.149,.14,0,.017-.043,.064-.095,.103s-.095,.096-.095,.126c0,.064-.091,.163-.149,.163-.022,0-.041,.015-.041,.034,0,.019-.077,.112-.171,.207-.094,.096-.171,.192-.171,.214s-.06,.099-.133,.17c-.073,.071-.133,.165-.133,.208s-.018,.079-.041,.079c-.053,0-.149,.097-.149,.149,0,.022-.017,.041-.038,.041s-.038,.043-.038,.095-.017,.095-.038,.095c-.064,0-.266,.213-.266,.28,0,.034-.017,.062-.038,.062s-.038,.026-.038,.057-.017,.057-.038,.057-.038,.034-.038,.076c0,.042-.025,.076-.057,.076-.031,0-.057,.026-.057,.057s-.017,.057-.038,.057-.038,.032-.038,.071-.043,.103-.095,.142c-.052,.039-.095,.11-.095,.157s-.017,.086-.038,.086-.038,.027-.038,.059-.043,.098-.095,.147c-.052,.048-.095,.125-.095,.169,0,.047-.024,.081-.057,.081-.032,0-.057,.034-.057,.076,0,.042-.017,.076-.038,.076s-.038,.043-.038,.095-.017,.095-.038,.095-.038,.026-.038,.057-.026,.057-.057,.057-.057,.033-.057,.074-.017,.084-.038,.097c-.021,.013-.038,.057-.038,.097s-.017,.074-.037,.074-.048,.043-.061,.095c-.013,.052-.039,.095-.058,.095-.019,0-.034,.043-.034,.095s-.017,.095-.038,.095-.038,.043-.038,.095c0,.059-.022,.095-.057,.095s-.057,.036-.057,.095c0,.052-.017,.095-.038,.095s-.038,.051-.038,.114-.017,.114-.037,.114-.048,.043-.061,.095c-.013,.052-.039,.095-.058,.095-.019,0-.034,.043-.034,.095s-.017,.095-.038,.095-.038,.06-.038,.133c0,.093-.017,.133-.057,.133-.035,0-.057,.036-.057,.095,0,.052-.017,.095-.038,.095s-.038,.06-.038,.133-.017,.133-.038,.133-.038,.06-.038,.133c0,.093-.017,.133-.057,.133-.041,0-.057,.042-.057,.152,0,.084-.017,.152-.038,.152s-.038,.06-.038,.133c0,.093-.017,.133-.057,.133s-.057,.04-.057,.133c0,.073-.017,.133-.038,.133s-.038,.06-.038,.133-.017,.133-.038,.133-.038,.086-.038,.19c0,.144-.014,.19-.057,.19-.042,0-.057,.044-.057,.171,0,.094-.017,.171-.038,.171s-.038,.084-.038,.186c0,.13-.017,.193-.057,.208-.041,.016-.057,.08-.057,.232,0,.116-.017,.21-.038,.21-.021,0-.038,.101-.038,.228s-.017,.228-.038,.228c-.022,0-.038,.126-.038,.302,0,.248-.012,.309-.067,.34-.103,.058-.103,5.275,0,5.333,.055,.031,.067,.091,.067,.34,0,.176,.016,.302,.038,.302,.021,0,.038,.101,.038,.228s.017,.228,.038,.228c.021,0,.038,.095,.038,.21,0,.152,.016,.216,.057,.232,.04,.015,.057,.078,.057,.208,0,.102,.017,.186,.038,.186s.038,.077,.038,.171c0,.127,.015,.171,.057,.171,.043,0,.057,.046,.057,.19,0,.105,.017,.19,.038,.19s.038,.06,.038,.133,.017,.133,.038,.133,.038,.06,.038,.133c0,.093,.017,.133,.057,.133s.057,.04,.057,.133c0,.073,.017,.133,.038,.133s.038,.068,.038,.152c0,.11,.016,.152,.057,.152,.04,0,.057,.04,.057,.133,0,.073,.017,.133,.038,.133s.038,.06,.038,.133,.017,.133,.038,.133,.038,.043,.038,.095c0,.059,.022,.095,.057,.095,.04,0,.057,.04,.057,.133,0,.073,.017,.133,.038,.133s.038,.043,.038,.095,.015,.095,.034,.095c.019,0,.045,.043,.058,.095,.013,.052,.041,.095,.061,.095s.037,.051,.037,.114,.017,.114,.038,.114,.038,.041,.038,.091,.026,.101,.057,.113c.031,.012,.057,.057,.057,.099s.017,.077,.038,.077,.038,.043,.038,.095,.015,.095,.034,.095c.019,0,.045,.043,.058,.095,.013,.052,.041,.095,.061,.095s.037,.033,.037,.074,.017,.084,.038,.097c.021,.013,.038,.057,.038,.097s.026,.074,.057,.074,.057,.026,.057,.057,.017,.057,.038,.057,.038,.043,.038,.095,.017,.095,.038,.095,.038,.034,.038,.076c0,.042,.025,.076,.057,.076,.033,0,.057,.034,.057,.081,0,.045,.043,.121,.095,.169,.052,.048,.095,.115,.095,.147s.017,.059,.038,.059,.038,.037,.038,.081,.043,.121,.095,.169c.052,.048,.095,.115,.095,.147s.017,.059,.038,.059,.038,.026,.038,.057,.026,.057,.057,.057c.032,0,.057,.034,.057,.076,0,.042,.017,.076,.038,.076s.038,.026,.038,.057,.017,.057,.038,.057,.038,.028,.038,.062c0,.067,.202,.28,.266,.28,.021,0,.038,.043,.038,.095s.017,.095,.038,.095,.038,.018,.038,.041c0,.053,.097,.149,.149,.149,.022,0,.041,.036,.041,.079s.06,.137,.133,.208c.073,.071,.133,.148,.133,.17s.077,.119,.171,.214c.094,.095,.171,.189,.171,.207s.018,.034,.041,.034c.057,0,.149,.099,.149,.16,0,.028,.03,.077,.067,.109,.037,.032,.101,.104,.142,.161,.042,.056,.097,.102,.124,.102s.048,.018,.048,.041c0,.044,.094,.149,.133,.149,.032,0,.133,.101,.133,.133,0,.039,.105,.133,.149,.133,.022,0,.041,.018,.041,.041,0,.044,.094,.149,.133,.149,.032,0,.133,.101,.133,.133,0,.039,.105,.133,.149,.133,.022,0,.041,.018,.041,.041,0,.048,.095,.149,.14,.149,.017,0,.064,.043,.103,.095,.039,.052,.096,.095,.126,.095,.064,0,.163,.091,.163,.149,0,.022,.015,.041,.034,.041,.019,0,.112,.077,.207,.171,.096,.094,.192,.171,.214,.171s.099,.06,.17,.133c.071,.073,.165,.133,.208,.133s.079,.018,.079,.041c0,.051,.096,.149,.145,.149,.02,0,.046,.026,.059,.057,.012,.031,.052,.057,.09,.058,.037,0,.119,.06,.181,.133,.063,.073,.144,.132,.181,.132s.067,.017,.067,.038,.026,.038,.057,.038,.057,.017,.057,.038,.034,.038,.076,.038c.042,0,.076,.025,.076,.057,0,.031,.026,.057,.057,.057s.057,.017,.057,.038,.032,.038,.071,.038,.103,.043,.142,.095c.039,.052,.11,.095,.157,.095s.086,.017,.086,.038,.027,.038,.059,.038,.098,.043,.147,.095c.048,.052,.125,.095,.169,.095,.047,0,.081,.024,.081,.057,0,.032,.034,.057,.076,.057,.042,0,.076,.017,.076,.038s.043,.038,.095,.038,.095,.017,.095,.038,.026,.038,.057,.038,.057,.026,.057,.057,.033,.057,.074,.057,.084,.017,.097,.038c.013,.021,.055,.038,.093,.038s.08,.026,.092,.057c.012,.031,.057,.057,.099,.057s.077,.017,.077,.038,.043,.038,.095,.038,.095,.017,.095,.038,.043,.038,.095,.038c.059,0,.095,.022,.095,.057s.036,.057,.095,.057c.052,0,.095,.017,.095,.038s.05,.038,.11,.038c.063,0,.119,.025,.132,.057,.012,.031,.057,.057,.099,.057s.077,.017,.077,.038,.043,.038,.095,.038,.095,.017,.095,.038,.06,.038,.133,.038c.093,0,.133,.017,.133,.057,0,.035,.036,.057,.095,.057,.052,0,.095,.017,.095,.038s.06,.038,.133,.038,.133,.017,.133,.038,.06,.038,.133,.038c.093,0,.133,.017,.133,.057,0,.041,.042,.057,.152,.057,.084,0,.152,.017,.152,.038s.06,.038,.133,.038c.093,0,.133,.017,.133,.057s.04,.057,.133,.057c.073,0,.133,.017,.133,.038s.06,.038,.133,.038,.133,.017,.133,.038,.086,.038,.19,.038c.144,0,.19,.014,.19,.057,0,.042,.044,.057,.171,.057,.094,0,.171,.017,.171,.038s.084,.038,.186,.038c.13,0,.193,.017,.208,.057,.016,.041,.08,.057,.232,.057,.116,0,.21,.017,.21,.038,0,.021,.101,.038,.228,.038s.228,.017,.228,.038c0,.022,.126,.038,.302,.038,.248,0,.309,.012,.34,.067,.058,.103,5.275,.103,5.333,0,.031-.055,.091-.067,.34-.067,.176,0,.302-.016,.302-.038,0-.021,.101-.038,.228-.038s.228-.017,.228-.038c0-.021,.095-.038,.21-.038,.152,0,.216-.016,.232-.057,.015-.04,.078-.057,.208-.057,.102,0,.186-.017,.186-.038s.077-.038,.171-.038c.127,0,.171-.015,.171-.057,0-.043,.046-.057,.19-.057,.105,0,.19-.017,.19-.038s.06-.038,.133-.038,.133-.017,.133-.038,.06-.038,.133-.038c.093,0,.133-.017,.133-.057s.04-.057,.133-.057c.073,0,.133-.017,.133-.038s.068-.038,.152-.038c.11,0,.152-.016,.152-.057,0-.04,.04-.057,.133-.057,.073,0,.133-.017,.133-.038s.06-.038,.133-.038,.133-.017,.133-.038,.043-.038,.095-.038c.059,0,.095-.022,.095-.057,0-.04,.04-.057,.133-.057,.073,0,.133-.017,.133-.038s.043-.038,.095-.038,.095-.017,.095-.038,.035-.038,.077-.038,.087-.026,.099-.057c.013-.033,.069-.057,.132-.057,.06,0,.11-.017,.11-.038s.041-.038,.091-.038,.101-.026,.113-.057c.012-.031,.057-.057,.099-.057s.077-.017,.077-.038,.043-.038,.095-.038,.095-.017,.095-.038,.035-.038,.077-.038,.087-.026,.099-.057c.012-.031,.053-.057,.092-.057s.08-.017,.093-.038c.013-.021,.057-.038,.097-.038s.074-.026,.074-.057,.026-.057,.057-.057,.057-.017,.057-.038,.043-.038,.095-.038,.095-.017,.095-.038,.034-.038,.076-.038c.042,0,.076-.025,.076-.057,0-.035,.036-.057,.095-.057,.052,0,.095-.017,.095-.038s.026-.038,.057-.038,.057-.026,.057-.057c0-.032,.034-.057,.076-.057,.042,0,.076-.017,.076-.038s.037-.038,.081-.038,.121-.043,.169-.095c.048-.052,.115-.095,.147-.095s.059-.017,.059-.038,.026-.038,.057-.038,.057-.026,.057-.057c0-.032,.034-.057,.076-.057,.042,0,.076-.017,.076-.038s.026-.038,.057-.038,.057-.017,.057-.038,.03-.038,.067-.038,.118-.06,.181-.132c.063-.073,.144-.133,.181-.133,.037,0,.078-.027,.09-.058,.012-.031,.038-.057,.059-.057,.049,0,.145-.099,.145-.149,0-.022,.036-.041,.079-.041s.137-.06,.208-.133c.071-.073,.149-.133,.173-.133s.1-.06,.169-.133c.069-.073,.136-.133,.15-.133,.032,0,.133-.101,.133-.133,0-.044,.107-.133,.16-.133,.028,0,.077-.03,.109-.067,.032-.037,.104-.101,.161-.142,.056-.042,.102-.097,.102-.124s.018-.048,.041-.048c.044,0,.149-.094,.149-.133,0-.032,.101-.133,.133-.133,.039,0,.133-.105,.133-.149,0-.022,.018-.041,.041-.041,.044,0,.149-.094,.149-.133,0-.032,.101-.133,.133-.133,.039,0,.133-.105,.133-.149,0-.022,.022-.041,.048-.041s.082-.046,.124-.102c.042-.056,.106-.129,.142-.161,.037-.032,.067-.081,.067-.109,0-.053,.089-.16,.133-.16,.032,0,.133-.101,.133-.133,0-.013,.06-.081,.133-.15,.073-.069,.133-.145,.133-.169s.06-.102,.133-.173c.073-.071,.133-.165,.133-.208s.018-.079,.041-.079c.051,0,.149-.096,.149-.145,0-.02,.026-.046,.057-.059,.031-.012,.057-.052,.058-.09,0-.037,.06-.119,.133-.181,.073-.063,.132-.144,.132-.181s.017-.067,.038-.067,.038-.026,.038-.057,.017-.057,.038-.057,.038-.034,.038-.076c0-.042,.025-.076,.057-.076,.031,0,.057-.026,.057-.057s.017-.057,.038-.057,.038-.027,.038-.059,.043-.098,.095-.147c.052-.048,.095-.125,.095-.169s.017-.081,.038-.081,.038-.034,.038-.076c0-.042,.025-.076,.057-.076,.031,0,.057-.026,.057-.057s.017-.057,.038-.057,.038-.043,.038-.095c0-.059,.022-.095,.057-.095,.032,0,.057-.034,.057-.076,0-.042,.017-.076,.038-.076s.038-.043,.038-.095,.017-.095,.038-.095,.038-.026,.038-.057,.026-.057,.057-.057,.057-.033,.057-.074,.017-.084,.038-.097c.021-.013,.038-.055,.038-.093s.026-.08,.057-.092c.031-.012,.057-.057,.057-.099s.017-.077,.038-.077,.038-.043,.038-.095,.017-.095,.038-.095,.038-.035,.038-.077,.026-.087,.057-.099c.031-.012,.057-.063,.057-.113s.017-.091,.038-.091,.038-.05,.038-.11c0-.063,.025-.119,.057-.132,.031-.012,.057-.057,.057-.099s.017-.077,.038-.077,.038-.043,.038-.095,.017-.095,.038-.095,.038-.06,.038-.133c0-.093,.017-.133,.057-.133,.035,0,.057-.036,.057-.095,0-.052,.017-.095,.038-.095s.038-.06,.038-.133,.017-.133,.038-.133,.038-.06,.038-.133c0-.093,.017-.133,.057-.133,.041,0,.057-.042,.057-.152,0-.084,.017-.152,.038-.152s.038-.06,.038-.133c0-.093,.017-.133,.057-.133s.057-.04,.057-.133c0-.073,.017-.133,.038-.133s.038-.06,.038-.133,.017-.133,.038-.133,.038-.086,.038-.19c0-.144,.014-.19,.057-.19,.042,0,.057-.044,.057-.171,0-.094,.017-.171,.038-.171s.038-.084,.038-.186c0-.13,.017-.193,.057-.208,.041-.016,.057-.08,.057-.232,0-.116,.017-.21,.038-.21,.021,0,.038-.101,.038-.228s.017-.228,.038-.228c.022,0,.038-.126,.038-.302,0-.248,.012-.309,.067-.34,.062-.035,.067-.202,.067-2.666s-.004-2.632-.067-2.666c-.055-.031-.067-.091-.067-.34,0-.176-.016-.302-.038-.302-.021,0-.038-.101-.038-.228s-.017-.228-.038-.228c-.021,0-.038-.095-.038-.21,0-.152-.016-.216-.057-.232-.04-.015-.057-.078-.057-.208,0-.102-.017-.186-.038-.186s-.038-.077-.038-.171c0-.127-.015-.171-.057-.171-.043,0-.057-.046-.057-.19,0-.105-.017-.19-.038-.19s-.038-.06-.038-.133-.017-.133-.038-.133-.038-.06-.038-.133c0-.093-.017-.133-.057-.133s-.057-.04-.057-.133c0-.073-.017-.133-.038-.133s-.038-.068-.038-.152c0-.11-.016-.152-.057-.152-.04,0-.057-.04-.057-.133,0-.073-.017-.133-.038-.133s-.038-.06-.038-.133-.017-.133-.038-.133-.038-.043-.038-.095c0-.059-.022-.095-.057-.095-.04,0-.057-.04-.057-.133,0-.073-.017-.133-.038-.133s-.038-.043-.038-.095-.017-.095-.038-.095-.038-.035-.038-.077-.026-.087-.057-.099c-.033-.013-.057-.069-.057-.132,0-.06-.017-.11-.038-.11s-.038-.043-.038-.095c0-.059-.022-.095-.057-.095s-.057-.036-.057-.095c0-.052-.017-.095-.038-.095s-.038-.043-.038-.095-.017-.095-.038-.095-.038-.035-.038-.077-.026-.087-.057-.099c-.031-.012-.057-.053-.057-.092s-.017-.08-.038-.093c-.021-.013-.038-.057-.038-.097s-.026-.074-.057-.074-.057-.026-.057-.057-.017-.057-.038-.057-.038-.043-.038-.095-.017-.095-.038-.095-.038-.034-.038-.076c0-.042-.025-.076-.057-.076-.033,0-.057-.034-.057-.081,0-.045-.043-.121-.095-.169-.052-.048-.095-.115-.095-.147s-.017-.059-.038-.059-.038-.039-.038-.086-.043-.118-.095-.157c-.052-.039-.095-.103-.095-.142s-.017-.071-.038-.071-.038-.026-.038-.057-.026-.057-.057-.057c-.032,0-.057-.034-.057-.076,0-.042-.017-.076-.038-.076s-.038-.026-.038-.057-.017-.057-.038-.057-.038-.03-.038-.067-.06-.118-.132-.181c-.073-.063-.133-.144-.133-.181,0-.037-.027-.078-.058-.09-.031-.012-.057-.038-.057-.059,0-.049-.099-.145-.149-.145-.022,0-.041-.036-.041-.079s-.06-.137-.133-.208c-.073-.071-.133-.148-.133-.17s-.077-.119-.171-.214c-.094-.095-.171-.189-.171-.207,0-.019-.018-.034-.041-.034-.058,0-.149-.099-.149-.163,0-.03-.043-.087-.095-.126-.052-.039-.095-.086-.095-.103,0-.045-.101-.14-.149-.14-.022,0-.041-.018-.041-.041,0-.044-.094-.149-.133-.149-.032,0-.133-.101-.133-.133,0-.039-.105-.133-.149-.133-.022,0-.041-.018-.041-.041,0-.044-.094-.149-.133-.149-.032,0-.133-.101-.133-.133,0-.039-.105-.133-.149-.133-.022,0-.041-.022-.041-.048s-.046-.082-.102-.124c-.056-.042-.129-.106-.161-.142-.032-.037-.081-.067-.109-.067-.061,0-.16-.092-.16-.149,0-.022-.015-.041-.034-.041-.019,0-.112-.077-.207-.171-.096-.094-.192-.171-.214-.171s-.099-.06-.17-.133c-.071-.073-.165-.133-.208-.133s-.079-.018-.079-.041c0-.053-.097-.149-.149-.149-.022,0-.041-.017-.041-.038s-.043-.038-.095-.038-.095-.017-.095-.038c0-.064-.213-.266-.28-.266-.034,0-.062-.017-.062-.038s-.026-.038-.057-.038-.057-.017-.057-.038-.034-.038-.076-.038c-.042,0-.076-.025-.076-.057,0-.031-.026-.057-.057-.057s-.057-.017-.057-.038-.027-.038-.059-.038-.098-.043-.147-.095c-.048-.052-.125-.095-.169-.095s-.081-.017-.081-.038-.027-.038-.059-.038-.098-.043-.147-.095c-.048-.052-.125-.095-.169-.095-.047,0-.081-.024-.081-.057,0-.032-.034-.057-.076-.057-.042,0-.076-.017-.076-.038s-.043-.038-.095-.038-.095-.017-.095-.038-.026-.038-.057-.038-.057-.026-.057-.057-.033-.057-.074-.057-.084-.017-.097-.038c-.013-.021-.057-.038-.097-.038s-.074-.017-.074-.037-.043-.048-.095-.061c-.052-.013-.095-.039-.095-.058,0-.019-.043-.034-.095-.034s-.095-.017-.095-.038-.035-.038-.077-.038-.087-.026-.099-.057c-.012-.031-.063-.057-.113-.057s-.091-.017-.091-.038-.051-.038-.114-.038-.114-.017-.114-.037-.043-.048-.095-.061c-.052-.013-.095-.039-.095-.058,0-.019-.043-.034-.095-.034s-.095-.017-.095-.038-.06-.038-.133-.038c-.093,0-.133-.017-.133-.057,0-.035-.036-.057-.095-.057-.052,0-.095-.017-.095-.038s-.06-.038-.133-.038-.133-.017-.133-.038-.06-.038-.133-.038c-.093,0-.133-.017-.133-.057,0-.041-.042-.057-.152-.057-.084,0-.152-.017-.152-.038s-.06-.038-.133-.038c-.093,0-.133-.017-.133-.057s-.04-.057-.133-.057c-.073,0-.133-.017-.133-.038s-.06-.038-.133-.038-.133-.017-.133-.038-.086-.038-.19-.038c-.144,0-.19-.014-.19-.057,0-.042-.044-.057-.171-.057-.094,0-.171-.017-.171-.038s-.084-.038-.186-.038c-.13,0-.193-.017-.208-.057-.016-.041-.08-.057-.232-.057-.116,0-.21-.017-.21-.038,0-.021-.101-.038-.228-.038s-.228-.017-.228-.038c0-.022-.126-.038-.302-.038-.247,0-.309-.012-.339-.066-.036-.065-3.744-.11-4.948-.06m2.357,1.734c0,.097,.503,1.568,.546,1.595,.024,.015,.424,.028,.89,.029,.467,0,.846,.016,.846,.034,0,.034-.42,.357-1.036,.798-.38,.272-.378,.265-.238,.688,.452,1.363,.466,1.444,.209,1.207-.052-.048-.329-.254-.616-.457-.287-.203-.531-.386-.544-.407-.068-.11-.357,.051-.953,.529-.241,.193-.602,.422-.626,.397-.025-.026,.183-.744,.306-1.058,.258-.657,.316-.551-.713-1.298-.277-.201-.504-.381-.504-.399s.391-.033,.87-.033c.962,0,.91,.014,.991-.266,.027-.094,.063-.205,.08-.247,.017-.042,.06-.17,.096-.285,.036-.115,.079-.243,.096-.285,.017-.042,.067-.192,.112-.333,.073-.229,.19-.357,.19-.207m-7.529,2.007c0,.041,.016,.104,.036,.14,.02,.036,.132,.365,.249,.73,.273,.854,.131,.762,1.193,.763h.898l-.095,.077c-.052,.042-.382,.283-.732,.536-.65,.469-.667,.489-.598,.696,.561,1.674,.56,1.623,.026,1.229-.798-.589-.995-.733-1.018-.743-.014-.006-.125,.064-.249,.156-.974,.723-1.227,.892-1.249,.836-.012-.032-.007-.078,.011-.101,.018-.023,.064-.145,.101-.271,.037-.125,.148-.471,.248-.768l.18-.54-.352-.259c-.194-.142-.517-.379-.718-.525s-.365-.279-.366-.295c0-.016,.393-.029,.874-.029,1.018,0,.912,.05,1.083-.513,.057-.188,.128-.398,.157-.467,.029-.069,.054-.157,.054-.197s.017-.083,.038-.096c.021-.013,.038-.052,.038-.087s.028-.136,.062-.225c.062-.162,.128-.186,.128-.047m15.175,.435c.066,.209,.154,.474,.196,.589,.041,.115,.088,.261,.104,.324,.076,.301,.017,.284,.993,.284s.975-.002,.617,.251c-.206,.145-1.082,.786-1.147,.839-.015,.012,.119,.444,.4,1.286,.18,.538,.176,.537-.708-.119-.094-.07-.281-.203-.415-.297l-.244-.17-.174,.126c-.096,.069-.301,.216-.456,.326-.155,.11-.301,.215-.323,.234-.222,.183-.395,.299-.45,.299-.085,0-.096,.055,.127-.616,.106-.32,.208-.633,.225-.696,.017-.063,.049-.17,.071-.239l.039-.125-.368-.271c-.203-.149-.538-.396-.746-.55l-.377-.279h.878c1.064,0,.966,.038,1.113-.431,.067-.213,.136-.421,.154-.463,.017-.042,.086-.254,.153-.471q.142-.462,.341,.167m5.933,6.676c.03,.019,.426,.035,.879,.035s.833,.014,.843,.03-.103,.114-.251,.219c-1.124,.792-1.161,.829-1.078,1.076,.033,.098,.12,.367,.194,.597,.073,.23,.152,.47,.174,.532,.154,.432,.15,.431-.661-.152-.363-.261-.691-.475-.728-.475-.063,0-.473,.281-1.125,.772-.407,.306-.413,.298-.215-.297,.263-.788,.367-1.118,.367-1.172,0-.05-.228-.229-1.093-.859-.152-.11-.276-.216-.276-.234s.389-.038,.865-.044l.865-.01,.054-.112c.03-.062,.067-.164,.084-.228,.028-.109,.162-.516,.226-.686,.016-.042,.06-.179,.098-.304,.142-.468,.15-.459,.453,.458,.149,.452,.296,.837,.326,.856m-26.548-1.409c.038,.115,.151,.464,.252,.775,.239,.736,.129,.67,1.116,.67,.966,0,.954-.004,.622,.236-.141,.102-.282,.206-.314,.232-.031,.025-.223,.166-.427,.312-.485,.349-.48,.17-.04,1.493,.199,.598,.195,.599-.427,.156-.293-.209-.597-.431-.676-.494-.204-.164-.235-.156-.667,.158-.214,.156-.513,.373-.664,.483-.363,.264-.459,.23-.293-.103,.016-.032,.093-.264,.171-.515,.078-.251,.166-.521,.194-.6,.109-.297,.167-.24-1.237-1.23-.173-.122-.133-.128,.777-.128,1.008,0,.912,.051,1.082-.57,.026-.094,.06-.197,.075-.228,.015-.031,.058-.16,.094-.285,.036-.125,.091-.284,.12-.353,.03-.069,.054-.151,.054-.183,0-.136,.124-.021,.188,.175m14.262,2.223c.523,.096,1.271,.301,1.348,.369,.02,.017,.061,.032,.091,.032,.088,0,.794,.368,1.146,.598,1.536,1.001,2.489,2.399,2.923,4.289l.07,.304,1.527,.01c.84,.005,1.527,.019,1.527,.031,0,.031-.525,1.622-.632,1.918-.05,.136-.09,.27-.09,.296s-.028,.09-.061,.142l-.061,.094H15.203v.146c0,.081,.015,.196,.034,.257,.019,.061,.055,.187,.081,.281,.607,2.214,2.792,3.368,5.248,2.771,.977-.237,1.678-.685,2.366-1.511l.103-.124,.163,.107c.09,.059,.192,.124,.227,.145,.166,.1,1.746,1.113,1.913,1.227,.3,.204,.295,.241-.122,.793-.57,.755-1.433,1.405-2.407,1.812-.073,.031-.184,.077-.247,.103-1.343,.559-3.593,.73-5.001,.38-.434-.108-.742-.203-.937-.288-.066-.029-.132-.053-.147-.053-.047,0-.723-.335-.975-.483-.78-.46-1.55-1.135-2.029-1.779-.062-.084-.123-.161-.135-.171-.223-.192-.924-1.551-1.049-2.034-.011-.042-.033-.11-.05-.152-.062-.153-.229-.861-.229-.968,0-.04-.018-.16-.041-.265l-.041-.192-1.451-.01-1.451-.01v-2.472l1.513-.01c1.162-.008,1.517-.021,1.528-.057,.008-.026,.068-.218,.132-.427,.244-.792,.796-1.958,.961-2.028,.016-.007,.03-.03,.03-.05s.021-.06,.048-.088c.026-.028,.082-.098,.124-.157,.84-1.184,2.58-2.341,3.974-2.641,1.094-.235,2.219-.284,3.042-.133m-1.958,2.652c-.232,.035-.279,.046-.684,.166-1.021,.302-1.944,1.237-2.333,2.365-.152,.44-.608,.39,3.531,.39h3.613l-.002-.162c-.002-.169-.076-.499-.123-.546-.015-.015-.027-.051-.027-.081,0-.087-.253-.565-.413-.78-.753-1.014-2.19-1.559-3.561-1.351m-14.204,2.997c.09,.282,.206,.637,.258,.789l.095,.276h.889c.531,0,.889,.014,.889,.036,0,.034-.552,.457-1.115,.854-.143,.101-.267,.204-.277,.229-.015,.038,.236,.858,.457,1.495,.036,.104,.042,.169,.018,.184-.042,.026-.058,.015-.833-.548-.297-.216-.563-.401-.591-.412-.045-.017-.14,.041-.504,.31-1.096,.81-1.068,.809-.809,.019,.065-.199,.161-.492,.213-.651,.146-.446,.206-.37-.939-1.177-.466-.329-.454-.336,.564-.348,.72-.009,.866-.02,.89-.067,.016-.031,.136-.391,.267-.799,.131-.408,.246-.756,.256-.774,.04-.073,.12,.098,.274,.584m29.944-.39c.038,.12,.083,.253,.099,.295,.016,.042,.06,.179,.097,.304,.037,.125,.08,.254,.096,.285,.016,.031,.058,.16,.095,.285,.087,.301,.026,.284,1.035,.285,1.047,0,1.035-.068,.109,.61-.746,.546-.707,.488-.58,.864,.175,.519,.357,1.09,.381,1.198,.04,.176-.077,.128-.548-.224-.544-.406-.86-.623-.907-.623-.02,0-.214,.133-.43,.295-1.013,.761-1.085,.797-.982,.487,.177-.533,.452-1.389,.462-1.439,.009-.042-.194-.211-.653-.543-.921-.667-.935-.603,.137-.625l.901-.019,.056-.171c.031-.094,.069-.205,.084-.247s.057-.17,.093-.285c.036-.115,.079-.243,.096-.285,.017-.042,.061-.179,.097-.304,.125-.432,.163-.452,.261-.143m-1.917,7.824c.041,.102,.121,.348,.249,.761,.134,.432,.044,.398,1.053,.399,.887,0,.96,.014,.761,.142-.058,.037-.123,.084-.146,.105-.023,.021-.283,.21-.579,.419-.295,.209-.547,.406-.559,.436-.018,.045,.192,.776,.322,1.123,.249,.661,.228,.677-.34,.262-.808-.59-.916-.662-.991-.662-.041,0-.074,.013-.074,.03,0,.016-.056,.062-.124,.102-.068,.039-.132,.082-.143,.095-.032,.039-1.059,.762-1.081,.762-.051,0,.122-.637,.285-1.046,.137-.344,.208-.655,.159-.7-.044-.041-.62-.463-1.217-.891-.243-.174-.23-.177,.733-.177,.819,0,.897-.006,.916-.067,.012-.037,.035-.101,.052-.143,.017-.042,.094-.281,.172-.532,.078-.251,.165-.513,.194-.581,.029-.069,.053-.153,.053-.187,0-.226,.132-.204,.202,.033,.039,.132,.085,.275,.102,.317m-26.212-.466c.042,.056,.102,.225,.296,.846,.079,.251,.157,.491,.174,.532,.017,.042,.042,.115,.055,.162l.024,.086h.891c.52,0,.891,.015,.891,.035,0,.019-.296,.249-.659,.511-.839,.606-.82,.566-.561,1.184,.163,.388,.345,1.084,.284,1.084-.025,0-.468-.316-1.012-.723-.194-.145-.379-.264-.41-.264-.052,0-.912,.597-1.268,.88-.213,.17-.237,.104-.107-.295,.061-.187,.149-.468,.196-.625,.047-.157,.11-.341,.14-.41,.108-.245,.083-.277-.632-.798-.364-.266-.67-.505-.678-.531-.012-.036,.19-.049,.872-.057l.887-.01,.166-.513c.091-.282,.179-.548,.196-.589,.017-.042,.062-.183,.1-.313,.072-.246,.093-.271,.154-.19m5.658,5.923c.077,.241,.165,.493,.194,.562,.029,.069,.053,.157,.053,.197s.017,.083,.038,.096,.038,.062,.038,.108c0,.244,.036,.253,.972,.253,1.022,0,1.007-.015,.398,.413-.249,.175-.483,.342-.521,.371-.038,.029-.142,.105-.231,.167q-.195,.138-.028,.643c.073,.221,.151,.463,.173,.536,.022,.073,.063,.193,.09,.266,.177,.475,.169,.519-.062,.334-.09-.072-.378-.283-.639-.468-.261-.185-.484-.348-.494-.362-.124-.162-.119-.164-.995,.469-.341,.247-.626,.431-.633,.41-.007-.021,.04-.207,.104-.412,.064-.206,.117-.399,.117-.431s.015-.073,.033-.093c.052-.056,.241-.701,.221-.753-.01-.025-.092-.097-.184-.159-.091-.062-.185-.13-.208-.151-.023-.021-.249-.183-.502-.361-.619-.434-.634-.418,.39-.418,.981,0,.904,.03,1.027-.399,.036-.125,.079-.262,.096-.304s.058-.162,.091-.266c.286-.907,.253-.889,.46-.247m14.963-.271c0,.049,.164,.579,.23,.746,.017,.042,.067,.196,.112,.343,.126,.412,.034,.377,1.025,.398,.617,.013,.867,.031,.848,.06-.015,.023-.156,.134-.312,.247-.157,.113-.427,.311-.6,.439-.173,.129-.352,.259-.398,.289l-.084,.056,.183,.566c.101,.312,.207,.623,.237,.691,.029,.069,.053,.15,.053,.181s.021,.09,.047,.131c.129,.207-.048,.138-.515-.2-.267-.193-.589-.424-.715-.513l-.229-.162-.231,.162c-.127,.089-.455,.328-.728,.53-.596,.442-.617,.44-.418-.036,.029-.069,.052-.15,.052-.181s.015-.086,.034-.122c.018-.036,.071-.177,.117-.313,.262-.778,.3-.679-.492-1.258-.366-.267-.671-.504-.678-.527-.009-.028,.249-.041,.823-.041,1.033,0,.925,.053,1.113-.546,.13-.416,.233-.734,.362-1.127,.022-.066,.164,.093,.165,.185m-7.476,2.182c.114,.372,.203,.644,.251,.77,.016,.042,.06,.17,.097,.285,.092,.279,.041,.265,.976,.266,.893,0,.949,.015,.714,.178-.085,.059-.185,.133-.224,.164-.038,.031-.276,.202-.529,.38-.367,.258-.46,.342-.461,.414-.001,.075,.31,1.082,.418,1.354,.142,.355,.081,.364-.345,.055-.198-.144-.502-.365-.675-.491-.348-.253-.41-.269-.567-.142-.059,.048-.321,.239-.583,.425-.261,.186-.484,.35-.494,.364-.178,.237-.23,.066-.099-.322,.05-.148,.129-.397,.175-.554,.046-.157,.107-.345,.135-.418,.124-.322,.133-.3-.248-.571-.157-.111-.304-.221-.326-.243-.023-.023-.198-.151-.388-.285-.191-.134-.338-.258-.327-.276,.011-.017,.391-.032,.844-.032,.98,0,.888,.044,1.074-.516,.14-.421,.329-.999,.361-1.109,.039-.132,.122-.019,.221,.304" fill="#0b43a3" fill-rule="evenodd"/>
      </g>
      <circle cx="32.292" cy="32.228" r="5.706"/>
      <g>
        <path d="M32.716,31.655l2.227-2.215-.845-.84-1.805,1.795-1.805-1.795-.845,.84,2.227,2.215c.117,.116,.27,.174,.422,.174s.306-.058,.422-.174Z" fill="#fff" filter="url(#g)"/>
        <path d="M35.94,34.021l-1.805-1.795,1.805-1.795-.845-.84-2.227,2.215c-.233,.232-.233,.608,0,.84l2.227,2.215,.845-.84h0Z" fill="#fff" filter="url(#i)"/>
        <path d="M32.29,34.061l1.805,1.795,.845-.84-2.227-2.215c-.233-.232-.612-.232-.845,0l-2.227,2.215,.845,.84,1.805-1.795h0Z" fill="#fff" filter="url(#k)"/>
        <path d="M31.716,32.65c.112-.111,.175-.263,.175-.42s-.063-.309-.175-.42l-2.227-2.215-.845,.84,1.805,1.795-1.805,1.795,.845,.84,2.227-2.215h0Z" fill="#fff" filter="url(#m)"/>
      </g>
    </g>
  </g>
</svg>