<?xml version="1.0" encoding="UTF-8"?>
<svg id="b" data-name="Layer 2" xmlns="http://www.w3.org/2000/svg" width="38.299" height="38.299" xmlns:xlink="http://www.w3.org/1999/xlink" viewBox="0 0 38.299 38.299">
  <defs>
    <filter id="e" data-name="drop-shadow-1" filterUnits="userSpaceOnUse">
      <feOffset dx="0" dy="0"/>
      <feGaussianBlur result="f" stdDeviation=".077"/>
      <feFlood flood-color="#000" flood-opacity=".13"/>
      <feComposite in2="f" operator="in"/>
      <feComposite in="SourceGraphic"/>
    </filter>
    <filter id="g" data-name="drop-shadow-2" filterUnits="userSpaceOnUse">
      <feOffset dx="0" dy="0"/>
      <feGaussianBlur result="h" stdDeviation=".077"/>
      <feFlood flood-color="#000" flood-opacity=".13"/>
      <feComposite in2="h" operator="in"/>
      <feComposite in="SourceGraphic"/>
    </filter>
    <filter id="i" data-name="drop-shadow-3" filterUnits="userSpaceOnUse">
      <feOffset dx="0" dy="0"/>
      <feGaussianBlur result="j" stdDeviation=".077"/>
      <feFlood flood-color="#000" flood-opacity=".13"/>
      <feComposite in2="j" operator="in"/>
      <feComposite in="SourceGraphic"/>
    </filter>
    <filter id="k" data-name="drop-shadow-4" filterUnits="userSpaceOnUse">
      <feOffset dx="0" dy="0"/>
      <feGaussianBlur result="l" stdDeviation=".077"/>
      <feFlood flood-color="#000" flood-opacity=".13"/>
      <feComposite in2="l" operator="in"/>
      <feComposite in="SourceGraphic"/>
    </filter>
  </defs>
  <g id="c" data-name="Layer 1">
    <g>
      <g>
        <circle cx="19.049" cy="19.049" r="19" stroke="#000" stroke-miterlimit="11.339" stroke-width=".099"/>
        <path id="d" data-name="path862" d="M8.705,8.633c-.801,.841-1.462,1.549-1.469,1.562-.007,.02,.714,.728,1.602,1.569,.888,.848,1.662,1.589,1.716,1.636l.1,.093-.18,.3c-1.582,2.617-1.909,5.768-.915,8.665,.187,.547,.507,1.248,.781,1.709,.134,.227,.194,.374,.18,.401s-.821,.881-1.796,1.903c-.975,1.015-1.769,1.863-1.783,1.876-.007,.02,2.724,2.657,2.984,2.871l.1,.087,1.542-1.609c.848-.888,1.642-1.722,1.762-1.849l.227-.227,.214,.134c1.088,.694,2.363,1.175,3.772,1.429,.708,.127,2.056,.16,2.811,.067,1.455-.167,2.897-.654,4.079-1.369l.307-.187,.327,.32c.714,.694,3.385,3.231,3.411,3.245,.027,.013,2.957-3.051,2.951-3.091-.007-.02-2.016-1.949-3.245-3.104l-.407-.387,.187-.307c1.569-2.61,1.896-5.775,.881-8.692-.147-.427-.594-1.389-.855-1.829l-.127-.22,1.716-1.796c.941-.981,1.709-1.803,1.702-1.823-.027-.067-3.031-2.904-3.071-2.904-.027,0-.781,.768-1.682,1.716-.901,.941-1.649,1.716-1.669,1.722-.013,.007-.1-.033-.18-.093-.227-.154-.801-.467-1.122-.614-.975-.447-1.883-.721-2.937-.875-.547-.08-2.19-.093-2.697-.02-1.215,.174-2.21,.474-3.225,.981-.294,.14-.634,.327-.768,.407l-.24,.147-.274-.267c-.147-.147-.814-.774-1.475-1.409-.661-.628-1.335-1.268-1.495-1.429l-.294-.287-1.449,1.549Zm11.209,4.353c1.061,.127,2.009,.487,2.884,1.102,.447,.314,1.115,.981,1.429,1.429,1.783,2.524,1.442,5.955-.801,8.058-1.916,1.789-4.687,2.19-7.017,1.001-1.682-.861-2.871-2.437-3.251-4.326-.12-.601-.12-1.722,0-2.317,.113-.587,.267-1.008,.554-1.596,1.148-2.31,3.638-3.658,6.202-3.351h0Z" fill="#fff"/>
      </g>
      <g>
        <circle cx="32.343" cy="32.343" r="5.706" fill="#fff" stroke="#000" stroke-miterlimit="10" stroke-width=".5"/>
        <g>
          <path d="M32.767,31.77l2.227-2.215-.845-.84-1.805,1.795-1.805-1.795-.845,.84,2.227,2.215c.117,.116,.27,.174,.422,.174s.306-.058,.422-.174Z" filter="url(#e)"/>
          <path d="M35.991,34.136l-1.805-1.795,1.805-1.795-.845-.84-2.227,2.215c-.233,.232-.233,.608,0,.84l2.227,2.215,.845-.84h0Z" filter="url(#g)"/>
          <path d="M32.341,34.176l1.805,1.795,.845-.84-2.227-2.215c-.233-.232-.612-.232-.845,0l-2.227,2.215,.845,.84,1.805-1.795h0Z" filter="url(#i)"/>
          <path d="M31.767,32.765c.112-.111,.175-.263,.175-.42s-.063-.309-.175-.42l-2.227-2.215-.845,.84,1.805,1.795-1.805,1.795,.845,.84,2.227-2.215h0Z" filter="url(#k)"/>
        </g>
      </g>
    </g>
  </g>
</svg>