<?xml version="1.0" encoding="UTF-8"?>
<svg id="b" data-name="Layer 2" xmlns="http://www.w3.org/2000/svg" width="37.841" height="37.876" xmlns:xlink="http://www.w3.org/1999/xlink" viewBox="0 0 37.841 37.876">
  <defs>
    <linearGradient id="d" x1="-3040.455" y1="4637.958" x2="-3013.768" y2="4664.645" gradientTransform="translate(5329.231 -1592.987) rotate(40.059)" gradientUnits="userSpaceOnUse">
      <stop offset="0" stop-color="#7cd1f2"/>
      <stop offset="1" stop-color="#6dc39b"/>
    </linearGradient>
    <linearGradient id="e" x1="-2646.081" y1="9583.206" x2="-2622.279" y2="9607.008" gradientTransform="translate(9967.187 208.603) rotate(75.741)" xlink:href="#d"/>
    <filter id="f" data-name="drop-shadow-1" filterUnits="userSpaceOnUse">
      <feOffset dx="0" dy="0"/>
      <feGaussianBlur result="g" stdDeviation=".077"/>
      <feFlood flood-color="#000" flood-opacity=".13"/>
      <feComposite in2="g" operator="in"/>
      <feComposite in="SourceGraphic"/>
    </filter>
    <filter id="h" data-name="drop-shadow-2" filterUnits="userSpaceOnUse">
      <feOffset dx="0" dy="0"/>
      <feGaussianBlur result="i" stdDeviation=".077"/>
      <feFlood flood-color="#000" flood-opacity=".13"/>
      <feComposite in2="i" operator="in"/>
      <feComposite in="SourceGraphic"/>
    </filter>
    <filter id="j" data-name="drop-shadow-3" filterUnits="userSpaceOnUse">
      <feOffset dx="0" dy="0"/>
      <feGaussianBlur result="k" stdDeviation=".077"/>
      <feFlood flood-color="#000" flood-opacity=".13"/>
      <feComposite in2="k" operator="in"/>
      <feComposite in="SourceGraphic"/>
    </filter>
    <filter id="l" data-name="drop-shadow-4" filterUnits="userSpaceOnUse">
      <feOffset dx="0" dy="0"/>
      <feGaussianBlur result="m" stdDeviation=".077"/>
      <feFlood flood-color="#000" flood-opacity=".13"/>
      <feComposite in2="m" operator="in"/>
      <feComposite in="SourceGraphic"/>
    </filter>
  </defs>
  <g id="c" data-name="Layer 1">
    <g>
      <g>
        <circle cx="18.871" cy="18.871" r="18.871" fill="url(#d)"/>
        <circle cx="18.871" cy="18.871" r="16.83" fill="url(#e)"/>
        <path d="M22.77,15.981l.883-4.455c.108-.542-.308-1.048-.86-1.048h-1.611l-.757,3.817c-.369-.123-.758-.202-1.16-.233l.4-2.018h-2.679l-.527,2.657c-1.448,.84-2.422,2.407-2.422,4.201,0,1.112,.375,2.136,1.004,2.955l-.875,4.411c-.108,.542,.307,1.048,.86,1.048h1.611l.753-3.796c.37,.12,.759,.197,1.162,.225l-.398,2.005h2.679l.529-2.667c1.428-.845,2.386-2.401,2.386-4.18,0-1.097-.364-2.109-.978-2.922Zm-3.878,4.792c-.331,0-.641-.087-.911-.237-.572-.32-.96-.931-.96-1.633,0-.959,.722-1.748,1.651-1.856,.072-.008,.145-.014,.219-.014,.343,0,.663,.094,.94,.255,.556,.324,.931,.925,.931,1.615,0,.947-.705,1.728-1.618,1.851-.083,.011-.166,.019-.252,.019Z" fill="#fff"/>
      </g>
      <circle cx="32.134" cy="32.169" r="5.706"/>
      <g>
        <path d="M32.558,31.596l2.227-2.215-.845-.84-1.805,1.795-1.805-1.795-.845,.84,2.227,2.215c.117,.116,.27,.174,.422,.174s.306-.058,.422-.174Z" fill="#fff" filter="url(#f)"/>
        <path d="M35.782,33.963l-1.805-1.795,1.805-1.795-.845-.84-2.227,2.215c-.233,.232-.233,.608,0,.84l2.227,2.215,.845-.84h0Z" fill="#fff" filter="url(#h)"/>
        <path d="M32.133,34.003l1.805,1.795,.845-.84-2.227-2.215c-.233-.232-.612-.232-.845,0l-2.227,2.215,.845,.84,1.805-1.795h0Z" fill="#fff" filter="url(#j)"/>
        <path d="M31.558,32.591c.112-.111,.175-.263,.175-.42s-.063-.309-.175-.42l-2.227-2.215-.845,.84,1.805,1.795-1.805,1.795,.845,.84,2.227-2.215h0Z" fill="#fff" filter="url(#l)"/>
      </g>
    </g>
  </g>
</svg>