<?xml version="1.0" encoding="UTF-8"?>
<svg id="b" data-name="Layer 2" xmlns="http://www.w3.org/2000/svg" width="38.25" height="38.25" xmlns:xlink="http://www.w3.org/1999/xlink" viewBox="0 0 38.25 38.25">
  <defs>
    <filter id="d" data-name="drop-shadow-1" filterUnits="userSpaceOnUse">
      <feOffset dx="0" dy="0"/>
      <feGaussianBlur result="e" stdDeviation=".077"/>
      <feFlood flood-color="#000" flood-opacity=".13"/>
      <feComposite in2="e" operator="in"/>
      <feComposite in="SourceGraphic"/>
    </filter>
    <filter id="f" data-name="drop-shadow-2" filterUnits="userSpaceOnUse">
      <feOffset dx="0" dy="0"/>
      <feGaussianBlur result="g" stdDeviation=".077"/>
      <feFlood flood-color="#000" flood-opacity=".13"/>
      <feComposite in2="g" operator="in"/>
      <feComposite in="SourceGraphic"/>
    </filter>
    <filter id="h" data-name="drop-shadow-3" filterUnits="userSpaceOnUse">
      <feOffset dx="0" dy="0"/>
      <feGaussianBlur result="i" stdDeviation=".077"/>
      <feFlood flood-color="#000" flood-opacity=".13"/>
      <feComposite in2="i" operator="in"/>
      <feComposite in="SourceGraphic"/>
    </filter>
    <filter id="j" data-name="drop-shadow-4" filterUnits="userSpaceOnUse">
      <feOffset dx="0" dy="0"/>
      <feGaussianBlur result="k" stdDeviation=".077"/>
      <feFlood flood-color="#000" flood-opacity=".13"/>
      <feComposite in2="k" operator="in"/>
      <feComposite in="SourceGraphic"/>
    </filter>
  </defs>
  <g id="c" data-name="Layer 1">
    <g>
      <g>
        <path d="M27.717,3.345c-.978,.978-1.874,2.037-2.669,3.167l-.252-.082c-1.452-.475-2.957-.767-4.473-.867-.457-.035-2.161-.035-2.717,0-1.68,.111-2.968,.363-4.432,.873l-.164,.059c-.826-1.125-1.745-2.178-2.758-3.144,4.859-2.488,10.544-2.787,15.632-.826,.544,.205,1.078,.445,1.599,.703l.234,.117Z" fill="#f00500"/>
        <path d="M36.78,25.552c-.738,2.102-1.844,4.051-3.278,5.749-.779,.914-1.64,1.75-2.564,2.512-2.166,1.745-4.695,2.992-7.395,3.647-2.986,.72-6.101,.72-9.086,0-2.705-.656-5.228-1.903-7.394-3.647-.925-.761-1.786-1.598-2.564-2.512C.371,26.424-.882,19.726,1.22,13.691c.398-1.119,.896-2.196,1.493-3.22,.275-.468,.615-.995,.779-1.212,.562,2.418,1.253,4.543,1.51,5.31l-.064,.129c-1.364,2.763-2.102,5.427-2.277,8.261l-.006,.111c-.047,.849-.023,1.253,.117,1.786,.439,1.668,1.792,3.507,3.911,5.31,3.472,2.951,8.179,5.082,11.745,5.328,3.718,.252,9.203-1.92,12.856-5.093,.574-.51,1.112-1.048,1.616-1.622,.363-.421,.901-1.147,.86-1.147l.023-.023,.023-.041,.023-.029,.023-.029,.023-.029,.018-.035,.012-.023,.023-.029,.023-.029,.023-.023,.076-.135c.088-.135,.439-.761,.486-.867,.333-.755,.544-1.428,.644-2.102,.047-.322,.076-.914,.053-1.054l-.012-.129c-.012-.117-.018-.293-.029-.468-.012-.264-.035-.632-.053-.814-.252-2.658-.931-4.83-2.219-7.131l-.129-.246-.023-.047c.182-.544,.925-2.822,1.516-5.427l.012,.011,.088,.117c.152,.205,.556,.814,.738,1.106,.826,1.347,1.469,2.793,1.926,4.303,1.06,3.636,.972,7.512-.27,11.095Z" fill="#f00500"/>
        <path d="M29.181,18.555c-.018,.094-.293,.375-.568,.58-.808,.591-2.254,1.142-3.724,1.405-.837,.152-1.674,.176-1.926,.053-.164-.082-.187-.146-.129-.357,.123-.439,.521-.919,1.142-1.37,.316-.229,1.598-1.007,2.195-1.335,.983-.539,1.78-.86,2.318-.937,.17-.023,.375-.029,.439,0,.105,.041,.223,.351,.27,.726,.023,.199,.012,1.078-.018,1.235Z"/>
        <path d="M15.388,20.493c-.035,.07-.211,.146-.41,.176-.199,.029-.808,.012-1.153-.029-1.241-.164-2.559-.544-3.519-1.013-.539-.264-.925-.527-1.212-.814l-.164-.17-.018-.222c-.029-.387-.023-.996,.023-1.212,.029-.182,.094-.357,.181-.515q.047-.059,.258-.059c.258,0,.474,.041,.826,.152,.72,.223,1.792,.761,3.097,1.546,1.078,.644,1.481,.96,1.792,1.393,.211,.27,.352,.65,.299,.767Z"/>
        <path d="M23.678,28.643c0,.018-.07,.298-.158,.632-.088,.334-.158,.603-.158,.615l-.188,.006h-.188l-.257,.609c-.141,.334-.27,.644-.287,.691l-.035,.082-.123-.199-.123-.199v-1.622l-.047,.012c-.1,.023-.808,.117-1.118,.146-1.282,.129-2.57,.1-3.847-.082-.205-.029-.38-.053-.386-.047s0,.381,.012,.843l.018,.832-.1,.152-.105,.158c-.018,.018-.076-.076-.211-.345-.146-.281-.251-.58-.328-.89l-.041-.17-.182,.012-.181,.018-.047-.216c-.023-.117-.053-.299-.064-.398l-.018-.187-.152-.135-.193-.164-.041-.1v-.07l.732,.006,.732,.006,.023,.076,.023,.076,.251,.012c.141,.006,.585,.018,.984,.029l.732,.018,.187-.292,.193-.293h.246l-.006-.609-.006-.609-.322-.141c-1.036-.457-1.645-.978-1.874-1.61-.047-.129-.047-.176-.059-.761-.006-.58-.006-.632,.035-.761,.082-.293,.311-.521,.603-.597,.1-.029,.363-.029,1.745-.029l1.628,.006,.181,.088c.217,.105,.316,.181,.439,.345,.14,.188,.181,.333,.181,.691,0,.509-.035,.948-.088,1.124-.076,.24-.193,.468-.339,.673-.293,.375-.826,.75-1.312,.919l-.141,.053,.006,.615,.006,.615,.129,.012,.129,.012,.176,.264,.169,.263h.785c.433,0,.814,.006,.849,.012,.059,.012,.07,.006,.128-.094l.07-.105h.673c.503-.023,.656-.012,.656,.006Z"/>
        <path d="M20.587,30.323c-.111,.064-.187,.094-.205,.082l-.188-.141-.158-.129-.164,.176c-.357,.386-.369,.404-.474,.41-.164,.018-.199-.012-.398-.31-.105-.152-.188-.281-.188-.281l-.164-.018-.164-.018-.076,.158-.076,.158-.135-.041c-.105-.035-.21-.076-.31-.123l-.176-.088v-.333l1.557,.006,1.558,.006,.006,.158c.006,.188,.012,.182-.246,.328Z"/>
        <path d="M35.223,23.181l-.012-.129c-1.405-.152-5.416-.246-9.139,2.828,0,0-1.2-5.503-6.821-5.503s-7.705,5.503-7.705,5.503c-3.149-3.39-7.365-3.144-8.887-2.921l-.006,.111c-.047,.849-.023,1.253,.117,1.786,.439,1.668,1.792,3.507,3.911,5.31,3.472,2.951,8.179,5.082,11.745,5.328,3.718,.252,9.203-1.92,12.856-5.093,.574-.51,1.112-1.048,1.616-1.622,.363-.421,.901-1.147,.86-1.147l.023-.023,.023-.041,.023-.029,.023-.029,.023-.029,.018-.035,.012-.023,.023-.029,.023-.029,.023-.023,.076-.135c.088-.135,.439-.761,.486-.867,.333-.755,.544-1.428,.644-2.102,.035-.322,.064-.914,.041-1.054Zm-14.637,7.143c-.111,.064-.187,.094-.205,.082l-.188-.141-.158-.129-.164,.176c-.357,.386-.369,.404-.474,.41-.164,.018-.199-.012-.398-.31-.105-.152-.188-.281-.188-.281l-.164-.018-.164-.018-.076,.158-.076,.158-.135-.041c-.105-.035-.21-.076-.31-.123l-.176-.088v-.333l1.557,.006,1.558,.006,.006,.158c.006,.188,.012,.182-.246,.328Zm2.927-1.054c-.088,.333-.158,.603-.158,.614l-.188,.006h-.188l-.251,.615c-.141,.334-.27,.644-.287,.691l-.035,.082-.123-.199-.123-.199v-1.622l-.047,.012c-.1,.023-.808,.117-1.118,.146-1.282,.129-2.57,.1-3.847-.082-.205-.029-.38-.053-.386-.047s0,.381,.012,.843l.018,.832-.1,.152-.105,.158c-.018,.018-.076-.076-.211-.345-.146-.281-.251-.58-.328-.89l-.041-.17-.182,.012-.181,.018-.047-.216c-.023-.117-.053-.299-.064-.398l-.018-.187-.152-.135-.193-.164-.041-.1v-.07l.732,.006,.732,.006,.023,.076,.023,.076,.251,.012c.141,.006,.585,.018,.984,.029l.732,.018,.187-.292,.193-.293h.246l-.006-.609-.006-.609-.322-.141c-1.036-.457-1.645-.978-1.874-1.61-.047-.129-.047-.176-.059-.761-.006-.58-.006-.632,.035-.761,.082-.293,.311-.521,.603-.597,.1-.029,.363-.029,1.745-.029l1.628,.006,.181,.088c.217,.105,.316,.181,.439,.345,.14,.188,.181,.333,.181,.691,0,.509-.035,.948-.088,1.124-.076,.24-.193,.468-.339,.673-.293,.375-.826,.75-1.312,.919l-.141,.053,.006,.615,.006,.615,.129,.012,.129,.012,.176,.264,.169,.263h.785c.433,0,.814,.006,.849,.012,.059,.012,.07,.006,.128-.094l.07-.105h.673c.521,0,.673,.006,.673,.023-.018-.006-.094,.281-.182,.609Z" fill="#fff"/>
        <path d="M35.176,22.584c-.012-.264-.035-.632-.053-.814-.252-2.658-.931-4.83-2.219-7.131l-.129-.246-.023-.047c.182-.544,.925-2.822,1.516-5.427,.802-3.537,1.312-7.67-.246-8.911,0,0-2.693-.199-6.3,3.337-.978,.978-1.874,2.037-2.669,3.167l-.252-.082c-1.452-.475-2.957-.767-4.473-.867-.457-.035-2.161-.035-2.717,0-1.68,.111-2.968,.363-4.432,.873l-.164,.059c-.826-1.125-1.745-2.178-2.758-3.144C6.506-.202,3.714,.002,3.714,.002c-1.651,1.282-1.089,5.603-.234,9.256,.562,2.418,1.253,4.543,1.51,5.31l-.064,.129c-1.364,2.763-2.102,5.427-2.277,8.261,1.528-.223,5.738-.474,8.893,2.921,0,0,2.084-5.503,7.705-5.503s6.821,5.503,6.821,5.503c3.724-3.074,7.734-2.974,9.139-2.828-.006-.117-.018-.293-.029-.468ZM6.096,12.362S3.907,6.887,4.469,3.761c.094-.527,.27-.989,.544-1.341,0,0,2.482,.246,6.487,4.696,0,0-.761,.369-1.78,1.153l-.012,.006c-1.106,.849-2.523,2.195-3.612,4.086Zm9.292,8.132c-.035,.07-.211,.146-.41,.176-.199,.029-.808,.012-1.153-.029-1.241-.164-2.559-.544-3.519-1.013-.539-.264-.925-.527-1.212-.814l-.164-.17-.018-.222c-.029-.387-.023-.996,.023-1.212,.029-.182,.094-.357,.181-.515q.047-.059,.258-.059c.258,0,.474,.041,.826,.152,.72,.223,1.792,.761,3.097,1.546,1.078,.644,1.481,.96,1.792,1.393,.211,.27,.352,.65,.299,.767Zm13.793-1.938c-.018,.094-.293,.375-.568,.58-.808,.591-2.254,1.142-3.724,1.405-.837,.152-1.674,.176-1.926,.053-.164-.082-.187-.146-.129-.357,.123-.439,.521-.919,1.142-1.37,.316-.229,1.598-1.007,2.195-1.335,.983-.539,1.78-.86,2.318-.937,.17-.023,.375-.029,.439,0,.105,.041,.223,.351,.27,.726,.023,.199,.012,1.078-.018,1.235Zm-.972-10.286l-.011-.006c-.984-.785-1.722-1.153-1.722-1.153,3.87-4.45,6.265-4.696,6.265-4.696,.263,.357,.433,.814,.527,1.341,.544,3.126-1.569,8.606-1.569,8.606-.884-1.575-2.073-2.968-3.49-4.092Z" fill="#ffa409"/>
        <path d="M33.274,3.755c-.457-.059-2.617-.07-5.064,4.514l-.011-.006c-.984-.785-1.722-1.153-1.722-1.153,3.87-4.45,6.265-4.696,6.265-4.696,.269,.357,.439,.814,.533,1.341Z" fill="#ff9300"/>
        <path d="M31.705,12.362c-.89-1.581-2.073-2.968-3.496-4.092,2.447-4.584,4.602-4.573,5.064-4.514,.544,3.132-1.569,8.606-1.569,8.606Z" fill="#ff8300"/>
        <path d="M33.361,3.773l-.088-.018,.088,.018Z" fill="#ff8300"/>
        <path d="M11.5,7.11s-.761,.369-1.78,1.153l-.012,.006C7.174,3.679,4.943,3.697,4.463,3.755c.094-.527,.27-.989,.544-1.341,.006,0,2.488,.246,6.493,4.696Z" fill="#ff9300"/>
        <path d="M9.715,8.269c-1.112,.854-2.529,2.195-3.618,4.092,0,0-2.189-5.474-1.627-8.606,.474-.059,2.711-.07,5.246,4.514Z" fill="#ff8300"/>
        <path d="M4.469,3.755l-.094,.018,.094-.018Z" fill="#ff8300"/>
        <path d="M25.78,15.4s-1.874,.117-1.64-1.347c.234-1.464,1.698-1.639,2.108-1.581,.41,.058,2.049,.644,1.756,1.873-.293,1.229-.703,.996-.937,1.054-.234,.059-1.288,0-1.288,0Z" fill="#fff"/>
        <path d="M11.963,15.4s-1.874,.117-1.64-1.347c.234-1.464,1.698-1.639,2.108-1.581,.41,.058,2.049,.644,1.756,1.873-.293,1.229-.703,.996-.937,1.054-.234,.059-1.288,0-1.288,0Z" fill="#fff"/>
      </g>
      <g>
        <circle cx="32.294" cy="32.294" r="5.706" fill="#fff" stroke="#000" stroke-miterlimit="10" stroke-width=".5"/>
        <g>
          <path d="M32.718,31.721l2.227-2.215-.845-.84-1.805,1.795-1.805-1.795-.845,.84,2.227,2.215c.117,.116,.27,.174,.422,.174s.306-.058,.422-.174Z" filter="url(#d)"/>
          <path d="M35.942,34.087l-1.805-1.795,1.805-1.795-.845-.84-2.227,2.215c-.233,.232-.233,.608,0,.84l2.227,2.215,.845-.84h0Z" filter="url(#f)"/>
          <path d="M32.292,34.127l1.805,1.795,.845-.84-2.227-2.215c-.233-.232-.612-.232-.845,0l-2.227,2.215,.845,.84,1.805-1.795h0Z" filter="url(#h)"/>
          <path d="M31.718,32.715c.112-.111,.175-.263,.175-.42s-.063-.309-.175-.42l-2.227-2.215-.845,.84,1.805,1.795-1.805,1.795,.845,.84,2.227-2.215h0Z" filter="url(#j)"/>
        </g>
      </g>
    </g>
  </g>
</svg>