<?xml version="1.0" encoding="UTF-8"?>
<svg id="b" data-name="Layer 2" xmlns="http://www.w3.org/2000/svg" width="38" height="38" xmlns:xlink="http://www.w3.org/1999/xlink" viewBox="0 0 38 38">
  <defs>
    <filter id="d" data-name="drop-shadow-1" filterUnits="userSpaceOnUse">
      <feOffset dx="0" dy="0"/>
      <feGaussianBlur result="e" stdDeviation=".077"/>
      <feFlood flood-color="#000" flood-opacity=".13"/>
      <feComposite in2="e" operator="in"/>
      <feComposite in="SourceGraphic"/>
    </filter>
    <filter id="f" data-name="drop-shadow-2" filterUnits="userSpaceOnUse">
      <feOffset dx="0" dy="0"/>
      <feGaussianBlur result="g" stdDeviation=".077"/>
      <feFlood flood-color="#000" flood-opacity=".13"/>
      <feComposite in2="g" operator="in"/>
      <feComposite in="SourceGraphic"/>
    </filter>
    <filter id="h" data-name="drop-shadow-3" filterUnits="userSpaceOnUse">
      <feOffset dx="0" dy="0"/>
      <feGaussianBlur result="i" stdDeviation=".077"/>
      <feFlood flood-color="#000" flood-opacity=".13"/>
      <feComposite in2="i" operator="in"/>
      <feComposite in="SourceGraphic"/>
    </filter>
    <filter id="j" data-name="drop-shadow-4" filterUnits="userSpaceOnUse">
      <feOffset dx="0" dy="0"/>
      <feGaussianBlur result="k" stdDeviation=".077"/>
      <feFlood flood-color="#000" flood-opacity=".13"/>
      <feComposite in2="k" operator="in"/>
      <feComposite in="SourceGraphic"/>
    </filter>
  </defs>
  <g id="c" data-name="Layer 1">
    <g>
      <g>
        <circle cx="19" cy="19" r="19" fill="#2e3148"/>
        <circle cx="19" cy="19" r="11.025" fill="#1b1e36"/>
        <path d="M19.039,2.424c-2.051,0-3.714,7.439-3.714,16.615s1.663,16.615,3.714,16.615,3.714-7.439,3.714-16.615-1.663-16.615-3.714-16.615Zm.256,32.293c-.235,.313-.469,.078-.469,.078-.945-1.094-1.417-3.128-1.417-3.128-1.652-5.317-1.259-16.732-1.259-16.732,.776-9.063,2.189-11.204,2.669-11.679,.101-.1,.26-.113,.376-.03,.697,.494,1.282,2.561,1.282,2.561,1.727,6.412,1.571,12.432,1.571,12.432,.156,5.239-.865,11.103-.865,11.103-.787,4.457-1.888,5.396-1.888,5.396Z" fill="#6f7390"/>
        <path d="M33.451,10.771c-1.021-1.78-8.301,.48-16.264,5.046S3.606,25.528,4.627,27.307s8.301-.48,16.264-5.046,13.581-9.711,12.56-11.49h0ZM5.569,27.063c-.391-.049-.303-.371-.303-.371,.48-1.364,2.006-2.785,2.006-2.785,3.791-4.079,13.89-9.419,13.89-9.419,8.247-3.837,10.808-3.675,11.458-3.496,.138,.038,.228,.171,.213,.313-.078,.851-1.583,2.386-1.583,2.386-4.699,4.691-9.999,7.552-9.999,7.552-4.466,2.744-10.061,4.774-10.061,4.774-4.257,1.534-5.619,1.045-5.619,1.045h0Z" fill="#6f7390"/>
        <path d="M33.415,27.366c1.029-1.775-4.574-6.943-12.51-11.544S5.691,8.934,4.663,10.712s4.574,6.943,12.514,11.544,15.209,6.888,16.238,5.11ZM5.345,11.398c-.152-.36,.169-.447,.169-.447,1.421-.268,3.416,.343,3.416,.343,5.429,1.236,15.109,7.3,15.109,7.3,7.453,5.215,8.596,7.512,8.767,8.165,.036,.138-.033,.282-.163,.341-.777,.356-2.859-.174-2.859-.174-6.415-1.72-11.546-4.872-11.546-4.872-4.61-2.486-9.168-6.312-9.168-6.312-3.464-2.916-3.724-4.339-3.724-4.339v-.004Z" fill="#6f7390"/>
        <circle cx="19" cy="19" r="1.955" fill="#b7b9c8"/>
        <ellipse cx="27.014" cy="11.494" rx="1.134" ry="1.173" fill="#b7b9c8"/>
        <ellipse cx="8.405" cy="15.482" rx="1.134" ry="1.173" fill="#b7b9c8"/>
        <ellipse cx="16.693" cy="29.868" rx="1.134" ry="1.173" fill="#b7b9c8"/>
      </g>
      <circle cx="32.292" cy="32.221" r="5.706"/>
      <g>
        <path d="M32.716,31.648l2.227-2.215-.845-.84-1.805,1.795-1.805-1.795-.845,.84,2.227,2.215c.117,.116,.27,.174,.422,.174s.306-.058,.422-.174Z" fill="#fff" filter="url(#d)"/>
        <path d="M35.94,34.014l-1.805-1.795,1.805-1.795-.845-.84-2.227,2.215c-.233,.232-.233,.608,0,.84l2.227,2.215,.845-.84h0Z" fill="#fff" filter="url(#f)"/>
        <path d="M32.29,34.054l1.805,1.795,.845-.84-2.227-2.215c-.233-.232-.612-.232-.845,0l-2.227,2.215,.845,.84,1.805-1.795h0Z" fill="#fff" filter="url(#h)"/>
        <path d="M31.716,32.643c.112-.111,.175-.263,.175-.42s-.063-.309-.175-.42l-2.227-2.215-.845,.84,1.805,1.795-1.805,1.795,.845,.84,2.227-2.215h0Z" fill="#fff" filter="url(#j)"/>
      </g>
    </g>
  </g>
</svg>