<?xml version="1.0" encoding="UTF-8"?>
<svg id="b" data-name="Layer 2" xmlns="http://www.w3.org/2000/svg" width="38" height="38" xmlns:xlink="http://www.w3.org/1999/xlink" viewBox="0 0 38 38">
  <defs>
    <filter id="d" data-name="drop-shadow-1" filterUnits="userSpaceOnUse">
      <feOffset dx="0" dy="0"/>
      <feGaussianBlur result="e" stdDeviation=".077"/>
      <feFlood flood-color="#000" flood-opacity=".13"/>
      <feComposite in2="e" operator="in"/>
      <feComposite in="SourceGraphic"/>
    </filter>
    <filter id="f" data-name="drop-shadow-2" filterUnits="userSpaceOnUse">
      <feOffset dx="0" dy="0"/>
      <feGaussianBlur result="g" stdDeviation=".077"/>
      <feFlood flood-color="#000" flood-opacity=".13"/>
      <feComposite in2="g" operator="in"/>
      <feComposite in="SourceGraphic"/>
    </filter>
    <filter id="h" data-name="drop-shadow-3" filterUnits="userSpaceOnUse">
      <feOffset dx="0" dy="0"/>
      <feGaussianBlur result="i" stdDeviation=".077"/>
      <feFlood flood-color="#000" flood-opacity=".13"/>
      <feComposite in2="i" operator="in"/>
      <feComposite in="SourceGraphic"/>
    </filter>
    <filter id="j" data-name="drop-shadow-4" filterUnits="userSpaceOnUse">
      <feOffset dx="0" dy="0"/>
      <feGaussianBlur result="k" stdDeviation=".077"/>
      <feFlood flood-color="#000" flood-opacity=".13"/>
      <feComposite in2="k" operator="in"/>
      <feComposite in="SourceGraphic"/>
    </filter>
  </defs>
  <g id="c" data-name="Layer 1">
    <g>
      <g>
        <path d="M19,38c10.529,0,19-8.471,19-19S29.529,0,19,0,0,8.471,0,19s8.471,19,19,19Z" fill="#2775ca"/>
        <path d="M24.225,22.008c0-2.771-1.663-3.721-4.987-4.117-2.375-.317-2.85-.95-2.85-2.058s.792-1.821,2.375-1.821c1.425,0,2.217,.475,2.612,1.663,.079,.238,.317,.396,.554,.396h1.267c.317,0,.554-.238,.554-.554v-.079c-.317-1.742-1.742-3.087-3.562-3.246v-1.9c0-.317-.238-.554-.633-.633h-1.188c-.317,0-.554,.237-.633,.633v1.821c-2.375,.317-3.879,1.9-3.879,3.879,0,2.612,1.583,3.642,4.908,4.037,2.217,.396,2.929,.871,2.929,2.137s-1.108,2.137-2.612,2.137c-2.058,0-2.771-.871-3.008-2.058-.079-.317-.317-.475-.554-.475h-1.346c-.317,0-.554,.238-.554,.554v.079c.317,1.979,1.583,3.404,4.196,3.8v1.9c0,.317,.238,.554,.633,.633h1.188c.317,0,.554-.238,.633-.633v-1.9c2.375-.396,3.958-2.058,3.958-4.196h0Z" fill="#fff"/>
        <path d="M14.963,30.321c-6.175-2.217-9.342-9.104-7.046-15.2,1.188-3.325,3.8-5.858,7.046-7.046,.317-.158,.475-.396,.475-.792v-1.108c0-.317-.158-.554-.475-.633-.079,0-.238,0-.317,.079C7.125,7.996,3.008,15.992,5.383,23.513c1.425,4.433,4.829,7.837,9.262,9.262,.317,.158,.633,0,.713-.317,.079-.079,.079-.158,.079-.317v-1.108c0-.238-.237-.554-.475-.712ZM23.354,5.621c-.317-.158-.633,0-.713,.317-.079,.079-.079,.158-.079,.317v1.108c0,.317,.238,.633,.475,.792,6.175,2.217,9.342,9.104,7.046,15.2-1.188,3.325-3.8,5.858-7.046,7.046-.317,.158-.475,.396-.475,.792v1.108c0,.317,.158,.554,.475,.633,.079,0,.238,0,.317-.079,7.521-2.375,11.637-10.371,9.262-17.892-1.425-4.512-4.908-7.917-9.262-9.342h0Z" fill="#fff"/>
      </g>
      <g>
        <circle cx="32.292" cy="32.221" r="5.706"/>
        <g>
          <path d="M32.716,31.648l2.227-2.215-.845-.84-1.805,1.795-1.805-1.795-.845,.84,2.227,2.215c.117,.116,.27,.174,.422,.174s.306-.058,.422-.174Z" fill="#fff" filter="url(#d)"/>
          <path d="M35.94,34.014l-1.805-1.795,1.805-1.795-.845-.84-2.227,2.215c-.233,.232-.233,.608,0,.84l2.227,2.215,.845-.84h0Z" fill="#fff" filter="url(#f)"/>
          <path d="M32.29,34.054l1.805,1.795,.845-.84-2.227-2.215c-.233-.232-.612-.232-.845,0l-2.227,2.215,.845,.84,1.805-1.795h0Z" fill="#fff" filter="url(#h)"/>
          <path d="M31.716,32.643c.112-.111,.175-.263,.175-.42s-.063-.309-.175-.42l-2.227-2.215-.845,.84,1.805,1.795-1.805,1.795,.845,.84,2.227-2.215h0Z" fill="#fff" filter="url(#j)"/>
        </g>
      </g>
    </g>
  </g>
</svg>