<?xml version="1.0" encoding="UTF-8"?>
<svg id="b" data-name="Layer 2" xmlns="http://www.w3.org/2000/svg" width="38.25" height="38.323" xmlns:xlink="http://www.w3.org/1999/xlink" viewBox="0 0 38.25 38.323">
  <defs>
    <filter id="d" data-name="drop-shadow-1" filterUnits="userSpaceOnUse">
      <feOffset dx="0" dy="0"/>
      <feGaussianBlur result="e" stdDeviation=".077"/>
      <feFlood flood-color="#000" flood-opacity=".13"/>
      <feComposite in2="e" operator="in"/>
      <feComposite in="SourceGraphic"/>
    </filter>
    <filter id="f" data-name="drop-shadow-2" filterUnits="userSpaceOnUse">
      <feOffset dx="0" dy="0"/>
      <feGaussianBlur result="g" stdDeviation=".077"/>
      <feFlood flood-color="#000" flood-opacity=".13"/>
      <feComposite in2="g" operator="in"/>
      <feComposite in="SourceGraphic"/>
    </filter>
    <filter id="h" data-name="drop-shadow-3" filterUnits="userSpaceOnUse">
      <feOffset dx="0" dy="0"/>
      <feGaussianBlur result="i" stdDeviation=".077"/>
      <feFlood flood-color="#000" flood-opacity=".13"/>
      <feComposite in2="i" operator="in"/>
      <feComposite in="SourceGraphic"/>
    </filter>
    <filter id="j" data-name="drop-shadow-4" filterUnits="userSpaceOnUse">
      <feOffset dx="0" dy="0"/>
      <feGaussianBlur result="k" stdDeviation=".077"/>
      <feFlood flood-color="#000" flood-opacity=".13"/>
      <feComposite in2="k" operator="in"/>
      <feComposite in="SourceGraphic"/>
    </filter>
  </defs>
  <g id="c" data-name="Layer 1">
    <g>
      <g>
        <path d="M19.248,1.461c9.671,0,17.539,7.868,17.539,17.539s-7.868,17.539-17.539,17.539S1.709,28.671,1.709,19,9.577,1.461,19.248,1.461m0-1.461C8.754,0,.248,8.507,.248,19s8.506,19,19,19,19-8.506,19-19S29.741,0,19.248,0h0Z" fill="#0b0b0f"/>
        <g transform="translate(3.592 3.661)">
          <circle cx="19.248" cy="19" r="15.346" fill="#172852"/>
          <path d="M16.263,10.511c1.798-.672,3.819-.672,5.65-.12,2.382,.74,4.395,2.537,5.446,4.794,.291,.643,.569,1.315,.596,2.03-1.34-.776-2.809-1.28-4.281-1.739-2.353-.848-4.819-1.438-7.046-2.604-.519-.31-1.181-.628-1.321-1.273-.058-.558,.533-.87,.956-1.087m-5.425,5.434c.52-1.413,1.374-2.723,2.531-3.695,.295,2.423,1.327,4.765,3.03,6.527,2.043,2.122,4.953,3.424,7.913,3.376,1.175,.037,2.324-.234,3.471-.455-1.128,4.076-5.595,6.782-9.734,6.131-2.499-.32-4.806-1.798-6.197-3.888-1.57-2.309-1.966-5.373-1.014-7.999h0v.003Z" fill="#ffd83d"/>
          <path d="M23.676,15.478c1.47,.457,2.939,.962,4.279,1.738l.091,.047c.124,.935,.215,1.888,.048,2.824-.672-.285-1.22-.786-1.79-1.231-1.099-.915-2.222-1.961-2.629-3.379" fill="#ff6f03"/>
        </g>
      </g>
      <g>
        <circle cx="32.294" cy="32.367" r="5.706" fill="#fff" stroke="#000" stroke-miterlimit="10" stroke-width=".5"/>
        <g>
          <path d="M32.718,31.794l2.227-2.215-.845-.84-1.805,1.795-1.805-1.795-.845,.84,2.227,2.215c.117,.116,.27,.174,.422,.174s.306-.058,.422-.174Z" filter="url(#d)"/>
          <path d="M35.942,34.16l-1.805-1.795,1.805-1.795-.845-.84-2.227,2.215c-.233,.232-.233,.608,0,.84l2.227,2.215,.845-.84h0Z" filter="url(#f)"/>
          <path d="M32.292,34.2l1.805,1.795,.845-.84-2.227-2.215c-.233-.232-.612-.232-.845,0l-2.227,2.215,.845,.84,1.805-1.795h0Z" filter="url(#h)"/>
          <path d="M31.718,32.788c.112-.111,.175-.263,.175-.42s-.063-.309-.175-.42l-2.227-2.215-.845,.84,1.805,1.795-1.805,1.795,.845,.84,2.227-2.215h0Z" filter="url(#j)"/>
        </g>
      </g>
    </g>
  </g>
</svg>