<?xml version="1.0" encoding="UTF-8"?>
<svg id="b" data-name="Layer 2" xmlns="http://www.w3.org/2000/svg" width="38.25" height="38.25" xmlns:xlink="http://www.w3.org/1999/xlink" viewBox="0 0 38.25 38.25">
  <defs>
    <filter id="g" data-name="drop-shadow-1" filterUnits="userSpaceOnUse">
      <feOffset dx="0" dy="0"/>
      <feGaussianBlur result="h" stdDeviation=".077"/>
      <feFlood flood-color="#000" flood-opacity=".13"/>
      <feComposite in2="h" operator="in"/>
      <feComposite in="SourceGraphic"/>
    </filter>
    <filter id="i" data-name="drop-shadow-2" filterUnits="userSpaceOnUse">
      <feOffset dx="0" dy="0"/>
      <feGaussianBlur result="j" stdDeviation=".077"/>
      <feFlood flood-color="#000" flood-opacity=".13"/>
      <feComposite in2="j" operator="in"/>
      <feComposite in="SourceGraphic"/>
    </filter>
    <filter id="k" data-name="drop-shadow-3" filterUnits="userSpaceOnUse">
      <feOffset dx="0" dy="0"/>
      <feGaussianBlur result="l" stdDeviation=".077"/>
      <feFlood flood-color="#000" flood-opacity=".13"/>
      <feComposite in2="l" operator="in"/>
      <feComposite in="SourceGraphic"/>
    </filter>
    <filter id="m" data-name="drop-shadow-4" filterUnits="userSpaceOnUse">
      <feOffset dx="0" dy="0"/>
      <feGaussianBlur result="n" stdDeviation=".077"/>
      <feFlood flood-color="#000" flood-opacity=".13"/>
      <feComposite in2="n" operator="in"/>
      <feComposite in="SourceGraphic"/>
    </filter>
  </defs>
  <g id="c" data-name="Layer 1">
    <g>
      <g id="d" data-name="svgg">
        <path id="e" data-name="path0" d="M18.007,11.813c-.507,.083-.935,.19-1.311,.329-.277,.102-.345,.131-.722,.302-.248,.112-.927,.512-1.089,.64-.055,.044-.158,.123-.228,.175-.142,.106-.431,.366-.638,.573-.875,.875-1.406,1.772-1.789,3.019l-.14,.456-1.517,.019-1.517,.019v2.395l1.452,.01,1.452,.01,.025,.18c.436,3.153,2.667,5.534,5.805,6.193,.585,.123,2.206,.155,2.822,.056,2.213-.356,3.796-1.231,4.707-2.6,.265-.399,.312-.317-.46-.807-.35-.222-.901-.574-1.225-.781-.688-.441-.641-.429-.811-.199-1.387,1.885-4.879,2.112-6.518,.422-.553-.57-.926-1.287-1.109-2.131-.035-.163-.056-.305-.045-.316s2.938-.019,6.506-.019h6.487l.401-1.196c.22-.658,.391-1.205,.38-1.216-.011-.011-.691-.02-1.511-.02-1.688,0-1.538,.033-1.611-.361-.407-2.199-2.157-4.146-4.392-4.889-.966-.321-2.38-.43-3.402-.263m1.483,2.588c1.576,.193,2.72,1.182,3.016,2.608,.03,.143,.046,.273,.037,.289-.034,.057-7.272,.034-7.272-.023,0-.082,.132-.443,.274-.749,.701-1.511,2.231-2.335,3.946-2.125" fill="#caf2ea" fill-rule="evenodd"/>
        <path id="f" data-name="path1" d="M16.069,.03c-.19,.019-.208,.029-.197,.107,.007,.047-.006,.086-.027,.086s-.029-.026-.017-.057c.023-.059-.247-.088-.302-.032-.014,.014-.081,.029-.149,.034-.247,.019-.487,.066-.507,.098-.011,.018-.061,.033-.111,.033s-.101,.017-.114,.038c-.013,.021-.003,.038,.023,.038s.037,.01,.025,.022c-.012,.012-.056,0-.098-.026-.075-.047-.286-.011-.464,.08-.032,.016-.135,.041-.228,.055-.093,.014-.204,.04-.246,.058-.042,.018-.107,.042-.145,.055-.038,.012-.06,.036-.05,.054,.011,.017-.032,.024-.095,.015-.063-.009-.186,.013-.274,.05-.088,.036-.193,.08-.235,.097-.042,.017-.131,.042-.199,.055-.158,.031-.191,.085-.079,.13l.088,.035-.086,.002c-.047,.001-.086-.015-.086-.036,0-.047-.178-.051-.206-.004-.011,.019-.066,.045-.12,.059-.136,.034-.449,.182-.465,.22-.007,.017-.028,.021-.046,.01-.037-.023-.391,.132-.41,.18-.007,.017-.028,.021-.046,.01-.029-.018-.262,.083-.512,.22-.042,.023-.127,.065-.19,.094-.063,.029-.147,.07-.187,.092-.123,.067-.643,.344-.756,.402-.059,.03-.116,.079-.128,.108-.011,.029-.036,.043-.055,.031-.034-.021-.256,.116-.309,.191-.015,.022-.028,.027-.029,.012,0-.025-.412,.219-.457,.272-.032,.037-.167,.118-.238,.142-.037,.012-.067,.035-.067,.05,0,.015-.06,.06-.133,.099-.073,.039-.133,.085-.133,.101s-.018,.029-.04,.029c-.054,0-.454,.305-.454,.347,0,.018-.025,.033-.055,.033s-.098,.043-.15,.095c-.052,.052-.107,.095-.121,.095s-.105,.069-.201,.153c-.417,.364-.525,.456-.65,.556-.199,.158-1.64,1.606-1.769,1.778-.062,.082-.155,.194-.207,.249-.052,.055-.172,.197-.266,.317-.094,.119-.218,.27-.276,.335-.057,.065-.105,.132-.105,.15s-.038,.074-.086,.124c-.047,.051-.128,.155-.181,.232-.052,.077-.113,.16-.135,.185-.022,.025-.073,.101-.113,.169-.04,.068-.084,.124-.098,.124-.014,0-.035,.03-.048,.067-.024,.071-.105,.206-.142,.238-.06,.05-.489,.769-.474,.794,.01,.015-.016,.052-.056,.082-.041,.029-.074,.071-.074,.093s-.044,.105-.098,.184c-.091,.134-.102,.288-.017,.235,.023-.014,.028,.003,.012,.043-.016,.041-.031,.049-.041,.021-.035-.104-.111-.029-.236,.23-.073,.151-.164,.323-.202,.38-.039,.058-.073,.163-.077,.234-.004,.071-.02,.127-.036,.123-.034-.007-.113,.123-.197,.326-.032,.078-.086,.207-.118,.285-.097,.232-.128,.308-.172,.418-.023,.057-.066,.153-.095,.212-.029,.059-.054,.145-.055,.19,0,.045-.026,.116-.057,.156-.031,.041-.056,.112-.056,.159s-.017,.096-.038,.109c-.021,.013-.038,.055-.038,.093s-.026,.118-.057,.178c-.031,.06-.057,.164-.057,.232,0,.068-.017,.124-.038,.124s-.038,.039-.038,.087-.019,.106-.041,.129-.044,.136-.048,.251c-.003,.115-.021,.207-.039,.204-.041-.008-.124,.263-.159,.518-.015,.107-.041,.221-.058,.254-.069,.131-.116,.53-.073,.612,.024,.044,.033,.09,.021,.102-.012,.012-.022,.001-.022-.025s-.017-.036-.038-.023-.038,.079-.038,.147-.016,.139-.035,.159c-.054,.055-.099,.929-.048,.929,.025,0,.047-.105,.055-.257l.013-.257,.008,.272c.005,.19-.007,.277-.04,.288-.037,.012-.048,.47-.048,2.119s.01,2.107,.048,2.119c.033,.011,.045,.099,.04,.288l-.008,.272-.013-.257c-.008-.152-.03-.257-.055-.257-.051,0-.006,.874,.048,.929,.019,.02,.035,.092,.035,.159,0,.117,.051,.199,.086,.137,.009-.016,.007-.003-.004,.028-.042,.121,.02,.646,.075,.646,.018,0,.033,.05,.033,.112s.017,.122,.038,.135c.021,.013,.038,.004,.038-.019,0-.025,.025-.018,.059,.016,.038,.038,.054,.104,.044,.183l-.015,.124-.006-.127c-.004-.083-.023-.121-.054-.11-.104,.036-.002,.47,.107,.454,.055-.008,.061-.002,.022,.024-.057,.039-.028,.406,.036,.446,.019,.012,.034,.063,.034,.114s.017,.093,.038,.093,.038,.056,.038,.124c0,.068,.026,.173,.057,.232,.031,.06,.057,.14,.057,.178s.017,.08,.038,.093c.021,.013,.038,.052,.038,.088,0,.035,.026,.113,.057,.173,.031,.06,.057,.128,.057,.152,0,.046,.143,.409,.29,.738,.05,.11,.09,.226,.09,.257s.016,.056,.035,.056,.047,.056,.062,.124c.015,.068,.057,.166,.093,.219,.036,.052,.079,.138,.095,.19,.029,.095,.401,.838,.437,.874,.011,.01,.07,.122,.133,.247s.124,.237,.137,.247,.08,.122,.149,.247c.156,.282,.389,.642,.427,.659,.016,.007,.029,.029,.029,.049s.068,.129,.152,.242c.084,.113,.152,.217,.152,.231s.035,.056,.078,.094c.043,.037,.077,.078,.075,.091-.005,.032,.111,.196,.236,.335,.057,.064,.105,.126,.105,.139,0,.013,.039,.069,.086,.125,.047,.056,.162,.2,.257,.32,.094,.12,.214,.263,.266,.319s.163,.185,.246,.288c.196,.242,1.503,1.55,1.746,1.746,.103,.083,.232,.194,.288,.246s.199,.172,.319,.266c.12,.094,.264,.21,.32,.257,.056,.047,.113,.085,.125,.086,.013,0,.075,.047,.138,.105s.178,.147,.255,.2c.077,.052,.163,.116,.191,.143s.063,.048,.075,.048c.013,0,.116,.068,.229,.152,.113,.084,.222,.152,.242,.152s.042,.013,.049,.029c.015,.034,.552,.375,.763,.484,.078,.041,.143,.087,.143,.103s.022,.029,.048,.029,.111,.043,.188,.095c.077,.052,.165,.095,.196,.095s.062,.013,.069,.029c.016,.035,.737,.407,.868,.447,.052,.016,.138,.059,.19,.095,.052,.036,.151,.078,.219,.093,.068,.015,.124,.042,.124,.062s.026,.035,.057,.035,.087,.016,.124,.036c.036,.02,.126,.06,.199,.09l.38,.154c.136,.055,.273,.101,.304,.101,.031,0,.09,.026,.131,.057,.041,.031,.112,.056,.159,.056s.096,.017,.109,.038c.013,.021,.055,.038,.093,.038s.118,.026,.178,.057c.06,.031,.164,.057,.232,.057,.068,0,.124,.017,.124,.038s.039,.038,.087,.038,.106,.019,.129,.041c.023,.023,.136,.044,.251,.048,.115,.003,.207,.021,.204,.039-.008,.041,.263,.124,.518,.159,.107,.015,.221,.041,.254,.058,.131,.069,.53,.116,.612,.073,.044-.024,.09-.033,.102-.021,.012,.012,.001,.022-.025,.022s-.036,.017-.023,.038,.07,.038,.128,.038,.126,.021,.152,.048c.058,.058,5.783,.083,5.783,.025,0-.019-.115-.038-.257-.042l-.257-.007,.243-.014c.139-.008,.26,.004,.283,.026,.051,.051,.431,.053,.462,.002,.013-.021,.084-.038,.158-.038,.104,0,.13-.013,.113-.057-.025-.066,.018-.075,.076-.017,.081,.081,.605-.05,.591-.147-.007-.046,.006-.083,.027-.083s.029,.028,.016,.061c-.021,.054,.004,.058,.207,.035,.257-.03,.525-.113,.516-.16-.003-.017,.079-.032,.182-.035,.103-.002,.226-.023,.272-.046,.046-.023,.118-.048,.16-.055,.042-.008,.073-.031,.069-.052-.004-.021,.041-.031,.102-.022,.06,.009,.164-.011,.232-.045,.067-.034,.153-.061,.19-.061s.078-.017,.091-.038c.013-.021,.062-.038,.109-.038s.119-.025,.159-.056c.041-.031,.112-.056,.16-.057,.047,0,.116-.017,.152-.037,.036-.02,.126-.061,.199-.091l.257-.106c.068-.028,.124-.065,.124-.082,0-.017,.016-.021,.036-.009,.039,.024,.393-.128,.414-.178,.007-.017,.028-.021,.046-.01,.028,.017,.224-.066,.503-.214,.037-.02,.285-.149,.551-.287,.266-.138,.532-.276,.591-.307,.059-.031,.116-.08,.128-.109,.011-.029,.036-.043,.055-.031,.034,.021,.256-.116,.309-.191,.015-.022,.028-.027,.029-.012,0,.025,.412-.219,.457-.272,.032-.037,.167-.118,.238-.142,.037-.012,.067-.035,.067-.05,0-.015,.06-.06,.133-.099,.073-.039,.133-.085,.133-.101s.019-.029,.042-.029c.041,0,.51-.344,.67-.492,.046-.043,.096-.078,.11-.078s.105-.069,.201-.153c.192-.167,.397-.343,.63-.538,.497-.418,1.426-1.358,1.947-1.97,.08-.094,.154-.18,.165-.19,.076-.076,.342-.418,.342-.439,0-.015,.03-.054,.067-.088,.037-.034,.093-.098,.124-.142,.031-.044,.129-.176,.218-.293s.162-.23,.162-.252,.014-.04,.032-.04,.064-.06,.104-.133c.039-.073,.081-.133,.092-.133s.054-.064,.095-.143c.041-.078,.085-.151,.098-.162,.068-.056,.562-.879,.844-1.406,.084-.157,.175-.328,.204-.38,.028-.052,.051-.116,.051-.143,0-.026,.013-.048,.029-.048,.016,0,.052-.056,.08-.124,.028-.068,.093-.206,.144-.306,.051-.1,.082-.199,.069-.219-.012-.02-.008-.036,.01-.036,.032,0,.174-.308,.17-.368-.004-.062-.078-.051-.095,.014-.014,.054-.019,.051-.022-.017-.004-.079,.028-.101,.129-.09,.037,.004,.139-.196,.218-.432,.021-.063,.053-.13,.071-.15,.018-.02,.033-.065,.033-.1s.026-.113,.057-.173c.031-.06,.057-.139,.057-.176,0-.037,.016-.097,.035-.133,.093-.176,.155-.353,.155-.44,0-.053,.017-.107,.038-.12,.021-.013,.038-.064,.038-.114s.016-.101,.036-.113c.02-.012,.047-.103,.06-.202,.013-.099,.039-.214,.057-.256,.09-.204,.121-.389,.079-.469-.036-.067-.034-.077,.015-.059,.044,.017,.058-.006,.058-.094,0-.064,.017-.126,.038-.139,.021-.013,.038-.068,.038-.121s.02-.164,.044-.245c.035-.117,.034-.167-.006-.242-.028-.052-.039-.106-.025-.12,.014-.014,.025,.004,.025,.04s.017,.055,.038,.042c.021-.013,.038-.079,.038-.147s.021-.145,.048-.171c.066-.066,.07-5.354,.004-5.395-.055-.034-.086-.537-.032-.528,.052,.009,.071-.355,.021-.406-.022-.022-.04-.096-.04-.163s-.017-.134-.038-.147c-.021-.013-.038-.003-.038,.023s-.01,.037-.022,.025c-.012-.012,0-.056,.026-.098,.037-.06,.038-.109,.003-.227-.025-.083-.045-.194-.045-.248s-.017-.108-.038-.121c-.021-.013-.038-.076-.038-.139,0-.087-.014-.111-.057-.094-.067,.026-.075-.019-.013-.08,.045-.045-.018-.368-.087-.445-.018-.02-.032-.083-.032-.141,0-.109-.089-.42-.153-.535-.02-.036-.037-.105-.037-.152,0-.047-.026-.135-.057-.195-.031-.06-.057-.14-.057-.178s-.017-.08-.038-.093-.038-.052-.038-.088c0-.035-.026-.113-.057-.173-.031-.06-.057-.138-.057-.173s-.014-.08-.032-.1c-.017-.02-.062-.122-.099-.226-.037-.105-.105-.276-.152-.38-.047-.105-.109-.246-.139-.314-.034-.079-.073-.117-.107-.104-.042,.016-.044,.009-.008-.034,.036-.043,.026-.093-.047-.239-.051-.101-.116-.239-.144-.307-.028-.068-.064-.124-.08-.124-.016,0-.029-.027-.029-.061,0-.054-.103-.27-.152-.319-.01-.01-.057-.096-.103-.19-.046-.094-.154-.291-.24-.437-.085-.146-.165-.296-.177-.333s-.034-.067-.05-.067-.051-.053-.078-.117c-.027-.065-.067-.137-.091-.162-.023-.024-.119-.164-.212-.31-.094-.146-.183-.272-.199-.279-.016-.007-.029-.029-.029-.049,0-.032-.495-.732-.655-.927-.034-.042-.125-.153-.201-.247-.076-.094-.167-.205-.202-.247-.035-.042-.14-.169-.234-.283-.483-.585-1.508-1.609-2.093-2.093-.114-.094-.241-.199-.283-.234s-.153-.126-.247-.202c-.094-.076-.205-.167-.247-.202-.042-.035-.264-.196-.494-.359-.23-.163-.435-.309-.456-.324-.021-.016-.158-.105-.304-.198-.146-.094-.275-.181-.285-.194-.01-.013-.079-.055-.152-.092-.073-.037-.142-.078-.152-.091-.01-.013-.053-.042-.095-.065s-.157-.087-.257-.142c-.099-.055-.181-.092-.181-.081,0,.011-.035-.013-.078-.053-.043-.04-.15-.104-.238-.143-.088-.039-.168-.079-.179-.09-.046-.048-.264-.153-.319-.153-.033,0-.061-.013-.061-.029,0-.016-.056-.052-.124-.08-.068-.028-.207-.094-.309-.145-.129-.065-.197-.082-.225-.054-.028,.028-.012,.051,.052,.076,.091,.036,.091,.037,.006,.039-.079,.002-.101-.031-.09-.132,.004-.036-.33-.198-.374-.182-.044,.016-.039,.083,.006,.098,.032,.011,.03,.015-.007,.012-.031-.002-.062-.04-.068-.084-.012-.086-.075-.124-.369-.227-.105-.036-.206-.08-.226-.098-.02-.017-.065-.032-.1-.032s-.113-.026-.173-.057c-.06-.031-.139-.057-.176-.057-.037,0-.097-.016-.133-.035-.176-.093-.353-.155-.44-.155-.053,0-.107-.017-.12-.038-.013-.021-.064-.038-.114-.038s-.101-.016-.113-.036c-.012-.02-.103-.047-.202-.06-.099-.013-.214-.039-.256-.057-.204-.09-.389-.121-.469-.079-.067,.036-.077,.034-.059-.015,.017-.044-.006-.058-.094-.058-.064,0-.126-.017-.139-.038-.013-.021-.068-.038-.121-.038s-.164-.02-.245-.044c-.117-.035-.167-.034-.242,.006-.052,.028-.106,.039-.12,.025-.014-.014,.004-.025,.04-.025s.055-.017,.042-.038c-.013-.021-.079-.038-.147-.038s-.145-.021-.171-.048c-.049-.049-5.622-.077-6.087-.031m.58,.067c-.068,.008-.179,.008-.247,0-.068-.008-.012-.015,.124-.015s.191,.007,.124,.015M21.59,.097c-.068,.008-.179,.008-.247,0-.068-.008-.012-.015,.124-.015s.191,.007,.124,.015m-6.157,.189c-.047,.009-.124,.009-.171,0-.047-.009-.009-.016,.086-.016s.133,.007,.086,.016m7.336,0c-.047,.009-.132,.009-.19,0-.058-.009-.019-.016,.085-.016,.105,0,.152,.007,.105,.016m-8.182,.178c0,.008-.06,.022-.133,.03s-.133,.002-.133-.015,.06-.03,.133-.03,.133,.007,.133,.015m9.084,.016c0,.017-.06,.023-.133,.015s-.133-.022-.133-.03,.06-.015,.133-.015,.133,.014,.133,.03m-3.212,11.348c1.897,.369,3.441,1.39,4.44,2.935,.397,.615,.783,1.556,.903,2.201,.073,.395-.076,.361,1.611,.361,.82,0,1.5,.009,1.511,.02,.011,.011-.16,.558-.38,1.216l-.401,1.196h-6.487c-3.568,0-6.495,.009-6.506,.019s.01,.153,.045,.316c.183,.844,.556,1.561,1.109,2.131,1.639,1.689,5.131,1.463,6.518-.422,.17-.23,.122-.242,.811,.199,.324,.208,.876,.559,1.225,.781,.772,.49,.725,.408,.46,.807-1.824,2.741-6.798,3.55-9.932,1.616-1.87-1.154-3.095-3.051-3.401-5.265l-.025-.18-1.452-.01-1.452-.01v-2.395l1.517-.019,1.517-.019,.14-.456c.382-1.247,.914-2.145,1.789-3.019,.207-.207,.496-.467,.638-.573,.07-.052,.173-.131,.228-.175,.162-.129,.842-.528,1.089-.64,.377-.171,.445-.199,.722-.302,1.016-.375,2.72-.517,3.763-.313M.621,13.927c-.033,.033-.06,.042-.06,.021s.017-.049,.038-.062c.021-.013,.04-.061,.043-.107q.005-.083,.022,.002c.009,.047-.01,.112-.043,.145m36.923,.529c0,.073-.007,.133-.015,.133s-.022-.06-.03-.133-.002-.133,.015-.133,.03,.06,.03,.133m-19.192-.035c-1.254,.183-2.268,.943-2.807,2.104-.142,.306-.274,.667-.274,.749,0,.057,7.238,.079,7.272,.023,.009-.016-.007-.146-.037-.289-.372-1.798-2.115-2.883-4.154-2.587m19.374,.932l-.013,.167-.018-.198c-.01-.109-.004-.184,.013-.167,.017,.017,.025,.106,.018,.198m-37.429,.024c-.016,.158-.02,.165-.032,.053-.012-.113,.008-.234,.039-.234,.006,0,.003,.081-.007,.181m37.653,.909c-.041,.041-.029,.431,.013,.431,.021,0,.038-.101,.038-.228,0-.23-.005-.249-.051-.203m-.036,5.305c-.008,.068-.015,.012-.015-.124s.007-.191,.015-.124c.008,.068,.008,.179,0,.247M.304,22.654c.008,.077,0,.132-.016,.121-.017-.01-.029-.09-.027-.178,.003-.179,.023-.154,.043,.057m37.42,.097c-.009,.058-.016,.019-.016-.085,0-.105,.007-.152,.016-.105,.009,.047,.009,.132,0,.19m-.179,.789c0,.073-.014,.133-.03,.133s-.023-.06-.015-.133,.022-.133,.03-.133,.015,.06,.015,.133M.671,24.212c-.004,.078-.007,.079-.023,.012-.01-.042-.034-.092-.053-.112-.059-.062-.037-.105,.023-.045,.031,.031,.055,.097,.053,.145m4.136,7.464c.032,.032,.051,.067,.041,.076-.01,.01-.048-.017-.086-.059-.081-.089-.042-.104,.045-.017m1.52,1.52c.032,.032,.051,.067,.041,.076-.01,.01-.048-.017-.086-.059-.081-.089-.042-.104,.045-.017m7.6,4.179c.06,.06,.017,.082-.045,.023-.02-.019-.07-.043-.112-.053-.067-.016-.065-.019,.012-.023,.048-.002,.114,.021,.145,.053m1.481,.353c-.081,.007-.162-.001-.179-.018s.049-.023,.148-.013l.179,.018-.148,.013m7.322-.004c-.047,.009-.132,.009-.19,0-.058-.009-.019-.016,.085-.016,.105,0,.152,.007,.105,.016m-6.026,.191c-.079,.008-.199,.008-.266,0-.067-.008-.003-.015,.143-.015,.146,0,.202,.007,.123,.015" fill="#042b33" fill-rule="evenodd"/>
      </g>
      <g>
        <circle cx="32.294" cy="32.294" r="5.706" fill="#fff" stroke="#000" stroke-miterlimit="10" stroke-width=".5"/>
        <g>
          <path d="M32.718,31.721l2.227-2.215-.845-.84-1.805,1.795-1.805-1.795-.845,.84,2.227,2.215c.117,.116,.27,.174,.422,.174s.306-.058,.422-.174Z" filter="url(#g)"/>
          <path d="M35.942,34.087l-1.805-1.795,1.805-1.795-.845-.84-2.227,2.215c-.233,.232-.233,.608,0,.84l2.227,2.215,.845-.84h0Z" filter="url(#i)"/>
          <path d="M32.292,34.127l1.805,1.795,.845-.84-2.227-2.215c-.233-.232-.612-.232-.845,0l-2.227,2.215,.845,.84,1.805-1.795h0Z" filter="url(#k)"/>
          <path d="M31.718,32.715c.112-.111,.175-.263,.175-.42s-.063-.309-.175-.42l-2.227-2.215-.845,.84,1.805,1.795-1.805,1.795,.845,.84,2.227-2.215h0Z" filter="url(#m)"/>
        </g>
      </g>
    </g>
  </g>
</svg>