<?xml version="1.0" encoding="UTF-8"?>
<svg id="b" data-name="Layer 2" xmlns="http://www.w3.org/2000/svg" width="38" height="38" xmlns:xlink="http://www.w3.org/1999/xlink" viewBox="0 0 38 38">
  <defs>
    <filter id="d" data-name="drop-shadow-1" filterUnits="userSpaceOnUse">
      <feOffset dx="0" dy="0"/>
      <feGaussianBlur result="e" stdDeviation=".077"/>
      <feFlood flood-color="#000" flood-opacity=".13"/>
      <feComposite in2="e" operator="in"/>
      <feComposite in="SourceGraphic"/>
    </filter>
    <filter id="f" data-name="drop-shadow-2" filterUnits="userSpaceOnUse">
      <feOffset dx="0" dy="0"/>
      <feGaussianBlur result="g" stdDeviation=".077"/>
      <feFlood flood-color="#000" flood-opacity=".13"/>
      <feComposite in2="g" operator="in"/>
      <feComposite in="SourceGraphic"/>
    </filter>
    <filter id="h" data-name="drop-shadow-3" filterUnits="userSpaceOnUse">
      <feOffset dx="0" dy="0"/>
      <feGaussianBlur result="i" stdDeviation=".077"/>
      <feFlood flood-color="#000" flood-opacity=".13"/>
      <feComposite in2="i" operator="in"/>
      <feComposite in="SourceGraphic"/>
    </filter>
    <filter id="j" data-name="drop-shadow-4" filterUnits="userSpaceOnUse">
      <feOffset dx="0" dy="0"/>
      <feGaussianBlur result="k" stdDeviation=".077"/>
      <feFlood flood-color="#000" flood-opacity=".13"/>
      <feComposite in2="k" operator="in"/>
      <feComposite in="SourceGraphic"/>
    </filter>
  </defs>
  <g id="c" data-name="Layer 1">
    <g>
      <g>
        <circle cx="19" cy="19" r="19" fill="#fff"/>
        <g>
          <path d="M16.628,11.747c-.278-.04-.291-.053-.159-.066,.252-.04,.834,.013,1.245,.106,.953,.225,1.814,.808,2.728,1.827l.238,.278,.344-.053c1.47-.238,2.979-.053,4.237,.53,.344,.159,.887,.477,.953,.556,.026,.026,.066,.199,.093,.371,.093,.622,.053,1.086-.146,1.443-.106,.199-.106,.252-.04,.424,.053,.132,.212,.225,.358,.225,.318,0,.649-.503,.808-1.205l.066-.278,.119,.132c.675,.755,1.205,1.801,1.284,2.542l.026,.199-.119-.172c-.199-.305-.384-.503-.636-.675-.45-.305-.927-.397-2.185-.463-1.139-.066-1.788-.159-2.423-.371-1.086-.358-1.642-.821-2.926-2.529-.569-.755-.927-1.165-1.284-1.509-.781-.755-1.562-1.152-2.582-1.311Z" fill="#ff007a"/>
          <path d="M26.492,13.429c.026-.503,.093-.834,.238-1.139,.053-.119,.106-.225,.119-.225s-.013,.093-.053,.199c-.106,.291-.119,.702-.053,1.165,.093,.596,.132,.675,.768,1.324,.291,.305,.636,.689,.768,.847l.225,.291-.225-.212c-.278-.265-.914-.768-1.059-.834-.093-.053-.106-.053-.172,.013-.053,.053-.066,.132-.066,.516-.013,.596-.093,.967-.291,1.351-.106,.199-.119,.159-.026-.066,.066-.172,.079-.252,.079-.821,0-1.152-.132-1.43-.94-1.893-.199-.119-.543-.291-.742-.384-.212-.093-.371-.172-.358-.172,.026-.026,.808,.199,1.112,.331,.463,.185,.543,.199,.596,.185,.04-.04,.066-.146,.079-.477Z" fill="#ff007a"/>
          <path d="M17.171,15.402c-.556-.768-.914-1.96-.834-2.847l.026-.278,.132,.026c.238,.04,.649,.199,.847,.318,.53,.318,.768,.755,.993,1.841,.066,.318,.159,.689,.199,.808,.066,.199,.318,.662,.53,.953,.146,.212,.053,.318-.278,.291-.503-.053-1.178-.516-1.615-1.112Z" fill="#ff007a"/>
          <path d="M25.817,21.162c-2.622-1.059-3.549-1.973-3.549-3.522,0-.225,.013-.41,.013-.41,.013,0,.106,.079,.225,.172,.53,.424,1.126,.609,2.781,.847,.967,.146,1.523,.252,2.026,.424,1.602,.53,2.595,1.615,2.834,3.085,.066,.424,.026,1.231-.079,1.655-.093,.331-.358,.94-.424,.953-.013,0-.04-.066-.04-.172-.026-.556-.305-1.086-.768-1.496-.556-.477-1.271-.834-3.019-1.536Z" fill="#ff007a"/>
          <path d="M23.963,21.598c-.026-.199-.093-.45-.132-.556l-.066-.199,.119,.146c.172,.199,.305,.437,.424,.768,.093,.252,.093,.331,.093,.742,0,.397-.013,.49-.093,.715-.132,.358-.291,.609-.556,.887-.477,.49-1.099,.755-1.986,.874-.159,.013-.609,.053-1.006,.079-.993,.053-1.655,.159-2.251,.371-.079,.026-.159,.053-.172,.04-.026-.026,.384-.265,.715-.424,.463-.225,.94-.344,1.986-.53,.516-.079,1.046-.185,1.178-.238,1.311-.41,1.96-1.43,1.748-2.675Z" fill="#ff007a"/>
          <path d="M25.168,23.73c-.344-.755-.424-1.47-.238-2.145,.026-.066,.053-.132,.079-.132s.106,.04,.185,.093c.159,.106,.49,.291,1.337,.755,1.073,.583,1.682,1.033,2.105,1.549,.371,.45,.596,.967,.702,1.602,.066,.358,.026,1.218-.066,1.576-.291,1.126-.953,2.026-1.92,2.542-.146,.079-.265,.132-.278,.132s.04-.132,.119-.291c.318-.675,.358-1.324,.119-2.052-.146-.45-.45-.993-1.059-1.907-.728-1.059-.9-1.337-1.086-1.721Z" fill="#ff007a"/>
          <path d="M15.304,27.782c.98-.821,2.185-1.404,3.297-1.589,.477-.079,1.271-.053,1.708,.066,.702,.185,1.337,.583,1.668,1.073,.318,.477,.463,.887,.609,1.801,.053,.358,.119,.728,.132,.808,.106,.477,.318,.847,.583,1.046,.41,.305,1.126,.318,1.827,.053,.119-.04,.225-.079,.225-.066,.026,.026-.331,.265-.569,.384-.331,.172-.596,.225-.953,.225-.636,0-1.178-.331-1.615-.993-.093-.132-.278-.516-.437-.874-.463-1.073-.702-1.39-1.245-1.748-.477-.305-1.086-.371-1.549-.146-.609,.291-.768,1.073-.344,1.549,.172,.199,.49,.358,.755,.397,.49,.066,.914-.318,.914-.808,0-.318-.119-.503-.437-.649-.424-.185-.887,.026-.874,.437,0,.172,.079,.278,.252,.358q.106,.053,.026,.04c-.384-.079-.477-.556-.172-.861,.371-.371,1.152-.212,1.417,.305,.106,.212,.119,.636,.026,.9-.225,.583-.861,.887-1.509,.715-.437-.119-.622-.238-1.152-.781-.927-.953-1.284-1.139-2.609-1.337l-.252-.04,.278-.265Z" fill="#ff007a"/>
          <path d="M8.339,6.477c3.085,3.747,7.839,9.573,8.077,9.891,.199,.265,.119,.516-.212,.702-.185,.106-.569,.212-.755,.212-.212,0-.463-.106-.636-.278-.119-.119-.636-.874-1.801-2.688-.887-1.39-1.642-2.542-1.655-2.556q-.053-.026,1.562,2.86c1.02,1.814,1.351,2.463,1.351,2.542,0,.172-.053,.265-.265,.503-.358,.397-.516,.847-.636,1.788-.132,1.046-.49,1.788-1.509,3.045-.596,.742-.689,.874-.834,1.178-.185,.371-.238,.583-.265,1.059-.026,.503,.026,.821,.172,1.298,.132,.424,.278,.702,.636,1.245,.305,.477,.49,.834,.49,.967,0,.106,.026,.106,.503,0,1.139-.265,2.079-.715,2.595-1.271,.318-.344,.397-.53,.397-1.006,0-.305-.013-.371-.093-.556-.132-.291-.384-.53-.927-.9-.715-.49-1.02-.887-1.099-1.417-.066-.45,.013-.755,.41-1.589,.41-.861,.516-1.218,.583-2.092,.04-.556,.106-.781,.265-.953,.172-.185,.318-.252,.728-.305,.675-.093,1.112-.265,1.457-.596,.305-.278,.437-.556,.45-.967l.013-.305-.172-.185c-.622-.715-9.242-10.196-9.282-10.196-.013,0,.199,.252,.45,.569Zm4.065,18.829c.146-.252,.066-.569-.172-.728-.225-.146-.569-.079-.569,.119,0,.053,.026,.106,.106,.132,.119,.066,.132,.132,.04,.278s-.093,.278,.026,.371c.185,.146,.437,.066,.569-.172Z" fill="#ff007a" fill-rule="evenodd"/>
          <path d="M17.766,18.341c-.318,.093-.622,.437-.715,.781-.053,.212-.026,.596,.066,.715,.146,.185,.278,.238,.649,.238,.728,0,1.351-.318,1.417-.702,.066-.318-.212-.755-.596-.953-.199-.106-.609-.146-.821-.079Zm.847,.662c.106-.159,.066-.331-.132-.45-.358-.225-.9-.04-.9,.305,0,.172,.278,.358,.543,.358,.172,0,.41-.106,.49-.212Z" fill="#ff007a" fill-rule="evenodd"/>
        </g>
      </g>
      <circle cx="32.292" cy="32.221" r="5.706"/>
      <g>
        <path d="M32.716,31.648l2.227-2.215-.845-.84-1.805,1.795-1.805-1.795-.845,.84,2.227,2.215c.117,.116,.27,.174,.422,.174s.306-.058,.422-.174Z" fill="#fff" filter="url(#d)"/>
        <path d="M35.94,34.014l-1.805-1.795,1.805-1.795-.845-.84-2.227,2.215c-.233,.232-.233,.608,0,.84l2.227,2.215,.845-.84h0Z" fill="#fff" filter="url(#f)"/>
        <path d="M32.29,34.054l1.805,1.795,.845-.84-2.227-2.215c-.233-.232-.612-.232-.845,0l-2.227,2.215,.845,.84,1.805-1.795h0Z" fill="#fff" filter="url(#h)"/>
        <path d="M31.716,32.643c.112-.111,.175-.263,.175-.42s-.063-.309-.175-.42l-2.227-2.215-.845,.84,1.805,1.795-1.805,1.795,.845,.84,2.227-2.215h0Z" fill="#fff" filter="url(#j)"/>
      </g>
    </g>
  </g>
</svg>