<?xml version="1.0" encoding="UTF-8"?>
<svg id="b" data-name="Layer 2" xmlns="http://www.w3.org/2000/svg" width="38.25" height="38.25" xmlns:xlink="http://www.w3.org/1999/xlink" viewBox="0 0 38.25 38.25">
  <defs>
    <filter id="h" data-name="drop-shadow-1" filterUnits="userSpaceOnUse">
      <feOffset dx="0" dy="0"/>
      <feGaussianBlur result="i" stdDeviation=".077"/>
      <feFlood flood-color="#000" flood-opacity=".13"/>
      <feComposite in2="i" operator="in"/>
      <feComposite in="SourceGraphic"/>
    </filter>
    <filter id="j" data-name="drop-shadow-2" filterUnits="userSpaceOnUse">
      <feOffset dx="0" dy="0"/>
      <feGaussianBlur result="k" stdDeviation=".077"/>
      <feFlood flood-color="#000" flood-opacity=".13"/>
      <feComposite in2="k" operator="in"/>
      <feComposite in="SourceGraphic"/>
    </filter>
    <filter id="l" data-name="drop-shadow-3" filterUnits="userSpaceOnUse">
      <feOffset dx="0" dy="0"/>
      <feGaussianBlur result="m" stdDeviation=".077"/>
      <feFlood flood-color="#000" flood-opacity=".13"/>
      <feComposite in2="m" operator="in"/>
      <feComposite in="SourceGraphic"/>
    </filter>
    <filter id="n" data-name="drop-shadow-4" filterUnits="userSpaceOnUse">
      <feOffset dx="0" dy="0"/>
      <feGaussianBlur result="o" stdDeviation=".077"/>
      <feFlood flood-color="#000" flood-opacity=".13"/>
      <feComposite in2="o" operator="in"/>
      <feComposite in="SourceGraphic"/>
    </filter>
  </defs>
  <g id="c" data-name="Layer 1">
    <g>
      <g>
        <circle cx="19" cy="19" r="18.68" fill="#fff"/>
        <g id="d" data-name="svgg">
          <path id="e" data-name="path0" d="M7.983,16.501c-.093,.089-.153,.172-.165,.231-.01,.051-.03,.099-.044,.108-.035,.022-.032,.321,.004,.343,.016,.01,.029,.041,.029,.069s.026,.075,.058,.104c.032,.029,.058,.067,.058,.086s.036,.052,.079,.075c.044,.023,.104,.064,.135,.091,.062,.056,.402,.073,.434,.022,.01-.016,.042-.029,.071-.029,.08,0,.306-.24,.328-.348,.111-.553-.124-.891-.617-.891h-.223l-.146,.139m2.128-.11c0,.016-.02,.029-.044,.029-.057,0-.302,.245-.302,.302,0,.024-.013,.044-.029,.044-.017,0-.029,.095-.029,.229,0,.126,.013,.237,.029,.247,.016,.01,.029,.038,.029,.062,0,.068,.258,.298,.334,.298,.036,0,.074,.013,.084,.029,.025,.04,21.115,.04,21.139,0,.01-.016,.041-.029,.069-.029,.174,0,.355-.308,.356-.605,.001-.253-.174-.576-.312-.576-.022,0-.04-.013-.04-.029,0-.019-3.566-.029-10.642-.029s-10.642,.01-10.642,.029m-6.12,2.477c-.01,.016-.048,.029-.085,.029-.039,0-.116,.048-.186,.115l-.119,.115v.376c0,.4,.045,.513,.207,.516,.027,0,.057,.014,.067,.03,.021,.034,.533,.04,.533,.006,0-.013,.042-.035,.093-.05,.205-.061,.332-.393,.266-.697-.058-.271-.668-.616-.777-.44m1.958,0c-.01,.016-.043,.029-.074,.029s-.056,.013-.056,.029-.019,.029-.042,.029c-.125,0-.298,.3-.297,.517,.001,.245,.179,.549,.323,.549,.023,0,.049,.013,.059,.029,.012,.019,2.664,.029,7.864,.029s7.846-.01,7.846-.029c0-.016,.039-.029,.087-.029,.065,0,.094-.017,.113-.069,.014-.038,.04-.078,.057-.088,.017-.01,.031-.044,.031-.075s.013-.056,.029-.056c.056,0,.034-.453-.029-.576-.061-.12-.221-.26-.297-.26-.025,0-.054-.013-.064-.029-.012-.019-2.635-.029-7.776-.029s-7.764,.01-7.776,.029m2.39,2.477c-.01,.016-.062,.029-.115,.029s-.105,.013-.115,.029c-.01,.016-.037,.029-.061,.029-.049,0-.184,.126-.184,.172,0,.017-.013,.03-.029,.03s-.029,.032-.029,.072-.013,.072-.029,.072c-.016,0-.029,.082-.029,.187s.013,.187,.029,.187c.016,0,.029,.023,.029,.051,0,.069,.278,.352,.346,.352,.03,0,.062,.013,.072,.029,.01,.016,.075,.029,.144,.029s.134-.013,.144-.029c.01-.016,.043-.029,.074-.029,.129,0,.355-.206,.384-.351,.058-.292-.023-.683-.155-.743-.024-.011-.072-.035-.108-.053-.035-.018-.109-.033-.164-.033s-.107-.013-.117-.029-.029-.029-.043-.029-.033,.013-.043,.029m1.714,.058c0,.016-.03,.029-.068,.029-.062,0-.163,.078-.163,.126,0,.011-.024,.046-.053,.078-.096,.103-.072,.631,.029,.631,.013,0,.024,.02,.024,.044,0,.058,.128,.186,.186,.186,.024,0,.044,.013,.044,.029s.039,.029,.086,.029,.086,.013,.086,.029c0,.019,3.12,.029,9.303,.029s9.303-.01,9.303-.029c0-.016,.039-.029,.086-.029s.086-.011,.086-.024c0-.013,.031-.041,.069-.061,.209-.112,.334-.562,.218-.78-.069-.13-.186-.258-.235-.258-.027,0-.057-.013-.067-.029-.012-.019-3.202-.029-9.477-.029s-9.459,.01-9.459,.029m-5.011,2.419c0,.016-.026,.029-.058,.029s-.058,.013-.058,.029-.021,.029-.047,.029c-.053,0-.144,.094-.17,.176-.009,.03-.029,.054-.044,.054s-.027,.025-.027,.056-.013,.064-.029,.074c-.061,.038-.001,.475,.065,.475,.012,0,.022,.02,.022,.044,0,.18,.672,.42,.763,.272,.01-.016,.037-.029,.06-.029,.207,0,.494-.718,.329-.821-.016-.01-.029-.037-.029-.06,0-.055-.245-.3-.3-.3-.023,0-.05-.013-.06-.029-.01-.016-.108-.029-.218-.029-.114,0-.2,.012-.2,.029m1.958,0c0,.016-.028,.029-.061,.029-.08,0-.313,.233-.313,.313,0,.034-.013,.061-.029,.061-.017,0-.029,.091-.029,.214,0,.118,.013,.222,.029,.232,.016,.01,.029,.039,.029,.065,0,.064,.248,.295,.317,.295,.03,0,.062,.013,.072,.029,.012,.019,1.31,.029,3.801,.029h3.783l.125-.065c.069-.036,.167-.109,.219-.164l.094-.099v-.642l-.127-.134c-.07-.074-.147-.134-.171-.134s-.052-.013-.062-.029c-.012-.019-1.325-.029-3.847-.029s-3.829,.01-3.829,.029m9.366,.031c-.127,.074-.294,.245-.294,.3,0,.024-.013,.044-.029,.044-.017,0-.029,.101-.029,.245s.012,.245,.029,.245c.016,0,.029,.017,.029,.038,0,.057,.176,.237,.297,.305l.108,.06h15.516l.125-.065c.255-.132,.283-.189,.283-.587,0-.392-.025-.447-.269-.584l-.107-.06-7.782,.002c-7.628,.002-7.784,.003-7.877,.058m1.232,2.446c0,.016-.043,.029-.095,.029-.106,0-.308,.159-.308,.241,0,.026-.013,.047-.029,.047s-.029,.025-.029,.056-.013,.064-.029,.074c-.016,.01-.029,.095-.029,.189,0,.095,.013,.171,.029,.171,.016,0,.029,.026,.029,.058,0,.174,.219,.371,.462,.417,.207,.039,.603-.133,.603-.261,0-.022,.011-.041,.024-.041,.013,0,.039-.033,.058-.073,.041-.09,.045-.531,.005-.531-.016,0-.029-.017-.029-.038,0-.047-.184-.25-.227-.25-.018,0-.032-.013-.032-.029s-.032-.029-.07-.029-.078-.013-.088-.029-.069-.029-.131-.029-.113,.013-.113,.029m1.915,0c-.01,.016-.043,.029-.074,.029s-.056,.013-.056,.029-.02,.029-.044,.029-.089,.045-.144,.1c-.055,.055-.1,.12-.1,.144s-.013,.044-.029,.044c-.042,0-.036,.449,.007,.525,.061,.108,.204,.246,.318,.309l.11,.06h4.823c2.653,0,4.857-.009,4.899-.019,.113-.028,.326-.218,.326-.29,0-.021,.013-.038,.029-.038s.029-.038,.029-.085,.013-.093,.029-.103c.016-.01,.029-.062,.029-.115s-.013-.105-.029-.115c-.016-.01-.029-.043-.029-.074s-.013-.056-.029-.056-.029-.023-.029-.051-.026-.07-.058-.093c-.032-.023-.058-.056-.058-.074,0-.06-.105-.128-.197-.128-.05,0-.091-.013-.091-.029,0-.019-1.622-.029-4.808-.029s-4.814,.01-4.826,.029m-7.791,2.534c0,.016-.017,.029-.037,.029-.053,0-.258,.203-.301,.298-.043,.095-.049,.508-.007,.508,.016,0,.029,.025,.029,.056,0,.05,.161,.203,.213,.203,.011,0,.048,.026,.082,.058,.085,.079,.472,.084,.557,.007,.031-.028,.091-.069,.134-.091,.181-.093,.288-.516,.189-.743-.045-.102-.239-.297-.296-.297-.024,0-.043-.013-.043-.029,0-.017-.106-.029-.259-.029s-.259,.012-.259,.029m1.93,0c0,.016-.019,.029-.042,.029-.054,0-.188,.134-.188,.188,0,.023-.013,.042-.029,.042s-.029,.039-.029,.086-.013,.086-.029,.086-.029,.058-.029,.128,.013,.136,.029,.146c.016,.01,.029,.041,.029,.07,0,.108,.152,.318,.23,.318,.017,0,.059,.026,.093,.058,.07,.066,9.786,.094,9.786,.029,0-.016,.026-.029,.058-.029s.058-.01,.058-.022c0-.012,.039-.039,.087-.06,.159-.07,.259-.258,.259-.488,0-.198-.058-.381-.12-.381-.016,0-.066-.039-.11-.086-.044-.048-.101-.086-.127-.086s-.046-.013-.046-.029c0-.019-1.666-.029-4.939-.029s-4.939,.01-4.939,.029" fill="#e4147c" fill-rule="evenodd"/>
          <path id="f" data-name="path1" d="M19.856,5.362c-.014,.013-.109,.027-.212,.031-.103,.004-.194,.016-.202,.028s-.073,.025-.144,.029c-.071,.004-.146,.02-.166,.035-.024,.018-.036,.015-.036-.009,0-.027-.01-.028-.039-.004-.021,.018-.115,.037-.209,.043-.219,.015-.357,.046-.357,.083,0,.016-.022,.011-.049-.011-.033-.027-.042-.028-.027-.004,.022,.037,.014,.04-.132,.048-.043,.002-.087,.014-.098,.025-.011,.011-.043,.021-.07,.021s-.086,.019-.13,.042c-.044,.023-.091,.035-.104,.027-.013-.008-.024,0-.024,.016s-.023,.031-.052,.031-.106,.026-.171,.058c-.066,.032-.139,.058-.164,.058s-.045,.013-.045,.029-.02,.029-.044,.029c-.046,0-.161,.057-.188,.093-.009,.012-.05,.024-.092,.028-.041,.003-.069,.016-.061,.029,.008,.012-.019,.023-.06,.023s-.074,.01-.074,.022c0,.034-.18,.105-.252,.099-.036-.003-.065,.007-.065,.023s-.02,.029-.044,.029c-.045,0-.087,.029-.185,.125-.03,.029-.067,.046-.082,.036-.015-.01-.036,.003-.046,.029-.01,.026-.036,.039-.061,.03-.024-.009-.043-.004-.043,.011s-.019,.028-.042,.028-.052,.017-.065,.037c-.013,.021-.085,.073-.161,.117s-.153,.105-.173,.135c-.019,.031-.055,.056-.079,.056s-.063,.026-.086,.058c-.023,.032-.071,.058-.107,.058s-.066,.01-.066,.022c0,.012-.039,.039-.087,.06-.048,.021-.08,.048-.073,.06,.007,.012-.018,.039-.057,.06-.039,.021-.071,.049-.071,.062,0,.013-.02,.024-.044,.024s-.053,.023-.063,.05c-.024,.064-.228,.255-.332,.311-.044,.024-.079,.057-.079,.073s-.011,.023-.024,.015c-.023-.014-.102,.06-.113,.106-.003,.012-.061,.066-.129,.118-.068,.053-.12,.111-.116,.129,.004,.018-.014,.033-.041,.033s-.04,.008-.031,.017c.018,.018-.002,.045-.165,.225-.056,.062-.102,.12-.102,.13,0,.01-.029,.03-.064,.046-.035,.016-.079,.058-.096,.093-.018,.036-.076,.113-.13,.173-.054,.059-.1,.118-.102,.129-.002,.012-.005,.042-.007,.067-.002,.025-.017,.037-.032,.027-.016-.01-.029,.006-.03,.034,0,.029-.052,.104-.115,.167-.062,.063-.128,.151-.146,.194-.018,.044-.043,.079-.055,.079s-.03,.023-.039,.05-.044,.089-.076,.137c-.032,.048-.066,.109-.076,.137-.01,.028-.03,.05-.045,.05s-.02,.012-.011,.026c.009,.014,.003,.031-.014,.037-.026,.009-.045,.06-.054,.146-.001,.012-.022,.022-.045,.022-.037,0-.055,.084-.041,.191,.001,.01-.008,.026-.022,.036-.038,.028-.096,.142-.096,.19,0,.024-.013,.044-.029,.044s-.029,.026-.029,.059-.026,.087-.058,.121c-.032,.034-.058,.085-.058,.114s-.013,.052-.029,.052-.029,.032-.029,.072-.013,.072-.029,.072-.029,.033-.029,.074c0,.051-.011,.067-.036,.053-.02-.011-.027-.011-.016,.002,.018,.02-.012,.122-.092,.318-.046,.112-.066,.173-.077,.23-.006,.031-.023,.07-.039,.085-.036,.036-.036,.083,0,.06,.015-.01,.003,.038-.027,.105-.04,.089-.046,.133-.024,.16,.017,.02,.019,.037,.004,.037s-.03,.049-.034,.108c-.004,.059-.02,.12-.035,.135s-.027,.09-.027,.166-.011,.138-.024,.138c-.013,0-.027,.075-.03,.166-.004,.091-.019,.17-.034,.175-.015,.005-.027,.098-.027,.207s-.011,.204-.024,.213c-.071,.044-.031,1.14,.042,1.14,.022,0,.04,.024,.04,.053s.032,.07,.072,.091c.04,.021,.072,.049,.072,.062,0,.013,3.953,.024,8.784,.024,5.837,0,8.784-.01,8.784-.029,0-.016,.023-.029,.051-.029s.07-.026,.093-.058c.023-.032,.058-.058,.078-.058s.037-.016,.037-.036c0-.02,.017-.069,.039-.11,.041-.079,.051-.61,.012-.649-.012-.012-.022-.155-.022-.318,0-.166-.013-.304-.029-.314-.016-.01-.029-.095-.029-.189,0-.095-.013-.171-.029-.171-.016,0-.029-.064-.029-.142s-.013-.15-.029-.16-.029-.075-.029-.144-.013-.134-.029-.144c-.016-.01-.029-.056-.029-.103s-.013-.085-.029-.085-.029-.038-.029-.085-.013-.093-.029-.103-.029-.094-.029-.186-.01-.173-.023-.178c-.013-.005-.044-.074-.07-.154-.066-.2-.12-.343-.137-.36-.014-.014-.029-.063-.04-.134-.003-.018-.021-.052-.04-.075-.019-.023-.026-.05-.016-.061,.01-.01,.004-.019-.015-.019s-.034-.023-.035-.05c0-.028-.02-.075-.042-.105s-.035-.066-.026-.079c.008-.014,.004-.025-.011-.025-.014,0-.043-.052-.064-.115s-.062-.136-.091-.163c-.029-.026-.053-.068-.053-.092s-.028-.074-.062-.111c-.034-.037-.064-.089-.067-.117-.006-.073-.103-.267-.133-.267-.014,0-.025-.026-.025-.058s-.01-.058-.022-.058c-.012,0-.039-.039-.06-.087-.021-.048-.05-.079-.065-.07-.014,.009-.026-.01-.026-.041,0-.032-.025-.065-.058-.076-.032-.01-.058-.035-.058-.056s-.039-.081-.086-.135c-.047-.054-.086-.107-.086-.119,0-.012-.026-.048-.058-.079s-.058-.077-.058-.102c0-.046-.221-.282-.29-.31-.023-.009-.026-.017-.007-.018,.018-.001-.082-.117-.223-.258-.141-.141-.257-.264-.257-.275,0-.03-.138-.161-.169-.161-.015,0-.06-.039-.1-.086-.04-.048-.084-.086-.097-.086s-.043-.026-.066-.058c-.023-.032-.053-.058-.066-.058-.033,0-.251-.228-.251-.262,0-.015-.022-.026-.048-.026s-.085-.042-.129-.094c-.067-.078-.085-.087-.11-.05-.016,.024-.029,.029-.03,.012,0-.017-.036-.05-.079-.072-.043-.023-.114-.074-.157-.114-.043-.04-.114-.092-.159-.115-.045-.023-.102-.064-.128-.092-.026-.028-.061-.051-.079-.051s-.033-.01-.033-.022c0-.027-.204-.139-.236-.129-.013,.004-.023-.004-.023-.019s-.039-.04-.088-.057c-.048-.017-.125-.057-.17-.089-.045-.032-.119-.059-.164-.059-.045,0-.114-.026-.154-.057-.04-.031-.095-.057-.122-.057-.028,0-.05-.012-.05-.025s-.055-.042-.122-.063c-.067-.021-.157-.062-.199-.091-.042-.029-.113-.053-.158-.055-.045-.001-.065-.009-.044-.017,.021-.008-.096-.059-.259-.113-.163-.054-.323-.111-.354-.127-.032-.016-.093-.031-.137-.035-.044-.003-.079-.017-.079-.031,0-.014-.016-.019-.036-.012s-.066,.002-.103-.012c-.037-.014-.166-.032-.287-.041-.121-.009-.234-.027-.25-.04-.016-.013-.101-.032-.188-.04-.35-.036-.564-.067-.617-.09-.043-.019-.05-.015-.03,.017,.02,.033,.016,.034-.017,.008-.049-.039-1.648-.048-1.687-.01" fill="#54cccb" fill-rule="evenodd"/>
          <path id="g" data-name="path4" d="M14.293,7.94c-.048,.054-.008,.053,.064-.002,.039-.03,.044-.042,.014-.041-.023,0-.058,.02-.079,.043" fill="#54d0a4" fill-rule="evenodd"/>
        </g>
      </g>
      <g>
        <circle cx="32.294" cy="32.294" r="5.706" fill="#fff" stroke="#000" stroke-miterlimit="10" stroke-width=".5"/>
        <g>
          <path d="M32.718,31.721l2.227-2.215-.845-.84-1.805,1.795-1.805-1.795-.845,.84,2.227,2.215c.117,.116,.27,.174,.422,.174s.306-.058,.422-.174Z" filter="url(#h)"/>
          <path d="M35.942,34.087l-1.805-1.795,1.805-1.795-.845-.84-2.227,2.215c-.233,.232-.233,.608,0,.84l2.227,2.215,.845-.84h0Z" filter="url(#j)"/>
          <path d="M32.292,34.127l1.805,1.795,.845-.84-2.227-2.215c-.233-.232-.612-.232-.845,0l-2.227,2.215,.845,.84,1.805-1.795h0Z" filter="url(#l)"/>
          <path d="M31.718,32.715c.112-.111,.175-.263,.175-.42s-.063-.309-.175-.42l-2.227-2.215-.845,.84,1.805,1.795-1.805,1.795,.845,.84,2.227-2.215h0Z" filter="url(#n)"/>
        </g>
      </g>
    </g>
  </g>
</svg>