<?xml version="1.0" encoding="UTF-8"?>
<svg id="b" data-name="Layer 2" xmlns="http://www.w3.org/2000/svg" width="38" height="38" xmlns:xlink="http://www.w3.org/1999/xlink" viewBox="0 0 38 38">
  <defs>
    <filter id="d" data-name="drop-shadow-1" filterUnits="userSpaceOnUse">
      <feOffset dx="0" dy="0"/>
      <feGaussianBlur result="e" stdDeviation=".077"/>
      <feFlood flood-color="#000" flood-opacity=".13"/>
      <feComposite in2="e" operator="in"/>
      <feComposite in="SourceGraphic"/>
    </filter>
    <filter id="f" data-name="drop-shadow-2" filterUnits="userSpaceOnUse">
      <feOffset dx="0" dy="0"/>
      <feGaussianBlur result="g" stdDeviation=".077"/>
      <feFlood flood-color="#000" flood-opacity=".13"/>
      <feComposite in2="g" operator="in"/>
      <feComposite in="SourceGraphic"/>
    </filter>
    <filter id="h" data-name="drop-shadow-3" filterUnits="userSpaceOnUse">
      <feOffset dx="0" dy="0"/>
      <feGaussianBlur result="i" stdDeviation=".077"/>
      <feFlood flood-color="#000" flood-opacity=".13"/>
      <feComposite in2="i" operator="in"/>
      <feComposite in="SourceGraphic"/>
    </filter>
    <filter id="j" data-name="drop-shadow-4" filterUnits="userSpaceOnUse">
      <feOffset dx="0" dy="0"/>
      <feGaussianBlur result="k" stdDeviation=".077"/>
      <feFlood flood-color="#000" flood-opacity=".13"/>
      <feComposite in2="k" operator="in"/>
      <feComposite in="SourceGraphic"/>
    </filter>
  </defs>
  <g id="c" data-name="Layer 1">
    <g>
      <g>
        <circle cx="19" cy="19" r="19" fill="#00008b"/>
        <path d="M17.978,7.464c.571-.298,1.44-.298,2.011,0l5.836,3.067c.341,.179,.537,.452,.571,.733h.009v15.413c-.009,.307-.196,.605-.571,.801l-5.836,3.067c-.571,.298-1.44,.298-2.011,0l-5.836-3.067c-.375-.196-.554-.503-.562-.801V11.255h0c.026-.281,.204-.545,.562-.733l5.828-3.059Zm7.506,12.397l-5.487,2.888c-.571,.298-1.44,.298-2.011,0l-5.478-2.88v6.774l5.478,2.863c.307,.162,.63,.324,.946,.349h.06c.324,0,.648-.162,.963-.324l5.53-2.914v-6.757Zm-14.851,6.475c0,.588,.068,.98,.204,1.252,.111,.23,.281,.4,.596,.613l.017,.009c.068,.043,.145,.094,.239,.153l.111,.068,.332,.196-.477,.784-.375-.222-.06-.034c-.111-.068-.196-.119-.281-.179-.886-.596-1.218-1.244-1.227-2.59v-.043h.92v-.009Zm7.898-10.608c-.043,.017-.085,.034-.119,.051l-5.836,3.067c-.009,0-.009,.009-.017,.009h-.009l.009,.009,.017,.009,5.836,3.067c.034,.017,.077,.034,.119,.051v-6.262Zm.912,0v6.262c.043-.017,.085-.034,.119-.051l5.836-3.067c.009,0,.009-.009,.017-.009h.009l-.009-.009-.017-.009-5.836-3.067c-.034-.026-.077-.043-.119-.051Zm6.041-3.374l-5.231,2.752,5.231,2.752v-5.504Zm-12.976,0v5.487l5.223-2.743-5.223-2.743Zm7.055-4.081c-.307-.162-.852-.162-1.159,0l-5.836,3.067c-.009,0-.009,.009-.017,.009h-.009l.009,.009,.017,.009,5.836,3.067c.307,.162,.852,.162,1.159,0l5.836-3.067c.009,0,.009-.009,.017-.009h.009l-.009-.009-.017-.009-5.836-3.067Zm6.782,.332l.375,.222,.06,.034c.111,.068,.196,.119,.281,.179,.886,.596,1.218,1.244,1.227,2.59v.043h-.92c0-.588-.068-.98-.204-1.252-.111-.23-.281-.4-.596-.613l-.017-.009c-.068-.043-.145-.094-.239-.153l-.111-.068-.332-.196,.477-.775Z" fill="#fff"/>
      </g>
      <circle cx="32.292" cy="32.221" r="5.706"/>
      <g>
        <path d="M32.716,31.648l2.227-2.215-.845-.84-1.805,1.795-1.805-1.795-.845,.84,2.227,2.215c.117,.116,.27,.174,.422,.174s.306-.058,.422-.174Z" fill="#fff" filter="url(#d)"/>
        <path d="M35.94,34.014l-1.805-1.795,1.805-1.795-.845-.84-2.227,2.215c-.233,.232-.233,.608,0,.84l2.227,2.215,.845-.84h0Z" fill="#fff" filter="url(#f)"/>
        <path d="M32.29,34.054l1.805,1.795,.845-.84-2.227-2.215c-.233-.232-.612-.232-.845,0l-2.227,2.215,.845,.84,1.805-1.795h0Z" fill="#fff" filter="url(#h)"/>
        <path d="M31.716,32.643c.112-.111,.175-.263,.175-.42s-.063-.309-.175-.42l-2.227-2.215-.845,.84,1.805,1.795-1.805,1.795,.845,.84,2.227-2.215h0Z" fill="#fff" filter="url(#j)"/>
      </g>
    </g>
  </g>
</svg>