<?xml version="1.0" encoding="UTF-8"?>
<svg id="b" data-name="Layer 2" xmlns="http://www.w3.org/2000/svg" width="38.25" height="38.25" xmlns:xlink="http://www.w3.org/1999/xlink" viewBox="0 0 38.25 38.25">
  <defs>
    <filter id="d" data-name="drop-shadow-1" filterUnits="userSpaceOnUse">
      <feOffset dx="0" dy="0"/>
      <feGaussianBlur result="e" stdDeviation=".077"/>
      <feFlood flood-color="#000" flood-opacity=".13"/>
      <feComposite in2="e" operator="in"/>
      <feComposite in="SourceGraphic"/>
    </filter>
    <filter id="f" data-name="drop-shadow-2" filterUnits="userSpaceOnUse">
      <feOffset dx="0" dy="0"/>
      <feGaussianBlur result="g" stdDeviation=".077"/>
      <feFlood flood-color="#000" flood-opacity=".13"/>
      <feComposite in2="g" operator="in"/>
      <feComposite in="SourceGraphic"/>
    </filter>
    <filter id="h" data-name="drop-shadow-3" filterUnits="userSpaceOnUse">
      <feOffset dx="0" dy="0"/>
      <feGaussianBlur result="i" stdDeviation=".077"/>
      <feFlood flood-color="#000" flood-opacity=".13"/>
      <feComposite in2="i" operator="in"/>
      <feComposite in="SourceGraphic"/>
    </filter>
    <filter id="j" data-name="drop-shadow-4" filterUnits="userSpaceOnUse">
      <feOffset dx="0" dy="0"/>
      <feGaussianBlur result="k" stdDeviation=".077"/>
      <feFlood flood-color="#000" flood-opacity=".13"/>
      <feComposite in2="k" operator="in"/>
      <feComposite in="SourceGraphic"/>
    </filter>
  </defs>
  <g id="c" data-name="Layer 1">
    <g>
      <g>
        <circle cx="19" cy="19" r="19" fill="#20252d"/>
        <g>
          <path d="M10.767,14.229c1.689-1.013,5.151-3.04,5.151-3.04,0,0,3.462,1.984,5.193,2.998,.042,1.858,.042,5.827,.042,5.827,0,0-2.111,1.393-3.04,1.942,.718,.422,2.111,1.267,2.111,1.267l3.082-1.816V12.793l-7.347-4.222-7.304,4.264v8.613l3.082,1.816s1.393-.844,2.111-1.267c-.929-.549-3.04-1.942-3.04-1.942,0,0-.084-3.969-.042-5.827Z" fill="#fff"/>
          <path d="M29.344,16.636l-3.082-1.816s-1.393,.844-2.111,1.267c.929,.549,3.04,1.942,3.04,1.942v5.827c-1.689,1.013-5.151,3.04-5.151,3.04h0c-1.182-.676-2.829-1.647-3.884-2.238h0c-.507-.296-.929-.549-1.309-.76-.042-1.858-.042-5.827-.042-5.827h0c.127-.084,2.111-1.393,3.04-1.942-.718-.422-2.111-1.267-2.111-1.267l-3.082,1.816v8.613l1.309,.76,6.038,3.462,7.304-4.222h0l.042-8.656Z" fill="#fff"/>
        </g>
      </g>
      <g>
        <circle cx="32.294" cy="32.294" r="5.706" fill="#fff" stroke="#000" stroke-miterlimit="10" stroke-width=".5"/>
        <g>
          <path d="M32.718,31.721l2.227-2.215-.845-.84-1.805,1.795-1.805-1.795-.845,.84,2.227,2.215c.117,.116,.27,.174,.422,.174s.306-.058,.422-.174Z" filter="url(#d)"/>
          <path d="M35.942,34.087l-1.805-1.795,1.805-1.795-.845-.84-2.227,2.215c-.233,.232-.233,.608,0,.84l2.227,2.215,.845-.84h0Z" filter="url(#f)"/>
          <path d="M32.292,34.127l1.805,1.795,.845-.84-2.227-2.215c-.233-.232-.612-.232-.845,0l-2.227,2.215,.845,.84,1.805-1.795h0Z" filter="url(#h)"/>
          <path d="M31.718,32.715c.112-.111,.175-.263,.175-.42s-.063-.309-.175-.42l-2.227-2.215-.845,.84,1.805,1.795-1.805,1.795,.845,.84,2.227-2.215h0Z" filter="url(#j)"/>
        </g>
      </g>
    </g>
  </g>
</svg>