<?xml version="1.0" encoding="utf-8"?>
<!-- Generator: Adobe Illustrator 16.0.0, SVG Export Plug-In . SVG Version: 6.00 Build 0)  -->
<!DOCTYPE svg PUBLIC "-//W3C//DTD SVG 1.1//EN" "http://www.w3.org/Graphics/SVG/1.1/DTD/svg11.dtd">
<svg version="1.1" id="Layer_1" xmlns="http://www.w3.org/2000/svg" xmlns:xlink="http://www.w3.org/1999/xlink" x="0px" y="0px"
	 width="500px" height="500px" viewBox="0 0 500 500" enable-background="new 0 0 500 500" xml:space="preserve">
<g>
	<path fill="#59BA47" d="M249.589,332.467c-32.84,32.737-65.634,65.518-98.534,98.192c-17.688,17.567-38.482,22.991-62.482,15.486
		c-23.81-7.449-41.185-35.045-38.305-59.774c1.771-15.228,8.276-27.559,18.999-38.2c27.274-27.082,54.392-54.318,81.562-81.5
		c11.612-11.618,11.653-21.789,0.169-33.273c-27.48-27.482-55.05-54.873-82.413-82.472c-17.134-17.28-22.844-37.69-15.42-61.235
		c11.709-37.124,59.5-51.83,89.907-27.432c7.837,6.288,14.865,13.618,22.008,20.728c26.639,26.501,53.154,53.125,79.771,79.649
		c1.755,1.749,3.023,4.288,5.951,4.567c0.599,2.493,2.73,3.793,4.364,5.437c11.506,11.573,22.975,23.188,34.63,34.614
		c23.267,22.812,24.668,60.933,0.148,84.533C276.185,305.029,263.021,318.888,249.589,332.467z"/>
	<path fill="#20B24B" d="M249.589,332.467c13.431-13.579,26.598-27.438,40.354-40.68c24.518-23.602,23.116-61.723-0.148-84.534
		c-11.654-11.424-23.124-23.039-34.63-34.613c-1.634-1.644-3.766-2.944-4.364-5.438c29.843-30.09,59.493-60.37,90.057-89.735
		c0.354,1.797-0.318,3.348-1.071,4.926c-5.362,11.261-7.63,22.739-5.47,35.442c4.731,27.785,27.609,46.805,54.507,48.645
		c12.928,0.883,24.315-3.893,35.669-9.02c-25.752,25.828-51.467,51.693-77.28,77.458c-5.797,5.786-8.274,12.31-6.159,20.405
		c1.029,3.937,3.586,6.723,6.341,9.475c27.343,27.307,54.521,54.782,82.05,81.901c11.944,11.766,19.784,25.286,20.539,42.2
		c0.884,19.742-7.72,40.406-27.979,52.112c-25.653,14.821-52.238,10.884-73.322-10.077c-31.515-31.333-62.92-62.772-94.384-94.157
		C252.791,335.275,251.16,333.9,249.589,332.467z"/>
	<path fill="#59BA47" d="M424.493,157.459c-11.354,5.126-22.74,9.902-35.669,9.02c-26.898-1.839-49.775-20.86-54.506-48.645
		c-2.161-12.702,0.107-24.179,5.47-35.442c0.752-1.577,1.425-3.128,1.071-4.926l0.146-0.054c0.381-0.426,0.759-0.852,1.139-1.278
		c14.469-18.001,32.526-27.786,56.329-25.78c24.333,2.051,47.589,24.085,50.877,48.238c3.257,23.94-5.429,42.658-23.611,57.647
		c-0.344,0.178-0.605,0.442-0.78,0.789l-0.089,0.371L424.493,157.459z"/>
	<path fill="#20B24B" d="M342.143,76.135c-0.38,0.426-0.758,0.852-1.139,1.278C341.385,76.987,341.764,76.561,342.143,76.135z"/>
	<path fill="#20B24B" d="M424.958,157.03c0.175-0.347,0.437-0.611,0.78-0.791C425.477,156.505,425.22,156.767,424.958,157.03z"/>
</g>
</svg>
