<?xml version="1.0" encoding="utf-8"?>
<!-- Generator: Adobe Illustrator 16.0.0, SVG Export Plug-In . SVG Version: 6.00 Build 0)  -->
<!DOCTYPE svg PUBLIC "-//W3C//DTD SVG 1.1//EN" "http://www.w3.org/Graphics/SVG/1.1/DTD/svg11.dtd">
<svg version="1.1" id="Layer_1" xmlns="http://www.w3.org/2000/svg" xmlns:xlink="http://www.w3.org/1999/xlink" x="0px" y="0px"
	 width="500px" height="500px" viewBox="0 0 500 500" enable-background="new 0 0 500 500" xml:space="preserve">
<radialGradient id="SVGID_1_" cx="15.9072" cy="512.2031" r="9.9221" gradientTransform="matrix(1.519076e-015 24.8084 24.8902 -1.524085e-015 -12499.7188 -145)" gradientUnits="userSpaceOnUse">
	<stop  offset="0" style="stop-color:#495FAB"/>
	<stop  offset="1" style="stop-color:#4E63AD"/>
</radialGradient>
<path fill="url(#SVGID_1_)" d="M249.12,495.803c136.392,0,246.962-110.203,246.962-246.149
	c0-135.945-110.57-246.149-246.962-246.149C112.729,3.504,2.157,113.708,2.157,249.653C2.157,385.6,112.729,495.803,249.12,495.803z
	"/>
<path fill="#FFFFFF" d="M123.493,124.439c53.354-53.174,131.656-65.184,196.2-36.88l-33.568,33.452
	c-45.601-12.867-96.373-1.715-131.65,34.303c-47.329,47.175-51.634,120.081-13.771,172.398l50.771-50.613l30.978,30.876
	l-82.608,81.488c-6.023-4.291-11.186-9.434-16.353-14.587C53.796,305.409,53.796,193.056,123.493,124.439z"/>
<path fill="#FFFFFF" d="M177.705,411.737c65.396,28.31,143.701,15.438,196.193-36.878c69.702-69.47,69.702-180.961,0-250.435
	c-5.162-5.148-10.332-10.29-16.357-14.582l-81.739,81.479l30.973,30.875l50.767-50.603c37.868,52.317,32.706,126.077-13.762,172.39
	c-36.135,36.026-86.912,47.173-131.655,34.303L177.705,411.737z"/>
<path fill="#FFFFFF" d="M280.102,249.653l-30.978-30.875l-30.976,30.875l30.976,30.876L280.102,249.653z"/>
<path fill="#FFFFFF" d="M190.609,160.476l30.978,30.875l-30.978,30.875l-30.976-30.875L190.609,160.476z"/>
<path fill="#FFFFFF" d="M338.617,307.994l-30.973-30.875l-30.981,30.875l30.981,30.876L338.617,307.994z"/>
</svg>
