<?xml version="1.0" encoding="utf-8"?>
<!-- Generator: Adobe Illustrator 16.0.0, SVG Export Plug-In . SVG Version: 6.00 Build 0)  -->
<!DOCTYPE svg PUBLIC "-//W3C//DTD SVG 1.1//EN" "http://www.w3.org/Graphics/SVG/1.1/DTD/svg11.dtd">
<svg version="1.1" id="Layer_1" xmlns:xodm="http://www.corel.com/coreldraw/odm/2003"
	 xmlns="http://www.w3.org/2000/svg" xmlns:xlink="http://www.w3.org/1999/xlink" x="0px" y="0px" width="500px" height="500px"
	 viewBox="0 0 500 500" enable-background="new 0 0 500 500" xml:space="preserve">
<g id="Layer_x0020_1">
	<g id="_2806320627344">
		<g>
			<path fill="#CCFF00" d="M253.4,429.2c-29.4,0-56-12-75.4-31.2c-19.2-19.2-31.2-46-31.2-75.4c0-22.8,7.2-43.8,19.4-61.199l7,41.8
				c-1.4,6.2-2.2,12.8-2.2,19.399c0,22.801,9.2,43.4,24.2,58.2c15,15,35.6,24.2,58.2,24.2c22.8,0,43.399-9.2,58.199-24.2
				c15-15,24.2-35.6,24.2-58.2c0-22.8-9.2-43.399-24.2-58.199c-15-15-35.6-24.2-58.199-24.2c-21.8,0-41.601,8.4-56.2,22.2l-4.6-27.2
				c17.2-12,38.2-19,60.8-19c29.399,0,56,12,75.399,31.2c19.2,19.2,31.2,46,31.2,75.4c0,29.4-12,56-31.2,75.4
				c-19.2,19.2-46,31.2-75.399,31.2V429.2z"/>
			<circle fill="#1CD7D2" cx="221" cy="291.2" r="14.2"/>
			<circle fill="#1CD7D2" cx="257.4" cy="322.8" r="14.2"/>
			<circle fill="#1CD7D2" cx="267.2" cy="274.8" r="14.2"/>
			<circle fill="#1CD7D2" cx="301.6" cy="307.4" r="14.2"/>
			<circle fill="#1CD7D2" cx="211.6" cy="338" r="14.2"/>
			<circle fill="#1CD7D2" cx="292.4" cy="353.8" r="14.2"/>
			<circle fill="#1CD7D2" cx="247.2" cy="371.2" r="14.2"/>
			<path fill="#CCFF00" d="M198.6,313.2c1.8-2.4,2.6-5.4,2-8.601L162.8,80.4c-0.6-3.2-2.2-5.8-4.6-7.4c-2.4-1.8-5.4-2.6-8.6-2
				c-3.2,0.6-5.8,2.2-7.4,4.6c-1.8,2.4-2.6,5.4-2,8.6L178,308.4c0.6,3.199,2.2,5.8,4.6,7.399c2.4,1.8,5.4,2.601,8.6,2
				C194.4,317.2,197,315.6,198.6,313.2z"/>
		</g>
	</g>
</g>
</svg>
