<?xml version="1.0" encoding="utf-8"?>
<!-- Generator: Adobe Illustrator 22.0.1, SVG Export Plug-In . SVG Version: 6.00 Build 0)  -->
<svg version="1.1" id="Layer_1" xmlns="http://www.w3.org/2000/svg" xmlns:xlink="http://www.w3.org/1999/xlink" x="0px" y="0px"
	 viewBox="0 0 150 150" style="enable-background:new 0 0 150 150;" xml:space="preserve">
<style type="text/css">
	.st0{fill:#04795B;}
</style>
<path class="st0" d="M26.1,66.4c0-4.4,1.5-8.5,4-11.7l26.7,26.8c-3.3,2.5-7.3,4-11.7,4C34.6,85.5,26.1,76.9,26.1,66.4z M105.7,85.4
	c10.5,0.1,19-8.5,19-19.1c0-4.4-1.5-8.4-4-11.7L94,81.4C97.2,84,101.2,85.4,105.7,85.4z M126.3,49.2c3.9,4.7,6.3,10.7,6.3,17.3
	c0,14.9-12.1,27-27,27c-6.6,0-12.6-2.4-17.3-6.3l-13,13l-13-13c-4.7,3.9-10.7,6.3-17.3,6.3c-14.9,0-27-12.1-27-27
	c0-6.6,2.4-12.6,6.3-17.3l-6.1-6.1l-5.8-5.8C5.9,48.4,2,61.4,2,75.4c0,40.6,32.8,73.5,73.3,73.5c40.5,0,73.3-32.9,73.3-73.5
	c0.1-14-3.8-27-10.5-38.1L126.3,49.2z M128.4,24.6c-13.3-14-32.2-22.8-53.1-22.8c-20.9,0-39.7,8.8-53.1,22.8c-1.8,1.9-3.5,3.9-5.2,6
	l58.2,58.3l58.2-58.3C132,28.6,130.3,26.5,128.4,24.6z M75.4,75.3L30.3,30.1c12-12.1,27.9-18.7,45.1-18.7c17.2,0,33.1,6.6,45.1,18.7
	L75.4,75.3z"/>
</svg>
