<?xml version="1.0" encoding="utf-8"?>
<!-- Generator: Adobe Illustrator 22.0.1, SVG Export Plug-In . SVG Version: 6.00 Build 0)  -->
<svg version="1.1" id="Layer_1" xmlns="http://www.w3.org/2000/svg" xmlns:xlink="http://www.w3.org/1999/xlink" x="0px" y="0px"
	 viewBox="0 0 1080 1080" style="enable-background:new 0 0 1080 1080;" xml:space="preserve">
<style type="text/css">
	.st0{fill:#AEDB01;}
	.st1{fill:#B0B1AC;}
	.st2{fill:#5D6D3C;}
</style>
<g>
	<g>
		<path class="st0" d="M542.9,720H50V0h492.9c169.2,0,306.3,137.1,306.3,306.2v107.5C849.2,582.9,712.1,720,542.9,720"/>
		<path class="st1" d="M669.9,1080H50V720c0-198.8,161.2-360,360.1-360h259.8c198.9,0,360.1,161.2,360.1,360S868.8,1080,669.9,1080"
			/>
		<path class="st2" d="M849.2,407.8v6C849.2,583,712.1,720,542.8,720H50c0-99.4,40.4-189.4,105.4-254.6
			C220.6,400.2,310.6,360,410.2,360h259.7C735.2,360.1,796.4,377.5,849.2,407.8"/>
	</g>
</g>
</svg>
