<svg xmlns="http://www.w3.org/2000/svg" width="70" height="70" viewBox="0 0 70 70" fill="none">
  <path d="M44.5518 37.6004H18.8208V0H44.5518C53.3866 0 60.5402 7.16198 60.5402 15.9884V21.6036C60.5402 30.4384 53.3866 37.6004 44.5518 37.6004Z" fill="#ACD905" />
  <path d="M51.1842 56.4046H18.8208V37.6002C18.8208 27.2187 27.2353 18.8042 37.6168 18.8042H51.1842C61.5657 18.8042 69.9802 27.2187 69.9802 37.6002C69.9802 47.9817 61.5657 56.4046 51.1842 56.4046Z" fill="#AEAFAA" />
  <path d="M60.5402 21.3008V21.6118C60.5402 30.4466 53.3866 37.6002 44.5434 37.6002H18.8208C18.8208 32.4136 20.9307 27.7146 24.3268 24.3102C27.7312 20.9057 32.4302 18.8042 37.6252 18.8042H51.1842C54.5971 18.8042 57.7914 19.7121 60.5402 21.3008Z" fill="#5D6E3C" />
  <path d="M18.8717 47.0741C29.2942 47.0741 37.7433 38.625 37.7433 28.2025C37.7433 17.7799 29.2942 9.33081 18.8717 9.33081C8.44913 9.33081 0 17.7799 0 28.2025C0 38.625 8.44913 47.0741 18.8717 47.0741Z" fill="#000" />
  <path d="M18.8714 11.7009L18.6528 12.4575V34.2713L18.8714 34.4982L29.0007 28.5047L18.8714 11.7009Z" fill="#C5C5C5" />
  <path d="M18.8715 11.7012L8.74219 28.5049L18.8715 34.4985V23.9068V11.7012Z" fill="#E7E7E7" />
  <path d="M18.8712 36.4151L18.7451 36.5664V44.3336L18.8712 44.7035L29.0089 30.4299L18.8712 36.4151Z" fill="#C5C5C5" />
  <path d="M18.8715 44.7035V36.4151L8.74219 30.4299L18.8715 44.7035Z" fill="#E7E7E7" />
  <path d="M18.8716 34.4986L29.0009 28.5051L18.8716 23.907V34.4986Z" fill="#909090" />
  <path d="M8.74219 28.5051L18.8715 34.4986V23.907L8.74219 28.5051Z" fill="#AEAEAE" />
</svg>