<?xml version="1.0" encoding="utf-8"?>
<!-- Generator: Adobe Illustrator 22.0.1, SVG Export Plug-In . SVG Version: 6.00 Build 0)  -->
<svg version="1.1" id="Layer_1" xmlns:xodm="http://www.corel.com/coreldraw/odm/2003"
	 xmlns="http://www.w3.org/2000/svg" xmlns:xlink="http://www.w3.org/1999/xlink" x="0px" y="0px" viewBox="0 0 400 400"
	 style="enable-background:new 0 0 400 400;" xml:space="preserve">
<style type="text/css">
	.st0{fill:#CCFF00;}
	.st1{fill:#1CD7D2;}
</style>
<g id="Layer_x0020_1">
	<g id="_2806320627344">
		<g>
			<path class="st0" d="M203.4,379.2c-29.4,0-56-12-75.4-31.2c-19.2-19.2-31.2-46-31.2-75.4c0-22.8,7.2-43.8,19.4-61.2l7,41.8
				c-1.4,6.2-2.2,12.8-2.2,19.4c0,22.8,9.2,43.4,24.2,58.2c15,15,35.6,24.2,58.2,24.2c22.8,0,43.4-9.2,58.2-24.2
				c15-15,24.2-35.6,24.2-58.2c0-22.8-9.2-43.4-24.2-58.2c-15-15-35.6-24.2-58.2-24.2c-21.8,0-41.6,8.4-56.2,22.2l-4.6-27.2
				c17.2-12,38.2-19,60.8-19c29.4,0,56,12,75.4,31.2c19.2,19.2,31.2,46,31.2,75.4s-12,56-31.2,75.4c-19.2,19.2-46,31.2-75.4,31.2
				L203.4,379.2L203.4,379.2z"/>
			<circle class="st1" cx="171" cy="241.2" r="14.2"/>
			<circle class="st1" cx="207.4" cy="272.8" r="14.2"/>
			<circle class="st1" cx="217.2" cy="224.8" r="14.2"/>
			<circle class="st1" cx="251.6" cy="257.4" r="14.2"/>
			<circle class="st1" cx="161.6" cy="288" r="14.2"/>
			<circle class="st1" cx="242.4" cy="303.8" r="14.2"/>
			<circle class="st1" cx="197.2" cy="321.2" r="14.2"/>
			<path class="st0" d="M148.6,263.2c1.8-2.4,2.6-5.4,2-8.6L112.8,30.4c-0.6-3.2-2.2-5.8-4.6-7.4c-2.4-1.8-5.4-2.6-8.6-2
				c-3.2,0.6-5.8,2.2-7.4,4.6c-1.8,2.4-2.6,5.4-2,8.6L128,258.4c0.6,3.2,2.2,5.8,4.6,7.4c2.4,1.8,5.4,2.6,8.6,2
				C144.4,267.2,147,265.6,148.6,263.2z"/>
		</g>
	</g>
</g>
</svg>
