<?xml version="1.0" encoding="utf-8"?>
<!-- Generator: Adobe Illustrator 22.0.1, SVG Export Plug-In . SVG Version: 6.00 Build 0)  -->
<svg version="1.1" id="Layer_1" xmlns="http://www.w3.org/2000/svg" xmlns:xlink="http://www.w3.org/1999/xlink" x="0px" y="0px"
	 viewBox="0 0 100 100" style="enable-background:new 0 0 100 100;" xml:space="preserve">
<style type="text/css">
	.st0{fill:#F3BA2F;}
</style>
<g>
	<path class="st0" d="M59.5,82.3v10.9L50,98.8l-9.3-5.6V82.3l9.3,5.6L59.5,82.3z M8.4,44.5l9.3,5.6v18.8l16,9.5v10.9L8.4,74.5V44.5z
		 M91.4,44.5v30L65.9,89.4v-11l16-9.5V50.1L91.4,44.5z M65.9,29.6l9.5,5.6v10.9l-16,9.5v19l-9.2,5.7L41,74.7v-19l-16.6-9.6V35.2
		l9.5-5.6l16,9.5L65.9,29.6z M24.4,54l9.3,5.6v10.9l-9.3-5.6V54z M75.4,54v10.9l-9.3,5.6V59.6L75.4,54z M17.7,20.1l9.5,5.6l-9.5,5.6
		v10.9l-9.3-5.6V25.7L17.7,20.1z M82.1,20.1l9.5,5.6v10.9l-9.5,5.6V31.3l-9.3-5.6L82.1,20.1z M49.9,20.1l9.5,5.6l-9.5,5.6l-9.3-5.6
		L49.9,20.1z M49.9,1.3l25.5,14.9l-9.3,5.6l-16-9.5l-16.3,9.5l-9.3-5.6L49.9,1.3z"/>
</g>
</svg>
