<svg xmlns="http://www.w3.org/2000/svg" width="70" height="70" viewBox="0 0 70 70" fill="none">
  <path d="M44.5616 37.938H18.8306V0.21875H44.5616C53.3964 0.21875 60.5499 7.40338 60.5499 16.2577V21.8907C60.5499 30.7534 53.3964 37.938 44.5616 37.938Z" fill="#ACD905" />
  <path d="M51.194 56.802H18.8306V37.9382C18.8306 27.5239 27.2451 19.0828 37.6266 19.0828H51.194C61.5755 19.0828 69.99 27.5239 69.99 37.9382C69.99 48.3525 61.5755 56.802 51.194 56.802Z" fill="#AEAFAA" />
  <path d="M60.5499 21.5873V21.8993C60.5499 30.762 53.3964 37.9382 44.5532 37.9382H18.8306C18.8306 32.7352 20.9405 28.0214 24.3365 24.6062C27.741 21.1909 32.44 19.0828 37.635 19.0828H51.194C54.6068 19.0828 57.8012 19.9935 60.5499 21.5873Z" fill="#5D6E3C" />
  <path d="M18.8814 47.4412C29.3039 47.4412 37.7531 38.9654 37.7531 28.5099C37.7531 18.0545 29.3039 9.57861 18.8814 9.57861C8.45889 9.57861 0.00976562 18.0545 0.00976562 28.5099C0.00976562 38.9654 8.45889 47.4412 18.8814 47.4412Z" fill="#000" />
  <path d="M21.8991 38.8652V42.3816L18.8477 44.1862L15.8804 42.3816V38.8652L18.8477 40.6698L21.8991 38.8652ZM5.54932 26.7053L8.51666 28.5099V34.5393L13.6276 37.6003V41.1167L5.54932 36.3354V26.7053ZM32.1293 26.7053V36.3523L23.967 41.1336V37.6172L29.0779 34.5561V28.5268L32.1293 26.7053ZM23.9502 21.9324L27.0016 23.737V27.245L21.8907 30.3061V36.4197L18.9234 38.2243L15.9729 36.4197V30.2892L10.677 27.2282V23.7117L13.7284 21.9071L18.8393 24.9682L23.9502 21.9324ZM10.677 29.7579L13.6444 31.5625V35.079L10.677 33.2744V29.7579ZM27.01 29.7579V33.2744L24.0427 35.079V31.5625L27.01 29.7579ZM8.51666 18.863L11.5681 20.6675L8.51666 22.4721V25.9801L5.54932 24.1755V20.6675L8.51666 18.863ZM29.162 18.863L32.2134 20.6675V24.184L29.162 25.9801V22.4637L26.1947 20.6675L29.162 18.863ZM18.8393 18.863L21.8907 20.6675L18.8393 22.4721L15.872 20.6675L18.8393 18.863ZM18.8393 12.842L27.0016 17.6234L24.0343 19.4279L18.9234 16.3669L13.7116 19.4279L10.7443 17.6234L18.8393 12.842Z" fill="#F1B82F" />
</svg>