<?xml version="1.0" encoding="utf-8"?>
<!-- Generator: Adobe Illustrator 22.0.1, SVG Export Plug-In . SVG Version: 6.00 Build 0)  -->
<svg version="1.1" id="Layer_1" xmlns="http://www.w3.org/2000/svg" xmlns:xlink="http://www.w3.org/1999/xlink" x="0px" y="0px"
	 viewBox="0 0 500 500" style="enable-background:new 0 0 500 500;" xml:space="preserve">
<style type="text/css">
	.st0{fill:#238BCA;}
	.st1{fill:#FFFFFF;}
</style>
<circle class="st0" cx="155" cy="81" r="28"/>
<circle class="st0" cx="84.9" cy="154.8" r="28"/>
<circle class="st0" cx="56.9" cy="250.7" r="28"/>
<circle class="st0" cx="84.9" cy="346.6" r="28"/>
<circle class="st0" cx="155" cy="420.4" r="28"/>
<path class="st1" d="M394.2,221.2c8.6-0.1,15.8,6.4,16.7,15c0.5,4.9,0.7,9.8,0.7,14.8c0,91.3-74.3,165.5-165.5,165.5
	c-13.1,0-25.1,8.7-28.5,21.3c-5.5,20.1,9.4,38.2,28.6,38.2c124,0,225-100.9,225-225c0-124.1-100.9-225-225-225
	c-19,0-33.8,17.7-28.8,37.5c3.3,13.1,15.9,21.9,29.4,22c43,0.2,82.1,17,111.5,44.2c8.6,10.8,8.7,27.2-0.5,38.2
	c-10.5,12.5-33.3,12.8-45.8,2.3c-0.2-0.1-0.4-0.2-0.6-0.3c-23.5-19.2-54.3-27-84.1-21.5c-41.6,7.4-75.5,40.5-83.4,82
	c-12.7,66.6,38,124.8,102.3,124.8c41.1,0,78.3-24.1,95.1-61.6c2-4.6,0-10-4.7-12.1c-1.2-0.5-2.4-0.8-3.7-0.8h-85.5
	c-13,0-25.5-7.7-29.5-20c-6.5-20.5,8.6-39.4,28.2-39.4L394.2,221.2z"/>
</svg>
