<svg width="98" height="30" viewBox="0 0 98 30" fill="none" xmlns="http://www.w3.org/2000/svg">
<g clip-path="url(#clip0_3405_117)">
<path fill-rule="evenodd" clip-rule="evenodd" d="M9.74272 5.60382C11.0669 4.3067 13.1852 4.3067 14.5094 5.60382L17.6442 8.67467C19.0075 10.0102 19.0075 12.2051 17.6442 13.5406L12.181 18.8924L16.0991 22.7305C16.8456 23.4618 16.8579 24.6597 16.1267 25.4062C15.3954 26.1527 14.1974 26.1651 13.4509 25.4338L3.95893 16.1355C2.59561 14.8 2.59561 12.6051 3.95893 11.2696L9.74272 5.60382ZM9.47708 16.2437L14.7201 11.1076L12.126 8.56653L6.88303 13.7025L9.47708 16.2437Z" fill="#3CEAAA"/>
<path fill-rule="evenodd" clip-rule="evenodd" d="M17.6896 8.19873C19.0138 6.90161 21.1321 6.90161 22.4562 8.19873L25.5911 11.2696C26.9544 12.6051 26.9544 14.8 25.5911 16.1355L16.0991 25.4338C15.3526 26.1651 14.1546 26.1527 13.4234 25.4062C12.6921 24.6597 12.7044 23.4618 13.4509 22.7305L17.3691 18.8924L14.5548 16.1355C13.1915 14.8 13.1915 12.6051 14.5548 11.2696L17.6896 8.19873ZM20.0729 16.2437L22.667 13.7026L20.0729 11.1614L17.4789 13.7026L20.0729 16.2437Z" fill="#03BCE4"/>
<path opacity="0.95" d="M17.4774 13.709L14.7218 11.0916L12.0788 13.6874L14.769 16.3638L17.4774 13.709Z" fill="#00A4E1"/>
</g>
<path d="M35.312 14H37.188V10.374H39.582C41.57 10.374 42.9 9.17 42.9 7.364C42.9 5.586 41.57 4.396 39.582 4.396H35.312V14ZM37.188 8.694V6.076H39.582C40.45 6.076 41.024 6.594 41.024 7.364C41.024 8.162 40.45 8.694 39.582 8.694H37.188ZM46.5177 14.196C48.2257 14.196 49.6817 13.16 50.1437 11.62H48.4357C48.1137 12.32 47.3437 12.796 46.5177 12.796C45.4257 12.796 44.5857 12.054 44.4317 10.962H50.1717L50.3117 10.822V10.5C50.3117 8.288 48.7857 6.804 46.5177 6.804C44.2497 6.804 42.7237 8.288 42.7237 10.5C42.7237 12.712 44.2497 14.196 46.5177 14.196ZM44.5437 9.562C44.8517 8.75 45.6357 8.204 46.5177 8.204C47.3997 8.204 48.1837 8.75 48.4917 9.562H44.5437ZM51.2462 14H52.9262V9.856C52.9262 8.918 53.6682 8.288 54.7882 8.288H55.3622V7C55.1662 6.916 54.8722 6.86 54.6202 6.86C53.9762 6.86 53.2902 7.252 52.9262 7.826V7H51.2462V14ZM60.3345 6.804C59.4805 6.804 58.5425 7.196 58.0105 7.77V7H56.3305V16.604H58.0105V13.23C58.5425 13.804 59.4805 14.196 60.3345 14.196C62.5465 14.196 64.0305 12.712 64.0305 10.5C64.0305 8.288 62.5465 6.804 60.3345 6.804ZM60.1665 8.288C61.4685 8.288 62.3505 9.17 62.3505 10.5C62.3505 11.83 61.4685 12.712 60.1665 12.712C58.8785 12.712 58.0105 11.83 58.0105 10.5C58.0105 9.17 58.8785 8.288 60.1665 8.288ZM68.4835 14.196C70.1915 14.196 71.6475 13.16 72.1095 11.62H70.4015C70.0795 12.32 69.3095 12.796 68.4835 12.796C67.3915 12.796 66.5515 12.054 66.3975 10.962H72.1375L72.2775 10.822V10.5C72.2775 8.288 70.7515 6.804 68.4835 6.804C66.2155 6.804 64.6895 8.288 64.6895 10.5C64.6895 12.712 66.2155 14.196 68.4835 14.196ZM66.5095 9.562C66.8175 8.75 67.6015 8.204 68.4835 8.204C69.3655 8.204 70.1495 8.75 70.4575 9.562H66.5095ZM75.8434 14.196C76.2914 14.196 76.7674 14.112 77.0334 14V12.796H75.8154C75.4514 12.796 75.1994 12.558 75.1994 12.208V8.4H76.9634V7H75.1994V4.396H73.5194V7H72.3994V8.4H73.5194V12.208C73.5194 13.398 74.4574 14.196 75.8434 14.196ZM84.7715 7H83.0915V11.158C83.0915 12.082 82.4055 12.712 81.3835 12.712C80.3615 12.712 79.6755 12.082 79.6755 11.158V7H77.9955V11.354C77.9955 13.062 79.2835 14.196 81.1875 14.196C81.8735 14.196 82.6435 13.916 83.0915 13.482V14H84.7715V7ZM89.3519 14.196C90.1779 14.196 91.0879 13.818 91.6199 13.244V14H93.2999V7H91.6199V7.756C91.0879 7.182 90.1779 6.804 89.3519 6.804C87.1679 6.804 85.7119 8.288 85.7119 10.5C85.7119 12.712 87.1679 14.196 89.3519 14.196ZM89.5199 12.712C88.2459 12.712 87.3919 11.83 87.3919 10.5C87.3919 9.17 88.2459 8.288 89.5199 8.288C90.7799 8.288 91.6199 9.17 91.6199 10.5C91.6199 11.83 90.7799 12.712 89.5199 12.712ZM94.5215 14H96.2015V4.396H94.5215V14Z" fill="black"/>
<path d="M35.312 27H37.188V23.374H39.582C41.57 23.374 42.9 22.17 42.9 20.364C42.9 18.586 41.57 17.396 39.582 17.396H35.312V27ZM37.188 21.694V19.076H39.582C40.45 19.076 41.024 19.594 41.024 20.364C41.024 21.162 40.45 21.694 39.582 21.694H37.188ZM43.5642 27H45.2442V22.856C45.2442 21.918 45.9862 21.288 47.1062 21.288H47.6802V20C47.4842 19.916 47.1902 19.86 46.9382 19.86C46.2942 19.86 45.6082 20.252 45.2442 20.826V20H43.5642V27ZM51.4653 27.196C53.7333 27.196 55.2593 25.712 55.2593 23.5C55.2593 21.288 53.7333 19.804 51.4653 19.804C49.1973 19.804 47.6713 21.288 47.6713 23.5C47.6713 25.712 49.1973 27.196 51.4653 27.196ZM51.4653 25.712C50.2053 25.712 49.3513 24.83 49.3513 23.5C49.3513 22.17 50.2053 21.288 51.4653 21.288C52.7253 21.288 53.5793 22.17 53.5793 23.5C53.5793 24.83 52.7253 25.712 51.4653 25.712ZM58.9619 27.196C59.4099 27.196 59.8859 27.112 60.1519 27V25.796H58.9339C58.5699 25.796 58.3179 25.558 58.3179 25.208V21.4H60.0819V20H58.3179V17.396H56.6379V20H55.5179V21.4H56.6379V25.208C56.6379 26.398 57.5759 27.196 58.9619 27.196ZM64.3546 27.196C66.6226 27.196 68.1486 25.712 68.1486 23.5C68.1486 21.288 66.6226 19.804 64.3546 19.804C62.0866 19.804 60.5606 21.288 60.5606 23.5C60.5606 25.712 62.0866 27.196 64.3546 27.196ZM64.3546 25.712C63.0946 25.712 62.2406 24.83 62.2406 23.5C62.2406 22.17 63.0946 21.288 64.3546 21.288C65.6146 21.288 66.4686 22.17 66.4686 23.5C66.4686 24.83 65.6146 25.712 64.3546 25.712ZM72.5971 27.196C74.5011 27.196 75.9711 25.978 76.2651 24.158H74.6551C74.4451 25.082 73.6191 25.712 72.5971 25.712C71.3371 25.712 70.4831 24.83 70.4831 23.5C70.4831 22.17 71.3371 21.288 72.5971 21.288C73.6051 21.288 74.4171 21.89 74.6411 22.772H76.2511C75.9431 20.994 74.4731 19.804 72.5971 19.804C70.3291 19.804 68.8031 21.288 68.8031 23.5C68.8031 25.712 70.3291 27.196 72.5971 27.196ZM80.7165 27.196C82.9845 27.196 84.5105 25.712 84.5105 23.5C84.5105 21.288 82.9845 19.804 80.7165 19.804C78.4485 19.804 76.9225 21.288 76.9225 23.5C76.9225 25.712 78.4485 27.196 80.7165 27.196ZM80.7165 25.712C79.4565 25.712 78.6025 24.83 78.6025 23.5C78.6025 22.17 79.4565 21.288 80.7165 21.288C81.9765 21.288 82.8305 22.17 82.8305 23.5C82.8305 24.83 81.9765 25.712 80.7165 25.712ZM85.3083 27H86.9883V17.396H85.3083V27Z" fill="black"/>
<defs>
<clipPath id="clip0_3405_117">
<rect width="30" height="30" fill="white"/>
</clipPath>
</defs>
</svg>
