<svg width="206" height="30" viewBox="0 0 206 30" fill="none" xmlns="http://www.w3.org/2000/svg">
<g clip-path="url(#clip0_3405_144)">
<path fill-rule="evenodd" clip-rule="evenodd" d="M10.4389 5.60382C11.7631 4.3067 13.8814 4.3067 15.2055 5.60382L18.3404 8.67467C19.7037 10.0102 19.7037 12.2051 18.3404 13.5406L12.8771 18.8924L16.7953 22.7305C17.5418 23.4618 17.5541 24.6597 16.8228 25.4062C16.0916 26.1527 14.8936 26.1651 14.1471 25.4338L4.65512 16.1355C3.2918 14.8 3.2918 12.6051 4.65512 11.2696L10.4389 5.60382ZM10.1733 16.2437L15.4163 11.1076L12.8222 8.56653L7.57922 13.7025L10.1733 16.2437Z" fill="#3CEAAA"/>
<path fill-rule="evenodd" clip-rule="evenodd" d="M18.3858 8.1987C19.7099 6.90158 21.8283 6.90158 23.1524 8.1987L26.2873 11.2696C27.6506 12.6051 27.6506 14.8 26.2873 16.1355L16.7953 25.4338C16.0488 26.165 14.8508 26.1527 14.1195 25.4062C13.3883 24.6597 13.4006 23.4617 14.1471 22.7305L18.0652 18.8923L15.251 16.1355C13.8876 14.8 13.8876 12.6051 15.251 11.2696L18.3858 8.1987ZM20.7691 16.2436L23.3632 13.7025L20.7691 11.1614L18.1751 13.7025L20.7691 16.2436Z" fill="#03BCE4"/>
<path opacity="0.95" d="M18.1736 13.7089L15.418 11.0916L12.7749 13.6873L15.4651 16.3637L18.1736 13.7089Z" fill="#00A4E1"/>
</g>
<path d="M36.3562 23H39.0362V17.82H42.4562C45.2962 17.82 47.1962 16.1 47.1962 13.52C47.1962 10.98 45.2962 9.28 42.4562 9.28H36.3562V23ZM39.0362 15.42V11.68H42.4562C43.6962 11.68 44.5162 12.42 44.5162 13.52C44.5162 14.66 43.6962 15.42 42.4562 15.42H39.0362ZM52.3643 23.28C54.8043 23.28 56.8843 21.8 57.5443 19.6H55.1043C54.6443 20.6 53.5443 21.28 52.3643 21.28C50.8043 21.28 49.6043 20.22 49.3843 18.66H57.5843L57.7843 18.46V18C57.7843 14.84 55.6043 12.72 52.3643 12.72C49.1243 12.72 46.9443 14.84 46.9443 18C46.9443 21.16 49.1243 23.28 52.3643 23.28ZM49.5443 16.66C49.9843 15.5 51.1043 14.72 52.3643 14.72C53.6243 14.72 54.7443 15.5 55.1843 16.66H49.5443ZM59.1193 23H61.5193V17.08C61.5193 15.74 62.5793 14.84 64.1793 14.84H64.9993V13C64.7193 12.88 64.2993 12.8 63.9393 12.8C63.0193 12.8 62.0393 13.36 61.5193 14.18V13H59.1193V23ZM72.1026 12.72C70.8826 12.72 69.5426 13.28 68.7826 14.1V13H66.3826V26.72H68.7826V21.9C69.5426 22.72 70.8826 23.28 72.1026 23.28C75.2626 23.28 77.3826 21.16 77.3826 18C77.3826 14.84 75.2626 12.72 72.1026 12.72ZM71.8626 14.84C73.7226 14.84 74.9826 16.1 74.9826 18C74.9826 19.9 73.7226 21.16 71.8626 21.16C70.0226 21.16 68.7826 19.9 68.7826 18C68.7826 16.1 70.0226 14.84 71.8626 14.84ZM83.744 23.28C86.184 23.28 88.264 21.8 88.924 19.6H86.484C86.024 20.6 84.924 21.28 83.744 21.28C82.184 21.28 80.984 20.22 80.764 18.66H88.964L89.164 18.46V18C89.164 14.84 86.984 12.72 83.744 12.72C80.504 12.72 78.324 14.84 78.324 18C78.324 21.16 80.504 23.28 83.744 23.28ZM80.924 16.66C81.364 15.5 82.484 14.72 83.744 14.72C85.004 14.72 86.124 15.5 86.564 16.66H80.924ZM94.2582 23.28C94.8982 23.28 95.5782 23.16 95.9582 23V21.28H94.2182C93.6982 21.28 93.3382 20.94 93.3382 20.44V15H95.8582V13H93.3382V9.28H90.9382V13H89.3382V15H90.9382V20.44C90.9382 22.14 92.2782 23.28 94.2582 23.28ZM107.013 13H104.613V18.94C104.613 20.26 103.633 21.16 102.173 21.16C100.713 21.16 99.7326 20.26 99.7326 18.94V13H97.3326V19.22C97.3326 21.66 99.1726 23.28 101.893 23.28C102.873 23.28 103.973 22.88 104.613 22.26V23H107.013V13ZM113.556 23.28C114.736 23.28 116.036 22.74 116.796 21.92V23H119.196V13H116.796V14.08C116.036 13.26 114.736 12.72 113.556 12.72C110.436 12.72 108.356 14.84 108.356 18C108.356 21.16 110.436 23.28 113.556 23.28ZM113.796 21.16C111.976 21.16 110.756 19.9 110.756 18C110.756 16.1 111.976 14.84 113.796 14.84C115.596 14.84 116.796 16.1 116.796 18C116.796 19.9 115.596 21.16 113.796 21.16ZM120.941 23H123.341V9.28H120.941V23ZM130.219 23H132.899V17.82H136.319C139.159 17.82 141.059 16.1 141.059 13.52C141.059 10.98 139.159 9.28 136.319 9.28H130.219V23ZM132.899 15.42V11.68H136.319C137.559 11.68 138.379 12.42 138.379 13.52C138.379 14.66 137.559 15.42 136.319 15.42H132.899ZM142.008 23H144.408V17.08C144.408 15.74 145.468 14.84 147.068 14.84H147.888V13C147.608 12.88 147.188 12.8 146.828 12.8C145.908 12.8 144.928 13.36 144.408 14.18V13H142.008V23ZM153.296 23.28C156.536 23.28 158.716 21.16 158.716 18C158.716 14.84 156.536 12.72 153.296 12.72C150.056 12.72 147.876 14.84 147.876 18C147.876 21.16 150.056 23.28 153.296 23.28ZM153.296 21.16C151.496 21.16 150.276 19.9 150.276 18C150.276 16.1 151.496 14.84 153.296 14.84C155.096 14.84 156.316 16.1 156.316 18C156.316 19.9 155.096 21.16 153.296 21.16ZM164.005 23.28C164.645 23.28 165.325 23.16 165.705 23V21.28H163.965C163.445 21.28 163.085 20.94 163.085 20.44V15H165.605V13H163.085V9.28H160.685V13H159.085V15H160.685V20.44C160.685 22.14 162.025 23.28 164.005 23.28ZM171.709 23.28C174.949 23.28 177.129 21.16 177.129 18C177.129 14.84 174.949 12.72 171.709 12.72C168.469 12.72 166.289 14.84 166.289 18C166.289 21.16 168.469 23.28 171.709 23.28ZM171.709 21.16C169.909 21.16 168.689 19.9 168.689 18C168.689 16.1 169.909 14.84 171.709 14.84C173.509 14.84 174.729 16.1 174.729 18C174.729 19.9 173.509 21.16 171.709 21.16ZM183.484 23.28C186.204 23.28 188.304 21.54 188.724 18.94H186.424C186.124 20.26 184.944 21.16 183.484 21.16C181.684 21.16 180.464 19.9 180.464 18C180.464 16.1 181.684 14.84 183.484 14.84C184.924 14.84 186.084 15.7 186.404 16.96H188.704C188.264 14.42 186.164 12.72 183.484 12.72C180.244 12.72 178.064 14.84 178.064 18C178.064 21.16 180.244 23.28 183.484 23.28ZM195.083 23.28C198.323 23.28 200.503 21.16 200.503 18C200.503 14.84 198.323 12.72 195.083 12.72C191.843 12.72 189.663 14.84 189.663 18C189.663 21.16 191.843 23.28 195.083 23.28ZM195.083 21.16C193.283 21.16 192.063 19.9 192.063 18C192.063 16.1 193.283 14.84 195.083 14.84C196.883 14.84 198.103 16.1 198.103 18C198.103 19.9 196.883 21.16 195.083 21.16ZM201.643 23H204.043V9.28H201.643V23Z" fill="white"/>
<defs>
<clipPath id="clip0_3405_144">
<rect width="30" height="30" fill="white" transform="translate(0.696198)"/>
</clipPath>
</defs>
</svg>
