<?xml version="1.0" encoding="utf-8"?>
<!-- Generator: Adobe Illustrator 23.0.3, SVG Export Plug-In . SVG Version: 6.00 Build 0)  -->
<svg version="1.1" id="Layer_1" xmlns="http://www.w3.org/2000/svg" xmlns:xlink="http://www.w3.org/1999/xlink" x="0px" y="0px"
	 viewBox="0 0 150 47" style="enable-background:new 0 0 150 47;" xml:space="preserve">
<style type="text/css">
	.st0{fill:#FFFFFF;}
</style>
<g>
	<path d="M143.35,1H6.65C3.53,1,1,3.53,1,6.66v33.68C1,43.47,3.53,46,6.65,46h136.69c3.12,0,5.65-2.53,5.65-5.66V6.66
		C149,3.53,146.47,1,143.35,1z"/>
	<g>
		<g>
			<circle class="st0" cx="61.65" cy="19.16" r="2.94"/>
			<path class="st0" d="M104.58,33.14v-8.82c0-2.57-0.83-3.51-2.51-3.51c-1.86,0-2.71,1.12-2.71,3.27v9.06h-4.9v-9.03
				c0-2.12-0.77-3.3-2.45-3.3c-1.92,0-2.77,1.24-2.77,3.51v8.82h-4.9V16.77h4.57v1.74h0.06c0.86-1.53,2.42-2.3,4.51-2.3
				c2.12,0,3.69,1.06,4.72,2.92c1.18-1.86,2.95-2.92,5.19-2.92c3.66,0,6.08,2.24,6.08,6.81v10.12H104.58z"/>
			<path class="st0" d="M73.69,16.26c-4.81,0-8.7,3.9-8.7,8.7c0,4.81,3.9,8.7,8.7,8.7c4.81,0,8.7-3.9,8.7-8.7
				C82.4,20.15,78.5,16.26,73.69,16.26z M73.69,29.09c-2.28,0-4.13-1.85-4.13-4.13c0-2.28,1.85-4.13,4.13-4.13
				c2.28,0,4.13,1.85,4.13,4.13C77.82,27.24,75.98,29.09,73.69,29.09z"/>
		</g>
		<path class="st0" d="M22.41,16.55c2.19,0,4.09,1.23,5.05,3.04h5.95c-0.38-1.58-1.09-3.03-2.05-4.27c-0.98,0.8-2.22,1.28-3.58,1.28
			c-3.13,0-5.67-2.53-5.68-5.66c-6.1,0.17-11,5.16-11,11.3c0,6.25,5.07,11.32,11.32,11.32c5.32,0,9.77-3.68,10.98-8.63h-5.93
			c-0.96,1.81-2.86,3.04-5.05,3.04c-3.15,0-5.71-2.56-5.71-5.71S19.25,16.55,22.41,16.55z"/>
		<g>
			<path class="st0" d="M27.77,5.39c3.05,0,5.53,2.48,5.53,5.53c0,1.62-0.7,3.13-1.92,4.19c-2.19-2.76-5.45-4.34-8.97-4.34
				c-0.06,0-0.11,0-0.17,0.01c0.02-0.67,0.15-1.32,0.4-1.93C23.49,6.75,25.51,5.39,27.77,5.39 M27.77,5.24
				c-2.38,0-4.42,1.47-5.27,3.55c-0.27,0.66-0.41,1.38-0.41,2.13c0,0.01,0,0.01,0,0.02c0.11,0,0.21-0.02,0.32-0.02
				c3.65,0,6.88,1.73,8.95,4.4c1.28-1.04,2.09-2.63,2.09-4.4C33.45,7.78,30.91,5.24,27.77,5.24L27.77,5.24z"/>
		</g>
		<path class="st0" d="M45.78,33.14v-9c0-2.12-0.83-3.33-2.63-3.33c-1.86,0-2.74,1.09-2.74,3.13v9.2h-4.9V11.32h4.9v7.02
			c0.71-1.33,2.3-2.12,4.25-2.12c3.75,0,6.02,2.36,6.02,6.64v10.29H45.78z"/>
		<rect x="53.31" y="16.77" class="st0" width="4.6" height="16.37"/>
		<circle class="st0" cx="114.55" cy="12.71" r="2.94"/>
		<path class="st0" d="M112.1,33.14V16.77h4.9v16.37H112.1z"/>
		<path class="st0" d="M132.02,33.14v-1.77h-0.06c-0.71,1.45-2.65,2.33-4.81,2.33c-4.84,0-8.2-3.81-8.2-8.76
			c0-4.84,3.51-8.73,8.2-8.73c2.01,0,3.86,0.8,4.81,2.3h0.06v-1.74h4.9v16.37H132.02z M132.02,24.94c0-2.3-1.86-4.16-4.16-4.16
			c-2.24,0-4.01,1.86-4.01,4.22c0,2.27,1.8,4.13,4.07,4.13C130.22,29.13,132.02,27.3,132.02,24.94z"/>
	</g>
</g>
</svg>
