<?xml version="1.0" encoding="utf-8"?>
<!-- Generator: Adobe Illustrator 22.0.1, SVG Export Plug-In . SVG Version: 6.00 Build 0)  -->
<svg version="1.1" id="Layer_1" xmlns="http://www.w3.org/2000/svg" xmlns:xlink="http://www.w3.org/1999/xlink" x="0px" y="0px"
	 viewBox="0 0 1024 1024" style="enable-background:new 0 0 1024 1024;" xml:space="preserve">
<style type="text/css">
	.st0{fill:#E3DFF2;}
	.st1{fill:#8979C3;}
	.st2{fill:#786BA2;}
	.st3{fill:#6F639F;}
	.st4{fill:#BEB6DD;}
	.st5{fill:#E1DDF0;}
</style>
<g>
	<path class="st0" d="M417.4,413.2c-1.4,0-2.6,0.5-3.5,1.7c-23.9,16.7-44.1,36.7-52.2,65.7c-14.8,52.9,4.5,98.3,36.1,141.8
		c-45.3,2.7-87.1,7.5-125.4,27.6c-30.8,16.1-39.4,33.3-33.8,66.1c-5.3,25.9,5.9,43.9,28.5,54.3c87.9,40.7,176.7,41.8,265.2,2.5
		c28.5-12.7,34.9-29.2,29.9-61.2c-1.3-20.2,8.5-30.6,27.4-37.7c19-7.2,35-20.6,45-39.5c7.1-3.7,10-11,14-17.2
		c39.5-62.1,75.2-126.2,106.2-192.9c22.1-47.5,42.2-95.8,48.9-148.6c4.4-34.1-9.1-49.3-42-42c-119.6,26.4-227,78.4-321.4,156.6
		c-8.2,6.8-19.1,11.1-22.9,22.5L417.4,413.2z M1018.5,512c0,279.7-226.8,506.5-506.5,506.5S5.5,791.7,5.5,512S232.3,5.5,512,5.5
		S1018.5,232.3,1018.5,512z"/>
	<path class="st1" d="M417.3,412.9c3.8-11.3,14.7-15.7,22.9-22.5c94.4-78.2,201.8-130.2,321.4-156.6c32.9-7.3,46.3,7.9,42,42
		c-6.7,52.8-26.8,101.1-48.9,148.6c-31,66.7-66.7,130.9-106.2,192.9c-3.9,6.2-6.8,13.5-14,17.2c0.8-15.6,8.2-29.8,8.5-45.7
		c1.4-75.7-47.1-143.7-120.5-171.1C487.4,404.6,452.8,405.4,417.3,412.9z M699.7,399.8c3.1-20.4-7.9-33.8-15.2-48.6
		c-6.3-12.9-16.6-22.8-29.9-29c-4.3-2-9.4-3.7-13.2,0.2c-4.5,4.5-1.1,8.9,1.9,12.5C662,356.6,680.8,378.2,699.7,399.8z M676.4,505.2
		c2.6-19.3-1.9-36.7-13.5-52.1c-1.9-2.6-4.7-5.6-8.4-4c-4.8,2.1-4.3,7.2-2.6,10.4C660,474.5,663.1,492.2,676.4,505.2z"/>
	<path class="st2" d="M417.3,412.9c35.5-7.5,70.1-8.3,105.2,4.8c73.3,27.4,121.9,95.4,120.5,171.1c-0.3,15.9-7.7,30.1-8.5,45.7
		c-10,18.8-25.9,32.3-45,39.5c-18.9,7.1-28.7,17.5-27.4,37.7c-14.7,9.4-25.7,23.4-42.8,30.3C454.2,768.3,388,769.5,320,755.4
		c-30.9-6.4-55.3-24.3-81.5-39.4c-5.6-32.8,3-50,33.8-66.1c38.3-20,80.1-24.9,125.4-27.6c-31.5-43.6-50.8-88.9-36.1-141.8
		c8.1-29,28.3-48.9,52.2-65.7c2.2,1.6,3.2,0.8,3.5-1.7L417.3,412.9z M630.8,579.2c-0.1-71.4-70.7-149.6-141.9-157.3
		c-66.4-7.2-108.2,19.3-118,77.9c-7.8,46.6,12.9,84.7,42.3,118.9c3.9,4.6,9.8,3.9,15.1,4.7c45.3,6.3,90.7,12.2,126.5,44.9
		c6.3,5.7,12.7,2,19-0.6C610.7,652.5,630.9,621.2,630.8,579.2z M398.7,634.7c-14.9,1.4-34,2.3-52.8,5.3
		c-29.7,4.7-58.9,11.9-83.1,31.2c-16.9,13.5-17.5,28-1.8,42.9c5.4,5.1,11.4,10.2,18.1,13c80.4,34.3,161.2,34.1,241.6,0.7
		c14.7-6.1,31.4-15.4,30.8-34.5c-0.6-18.6-17.2-26.7-31.8-34C483,640.7,443,637.2,398.7,634.7z"/>
	<path class="st1" d="M238.5,716.1c26.2,15.1,50.6,33,81.5,39.4c67.9,14.1,134.1,12.9,199.3-13.4c17.1-6.9,28.1-20.9,42.8-30.3
		c5,32-1.4,48.5-29.9,61.2c-88.5,39.3-177.3,38.2-265.2-2.5C244.4,759.9,233.2,742,238.5,716.1z"/>
	<path class="st1" d="M417.4,413.2c-0.3,2.5-1.3,3.3-3.5,1.7C414.8,413.7,416,413.2,417.4,413.2z"/>
	<path class="st3" d="M699.7,399.8c-18.8-21.6-37.7-43.2-56.4-64.9c-3-3.5-6.4-8-1.9-12.5c3.9-3.9,8.9-2.2,13.2-0.2
		c13.3,6.1,23.6,16.1,29.9,29C691.8,365.9,702.8,379.4,699.7,399.8z"/>
	<path class="st3" d="M676.4,505.2c-13.3-13-16.3-30.7-24.5-45.8c-1.7-3.2-2.2-8.3,2.6-10.4c3.7-1.6,6.5,1.4,8.4,4
		C674.4,468.5,679,485.9,676.4,505.2z"/>
	<path class="st4" d="M630.8,579.2c0.1,42-20.1,73.3-56.9,88.4c-6.3,2.6-12.7,6.4-19,0.6c-35.9-32.8-81.3-38.7-126.5-44.9
		c-5.4-0.7-11.2-0.1-15.1-4.7c-29.3-34.2-50-72.3-42.3-118.9c9.8-58.6,51.6-85.1,118-77.9C560.1,429.6,630.7,507.8,630.8,579.2z"/>
	<path class="st5" d="M398.7,634.7c44.3,2.5,84.3,6.1,121,24.5c14.6,7.3,31.2,15.4,31.8,34c0.6,19.1-16,28.4-30.8,34.5
		c-80.4,33.3-161.3,33.5-241.6-0.7c-6.7-2.8-12.7-7.9-18.1-13c-15.6-14.8-15.1-29.4,1.8-42.9c24.2-19.3,53.4-26.5,83.1-31.2
		C364.7,637,383.8,636.1,398.7,634.7z"/>
</g>
</svg>
