<?xml version="1.0" encoding="utf-8"?>
<!-- Generator: Adobe Illustrator 16.0.0, SVG Export Plug-In . SVG Version: 6.00 Build 0)  -->
<!DOCTYPE svg PUBLIC "-//W3C//DTD SVG 1.1//EN" "http://www.w3.org/Graphics/SVG/1.1/DTD/svg11.dtd">
<svg version="1.1" id="Layer_1" xmlns="http://www.w3.org/2000/svg" xmlns:xlink="http://www.w3.org/1999/xlink" x="0px" y="0px"
	 width="500px" height="500px" viewBox="0 0 500 500" enable-background="new 0 0 500 500" xml:space="preserve">
<g>
	<path fill="#58BD83" d="M216.512,3.75c21.67,0,43.34,0,65.008,0c2.641,3.885,7.051,2.917,10.673,3.53
		c101.775,17.224,183.304,98.752,200.525,200.528c0.615,3.624-0.354,8.031,3.531,10.671c0,21.67,0,43.341,0,65.011
		c-4.039,2.049-3.106,6.191-3.67,9.479c-17.341,101.295-98.912,182.574-200.418,199.758c-3.61,0.609-8.011-0.355-10.644,3.523
		c-21.67,0-43.338,0-65.008,0c-2.053-4.043-6.195-3.105-9.485-3.672C106.065,475.291,24.709,393.936,7.424,292.975
		c-0.563-3.289,0.37-7.436-3.673-9.484c0-22.326,0-44.654,0-66.98c3.818-1.725,2.998-5.535,3.527-8.513
		C25.639,104.7,104.7,25.64,207.998,7.279C210.975,6.748,214.785,7.57,216.512,3.75z M123.885,266.51
		c-0.045,71.486,63.791,127.006,133.431,115.178c42.604-7.236,72.744-31.395,89.784-71.307c4.091-9.588,3.063-10.904-6.973-11.127
		c-6.555-0.146-13.13,0.184-19.678-0.086c-6.26-0.254-10.266,2.16-13.452,7.73c-26.565,46.424-92.256,48.92-123.97,13.766
		c-31.678-35.109-27.24-92.325,12.849-117.471c10.25-6.433,14.229-13.449,12.802-24.716c-0.367-2.907-0.027-5.898-0.064-8.849
		c-0.15-12.278-2.516-13.783-14.077-8.99C152.53,178.048,123.915,220.927,123.885,266.51z M234.223,231.521
		c0.002,19.1,1.199,20.762,19.451,25.791c6.008,1.656,12.08,3.125,18.188,4.369c4.397,0.896,7.78,3.004,7.394,7.658
		c-0.97,11.549,5.773,13,14.775,12.26c3.261-0.27,6.57-0.223,9.84-0.018c8.62,0.541,13.402-2.473,11.684-11.969
		c-0.855-4.732,1.438-7.438,5.773-8.854c3.431-1.123,6.972-2.053,10.208-3.602c16.356-7.83,26.558-20.052,26.814-38.963
		c0.245-17.89-8.234-29.948-26.135-37.721c-8.503-3.694-17.517-5.455-26.49-7.412c-9.288-2.025-18.619-3.895-27.839-6.21
		c-3.427-0.86-7.34-2.372-7.094-6.943c0.215-4.044,3.367-6.303,6.846-7.628c4.615-1.762,9.455-2.585,14.439-2.714
		c15.073-0.389,29.217,3.414,43.001,9.092c3.191,1.314,7.92,3.866,8.746-1.637c1.455-9.669,2.823-20.008-0.771-29.151
		c-2.657-6.755-11.345-5.578-17.563-6.604c-8.288-1.367-13.227-4.323-12.663-13.792c0.419-7.022-5.344-7.984-10.324-7.044
		c-8.27,1.559-18.602-5.483-24.63,5.578c-0.431,0.791-0.372,1.957-0.261,2.915c0.954,8.201-3.178,11.945-10.854,13.391
		c-3.457,0.652-6.668,2.657-9.976,4.093c-15.843,6.887-24.132,19.153-23.771,36.248c0.393,18.449,10.584,30.768,28.623,37.091
		c13.728,4.813,28.203,6.064,42.236,9.351c6.507,1.521,16.854,0.562,16.216,10.538c-0.652,10.305-10.933,9.666-18.464,10.489
		c-17.902,1.959-34.316-4.151-50.574-10.462C234.18,213.114,234.223,213.01,234.223,231.521z"/>
	<path fill="#50BB7A" d="M123.885,266.51c0.03-45.583,28.646-88.461,70.652-105.873c11.563-4.792,13.928-3.288,14.077,8.99
		c0.037,2.951-0.304,5.942,0.065,8.849c1.428,11.268-2.551,18.284-12.803,24.716c-40.089,25.146-44.525,82.363-12.849,117.472
		c31.714,35.154,97.403,32.658,123.97-13.766c3.188-5.572,7.192-7.984,13.452-7.73c6.548,0.27,13.123-0.061,19.678,0.084
		c10.033,0.225,11.063,1.539,6.973,11.127c-17.04,39.914-47.183,64.07-89.784,71.307C187.676,393.516,123.84,337.996,123.885,266.51
		z M128.947,259.678c-0.426,78.07,66.138,131.709,135.008,115.639c35.421-8.268,60.896-29.512,76.445-62.43
		c1.16-2.457,4.956-7.043-0.042-7.939c-7.629-1.373-15.688-0.738-23.536-0.389c-5.26,0.234-5.736,5.764-8.104,9.037
		c-20.296,28.098-47.712,41.135-81.905,35.563c-35.799-5.836-59.364-27.572-67.807-62.863c-8.145-34.027,2.032-63.716,30.34-84.455
		c10.881-7.973,14.551-15.497,13.515-27.944c-0.964-11.57-0.343-11.85-10.351-6.778
		C151.629,187.828,130.863,221.442,128.947,259.678z"/>
	<path fill="#50BB7A" d="M234.223,231.521c0-18.512-0.043-18.409,16.83-11.857c16.26,6.312,32.672,12.421,50.576,10.462
		c7.531-0.823,17.812-0.185,18.464-10.489c0.639-9.976-9.709-9.017-16.216-10.538c-14.035-3.286-28.511-4.538-42.236-9.351
		c-18.039-6.323-28.229-18.643-28.623-37.091c-0.361-17.095,7.927-29.361,23.771-36.248c3.306-1.436,6.517-3.44,9.976-4.093
		c7.674-1.446,11.808-5.19,10.854-13.391c-0.109-0.958-0.17-2.124,0.261-2.915c6.028-11.062,16.36-4.019,24.632-5.578
		c4.979-0.939,10.741,0.022,10.322,7.044c-0.563,9.469,4.375,12.424,12.663,13.792c6.22,1.026,14.905-0.152,17.563,6.604
		c3.594,9.144,2.226,19.482,0.771,29.151c-0.826,5.503-5.555,2.952-8.746,1.637c-13.784-5.678-27.928-9.48-43.001-9.092
		c-4.982,0.128-9.822,0.952-14.439,2.714c-3.479,1.325-6.631,3.584-6.846,7.628c-0.246,4.571,3.668,6.083,7.096,6.943
		c9.219,2.315,18.551,4.185,27.837,6.21c8.976,1.958,17.987,3.718,26.49,7.412c17.898,7.773,26.382,19.831,26.135,37.721
		c-0.259,18.912-10.458,31.134-26.814,38.963c-3.236,1.549-6.777,2.479-10.208,3.6c-4.335,1.418-6.631,4.121-5.772,8.854
		c1.72,9.496-3.063,12.512-11.685,11.971c-3.268-0.205-6.579-0.252-9.84,0.016c-9.002,0.74-15.745-0.711-14.775-12.258
		c0.39-4.654-2.994-6.766-7.394-7.66c-6.106-1.242-12.179-2.713-18.187-4.367C235.422,252.283,234.225,250.621,234.223,231.521z
		 M298.077,276.711c3.731-2.131,14.51,4.551,11.968-7.041c-2.343-10.678,2.164-12.258,10.652-14.258
		c20.271-4.775,32.048-18.765,32.548-36.792c0.511-18.35-8.91-29.845-31.069-36.091c-12.592-3.55-25.692-5.249-38.375-8.535
		c-8.234-2.133-18.625-2.97-18.584-15.177c0.027-7.492,8.12-12.392,21.248-13.7c16.025-1.597,31.399,1.427,46.263,7.131
		c5.142,1.972,6.814,1.21,7.135-4.569c1.044-19.007,1.009-19.285-17.906-22.132c-2.268-0.34-4.555-1.077-6.805-0.979
		c-6.854,0.298-9.658-2.354-7.773-9.319c2.138-7.891-1.177-10.954-9.048-9.948c-2.262,0.289-4.618,0.273-6.882,0
		c-7.542-0.91-10.595,2.01-8.271,9.496c2.246,7.254-0.854,9.956-7.873,10.687c-7.229,0.754-13.994,3.476-20.227,7.277
		c-11.247,6.863-17.372,16.618-16.813,30.127c0.554,13.41,7.037,22.89,18.884,28.884c7.086,3.583,14.696,5.492,22.407,7.186
		c12.158,2.667,24.752,3.375,36.485,7.885c5.783,2.223,10.714,5.63,10.641,12.646c-0.073,6.854-4.767,10.51-10.498,12.906
		c-8.389,3.5-17.195,3.922-26.119,3.021c-12.497-1.265-24.456-4.666-36.103-9.253c-14.253-5.611-13.722-5.597-14.425,9.595
		c-0.405,8.718,2.413,13.081,10.878,15.351c9.85,2.639,19.645,5.416,29.799,6.176c5.323,0.4,6.348,2.271,5.742,7.369
		C284.54,276.662,284.846,276.699,298.077,276.711z"/>
	<path fill="#FDFEFF" d="M128.947,259.678c1.916-38.234,22.682-71.85,63.564-92.562c10.008-5.071,9.388-4.792,10.351,6.778
		c1.037,12.447-2.634,19.971-13.515,27.944c-28.309,20.738-38.484,50.426-30.34,84.456c8.442,35.291,32.008,57.027,67.807,62.863
		c34.191,5.574,61.607-7.465,81.905-35.561c2.366-3.275,2.845-8.805,8.104-9.037c7.849-0.354,15.907-0.986,23.536,0.387
		c4.998,0.898,1.202,5.482,0.042,7.941c-15.552,32.916-41.023,54.16-76.445,62.428C195.085,391.387,128.521,337.748,128.947,259.678
		z"/>
	<path fill="#FDFEFF" d="M298.077,276.711c-13.231-0.012-13.537-0.049-12.121-12.057c0.604-5.098-0.419-6.967-5.743-7.367
		c-10.154-0.762-19.949-3.537-29.798-6.178c-8.466-2.27-11.284-6.632-10.878-15.35c0.704-15.192,0.172-15.206,14.424-9.595
		c11.646,4.587,23.604,7.988,36.102,9.253c8.926,0.902,17.732,0.479,26.119-3.021c5.733-2.396,10.427-6.053,10.498-12.906
		c0.075-7.016-4.854-10.423-10.639-12.646c-11.734-4.511-24.328-5.219-36.486-7.885c-7.711-1.693-15.322-3.602-22.408-7.186
		c-11.846-5.995-18.33-15.475-18.883-28.884c-0.558-13.509,5.566-23.264,16.813-30.127c6.229-3.801,12.997-6.523,20.228-7.277
		c7.019-0.731,10.116-3.433,7.871-10.687c-2.32-7.486,0.729-10.406,8.271-9.496c2.264,0.273,4.62,0.289,6.882,0
		c7.871-1.006,11.185,2.057,9.048,9.948c-1.885,6.964,0.919,9.617,7.773,9.319c2.25-0.098,4.537,0.639,6.805,0.979
		c18.915,2.847,18.95,3.125,17.906,22.132c-0.318,5.779-1.993,6.541-7.135,4.569c-14.861-5.704-30.235-8.729-46.264-7.131
		c-13.127,1.308-21.22,6.208-21.246,13.7c-0.043,12.207,10.348,13.044,18.584,15.177c12.68,3.286,25.782,4.984,38.374,8.535
		c22.159,6.246,31.58,17.741,31.069,36.091c-0.5,18.026-12.275,32.015-32.548,36.792c-8.488,2-12.995,3.578-10.652,14.256
		C312.587,281.262,301.809,274.58,298.077,276.711z"/>
</g>
</svg>
